<svg width="32" height="32" viewBox="0 0 32 32" fill="none" xmlns="http://www.w3.org/2000/svg">
<g clip-path="url(#clip0_1128_4703)">
<path d="M32 18.29H30.47V19.81H32V18.29Z" fill="currentColor"/>
<path d="M30.47 19.81H28.95V21.33H30.47V19.81Z" fill="currentColor"/>
<path d="M30.47 16.76H28.95V18.29H30.47V16.76Z" fill="currentColor"/>
<path d="M28.95 21.33H27.43V22.86H28.95V21.33Z" fill="currentColor"/>
<path d="M28.95 15.24H27.43V16.76H28.95V15.24Z" fill="currentColor"/>
<path d="M27.43 22.86H25.9V24.38H27.43V22.86Z" fill="currentColor"/>
<path d="M27.43 13.72H25.9V15.24H27.43V13.72Z" fill="currentColor"/>
<path d="M25.9 24.38H24.38V25.91H25.9V24.38Z" fill="currentColor"/>
<path d="M25.9 12.19H24.38V13.72H25.9V12.19Z" fill="currentColor"/>
<path d="M24.38 25.91H22.86V27.43H24.38V25.91Z" fill="currentColor"/>
<path d="M24.38 10.67H22.86V12.19H24.38V10.67Z" fill="currentColor"/>
<path d="M22.86 27.43H21.33V28.95H22.86V27.43Z" fill="currentColor"/>
<path d="M22.86 21.33H21.33V22.86H22.86V21.33Z" fill="currentColor"/>
<path d="M22.86 16.76H21.33V19.81H22.86V16.76Z" fill="currentColor"/>
<path d="M22.86 9.14001H21.33V10.67H22.86V9.14001Z" fill="currentColor"/>
<path d="M21.33 28.95H19.81V30.48H21.33V28.95Z" fill="currentColor"/>
<path d="M21.33 19.81H19.81V21.33H21.33V19.81Z" fill="currentColor"/>
<path d="M21.33 15.24H18.28V16.76H21.33V15.24Z" fill="currentColor"/>
<path d="M21.33 7.62H19.81V9.14H21.33V7.62Z" fill="currentColor"/>
<path d="M19.81 30.48H18.28V32H19.81V30.48Z" fill="currentColor"/>
<path d="M19.81 18.29H18.28V19.81H19.81V18.29Z" fill="currentColor"/>
<path d="M19.81 6.10001H18.28V7.62001H19.81V6.10001Z" fill="currentColor"/>
<path d="M18.28 28.95H16.76V30.48H18.28V28.95Z" fill="currentColor"/>
<path d="M19.81 21.33H16.76V22.86H19.81V21.33Z" fill="currentColor"/>
<path d="M18.28 16.76H16.76V18.29H18.28V16.76Z" fill="currentColor"/>
<path d="M18.28 12.19H15.24V13.72H18.28V12.19Z" fill="currentColor"/>
<path d="M18.28 4.57001H16.76V6.10001H18.28V4.57001Z" fill="currentColor"/>
<path d="M16.76 27.43H15.24V28.95H16.76V27.43Z" fill="currentColor"/>
<path d="M16.76 15.24H15.24V16.76H16.76V15.24Z" fill="currentColor"/>
<path d="M16.76 3.04999H15.24V4.56999H16.76V3.04999Z" fill="currentColor"/>
<path d="M15.24 25.91H13.71V27.43H15.24V25.91Z" fill="currentColor"/>
<path d="M16.76 18.29H13.71V19.81H16.76V18.29Z" fill="currentColor"/>
<path d="M15.24 13.72H13.71V15.24H15.24V13.72Z" fill="currentColor"/>
<path d="M13.71 24.38H12.19V25.91H13.71V24.38Z" fill="currentColor"/>
<path d="M13.71 15.24H12.19V18.29H13.71V15.24Z" fill="currentColor"/>
<path d="M13.71 12.19H12.19V13.72H13.71V12.19Z" fill="currentColor"/>
<path d="M12.19 22.86H10.66V24.38H12.19V22.86Z" fill="currentColor"/>
<path d="M10.66 21.33H9.14001V22.86H10.66V21.33Z" fill="currentColor"/>
<path d="M9.14001 7.62001H7.62001V9.14001H6.09001V7.62001H4.57001V10.67H10.66V4.57001H7.62001V6.10001H9.14001V7.62001Z" fill="currentColor"/>
<path d="M9.14 19.81H7.62V21.33H9.14V19.81Z" fill="currentColor"/>
<path d="M7.62 18.29H6.09V19.81H7.62V18.29Z" fill="currentColor"/>
<path d="M7.62 6.10001H6.09V7.62001H7.62V6.10001Z" fill="currentColor"/>
<path d="M15.24 1.51999H4.57001V3.04999H15.24V1.51999Z" fill="currentColor"/>
<path d="M6.09001 16.76H4.57001V18.29H6.09001V16.76Z" fill="currentColor"/>
<path d="M6.09001 4.57001H4.57001V6.10001H6.09001V4.57001Z" fill="currentColor"/>
<path d="M4.56999 15.24H3.04999V16.76H4.56999V15.24Z" fill="currentColor"/>
<path d="M4.56999 3.04999H3.04999V4.56999H4.56999V3.04999Z" fill="currentColor"/>
<path d="M3.04999 4.57001H1.51999V15.24H3.04999V4.57001Z" fill="currentColor"/>
<path d="M3.04999 1.51999H1.51999V3.04999H3.04999V1.51999Z" fill="currentColor"/>
<path d="M1.52 0H0V1.52H1.52V0Z" fill="currentColor"/>
</g>
<defs>
<clipPath id="clip0_1128_4703">
<rect width="32" height="32" fill="white"/>
</clipPath>
</defs>
</svg>
