<svg width="32" height="32" viewBox="0 0 32 32" fill="none" xmlns="http://www.w3.org/2000/svg">
<g clip-path="url(#clip0_1128_4050)">
<path d="M32 3.05005H30.48V22.8601H32V3.05005Z" fill="currentColor"/>
<path d="M30.48 22.86H28.95V24.39H30.48V22.86Z" fill="currentColor"/>
<path d="M30.48 1.53003H28.95V3.05003H30.48V1.53003Z" fill="currentColor"/>
<path d="M3.04999 24.39V25.91H6.09999V28.96H4.56999V30.48H3.04999V32H13.72V30.48H12.19V28.96H10.67V25.91H21.33V28.96H19.81V30.48H18.29V32H28.95V30.48H27.43V28.96H25.91V25.91H28.95V24.39H3.04999ZM9.13999 28.96H7.61999V25.91H9.13999V28.96ZM24.38 28.96H22.86V25.91H24.38V28.96Z" fill="currentColor"/>
<path d="M22.86 13.72V21.34H27.43V19.81H24.38V18.29H25.91V16.77H24.38V15.24H27.43V13.72H22.86Z" fill="currentColor"/>
<path d="M24.38 9.15002H22.86V12.2H24.38V9.15002Z" fill="currentColor"/>
<path d="M24.38 6.09998H22.86V7.61998H24.38V6.09998Z" fill="currentColor"/>
<path d="M22.86 7.61996H21.33V6.09996H22.86V4.57996H19.81V12.2H21.33V9.14996H22.86V7.61996Z" fill="currentColor"/>
<path d="M18.29 13.72H16.76V21.34H21.33V19.81H18.29V13.72Z" fill="currentColor"/>
<path d="M18.29 4.57996H13.72V12.2H18.29V4.57996ZM16.76 10.67H15.24V6.09996H16.76V10.67Z" fill="currentColor"/>
<path d="M10.67 13.72V21.34H12.19V18.29H13.72V21.34H15.24V13.72H10.67ZM13.72 16.77H12.19V15.24H13.72V16.77Z" fill="currentColor"/>
<path d="M12.19 7.61996H9.14V6.09996H12.19V4.57996H7.62V12.2H9.14V9.14996H12.19V7.61996Z" fill="currentColor"/>
<path d="M4.57001 13.72V18.29H7.62001V19.81H4.57001V21.34H9.14001V16.77H6.10001V15.24H9.14001V13.72H4.57001Z" fill="currentColor"/>
<path d="M28.95 0H3.04999V1.53H28.95V0Z" fill="currentColor"/>
<path d="M3.05002 22.86H1.52002V24.39H3.05002V22.86Z" fill="currentColor"/>
<path d="M3.05002 1.53003H1.52002V3.05003H3.05002V1.53003Z" fill="currentColor"/>
<path d="M1.52 3.05005H0V22.8601H1.52V3.05005Z" fill="currentColor"/>
</g>
<defs>
<clipPath id="clip0_1128_4050">
<rect width="32" height="32" fill="white"/>
</clipPath>
</defs>
</svg>
