<svg width="32" height="32" viewBox="0 0 32 32" fill="none" xmlns="http://www.w3.org/2000/svg">
<g clip-path="url(#clip0_1135_4043)">
<path d="M27.43 4.57007V6.10007H30.47V13.7201H25.9V15.2401H19.81V16.7601H13.71V18.2901H9.13999V19.8101H1.51999V21.3401H3.04999V22.8601H16.76V21.3401H15.24V19.8101H18.28V18.2901H22.86V19.8101H24.38V21.3401H25.9V18.2901H28.95V16.7601H30.47V15.2401H32V4.57007H27.43Z" fill="currentColor"/>
<path d="M30.47 24.38H28.95V27.43H30.47V24.38Z" fill="currentColor"/>
<path d="M28.95 22.8601H27.43V24.3801H28.95V22.8601Z" fill="currentColor"/>
<path d="M28.95 27.4301H25.9V28.9501H28.95V27.4301Z" fill="currentColor"/>
<path d="M27.43 21.3401H25.9V22.8601H27.43V21.3401Z" fill="currentColor"/>
<path d="M27.43 6.1001H25.9V9.1401H27.43V6.1001Z" fill="currentColor"/>
<path d="M25.9 25.91H22.86V27.43H25.9V25.91Z" fill="currentColor"/>
<path d="M25.9 9.14001H24.38V10.67H25.9V9.14001Z" fill="currentColor"/>
<path d="M24.38 4.57007H22.86V7.62007H24.38V4.57007Z" fill="currentColor"/>
<path d="M22.86 24.38H19.81V25.91H22.86V24.38Z" fill="currentColor"/>
<path d="M22.86 7.62H21.33V9.14H22.86V7.62Z" fill="currentColor"/>
<path d="M22.86 3.05005H19.81V4.57005H22.86V3.05005Z" fill="currentColor"/>
<path d="M19.81 22.8601H16.76V24.3801H19.81V22.8601Z" fill="currentColor"/>
<path d="M19.81 4.57007H16.76V6.10007H19.81V4.57007Z" fill="currentColor"/>
<path d="M18.28 13.7201H16.76V15.2401H18.28V13.7201Z" fill="currentColor"/>
<path d="M16.76 6.1001H15.24V7.6201H16.76V6.1001Z" fill="currentColor"/>
<path d="M15.24 13.7201H13.71V15.2401H15.24V13.7201Z" fill="currentColor"/>
<path d="M15.24 7.62H13.71V9.14H15.24V7.62Z" fill="currentColor"/>
<path d="M12.19 13.7201H10.66V15.2401H12.19V13.7201Z" fill="currentColor"/>
<path d="M7.62 13.7201H6.09V16.7601H7.62V13.7201Z" fill="currentColor"/>
<path d="M6.08999 12.19H24.38V10.67H21.33V9.14001H19.81V10.67H13.71V9.14001H12.19V10.67H4.56999V12.19H3.04999V13.72H6.08999V12.19Z" fill="currentColor"/>
<path d="M6.09 18.29V16.76H1.52V15.24H0V19.81H1.52V18.29H6.09Z" fill="currentColor"/>
<path d="M3.04999 13.7201H1.51999V15.2401H3.04999V13.7201Z" fill="currentColor"/>
</g>
<defs>
<clipPath id="clip0_1135_4043">
<rect width="32" height="32" fill="white"/>
</clipPath>
</defs>
</svg>
