<svg width="32" height="32" viewBox="0 0 32 32" fill="none" xmlns="http://www.w3.org/2000/svg">
<g clip-path="url(#clip0_1135_2435)">
<path d="M30.48 12.9551H28.95V17.5251H25.91V19.0551H28.95V20.5751H25.91V22.0951H28.95V23.6251H30.48V22.0951H32V20.5751H30.48V19.0551H32V17.5251H30.48V12.9551Z" fill="currentColor"/>
<path d="M28.95 23.625H27.43V25.145H28.95V23.625Z" fill="currentColor"/>
<path d="M28.95 9.90503H27.43V12.955H28.95V9.90503Z" fill="currentColor"/>
<path d="M27.43 25.145H25.91V26.675H27.43V25.145Z" fill="currentColor"/>
<path d="M27.43 6.86499H25.91V9.90499H27.43V6.86499Z" fill="currentColor"/>
<path d="M25.91 3.81506H24.38V6.86506H25.91V3.81506Z" fill="currentColor"/>
<path d="M25.91 26.675H22.86V28.195H25.91V26.675Z" fill="currentColor"/>
<path d="M24.38 22.0951H22.86V23.6251H24.38V22.0951Z" fill="currentColor"/>
<path d="M24.38 19.0551H22.86V20.5751H24.38V19.0551Z" fill="currentColor"/>
<path d="M24.38 2.28503H22.86V3.81503H24.38V2.28503Z" fill="currentColor"/>
<path d="M22.86 3.81506H21.34V5.33506H22.86V3.81506Z" fill="currentColor"/>
<path d="M22.86 28.1951H9.14999V29.7151H22.86V28.1951Z" fill="currentColor"/>
<path d="M21.34 8.38501H19.81V11.435H21.34V8.38501Z" fill="currentColor"/>
<path d="M21.34 5.33508H19.81V6.86508H21.34V5.33508Z" fill="currentColor"/>
<path d="M19.81 14.475H18.29V16.005H19.81V14.475Z" fill="currentColor"/>
<path d="M18.29 22.0951H16.76V23.6251H18.29V22.0951Z" fill="currentColor"/>
<path d="M12.19 17.525V19.055H13.72V20.575H16.76V19.055H18.29V17.525H12.19Z" fill="currentColor"/>
<path d="M16.76 23.625H13.72V25.145H16.76V23.625Z" fill="currentColor"/>
<path d="M15.24 8.38499V11.435H16.76V8.38499H19.81V6.86499H12.19V8.38499H15.24Z" fill="currentColor"/>
<path d="M12.19 14.475H10.67V16.005H12.19V14.475Z" fill="currentColor"/>
<path d="M12.19 8.38501H10.67V11.435H12.19V8.38501Z" fill="currentColor"/>
<path d="M12.19 5.33508H10.67V6.86508H12.19V5.33508Z" fill="currentColor"/>
<path d="M10.67 3.81506H9.14999V5.33506H10.67V3.81506Z" fill="currentColor"/>
<path d="M9.15001 26.675H6.10001V28.195H9.15001V26.675Z" fill="currentColor"/>
<path d="M9.14999 22.0951H7.62V23.6251H9.14999V22.0951Z" fill="currentColor"/>
<path d="M9.14999 19.0551H7.62V20.5751H9.14999V19.0551Z" fill="currentColor"/>
<path d="M9.14999 2.28503H7.62V3.81503H9.14999V2.28503Z" fill="currentColor"/>
<path d="M7.62001 3.81506H6.10001V6.86506H7.62001V3.81506Z" fill="currentColor"/>
<path d="M6.10001 25.145H4.57001V26.675H6.10001V25.145Z" fill="currentColor"/>
<path d="M6.10001 6.86499H4.57001V9.90499H6.10001V6.86499Z" fill="currentColor"/>
<path d="M4.56999 23.625H3.04999V25.145H4.56999V23.625Z" fill="currentColor"/>
<path d="M6.1 22.0951V20.5751H3.05V19.0551H6.1V17.5251H3.05V12.9551H1.53V17.5251H0V19.0551H1.53V20.5751H0V22.0951H1.53V23.6251H3.05V22.0951H6.1Z" fill="currentColor"/>
<path d="M4.56999 9.90503H3.04999V12.955H4.56999V9.90503Z" fill="currentColor"/>
</g>
<defs>
<clipPath id="clip0_1135_2435">
<rect width="32" height="32" fill="white"/>
</clipPath>
</defs>
</svg>
