<svg width="32" height="32" viewBox="0 0 32 32" fill="none" xmlns="http://www.w3.org/2000/svg">
<g clip-path="url(#clip0_1128_12284)">
<path d="M32 6.1H30.47V10.67H32V6.1Z" fill="currentColor"/>
<path d="M30.4699 10.67H28.95V12.19H30.4699V10.67Z" fill="currentColor"/>
<path d="M30.4699 4.57H28.95V6.1H30.4699V4.57Z" fill="currentColor"/>
<path d="M28.9501 12.19H27.4301V13.71H28.9501V12.19Z" fill="currentColor"/>
<path d="M28.9501 3.05H27.4301V4.57H28.9501V3.05Z" fill="currentColor"/>
<path d="M27.43 13.71H25.9V15.24H27.43V13.71Z" fill="currentColor"/>
<path d="M27.43 10.67H25.9V12.19H27.43V10.67Z" fill="currentColor"/>
<path d="M27.43 1.52H25.9V3.05H27.43V1.52Z" fill="currentColor"/>
<path d="M25.9 15.24H24.38V16.76H25.9V15.24Z" fill="currentColor"/>
<path d="M25.9 9.14H24.38V10.67H25.9V9.14Z" fill="currentColor"/>
<path d="M24.38 16.76H22.85V18.29H24.38V16.76Z" fill="currentColor"/>
<path d="M24.38 10.67H22.85V12.19H24.38V10.67Z" fill="currentColor"/>
<path d="M24.38 7.62H22.85V9.14H24.38V7.62Z" fill="currentColor"/>
<path d="M25.9 0H21.33V1.52H25.9V0Z" fill="currentColor"/>
<path d="M22.85 18.29H21.33V19.81H22.85V18.29Z" fill="currentColor"/>
<path d="M22.85 12.19H21.33V13.71H22.85V12.19Z" fill="currentColor"/>
<path d="M22.85 6.1H21.33V7.62H22.85V6.1Z" fill="currentColor"/>
<path d="M21.3301 19.81H19.8101V21.33H21.3301V19.81Z" fill="currentColor"/>
<path d="M21.3301 13.71H19.8101V15.24H21.3301V13.71Z" fill="currentColor"/>
<path d="M21.3301 7.62H19.8101V9.14H21.3301V7.62Z" fill="currentColor"/>
<path d="M21.3301 4.57H19.8101V6.1H21.3301V4.57Z" fill="currentColor"/>
<path d="M21.3301 1.52H19.8101V3.05H21.3301V1.52Z" fill="currentColor"/>
<path d="M19.81 21.33H18.28V22.86H19.81V21.33Z" fill="currentColor"/>
<path d="M19.81 15.24H18.28V16.76H19.81V15.24Z" fill="currentColor"/>
<path d="M19.81 9.14H18.28V10.67H19.81V9.14Z" fill="currentColor"/>
<path d="M19.81 3.05H18.28V4.57H19.81V3.05Z" fill="currentColor"/>
<path d="M18.28 22.86H16.76V24.38H18.28V22.86Z" fill="currentColor"/>
<path d="M18.28 16.76H16.76V18.29H18.28V16.76Z" fill="currentColor"/>
<path d="M18.28 10.67H16.76V12.19H18.28V10.67Z" fill="currentColor"/>
<path d="M18.28 4.57H16.76V6.1H18.28V4.57Z" fill="currentColor"/>
<path d="M16.76 24.38H15.24V25.9H16.76V24.38Z" fill="currentColor"/>
<path d="M16.76 18.29H15.24V19.81H16.76V18.29Z" fill="currentColor"/>
<path d="M16.76 12.19H15.24V13.71H16.76V12.19Z" fill="currentColor"/>
<path d="M16.76 6.1H15.24V7.62H16.76V6.1Z" fill="currentColor"/>
<path d="M15.24 25.9H13.71V27.43H15.24V25.9Z" fill="currentColor"/>
<path d="M15.24 19.81H13.71V21.33H15.24V19.81Z" fill="currentColor"/>
<path d="M15.24 13.71H13.71V15.24H15.24V13.71Z" fill="currentColor"/>
<path d="M15.24 7.62H13.71V9.14H15.24V7.62Z" fill="currentColor"/>
<path d="M13.7099 27.43H12.1899V28.95H13.7099V27.43Z" fill="currentColor"/>
<path d="M13.7099 21.33H12.1899V22.86H13.7099V21.33Z" fill="currentColor"/>
<path d="M13.7099 15.24H12.1899V16.76H13.7099V15.24Z" fill="currentColor"/>
<path d="M13.7099 9.14H12.1899V10.67H13.7099V9.14Z" fill="currentColor"/>
<path d="M12.19 22.86H10.66V24.38H12.19V22.86Z" fill="currentColor"/>
<path d="M12.19 16.76H10.66V18.29H12.19V16.76Z" fill="currentColor"/>
<path d="M12.19 10.67H10.66V12.19H12.19V10.67Z" fill="currentColor"/>
<path d="M10.66 30.48H12.19V28.95H10.66V24.38H7.62V21.33H3.05V19.81H1.52V21.33H0V32H10.66V30.48ZM9.14 30.48H4.57V28.95H3.05V27.43H1.52V22.86H6.09V25.9H9.14V30.48Z" fill="currentColor"/>
<path d="M10.66 18.29H9.14001V19.81H10.66V18.29Z" fill="currentColor"/>
<path d="M10.66 12.19H9.14001V13.71H10.66V12.19Z" fill="currentColor"/>
<path d="M9.14 19.81H7.62V21.33H9.14V19.81Z" fill="currentColor"/>
<path d="M9.14 13.71H7.62V15.24H9.14V13.71Z" fill="currentColor"/>
<path d="M7.61997 15.24H6.08997V16.76H7.61997V15.24Z" fill="currentColor"/>
<path d="M6.08995 16.76H4.56995V18.29H6.08995V16.76Z" fill="currentColor"/>
<path d="M4.57005 18.29H3.05005V19.81H4.57005V18.29Z" fill="currentColor"/>
</g>
<defs>
<clipPath id="clip0_1128_12284">
<rect width="32" height="32" fill="white"/>
</clipPath>
</defs>
</svg>
