<svg width="32" height="32" viewBox="0 0 32 32" fill="none" xmlns="http://www.w3.org/2000/svg">
<g clip-path="url(#clip0_1128_8086)">
<path d="M32 12.19H30.48V19.81H32V12.19Z" fill="currentColor"/>
<path d="M30.4799 19.81H28.95V22.85H30.4799V19.81Z" fill="currentColor"/>
<path d="M28.9501 22.85H27.4301V25.9H28.9501V22.85Z" fill="currentColor"/>
<path d="M28.9501 6.09H27.4301V9.14H28.9501V6.09Z" fill="currentColor"/>
<path d="M27.43 25.9H25.91V27.42H27.43V25.9Z" fill="currentColor"/>
<path d="M27.43 4.57001H25.91V6.09001H27.43V4.57001Z" fill="currentColor"/>
<path d="M25.91 27.42H22.86V28.95H25.91V27.42Z" fill="currentColor"/>
<path d="M25.91 3.03999H22.86V4.56999H25.91V3.03999Z" fill="currentColor"/>
<path d="M22.8601 28.95H19.8101V30.47H22.8601V28.95Z" fill="currentColor"/>
<path d="M22.8601 1.52H19.8101V3.04H22.8601V1.52Z" fill="currentColor"/>
<path d="M19.8099 30.47H12.1899V32H19.8099V30.47Z" fill="currentColor"/>
<path d="M19.81 22.85H13.72V24.38H19.81V22.85Z" fill="currentColor"/>
<path d="M19.8099 0H12.1899V1.52H19.8099V0Z" fill="currentColor"/>
<path d="M13.7199 21.33H12.1899V22.85H13.7199V21.33Z" fill="currentColor"/>
<path d="M12.19 28.95H9.14001V30.47H12.19V28.95Z" fill="currentColor"/>
<path d="M12.19 1.52H9.14001V3.04H12.19V1.52Z" fill="currentColor"/>
<path d="M9.13998 27.42H6.09998V28.95H9.13998V27.42Z" fill="currentColor"/>
<path d="M9.13998 3.03999H6.09998V4.56999H9.13998V3.03999Z" fill="currentColor"/>
<path d="M6.09995 25.9H4.56995V27.42H6.09995V25.9Z" fill="currentColor"/>
<path d="M6.09995 4.57001H4.56995V6.09001H6.09995V4.57001Z" fill="currentColor"/>
<path d="M4.57005 22.85H3.05005V25.9H4.57005V22.85Z" fill="currentColor"/>
<path d="M3.05003 15.23H4.57003V16.76H6.10003V18.28H12.19V16.76H13.72V15.23H15.24V13.71H18.29V15.23H19.81V16.76H21.33V18.28H27.43V16.76H28.95V12.19H30.48V9.14H28.95V10.66H3.05003V9.14H1.53003V12.19H3.05003V15.23Z" fill="currentColor"/>
<path d="M4.57005 6.09H3.05005V9.14H4.57005V6.09Z" fill="currentColor"/>
<path d="M3.05003 19.81H1.53003V22.85H3.05003V19.81Z" fill="currentColor"/>
<path d="M1.53 12.19H0V19.81H1.53V12.19Z" fill="currentColor"/>
</g>
<defs>
<clipPath id="clip0_1128_8086">
<rect width="32" height="32" fill="white"/>
</clipPath>
</defs>
</svg>
