<svg width="32" height="32" viewBox="0 0 32 32" fill="none" xmlns="http://www.w3.org/2000/svg">
<path d="M24.3751 1.52002V3.05002H21.3251V4.57002H24.3751V19.81H22.8551V21.33H24.3751V22.86H30.4751V1.52002H24.3751Z" fill="currentColor"/>
<path d="M22.8551 21.33H19.8051V22.86H22.8551V21.33Z" fill="currentColor"/>
<path d="M21.3251 1.52002H19.8051V3.05002H21.3251V1.52002Z" fill="currentColor"/>
<path d="M19.805 22.86H18.285V24.38H19.805V22.86Z" fill="currentColor"/>
<path d="M18.285 24.38H16.755V30.48H18.285V24.38Z" fill="currentColor"/>
<path d="M16.755 30.48H13.715V32H16.755V30.48Z" fill="currentColor"/>
<path d="M15.235 19.8101H13.715V21.3301H15.235V19.8101Z" fill="currentColor"/>
<path d="M13.7151 28.95H12.1851V30.4799H13.7151V28.95Z" fill="currentColor"/>
<path d="M13.7151 21.33H12.1851V22.86H13.7151V21.33Z" fill="currentColor"/>
<path d="M13.7151 18.29H4.56506V19.81H13.7151V18.29Z" fill="currentColor"/>
<path d="M12.185 22.86H10.665V28.95H12.185V22.86Z" fill="currentColor"/>
<path d="M19.805 0H6.09497V1.52H19.805V0Z" fill="currentColor"/>
<path d="M10.665 6.10005V4.57005H4.56504V3.05005H3.04504V6.10005H10.665Z" fill="currentColor"/>
<path d="M6.09506 1.52002H4.56506V3.05002H6.09506V1.52002Z" fill="currentColor"/>
<path d="M4.56504 16.76H3.04504V18.29H4.56504V16.76Z" fill="currentColor"/>
<path d="M9.13502 15.24V13.71H3.04502V10.67H9.13502V9.13998H3.04502V6.09998H1.52502V16.76H3.04502V15.24H9.13502Z" fill="currentColor"/>
</svg>
