<svg width="32" height="32" viewBox="0 0 32 32" fill="none" xmlns="http://www.w3.org/2000/svg">
<g clip-path="url(#clip0_1128_5273)">
<path d="M1.52 30.475H30.48V28.955H32V18.285H30.48V16.765H1.52V18.285H0V28.955H1.52V30.475ZM25.9 19.815H28.95V22.865H25.9V19.815ZM18.29 19.815H22.86V21.335H19.81V22.865H22.86V24.385H19.81V25.905H22.86V27.435H18.29V19.815ZM12.19 19.815H13.71V25.905H15.24V19.815H16.76V25.905H15.24V27.435H13.71V25.905H12.19V19.815ZM9.14 19.815H10.67V27.435H9.14V19.815ZM3.05 19.815H4.57V25.905H7.62V27.435H3.05V19.815Z" fill="currentColor"/>
<path d="M27.43 7.625H25.9V9.145H27.43V7.625Z" fill="currentColor"/>
<path d="M25.9 6.09503H24.38V7.62503H25.9V6.09503Z" fill="currentColor"/>
<path d="M24.38 10.665H22.86V12.195H24.38V10.665Z" fill="currentColor"/>
<path d="M22.86 9.14502H21.33V10.665H22.86V9.14502Z" fill="currentColor"/>
<path d="M24.38 4.57501H21.33V6.09501H24.38V4.57501Z" fill="currentColor"/>
<path d="M21.33 7.625H18.29V9.145H21.33V7.625Z" fill="currentColor"/>
<path d="M19.81 12.195H18.29V13.715H19.81V12.195Z" fill="currentColor"/>
<path d="M21.33 3.05505H18.29V4.57505H21.33V3.05505Z" fill="currentColor"/>
<path d="M18.29 10.665H13.71V12.195H18.29V10.665Z" fill="currentColor"/>
<path d="M18.29 6.09503H13.71V7.62503H18.29V6.09503Z" fill="currentColor"/>
<path d="M18.29 1.52502H13.71V3.05502H18.29V1.52502Z" fill="currentColor"/>
<path d="M13.7099 12.195H12.1899V13.715H13.7099V12.195Z" fill="currentColor"/>
<path d="M13.71 3.05505H10.67V4.57505H13.71V3.05505Z" fill="currentColor"/>
<path d="M13.71 7.625H10.67V9.145H13.71V7.625Z" fill="currentColor"/>
<path d="M10.67 9.14502H9.14001V10.665H10.67V9.14502Z" fill="currentColor"/>
<path d="M10.67 4.57501H7.62V6.09501H10.67V4.57501Z" fill="currentColor"/>
<path d="M9.14 10.665H7.62V12.195H9.14V10.665Z" fill="currentColor"/>
<path d="M7.61998 6.09503H6.09998V7.62503H7.61998V6.09503Z" fill="currentColor"/>
<path d="M6.09995 7.625H4.56995V9.145H6.09995V7.625Z" fill="currentColor"/>
</g>
<defs>
<clipPath id="clip0_1128_5273">
<rect width="32" height="32" fill="white"/>
</clipPath>
</defs>
</svg>
