<svg width="32" height="32" viewBox="0 0 32 32" fill="none" xmlns="http://www.w3.org/2000/svg">
<g clip-path="url(#clip0_1135_1848)">
<path d="M32 19.8101H30.48V28.9601H32V19.8101Z" fill="currentColor"/>
<path d="M30.48 28.96H28.96V30.48H30.48V28.96Z" fill="currentColor"/>
<path d="M30.48 18.29H28.96V19.81H30.48V18.29Z" fill="currentColor"/>
<path d="M30.48 10.67H28.96V12.19H30.48V10.67Z" fill="currentColor"/>
<path d="M27.43 24.38H25.91V25.91H27.43V27.43H28.96V22.86H27.43V24.38Z" fill="currentColor"/>
<path d="M28.96 1.53003H27.43V4.57003H25.91V7.62003H28.96V1.53003Z" fill="currentColor"/>
<path d="M28.96 30.48H3.05005V32H28.96V30.48Z" fill="currentColor"/>
<path d="M25.91 25.91H24.38V27.43H22.86V28.96H27.43V27.43H25.91V25.91Z" fill="currentColor"/>
<path d="M24.38 24.38H25.91V22.86H27.43V21.34H22.86V22.86H24.38V24.38Z" fill="currentColor"/>
<path d="M24.38 25.91V24.38H22.86V22.86H21.34V27.43H22.86V25.91H24.38Z" fill="currentColor"/>
<path d="M24.38 12.1899H22.86V13.7199H24.38V12.1899Z" fill="currentColor"/>
<path d="M22.86 1.53003H21.34V3.05003H22.86V1.53003Z" fill="currentColor"/>
<path d="M21.34 19.8101H10.67V21.3401H21.34V19.8101Z" fill="currentColor"/>
<path d="M19.81 9.14995V7.61995H21.34V6.09995H19.81V4.56995H18.29V6.09995H16.77V7.61995H18.29V9.14995H19.81Z" fill="currentColor"/>
<path d="M12.1899 22.86V27.43H19.8099V22.86H12.1899ZM15.2399 25.91H13.7199V24.38H15.2399V25.91ZM18.2899 25.91H16.7699V24.38H18.2899V25.91Z" fill="currentColor"/>
<path d="M13.7199 1.53003H12.1899V3.05003H13.7199V1.53003Z" fill="currentColor"/>
<path d="M22.86 10.67H9.15002V12.19H22.86V10.67Z" fill="currentColor"/>
<path d="M12.19 3.05005H10.67V4.57005H12.19V3.05005Z" fill="currentColor"/>
<path d="M12.19 0H10.67V1.53H12.19V0Z" fill="currentColor"/>
<path d="M9.14999 24.38H7.62V25.91H9.14999V27.43H10.67V22.86H9.14999V24.38Z" fill="currentColor"/>
<path d="M10.67 1.53003H9.15002V3.05003H10.67V1.53003Z" fill="currentColor"/>
<path d="M9.14999 12.1899H7.62V13.7199H9.14999V12.1899Z" fill="currentColor"/>
<path d="M7.61996 25.91H6.09996V27.43H4.57996V28.96H9.14996V27.43H7.61996V25.91Z" fill="currentColor"/>
<path d="M6.09996 24.38H7.61996V22.86H9.14996V21.34H4.57996V22.86H6.09996V24.38Z" fill="currentColor"/>
<path d="M7.61998 6.09998H6.09998V7.61998H7.61998V6.09998Z" fill="currentColor"/>
<path d="M6.10005 25.91V24.38H4.58005V22.86H3.05005V27.43H4.58005V25.91H6.10005Z" fill="currentColor"/>
<path d="M9.15005 18.29V19.81H10.67V18.29H21.34V19.81H22.8601V18.29H28.96V16.76H25.91V13.72H24.38V16.76H22.8601V15.24H19.81V16.76H18.29V15.24H13.72V16.76H12.19V15.24H9.15005V16.76H7.62005V13.72H6.10005V16.76H3.05005V18.29H9.15005Z" fill="currentColor"/>
<path d="M3.05003 28.96H1.53003V30.48H3.05003V28.96Z" fill="currentColor"/>
<path d="M3.05003 18.29H1.53003V19.81H3.05003V18.29Z" fill="currentColor"/>
<path d="M3.05003 4.56995V9.14995H1.53003V12.1899H4.58003V6.09995H6.10003V4.56995H3.05003Z" fill="currentColor"/>
<path d="M1.53 19.8101H0V28.9601H1.53V19.8101Z" fill="currentColor"/>
<path d="M1.53 1.53003H0V3.05003H1.53V1.53003Z" fill="currentColor"/>
</g>
<defs>
<clipPath id="clip0_1135_1848">
<rect width="32" height="32" fill="white"/>
</clipPath>
</defs>
</svg>
