<svg width="32" height="32" viewBox="0 0 32 32" fill="none" xmlns="http://www.w3.org/2000/svg">
<path d="M23.62 14.475H22.09V25.145H23.62V14.475Z" fill="currentColor"/>
<path d="M22.0899 25.145H20.5699V26.675H22.0899V25.145Z" fill="currentColor"/>
<path d="M20.57 26.675H19.05V28.195H20.57V26.675Z" fill="currentColor"/>
<path d="M20.57 5.33496H19.05V22.095H20.57V5.33496Z" fill="currentColor"/>
<path d="M19.05 22.095H17.52V23.625H19.05V22.095Z" fill="currentColor"/>
<path d="M19.05 3.815H17.52V5.335H19.05V3.815Z" fill="currentColor"/>
<path d="M19.05 28.1949H12.95V29.7149H19.05V28.1949Z" fill="currentColor"/>
<path d="M17.52 23.625H16V25.145H17.52V23.625Z" fill="currentColor"/>
<path d="M16 22.095H14.47V23.625H16V22.095Z" fill="currentColor"/>
<path d="M14.47 9.90497H12.95V22.095H14.47V9.90497Z" fill="currentColor"/>
<path d="M17.5201 2.28497H11.4301V3.81497H17.5201V2.28497Z" fill="currentColor"/>
<path d="M12.9501 26.675H11.4301V28.195H12.9501V26.675Z" fill="currentColor"/>
<path d="M11.43 25.145H9.90002V26.675H11.43V25.145Z" fill="currentColor"/>
<path d="M11.43 3.815H9.90002V5.335H11.43V3.815Z" fill="currentColor"/>
<path d="M9.9 5.33496H8.38V25.145H9.9V5.33496Z" fill="currentColor"/>
</svg>
