<svg width="32" height="32" viewBox="0 0 32 32" fill="none" xmlns="http://www.w3.org/2000/svg">
<g clip-path="url(#clip0_1128_14944)">
<path d="M30.48 22.09H28.95V23.62H27.43V25.14H25.91V26.66H24.38V28.19H19.81V26.66H18.29V25.14H16.76V22.09H19.81V23.62H21.34V25.14H22.86V23.62H24.38V22.09H25.91V20.57H27.43V19.04H30.48V17.52H28.95V16H27.43V14.47H19.81V16H18.29V17.52H16.76V19.04H15.24V26.66H16.76V28.19H18.29V29.71H19.81V31.24H27.43V29.71H28.95V28.19H30.48V26.66H32V19.04H30.48V22.09Z" fill="currentColor"/>
<path d="M30.4799 8.38H28.95V11.43H30.4799V8.38Z" fill="currentColor"/>
<path d="M28.9501 6.85004H27.4301V8.38004H28.9501V6.85004Z" fill="currentColor"/>
<path d="M28.9501 11.43H27.4301V12.95H28.9501V11.43Z" fill="currentColor"/>
<path d="M27.43 5.33002H25.91V6.85002H27.43V5.33002Z" fill="currentColor"/>
<path d="M25.91 3.81H22.86V5.33H25.91V3.81Z" fill="currentColor"/>
<path d="M22.8601 2.28003H19.8101V3.81003H22.8601V2.28003Z" fill="currentColor"/>
<path d="M21.3401 6.85004H19.8101V12.95H21.3401V6.85004Z" fill="currentColor"/>
<path d="M19.81 5.33002H18.29V6.85002H19.81V5.33002Z" fill="currentColor"/>
<path d="M18.29 8.38H16.76V11.43H18.29V8.38Z" fill="currentColor"/>
<path d="M16.76 6.85004H15.24V8.38004H16.76V6.85004Z" fill="currentColor"/>
<path d="M16.7599 14.47H12.1899V16H16.7599V14.47Z" fill="currentColor"/>
<path d="M18.2899 3.81H12.1899V5.33H18.2899V3.81Z" fill="currentColor"/>
<path d="M19.81 0.76001H10.67V2.28001H19.81V0.76001Z" fill="currentColor"/>
<path d="M12.19 5.33002H10.67V6.85002H12.19V5.33002Z" fill="currentColor"/>
<path d="M12.19 12.95H10.67V14.47H12.19V12.95Z" fill="currentColor"/>
<path d="M13.72 17.52H10.67V19.04H13.72V17.52Z" fill="currentColor"/>
<path d="M10.67 2.28003H7.62V3.81003H10.67V2.28003Z" fill="currentColor"/>
<path d="M10.67 6.85004H9.15002V12.95H10.67V6.85004Z" fill="currentColor"/>
<path d="M10.67 16H7.62V17.52H10.67V16Z" fill="currentColor"/>
<path d="M7.61995 3.81H4.56995V5.33H7.61995V3.81Z" fill="currentColor"/>
<path d="M7.61995 14.47H4.56995V16H7.61995V14.47Z" fill="currentColor"/>
<path d="M4.57005 5.33002H3.05005V6.85002H4.57005V5.33002Z" fill="currentColor"/>
<path d="M4.57005 12.95H3.05005V14.47H4.57005V12.95Z" fill="currentColor"/>
<path d="M3.05003 6.85004H1.53003V8.38004H3.05003V6.85004Z" fill="currentColor"/>
<path d="M3.05003 11.43H1.53003V12.95H3.05003V11.43Z" fill="currentColor"/>
<path d="M1.53 8.38H0V11.43H1.53V8.38Z" fill="currentColor"/>
</g>
<defs>
<clipPath id="clip0_1128_14944">
<rect width="32" height="32" fill="white"/>
</clipPath>
</defs>
</svg>
