<svg width="32" height="32" viewBox="0 0 32 32" fill="none" xmlns="http://www.w3.org/2000/svg">
<g clip-path="url(#clip0_1135_4612)">
<path d="M25.14 0V1.52H28.19V3.05H29.71V4.57H26.67V3.05H25.14V1.52H19.05V3.05H22.09V4.57H23.62V6.09H20.57V4.57H19.05V3.05H12.95V4.57H16V6.09H17.52V7.62H14.48V6.09H12.95V4.57H6.86001V6.09H9.90001V7.62H11.43V9.14H8.38001V7.62H6.86001V6.09H0.76001V30.47H2.29001V19.81H29.71V30.47H31.24V13.71H2.29001V12.19H6.86001V10.66H12.95V9.14H19.05V7.62H25.14V6.09H31.24V0H25.14ZM25.14 16.76H26.67V15.24H29.71V16.76H28.19V18.28H25.14V16.76ZM17.52 16.76H19.05V15.24H22.09V16.76H20.57V18.28H17.52V16.76ZM9.90001 16.76H11.43V15.24H14.48V16.76H12.95V18.28H9.90001V16.76ZM3.81001 16.76V15.24H6.86001V16.76H5.33001V18.28H2.29001V16.76H3.81001ZM5.33001 10.66H2.29001V7.62H3.81001V9.14H5.33001V10.66Z" fill="currentColor"/>
<path d="M29.71 30.47H2.29004V32H29.71V30.47Z" fill="currentColor"/>
<path d="M26.6701 22.86H25.1401V24.38H23.6201V22.86H22.0901V24.38H20.5701V25.9H22.0901V27.43H23.6201V28.95H25.1401V27.43H26.6701V25.9H28.1901V24.38H26.6701V22.86Z" fill="currentColor"/>
<path d="M17.52 25.9H6.85999V27.43H17.52V25.9Z" fill="currentColor"/>
<path d="M17.52 22.86H6.85999V24.38H17.52V22.86Z" fill="currentColor"/>
</g>
<defs>
<clipPath id="clip0_1135_4612">
<rect width="32" height="32" fill="white"/>
</clipPath>
</defs>
</svg>
