<svg width="32" height="32" viewBox="0 0 32 32" fill="none" xmlns="http://www.w3.org/2000/svg">
<path d="M29.7151 7.62H28.1951V13.71H29.7151V7.62Z" fill="currentColor"/>
<path d="M28.195 13.71H26.675V15.24H28.195V13.71Z" fill="currentColor"/>
<path d="M28.195 6.09998H26.675V7.61998H28.195V6.09998Z" fill="currentColor"/>
<path d="M25.145 19.81H28.195V21.33H25.145V25.91H28.195V27.43H25.145V30.48H26.675V28.95H29.715V24.38H26.675V22.86H29.715V18.29H26.675V15.24H25.145V19.81Z" fill="currentColor"/>
<path d="M25.1451 30.48H22.0951V32H25.1451V30.48Z" fill="currentColor"/>
<path d="M20.5751 4.56999V6.09999H23.6251V7.61999H20.5751V12.19H26.6751V7.61999H25.1451V6.09999H26.6751V4.56999H25.1451V3.04999H23.6251V4.56999H20.5751ZM23.6251 10.67H22.1001V9.13999H23.6301L23.6251 10.67Z" fill="currentColor"/>
<path d="M23.6251 1.52002H22.0951V3.05002H23.6251V1.52002Z" fill="currentColor"/>
<path d="M22.0951 15.24H20.5751V13.71H19.0551V16.76H20.5751V30.48H22.0951V15.24Z" fill="currentColor"/>
<path d="M20.5751 6.09998H19.0551V7.61998H20.5751V6.09998Z" fill="currentColor"/>
<path d="M16.005 9.14V12.19H17.525V13.71H19.055V7.62H17.525V9.14H16.005Z" fill="currentColor"/>
<path d="M19.055 16.76H14.475V18.29H19.055V16.76Z" fill="currentColor"/>
<path d="M17.525 6.09998H14.475V7.61998H17.525V6.09998Z" fill="currentColor"/>
<path d="M22.095 0H14.475V1.52H22.095V0Z" fill="currentColor"/>
<path d="M16.005 22.86H14.475V24.38H16.005V22.86Z" fill="currentColor"/>
<path d="M14.4751 24.38H12.9551V25.91H14.4751V24.38Z" fill="currentColor"/>
<path d="M14.4751 21.33H12.9551V22.86H14.4751V21.33Z" fill="currentColor"/>
<path d="M14.4751 18.29H12.9551V19.81H14.4751V18.29Z" fill="currentColor"/>
<path d="M14.4751 7.62H12.9551V9.14H14.4751V7.62Z" fill="currentColor"/>
<path d="M14.4751 1.52002H12.9551V3.05002H14.4751V1.52002Z" fill="currentColor"/>
<path d="M12.9551 25.91H11.4351V27.43H12.9551V25.91Z" fill="currentColor"/>
<path d="M12.9551 19.81H11.4351V21.33H12.9551V19.81Z" fill="currentColor"/>
<path d="M12.9551 9.14001H11.4351V15.24H12.9551V9.14001Z" fill="currentColor"/>
<path d="M12.9551 3.04999H11.4351V7.61999H12.9551V3.04999Z" fill="currentColor"/>
<path d="M11.435 24.38H9.90503V25.91H11.435V24.38Z" fill="currentColor"/>
<path d="M11.435 15.24H9.90503V16.76H11.435V15.24Z" fill="currentColor"/>
<path d="M9.90501 22.86H8.38501V24.38H9.90501V22.86Z" fill="currentColor"/>
<path d="M9.90501 16.76H8.38501V18.29H9.90501V16.76Z" fill="currentColor"/>
<path d="M8.38499 24.38H6.86499V25.91H8.38499V24.38Z" fill="currentColor"/>
<path d="M8.38499 18.29H6.86499V19.81H8.38499V18.29Z" fill="currentColor"/>
<path d="M6.86508 25.91H5.33508V27.43H6.86508V25.91Z" fill="currentColor"/>
<path d="M6.86508 19.81H5.33508V21.33H6.86508V19.81Z" fill="currentColor"/>
<path d="M5.33506 24.38H3.81506V25.91H5.33506V24.38Z" fill="currentColor"/>
<path d="M5.33506 21.33H3.81506V22.86H5.33506V21.33Z" fill="currentColor"/>
<path d="M3.81503 22.86H2.28503V24.38H3.81503V22.86Z" fill="currentColor"/>
</svg>
