<svg width="32" height="32" viewBox="0 0 32 32" fill="none" xmlns="http://www.w3.org/2000/svg">
<path d="M27.43 7.62H25.91V15.24H27.43V7.62Z" fill="currentColor"/>
<path d="M25.91 28.96H24.38V30.48H25.91V28.96Z" fill="currentColor"/>
<path d="M25.91 15.24H24.38V18.29H25.91V15.24Z" fill="currentColor"/>
<path d="M25.91 4.57H24.38V7.62H25.91V4.57Z" fill="currentColor"/>
<path d="M24.38 27.43H22.86V28.96H24.38V27.43Z" fill="currentColor"/>
<path d="M24.38 18.29H22.86V19.81H24.38V18.29Z" fill="currentColor"/>
<path d="M24.38 3.05H22.86V4.57H24.38V3.05Z" fill="currentColor"/>
<path d="M24.38 30.48H7.62V32H24.38V30.48Z" fill="currentColor"/>
<path d="M22.86 7.62H21.33V15.24H22.86V7.62Z" fill="currentColor"/>
<path d="M22.86 25.91H19.81V27.43H22.86V25.91Z" fill="currentColor"/>
<path d="M22.86 19.81H19.81V21.34H22.86V19.81Z" fill="currentColor"/>
<path d="M21.33 15.24H19.81V16.76H21.33V15.24Z" fill="currentColor"/>
<path d="M21.33 6.1H19.81V7.62H21.33V6.1Z" fill="currentColor"/>
<path d="M22.86 1.53H19.81V3.05H22.86V1.53Z" fill="currentColor"/>
<path d="M13.71 7.62V9.15H12.19V13.72H13.71V15.24H18.29V13.72H19.81V9.15H18.29V10.67H16.76V9.15H18.29V7.62H13.71Z" fill="currentColor"/>
<path d="M12.19 21.34V22.86H13.71V24.38H12.19V25.91H19.81V24.38H18.29V22.86H19.81V21.34H12.19ZM16.76 24.38H15.24V22.86H16.76V24.38Z" fill="currentColor"/>
<path d="M19.81 16.76H12.19V18.29H19.81V16.76Z" fill="currentColor"/>
<path d="M19.81 4.57H12.19V6.1H19.81V4.57Z" fill="currentColor"/>
<path d="M19.81 0H12.19V1.53H19.81V0Z" fill="currentColor"/>
<path d="M12.19 25.91H9.14V27.43H12.19V25.91Z" fill="currentColor"/>
<path d="M12.19 19.81H9.14V21.34H12.19V19.81Z" fill="currentColor"/>
<path d="M12.19 15.24H10.67V16.76H12.19V15.24Z" fill="currentColor"/>
<path d="M12.19 6.1H10.67V7.62H12.19V6.1Z" fill="currentColor"/>
<path d="M12.19 1.53H9.14V3.05H12.19V1.53Z" fill="currentColor"/>
<path d="M10.67 7.62H9.14V15.24H10.67V7.62Z" fill="currentColor"/>
<path d="M9.14 27.43H7.62V28.96H9.14V27.43Z" fill="currentColor"/>
<path d="M9.14 18.29H7.62V19.81H9.14V18.29Z" fill="currentColor"/>
<path d="M9.14 3.05H7.62V4.57H9.14V3.05Z" fill="currentColor"/>
<path d="M7.62 28.96H6.1V30.48H7.62V28.96Z" fill="currentColor"/>
<path d="M7.62 15.24H6.1V18.29H7.62V15.24Z" fill="currentColor"/>
<path d="M7.62 4.57H6.1V7.62H7.62V4.57Z" fill="currentColor"/>
<path d="M6.1 7.62H4.57V15.24H6.1V7.62Z" fill="currentColor"/>
</svg>
