<svg width="32" height="32" viewBox="0 0 32 32" fill="none" xmlns="http://www.w3.org/2000/svg">
<g clip-path="url(#clip0_1128_14314)">
<path d="M19.81 29.72H7.62V31.24H19.81V29.72Z" fill="currentColor"/>
<path d="M24.3801 28.19H19.8101V29.72H24.3801V28.19Z" fill="currentColor"/>
<path d="M15.2399 26.67V25.14H4.56995V26.67H6.08995V29.72H7.61995V26.67H15.2399Z" fill="currentColor"/>
<path d="M6.09002 22.1V20.57H1.52002V22.1H3.05002V25.14H4.57002V22.1H6.09002Z" fill="currentColor"/>
<path d="M12.19 20.57V17.52H10.67V19.05H9.14V17.52H7.62V20.57H12.19Z" fill="currentColor"/>
<path d="M15.24 17.52H13.71V19.05H15.24V17.52Z" fill="currentColor"/>
<path d="M6.08995 17.52H4.56995V19.05H6.08995V17.52Z" fill="currentColor"/>
<path d="M1.52 17.52H0V20.57H1.52V17.52Z" fill="currentColor"/>
<path d="M18.28 16H16.76V17.52H18.28V16Z" fill="currentColor"/>
<path d="M13.7099 16H12.1899V17.52H13.7099V16Z" fill="currentColor"/>
<path d="M7.61997 16H6.08997V17.52H7.61997V16Z" fill="currentColor"/>
<path d="M4.57005 16H3.05005V17.52H4.57005V16Z" fill="currentColor"/>
<path d="M16.76 12.95H15.24V16H16.76V12.95Z" fill="currentColor"/>
<path d="M3.05002 14.48H1.52002V16H3.05002V14.48Z" fill="currentColor"/>
<path d="M12.19 12.95H7.62V14.48H12.19V12.95Z" fill="currentColor"/>
<path d="M4.57005 12.95H3.05005V14.48H4.57005V12.95Z" fill="currentColor"/>
<path d="M15.24 9.91003H13.71V12.95H15.24V9.91003Z" fill="currentColor"/>
<path d="M27.43 9.91003V11.43H25.9V12.95H27.43V26.67H24.38V28.19H27.43V29.72H32V9.91003H27.43ZM30.48 26.67H28.95V23.62H30.48V26.67Z" fill="currentColor"/>
<path d="M25.9 9.91003H24.38V11.43H25.9V9.91003Z" fill="currentColor"/>
<path d="M7.61997 8.38H6.08997V12.95H7.61997V8.38Z" fill="currentColor"/>
<path d="M24.38 8.38H21.33V9.91H24.38V8.38Z" fill="currentColor"/>
<path d="M13.7099 8.38H12.1899V9.91H13.7099V8.38Z" fill="currentColor"/>
<path d="M0 12.95H3.05V11.43H1.52V9.91H3.05V8.38H0V12.95Z" fill="currentColor"/>
<path d="M21.3301 6.85999H19.8101V8.37999H21.3301V6.85999Z" fill="currentColor"/>
<path d="M9.14 6.85999H7.62V8.37999H9.14V6.85999Z" fill="currentColor"/>
<path d="M4.57005 6.85999H3.05005V8.37999H4.57005V6.85999Z" fill="currentColor"/>
<path d="M19.81 5.33002H18.28V6.86002H19.81V5.33002Z" fill="currentColor"/>
<path d="M3.05002 5.33002H1.52002V6.86002H3.05002V5.33002Z" fill="currentColor"/>
<path d="M18.28 3.81H16.76V5.33H18.28V3.81Z" fill="currentColor"/>
<path d="M12.19 3.81H10.67V8.38H12.19V3.81Z" fill="currentColor"/>
<path d="M7.61997 3.81H6.08997V5.33H7.61997V3.81Z" fill="currentColor"/>
<path d="M4.57005 3.81H3.05005V5.33H4.57005V3.81Z" fill="currentColor"/>
<path d="M16.7599 2.29004H12.1899V3.81004H16.7599V2.29004Z" fill="currentColor"/>
<path d="M6.08995 2.29004H4.56995V3.81004H6.08995V2.29004Z" fill="currentColor"/>
<path d="M7.62 0.76001V3.81001H9.14V2.29001H12.19V0.76001H7.62Z" fill="currentColor"/>
</g>
<defs>
<clipPath id="clip0_1128_14314">
<rect width="32" height="32" fill="white"/>
</clipPath>
</defs>
</svg>
