<svg width="32" height="32" viewBox="0 0 32 32" fill="none" xmlns="http://www.w3.org/2000/svg">
<g clip-path="url(#clip0_1128_10472)">
<path d="M32 3.04999H30.48V10.67H32V3.04999Z" fill="currentColor"/>
<path d="M30.48 10.67H28.96V12.19H30.48V10.67Z" fill="currentColor"/>
<path d="M30.48 1.53003H28.96V3.05003H30.48V1.53003Z" fill="currentColor"/>
<path d="M28.96 12.19H27.43V30.48H28.96V12.19Z" fill="currentColor"/>
<path d="M28.96 4.57001H27.43V7.62001H28.96V4.57001Z" fill="currentColor"/>
<path d="M27.43 30.48H25.91V32H27.43V30.48Z" fill="currentColor"/>
<path d="M27.43 3.04999H25.91V4.56999H27.43V3.04999Z" fill="currentColor"/>
<path d="M28.96 0H24.39V1.53H28.96V0Z" fill="currentColor"/>
<path d="M25.91 12.19H24.39V30.48H25.91V12.19Z" fill="currentColor"/>
<path d="M24.39 10.67H22.86V12.19H24.39V10.67Z" fill="currentColor"/>
<path d="M24.39 1.53003H22.86V3.05003H24.39V1.53003Z" fill="currentColor"/>
<path d="M22.86 3.04999H21.34V10.67H22.86V3.04999Z" fill="currentColor"/>
<path d="M22.86 28.96H19.81V30.48H22.86V28.96Z" fill="currentColor"/>
<path d="M9.14999 22.86H13.72V27.43H18.29V22.86H22.86V18.29H18.29V13.72H13.72V18.29H9.14999V22.86Z" fill="currentColor"/>
<path d="M19.81 30.48H12.2V32H19.81V30.48Z" fill="currentColor"/>
<path d="M19.81 9.15002H12.2V10.67H19.81V9.15002Z" fill="currentColor"/>
<path d="M12.2 28.96H9.14999V30.48H12.2V28.96Z" fill="currentColor"/>
<path d="M10.67 0H9.14999V10.67H10.67V0Z" fill="currentColor"/>
<path d="M9.14999 10.67H7.62V12.19H9.14999V10.67Z" fill="currentColor"/>
<path d="M7.62001 12.19H6.10001V30.48H7.62001V12.19Z" fill="currentColor"/>
<path d="M7.62001 0H6.10001V9.15H7.62001V0Z" fill="currentColor"/>
<path d="M6.1 30.48H4.58V32H6.1V30.48Z" fill="currentColor"/>
<path d="M4.58 12.19H3.05V30.48H4.58V12.19Z" fill="currentColor"/>
<path d="M4.58 0H3.05V9.15H4.58V0Z" fill="currentColor"/>
<path d="M3.05 10.67H1.53V12.19H3.05V10.67Z" fill="currentColor"/>
<path d="M1.53 0H0V10.67H1.53V0Z" fill="currentColor"/>
</g>
<defs>
<clipPath id="clip0_1128_10472">
<rect width="32" height="32" fill="white"/>
</clipPath>
</defs>
</svg>
