<svg width="32" height="32" viewBox="0 0 32 32" fill="none" xmlns="http://www.w3.org/2000/svg">
<path d="M3.05005 32H28.9501V7.62H27.43V6.1H25.91V4.57H24.38V3.05H22.8601V1.52H21.33V0H3.05005V32ZM4.57005 1.52H19.81V9.14H27.43V30.48H4.57005V1.52Z" fill="currentColor"/>
<path d="M7.62012 19.81V21.33H18.2901V24.38H19.8101V21.33H22.8601V24.38H24.3801V19.81H7.62012Z" fill="currentColor"/>
<path d="M22.8601 12.19H21.3301V13.71H19.8101V15.24H21.3301V16.76H22.8601V15.24H24.3801V13.71H22.8601V12.19Z" fill="currentColor"/>
<path d="M22.8601 24.38H19.8101V25.9H22.8601V24.38Z" fill="currentColor"/>
<path d="M9.14012 16.76H10.6701V15.24H12.1901V13.71H10.6701V12.19H9.14012V13.71H7.62012V15.24H9.14012V16.76Z" fill="currentColor"/>
</svg>
