<svg width="32" height="32" viewBox="0 0 32 32" fill="none" xmlns="http://www.w3.org/2000/svg">
<g clip-path="url(#clip0_1128_10427)">
<path d="M25.145 4.57H23.615V3.05H22.1V1.53H20.57V0H11.43V1.53H9.9V3.05H8.375V4.57H6.855V6.1H5.335V18.29H6.855V19.81H8.375V21.34H11.425V22.86H12.955V30.48H14.475V32H17.525V30.48H19.045V22.86H20.565V21.34H23.615V19.81H25.145V18.29H26.665V6.1H25.145V4.57ZM17.525 28.96H16V25.91H17.53L17.525 28.96ZM23.615 18.29H22.1V19.81H19.05V21.34H12.96V19.81H9.9V18.29H8.375V6.1H9.9V4.57H11.42V3.05H20.56V4.57H22.1V6.1H23.62L23.615 18.29Z" fill="currentColor"/>
<path d="M19.045 13.72H17.525V15.24H19.045V13.72Z" fill="currentColor"/>
<path d="M19.045 10.67H17.525V12.19H19.045V10.67Z" fill="currentColor"/>
<path d="M17.525 15.24H14.475V16.77H17.525V15.24Z" fill="currentColor"/>
<path d="M14.475 13.72H12.955V15.24H14.475V13.72Z" fill="currentColor"/>
<path d="M14.475 10.67H12.955V12.19H14.475V10.67Z" fill="currentColor"/>
<path d="M14.475 4.57001H12.955V6.10001H14.475V4.57001Z" fill="currentColor"/>
<path d="M12.955 6.09998H11.425V7.61998H12.955V6.09998Z" fill="currentColor"/>
<path d="M11.425 7.62H9.905V9.14999H11.425V7.62Z" fill="currentColor"/>
</g>
<defs>
<clipPath id="clip0_1128_10427">
<rect width="32" height="32" fill="white"/>
</clipPath>
</defs>
</svg>
