<svg width="32" height="32" viewBox="0 0 32 32" fill="none" xmlns="http://www.w3.org/2000/svg">
<g clip-path="url(#clip0_1128_7962)">
<path d="M32 9.14H30.47V21.33H32V9.14Z" fill="currentColor"/>
<path d="M30.47 7.62H28.95V9.14H30.47V7.62Z" fill="currentColor"/>
<path d="M16.76 21.33V9.14H15.24V7.62H21.33V12.19H22.85V7.62H28.95V6.1H22.85V4.57H27.43V0H21.33V6.1H7.61999V7.62H6.08999V9.14H4.56999V21.33H3.04999V22.86H13.71V24.38H15.24V32H16.76V22.86H21.33V32H22.85V22.86H30.47V21.33H16.76ZM22.85 1.52H25.9V3.05H22.85V1.52ZM15.24 18.29H13.71V19.81H15.24V21.33H7.61999V12.19H15.24V18.29Z" fill="currentColor"/>
<path d="M13.71 16.76H12.19V18.29H13.71V16.76Z" fill="currentColor"/>
<path d="M13.71 24.38H10.67V25.9H13.71V24.38Z" fill="currentColor"/>
<path d="M10.67 15.24V13.71H9.14001V15.24H10.66V16.76H12.19V15.24H10.67Z" fill="currentColor"/>
<path d="M10.67 25.9H9.14001V27.43H10.67V25.9Z" fill="currentColor"/>
<path d="M9.14002 27.43H1.52002V28.95H9.14002V27.43Z" fill="currentColor"/>
<path d="M3.05002 22.86H1.52002V24.38H3.05002V22.86Z" fill="currentColor"/>
<path d="M1.52 24.38H0V27.43H1.52V24.38Z" fill="currentColor"/>
</g>
<defs>
<clipPath id="clip0_1128_7962">
<rect width="32" height="32" fill="white"/>
</clipPath>
</defs>
</svg>
