<svg width="32" height="32" viewBox="0 0 32 32" fill="none" xmlns="http://www.w3.org/2000/svg">
<g clip-path="url(#clip0_1128_12714)">
<path d="M30.47 27.425H28.95V28.955H21.33V22.855H19.81V28.955H15.24V27.425H13.71V28.955H3.05V27.425H1.52V28.955H0V30.475H32V28.955H30.47V27.425Z" fill="currentColor"/>
<path d="M28.9501 24.385H27.4301V27.425H28.9501V24.385Z" fill="currentColor"/>
<path d="M27.43 21.335H25.9V24.385H27.43V21.335Z" fill="currentColor"/>
<path d="M22.85 19.815V21.335H25.9V18.285H24.38V19.815H22.85Z" fill="currentColor"/>
<path d="M22.85 21.335H21.33V22.855H22.85V21.335Z" fill="currentColor"/>
<path d="M13.71 25.905H10.66V27.425H13.71V25.905Z" fill="currentColor"/>
<path d="M13.7099 21.335H12.1899V22.855H13.7099V21.335Z" fill="currentColor"/>
<path d="M12.19 22.855H10.66V24.385H12.19V22.855Z" fill="currentColor"/>
<path d="M10.66 24.385H6.08997V25.905H10.66V24.385Z" fill="currentColor"/>
<path d="M15.24 18.285V19.815H13.71V21.335H15.24V24.385H16.76V21.335H18.28V19.815H16.76V18.285H18.28V19.815H19.81V18.285H24.38V16.765H16.76V12.2H18.28V10.67H19.81V9.14499H21.33V4.57499H19.81V3.04499H18.28V1.52499H13.71V3.04499H12.19V4.57499H10.66V9.14499H12.19V10.665H13.71V12.2H15.24V16.77H7.62V18.29L15.24 18.285ZM15.24 4.57499H18.28V7.62499H16.76V6.09999H15.24V4.57499Z" fill="currentColor"/>
<path d="M7.61997 18.285H6.08997V21.335H7.61997V18.285Z" fill="currentColor"/>
<path d="M6.08995 21.335H4.56995V24.385H6.08995V21.335Z" fill="currentColor"/>
<path d="M4.57005 24.385H3.05005V27.425H4.57005V24.385Z" fill="currentColor"/>
</g>
<defs>
<clipPath id="clip0_1128_12714">
<rect width="32" height="32" fill="white"/>
</clipPath>
</defs>
</svg>
