<svg width="32" height="32" viewBox="0 0 32 32" fill="none" xmlns="http://www.w3.org/2000/svg">
<g clip-path="url(#clip0_1135_3943)">
<path d="M32 12.1901H30.47V13.7101H32V12.1901Z" fill="currentColor"/>
<path d="M19.81 13.7101V12.1901H12.19V13.7101H1.52002V15.2401H9.14002V16.7601H10.66V18.2801H15.23V21.3301H12.19V22.8601H19.81V21.3301H16.76V18.2801H21.33V16.7601H22.85V15.2401H30.47V13.7101H19.81Z" fill="currentColor"/>
<path d="M24.38 19.8101H22.85V22.8601H24.38V19.8101Z" fill="currentColor"/>
<path d="M22.85 18.28H21.33V19.81H22.85V18.28Z" fill="currentColor"/>
<path d="M30.4701 12.19V10.67H25.9001V6.09005H30.4701V4.57005H25.9001V3.05005H24.3801V4.57005H19.8101V6.09005H24.3801V10.67H21.3301V12.19H30.4701Z" fill="currentColor"/>
<path d="M21.3301 22.8601H19.8101V27.4301H21.3301V22.8601Z" fill="currentColor"/>
<path d="M21.3301 9.14001H19.8101V10.67H21.3301V9.14001Z" fill="currentColor"/>
<path d="M19.8099 27.4301H12.1899V28.9501H19.8099V27.4301Z" fill="currentColor"/>
<path d="M16.76 24.38H15.23V25.9H16.76V24.38Z" fill="currentColor"/>
<path d="M19.8099 7.62H12.1899V9.14H19.8099V7.62Z" fill="currentColor"/>
<path d="M12.19 22.8601H10.66V27.4301H12.19V22.8601Z" fill="currentColor"/>
<path d="M12.19 9.14001H10.66V10.67H12.19V9.14001Z" fill="currentColor"/>
<path d="M10.66 18.28H9.14001V19.81H10.66V18.28Z" fill="currentColor"/>
<path d="M9.14 19.8101H7.62V22.8601H9.14V19.8101Z" fill="currentColor"/>
<path d="M10.66 12.19V10.67H7.62002V6.09005H12.19V4.57005H7.62002V3.05005H6.09002V4.57005H1.52002V6.09005H6.09002V10.67H1.52002V12.19H10.66Z" fill="currentColor"/>
<path d="M1.52 12.1901H0V13.7101H1.52V12.1901Z" fill="currentColor"/>
</g>
<defs>
<clipPath id="clip0_1135_3943">
<rect width="32" height="32" fill="white"/>
</clipPath>
</defs>
</svg>
