<svg width="32" height="32" viewBox="0 0 32 32" fill="none" xmlns="http://www.w3.org/2000/svg">
<g clip-path="url(#clip0_1128_6581)">
<path d="M0.76001 22.09V26.67H3.81001V25.14H2.29001V23.62H3.81001V25.14H6.86001V26.67H9.91001V28.19H11.43V29.71H9.91001V31.24H14.48V29.71H12.96V28.19H14.48V26.67H17.53V25.14H20.57V23.62H23.62V22.09H26.67V20.57H29.72V22.09H31.24V17.52H29.72V16H26.67V12.95H28.19V6.86002H26.67V8.38002H25.15V9.90002H26.67V11.43H25.15V12.95H22.1V14.48H19.05V16H16V17.52H12.96V19.05H11.43V17.52H9.91001V16H6.86001V14.48H3.81001V12.95H2.29001V11.43H3.81001V12.95H6.86001V14.48H9.91001V16H16V14.48H19.05V12.95H22.1V11.43H25.15V9.90002H20.57V11.43H17.53V12.95H14.48V14.48H11.43V12.95H8.38001V11.43H5.34001V9.90002H2.29001V8.38002H0.76001V14.48H2.29001V16H0.76001V20.57H2.29001V22.09H0.76001ZM2.29001 17.52H3.81001V16H5.34001V17.52H8.38001V19.05H9.91001V20.57H14.48V19.05H17.53V17.52H20.57V16H23.62V14.48H25.15V17.52H22.1V19.05H19.05V20.57H16V22.09H12.96V23.62H9.91001V22.09H6.86001V20.57H3.81001V19.05H2.29001V17.52Z" fill="currentColor"/>
<path d="M29.72 22.09H26.67V23.62H29.72V22.09Z" fill="currentColor"/>
<path d="M26.67 23.62H23.62V25.14H26.67V23.62Z" fill="currentColor"/>
<path d="M26.67 5.33002H23.62V6.86002H26.67V5.33002Z" fill="currentColor"/>
<path d="M23.62 25.14H20.57V26.67H23.62V25.14Z" fill="currentColor"/>
<path d="M23.62 3.81H20.57V5.33H23.62V3.81Z" fill="currentColor"/>
<path d="M20.57 26.67H17.53V28.19H20.57V26.67Z" fill="currentColor"/>
<path d="M20.57 2.28H17.53V3.81H20.57V2.28Z" fill="currentColor"/>
<path d="M17.53 0.76001H14.48V2.28001H17.53V0.76001Z" fill="currentColor"/>
<path d="M17.53 28.19H14.48V29.71H17.53V28.19Z" fill="currentColor"/>
<path d="M14.48 2.28H11.43V3.81H14.48V2.28Z" fill="currentColor"/>
<path d="M11.43 3.81H8.38V5.33H11.43V3.81Z" fill="currentColor"/>
<path d="M9.90999 28.19H6.85999V29.71H9.90999V28.19Z" fill="currentColor"/>
<path d="M9.90999 11.43H16V9.90002H19.05V8.38002H22.1V6.86002H17.53V5.33002H12.96V6.86002H9.90999V8.38002H6.85999V9.90002H9.90999V11.43Z" fill="currentColor"/>
<path d="M8.38003 5.33002H5.34003V6.86002H8.38003V5.33002Z" fill="currentColor"/>
<path d="M6.86 26.67H3.81V28.19H6.86V26.67Z" fill="currentColor"/>
<path d="M5.34004 6.86002H2.29004V8.38002H5.34004V6.86002Z" fill="currentColor"/>
</g>
<defs>
<clipPath id="clip0_1128_6581">
<rect width="32" height="32" fill="white"/>
</clipPath>
</defs>
</svg>
