<svg width="32" height="32" viewBox="0 0 32 32" fill="none" xmlns="http://www.w3.org/2000/svg">
<g clip-path="url(#clip0_1135_3678)">
<path d="M32 12.1899H30.47V19.8099H32V12.1899Z" fill="currentColor"/>
<path d="M30.4699 19.8101H28.95V22.8601H30.4699V19.8101Z" fill="currentColor"/>
<path d="M30.4699 9.14001H28.95V12.19H30.4699V9.14001Z" fill="currentColor"/>
<path d="M28.9501 22.86H27.4301V25.9H28.9501V22.86Z" fill="currentColor"/>
<path d="M28.9501 6.08997H27.4301V9.13997H28.9501V6.08997Z" fill="currentColor"/>
<path d="M27.43 25.9H25.9V27.43H27.43V25.9Z" fill="currentColor"/>
<path d="M27.43 4.56995H25.9V6.08995H27.43V4.56995Z" fill="currentColor"/>
<path d="M24.38 13.7099H19.81V12.1899H18.28V15.2399H24.38V16.7599H18.28V18.2899H24.38V19.8099H25.9V12.1899H24.38V13.7099Z" fill="currentColor"/>
<path d="M25.9 27.4301H22.85V28.9501H25.9V27.4301Z" fill="currentColor"/>
<path d="M25.9 3.05005H22.85V4.57005H25.9V3.05005Z" fill="currentColor"/>
<path d="M18.2799 19.8101V22.8601H12.1899V24.3801H22.8499V22.8601H19.8099V21.3301H22.8499V22.8601H24.3799V19.8101H18.2799Z" fill="currentColor"/>
<path d="M22.8501 28.95H19.8101V30.4799H22.8501V28.95Z" fill="currentColor"/>
<path d="M24.3801 10.67H19.8101V12.19H24.3801V10.67Z" fill="currentColor"/>
<path d="M21.3301 6.08997H19.8101V9.13997H21.3301V6.08997Z" fill="currentColor"/>
<path d="M22.8501 1.52002H19.8101V3.05002H22.8501V1.52002Z" fill="currentColor"/>
<path d="M19.81 9.14001H18.28V10.67H19.81V9.14001Z" fill="currentColor"/>
<path d="M19.81 4.56995H16.76V6.08995H19.81V4.56995Z" fill="currentColor"/>
<path d="M19.8099 30.48H12.1899V32H19.8099V30.48Z" fill="currentColor"/>
<path d="M18.28 18.29H16.76V19.81H18.28V18.29Z" fill="currentColor"/>
<path d="M18.28 15.24H16.76V16.76H18.28V15.24Z" fill="currentColor"/>
<path d="M18.28 10.67H16.76V12.19H18.28V10.67Z" fill="currentColor"/>
<path d="M16.76 6.08997H15.23V7.61997H16.76V6.08997Z" fill="currentColor"/>
<path d="M15.23 7.62H13.71V9.14H15.23V7.62Z" fill="currentColor"/>
<path d="M19.8099 0H12.1899V1.52H19.8099V0Z" fill="currentColor"/>
<path d="M13.7099 9.14001H12.1899V10.67H13.7099V9.14001Z" fill="currentColor"/>
<path d="M12.19 28.95H9.14001V30.4799H12.19V28.95Z" fill="currentColor"/>
<path d="M10.66 21.33V12.19H12.19V10.67H10.66V9.14001H6.08997V24.38H10.66V22.86H12.19V21.33H10.66ZM9.13997 21.33H7.61997V18.29H9.13997V21.33Z" fill="currentColor"/>
<path d="M12.19 1.52002H9.14001V3.05002H12.19V1.52002Z" fill="currentColor"/>
<path d="M9.13997 27.4301H6.08997V28.9501H9.13997V27.4301Z" fill="currentColor"/>
<path d="M9.13997 3.05005H6.08997V4.57005H9.13997V3.05005Z" fill="currentColor"/>
<path d="M6.08995 25.9H4.56995V27.43H6.08995V25.9Z" fill="currentColor"/>
<path d="M6.08995 4.56995H4.56995V6.08995H6.08995V4.56995Z" fill="currentColor"/>
<path d="M4.57004 22.86H3.04004V25.9H4.57004V22.86Z" fill="currentColor"/>
<path d="M4.57004 6.08997H3.04004V9.13997H4.57004V6.08997Z" fill="currentColor"/>
<path d="M3.04002 19.8101H1.52002V22.8601H3.04002V19.8101Z" fill="currentColor"/>
<path d="M3.04002 9.14001H1.52002V12.19H3.04002V9.14001Z" fill="currentColor"/>
<path d="M1.52 12.1899H0V19.8099H1.52V12.1899Z" fill="currentColor"/>
</g>
<defs>
<clipPath id="clip0_1135_3678">
<rect width="32" height="32" fill="white"/>
</clipPath>
</defs>
</svg>
