<svg width="32" height="32" viewBox="0 0 32 32" fill="none" xmlns="http://www.w3.org/2000/svg">
<g clip-path="url(#clip0_1128_9732)">
<path d="M31.24 15.24H22.1V16.76H31.24V15.24Z" fill="currentColor"/>
<path d="M29.72 7.62H28.19V13.72H29.72V7.62Z" fill="currentColor"/>
<path d="M28.19 6.1001H26.67V7.6201H28.19V6.1001Z" fill="currentColor"/>
<path d="M26.67 18.29H25.15V19.81H26.67V18.29Z" fill="currentColor"/>
<path d="M25.15 19.8101H23.62V21.3301H25.15V19.8101Z" fill="currentColor"/>
<path d="M26.67 4.57007H23.62V6.10007H26.67V4.57007Z" fill="currentColor"/>
<path d="M23.62 21.3301H22.1V22.8601H23.62V21.3301Z" fill="currentColor"/>
<path d="M22.1 22.8601H20.57V24.3801H22.1V22.8601Z" fill="currentColor"/>
<path d="M22.1 13.7201H20.57V15.2401H22.1V13.7201Z" fill="currentColor"/>
<path d="M20.57 24.38H19.05V25.91H20.57V24.38Z" fill="currentColor"/>
<path d="M20.57 12.1901H19.05V13.7201H20.57V12.1901Z" fill="currentColor"/>
<path d="M23.62 3.05005H17.53V4.57005H23.62V3.05005Z" fill="currentColor"/>
<path d="M19.05 25.91H17.53V27.43H19.05V25.91Z" fill="currentColor"/>
<path d="M19.05 13.7201H17.53V19.8101H19.05V13.7201Z" fill="currentColor"/>
<path d="M17.53 19.8101H16V21.3301H17.53V19.8101Z" fill="currentColor"/>
<path d="M17.53 4.57007H16V6.10007H17.53V4.57007Z" fill="currentColor"/>
<path d="M17.53 27.4301H12.96V28.9501H17.53V27.4301Z" fill="currentColor"/>
<path d="M16 16.76H14.48V19.81H16V16.76Z" fill="currentColor"/>
<path d="M16 6.1001H14.48V7.6201H16V6.1001Z" fill="currentColor"/>
<path d="M14.48 12.1901H12.96V16.7601H14.48V12.1901Z" fill="currentColor"/>
<path d="M14.48 4.57007H12.96V6.10007H14.48V4.57007Z" fill="currentColor"/>
<path d="M12.96 25.91H11.43V27.43H12.96V25.91Z" fill="currentColor"/>
<path d="M12.96 10.67H11.43V12.19H12.96V10.67Z" fill="currentColor"/>
<path d="M11.43 24.38H9.91V25.91H11.43V24.38Z" fill="currentColor"/>
<path d="M11.43 12.1901H9.91V15.2401H11.43V12.1901Z" fill="currentColor"/>
<path d="M9.91 22.8601H8.38V24.3801H9.91V22.8601Z" fill="currentColor"/>
<path d="M12.96 3.05005H6.86002V4.57005H12.96V3.05005Z" fill="currentColor"/>
<path d="M8.38002 21.3301H6.86002V22.8601H8.38002V21.3301Z" fill="currentColor"/>
<path d="M9.91 15.24H5.34V16.76H9.91V15.24Z" fill="currentColor"/>
<path d="M6.86 19.8101H5.34V21.3301H6.86V19.8101Z" fill="currentColor"/>
<path d="M6.86 4.57007H3.81V6.10007H6.86V4.57007Z" fill="currentColor"/>
<path d="M5.34 18.29H3.81V19.81H5.34V18.29Z" fill="currentColor"/>
<path d="M3.81001 16.76H2.29001V18.29H3.81001V16.76Z" fill="currentColor"/>
<path d="M3.81001 6.1001H2.29001V7.6201H3.81001V6.1001Z" fill="currentColor"/>
<path d="M2.29001 7.62H0.76001V16.76H2.29001V7.62Z" fill="currentColor"/>
</g>
<defs>
<clipPath id="clip0_1128_9732">
<rect width="32" height="32" fill="white"/>
</clipPath>
</defs>
</svg>
