<svg width="32" height="32" viewBox="0 0 32 32" fill="none" xmlns="http://www.w3.org/2000/svg">
<g clip-path="url(#clip0_1128_7153)">
<path d="M31.24 16.005H29.71V17.525H31.24V16.005Z" fill="currentColor"/>
<path d="M31.24 12.955H29.71V14.475H31.24V12.955Z" fill="currentColor"/>
<path d="M31.24 9.90503H29.71V11.425H31.24V9.90503Z" fill="currentColor"/>
<path d="M31.24 6.85504H29.71V8.38504H31.24V6.85504Z" fill="currentColor"/>
<path d="M31.24 3.80499H29.71V5.33499H31.24V3.80499Z" fill="currentColor"/>
<path d="M31.24 0.765015H29.71V2.28501H31.24V0.765015Z" fill="currentColor"/>
<path d="M28.19 16.005H26.67V17.525H28.19V16.005Z" fill="currentColor"/>
<path d="M28.19 12.955H26.67V14.475H28.19V12.955Z" fill="currentColor"/>
<path d="M28.19 9.90503H26.67V11.425H28.19V9.90503Z" fill="currentColor"/>
<path d="M28.19 6.85504H26.67V8.38504H28.19V6.85504Z" fill="currentColor"/>
<path d="M28.19 3.80499H26.67V5.33499H28.19V3.80499Z" fill="currentColor"/>
<path d="M28.19 0.765015H26.67V2.28501H28.19V0.765015Z" fill="currentColor"/>
<path d="M25.14 16.005H23.62V17.525H25.14V16.005Z" fill="currentColor"/>
<path d="M25.14 12.955H23.62V14.475H25.14V12.955Z" fill="currentColor"/>
<path d="M25.14 9.90503H23.62V11.425H25.14V9.90503Z" fill="currentColor"/>
<path d="M25.14 6.85504H23.62V8.38504H25.14V6.85504Z" fill="currentColor"/>
<path d="M25.14 3.80499H23.62V5.33499H25.14V3.80499Z" fill="currentColor"/>
<path d="M25.14 0.765015H23.62V2.28501H25.14V0.765015Z" fill="currentColor"/>
<path d="M22.0901 12.955H20.5701V14.475H22.0901V12.955Z" fill="currentColor"/>
<path d="M22.0901 9.90503H20.5701V11.425H22.0901V9.90503Z" fill="currentColor"/>
<path d="M22.0901 6.85504H20.5701V8.38504H22.0901V6.85504Z" fill="currentColor"/>
<path d="M22.0901 3.80499H20.5701V5.33499H22.0901V3.80499Z" fill="currentColor"/>
<path d="M19.05 9.90503H17.52V11.425H19.05V9.90503Z" fill="currentColor"/>
<path d="M19.05 6.85504H17.52V8.38504H19.05V6.85504Z" fill="currentColor"/>
<path d="M17.52 14.475H16V29.715H17.52V14.475Z" fill="currentColor"/>
<path d="M16 12.955H14.48V14.475H16V12.955Z" fill="currentColor"/>
<path d="M16 29.715H2.28003V31.235H16V29.715Z" fill="currentColor"/>
<path d="M14.48 3.80499H12.95V5.33499H14.48V3.80499Z" fill="currentColor"/>
<path d="M12.9501 16.005H5.33006V17.525H3.81006V25.145H5.33006V26.665H6.86006V25.145H8.38006V26.665H9.90006V25.145H11.4301V26.665H12.9501V25.145H14.4801V17.525H12.9501V16.005ZM8.38006 22.1H5.33006V19.05H8.38006V22.1ZM12.9501 22.1H9.90006V19.05H12.9501V22.1Z" fill="currentColor"/>
<path d="M12.95 2.28503H5.32996V3.80503H12.95V2.28503Z" fill="currentColor"/>
<path d="M14.48 12.955V11.425H9.90003V9.90502H16V8.38502H9.90003V6.85502H12.95V5.33502H5.33003V6.85502H8.38003V8.38502H2.28003V9.90502H8.38003V11.425H3.81003V12.955H14.48Z" fill="currentColor"/>
<path d="M5.33006 3.80499H3.81006V5.33499H5.33006V3.80499Z" fill="currentColor"/>
<path d="M3.81003 12.955H2.28003V14.475H3.81003V12.955Z" fill="currentColor"/>
<path d="M2.28001 14.475H0.76001V29.715H2.28001V14.475Z" fill="currentColor"/>
<path d="M2.28001 9.90503H0.76001V11.425H2.28001V9.90503Z" fill="currentColor"/>
</g>
<defs>
<clipPath id="clip0_1128_7153">
<rect width="32" height="32" fill="white"/>
</clipPath>
</defs>
</svg>
