<svg width="32" height="32" viewBox="0 0 32 32" fill="none" xmlns="http://www.w3.org/2000/svg">
<g clip-path="url(#clip0_1128_13447)">
<path d="M32 23.615H30.47V28.185H32V23.615Z" fill="currentColor"/>
<path d="M30.47 28.185H25.9V29.715H30.47V28.185Z" fill="currentColor"/>
<path d="M30.47 23.615V22.095H28.95V17.525H27.42V22.095H25.9V23.615H30.47Z" fill="currentColor"/>
<path d="M27.42 15.995H25.9V17.525H27.42V15.995Z" fill="currentColor"/>
<path d="M25.9 23.615H24.38V28.185H25.9V23.615Z" fill="currentColor"/>
<path d="M16.76 14.475V9.905H18.28V8.375H13.71V9.905H15.23V14.475H6.08997V15.995H15.23V22.095H13.71V23.615H18.28V22.095H16.76V15.995H25.9V14.475H16.76Z" fill="currentColor"/>
<path d="M19.8 23.615H18.28V28.185H19.8V23.615Z" fill="currentColor"/>
<path d="M19.8 3.80499H18.28V8.37499H19.8V3.80499Z" fill="currentColor"/>
<path d="M18.28 28.185H13.71V29.715H18.28V28.185Z" fill="currentColor"/>
<path d="M18.28 2.285H13.71V3.805H18.28V2.285Z" fill="currentColor"/>
<path d="M13.7099 23.615H12.1899V28.185H13.7099V23.615Z" fill="currentColor"/>
<path d="M13.7099 3.80499H12.1899V8.37499H13.7099V3.80499Z" fill="currentColor"/>
<path d="M7.60997 23.615H6.08997V28.185H7.60997V23.615Z" fill="currentColor"/>
<path d="M6.08995 15.995H4.56995V17.525H6.08995V15.995Z" fill="currentColor"/>
<path d="M6.09002 28.185H1.52002V29.715H6.09002V28.185Z" fill="currentColor"/>
<path d="M3.04002 22.095H1.52002V23.615H6.09002V22.095H4.57002V17.525H3.04002V22.095Z" fill="currentColor"/>
<path d="M1.52 23.615H0V28.185H1.52V23.615Z" fill="currentColor"/>
</g>
<defs>
<clipPath id="clip0_1128_13447">
<rect width="32" height="32" fill="white"/>
</clipPath>
</defs>
</svg>
