<svg width="32" height="32" viewBox="0 0 32 32" fill="none" xmlns="http://www.w3.org/2000/svg">
<g clip-path="url(#clip0_1128_8936)">
<path d="M32 12.945H30.47V22.095H32V12.945Z" fill="currentColor"/>
<path d="M30.47 11.425H28.95V12.945H30.47V11.425Z" fill="currentColor"/>
<path d="M30.47 22.095H27.42V23.615H30.47V22.095Z" fill="currentColor"/>
<path d="M28.95 9.90503H27.42V11.425H28.95V9.90503Z" fill="currentColor"/>
<path d="M27.42 23.615H22.85V25.145H27.42V23.615Z" fill="currentColor"/>
<path d="M27.42 8.375H22.85V9.905H27.42V8.375Z" fill="currentColor"/>
<path d="M22.85 22.095H19.81V23.615H22.85V22.095Z" fill="currentColor"/>
<path d="M22.85 6.85504H21.33V8.37504H22.85V6.85504Z" fill="currentColor"/>
<path d="M18.28 14.475H16.76V12.945H13.71V11.425H16.76V9.90503H10.66V11.425H9.14V12.945H7.61V17.525H9.14V19.045H10.66V20.565H16.76V19.045H18.28V17.525H19.81V12.945H18.28V14.475Z" fill="currentColor"/>
<path d="M19.81 23.615H15.23V25.145H19.81V23.615Z" fill="currentColor"/>
<path d="M18.28 11.425H16.76V12.945H18.28V11.425Z" fill="currentColor"/>
<path d="M21.33 5.33502H13.71V6.85502H21.33V5.33502Z" fill="currentColor"/>
<path d="M15.23 25.145H9.14V26.665H15.23V25.145Z" fill="currentColor"/>
<path d="M13.71 6.85504H9.14V8.37504H13.71V6.85504Z" fill="currentColor"/>
<path d="M9.14 23.615H6.09V25.145H9.14V23.615Z" fill="currentColor"/>
<path d="M9.14 8.375H7.61V9.905H9.14V8.375Z" fill="currentColor"/>
<path d="M7.61 9.90503H4.57V11.425H7.61V9.90503Z" fill="currentColor"/>
<path d="M6.09 22.095H3.04V23.615H6.09V22.095Z" fill="currentColor"/>
<path d="M4.57 11.425H3.04V12.945H4.57V11.425Z" fill="currentColor"/>
<path d="M3.04 20.565H1.52V22.095H3.04V20.565Z" fill="currentColor"/>
<path d="M3.04 12.945H1.52V15.995H3.04V12.945Z" fill="currentColor"/>
<path d="M1.52 15.995H0V20.565H1.52V15.995Z" fill="currentColor"/>
</g>
<defs>
<clipPath id="clip0_1128_8936">
<rect width="32" height="32" fill="white"/>
</clipPath>
</defs>
</svg>
