<svg width="32" height="32" viewBox="0 0 32 32" fill="none" xmlns="http://www.w3.org/2000/svg">
<g clip-path="url(#clip0_1135_3223)">
<path d="M28.19 16.76V10.67H26.67V7.61999H17.52V6.08999H19.05V3.04999H17.52V1.51999H11.43V3.04999H9.90999V6.08999H11.43V7.61999H5.32999V9.13999H22.1V15.24H23.62V19.81H25.14V28.95H2.28999V30.48H26.67V28.95H28.19V27.43H29.71V25.9H31.24V21.33H29.71V16.76H28.19ZM16 6.08999H12.95V3.04999H16V6.08999Z" fill="currentColor"/>
<path d="M17.52 19.81H19.05V21.33H20.57V18.28H17.52V19.81Z" fill="currentColor"/>
<path d="M19.05 15.24H16V16.76H19.05V15.24Z" fill="currentColor"/>
<path d="M19.05 21.33H16V22.86H19.05V21.33Z" fill="currentColor"/>
<path d="M16 16.76H14.48V21.33H16V16.76Z" fill="currentColor"/>
<path d="M12.95 21.33H11.43V22.86H12.95V21.33Z" fill="currentColor"/>
<path d="M12.95 15.24H11.43V16.76H12.95V15.24Z" fill="currentColor"/>
<path d="M11.43 19.81H9.90999V21.33H11.43V19.81Z" fill="currentColor"/>
<path d="M11.43 16.76H9.90999V18.28H11.43V16.76Z" fill="currentColor"/>
<path d="M8.38 15.24H6.86V22.86H8.38V19.81H9.91V18.28H8.38V15.24Z" fill="currentColor"/>
<path d="M5.33 9.13998H3.81V15.24H5.33V9.13998Z" fill="currentColor"/>
<path d="M3.80999 15.24H2.28999V19.81H3.80999V15.24Z" fill="currentColor"/>
<path d="M2.28999 19.81H0.759995V28.95H2.28999V19.81Z" fill="currentColor"/>
</g>
<defs>
<clipPath id="clip0_1135_3223">
<rect width="32" height="32" fill="white"/>
</clipPath>
</defs>
</svg>
