<svg width="32" height="32" viewBox="0 0 32 32" fill="none" xmlns="http://www.w3.org/2000/svg">
<g clip-path="url(#clip0_1128_5717)">
<path d="M32 20.575H30.48V26.665H32V20.575Z" fill="currentColor"/>
<path d="M30.48 26.665H28.95V29.715H30.48V26.665Z" fill="currentColor"/>
<path d="M30.48 17.525H28.95V20.575H30.48V17.525Z" fill="currentColor"/>
<path d="M28.95 22.095H27.43V23.615H28.95V22.095Z" fill="currentColor"/>
<path d="M28.95 6.855H27.43V8.385H28.95V6.855Z" fill="currentColor"/>
<path d="M28.95 29.715H3.05V31.235H28.95V29.715Z" fill="currentColor"/>
<path d="M27.43 19.045H25.91V20.575H27.43V19.045Z" fill="currentColor"/>
<path d="M27.43 5.335H25.91V6.855H27.43V5.335Z" fill="currentColor"/>
<path d="M27.43 25.145H24.38V26.665H27.43V25.145Z" fill="currentColor"/>
<path d="M25.91 22.095H24.38V23.615H25.91V22.095Z" fill="currentColor"/>
<path d="M25.91 9.905H24.38V11.425H25.91V9.905Z" fill="currentColor"/>
<path d="M24.38 19.045H22.86V20.575H24.38V19.045Z" fill="currentColor"/>
<path d="M24.38 8.385H21.33V9.905H24.38V8.385Z" fill="currentColor"/>
<path d="M25.91 3.815H22.86V5.335H25.91V3.815Z" fill="currentColor"/>
<path d="M22.86 22.095H21.33V23.615H22.86V22.095Z" fill="currentColor"/>
<path d="M22.86 25.145H9.14V28.195H22.86V25.145Z" fill="currentColor"/>
<path d="M21.33 19.045H19.81V20.575H21.33V19.045Z" fill="currentColor"/>
<path d="M21.33 6.855H18.29V8.385H21.33V6.855Z" fill="currentColor"/>
<path d="M22.86 2.285H19.81V3.815H22.86V2.285Z" fill="currentColor"/>
<path d="M19.81 22.095H18.29V23.615H19.81V22.095Z" fill="currentColor"/>
<path d="M19.81 11.425H18.29V12.955H19.81V11.425Z" fill="currentColor"/>
<path d="M18.29 19.045H16.76V20.575H18.29V19.045Z" fill="currentColor"/>
<path d="M18.29 9.905H13.72V11.425H18.29V9.905Z" fill="currentColor"/>
<path d="M18.29 5.335H13.72V6.855H18.29V5.335Z" fill="currentColor"/>
<path d="M16.76 22.095H15.24V23.615H16.76V22.095Z" fill="currentColor"/>
<path d="M15.24 19.045H13.72V20.575H15.24V19.045Z" fill="currentColor"/>
<path d="M19.81 0.764999H12.19V2.285H19.81V0.764999Z" fill="currentColor"/>
<path d="M13.72 22.095H12.19V23.615H13.72V22.095Z" fill="currentColor"/>
<path d="M13.72 11.425H12.19V12.955H13.72V11.425Z" fill="currentColor"/>
<path d="M12.19 19.045H10.67V20.575H12.19V19.045Z" fill="currentColor"/>
<path d="M13.72 6.855H10.67V8.385H13.72V6.855Z" fill="currentColor"/>
<path d="M12.19 2.285H9.14V3.815H12.19V2.285Z" fill="currentColor"/>
<path d="M10.67 22.095H9.14V23.615H10.67V22.095Z" fill="currentColor"/>
<path d="M9.14 19.045H7.62V20.575H9.14V19.045Z" fill="currentColor"/>
<path d="M10.67 8.385H7.62V9.905H10.67V8.385Z" fill="currentColor"/>
<path d="M9.14001 3.815H6.10001V5.335H9.14001V3.815Z" fill="currentColor"/>
<path d="M7.62001 22.095H6.10001V23.615H7.62001V22.095Z" fill="currentColor"/>
<path d="M7.62001 9.905H6.10001V11.425H7.62001V9.905Z" fill="currentColor"/>
<path d="M7.62001 25.145H4.57001V26.665H7.62001V25.145Z" fill="currentColor"/>
<path d="M6.10001 19.045H4.57001V20.575H6.10001V19.045Z" fill="currentColor"/>
<path d="M28.95 16.005H3.05V17.525H28.95V16.005Z" fill="currentColor"/>
<path d="M6.10001 5.335H4.57001V6.855H6.10001V5.335Z" fill="currentColor"/>
<path d="M4.57 22.095H3.05V23.615H4.57V22.095Z" fill="currentColor"/>
<path d="M4.57 6.855H3.05V8.385H4.57V6.855Z" fill="currentColor"/>
<path d="M3.05 26.665H1.53V29.715H3.05V26.665Z" fill="currentColor"/>
<path d="M3.05 17.525H1.53V20.575H3.05V17.525Z" fill="currentColor"/>
<path d="M1.53 20.575H0V26.665H1.53V20.575Z" fill="currentColor"/>
</g>
<defs>
<clipPath id="clip0_1128_5717">
<rect width="32" height="32" fill="white"/>
</clipPath>
</defs>
</svg>
