<svg width="32" height="32" viewBox="0 0 32 32" fill="none" xmlns="http://www.w3.org/2000/svg">
<g clip-path="url(#clip0_1128_10611)">
<path d="M31.24 22.86H29.72V24.38H31.24V22.86Z" fill="currentColor"/>
<path d="M31.24 16.77H29.72V18.29H31.24V16.77Z" fill="currentColor"/>
<path d="M31.24 9.15002H29.72V10.67H31.24V9.15002Z" fill="currentColor"/>
<path d="M31.24 3.05003H29.72V1.53003H28.19V3.05003H26.67V4.57003H28.19V6.10003H29.72V4.57003H31.24V3.05003Z" fill="currentColor"/>
<path d="M29.72 21.34H28.19V22.86H29.72V21.34Z" fill="currentColor"/>
<path d="M28.19 32V30.48H29.72V28.96H28.19V27.43H26.67V28.96H25.15V30.48H26.67V32H28.19Z" fill="currentColor"/>
<path d="M28.19 22.86H26.67V24.38H28.19V22.86Z" fill="currentColor"/>
<path d="M26.67 12.19H25.15V13.72H26.67V12.19Z" fill="currentColor"/>
<path d="M25.15 13.72H23.62V15.24H25.15V13.72Z" fill="currentColor"/>
<path d="M25.15 10.67H23.62V12.19H25.15V10.67Z" fill="currentColor"/>
<path d="M23.62 25.91H22.1V27.43H23.62V25.91Z" fill="currentColor"/>
<path d="M23.62 18.29H22.1V19.81H23.62V18.29Z" fill="currentColor"/>
<path d="M23.62 12.19H22.1V13.72H23.62V12.19Z" fill="currentColor"/>
<path d="M23.62 4.57001H22.1V6.10001H23.62V4.57001Z" fill="currentColor"/>
<path d="M8.38 27.43V28.96H9.91V30.48H11.43V28.96H19.05V30.48H20.57V28.96H22.1V27.43H8.38Z" fill="currentColor"/>
<path d="M19.05 30.48H11.43V32H19.05V30.48Z" fill="currentColor"/>
<path d="M19.05 0H11.43V1.53H19.05V0Z" fill="currentColor"/>
<path d="M5.34 30.48V22.86H9.91V24.38H8.38V25.91H22.1V24.38H20.57V7.62003H22.1V6.10003H8.38V7.62003H9.91V9.15003H5.34V1.53003H3.81V30.48H5.34ZM19.05 24.38H16V22.86H17.53V21.34H19.05V24.38ZM11.43 9.15003H12.96V7.62003H16V9.15003H14.48V10.67H12.96V12.19H11.43V9.15003ZM11.43 15.24H12.96V13.72H14.48V12.19H16V10.67H17.53V9.15003H19.05V12.19H17.53V13.72H16V15.24H14.48V16.77H12.96V18.29H11.43V15.24ZM11.43 21.34H12.96V19.81H14.48V18.29H16V16.77H17.53V15.24H19.05V18.29H17.53V19.81H16V21.34H14.48V22.86H12.96V24.38H11.43V21.34ZM5.34 10.67H9.91V21.34H5.34V10.67Z" fill="currentColor"/>
<path d="M22.1 4.57003V3.05003H20.57V1.53003H19.05V3.05003H11.43V1.53003H9.91V3.05003H8.38V4.57003H22.1Z" fill="currentColor"/>
<path d="M8.37999 25.91H6.85999V27.43H8.37999V25.91Z" fill="currentColor"/>
<path d="M8.37999 4.57001H6.85999V6.10001H8.37999V4.57001Z" fill="currentColor"/>
<path d="M3.81001 0H0.76001V1.53H3.81001V0Z" fill="currentColor"/>
<path d="M3.81001 30.48H0.76001V32H3.81001V30.48Z" fill="currentColor"/>
</g>
<defs>
<clipPath id="clip0_1128_10611">
<rect width="32" height="32" fill="white"/>
</clipPath>
</defs>
</svg>
