<svg width="32" height="32" viewBox="0 0 32 32" fill="none" xmlns="http://www.w3.org/2000/svg">
<g clip-path="url(#clip0_1128_19627)">
<path d="M32 15.24H30.47V21.33H32V15.24Z" fill="currentColor"/>
<path d="M30.47 27.43H28.95V25.9H27.43V24.38H25.9V22.86H24.38V21.33H22.85V19.81H21.33V18.28H19.81V16.76H18.28V15.24H16.76V13.71H15.24V12.19H13.71V10.67H12.19V9.14H10.66V7.62H9.14V6.09H7.62V4.57H6.09V3.05H4.57V1.52H3.05V0H0V3.05H1.52V4.57H3.05V6.09H4.57V7.62H6.09V9.14H7.62V10.67H9.14V12.19H10.66V13.71H12.19V15.24H13.71V16.76H15.24V18.28H16.76V19.81H18.28V21.33H19.81V22.86H21.33V24.38H22.85V25.9H24.38V27.43H25.9V28.95H27.43V30.48H28.95V32H32V28.95H30.47V27.43Z" fill="currentColor"/>
<path d="M30.4699 21.33H28.95V22.86H30.4699V21.33Z" fill="currentColor"/>
<path d="M30.4699 13.71H28.95V15.24H30.4699V13.71Z" fill="currentColor"/>
<path d="M28.9501 12.19H27.4301V13.71H28.9501V12.19Z" fill="currentColor"/>
<path d="M24.38 10.67V9.14H22.85V12.19H27.43V10.67H24.38Z" fill="currentColor"/>
<path d="M22.85 12.19H21.33V13.71H22.85V12.19Z" fill="currentColor"/>
<path d="M22.85 7.62H21.33V9.14H22.85V7.62Z" fill="currentColor"/>
<path d="M21.3301 13.71H19.8101V15.24H21.3301V13.71Z" fill="currentColor"/>
<path d="M21.33 6.09H18.28V7.62H21.33V6.09Z" fill="currentColor"/>
<path d="M19.81 24.38H3.05005V25.9H19.81V24.38Z" fill="currentColor"/>
<path d="M18.28 4.57H13.71V6.09H18.28V4.57Z" fill="currentColor"/>
<path d="M13.7099 6.09H12.1899V7.62H13.7099V6.09Z" fill="currentColor"/>
<path d="M7.62005 12.19H3.05005V13.71H7.62005V12.19Z" fill="currentColor"/>
<path d="M3.05002 22.86H1.52002V24.38H3.05002V22.86Z" fill="currentColor"/>
<path d="M3.05002 13.71H1.52002V15.24H3.05002V13.71Z" fill="currentColor"/>
<path d="M1.52 15.24H0V22.86H1.52V15.24Z" fill="currentColor"/>
</g>
<defs>
<clipPath id="clip0_1128_19627">
<rect width="32" height="32" fill="white"/>
</clipPath>
</defs>
</svg>
