<svg width="32" height="32" viewBox="0 0 32 32" fill="none" xmlns="http://www.w3.org/2000/svg">
<path d="M28.9501 6.10001H27.4301V18.29H28.9501V6.10001Z" fill="currentColor"/>
<path d="M27.43 18.29H25.9V19.81H27.43V18.29Z" fill="currentColor"/>
<path d="M27.43 4.57001H25.9V6.10001H27.43V4.57001Z" fill="currentColor"/>
<path d="M25.9 19.81H24.38V21.33H25.9V19.81Z" fill="currentColor"/>
<path d="M25.9 3.04999H24.38V4.56999H25.9V3.04999Z" fill="currentColor"/>
<path d="M24.3801 21.33H22.8501V22.86H24.3801V21.33Z" fill="currentColor"/>
<path d="M24.3801 1.51999H22.8501V3.04999H24.3801V1.51999Z" fill="currentColor"/>
<path d="M18.28 22.86V16.76H16.76V22.86H15.24V16.76H13.71V22.86H9.14001V24.38H10.66V30.48H12.19V28.95H19.81V30.48H21.33V24.38H22.85V22.86H18.28ZM19.81 25.9H12.19V24.38H19.81V25.9Z" fill="currentColor"/>
<path d="M21.3301 10.67H19.8101V13.71H21.3301V10.67Z" fill="currentColor"/>
<path d="M19.81 13.71H18.28V16.76H19.81V13.71Z" fill="currentColor"/>
<path d="M19.8101 30.48H12.1901V32H19.8101V30.48Z" fill="currentColor"/>
<path d="M13.7101 13.71H12.1901V16.76H13.7101V13.71Z" fill="currentColor"/>
<path d="M12.19 10.67H10.66V13.71H12.19V10.67Z" fill="currentColor"/>
<path d="M22.85 0H9.14001V1.52H22.85V0Z" fill="currentColor"/>
<path d="M9.14 21.33H7.62V22.86H9.14V21.33Z" fill="currentColor"/>
<path d="M9.14 1.51999H7.62V3.04999H9.14V1.51999Z" fill="currentColor"/>
<path d="M7.62009 19.81H6.09009V21.33H7.62009V19.81Z" fill="currentColor"/>
<path d="M7.62009 3.04999H6.09009V4.56999H7.62009V3.04999Z" fill="currentColor"/>
<path d="M6.09007 18.29H4.57007V19.81H6.09007V18.29Z" fill="currentColor"/>
<path d="M6.09007 4.57001H4.57007V6.10001H6.09007V4.57001Z" fill="currentColor"/>
<path d="M4.57005 6.10001H3.05005V18.29H4.57005V6.10001Z" fill="currentColor"/>
</svg>
