<svg width="32" height="32" viewBox="0 0 32 32" fill="none" xmlns="http://www.w3.org/2000/svg">
<g clip-path="url(#clip0_1128_6376)">
<path d="M30.472 6.1H25.9V1.525H27.43V0H6.092V12.2H4.572V13.72H6.092V16.77H4.572V13.72H3.052V25.91H4.572V27.43H6.092V32H32V4.575H30.47L30.472 6.1ZM7.622 18.285H12.192V22.855H9.142V25.905H7.622V18.285ZM30.472 30.475H7.622V27.425H25.9V25.905H27.43V18.285H25.9V16.765H7.622V1.525H24.382V7.615H30.472V30.475ZM18.282 19.805V24.385H16.762V25.905H13.712V18.285H16.762V19.805H18.282ZM24.382 21.335V22.855H21.332V25.905H19.812V18.285H24.382V19.805H21.332V21.335H24.382Z" fill="currentColor"/>
<path d="M30.472 3.04501H28.952V4.57501H30.472V3.04501Z" fill="currentColor"/>
<path d="M28.952 1.52499H27.432V3.04499H28.952V1.52499Z" fill="currentColor"/>
<path d="M16.762 19.805H15.242V24.385H16.762V19.805Z" fill="currentColor"/>
<path d="M10.672 19.805H9.14203V21.335H10.672V19.805Z" fill="currentColor"/>
</g>
<defs>
<clipPath id="clip0_1128_6376">
<rect width="32" height="32" fill="white"/>
</clipPath>
</defs>
</svg>
