<svg width="32" height="32" viewBox="0 0 32 32" fill="none" xmlns="http://www.w3.org/2000/svg">
<g clip-path="url(#clip0_1135_3480)">
<path d="M32 10.67H30.47V15.24H32V10.67Z" fill="currentColor"/>
<path d="M30.47 15.24H28.95V19.81H30.47V15.24Z" fill="currentColor"/>
<path d="M28.95 19.81H27.43V22.86H28.95V19.81Z" fill="currentColor"/>
<path d="M27.43 13.72H25.9V18.29H27.43V13.72Z" fill="currentColor"/>
<path d="M27.43 22.86H12.19V24.38H27.43V22.86Z" fill="currentColor"/>
<path d="M25.9 18.29H24.38V21.33H25.9V18.29Z" fill="currentColor"/>
<path d="M21.33 13.72H19.81V21.33H21.33V13.72Z" fill="currentColor"/>
<path d="M16.76 18.29H15.23V21.33H16.76V18.29Z" fill="currentColor"/>
<path d="M15.23 13.72H13.71V18.29H15.23V13.72Z" fill="currentColor"/>
<path d="M12.19 28.95V30.48H13.71V32H16.76V30.48H18.28V28.95H21.33V30.48H22.85V32H25.9V30.48H27.43V28.95H30.47V27.43H25.9V25.91H22.85V27.43H16.76V25.91H13.71V27.43H10.66V28.95H12.19Z" fill="currentColor"/>
<path d="M12.19 24.38H10.66V25.91H12.19V24.38Z" fill="currentColor"/>
<path d="M12.19 18.29H10.66V22.86H12.19V18.29Z" fill="currentColor"/>
<path d="M10.66 25.91H9.14001V27.43H10.66V25.91Z" fill="currentColor"/>
<path d="M10.66 13.72H9.14001V18.29H10.66V13.72Z" fill="currentColor"/>
<path d="M9.14 13.72V10.67H30.47V9.14001H7.62V13.72H9.14Z" fill="currentColor"/>
<path d="M7.62 6.10001H6.09V9.14001H7.62V6.10001Z" fill="currentColor"/>
<path d="M6.09001 3.04999H4.57001V6.09999H6.09001V3.04999Z" fill="currentColor"/>
<path d="M4.57001 1.51999H3.04001V3.04999H4.57001V1.51999Z" fill="currentColor"/>
<path d="M3.04 0H0V1.52H3.04V0Z" fill="currentColor"/>
</g>
<defs>
<clipPath id="clip0_1135_3480">
<rect width="32" height="32" fill="white"/>
</clipPath>
</defs>
</svg>
