<svg width="32" height="32" viewBox="0 0 32 32" fill="none" xmlns="http://www.w3.org/2000/svg">
<g clip-path="url(#clip0_1128_13088)">
<path d="M32 15.24H28.95V16.76H32V15.24Z" fill="currentColor"/>
<path d="M30.4699 22.86H28.95V24.38H30.4699V22.86Z" fill="currentColor"/>
<path d="M30.4699 7.62H28.95V9.14H30.4699V7.62Z" fill="currentColor"/>
<path d="M28.95 21.33H27.42V22.86H28.95V21.33Z" fill="currentColor"/>
<path d="M28.95 9.14001H27.42V10.67H28.95V9.14001Z" fill="currentColor"/>
<path d="M25.9 28.95H24.38V30.48H25.9V28.95Z" fill="currentColor"/>
<path d="M25.9 1.51999H24.38V3.04999H25.9V1.51999Z" fill="currentColor"/>
<path d="M24.38 27.43H22.85V28.95H24.38V27.43Z" fill="currentColor"/>
<path d="M24.38 3.04999H22.85V4.56999H24.38V3.04999Z" fill="currentColor"/>
<path d="M22.85 18.29H21.33V19.81H22.85V18.29Z" fill="currentColor"/>
<path d="M22.85 13.71H21.33V15.24H22.85V13.71Z" fill="currentColor"/>
<path d="M21.33 15.24H19.8V16.76H21.33V15.24Z" fill="currentColor"/>
<path d="M19.8 16.76H18.28V18.29H19.8V16.76Z" fill="currentColor"/>
<path d="M18.28 18.29H16.76V19.81H18.28V18.29Z" fill="currentColor"/>
<path d="M18.28 13.71H16.76V15.24H18.28V13.71Z" fill="currentColor"/>
<path d="M16.76 28.95H15.23V32H16.76V28.95Z" fill="currentColor"/>
<path d="M16.76 0H15.23V3.05H16.76V0Z" fill="currentColor"/>
<path d="M15.23 12.19H10.66V19.81H15.23V12.19ZM13.71 18.29H12.19V13.71H13.71V18.29Z" fill="currentColor"/>
<path d="M9.13999 27.43H7.60999V28.95H9.13999V27.43Z" fill="currentColor"/>
<path d="M9.13999 3.04999H7.60999V4.56999H9.13999V3.04999Z" fill="currentColor"/>
<path d="M7.60997 28.95H6.08997V30.48H7.60997V28.95Z" fill="currentColor"/>
<path d="M7.60997 1.51999H6.08997V3.04999H7.60997V1.51999Z" fill="currentColor"/>
<path d="M4.57004 21.33H3.04004V22.86H4.57004V21.33Z" fill="currentColor"/>
<path d="M4.57004 9.14001H3.04004V10.67H4.57004V9.14001Z" fill="currentColor"/>
<path d="M3.04002 22.86H1.52002V24.38H3.04002V22.86Z" fill="currentColor"/>
<path d="M3.04 15.24H0V16.76H3.04V15.24Z" fill="currentColor"/>
<path d="M3.04002 7.62H1.52002V9.14H3.04002V7.62Z" fill="currentColor"/>
</g>
<defs>
<clipPath id="clip0_1128_13088">
<rect width="32" height="32" fill="white"/>
</clipPath>
</defs>
</svg>
