<svg width="32" height="32" viewBox="0 0 32 32" fill="none" xmlns="http://www.w3.org/2000/svg">
<g clip-path="url(#clip0_1128_8471)">
<path d="M32 27.4301H28.95V28.9501H32V27.4301Z" fill="currentColor"/>
<path d="M28.95 28.95H27.42V30.4799H28.95V28.95Z" fill="currentColor"/>
<path d="M28.95 7.62H27.42V21.33H28.95V7.62Z" fill="currentColor"/>
<path d="M27.42 21.33H25.9V24.38H27.42V21.33Z" fill="currentColor"/>
<path d="M27.42 4.56995H25.9V7.61995H27.42V4.56995Z" fill="currentColor"/>
<path d="M27.42 30.48H24.38V32H27.42V30.48Z" fill="currentColor"/>
<path d="M25.9 24.38H24.38V25.9H25.9V24.38Z" fill="currentColor"/>
<path d="M25.9 3.05005H24.38V4.57005H25.9V3.05005Z" fill="currentColor"/>
<path d="M24.38 25.9H21.33V27.43H22.85V30.48H24.38V25.9Z" fill="currentColor"/>
<path d="M22.85 21.33H24.38V18.29H22.85V16.76H19.8V18.29H18.28V21.33H19.8V22.86H22.85V21.33Z" fill="currentColor"/>
<path d="M24.38 1.52002H21.33V3.05002H24.38V1.52002Z" fill="currentColor"/>
<path d="M19.8 12.19H22.85V10.67H24.38V7.61998H22.85V6.09998H19.8V7.61998H18.28V10.67H19.8V12.19Z" fill="currentColor"/>
<path d="M21.33 27.4301H7.60999V28.9501H21.33V27.4301Z" fill="currentColor"/>
<path d="M16.7599 12.1899H12.1899V16.7599H16.7599V12.1899Z" fill="currentColor"/>
<path d="M21.33 0H7.60999V1.52H21.33V0Z" fill="currentColor"/>
<path d="M9.13995 16.76H6.08995V18.29H4.56995V21.33H6.08995V22.86H9.13995V21.33H10.6599V18.29H9.13995V16.76Z" fill="currentColor"/>
<path d="M9.13995 6.09998H6.08995V7.61998H4.56995V10.67H6.08995V12.19H9.13995V10.67H10.6599V7.61998H9.13995V6.09998Z" fill="currentColor"/>
<path d="M7.60995 25.9H4.56995V27.43H7.60995V25.9Z" fill="currentColor"/>
<path d="M7.60995 1.52002H4.56995V3.05002H7.60995V1.52002Z" fill="currentColor"/>
<path d="M4.57004 24.38H3.04004V25.9H4.57004V24.38Z" fill="currentColor"/>
<path d="M4.57004 3.05005H3.04004V4.57005H4.57004V3.05005Z" fill="currentColor"/>
<path d="M3.04002 21.33H1.52002V24.38H3.04002V21.33Z" fill="currentColor"/>
<path d="M3.04002 4.56995H1.52002V7.61995H3.04002V4.56995Z" fill="currentColor"/>
<path d="M1.52 7.62H0V21.33H1.52V7.62Z" fill="currentColor"/>
</g>
<defs>
<clipPath id="clip0_1128_8471">
<rect width="32" height="32" fill="white"/>
</clipPath>
</defs>
</svg>
