<svg width="32" height="32" viewBox="0 0 32 32" fill="none" xmlns="http://www.w3.org/2000/svg">
<g clip-path="url(#clip0_1128_8787)">
<path d="M31.235 10.665H29.715V28.955H31.235V10.665Z" fill="currentColor"/>
<path d="M29.715 9.14502H28.185V10.665H29.715V9.14502Z" fill="currentColor"/>
<path d="M2.28501 27.435H17.525V28.955H2.28501V30.475H29.715V28.955H19.045V10.665H17.525V12.2H2.28501V10.67H0.765015V28.96H2.28501V27.435ZM2.28501 13.715H8.37501V15.235H9.90001V16.765H11.42V18.285H12.95V16.765H14.47V18.285H16V16.765H17.53V25.905H12.96V24.385H9.90001V21.335H8.37501V22.855H6.85501V21.335H5.33501V19.815H3.80501V21.335H2.28501V13.715Z" fill="currentColor"/>
<path d="M28.185 24.385H26.665V25.905H28.185V24.385Z" fill="currentColor"/>
<path d="M28.185 21.335H26.665V22.855H28.185V21.335Z" fill="currentColor"/>
<path d="M28.185 7.625H26.665V9.145H28.185V7.625Z" fill="currentColor"/>
<path d="M28.185 18.285H20.575V19.815H28.185V18.285Z" fill="currentColor"/>
<path d="M28.185 15.235H20.575V16.765H28.185V15.235Z" fill="currentColor"/>
<path d="M26.665 6.09503H25.145V7.62503H26.665V6.09503Z" fill="currentColor"/>
<path d="M25.145 24.385H20.575V25.905H25.145V24.385Z" fill="currentColor"/>
<path d="M25.145 21.335H20.575V22.855H25.145V21.335Z" fill="currentColor"/>
<path d="M23.615 6.09503H22.095V7.62503H23.615V6.09503Z" fill="currentColor"/>
<path d="M22.095 7.625H20.575V9.145H22.095V7.625Z" fill="currentColor"/>
<path d="M20.575 9.14502H19.045V10.665H20.575V9.14502Z" fill="currentColor"/>
<path d="M20.575 6.09503H8.375V7.62503H20.575V6.09503Z" fill="currentColor"/>
<path d="M8.37501 3.04502H23.615V6.09502H25.145V1.52502H6.85501V6.09502H8.37501V3.04502Z" fill="currentColor"/>
<path d="M6.85502 6.09503H5.33502V7.62503H6.85502V6.09503Z" fill="currentColor"/>
<path d="M5.33502 7.625H3.80502V9.145H5.33502V7.625Z" fill="currentColor"/>
<path d="M3.805 9.14502H2.285V10.665H3.805V9.14502Z" fill="currentColor"/>
</g>
<defs>
<clipPath id="clip0_1128_8787">
<rect width="32" height="32" fill="white"/>
</clipPath>
</defs>
</svg>
