<svg width="32" height="32" viewBox="0 0 32 32" fill="none" xmlns="http://www.w3.org/2000/svg">
<g clip-path="url(#clip0_1128_10975)">
<path d="M32 5.33002H30.47V23.62H32V5.33002Z" fill="currentColor"/>
<path d="M30.4699 23.62H28.95V25.14H30.4699V23.62Z" fill="currentColor"/>
<path d="M30.4699 3.81H28.95V5.33H30.4699V3.81Z" fill="currentColor"/>
<path d="M28.9501 25.14H27.4301V26.66H28.9501V25.14Z" fill="currentColor"/>
<path d="M28.9501 2.28H27.4301V3.81H28.9501V2.28Z" fill="currentColor"/>
<path d="M27.43 20.57H25.9V22.09H27.43V20.57Z" fill="currentColor"/>
<path d="M27.43 6.86002H25.9V8.38002H27.43V6.86002Z" fill="currentColor"/>
<path d="M27.43 26.66H22.85V28.19H27.43V26.66Z" fill="currentColor"/>
<path d="M25.9 19.05H24.38V20.57H25.9V19.05Z" fill="currentColor"/>
<path d="M25.9 8.38H24.38V9.9H25.9V8.38Z" fill="currentColor"/>
<path d="M27.43 0.76001H22.85V2.28001H27.43V0.76001Z" fill="currentColor"/>
<path d="M24.38 9.90002H22.85V19.05H24.38V9.90002Z" fill="currentColor"/>
<path d="M22.8501 25.14H19.8101V26.66H22.8501V25.14Z" fill="currentColor"/>
<path d="M22.8501 2.28H19.8101V3.81H22.8501V2.28Z" fill="currentColor"/>
<path d="M19.81 23.62H16.76V25.14H19.81V23.62Z" fill="currentColor"/>
<path d="M19.81 3.81H16.76V5.33H19.81V3.81Z" fill="currentColor"/>
<path d="M16.7599 22.09H12.1899V23.62H16.7599V22.09Z" fill="currentColor"/>
<path d="M16.7599 5.33002H12.1899V6.86002H16.7599V5.33002Z" fill="currentColor"/>
<path d="M9.14 20.57V8.38002H12.19V6.86002H4.57V8.38002H1.52V9.90002H0V19.05H1.52V20.57H4.57V29.71H6.09V22.09H9.14V29.71H10.66V22.09H12.19V20.57H9.14ZM4.57 11.43H3.05V14.47H1.52V11.43H3.05V9.90002H4.57V11.43Z" fill="currentColor"/>
<path d="M9.13997 29.71H6.08997V31.24H9.13997V29.71Z" fill="currentColor"/>
</g>
<defs>
<clipPath id="clip0_1128_10975">
<rect width="32" height="32" fill="white"/>
</clipPath>
</defs>
</svg>
