<svg width="32" height="32" viewBox="0 0 32 32" fill="none" xmlns="http://www.w3.org/2000/svg">
<g clip-path="url(#clip0_1128_5418)">
<path d="M10.67 18.28V25.9H15.24V32H16.76V25.9H25.91V32H27.43V25.9H32V18.28H10.67ZM16.76 22.86H15.24V24.38H12.19V22.86H13.72V21.33H15.24V19.81H18.29V21.33H16.76V22.86ZM22.86 22.86H21.33V24.38H18.29V22.86H19.81V21.33H21.33V19.81H24.38V21.33H22.86V22.86ZM30.48 21.33H28.95V22.86H27.43V24.38H24.38V22.86H25.91V21.33H27.43V19.81H30.48V21.33Z" fill="currentColor"/>
<path d="M22.86 12.19H21.33V13.71H22.86V12.19Z" fill="currentColor"/>
<path d="M22.86 9.14001H21.33V10.67H22.86V9.14001Z" fill="currentColor"/>
<path d="M21.3301 10.67H19.8101V12.19H21.3301V10.67Z" fill="currentColor"/>
<path d="M19.81 12.19H18.29V13.71H19.81V12.19Z" fill="currentColor"/>
<path d="M19.81 9.14001H18.29V10.67H19.81V9.14001Z" fill="currentColor"/>
<path d="M18.29 15.24H16.76V16.76H18.29V15.24Z" fill="currentColor"/>
<path d="M16.7599 13.71H12.1899V15.24H16.7599V13.71Z" fill="currentColor"/>
<path d="M12.19 15.24H10.67V16.76H12.19V15.24Z" fill="currentColor"/>
<path d="M10.67 12.19H9.14001V13.71H10.67V12.19Z" fill="currentColor"/>
<path d="M10.67 9.14001H9.14001V10.67H10.67V9.14001Z" fill="currentColor"/>
<path d="M10.67 3.04999H9.14001V4.56999H10.67V3.04999Z" fill="currentColor"/>
<path d="M3.05 27.43V24.38H1.52V27.43H0V32H10.67V27.43H9.14V24.38H7.62V27.43H3.05ZM9.14 28.95V30.48H1.52V28.95H9.14Z" fill="currentColor"/>
<path d="M9.14 10.67H7.62V12.19H9.14V10.67Z" fill="currentColor"/>
<path d="M7.61998 12.19H6.09998V13.71H7.61998V12.19Z" fill="currentColor"/>
<path d="M7.61998 9.14001H6.09998V10.67H7.61998V9.14001Z" fill="currentColor"/>
<path d="M7.61998 3.04999H6.09998V4.56999H7.61998V3.04999Z" fill="currentColor"/>
<path d="M4.57005 22.86V21.33H3.05005V24.38H7.62005V21.33H6.10005V22.86H4.57005Z" fill="currentColor"/>
<path d="M6.09995 19.81H4.56995V21.33H6.09995V19.81Z" fill="currentColor"/>
<path d="M4.57005 3.04999H3.05005V4.56999H4.57005V3.04999Z" fill="currentColor"/>
<path d="M27.43 0H1.52002V1.52H27.43V0Z" fill="currentColor"/>
<path d="M28.95 12.19V1.52002H27.43V6.09002H1.52V1.52002H0V22.86H1.52V7.62002H27.43V12.19H28.95Z" fill="currentColor"/>
</g>
<defs>
<clipPath id="clip0_1128_5418">
<rect width="32" height="32" fill="white"/>
</clipPath>
</defs>
</svg>
