<svg width="32" height="32" viewBox="0 0 32 32" fill="none" xmlns="http://www.w3.org/2000/svg">
<g clip-path="url(#clip0_1128_8696)">
<path d="M27.425 16.76V18.29H28.945V24.38H30.475V12.19H28.945V16.76H27.425Z" fill="currentColor"/>
<path d="M28.945 24.38H27.425V25.91H28.945V24.38Z" fill="currentColor"/>
<path d="M28.945 10.67H27.425V12.19H28.945V10.67Z" fill="currentColor"/>
<path d="M3.045 30.48H4.565V32H15.235V30.48H16.755V28.95H18.285V27.43H27.425V25.91H18.285V19.81H27.425V18.29H16.755V22.86H15.235V24.38H4.565V22.86H3.045V18.29H1.525V28.95H3.045V30.48ZM10.665 28.95H13.715V25.91H15.235V28.95H13.715V30.48H10.665V28.95Z" fill="currentColor"/>
<path d="M21.335 15.24H18.285V16.76H25.905V15.24H27.425V13.71H25.905V12.19H18.285V13.71H21.335V15.24Z" fill="currentColor"/>
<path d="M18.285 13.71H16.755V15.24H18.285V13.71Z" fill="currentColor"/>
<path d="M16.755 7.61999H15.235V9.13999H4.565V10.67H15.235V12.19H16.755V10.67H27.425V9.13999H18.285V3.04999H16.755V7.61999Z" fill="currentColor"/>
<path d="M16.755 16.76H15.235V18.29H16.755V16.76Z" fill="currentColor"/>
<path d="M16.755 1.52002H15.235V3.05002H16.755V1.52002Z" fill="currentColor"/>
<path d="M15.235 19.81H13.715V21.33H15.235V19.81Z" fill="currentColor"/>
<path d="M15.235 4.57001H13.715V6.10001H15.235V4.57001Z" fill="currentColor"/>
<path d="M9.135 21.33H6.095V22.86H13.715V21.33H10.665V19.81H13.715V18.29H6.095V19.81H9.135V21.33Z" fill="currentColor"/>
<path d="M9.135 6.09999H6.095V7.61999H13.715V6.09999H10.665V4.56999H13.715V3.04999H6.095V4.56999H9.135V6.09999Z" fill="currentColor"/>
<path d="M15.235 16.76V12.19H13.715V15.24H4.565V16.76H15.235Z" fill="currentColor"/>
<path d="M15.235 0H4.565V1.52H15.235V0Z" fill="currentColor"/>
<path d="M6.095 19.81H4.565V21.33H6.095V19.81Z" fill="currentColor"/>
<path d="M6.095 4.57001H4.565V6.10001H6.095V4.57001Z" fill="currentColor"/>
<path d="M4.565 16.76H3.045V18.29H4.565V16.76Z" fill="currentColor"/>
<path d="M4.565 13.71H3.045V15.24H4.565V13.71Z" fill="currentColor"/>
<path d="M4.565 1.52002H3.045V3.05002H4.565V1.52002Z" fill="currentColor"/>
<path d="M3.045 9.13999H4.565V7.61999H3.045V3.04999H1.525V13.71H3.045V9.13999Z" fill="currentColor"/>
</g>
<defs>
<clipPath id="clip0_1128_8696">
<rect width="32" height="32" fill="white"/>
</clipPath>
</defs>
</svg>
