<svg width="32" height="32" viewBox="0 0 32 32" fill="none" xmlns="http://www.w3.org/2000/svg">
<g clip-path="url(#clip0_1128_19808)">
<path d="M32 16H30.48V22.1H32V16Z" fill="currentColor"/>
<path d="M30.4799 22.1H28.95V23.62H30.4799V22.1Z" fill="currentColor"/>
<path d="M30.4799 14.48H28.95V16H30.4799V14.48Z" fill="currentColor"/>
<path d="M28.9501 23.62H27.4301V25.14H28.9501V23.62Z" fill="currentColor"/>
<path d="M28.9501 12.95H27.4301V14.48H28.9501V12.95Z" fill="currentColor"/>
<path d="M16.76 25.14V6.85999H18.29V5.32999H15.24V26.67H27.43V25.14H16.76Z" fill="currentColor"/>
<path d="M27.43 11.43H24.38V12.95H27.43V11.43Z" fill="currentColor"/>
<path d="M24.38 12.95H22.86V14.48H24.38V12.95Z" fill="currentColor"/>
<path d="M24.38 9.89999H22.86V11.43H24.38V9.89999Z" fill="currentColor"/>
<path d="M22.86 14.48H21.34V16H22.86V14.48Z" fill="currentColor"/>
<path d="M22.86 8.37997H21.34V9.89997H22.86V8.37997Z" fill="currentColor"/>
<path d="M21.34 6.85999H18.29V8.37999H21.34V6.85999Z" fill="currentColor"/>
<path d="M13.7199 6.85999H12.1899V26.67H13.7199V6.85999Z" fill="currentColor"/>
<path d="M10.67 8.37997H9.15002V26.67H10.67V8.37997Z" fill="currentColor"/>
<path d="M7.61998 12.95H6.09998V26.67H7.61998V12.95Z" fill="currentColor"/>
<path d="M4.57005 12.95H3.05005V25.14H4.57005V12.95Z" fill="currentColor"/>
<path d="M1.53 16H0V23.62H1.53V16Z" fill="currentColor"/>
</g>
<defs>
<clipPath id="clip0_1128_19808">
<rect width="32" height="32" fill="white"/>
</clipPath>
</defs>
</svg>
