<svg width="32" height="32" viewBox="0 0 32 32" fill="none" xmlns="http://www.w3.org/2000/svg">
<path d="M30.475 15.245H28.955V16.765H30.475V15.245Z" fill="currentColor"/>
<path d="M28.955 16.765H27.425V18.285H28.955V16.765Z" fill="currentColor"/>
<path d="M28.955 13.715H27.425V15.245H28.955V13.715Z" fill="currentColor"/>
<path d="M27.425 18.285H25.905V19.815H27.425V18.285Z" fill="currentColor"/>
<path d="M27.425 12.195H25.905V13.715H27.425V12.195Z" fill="currentColor"/>
<path d="M24.385 24.385H19.805V25.905H25.905V19.815H24.385V24.385Z" fill="currentColor"/>
<path d="M15.235 16.765H13.715V15.245H12.185V13.715H10.665V15.245H9.14499V16.765H10.665V18.285H12.185V19.815H13.715V21.335H15.235V19.815H16.765V18.285H18.285V16.765H19.805V15.245H21.335V13.715H22.855V12.195H21.335V10.665H19.805V12.195H18.285V13.715H16.765V15.245H15.235V16.765Z" fill="currentColor"/>
<path d="M24.385 7.625V12.195H25.905V6.095H19.805V7.625H24.385Z" fill="currentColor"/>
<path d="M19.805 25.905H18.285V27.435H19.805V25.905Z" fill="currentColor"/>
<path d="M19.805 4.57498H18.285V6.09498H19.805V4.57498Z" fill="currentColor"/>
<path d="M18.285 27.435H16.765V28.955H18.285V27.435Z" fill="currentColor"/>
<path d="M18.285 3.05499H16.765V4.57499H18.285V3.05499Z" fill="currentColor"/>
<path d="M16.765 28.955H15.235V30.475H16.765V28.955Z" fill="currentColor"/>
<path d="M16.765 1.52499H15.235V3.05499H16.765V1.52499Z" fill="currentColor"/>
<path d="M15.235 27.435H13.715V28.955H15.235V27.435Z" fill="currentColor"/>
<path d="M15.235 3.05499H13.715V4.57499H15.235V3.05499Z" fill="currentColor"/>
<path d="M13.715 25.905H12.185V27.435H13.715V25.905Z" fill="currentColor"/>
<path d="M13.715 4.57498H12.185V6.09498H13.715V4.57498Z" fill="currentColor"/>
<path d="M7.615 24.385V19.815H6.095V25.905H12.185V24.385H7.615Z" fill="currentColor"/>
<path d="M7.615 7.625H12.185V6.095H6.095V12.195H7.615V7.625Z" fill="currentColor"/>
<path d="M6.09498 18.285H4.57498V19.815H6.09498V18.285Z" fill="currentColor"/>
<path d="M6.09498 12.195H4.57498V13.715H6.09498V12.195Z" fill="currentColor"/>
<path d="M4.57498 16.765H3.04498V18.285H4.57498V16.765Z" fill="currentColor"/>
<path d="M4.57498 13.715H3.04498V15.245H4.57498V13.715Z" fill="currentColor"/>
<path d="M3.04499 15.245H1.52499V16.765H3.04499V15.245Z" fill="currentColor"/>
</svg>
