<svg width="32" height="32" viewBox="0 0 32 32" fill="none" xmlns="http://www.w3.org/2000/svg">
<g clip-path="url(#clip0_1135_3357)">
<path d="M32 10.67H30.48V12.19H32V10.67Z" fill="currentColor"/>
<path d="M32 6.10001H30.48V7.62001H32V6.10001Z" fill="currentColor"/>
<path d="M30.48 7.62H28.95V9.14999H30.48V7.62Z" fill="currentColor"/>
<path d="M30.48 4.57001H28.95V6.10001H30.48V4.57001Z" fill="currentColor"/>
<path d="M27.43 16.76H4.56999V13.72H3.04999V18.29H4.56999V27.43H6.09999V25.91H9.14999V30.48H7.61999V27.43H6.09999V32H25.91V27.43H24.38V30.48H22.86V25.91H25.91V27.43H27.43V18.29H28.95V13.72H27.43V16.76ZM9.14999 24.38H6.09999V21.34H9.14999V24.38ZM9.14999 19.81H6.09999V18.29H9.14999V19.81ZM13.72 30.48H10.67V25.91H13.72V30.48ZM13.72 24.38H10.67V21.34H13.72V24.38ZM13.72 19.81H10.67V18.29H13.72V19.81ZM21.34 30.48H18.29V25.91H21.34V30.48ZM21.34 24.38H18.29V21.34H21.34V24.38ZM21.34 19.81H18.29V18.29H21.34V19.81ZM25.91 24.38H22.86V21.34H25.91V24.38ZM25.91 19.81H22.86V18.29H25.91V19.81Z" fill="currentColor"/>
<path d="M28.95 6.10001H27.43V7.62001H28.95V6.10001Z" fill="currentColor"/>
<path d="M25.91 7.62H24.38V10.67H25.91V7.62Z" fill="currentColor"/>
<path d="M27.43 0H24.38V1.53H22.86V4.57H24.38V3.05H25.91V1.53H27.43V0Z" fill="currentColor"/>
<path d="M24.38 6.10001H19.81V7.62001H24.38V6.10001Z" fill="currentColor"/>
<path d="M19.81 7.62H18.29V9.14999H19.81V7.62Z" fill="currentColor"/>
<path d="M19.81 3.04999H18.29V4.56999H19.81V3.04999Z" fill="currentColor"/>
<path d="M16.76 7.62H15.24V9.14999H16.76V7.62Z" fill="currentColor"/>
<path d="M13.72 7.62H12.19V9.14999H13.72V7.62Z" fill="currentColor"/>
<path d="M12.19 1.53H10.67V3.05H12.19V1.53Z" fill="currentColor"/>
<path d="M12.19 6.10001H7.62V7.62001H12.19V6.10001Z" fill="currentColor"/>
<path d="M24.38 12.19V10.67H22.86V12.19H21.34V10.67H22.86V9.14999H19.81V10.67H18.29V9.14999H16.76V12.19H15.24V9.14999H13.72V10.67H12.19V9.14999H9.15001V10.67H10.67V12.19H9.15001V10.67H7.62001V12.19H4.57001V13.72H27.43V12.19H24.38Z" fill="currentColor"/>
<path d="M7.61998 7.62H6.09998V10.67H7.61998V7.62Z" fill="currentColor"/>
<path d="M4.56999 7.62H3.04999V9.14999H4.56999V7.62Z" fill="currentColor"/>
<path d="M3.05003 0V1.53H1.53003V3.05H3.05003V4.57H4.57003V3.05H6.10003V1.53H4.57003V0H3.05003Z" fill="currentColor"/>
<path d="M3.05003 9.14999H1.53003V10.67H3.05003V9.14999Z" fill="currentColor"/>
<path d="M3.05003 6.10001H1.53003V7.62001H3.05003V6.10001Z" fill="currentColor"/>
<path d="M1.53 7.62H0V9.14999H1.53V7.62Z" fill="currentColor"/>
</g>
<defs>
<clipPath id="clip0_1135_3357">
<rect width="32" height="32" fill="white"/>
</clipPath>
</defs>
</svg>
