<svg width="32" height="32" viewBox="0 0 32 32" fill="none" xmlns="http://www.w3.org/2000/svg">
<g clip-path="url(#clip0_1128_5056)">
<path d="M32 16.005H30.48V23.625H32V16.005Z" fill="currentColor"/>
<path d="M30.48 23.625H28.95V26.665H30.48V23.625Z" fill="currentColor"/>
<path d="M30.48 12.955H28.95V16.005H30.48V12.955Z" fill="currentColor"/>
<path d="M28.95 26.665H27.43V29.715H28.95V26.665Z" fill="currentColor"/>
<path d="M28.95 11.425H27.43V12.955H28.95V11.425Z" fill="currentColor"/>
<path d="M27.43 29.715H25.9V31.235H27.43V29.715Z" fill="currentColor"/>
<path d="M27.43 20.575H25.9V23.625H27.43V20.575Z" fill="currentColor"/>
<path d="M27.43 16.005H25.9V19.045H27.43V16.005Z" fill="currentColor"/>
<path d="M27.43 9.90503H25.9V11.425H27.43V9.90503Z" fill="currentColor"/>
<path d="M25.9 23.625H24.38V25.145H25.9V23.625Z" fill="currentColor"/>
<path d="M25.9 11.425H24.38V16.005H25.9V11.425Z" fill="currentColor"/>
<path d="M25.9 5.33502H24.38V6.85502H25.9V5.33502Z" fill="currentColor"/>
<path d="M24.38 25.145H22.86V26.665H24.38V25.145Z" fill="currentColor"/>
<path d="M25.9 19.045H22.86V20.575H25.9V19.045Z" fill="currentColor"/>
<path d="M24.38 6.85504H22.86V8.38504H24.38V6.85504Z" fill="currentColor"/>
<path d="M24.38 3.815H22.86V5.335H24.38V3.815Z" fill="currentColor"/>
<path d="M22.86 20.575H21.33V22.095H22.86V20.575Z" fill="currentColor"/>
<path d="M22.86 8.38501H21.33V9.90501H22.86V8.38501Z" fill="currentColor"/>
<path d="M22.86 2.28503H21.33V3.81503H22.86V2.28503Z" fill="currentColor"/>
<path d="M21.33 29.715H19.81V31.235H21.33V29.715Z" fill="currentColor"/>
<path d="M21.33 22.095H19.81V23.625H21.33V22.095Z" fill="currentColor"/>
<path d="M21.33 9.90503H19.81V11.425H21.33V9.90503Z" fill="currentColor"/>
<path d="M21.33 0.765015H19.81V2.28501H21.33V0.765015Z" fill="currentColor"/>
<path d="M19.81 23.625H18.29V29.715H19.81V23.625Z" fill="currentColor"/>
<path d="M18.29 0.765015H16.76V3.81501H18.29V0.765015Z" fill="currentColor"/>
<path d="M16.76 3.815H15.24V8.385H16.76V3.815Z" fill="currentColor"/>
<path d="M15.24 8.38501H13.71V11.425H15.24V8.38501Z" fill="currentColor"/>
<path d="M13.71 23.625H12.19V29.715H13.71V23.625Z" fill="currentColor"/>
<path d="M12.19 29.715H10.67V31.235H12.19V29.715Z" fill="currentColor"/>
<path d="M12.19 22.095H10.67V23.625H12.19V22.095Z" fill="currentColor"/>
<path d="M12.19 9.90503H10.67V11.425H12.19V9.90503Z" fill="currentColor"/>
<path d="M12.19 0.765015H10.67V2.28501H12.19V0.765015Z" fill="currentColor"/>
<path d="M10.67 20.575H9.14001V22.095H10.67V20.575Z" fill="currentColor"/>
<path d="M10.67 8.38501H9.14001V9.90501H10.67V8.38501Z" fill="currentColor"/>
<path d="M10.67 2.28503H9.14001V3.81503H10.67V2.28503Z" fill="currentColor"/>
<path d="M9.14 25.145H7.62V26.665H9.14V25.145Z" fill="currentColor"/>
<path d="M9.13998 19.045H6.09998V20.575H9.13998V19.045Z" fill="currentColor"/>
<path d="M9.14 6.85504H7.62V8.38504H9.14V6.85504Z" fill="currentColor"/>
<path d="M9.14 3.815H7.62V5.335H9.14V3.815Z" fill="currentColor"/>
<path d="M7.61998 23.625H6.09998V25.145H7.61998V23.625Z" fill="currentColor"/>
<path d="M7.61998 11.425H6.09998V16.005H7.61998V11.425Z" fill="currentColor"/>
<path d="M7.61998 5.33502H6.09998V6.85502H7.61998V5.33502Z" fill="currentColor"/>
<path d="M6.10001 29.715H4.57001V31.235H6.10001V29.715Z" fill="currentColor"/>
<path d="M6.10001 20.575H4.57001V23.625H6.10001V20.575Z" fill="currentColor"/>
<path d="M6.10001 16.005H4.57001V19.045H6.10001V16.005Z" fill="currentColor"/>
<path d="M6.10001 9.90503H4.57001V11.425H6.10001V9.90503Z" fill="currentColor"/>
<path d="M4.56999 26.665H3.04999V29.715H4.56999V26.665Z" fill="currentColor"/>
<path d="M4.56999 11.425H3.04999V12.955H4.56999V11.425Z" fill="currentColor"/>
<path d="M3.05002 23.625H1.52002V26.665H3.05002V23.625Z" fill="currentColor"/>
<path d="M3.05002 12.955H1.52002V16.005H3.05002V12.955Z" fill="currentColor"/>
<path d="M1.52 16.005H0V23.625H1.52V16.005Z" fill="currentColor"/>
</g>
<defs>
<clipPath id="clip0_1128_5056">
<rect width="32" height="32" fill="white"/>
</clipPath>
</defs>
</svg>
