<svg width="32" height="32" viewBox="0 0 32 32" fill="none" xmlns="http://www.w3.org/2000/svg">
<g clip-path="url(#clip0_1128_4999)">
<path d="M1.52 31.24H30.47V29.71H32V25.14H30.47V28.19H1.52V25.14H0V29.71H1.52V31.24Z" fill="currentColor"/>
<path d="M30.4699 22.1H28.95V25.14H30.4699V22.1Z" fill="currentColor"/>
<path d="M27.43 19.05V20.57H24.38V22.1H28.95V19.05H27.43Z" fill="currentColor"/>
<path d="M28.9501 14.48H27.4301V16H28.9501V14.48Z" fill="currentColor"/>
<path d="M28.9501 9.9V11.43H27.4301V12.95H30.4701V8.38H27.4301V9.9H28.9501Z" fill="currentColor"/>
<path d="M28.9501 5.33002H27.4301V6.86002H28.9501V5.33002Z" fill="currentColor"/>
<path d="M27.43 16H25.9V17.52H27.43V16Z" fill="currentColor"/>
<path d="M27.43 12.95H25.9V14.48H27.43V12.95Z" fill="currentColor"/>
<path d="M27.43 6.85999H25.9V8.37999H27.43V6.85999Z" fill="currentColor"/>
<path d="M27.43 3.81H25.9V5.33H27.43V3.81Z" fill="currentColor"/>
<path d="M25.9 17.52H24.38V19.05H25.9V17.52Z" fill="currentColor"/>
<path d="M25.9 2.29004H24.38V3.81004H25.9V2.29004Z" fill="currentColor"/>
<path d="M24.38 16H22.85V17.52H24.38V16Z" fill="currentColor"/>
<path d="M24.38 3.81H22.85V5.33H24.38V3.81Z" fill="currentColor"/>
<path d="M21.33 19.05H19.81V17.52H18.28V20.57H22.85V17.52H21.33V19.05Z" fill="currentColor"/>
<path d="M22.85 6.85999H18.28V8.37999H16.76V12.95H18.28V14.48H22.85V12.95H24.38V8.37999H22.85V6.85999ZM22.85 11.43H21.33V12.95H19.81V11.43H18.28V9.89998H19.81V8.37999H21.33V9.89998H22.85V11.43Z" fill="currentColor"/>
<path d="M19.81 2.29001H21.33V3.81001H22.85V0.76001H18.28V3.81001H19.81V2.29001Z" fill="currentColor"/>
<path d="M18.28 16H16.76V17.52H18.28V16Z" fill="currentColor"/>
<path d="M18.28 3.81H16.76V5.33H18.28V3.81Z" fill="currentColor"/>
<path d="M18.28 25.14H13.71V26.67H18.28V25.14Z" fill="currentColor"/>
<path d="M16.76 17.52H15.24V19.05H16.76V17.52Z" fill="currentColor"/>
<path d="M16.76 2.29004H15.24V3.81004H16.76V2.29004Z" fill="currentColor"/>
<path d="M15.24 16H13.71V17.52H15.24V16Z" fill="currentColor"/>
<path d="M15.24 12.95H13.71V14.48H15.24V12.95Z" fill="currentColor"/>
<path d="M15.24 6.85999H13.71V8.37999H15.24V6.85999Z" fill="currentColor"/>
<path d="M15.24 3.81H13.71V5.33H15.24V3.81Z" fill="currentColor"/>
<path d="M13.7099 14.48H12.1899V16H13.7099V14.48Z" fill="currentColor"/>
<path d="M12.19 11.43V9.9H13.71V8.38H10.66V12.95H13.71V11.43H12.19Z" fill="currentColor"/>
<path d="M13.7099 5.33002H12.1899V6.86002H13.7099V5.33002Z" fill="currentColor"/>
<path d="M10.6599 3.81H4.56995V5.33H10.6599V3.81Z" fill="currentColor"/>
<path d="M10.66 22.1V20.57H4.57005V5.33002H3.05005V22.1H10.66Z" fill="currentColor"/>
<path d="M3.05002 22.1H1.52002V25.14H3.05002V22.1Z" fill="currentColor"/>
</g>
<defs>
<clipPath id="clip0_1128_4999">
<rect width="32" height="32" fill="white"/>
</clipPath>
</defs>
</svg>
