<svg width="32" height="32" viewBox="0 0 32 32" fill="none" xmlns="http://www.w3.org/2000/svg">
<g clip-path="url(#clip0_1128_13134)">
<path d="M32 16.005H30.48V23.625H32V16.005Z" fill="currentColor"/>
<path d="M30.4799 23.625H28.95V25.145H30.4799V23.625Z" fill="currentColor"/>
<path d="M30.4799 14.475H28.95V16.005H30.4799V14.475Z" fill="currentColor"/>
<path d="M28.9501 17.525H27.4301V22.095H28.9501V17.525Z" fill="currentColor"/>
<path d="M28.9501 25.145H19.8101V26.665H28.9501V25.145Z" fill="currentColor"/>
<path d="M27.43 16.005H21.34V17.525H27.43V16.005Z" fill="currentColor"/>
<path d="M24.38 6.85498H22.86V8.38498H24.38V6.85498Z" fill="currentColor"/>
<path d="M27.43 22.095H21.34V23.625H27.43V22.095Z" fill="currentColor"/>
<path d="M28.9501 12.955H19.8101V14.475H28.9501V12.955Z" fill="currentColor"/>
<path d="M22.86 8.38498H21.34V9.90498H22.86V8.38498Z" fill="currentColor"/>
<path d="M21.3401 9.905H19.8101V11.435H21.3401V9.905Z" fill="currentColor"/>
<path d="M19.81 23.625H18.29V25.145H19.81V23.625Z" fill="currentColor"/>
<path d="M21.34 22.095V20.575H16.76V23.625H18.29V22.095H21.34Z" fill="currentColor"/>
<path d="M18.29 16.005H16.76V19.045H21.34V17.525H18.29V16.005Z" fill="currentColor"/>
<path d="M19.81 14.475H18.29V16.005H19.81V14.475Z" fill="currentColor"/>
<path d="M16.76 5.33499H15.24V11.435H16.76V5.33499Z" fill="currentColor"/>
<path d="M10.67 17.525V19.045H15.24V16.005H13.72V17.525H10.67Z" fill="currentColor"/>
<path d="M13.7199 23.625H12.1899V25.145H13.7199V23.625Z" fill="currentColor"/>
<path d="M13.72 23.625H15.24V20.575H10.67V22.095H13.72V23.625Z" fill="currentColor"/>
<path d="M13.7199 14.475H12.1899V16.005H13.7199V14.475Z" fill="currentColor"/>
<path d="M12.19 9.905H10.67V11.435H12.19V9.905Z" fill="currentColor"/>
<path d="M12.19 25.145H3.05005V26.665H12.19V25.145Z" fill="currentColor"/>
<path d="M10.6699 16.005H4.56995V17.525H10.6699V16.005Z" fill="currentColor"/>
<path d="M10.67 8.38498H9.15002V9.90498H10.67V8.38498Z" fill="currentColor"/>
<path d="M9.14999 6.85498H7.62V8.38498H9.14999V6.85498Z" fill="currentColor"/>
<path d="M10.6699 22.095H4.56995V23.625H10.6699V22.095Z" fill="currentColor"/>
<path d="M12.19 12.955H3.05005V14.475H12.19V12.955Z" fill="currentColor"/>
<path d="M4.57005 17.525H3.05005V22.095H4.57005V17.525Z" fill="currentColor"/>
<path d="M3.05003 23.625H1.53003V25.145H3.05003V23.625Z" fill="currentColor"/>
<path d="M3.05003 14.475H1.53003V16.005H3.05003V14.475Z" fill="currentColor"/>
<path d="M1.53 16.005H0V23.625H1.53V16.005Z" fill="currentColor"/>
</g>
<defs>
<clipPath id="clip0_1128_13134">
<rect width="32" height="32" fill="white"/>
</clipPath>
</defs>
</svg>
