<svg width="32" height="32" viewBox="0 0 32 32" fill="none" xmlns="http://www.w3.org/2000/svg">
<g clip-path="url(#clip0_1128_4000)">
<path d="M32 6.85498H30.48V9.90498H32V6.85498Z" fill="currentColor"/>
<path d="M30.48 5.33496H28.96V6.85496H30.48V5.33496Z" fill="currentColor"/>
<path d="M30.48 9.90503H25.91V11.425H30.48V9.90503Z" fill="currentColor"/>
<path d="M10.67 9.90005H9.14999V11.4201H7.61999V12.9501H6.09999V14.4701H4.57999V16.0001H3.04999V19.0401H4.57999V31.2301H27.43V19.0451H28.96V16.0051H27.43V14.4751H25.91V12.9551H24.39V11.4251H22.86V9.90005H21.34V8.38505H19.81V6.85505H18.29V5.33505H16.77V3.80505H15.24V5.33505H13.72V6.85505H12.19V8.38505H10.67V9.90005ZM15.24 26.6601H13.72V23.6101H15.24V26.6601ZM12.19 11.4201H13.72V9.90005H15.24V8.38505H16.77V9.90005H18.29V11.4201H19.81V12.9501H21.34V14.4701H22.86V16.0001H24.39V17.5201H25.91V23.6101H22.86V25.1401H25.91V29.7101H19.81V20.5701H18.29V19.0401H13.72V20.5701H12.19V29.7101H6.09999V28.2001H9.14999V26.6701H6.09999V22.1001H9.14999V20.5801H6.09999V17.5301H7.61999V16.0101H9.14999V14.4801H10.67V12.9601H12.19V11.4201Z" fill="currentColor"/>
<path d="M28.96 3.80505H24.39V5.33505H28.96V3.80505Z" fill="currentColor"/>
<path d="M25.91 8.38501H24.39V9.90501H25.91V8.38501Z" fill="currentColor"/>
<path d="M24.39 20.5751H22.86V22.0951H24.39V20.5751Z" fill="currentColor"/>
<path d="M24.39 5.33496H22.86V8.38496H24.39V5.33496Z" fill="currentColor"/>
<path d="M24.39 26.665H21.34V28.195H24.39V26.665Z" fill="currentColor"/>
<path d="M22.86 16.005H19.81V17.525H22.86V16.005Z" fill="currentColor"/>
<path d="M18.29 11.425H15.24V12.955H18.29V11.425Z" fill="currentColor"/>
<path d="M16.77 14.475H13.72V16.005H16.77V14.475Z" fill="currentColor"/>
<path d="M12.19 16.005H9.14999V17.525H12.19V16.005Z" fill="currentColor"/>
<path d="M10.67 3.80505H9.14999V6.85505H10.67V3.80505Z" fill="currentColor"/>
<path d="M10.67 23.615H7.62V25.145H10.67V23.615Z" fill="currentColor"/>
<path d="M9.14999 2.28503H7.62V3.80503H9.14999V2.28503Z" fill="currentColor"/>
<path d="M7.61999 0.765015H3.04999V2.28501H7.61999V0.765015Z" fill="currentColor"/>
<path d="M9.15 6.85498H1.53V8.38498H9.15V6.85498Z" fill="currentColor"/>
<path d="M3.05 2.28503H1.53V3.80503H3.05V2.28503Z" fill="currentColor"/>
<path d="M1.53 3.80505H0V6.85505H1.53V3.80505Z" fill="currentColor"/>
</g>
<defs>
<clipPath id="clip0_1128_4000">
<rect width="32" height="32" fill="white"/>
</clipPath>
</defs>
</svg>
