<svg width="32" height="32" viewBox="0 0 32 32" fill="none" xmlns="http://www.w3.org/2000/svg">
<path d="M28.9501 12.1851H27.4301V19.8051H28.9501V12.1851Z" fill="currentColor"/>
<path d="M27.43 19.8051H25.9V22.8551H27.43V19.8051Z" fill="currentColor"/>
<path d="M27.43 9.14502H25.9V12.185H27.43V9.14502Z" fill="currentColor"/>
<path d="M25.9 22.8551H24.38V24.3751H25.9V22.8551Z" fill="currentColor"/>
<path d="M25.9 7.61499H24.38V9.14499H25.9V7.61499Z" fill="currentColor"/>
<path d="M24.3801 24.375H22.8501V25.905H24.3801V24.375Z" fill="currentColor"/>
<path d="M24.3801 16.765H22.8501V18.285H24.3801V16.765Z" fill="currentColor"/>
<path d="M24.3801 6.09509H22.8501V7.61509H24.3801V6.09509Z" fill="currentColor"/>
<path d="M22.8501 12.1851H19.8101V15.2351H22.8501V12.1851Z" fill="currentColor"/>
<path d="M22.8501 25.905H19.8101V27.425H22.8501V25.905Z" fill="currentColor"/>
<path d="M21.3301 9.14502H19.8101V10.665H21.3301V9.14502Z" fill="currentColor"/>
<path d="M22.8501 4.56506H19.8101V6.09506H22.8501V4.56506Z" fill="currentColor"/>
<path d="M19.8101 27.425H12.1901V28.955H19.8101V27.425Z" fill="currentColor"/>
<path d="M19.81 19.8051H16.76V22.8551H19.81V19.8051Z" fill="currentColor"/>
<path d="M15.2401 24.375H13.7101V25.905H15.2401V24.375Z" fill="currentColor"/>
<path d="M15.2401 15.235H13.7101V16.765H15.2401V15.235Z" fill="currentColor"/>
<path d="M19.8101 3.04504H12.1901V4.56504H19.8101V3.04504Z" fill="currentColor"/>
<path d="M15.2401 7.61499H12.1901V10.665H15.2401V7.61499Z" fill="currentColor"/>
<path d="M12.19 25.905H9.14001V27.425H12.19V25.905Z" fill="currentColor"/>
<path d="M12.19 21.3351H10.66V22.8551H12.19V21.3351Z" fill="currentColor"/>
<path d="M12.19 4.56506H9.14001V6.09506H12.19V4.56506Z" fill="currentColor"/>
<path d="M9.14 24.375H7.62V25.905H9.14V24.375Z" fill="currentColor"/>
<path d="M9.14 12.1851H7.62V13.7151H9.14V12.1851Z" fill="currentColor"/>
<path d="M9.14 6.09509H7.62V7.61509H9.14V6.09509Z" fill="currentColor"/>
<path d="M7.62009 22.8551H6.09009V24.3751H7.62009V22.8551Z" fill="currentColor"/>
<path d="M9.14009 15.235H6.09009V18.285H9.14009V15.235Z" fill="currentColor"/>
<path d="M7.62009 7.61499H6.09009V9.14499H7.62009V7.61499Z" fill="currentColor"/>
<path d="M6.09007 19.8051H4.57007V22.8551H6.09007V19.8051Z" fill="currentColor"/>
<path d="M6.09007 9.14502H4.57007V12.185H6.09007V9.14502Z" fill="currentColor"/>
<path d="M4.57005 12.1851H3.05005V19.8051H4.57005V12.1851Z" fill="currentColor"/>
</svg>
