<svg width="32" height="32" viewBox="0 0 32 32" fill="none" xmlns="http://www.w3.org/2000/svg">
<g clip-path="url(#clip0_1128_3908)">
<path d="M30.48 22.0901H28.96V20.5701H16.77V28.1901H19.81V31.2401H21.34V28.1901H24.39V31.2401H25.91V28.1901H28.96V26.6701H30.48V25.1401H32V23.6201H30.48V22.0901ZM18.29 23.6201V22.0901H19.81V23.6201H18.29ZM25.91 26.6701H19.81V25.1401H25.91V26.6701ZM27.43 23.6201H25.91V22.0901H27.43V23.6201Z" fill="currentColor"/>
<path d="M18.29 29.71H16.77V31.24H18.29V29.71Z" fill="currentColor"/>
<path d="M16.77 28.1901H15.24V29.7101H16.77V28.1901Z" fill="currentColor"/>
<path d="M15.24 26.67H13.72V28.19H15.24V26.67Z" fill="currentColor"/>
<path d="M15.24 22.09H12.19V23.62H15.24V22.09Z" fill="currentColor"/>
<path d="M15.24 16H13.72V20.57H15.24V16Z" fill="currentColor"/>
<path d="M13.72 25.14H12.19V26.67H13.72V25.14Z" fill="currentColor"/>
<path d="M12.19 23.62H9.15V25.14H12.19V23.62Z" fill="currentColor"/>
<path d="M13.72 14.48H9.15V16H13.72V14.48Z" fill="currentColor"/>
<path d="M9.15 12.95H13.72V8.38H9.15V12.95ZM10.67 9.9H12.19V11.43H10.67V9.9Z" fill="currentColor"/>
<path d="M10.67 20.57V19.05H9.15V16H7.62V22.09H4.58V23.62H9.15V20.57H10.67Z" fill="currentColor"/>
<path d="M3.05 20.57V19.05H6.1V14.48H3.05V11.43H4.58V9.90001H6.1V8.38001H7.62V6.86001H9.15V5.33001H13.72V6.86001H15.24V8.38001H16.77V9.90001H18.29V11.43H19.81V14.48H16.77V19.05H21.34V14.48H22.86V11.43H21.34V9.90001H19.81V8.38001H18.29V6.86001H16.77V5.33001H15.24V3.81001H13.72V2.28001H12.19V0.76001H10.67V2.28001H9.15V3.81001H7.62V5.33001H6.1V6.86001H4.58V8.38001H3.05V9.90001H1.53V11.43H0V14.48H1.53V20.57H0V22.09H4.58V20.57H3.05ZM19.81 17.52H18.29V16H19.81V17.52ZM3.05 16H4.58V17.52H3.05V16Z" fill="currentColor"/>
</g>
<defs>
<clipPath id="clip0_1128_3908">
<rect width="32" height="32" fill="white"/>
</clipPath>
</defs>
</svg>
