<svg width="32" height="32" viewBox="0 0 32 32" fill="none" xmlns="http://www.w3.org/2000/svg">
<g clip-path="url(#clip0_1135_2895)">
<path d="M31.24 3.81H29.72V29.72H31.24V3.81Z" fill="currentColor"/>
<path d="M29.72 29.72H3.81V31.24H29.72V29.72Z" fill="currentColor"/>
<path d="M28.19 2.29004H26.67V26.67H28.19V2.29004Z" fill="currentColor"/>
<path d="M23.62 14.48H20.57V16H23.62V20.57H25.15V5.34003H23.62V14.48Z" fill="currentColor"/>
<path d="M20.57 19.05H19.05V20.57H5.34003V22.1H23.62V20.57H20.57V19.05Z" fill="currentColor"/>
<path d="M20.57 16H19.05V17.53H20.57V16Z" fill="currentColor"/>
<path d="M19.05 17.53H17.53V19.05H19.05V17.53Z" fill="currentColor"/>
<path d="M17.53 12.95H20.57V11.43H22.1V8.37999H20.57V6.85999H17.53V8.37999H16V11.43H17.53V12.95Z" fill="currentColor"/>
<path d="M17.53 16H16V17.53H17.53V16Z" fill="currentColor"/>
<path d="M16 14.48H14.48V16H16V14.48Z" fill="currentColor"/>
<path d="M14.48 12.95H12.96V14.48H14.48V12.95Z" fill="currentColor"/>
<path d="M12.96 11.43H9.91003V12.95H12.96V11.43Z" fill="currentColor"/>
<path d="M9.91 12.95H8.38V14.48H9.91V12.95Z" fill="currentColor"/>
<path d="M8.37999 14.48H6.85999V16H8.37999V14.48Z" fill="currentColor"/>
<path d="M23.62 3.81H5.34003V5.34H23.62V3.81Z" fill="currentColor"/>
<path d="M5.34 17.53H6.86V16H5.34V5.34003H3.81V20.57H5.34V17.53Z" fill="currentColor"/>
<path d="M26.67 0.76001H2.29004V2.29001H26.67V0.76001Z" fill="currentColor"/>
<path d="M26.67 26.67H2.29004V28.19H26.67V26.67Z" fill="currentColor"/>
<path d="M2.29001 2.29004H0.76001V26.67H2.29001V2.29004Z" fill="currentColor"/>
</g>
<defs>
<clipPath id="clip0_1135_2895">
<rect width="32" height="32" fill="white"/>
</clipPath>
</defs>
</svg>
