<svg width="32" height="32" viewBox="0 0 32 32" fill="none" xmlns="http://www.w3.org/2000/svg">
<path d="M19.81 10.67V4.57999H18.29V30.48H19.81V12.2H28.95V3.04999H27.43V10.67H19.81Z" fill="currentColor"/>
<path d="M27.43 1.53003H25.91V3.05003H27.43V1.53003Z" fill="currentColor"/>
<path d="M21.3301 3.04999H19.8101V4.57999H21.3301V3.04999Z" fill="currentColor"/>
<path d="M18.29 30.48H16.76V32H18.29V30.48Z" fill="currentColor"/>
<path d="M16.76 28.96H15.24V30.48H16.76V28.96Z" fill="currentColor"/>
<path d="M15.2401 27.43H13.7201V28.96H15.2401V27.43Z" fill="currentColor"/>
<path d="M15.2401 9.15002H12.1901V10.67H10.6701V9.15002H7.6201V10.67H6.1001V13.72H7.6201V15.24H9.1401V16.77H10.6701V18.29H12.1901V16.77H13.7201V15.24H15.2401V13.72H16.7601V10.67H15.2401V9.15002Z" fill="currentColor"/>
<path d="M13.7201 25.91H12.1901V27.43H13.7201V25.91Z" fill="currentColor"/>
<path d="M12.19 24.39H10.67V25.91H12.19V24.39Z" fill="currentColor"/>
<path d="M10.67 25.91H9.14001V27.43H10.67V25.91Z" fill="currentColor"/>
<path d="M7.62 1.53H21.33V3.05H22.86V1.53H25.91V0H7.62V1.53Z" fill="currentColor"/>
<path d="M9.14 27.43H7.62V28.96H9.14V27.43Z" fill="currentColor"/>
<path d="M7.6201 28.96H6.1001V30.48H7.6201V28.96Z" fill="currentColor"/>
<path d="M7.6201 1.53003H6.1001V3.05003H7.6201V1.53003Z" fill="currentColor"/>
<path d="M6.10007 30.48H4.57007V32H6.10007V30.48Z" fill="currentColor"/>
<path d="M6.10007 3.04999H4.57007V4.57999H6.10007V3.04999Z" fill="currentColor"/>
<path d="M4.57005 4.58002H3.05005V30.48H4.57005V4.58002Z" fill="currentColor"/>
</svg>
