<svg width="32" height="32" viewBox="0 0 32 32" fill="none" xmlns="http://www.w3.org/2000/svg">
<path d="M27.4299 13.71H25.9099V28.95H27.4299V13.71Z" fill="currentColor"/>
<path d="M25.91 28.95H24.38V30.48H25.91V28.95Z" fill="currentColor"/>
<path d="M25.91 12.19H24.38V13.71H25.91V12.19Z" fill="currentColor"/>
<path d="M24.38 10.67H21.34V12.19H24.38V10.67Z" fill="currentColor"/>
<path d="M24.38 30.48H7.62V32H24.38V30.48Z" fill="currentColor"/>
<path d="M15.2399 0V1.52H13.7199V3.05H12.1899V4.57H10.6699V6.09H9.1499V7.62H13.7199V16.76H18.2899V7.62H22.8599V6.09H21.3399V4.57H19.8099V3.05H18.2899V1.52H16.7599V0H15.2399Z" fill="currentColor"/>
<path d="M10.67 10.67H7.62V12.19H10.67V10.67Z" fill="currentColor"/>
<path d="M7.61998 28.95H6.09998V30.48H7.61998V28.95Z" fill="currentColor"/>
<path d="M7.61998 12.19H6.09998V13.71H7.61998V12.19Z" fill="currentColor"/>
<path d="M6.09995 13.71H4.56995V28.95H6.09995V13.71Z" fill="currentColor"/>
</svg>
