<svg width="32" height="32" viewBox="0 0 32 32" fill="none" xmlns="http://www.w3.org/2000/svg">
<g clip-path="url(#clip0_1128_14806)">
<path d="M32 3.04999H30.48V4.56999H32V3.04999Z" fill="currentColor"/>
<path d="M30.4799 4.57001H28.95V6.09001H30.4799V4.57001Z" fill="currentColor"/>
<path d="M30.48 1.52002H24.38V3.05002H30.48V1.52002Z" fill="currentColor"/>
<path d="M28.9501 24.38H27.4301V27.43H28.9501V24.38Z" fill="currentColor"/>
<path d="M28.9501 6.09003H27.4301V7.62003H28.9501V6.09003Z" fill="currentColor"/>
<path d="M27.43 27.43H25.91V28.95H27.43V27.43Z" fill="currentColor"/>
<path d="M27.43 22.86H25.91V24.38H27.43V22.86Z" fill="currentColor"/>
<path d="M32 10.67H25.91V12.19H32V10.67Z" fill="currentColor"/>
<path d="M27.43 7.62H25.91V9.14H27.43V7.62Z" fill="currentColor"/>
<path d="M25.91 15.24H24.38V22.86H25.91V15.24Z" fill="currentColor"/>
<path d="M25.91 9.14001H24.38V10.67H25.91V9.14001Z" fill="currentColor"/>
<path d="M25.91 28.95H22.86V30.48H25.91V28.95Z" fill="currentColor"/>
<path d="M24.38 25.9H22.86V27.43H24.38V25.9Z" fill="currentColor"/>
<path d="M24.38 12.19H22.86V15.24H24.38V12.19Z" fill="currentColor"/>
<path d="M12.19 27.43H13.72V28.95H18.29V27.43H19.81V25.9H22.86V24.38H9.15002V25.9H12.19V27.43Z" fill="currentColor"/>
<path d="M22.86 10.67H21.34V12.19H22.86V10.67Z" fill="currentColor"/>
<path d="M22.86 30.48H9.15002V32H22.86V30.48Z" fill="currentColor"/>
<path d="M21.34 9.14001H18.29V10.67H21.34V9.14001Z" fill="currentColor"/>
<path d="M18.29 7.62H13.72V9.14H18.29V7.62Z" fill="currentColor"/>
<path d="M13.72 9.14001H10.67V10.67H13.72V9.14001Z" fill="currentColor"/>
<path d="M10.67 10.67H9.15002V12.19H10.67V10.67Z" fill="currentColor"/>
<path d="M10.67 1.52002H9.15002V3.05002H10.67V1.52002Z" fill="currentColor"/>
<path d="M9.14998 28.95H6.09998V30.48H9.14998V28.95Z" fill="currentColor"/>
<path d="M9.14999 25.9H7.62V27.43H9.14999V25.9Z" fill="currentColor"/>
<path d="M9.14999 12.19H7.62V15.24H9.14999V12.19Z" fill="currentColor"/>
<path d="M10.67 6.09003H7.62V7.62003H10.67V6.09003Z" fill="currentColor"/>
<path d="M9.14999 3.04999H7.62V4.56999H9.14999V3.04999Z" fill="currentColor"/>
<path d="M9.14998 0H6.09998V1.52H9.14998V0Z" fill="currentColor"/>
<path d="M7.61998 15.24H6.09998V22.86H7.61998V15.24Z" fill="currentColor"/>
<path d="M7.61998 4.57001H6.09998V6.09001H7.61998V4.57001Z" fill="currentColor"/>
<path d="M6.09995 27.43H4.56995V28.95H6.09995V27.43Z" fill="currentColor"/>
<path d="M6.09995 22.86H4.56995V24.38H6.09995V22.86Z" fill="currentColor"/>
<path d="M4.57005 24.38H3.05005V27.43H4.57005V24.38Z" fill="currentColor"/>
<path d="M4.57005 12.19H3.05005V13.71H4.57005V12.19Z" fill="currentColor"/>
<path d="M4.57003 16.76H1.53003V18.28H4.57003V16.76Z" fill="currentColor"/>
<path d="M3.05003 13.71H1.53003V15.24H3.05003V13.71Z" fill="currentColor"/>
<path d="M3.05 10.67H0V12.19H3.05V10.67Z" fill="currentColor"/>
<path d="M1.53 15.24H0V16.76H1.53V15.24Z" fill="currentColor"/>
</g>
<defs>
<clipPath id="clip0_1128_14806">
<rect width="32" height="32" fill="white"/>
</clipPath>
</defs>
</svg>
