<svg width="32" height="32" viewBox="0 0 32 32" fill="none" xmlns="http://www.w3.org/2000/svg">
<g clip-path="url(#clip0_1128_3841)">
<path d="M32 10.66H30.48V12.19H32V10.66Z" fill="currentColor"/>
<path d="M30.48 21.33H25.91V22.85H24.39V27.43H25.91V28.95H27.43V32H28.96V28.95H30.48V27.43H32V22.85H30.48V21.33Z" fill="currentColor"/>
<path d="M30.48 9.14001H28.96V10.66H30.48V9.14001Z" fill="currentColor"/>
<path d="M30.48 12.1899H24.39V13.7099H30.48V12.1899Z" fill="currentColor"/>
<path d="M28.96 7.62H25.91V9.14H28.96V7.62Z" fill="currentColor"/>
<path d="M25.91 9.14001H24.39V10.66H25.91V9.14001Z" fill="currentColor"/>
<path d="M24.39 10.66H22.86V12.19H24.39V10.66Z" fill="currentColor"/>
<path d="M21.34 10.66H19.81V7.62004H21.34V6.09004H18.29V3.04004H16.77V6.09004H15.24V3.04004H13.72V6.09004H10.67V7.62004H12.19V10.66H10.67V22.85H9.14999V32H22.86V22.85H21.34V10.66ZM16.77 7.62004H18.29V10.66H16.77V7.62004ZM13.72 7.62004H15.24V10.66H13.72V7.62004ZM12.19 12.19H19.81V22.85H12.19V12.19ZM15.24 28.95H13.72V27.43H15.24V28.95ZM18.29 28.95H16.77V27.43H18.29V28.95ZM21.34 30.47H19.81V25.9H12.19V30.47H10.67V24.38H21.34V30.47Z" fill="currentColor"/>
<path d="M18.29 19.8101H16.77V21.3301H18.29V19.8101Z" fill="currentColor"/>
<path d="M18.29 16.76H16.77V18.28H18.29V16.76Z" fill="currentColor"/>
<path d="M18.29 13.71H16.77V15.24H18.29V13.71Z" fill="currentColor"/>
<path d="M16.77 0H15.24V3.04H16.77V0Z" fill="currentColor"/>
<path d="M15.24 19.8101H13.72V21.3301H15.24V19.8101Z" fill="currentColor"/>
<path d="M15.24 16.76H13.72V18.28H15.24V16.76Z" fill="currentColor"/>
<path d="M15.24 13.71H13.72V15.24H15.24V13.71Z" fill="currentColor"/>
<path d="M9.14999 4.56995H7.62V6.08995H9.14999V4.56995Z" fill="currentColor"/>
<path d="M7.62001 3.04004H6.10001V4.57004H7.62001V3.04004Z" fill="currentColor"/>
<path d="M6.1 21.33H1.53V22.85H0V27.43H1.53V28.95H3.05V32H4.58V28.95H6.1V27.43H7.62V22.85H6.1V21.33Z" fill="currentColor"/>
<path d="M7.62 6.08997H1.53V7.61997H7.62V6.08997Z" fill="currentColor"/>
<path d="M6.09999 1.52002H3.04999V3.04002H6.09999V1.52002Z" fill="currentColor"/>
<path d="M3.05 3.04004H1.53V4.57004H3.05V3.04004Z" fill="currentColor"/>
<path d="M1.53 4.56995H0V6.08995H1.53V4.56995Z" fill="currentColor"/>
</g>
<defs>
<clipPath id="clip0_1128_3841">
<rect width="32" height="32" fill="white"/>
</clipPath>
</defs>
</svg>
