<svg width="32" height="32" viewBox="0 0 32 32" fill="none" xmlns="http://www.w3.org/2000/svg">
<g clip-path="url(#clip0_1128_8507)">
<path d="M32 9.90503H30.47V22.095H32V9.90503Z" fill="currentColor"/>
<path d="M30.47 22.0951H22.85V23.6151H30.47V22.0951Z" fill="currentColor"/>
<path d="M28.95 11.425H27.42V12.955H28.95V11.425Z" fill="currentColor"/>
<path d="M25.9 11.425H24.38V12.955H25.9V11.425Z" fill="currentColor"/>
<path d="M22.85 23.615H21.33V25.145H22.85V23.615Z" fill="currentColor"/>
<path d="M22.85 11.425H21.33V12.955H22.85V11.425Z" fill="currentColor"/>
<path d="M1.52 29.715H15.23V28.2H16.76V26.67H21.33V25.15H16.76V9.90003H30.47V8.38503H16.76V6.85503H15.23V5.33503H12.19V2.28503H4.57V5.33503H1.52V6.85503H0V28.2H1.52V29.715ZM6.09 3.81503H10.66V5.33503H6.09V3.81503ZM1.52 23.615H4.57V22.1H1.52V12.96H4.57V11.43H1.52V9.90003H15.23V25.14H1.52V23.615Z" fill="currentColor"/>
<path d="M19.8 22.0951H18.28V23.6151H19.8V22.0951Z" fill="currentColor"/>
<path d="M19.8 11.425H18.28V12.955H19.8V11.425Z" fill="currentColor"/>
<path d="M13.7099 16.005H12.1899V23.615H13.7099V16.005Z" fill="currentColor"/>
<path d="M13.7099 11.425H12.1899V12.955H13.7099V11.425Z" fill="currentColor"/>
<path d="M10.66 20.5751H9.14001V23.6151H10.66V20.5751Z" fill="currentColor"/>
<path d="M6.08995 12.9551H4.56995V22.0951H6.08995V12.9551Z" fill="currentColor"/>
</g>
<defs>
<clipPath id="clip0_1128_8507">
<rect width="32" height="32" fill="white"/>
</clipPath>
</defs>
</svg>
