<svg width="32" height="32" viewBox="0 0 32 32" fill="none" xmlns="http://www.w3.org/2000/svg">
<path d="M28.955 18.29H27.425V25.91H28.955V18.29Z" fill="currentColor"/>
<path d="M27.425 25.91H25.905V28.95H27.425V25.91Z" fill="currentColor"/>
<path d="M27.425 15.24H25.905V18.29H27.425V15.24Z" fill="currentColor"/>
<path d="M25.905 13.72H24.385V15.24H25.905V13.72Z" fill="currentColor"/>
<path d="M25.905 28.95H22.855V30.48H25.905V28.95Z" fill="currentColor"/>
<path d="M24.385 12.19H22.855V13.72H24.385V12.19Z" fill="currentColor"/>
<path d="M22.855 4.57H24.385V0H21.335V1.52H22.855V4.57Z" fill="currentColor"/>
<path d="M22.855 10.67H21.335V12.19H22.855V10.67Z" fill="currentColor"/>
<path d="M22.855 4.57001H21.335V6.10001H22.855V4.57001Z" fill="currentColor"/>
<path d="M22.855 30.48H9.145V32H22.855V30.48Z" fill="currentColor"/>
<path d="M12.185 13.72V15.24H10.665V16.76H9.145V24.38H10.665V25.91H12.185V27.43H19.805V25.91H21.335V24.38H22.855V16.76H21.335V15.24H19.805V13.72H12.185ZM19.805 22.86H18.285V24.38H16.765V25.91H15.235V24.38H13.715V22.86H18.285V21.33H13.715V19.81H12.185V18.29H13.715V16.76H15.235V15.24H16.765V16.76H18.285V18.29H13.715V19.81H18.285V21.33H19.805V22.86Z" fill="currentColor"/>
<path d="M21.335 9.14001H19.805V10.67H21.335V9.14001Z" fill="currentColor"/>
<path d="M21.335 6.10001H19.805V7.62001H21.335V6.10001Z" fill="currentColor"/>
<path d="M21.335 1.51999H19.805V3.04999H21.335V1.51999Z" fill="currentColor"/>
<path d="M19.805 3.04999H18.285V4.56999H19.805V3.04999Z" fill="currentColor"/>
<path d="M18.285 1.51999H16.765V3.04999H18.285V1.51999Z" fill="currentColor"/>
<path d="M16.765 0H15.235V1.52H16.765V0Z" fill="currentColor"/>
<path d="M19.805 7.62H12.185V9.14H19.805V7.62Z" fill="currentColor"/>
<path d="M15.235 1.51999H13.715V3.04999H15.235V1.51999Z" fill="currentColor"/>
<path d="M13.715 3.04999H12.185V4.56999H13.715V3.04999Z" fill="currentColor"/>
<path d="M12.185 9.14001H10.665V10.67H12.185V9.14001Z" fill="currentColor"/>
<path d="M12.185 6.10001H10.665V7.62001H12.185V6.10001Z" fill="currentColor"/>
<path d="M12.185 1.51999H10.665V3.04999H12.185V1.51999Z" fill="currentColor"/>
<path d="M10.665 10.67H9.145V12.19H10.665V10.67Z" fill="currentColor"/>
<path d="M10.665 4.57001H9.145V6.10001H10.665V4.57001Z" fill="currentColor"/>
<path d="M9.145 28.95H6.095V30.48H9.145V28.95Z" fill="currentColor"/>
<path d="M9.145 12.19H7.615V13.72H9.145V12.19Z" fill="currentColor"/>
<path d="M10.665 1.52V0H7.615V4.57H9.145V1.52H10.665Z" fill="currentColor"/>
<path d="M7.615 13.72H6.095V15.24H7.615V13.72Z" fill="currentColor"/>
<path d="M6.095 25.91H4.575V28.95H6.095V25.91Z" fill="currentColor"/>
<path d="M6.095 15.24H4.575V18.29H6.095V15.24Z" fill="currentColor"/>
<path d="M4.575 18.29H3.045V25.91H4.575V18.29Z" fill="currentColor"/>
</svg>
