<svg width="32" height="32" viewBox="0 0 32 32" fill="none" xmlns="http://www.w3.org/2000/svg">
<g clip-path="url(#clip0_1128_12618)">
<path d="M31.24 3.81001H29.71V28.19H31.24V3.81001Z" fill="currentColor"/>
<path d="M29.7101 28.19H28.1901V29.71H29.7101V28.19Z" fill="currentColor"/>
<path d="M29.7101 2.28H28.1901V3.81H29.7101V2.28Z" fill="currentColor"/>
<path d="M28.1901 29.71H3.81006V31.24H28.1901V29.71Z" fill="currentColor"/>
<path d="M23.62 19.04H26.67V17.52H28.19V14.47H26.67V12.95H23.62V14.47H22.1V17.52H23.62V19.04Z" fill="currentColor"/>
<path d="M14.48 19.04H17.52V17.52H19.05V14.47H17.52V12.95H14.48V14.47H12.95V17.52H14.48V19.04Z" fill="currentColor"/>
<path d="M5.33006 12.95V14.47H3.81006V17.52H5.33006V19.04H8.38006V17.52H9.91006V14.47H8.38006V12.95H5.33006Z" fill="currentColor"/>
<path d="M28.1901 0.760002H3.81006V2.28H28.1901V0.760002Z" fill="currentColor"/>
<path d="M3.81004 28.19H2.29004V29.71H3.81004V28.19Z" fill="currentColor"/>
<path d="M3.81004 2.28H2.29004V3.81H3.81004V2.28Z" fill="currentColor"/>
<path d="M2.29001 3.81001H0.76001V28.19H2.29001V3.81001Z" fill="currentColor"/>
</g>
<defs>
<clipPath id="clip0_1128_12618">
<rect width="32" height="32" fill="white"/>
</clipPath>
</defs>
</svg>
