<svg width="32" height="32" viewBox="0 0 32 32" fill="none" xmlns="http://www.w3.org/2000/svg">
<path d="M30.475 13.71H28.945V24.38H30.475V13.71Z" fill="currentColor"/>
<path d="M28.945 24.38H27.425V25.9H28.945V24.38Z" fill="currentColor"/>
<path d="M28.945 9.14001H27.425V13.71H28.945V9.14001Z" fill="currentColor"/>
<path d="M27.425 25.9H25.905V27.43H27.425V25.9Z" fill="currentColor"/>
<path d="M27.425 6.08997H25.905V9.13997H27.425V6.08997Z" fill="currentColor"/>
<path d="M25.905 4.57007H24.375V6.09007H25.905V4.57007Z" fill="currentColor"/>
<path d="M25.905 27.4301H22.855V28.9501H25.905V27.4301Z" fill="currentColor"/>
<path d="M24.375 9.14001H22.855V10.67H24.375V9.14001Z" fill="currentColor"/>
<path d="M9.14499 22.8601H10.665V24.3801H21.335V22.8601H22.855V19.8101H24.375V13.7101H22.855V12.1901H9.14499V13.7101H7.61499V19.8101H9.14499V22.8601ZM19.805 13.7101H21.335V16.7601H19.805V13.7101ZM16.755 18.2801H18.285V19.8101H16.755V18.2801ZM13.715 18.2801H15.235V19.8101H13.715V18.2801ZM10.665 13.7101H12.185V16.7601H10.665V13.7101Z" fill="currentColor"/>
<path d="M22.855 7.62H18.285V9.14H22.855V7.62Z" fill="currentColor"/>
<path d="M22.855 28.9501H9.14499V30.4801H22.855V28.9501Z" fill="currentColor"/>
<path d="M24.375 3.05005H19.805V4.57005H24.375V3.05005Z" fill="currentColor"/>
<path d="M18.285 9.14001H13.715V10.67H18.285V9.14001Z" fill="currentColor"/>
<path d="M19.805 1.52002H12.185V3.05002H19.805V1.52002Z" fill="currentColor"/>
<path d="M13.715 7.62H9.14499V9.14H13.715V7.62Z" fill="currentColor"/>
<path d="M12.185 3.05005H7.61499V4.57005H12.185V3.05005Z" fill="currentColor"/>
<path d="M9.145 27.4301H6.095V28.9501H9.145V27.4301Z" fill="currentColor"/>
<path d="M9.14499 9.14001H7.61499V10.67H9.14499V9.14001Z" fill="currentColor"/>
<path d="M7.615 4.57007H6.095V6.09007H7.615V4.57007Z" fill="currentColor"/>
<path d="M6.09499 25.9H4.56499V27.43H6.09499V25.9Z" fill="currentColor"/>
<path d="M6.09499 6.08997H4.56499V9.13997H6.09499V6.08997Z" fill="currentColor"/>
<path d="M4.565 24.38H3.045V25.9H4.565V24.38Z" fill="currentColor"/>
<path d="M4.565 9.14001H3.045V13.71H4.565V9.14001Z" fill="currentColor"/>
<path d="M3.04499 13.71H1.52499V24.38H3.04499V13.71Z" fill="currentColor"/>
</svg>
