<svg width="32" height="32" viewBox="0 0 32 32" fill="none" xmlns="http://www.w3.org/2000/svg">
<g clip-path="url(#clip0_1128_11622)">
<path d="M32 11.43H25.9V12.95H32V11.43Z" fill="currentColor"/>
<path d="M32 14.48H28.95V16H32V14.48Z" fill="currentColor"/>
<path d="M9.14 22.1H16.76V23.62H24.38V20.57H28.95V17.53H27.43V19.05H1.52V17.53H0V20.57H9.14V22.1Z" fill="currentColor"/>
<path d="M27.43 16H24.38V17.53H27.43V16Z" fill="currentColor"/>
<path d="M25.9 8.38H22.85V9.91H25.9V8.38Z" fill="currentColor"/>
<path d="M24.38 14.48H21.33V16H24.38V14.48Z" fill="currentColor"/>
<path d="M18.28 12.95H16.76V14.48H21.33V12.95H19.81V11.43H18.28V12.95Z" fill="currentColor"/>
<path d="M19.81 11.43H21.33V8.38H16.76V9.91H19.81V11.43Z" fill="currentColor"/>
<path d="M16.76 9.91H13.71V11.43H16.76V9.91Z" fill="currentColor"/>
<path d="M16.7599 14.48H12.1899V16H16.7599V14.48Z" fill="currentColor"/>
<path d="M13.71 11.43H10.66V12.95H13.71V11.43Z" fill="currentColor"/>
<path d="M10.66 12.95H7.62V14.48H10.66V12.95Z" fill="currentColor"/>
<path d="M7.61995 14.48H4.56995V16H7.61995V14.48Z" fill="currentColor"/>
<path d="M4.57002 16H1.52002V17.53H4.57002V16Z" fill="currentColor"/>
</g>
<defs>
<clipPath id="clip0_1128_11622">
<rect width="32" height="32" fill="white"/>
</clipPath>
</defs>
</svg>
