<svg width="32" height="32" viewBox="0 0 32 32" fill="none" xmlns="http://www.w3.org/2000/svg">
<path d="M29.715 12.19H28.185V16.76H20.565V21.33H28.185V22.85H16V1.52H17.53V0H14.48V7.62H12.95V9.14H14.48V12.19H12.95V10.66H11.43V12.19H9.9V10.66H8.375V12.19H6.855V10.66H5.335V12.19H3.805V9.14H2.285V32H29.715V12.19ZM25.145 19.81H22.1V18.28H25.15L25.145 19.81ZM11.425 30.47H3.805V27.43H11.425V30.47ZM14.475 30.47H12.945V25.9H3.805V18.28H14.475V30.47ZM14.475 16.76H12.945V15.24H11.425V16.76H9.9V15.24H8.375V16.76H6.855V15.24H5.335V16.76H3.805V13.71H14.475V16.76ZM19.045 30.47H16V27.43H19.05L19.045 30.47ZM19.045 25.9H16V24.38H19.05L19.045 25.9ZM23.615 30.47H20.565V24.38H23.615V30.47ZM28.185 30.47H25.145V27.43H28.185V30.47ZM28.185 25.9H25.145V24.38H28.185V25.9Z" fill="currentColor"/>
<path d="M26.665 13.71H23.615V15.24H26.665V13.71Z" fill="currentColor"/>
<path d="M19.045 7.61997V12.19H28.185V9.13997H26.665V6.08997H25.145V7.61997H19.045ZM23.615 10.66H20.565V9.13997H23.615V10.66Z" fill="currentColor"/>
<path d="M25.145 4.56995H23.615V6.08995H25.145V4.56995Z" fill="currentColor"/>
<path d="M23.615 3.04004H20.565V4.57004H23.615V3.04004Z" fill="currentColor"/>
<path d="M20.565 13.71H17.525V15.24H20.565V13.71Z" fill="currentColor"/>
<path d="M19.045 19.8101H17.525V21.3301H19.045V19.8101Z" fill="currentColor"/>
<path d="M19.045 4.56995H17.525V6.08995H19.045V4.56995Z" fill="currentColor"/>
<path d="M20.565 1.52002H17.525V3.04002H20.565V1.52002Z" fill="currentColor"/>
<path d="M12.945 22.85H11.425V24.38H12.945V22.85Z" fill="currentColor"/>
<path d="M12.945 19.8101H11.425V21.3301H12.945V19.8101Z" fill="currentColor"/>
<path d="M9.905 22.85H8.375V24.38H9.905V22.85Z" fill="currentColor"/>
<path d="M9.905 19.8101H8.375V21.3301H9.905V19.8101Z" fill="currentColor"/>
<path d="M12.945 7.62004V6.09004H9.90499V3.04004H8.37499V6.09004H5.33499V7.62004H12.945Z" fill="currentColor"/>
<path d="M6.85499 22.85H5.33499V24.38H6.85499V22.85Z" fill="currentColor"/>
<path d="M6.85499 19.8101H5.33499V21.3301H6.85499V19.8101Z" fill="currentColor"/>
<path d="M5.33499 7.62H3.80499V9.14H5.33499V7.62Z" fill="currentColor"/>
</svg>
