<svg width="32" height="32" viewBox="0 0 32 32" fill="none" xmlns="http://www.w3.org/2000/svg">
<g clip-path="url(#clip0_1128_12840)">
<path d="M30.47 16.76H27.42V13.71H30.47V12.19H25.9V13.71H24.38V18.29H25.9V19.81H30.47V18.29H32V13.71H30.47V16.76Z" fill="currentColor"/>
<path d="M28.95 22.86H27.42V27.43H28.95V22.86Z" fill="currentColor"/>
<path d="M22.8501 21.33V22.86H21.3301V27.43H22.8501V28.95H27.4201V27.43H24.3801V22.86H27.4201V21.33H22.8501Z" fill="currentColor"/>
<path d="M27.4201 10.67V9.14H28.9501V4.57H27.4201V7.62H25.9001V6.09H24.3801V4.57H27.4201V3.05H22.8501V4.57H21.3301V9.14H22.8501V10.67H27.4201Z" fill="currentColor"/>
<path d="M19.8 25.9H18.28V30.48H19.8V25.9Z" fill="currentColor"/>
<path d="M19.7999 1.52H18.2799V0H13.7099V1.52H12.1899V6.09H13.7099V7.62H18.2799V6.09H19.7999V1.52Z" fill="currentColor"/>
<path d="M18.28 30.48H13.71V32H18.28V30.48Z" fill="currentColor"/>
<path d="M18.28 24.38H13.71V25.9H18.28V24.38Z" fill="currentColor"/>
<path d="M13.7099 25.9H12.1899V30.48H13.7099V25.9Z" fill="currentColor"/>
<path d="M9.14007 28.95V27.43H10.6601V22.86H9.14007V21.33H4.57007V22.86H7.61007V27.43H4.57007V28.95H9.14007Z" fill="currentColor"/>
<path d="M10.66 4.57H9.14004V3.05H4.57004V4.57H7.61004V6.09H6.09004V7.62H4.57004V4.57H3.04004V9.14H4.57004V10.67H9.14004V9.14H10.66V4.57Z" fill="currentColor"/>
<path d="M4.57004 22.86H3.04004V27.43H4.57004V22.86Z" fill="currentColor"/>
<path d="M1.52 19.81H6.09V18.29H7.61V13.71H6.09V12.19H1.52V13.71H4.57V16.76H1.52V13.71H0V18.29H1.52V19.81Z" fill="currentColor"/>
</g>
<defs>
<clipPath id="clip0_1128_12840">
<rect width="32" height="32" fill="white"/>
</clipPath>
</defs>
</svg>
