<svg width="32" height="32" viewBox="0 0 32 32" fill="none" xmlns="http://www.w3.org/2000/svg">
<g clip-path="url(#clip0_1135_2325)">
<path d="M32 15.24H30.48V22.86H32V15.24Z" fill="currentColor"/>
<path d="M30.48 22.86H28.95V25.9H30.48V22.86Z" fill="currentColor"/>
<path d="M30.48 13.71H28.95V15.24H30.48V13.71Z" fill="currentColor"/>
<path d="M30.48 4.57007H28.95V12.1901H30.48V4.57007Z" fill="currentColor"/>
<path d="M28.95 25.9H27.43V27.43H28.95V25.9Z" fill="currentColor"/>
<path d="M28.95 12.1901H27.43V13.7101H28.95V12.1901Z" fill="currentColor"/>
<path d="M28.95 3.05005H27.43V4.57005H28.95V3.05005Z" fill="currentColor"/>
<path d="M27.43 6.09007H25.91V4.57007H21.34V6.09007H19.81V10.6701H21.34V12.1901H25.91V10.6701H27.43V6.09007ZM24.38 7.62007H22.86V6.09007H24.38V7.62007Z" fill="currentColor"/>
<path d="M27.43 27.4301H24.38V28.9501H27.43V27.4301Z" fill="currentColor"/>
<path d="M24.38 28.9501H7.62V30.4801H24.38V28.9501Z" fill="currentColor"/>
<path d="M27.43 1.52002H19.81V3.05002H27.43V1.52002Z" fill="currentColor"/>
<path d="M19.81 15.24H18.29V16.76H19.81V15.24Z" fill="currentColor"/>
<path d="M19.81 3.05005H18.29V4.57005H19.81V3.05005Z" fill="currentColor"/>
<path d="M18.29 12.1901H16.76V13.7101H18.29V12.1901Z" fill="currentColor"/>
<path d="M18.29 4.57007H16.76V7.62007H18.29V4.57007Z" fill="currentColor"/>
<path d="M18.29 16.76H15.24V18.28H18.29V16.76Z" fill="currentColor"/>
<path d="M16.76 7.62H15.24V9.14H16.76V7.62Z" fill="currentColor"/>
<path d="M15.24 12.1901H13.72V13.7101H15.24V12.1901Z" fill="currentColor"/>
<path d="M15.24 4.57007H13.72V7.62007H15.24V4.57007Z" fill="currentColor"/>
<path d="M13.72 3.05005H12.19V4.57005H13.72V3.05005Z" fill="currentColor"/>
<path d="M10.67 4.57007H6.10001V6.09007H4.57001V10.6701H6.10001V12.1901H10.67V10.6701H12.19V6.09007H10.67V4.57007ZM9.15001 7.62007H7.62001V6.09007H9.15001V7.62007Z" fill="currentColor"/>
<path d="M7.62001 27.4301H4.57001V28.9501H7.62001V27.4301Z" fill="currentColor"/>
<path d="M12.19 1.52002H4.57001V3.05002H12.19V1.52002Z" fill="currentColor"/>
<path d="M4.56999 25.9H3.04999V27.43H4.56999V25.9Z" fill="currentColor"/>
<path d="M4.56999 12.1901H3.04999V13.7101H4.56999V12.1901Z" fill="currentColor"/>
<path d="M4.56999 3.05005H3.04999V4.57005H4.56999V3.05005Z" fill="currentColor"/>
<path d="M3.05 22.86H1.53V25.9H3.05V22.86Z" fill="currentColor"/>
<path d="M3.05 13.71H1.53V15.24H3.05V13.71Z" fill="currentColor"/>
<path d="M3.05 4.57007H1.53V12.1901H3.05V4.57007Z" fill="currentColor"/>
<path d="M1.53 15.24H0V22.86H1.53V15.24Z" fill="currentColor"/>
</g>
<defs>
<clipPath id="clip0_1135_2325">
<rect width="32" height="32" fill="white"/>
</clipPath>
</defs>
</svg>
