<svg width="32" height="32" viewBox="0 0 32 32" fill="none" xmlns="http://www.w3.org/2000/svg">
<g clip-path="url(#clip0_1128_5250)">
<path d="M30.48 0H21.33V1.53H19.81V10.67H1.52V12.19H19.81V16.77H21.33V22.86H1.52V12.19H0V25.91H1.52V24.39H21.33V25.91H22.86V18.29H30.48V16.77H32V1.53H30.48V0ZM24.38 1.53H27.43V3.05H24.38V1.53ZM30.48 15.24H21.33V3.05H22.86V4.58H28.95V3.05H30.48V15.24Z" fill="currentColor"/>
<path d="M28.9501 9.15002H27.4301V10.67H28.9501V9.15002Z" fill="currentColor"/>
<path d="M28.9501 6.09998H27.4301V7.61998H28.9501V6.09998Z" fill="currentColor"/>
<path d="M27.43 10.67H24.38V12.19H27.43V10.67Z" fill="currentColor"/>
<path d="M24.38 9.15002H22.86V10.67H24.38V9.15002Z" fill="currentColor"/>
<path d="M24.38 6.09998H22.86V7.61998H24.38V6.09998Z" fill="currentColor"/>
<path d="M1.52002 25.91V27.43H7.62002V28.96H9.14002V27.43H13.71V28.96H15.24V27.43H21.33V25.91H1.52002Z" fill="currentColor"/>
<path d="M19.81 16.77H18.29V18.29H19.81V16.77Z" fill="currentColor"/>
<path d="M18.29 18.29H16.76V19.81H18.29V18.29Z" fill="currentColor"/>
<path d="M18.29 15.24H16.76V16.77H18.29V15.24Z" fill="currentColor"/>
<path d="M16.76 19.81H15.24V21.34H16.76V19.81Z" fill="currentColor"/>
<path d="M16.76 13.72H15.24V15.24H16.76V13.72Z" fill="currentColor"/>
<path d="M7.61998 30.48V28.96H6.09998V32H16.76V28.96H15.24V30.48H7.61998Z" fill="currentColor"/>
<path d="M13.7099 13.72H12.1899V16.77H13.7099V13.72Z" fill="currentColor"/>
<path d="M12.19 16.77H10.67V18.29H12.19V16.77Z" fill="currentColor"/>
<path d="M10.67 18.29H9.14001V21.34H10.67V18.29Z" fill="currentColor"/>
<path d="M7.61998 19.81H6.09998V21.34H7.61998V19.81Z" fill="currentColor"/>
<path d="M7.61998 13.72H6.09998V15.24H7.61998V13.72Z" fill="currentColor"/>
<path d="M6.09995 18.29H4.56995V19.81H6.09995V18.29Z" fill="currentColor"/>
<path d="M6.09995 15.24H4.56995V16.77H6.09995V15.24Z" fill="currentColor"/>
<path d="M4.57005 16.77H3.05005V18.29H4.57005V16.77Z" fill="currentColor"/>
</g>
<defs>
<clipPath id="clip0_1128_5250">
<rect width="32" height="32" fill="white"/>
</clipPath>
</defs>
</svg>
