<svg width="32" height="32" viewBox="0 0 32 32" fill="none" xmlns="http://www.w3.org/2000/svg">
<g clip-path="url(#clip0_1128_10814)">
<path d="M19.81 28.185H7.62V29.715H19.81V28.185Z" fill="currentColor"/>
<path d="M7.61998 26.665H6.09998V28.185H7.61998V26.665Z" fill="currentColor"/>
<path d="M6.1 20.565H10.67V19.045H9.15V17.525H7.62V15.995H6.1V14.475H4.58V15.995H3.05V17.525H1.53V19.045H0V20.565H4.58V26.665H6.1V20.565Z" fill="currentColor"/>
<path d="M27.43 11.425V5.33499H25.91V11.425H21.34V12.945H22.86V14.475H24.39V15.995H25.91V17.525H27.43V15.995H28.96V14.475H30.48V12.945H32V11.425H27.43Z" fill="currentColor"/>
<path d="M25.91 3.80499H24.39V5.33499H25.91V3.80499Z" fill="currentColor"/>
<path d="M24.3899 2.285H12.1899V3.805H24.3899V2.285Z" fill="currentColor"/>
</g>
<defs>
<clipPath id="clip0_1128_10814">
<rect width="32" height="32" fill="white"/>
</clipPath>
</defs>
</svg>
