<svg width="32" height="32" viewBox="0 0 32 32" fill="none" xmlns="http://www.w3.org/2000/svg">
<g clip-path="url(#clip0_1128_7402)">
<path d="M32 25.9H30.48V30.47H32V25.9Z" fill="currentColor"/>
<path d="M30.4799 24.38H28.95V25.9H30.4799V24.38Z" fill="currentColor"/>
<path d="M28.9501 12.19H30.4801V6.09001H32.0001V4.57001H27.4301V6.09001H28.9501V12.19Z" fill="currentColor"/>
<path d="M30.48 30.47H1.52002V32H30.48V30.47Z" fill="currentColor"/>
<path d="M28.9501 12.19H27.4301V13.71H28.9501V12.19Z" fill="currentColor"/>
<path d="M27.43 27.43H25.9V28.95H27.43V27.43Z" fill="currentColor"/>
<path d="M28.95 22.85H24.38V24.38H28.95V22.85Z" fill="currentColor"/>
<path d="M27.43 13.71H25.9V15.24H27.43V13.71Z" fill="currentColor"/>
<path d="M27.43 6.09003H24.38V7.62003H27.43V6.09003Z" fill="currentColor"/>
<path d="M25.9 10.66H22.86V12.19H25.9V10.66Z" fill="currentColor"/>
<path d="M24.38 24.38H22.86V25.9H24.38V24.38Z" fill="currentColor"/>
<path d="M24.38 7.62H21.33V9.14H24.38V7.62Z" fill="currentColor"/>
<path d="M22.86 21.33H21.33V24.38H22.86V21.33Z" fill="currentColor"/>
<path d="M25.9 15.24H21.33V16.76H25.9V15.24Z" fill="currentColor"/>
<path d="M22.86 12.19H21.33V13.71H22.86V12.19Z" fill="currentColor"/>
<path d="M21.3301 13.71H19.8101V15.24H21.3301V13.71Z" fill="currentColor"/>
<path d="M21.3301 9.14001H19.8101V10.66H21.3301V9.14001Z" fill="currentColor"/>
<path d="M21.33 25.9H18.28V28.95H21.33V25.9Z" fill="currentColor"/>
<path d="M21.33 19.81H18.28V21.33H21.33V19.81Z" fill="currentColor"/>
<path d="M19.81 10.66H18.28V13.71H19.81V10.66Z" fill="currentColor"/>
<path d="M18.28 22.85H16.76V24.38H18.28V22.85Z" fill="currentColor"/>
<path d="M18.28 18.28H16.76V16.76H19.81V15.24H16.76V9.14001H15.24V12.19H13.71V13.71H15.24V18.28H13.71V19.81H18.28V18.28Z" fill="currentColor"/>
<path d="M15.24 6.09003H13.71V9.14003H15.24V6.09003Z" fill="currentColor"/>
<path d="M15.2399 22.85H12.1899V25.9H15.2399V22.85Z" fill="currentColor"/>
<path d="M13.71 19.81H10.67V21.33H13.71V19.81Z" fill="currentColor"/>
<path d="M13.7099 10.66H12.1899V12.19H13.7099V10.66Z" fill="currentColor"/>
<path d="M13.7099 4.57001H12.1899V6.09001H13.7099V4.57001Z" fill="currentColor"/>
<path d="M13.71 13.71H9.14001V15.24H13.71V13.71Z" fill="currentColor"/>
<path d="M12.19 9.14001H10.67V10.66H12.19V9.14001Z" fill="currentColor"/>
<path d="M12.19 3.04999H10.67V4.56999H12.19V3.04999Z" fill="currentColor"/>
<path d="M10.67 27.43H9.14001V28.95H10.67V27.43Z" fill="currentColor"/>
<path d="M10.67 21.33H9.14001V24.38H10.67V21.33Z" fill="currentColor"/>
<path d="M10.67 7.62H9.14001V9.14H10.67V7.62Z" fill="currentColor"/>
<path d="M9.14 24.38H7.62V25.9H9.14V24.38Z" fill="currentColor"/>
<path d="M9.14 12.19H7.62V13.71H9.14V12.19Z" fill="currentColor"/>
<path d="M9.14 6.09003H7.62V7.62003H9.14V6.09003Z" fill="currentColor"/>
<path d="M10.67 1.52002H7.62V3.05002H10.67V1.52002Z" fill="currentColor"/>
<path d="M7.61997 10.66H6.08997V12.19H7.61997V10.66Z" fill="currentColor"/>
<path d="M7.61997 4.57001H6.08997V6.09001H7.61997V4.57001Z" fill="currentColor"/>
<path d="M6.08995 27.43H4.56995V28.95H6.08995V27.43Z" fill="currentColor"/>
<path d="M7.62005 22.85H3.05005V24.38H7.62005V22.85Z" fill="currentColor"/>
<path d="M6.08995 7.62H4.56995V10.66H6.08995V7.62Z" fill="currentColor"/>
<path d="M4.57005 4.57001H3.05005V7.62001H4.57005V4.57001Z" fill="currentColor"/>
<path d="M7.62002 0H1.52002V1.52H7.62002V0Z" fill="currentColor"/>
<path d="M3.05002 24.38H1.52002V25.9H3.05002V24.38Z" fill="currentColor"/>
<path d="M3.05002 3.04999H1.52002V4.56999H3.05002V3.04999Z" fill="currentColor"/>
<path d="M1.52 25.9H0V30.47H1.52V25.9Z" fill="currentColor"/>
<path d="M1.52 1.52002H0V3.05002H1.52V1.52002Z" fill="currentColor"/>
</g>
<defs>
<clipPath id="clip0_1128_7402">
<rect width="32" height="32" fill="white"/>
</clipPath>
</defs>
</svg>
