<svg width="32" height="32" viewBox="0 0 32 32" fill="none" xmlns="http://www.w3.org/2000/svg">
<g clip-path="url(#clip0_1135_2752)">
<path d="M30.48 19.81V18.28H28.95V21.33H27.43V22.85H25.9V24.38H27.43V25.9H28.95V28.95H30.48V27.42H32V19.81H30.48Z" fill="currentColor"/>
<path d="M25.9 27.42H24.38V25.9H22.86V27.42H21.33V28.95H18.28V30.47H19.81V32H27.43V30.47H28.95V28.95H25.9V27.42Z" fill="currentColor"/>
<path d="M21.33 19.81H22.86V21.33H24.38V19.81H25.9V18.28H28.95V16.76H27.43V15.23H19.81V16.76H18.28V18.28H21.33V19.81Z" fill="currentColor"/>
<path d="M19.81 25.9V24.38H21.33V22.85H19.81V21.33H18.28V18.28H16.76V19.81H15.24V27.42H16.76V28.95H18.28V25.9H19.81Z" fill="currentColor"/>
<path d="M16.76 10.66H13.71V12.19H16.76V10.66Z" fill="currentColor"/>
<path d="M16.76 32V30.47H15.24V28.95H1.52V3.04H6.09V4.57H15.24V3.04H19.81V13.71H21.33V1.52H19.81V0H1.52V1.52H0V30.47H1.52V32H16.76ZM10.67 1.52H13.71V3.04H10.67V1.52ZM7.62 1.52H9.14V3.04H7.62V1.52Z" fill="currentColor"/>
<path d="M15.24 16.76H6.08997V18.28H15.24V16.76Z" fill="currentColor"/>
<path d="M7.61995 10.66H4.56995V12.19H7.61995V10.66Z" fill="currentColor"/>
</g>
<defs>
<clipPath id="clip0_1135_2752">
<rect width="32" height="32" fill="white"/>
</clipPath>
</defs>
</svg>
