<svg width="32" height="32" viewBox="0 0 32 32" fill="none" xmlns="http://www.w3.org/2000/svg">
<g clip-path="url(#clip0_1128_10216)">
<path d="M31.24 9.90503H29.72V17.525H31.24V9.90503Z" fill="currentColor"/>
<path d="M29.72 17.525H28.19V20.575H29.72V17.525Z" fill="currentColor"/>
<path d="M29.72 6.85504H28.19V9.90504H29.72V6.85504Z" fill="currentColor"/>
<path d="M28.19 5.33502H26.67V6.85502H28.19V5.33502Z" fill="currentColor"/>
<path d="M28.19 20.575H25.15V22.095H28.19V20.575Z" fill="currentColor"/>
<path d="M26.67 3.80499H25.15V5.33499H26.67V3.80499Z" fill="currentColor"/>
<path d="M25.15 2.28503H23.62V3.80503H25.15V2.28503Z" fill="currentColor"/>
<path d="M25.15 22.095H20.57V23.615H25.15V22.095Z" fill="currentColor"/>
<path d="M20.57 11.425V9.90503H19.05V16.005H20.57V12.955H23.62V16.005H25.15V9.90503H23.62V11.425H20.57Z" fill="currentColor"/>
<path d="M23.62 8.38501H20.57V9.90501H23.62V8.38501Z" fill="currentColor"/>
<path d="M23.62 0.765015H20.57V2.28501H23.62V0.765015Z" fill="currentColor"/>
<path d="M20.57 2.28503H19.05V3.80503H20.57V2.28503Z" fill="currentColor"/>
<path d="M19.05 3.80499H17.53V5.33499H19.05V3.80499Z" fill="currentColor"/>
<path d="M8.37999 8.38501V9.90001H6.85999V11.42H5.33999V12.95H3.80999V14.47H2.28999V17.52H0.759995V25.14H2.28999V28.2H3.80999V29.72H6.85999V31.24H12.96V29.72H16V28.2H17.53V25.15H19.05V17.53H17.53V14.48H16V12.96H14.48V11.43H12.96V9.90001H11.43V8.38501H8.37999ZM9.90999 14.475H8.37999V16.005H6.85999V19.045H5.33999V16.005H6.85999V14.475H8.37999V12.955H9.90999V14.475Z" fill="currentColor"/>
<path d="M17.53 5.33502H16V6.85502H17.53V5.33502Z" fill="currentColor"/>
<path d="M16 6.85504H14.48V9.90504H16V6.85504Z" fill="currentColor"/>
</g>
<defs>
<clipPath id="clip0_1128_10216">
<rect width="32" height="32" fill="white"/>
</clipPath>
</defs>
</svg>
