<svg width="32" height="32" viewBox="0 0 32 32" fill="none" xmlns="http://www.w3.org/2000/svg">
<g clip-path="url(#clip0_1128_11208)">
<path d="M32 10.67H30.47V13.71H32V10.67Z" fill="currentColor"/>
<path d="M32 1.51999H30.47V4.56999H32V1.51999Z" fill="currentColor"/>
<path d="M30.4699 4.57001H28.95V6.09001H30.4699V4.57001Z" fill="currentColor"/>
<path d="M30.47 0H27.42V1.52H30.47V0Z" fill="currentColor"/>
<path d="M30.47 13.71H18.28V15.24H30.47V13.71Z" fill="currentColor"/>
<path d="M28.95 6.09H27.42V7.62H28.95V6.09Z" fill="currentColor"/>
<path d="M25.9 9.14H24.38V10.67H30.47V9.14H27.42V7.62H25.9V9.14Z" fill="currentColor"/>
<path d="M27.42 1.51999H25.9V3.04999H27.42V1.51999Z" fill="currentColor"/>
<path d="M25.9 3.04999H24.38V4.56999H25.9V3.04999Z" fill="currentColor"/>
<path d="M21.33 7.61999H22.85V6.08999H24.38V4.56999H22.85V1.51999H21.33V7.61999Z" fill="currentColor"/>
<path d="M21.33 0H18.28V1.52H21.33V0Z" fill="currentColor"/>
<path d="M18.28 1.51999H16.76V13.71H18.28V1.51999Z" fill="currentColor"/>
<path d="M15.23 18.29H13.71V30.48H15.23V18.29Z" fill="currentColor"/>
<path d="M13.71 30.48H10.66V32H13.71V30.48Z" fill="currentColor"/>
<path d="M10.66 24.38H9.13999V25.9H7.60999V27.43H9.13999V30.48H10.66V24.38Z" fill="currentColor"/>
<path d="M7.60997 27.43H6.08997V28.95H7.60997V27.43Z" fill="currentColor"/>
<path d="M6.08995 28.95H4.56995V30.48H6.08995V28.95Z" fill="currentColor"/>
<path d="M6.09002 22.86H7.61002V21.33H1.52002V22.86H4.57002V24.38H6.09002V22.86Z" fill="currentColor"/>
<path d="M4.57004 24.38H3.04004V25.9H4.57004V24.38Z" fill="currentColor"/>
<path d="M13.71 16.76H1.52002V18.29H13.71V16.76Z" fill="currentColor"/>
<path d="M4.57002 30.48H1.52002V32H4.57002V30.48Z" fill="currentColor"/>
<path d="M3.04002 25.9H1.52002V27.43H3.04002V25.9Z" fill="currentColor"/>
<path d="M1.52 27.43H0V30.48H1.52V27.43Z" fill="currentColor"/>
<path d="M1.52 18.29H0V21.33H1.52V18.29Z" fill="currentColor"/>
</g>
<defs>
<clipPath id="clip0_1128_11208">
<rect width="32" height="32" fill="white"/>
</clipPath>
</defs>
</svg>
