<svg width="32" height="32" viewBox="0 0 32 32" fill="none" xmlns="http://www.w3.org/2000/svg">
<path d="M28.19 9.14001V10.67H26.67V12.19H28.19V13.72H29.71V12.19H31.24V10.67H29.71V9.14001H28.19Z" fill="currentColor"/>
<path d="M29.71 25.91H28.19V27.43H29.71V25.91Z" fill="currentColor"/>
<path d="M25.14 24.38H23.62V25.91H25.14V27.43H26.67V19.81H25.14V24.38Z" fill="currentColor"/>
<path d="M26.67 4.57001H25.14V6.10001H26.67V4.57001Z" fill="currentColor"/>
<path d="M25.14 18.29H23.62V19.81H25.14V18.29Z" fill="currentColor"/>
<path d="M20.57 4.57V3.05H19.05V1.52H17.52V0H12.95V1.52H11.43V3.05H9.90002V4.57H8.38002V16.76H6.86002V18.29H8.38002V22.86H6.86002V24.38H9.90002V7.62H20.57V24.38H23.62V22.86H22.1V18.29H23.62V16.76H22.1V4.57H20.57Z" fill="currentColor"/>
<path d="M19.05 27.43H17.52V30.48H19.05V27.43Z" fill="currentColor"/>
<path d="M20.57 24.38H9.90002V25.91H20.57V24.38Z" fill="currentColor"/>
<path d="M17.52 18.29H16V19.81H17.52V18.29Z" fill="currentColor"/>
<path d="M17.52 10.67H16V12.19H17.52V10.67Z" fill="currentColor"/>
<path d="M16 27.43H14.48V32H16V27.43Z" fill="currentColor"/>
<path d="M16 19.81H14.48V21.33H16V19.81Z" fill="currentColor"/>
<path d="M16 16.76H14.48V18.29H16V16.76Z" fill="currentColor"/>
<path d="M16 12.19H14.48V13.72H16V12.19Z" fill="currentColor"/>
<path d="M16 9.14001H14.48V10.67H16V9.14001Z" fill="currentColor"/>
<path d="M14.48 18.29H12.95V19.81H14.48V18.29Z" fill="currentColor"/>
<path d="M14.48 10.67H12.95V12.19H14.48V10.67Z" fill="currentColor"/>
<path d="M12.95 27.43H11.43V30.48H12.95V27.43Z" fill="currentColor"/>
<path d="M6.86002 18.29H5.33002V19.81H6.86002V18.29Z" fill="currentColor"/>
<path d="M5.33 19.81H3.81V27.43H5.33V25.91H6.86V24.38H5.33V19.81Z" fill="currentColor"/>
<path d="M5.33 4.57001H3.81V6.10001H5.33V4.57001Z" fill="currentColor"/>
<path d="M3.81001 12.19H2.29001V13.72H3.81001V12.19Z" fill="currentColor"/>
<path d="M3.81001 6.10001H2.29001V7.62001H3.81001V6.10001Z" fill="currentColor"/>
<path d="M3.81001 3.04999H2.29001V4.56999H3.81001V3.04999Z" fill="currentColor"/>
<path d="M2.29001 28.95H0.76001V30.48H2.29001V28.95Z" fill="currentColor"/>
<path d="M2.29001 4.57001H0.76001V6.10001H2.29001V4.57001Z" fill="currentColor"/>
</svg>
