<svg width="32" height="32" viewBox="0 0 32 32" fill="none" xmlns="http://www.w3.org/2000/svg">
<path d="M27.425 3.05H25.905V28.95H27.425V3.05Z" fill="currentColor"/>
<path d="M25.905 28.95H24.385V30.48H25.905V28.95Z" fill="currentColor"/>
<path d="M25.905 1.52H24.385V3.05H25.905V1.52Z" fill="currentColor"/>
<path d="M24.385 24.38H13.715V28.95H24.385V24.38Z" fill="currentColor"/>
<path d="M24.385 30.48H7.61502V32H24.385V30.48Z" fill="currentColor"/>
<path d="M24.385 18.29H19.815V22.86H24.385V18.29ZM22.855 21.33H21.335V19.81H22.855V21.33Z" fill="currentColor"/>
<path d="M24.385 12.19H19.815V16.76H24.385V12.19ZM22.855 15.24H21.335V13.71H22.855V15.24Z" fill="currentColor"/>
<path d="M7.61502 3.05V10.67H24.385V3.05H7.61502ZM22.855 9.14H9.14502V4.57H22.855V9.14Z" fill="currentColor"/>
<path d="M21.335 6.10001H19.815V7.62001H21.335V6.10001Z" fill="currentColor"/>
<path d="M18.285 6.10001H16.765V7.62001H18.285V6.10001Z" fill="currentColor"/>
<path d="M18.285 18.29H13.715V22.86H18.285V18.29ZM16.765 21.33H15.235V19.81H16.765V21.33Z" fill="currentColor"/>
<path d="M18.285 12.19H13.715V16.76H18.285V12.19ZM16.765 15.24H15.235V13.71H16.765V15.24Z" fill="currentColor"/>
<path d="M12.2 28.95V24.38H7.61502V28.95H12.2ZM9.15002 25.91H10.67V27.43H9.14502L9.15002 25.91Z" fill="currentColor"/>
<path d="M12.2 18.29H7.61502V22.86H12.2V18.29ZM10.67 21.33H9.14502V19.81H10.665L10.67 21.33Z" fill="currentColor"/>
<path d="M12.2 12.19H7.61502V16.76H12.2V12.19ZM10.67 15.24H9.14502V13.71H10.665L10.67 15.24Z" fill="currentColor"/>
<path d="M24.385 0H7.61502V1.52H24.385V0Z" fill="currentColor"/>
<path d="M7.615 28.95H6.095V30.48H7.615V28.95Z" fill="currentColor"/>
<path d="M7.615 1.52H6.095V3.05H7.615V1.52Z" fill="currentColor"/>
<path d="M6.09501 3.05H4.57501V28.95H6.09501V3.05Z" fill="currentColor"/>
</svg>
