<svg width="32" height="32" viewBox="0 0 32 32" fill="none" xmlns="http://www.w3.org/2000/svg">
<g clip-path="url(#clip0_1128_7236)">
<path d="M32 24.38H30.48V25.91H32V24.38Z" fill="currentColor"/>
<path d="M32 4.57001H30.48V6.10001H32V4.57001Z" fill="currentColor"/>
<path d="M30.4799 25.91H28.95V27.43H30.4799V25.91Z" fill="currentColor"/>
<path d="M30.4799 22.86H28.95V24.38H30.4799V22.86Z" fill="currentColor"/>
<path d="M30.4799 6.09998H28.95V7.61998H30.4799V6.09998Z" fill="currentColor"/>
<path d="M30.4799 3.04999H28.95V4.56999H30.4799V3.04999Z" fill="currentColor"/>
<path d="M28.9501 27.43H27.4301V28.96H28.9501V27.43Z" fill="currentColor"/>
<path d="M28.9501 21.34H27.4301V22.86H28.9501V21.34Z" fill="currentColor"/>
<path d="M28.9501 7.62H27.4301V9.14999H28.9501V7.62Z" fill="currentColor"/>
<path d="M28.9501 1.53003H27.4301V3.05003H28.9501V1.53003Z" fill="currentColor"/>
<path d="M27.43 22.86H25.91V24.38H27.43V22.86Z" fill="currentColor"/>
<path d="M27.43 19.81H25.91V21.34H27.43V19.81Z" fill="currentColor"/>
<path d="M27.43 9.15002H25.91V10.67H27.43V9.15002Z" fill="currentColor"/>
<path d="M27.43 6.09998H25.91V7.61998H27.43V6.09998Z" fill="currentColor"/>
<path d="M27.43 0H25.91V1.53H27.43V0Z" fill="currentColor"/>
<path d="M25.91 24.38H24.38V32H25.91V30.48H27.43V28.96H25.91V24.38Z" fill="currentColor"/>
<path d="M25.91 10.67H24.38V12.19H25.91V10.67Z" fill="currentColor"/>
<path d="M25.91 4.57001H24.38V6.10001H25.91V4.57001Z" fill="currentColor"/>
<path d="M25.91 1.53003H24.38V3.05003H25.91V1.53003Z" fill="currentColor"/>
<path d="M22.8599 10.67H21.3299V9.15001H19.8099V7.62001H18.2899V6.10001H16.7599V4.57001H15.2399V6.10001H13.7199V7.62001H12.1899V9.15001H10.6699V10.67H9.13995V12.19H7.61995V13.72H6.09995V15.24H4.56995V16.77H7.61995V18.29H6.09995V19.81H7.61995V24.38H9.13995V22.86H22.8599V24.38H24.3799V19.81H25.9099V18.29H24.3799V16.77H27.4299V15.24H25.9099V13.72H24.3799V12.19H22.8599V10.67ZM10.6699 21.34H9.13995V19.81H10.6699V21.34ZM13.7199 21.34H12.1899V19.81H13.7199V21.34ZM16.7599 21.34H15.2399V19.81H16.7599V21.34ZM19.8099 21.34H18.2899V19.81H19.8099V21.34ZM22.8599 21.34H21.3299V19.81H22.8599V21.34ZM22.8599 18.29H9.13995V16.77H22.8599V18.29Z" fill="currentColor"/>
<path d="M24.38 9.15002H22.86V10.67H24.38V9.15002Z" fill="currentColor"/>
<path d="M24.38 3.04999H22.86V4.56999H24.38V3.04999Z" fill="currentColor"/>
<path d="M22.86 7.62H21.33V9.14999H22.86V7.62Z" fill="currentColor"/>
<path d="M22.86 4.57001H21.33V6.10001H22.86V4.57001Z" fill="currentColor"/>
<path d="M21.3301 6.09998H19.8101V7.61998H21.3301V6.09998Z" fill="currentColor"/>
<path d="M13.7199 24.38V25.91H12.1899V32H19.8099V25.91H18.2899V24.38H13.7199ZM15.2399 30.48H13.7199V28.96H15.2399V30.48Z" fill="currentColor"/>
<path d="M12.19 6.09998H10.67V7.61998H12.19V6.09998Z" fill="currentColor"/>
<path d="M10.67 7.62H9.14001V9.14999H10.67V7.62Z" fill="currentColor"/>
<path d="M10.67 4.57001H9.14001V6.10001H10.67V4.57001Z" fill="currentColor"/>
<path d="M9.14 9.15002H7.62V10.67H9.14V9.15002Z" fill="currentColor"/>
<path d="M9.14 3.04999H7.62V4.56999H9.14V3.04999Z" fill="currentColor"/>
<path d="M6.09995 28.96H4.56995V30.48H6.09995V32H7.61995V24.38H6.09995V28.96Z" fill="currentColor"/>
<path d="M7.61998 10.67H6.09998V12.19H7.61998V10.67Z" fill="currentColor"/>
<path d="M7.61998 4.57001H6.09998V6.10001H7.61998V4.57001Z" fill="currentColor"/>
<path d="M7.61998 1.53003H6.09998V3.05003H7.61998V1.53003Z" fill="currentColor"/>
<path d="M6.09995 22.86H4.56995V24.38H6.09995V22.86Z" fill="currentColor"/>
<path d="M6.09995 19.81H4.56995V21.34H6.09995V19.81Z" fill="currentColor"/>
<path d="M6.09995 9.15002H4.56995V10.67H6.09995V9.15002Z" fill="currentColor"/>
<path d="M6.09995 6.09998H4.56995V7.61998H6.09995V6.09998Z" fill="currentColor"/>
<path d="M6.09995 0H4.56995V1.53H6.09995V0Z" fill="currentColor"/>
<path d="M4.57005 27.43H3.05005V28.96H4.57005V27.43Z" fill="currentColor"/>
<path d="M4.57005 21.34H3.05005V22.86H4.57005V21.34Z" fill="currentColor"/>
<path d="M4.57005 7.62H3.05005V9.14999H4.57005V7.62Z" fill="currentColor"/>
<path d="M4.57005 1.53003H3.05005V3.05003H4.57005V1.53003Z" fill="currentColor"/>
<path d="M3.05002 25.91H1.52002V27.43H3.05002V25.91Z" fill="currentColor"/>
<path d="M3.05002 22.86H1.52002V24.38H3.05002V22.86Z" fill="currentColor"/>
<path d="M3.05002 6.09998H1.52002V7.61998H3.05002V6.09998Z" fill="currentColor"/>
<path d="M3.05002 3.04999H1.52002V4.56999H3.05002V3.04999Z" fill="currentColor"/>
<path d="M1.52 24.38H0V25.91H1.52V24.38Z" fill="currentColor"/>
<path d="M1.52 4.57001H0V6.10001H1.52V4.57001Z" fill="currentColor"/>
</g>
<defs>
<clipPath id="clip0_1128_7236">
<rect width="32" height="32" fill="white"/>
</clipPath>
</defs>
</svg>
