<svg width="32" height="32" viewBox="0 0 32 32" fill="none" xmlns="http://www.w3.org/2000/svg">
<g clip-path="url(#clip0_1128_19866)">
<path d="M30.47 3.04999V10.67H19.81V12.19H21.33V13.71H22.85V12.19H30.47V28.95H32V3.04999H30.47Z" fill="currentColor"/>
<path d="M30.47 28.95H28.95V30.48H30.47V28.95Z" fill="currentColor"/>
<path d="M30.47 1.51999H28.95V3.04999H30.47V1.51999Z" fill="currentColor"/>
<path d="M28.95 30.48H3.03998V32H28.95V30.48Z" fill="currentColor"/>
<path d="M27.42 4.57001H25.9V7.62001H27.42V4.57001Z" fill="currentColor"/>
<path d="M25.9 3.04999H22.85V4.56999H25.9V3.04999Z" fill="currentColor"/>
<path d="M24.38 13.71H22.85V21.33H24.38V13.71Z" fill="currentColor"/>
<path d="M25.9 7.62H22.85V9.14H25.9V7.62Z" fill="currentColor"/>
<path d="M22.85 21.33H21.33V22.86H22.85V21.33Z" fill="currentColor"/>
<path d="M22.85 4.57001H21.33V7.62001H22.85V4.57001Z" fill="currentColor"/>
<path d="M21.33 22.86H19.81V24.38H21.33V22.86Z" fill="currentColor"/>
<path d="M12.19 15.24H10.66V19.81H12.19V21.33H13.71V22.86H18.28V21.33H19.81V19.81H21.33V15.24H19.81V13.71H18.28V12.19H13.71V13.71H12.19V15.24ZM15.23 15.24H18.28V18.29H16.76V16.76H15.23V15.24Z" fill="currentColor"/>
<path d="M19.81 9.14001H12.19V10.67H19.81V9.14001Z" fill="currentColor"/>
<path d="M19.81 24.38H12.19V25.9H19.81V24.38Z" fill="currentColor"/>
<path d="M12.19 22.86H10.66V24.38H12.19V22.86Z" fill="currentColor"/>
<path d="M10.66 21.33H9.14001V22.86H10.66V21.33Z" fill="currentColor"/>
<path d="M9.13999 13.71H7.60999V21.33H9.13999V13.71Z" fill="currentColor"/>
<path d="M3.04002 28.95H1.52002V30.48H3.04002V28.95Z" fill="currentColor"/>
<path d="M1.52 12.19H3.04V13.71H7.61V12.19H9.14V13.71H10.66V12.19H12.19V10.67H10.66V1.52H28.95V0H3.04V1.52H1.52V3.05H3.04V10.67H1.52V3.05H0V28.95H1.52V12.19ZM7.61 1.52H9.14V10.67H7.61V1.52ZM4.57 1.52H6.09V10.67H4.57V1.52Z" fill="currentColor"/>
</g>
<defs>
<clipPath id="clip0_1128_19866">
<rect width="32" height="32" fill="white"/>
</clipPath>
</defs>
</svg>
