<svg width="32" height="32" viewBox="0 0 32 32" fill="none" xmlns="http://www.w3.org/2000/svg">
<g clip-path="url(#clip0_1128_8830)">
<path d="M29.71 19.81H28.19V27.43H29.71V19.81Z" fill="currentColor"/>
<path d="M28.19 27.43H26.67V28.95H28.19V27.43Z" fill="currentColor"/>
<path d="M28.19 18.29H26.67V19.81H28.19V18.29Z" fill="currentColor"/>
<path d="M26.67 28.95H25.14V30.48H26.67V28.95Z" fill="currentColor"/>
<path d="M26.67 16.76H25.14V18.29H26.67V16.76Z" fill="currentColor"/>
<path d="M25.14 30.48H17.52V32H25.14V30.48Z" fill="currentColor"/>
<path d="M20.57 25.91H19.05V27.43H20.57V25.91Z" fill="currentColor"/>
<path d="M19.05 6.1V4.57H20.57V15.24H16V18.29H17.52V16.76H25.14V15.24H22.1V6.1H25.14V4.57H26.67V3.05H28.19V0H23.62V1.52H22.1V3.05H20.57V1.52H19.05V0H11.43V3.05H12.95V4.57H17.52V6.1H19.05Z" fill="currentColor"/>
<path d="M17.52 28.95H16V30.48H17.52V28.95Z" fill="currentColor"/>
<path d="M17.52 21.33H16V25.91H17.52V21.33Z" fill="currentColor"/>
<path d="M17.52 6.09998H16V7.61998H17.52V6.09998Z" fill="currentColor"/>
<path d="M14.48 27.43V19.81H12.95V27.43H6.86002V28.95H16V27.43H14.48Z" fill="currentColor"/>
<path d="M16 18.29H14.48V19.81H16V18.29Z" fill="currentColor"/>
<path d="M16 13.71H14.48V15.24H16V13.71Z" fill="currentColor"/>
<path d="M16 7.62H14.48V9.14H16V7.62Z" fill="currentColor"/>
<path d="M14.48 9.14001H12.95V10.67H14.48V9.14001Z" fill="currentColor"/>
<path d="M14.48 13.71V12.19H12.95V10.67H11.43V12.19H6.86002V13.71H14.48Z" fill="currentColor"/>
<path d="M8.38002 22.86H6.86002V24.38H8.38002V22.86Z" fill="currentColor"/>
<path d="M6.86002 25.91H5.33002V27.43H6.86002V25.91Z" fill="currentColor"/>
<path d="M6.86002 18.29H5.33002V22.86H6.86002V18.29Z" fill="currentColor"/>
<path d="M6.86002 13.71H5.33002V15.24H6.86002V13.71Z" fill="currentColor"/>
<path d="M5.33 24.38H3.81V25.91H5.33V24.38Z" fill="currentColor"/>
<path d="M5.33 15.24H3.81V16.76H5.33V15.24Z" fill="currentColor"/>
<path d="M3.81001 16.76H2.29001V24.38H3.81001V16.76Z" fill="currentColor"/>
</g>
<defs>
<clipPath id="clip0_1128_8830">
<rect width="32" height="32" fill="white"/>
</clipPath>
</defs>
</svg>
