<svg width="32" height="32" viewBox="0 0 32 32" fill="none" xmlns="http://www.w3.org/2000/svg">
<path d="M24.38 3.04498H22.86V12.195H24.38V3.04498Z" fill="currentColor"/>
<path d="M22.86 12.195H21.34V15.235H22.86V12.195Z" fill="currentColor"/>
<path d="M21.34 15.235H19.81V16.765H21.34V15.235Z" fill="currentColor"/>
<path d="M12.19 16.765V18.285H15.24V24.385H10.67V25.905H9.14999V28.955H10.67V30.475H21.34V28.955H22.86V25.905H21.34V24.385H16.76V18.285H19.81V16.765H12.19Z" fill="currentColor"/>
<path d="M16.76 9.14499H15.24V10.665H16.76V9.14499Z" fill="currentColor"/>
<path d="M15.24 6.09498H13.72V7.62498H16.76V9.14498H18.29V6.09498H16.76V4.57498H15.24V6.09498Z" fill="currentColor"/>
<path d="M15.24 10.665H13.72V12.195H15.24V10.665Z" fill="currentColor"/>
<path d="M12.19 15.235H10.67V16.765H12.19V15.235Z" fill="currentColor"/>
<path d="M16.76 3.04499V4.57499H18.29V3.04499H22.86V1.52499H9.14999V3.04499H16.76Z" fill="currentColor"/>
<path d="M10.67 12.195H9.14999V15.235H10.67V12.195Z" fill="currentColor"/>
<path d="M9.14999 3.04498H7.62V12.195H9.14999V3.04498Z" fill="currentColor"/>
</svg>
