<svg width="32" height="32" viewBox="0 0 32 32" fill="none" xmlns="http://www.w3.org/2000/svg">
<path d="M12.195 9.90503H10.665V11.425H12.195V9.90503Z" fill="currentColor"/>
<path d="M9.14504 28.2V12.955H10.665V11.425H9.14504V9.90002H3.04504V31.23H9.14504V29.71H12.2V28.2H9.14504ZM7.61504 16H6.10004V12.96H7.62004L7.61504 16Z" fill="currentColor"/>
<path d="M13.7151 8.38501H12.1951V9.90501H13.7151V8.38501Z" fill="currentColor"/>
<path d="M15.2351 2.28503H13.7151V8.38503H15.2351V2.28503Z" fill="currentColor"/>
<path d="M16.765 12.955H15.235V14.475H16.765V12.955Z" fill="currentColor"/>
<path d="M18.285 0.765015H15.235V2.28501H18.285V0.765015Z" fill="currentColor"/>
<path d="M18.285 11.425H16.765V12.955H18.285V11.425Z" fill="currentColor"/>
<path d="M18.285 17.525H16.765V20.575H18.285V17.525Z" fill="currentColor"/>
<path d="M18.285 22.095H16.765V25.145H18.285V22.095Z" fill="currentColor"/>
<path d="M19.805 2.28503H18.285V3.80503H19.805V2.28503Z" fill="currentColor"/>
<path d="M19.805 9.90503H18.285V11.425H19.805V9.90503Z" fill="currentColor"/>
<path d="M21.3351 3.80505H19.8051V9.90505H21.3351V3.80505Z" fill="currentColor"/>
<path d="M27.4251 11.425H19.8051V12.955H27.4251V11.425Z" fill="currentColor"/>
<path d="M21.3351 28.1951H19.8051V29.7151H12.1951V31.2351H24.3851V29.7151H21.3351V28.1951Z" fill="currentColor"/>
<path d="M18.285 25.145V28.195H19.805V26.665H25.905V28.195H27.425V25.145H18.285Z" fill="currentColor"/>
<path d="M25.905 28.1951H24.385V29.7151H25.905V28.1951Z" fill="currentColor"/>
<path d="M27.425 15.995H19.805V12.955H18.285V17.525H27.425V20.575H18.285V22.095H27.425V25.145H28.955V12.955H27.425V15.995Z" fill="currentColor"/>
</svg>
