<svg width="32" height="32" viewBox="0 0 32 32" fill="none" xmlns="http://www.w3.org/2000/svg">
<g clip-path="url(#clip0_1128_13586)">
<path d="M32 3.04999H30.47V30.48H32V3.04999Z" fill="currentColor"/>
<path d="M30.4699 1.51999H28.95V3.04999H30.4699V1.51999Z" fill="currentColor"/>
<path d="M27.43 16.76H25.9V30.48H6.09002V16.76H4.57002V30.48H1.52002V32H30.47V30.48H27.43V16.76Z" fill="currentColor"/>
<path d="M18.28 9.13999H24.38V3.04999H18.28V9.13999ZM19.81 4.56999H21.33V7.61999H19.81V4.56999Z" fill="currentColor"/>
<path d="M22.85 25.9H9.14001V27.43H22.85V25.9Z" fill="currentColor"/>
<path d="M22.85 21.33H9.14001V22.86H22.85V21.33Z" fill="currentColor"/>
<path d="M25.9 15.24H6.08997V16.76H25.9V15.24Z" fill="currentColor"/>
<path d="M4.57005 9.14H6.09005V1.52H9.14005V9.14H6.09005V10.67H9.14005V12.19H27.43V1.52H28.9501V0H3.05005V1.52H4.57005V9.14ZM10.66 1.52H25.9V10.67H10.66V1.52Z" fill="currentColor"/>
<path d="M3.05002 1.51999H1.52002V3.04999H3.05002V1.51999Z" fill="currentColor"/>
<path d="M1.52 3.04999H0V30.48H1.52V3.04999Z" fill="currentColor"/>
</g>
<defs>
<clipPath id="clip0_1128_13586">
<rect width="32" height="32" fill="white"/>
</clipPath>
</defs>
</svg>
