<svg width="32" height="32" viewBox="0 0 32 32" fill="none" xmlns="http://www.w3.org/2000/svg">
<path d="M28.95 4.57999H27.43V21.34H28.95V4.57999Z" fill="currentColor"/>
<path d="M27.43 21.34H25.91V24.39H27.43V21.34Z" fill="currentColor"/>
<path d="M25.91 24.39H24.38V25.91H25.91V24.39Z" fill="currentColor"/>
<path d="M25.91 6.10001H24.38V21.34H25.91V6.10001Z" fill="currentColor"/>
<path d="M27.43 3.04999H24.38V4.57999H27.43V3.04999Z" fill="currentColor"/>
<path d="M24.38 25.91H22.86V27.43H24.38V25.91Z" fill="currentColor"/>
<path d="M24.38 21.34H22.86V24.39H24.38V21.34Z" fill="currentColor"/>
<path d="M22.86 27.43H21.34V28.96H22.86V27.43Z" fill="currentColor"/>
<path d="M22.86 24.39H21.34V25.91H22.86V24.39Z" fill="currentColor"/>
<path d="M24.38 4.57999H21.34V6.09999H24.38V4.57999Z" fill="currentColor"/>
<path d="M24.38 1.53H21.34V3.05H24.38V1.53Z" fill="currentColor"/>
<path d="M21.34 28.96H18.29V30.48H21.34V28.96Z" fill="currentColor"/>
<path d="M21.34 25.91H18.29V27.43H21.34V25.91Z" fill="currentColor"/>
<path d="M19.81 16.77H18.29V19.81H19.81V16.77Z" fill="currentColor"/>
<path d="M19.81 12.19H18.29V13.72H19.81V12.19Z" fill="currentColor"/>
<path d="M13.72 12.19H15.24V15.24H13.72V16.77H15.24V19.81H13.72V21.34H15.24V22.86H16.76V21.34H18.29V19.81H16.76V16.77H18.29V15.24H16.76V12.19H18.29V10.67H16.76V9.14999H15.24V10.67H13.72V12.19Z" fill="currentColor"/>
<path d="M18.29 30.48H13.72V32H18.29V30.48Z" fill="currentColor"/>
<path d="M18.29 27.43H13.72V28.96H18.29V27.43Z" fill="currentColor"/>
<path d="M13.72 28.96H10.67V30.48H13.72V28.96Z" fill="currentColor"/>
<path d="M13.72 25.91H10.67V27.43H13.72V25.91Z" fill="currentColor"/>
<path d="M13.72 18.29H12.19V19.81H13.72V18.29Z" fill="currentColor"/>
<path d="M13.72 12.19H12.19V15.24H13.72V12.19Z" fill="currentColor"/>
<path d="M21.34 3.04999H10.67V4.57999H21.34V3.04999Z" fill="currentColor"/>
<path d="M21.34 0H10.67V1.53H21.34V0Z" fill="currentColor"/>
<path d="M10.67 27.43H9.13998V28.96H10.67V27.43Z" fill="currentColor"/>
<path d="M10.67 24.39H9.13998V25.91H10.67V24.39Z" fill="currentColor"/>
<path d="M10.67 4.57999H7.62V6.09999H10.67V4.57999Z" fill="currentColor"/>
<path d="M10.67 1.53H7.62V3.05H10.67V1.53Z" fill="currentColor"/>
<path d="M9.14 25.91H7.62V27.43H9.14V25.91Z" fill="currentColor"/>
<path d="M9.14 21.34H7.62V24.39H9.14V21.34Z" fill="currentColor"/>
<path d="M7.61998 24.39H6.09998V25.91H7.61998V24.39Z" fill="currentColor"/>
<path d="M7.61998 6.10001H6.09998V21.34H7.61998V6.10001Z" fill="currentColor"/>
<path d="M7.61998 3.04999H4.56998V4.57999H7.61998V3.04999Z" fill="currentColor"/>
<path d="M6.09998 21.34H4.56998V24.39H6.09998V21.34Z" fill="currentColor"/>
<path d="M4.56999 4.57999H3.04999V21.34H4.56999V4.57999Z" fill="currentColor"/>
</svg>
