<svg width="32" height="32" viewBox="0 0 32 32" fill="none" xmlns="http://www.w3.org/2000/svg">
<g clip-path="url(#clip0_1128_13318)">
<path d="M16.76 19.81H18.28V21.33H21.33V22.86H22.85V24.38H21.33V25.9H18.28V27.43H16.76V28.95H18.28V30.48H21.33V32H25.9V30.48H28.95V28.95H30.47V25.9H32V21.33H30.47V18.29H28.95V16.76H25.9V15.24H21.33V16.76H18.28V18.29H16.76V19.81ZM24.38 19.81H25.9V21.33H24.38V19.81Z" fill="currentColor"/>
<path d="M30.4701 6.09H28.9501V7.62H30.4701V6.09Z" fill="currentColor"/>
<path d="M25.9 10.67H24.38V12.19H25.9V10.67Z" fill="currentColor"/>
<path d="M25.9 6.09H24.38V7.62H25.9V6.09Z" fill="currentColor"/>
<path d="M25.9 1.51999H24.38V3.04999H25.9V1.51999Z" fill="currentColor"/>
<path d="M21.33 6.09H19.8V7.62H21.33V6.09Z" fill="currentColor"/>
<path d="M16.76 22.86H15.23V24.38H16.76V22.86Z" fill="currentColor"/>
<path d="M16.76 6.09H15.23V13.71H16.76V6.09Z" fill="currentColor"/>
<path d="M15.23 13.71H13.71V15.24H15.23V13.71Z" fill="currentColor"/>
<path d="M15.23 3.04999H13.71V6.08999H15.23V3.04999Z" fill="currentColor"/>
<path d="M13.7099 12.19H12.1899V13.71H13.7099V12.19Z" fill="currentColor"/>
<path d="M13.7099 1.51999H12.1899V3.04999H13.7099V1.51999Z" fill="currentColor"/>
<path d="M12.1899 22.86H10.6599V24.38H12.1899V22.86Z" fill="currentColor"/>
<path d="M12.1899 13.71H10.6599V15.24H12.1899V13.71Z" fill="currentColor"/>
<path d="M12.1899 6.09H10.6599V7.62H12.1899V6.09Z" fill="currentColor"/>
<path d="M10.6601 12.19H9.14014V13.71H10.6601V12.19Z" fill="currentColor"/>
<path d="M9.14011 13.71H7.61011V15.24H9.14011V13.71Z" fill="currentColor"/>
<path d="M9.14011 6.09H7.61011V7.62H9.14011V6.09Z" fill="currentColor"/>
<path d="M7.61009 27.43H6.09009V28.95H7.61009V27.43Z" fill="currentColor"/>
<path d="M7.61009 22.86H6.09009V24.38H7.61009V22.86Z" fill="currentColor"/>
<path d="M7.61009 18.29H6.09009V19.81H7.61009V18.29Z" fill="currentColor"/>
<path d="M7.61009 12.19H6.09009V13.71H7.61009V12.19Z" fill="currentColor"/>
<path d="M12.1901 0H4.57007V1.52H12.1901V0Z" fill="currentColor"/>
<path d="M6.09007 13.71H4.57007V15.24H6.09007V13.71Z" fill="currentColor"/>
<path d="M4.57004 12.19H3.04004V13.71H4.57004V12.19Z" fill="currentColor"/>
<path d="M4.57004 1.51999H3.04004V3.04999H4.57004V1.51999Z" fill="currentColor"/>
<path d="M3.04002 22.86H1.52002V24.38H3.04002V22.86Z" fill="currentColor"/>
<path d="M3.04002 13.71H1.52002V15.24H3.04002V13.71Z" fill="currentColor"/>
<path d="M3.04002 3.04999H1.52002V6.08999H3.04002V3.04999Z" fill="currentColor"/>
<path d="M1.52 6.09H0V13.71H1.52V6.09Z" fill="currentColor"/>
</g>
<defs>
<clipPath id="clip0_1128_13318">
<rect width="32" height="32" fill="white"/>
</clipPath>
</defs>
</svg>
