<svg width="32" height="32" viewBox="0 0 32 32" fill="none" xmlns="http://www.w3.org/2000/svg">
<g clip-path="url(#clip0_1128_3796)">
<path d="M22.86 19.8099V6.08995H21.34V4.56995H16.77V6.08995H15.24V19.8099H12.19V7.61995H10.67V6.08995H6.1V7.61995H4.58V19.8099H0V31.9999H32V19.8099H22.86ZM16.77 9.13995H21.34V10.6599H16.77V9.13995ZM16.77 12.1899H21.34V19.8099H16.77V12.1899ZM6.1 10.6599H10.67V12.1899H6.1V10.6599ZM6.1 13.7099H10.67V19.8099H6.1V13.7099ZM7.62 30.4699H1.53V21.3299H7.62V30.4699ZM30.48 30.4699H9.15V21.3299H30.48V30.4699Z" fill="currentColor"/>
<path d="M28.96 22.85H22.86V28.95H28.96V22.85ZM27.43 25.9H25.91V27.43H24.39V24.38H27.43V25.9Z" fill="currentColor"/>
<path d="M25.91 0H24.39V1.52H25.91V0Z" fill="currentColor"/>
<path d="M24.39 1.52002H22.86V3.04002H24.39V1.52002Z" fill="currentColor"/>
<path d="M22.86 0H19.81V1.52H22.86V0Z" fill="currentColor"/>
<path d="M21.34 22.85H10.67V28.95H21.34V22.85ZM15.24 25.9H13.72V27.43H12.19V24.38H15.24V25.9ZM19.81 25.9H18.29V27.43H16.77V24.38H19.81V25.9Z" fill="currentColor"/>
<path d="M19.81 1.52002H18.29V3.04002H19.81V1.52002Z" fill="currentColor"/>
<path d="M15.24 1.52002H13.72V3.04002H15.24V1.52002Z" fill="currentColor"/>
<path d="M13.72 3.04004H10.67V4.57004H13.72V3.04004Z" fill="currentColor"/>
<path d="M10.67 1.52002H9.14999V3.04002H10.67V1.52002Z" fill="currentColor"/>
<path d="M9.14999 3.04004H7.62V4.57004H9.14999V3.04004Z" fill="currentColor"/>
</g>
<defs>
<clipPath id="clip0_1128_3796">
<rect width="32" height="32" fill="white"/>
</clipPath>
</defs>
</svg>
