<svg width="32" height="32" viewBox="0 0 32 32" fill="none" xmlns="http://www.w3.org/2000/svg">
<path d="M29.7151 20.575H28.1951V26.665H29.7151V20.575Z" fill="currentColor"/>
<path d="M28.195 26.665H26.665V28.195H28.195V26.665Z" fill="currentColor"/>
<path d="M28.195 19.055H26.665V20.575H28.195V19.055Z" fill="currentColor"/>
<path d="M26.665 17.525H25.145V19.055H26.665V17.525Z" fill="currentColor"/>
<path d="M26.6651 28.195H20.5751V29.715H26.6651V28.195Z" fill="currentColor"/>
<path d="M25.145 16.005H23.615V17.525H25.145V16.005Z" fill="currentColor"/>
<path d="M23.615 14.475H19.045V16.005H23.615V14.475Z" fill="currentColor"/>
<path d="M20.575 26.665H19.045V28.195H20.575V26.665Z" fill="currentColor"/>
<path d="M19.045 25.145H17.525V26.665H19.045V25.145Z" fill="currentColor"/>
<path d="M14.475 11.435H11.425V14.475H12.955V16.005H14.475V17.525H16.005V19.055H17.525V20.575H20.575V17.525H19.045V16.005H17.525V14.475H16.005V12.955H14.475V11.435Z" fill="currentColor"/>
<path d="M17.525 23.625H16.005V25.145H17.525V23.625Z" fill="currentColor"/>
<path d="M17.525 8.38501H16.005V12.955H17.525V8.38501Z" fill="currentColor"/>
<path d="M16.005 19.055H14.475V23.625H16.005V19.055Z" fill="currentColor"/>
<path d="M16.005 6.86499H14.475V8.38499H16.005V6.86499Z" fill="currentColor"/>
<path d="M14.4751 5.33499H12.9551V6.86499H14.4751V5.33499Z" fill="currentColor"/>
<path d="M12.955 3.815H11.425V5.335H12.955V3.815Z" fill="currentColor"/>
<path d="M12.955 16.005H8.38501V17.525H12.955V16.005Z" fill="currentColor"/>
<path d="M8.38498 14.475H6.85498V16.005H8.38498V14.475Z" fill="currentColor"/>
<path d="M11.4251 2.285H5.33508V3.815H11.4251V2.285Z" fill="currentColor"/>
<path d="M6.85508 12.955H5.33508V14.475H6.85508V12.955Z" fill="currentColor"/>
<path d="M5.33506 11.435H3.81506V12.955H5.33506V11.435Z" fill="currentColor"/>
<path d="M5.33506 3.815H3.81506V5.335H5.33506V3.815Z" fill="currentColor"/>
<path d="M3.81503 5.33499H2.28503V11.435H3.81503V5.33499Z" fill="currentColor"/>
</svg>
