<svg width="32" height="32" viewBox="0 0 32 32" fill="none" xmlns="http://www.w3.org/2000/svg">
<path d="M4.56501 0V1.53H3.04501V30.48H4.56501V32H27.425V30.48H28.955V1.53H27.425V0H4.56501ZM16.755 30.48H15.235V28.96H16.755V30.48ZM25.905 27.43H6.10001V3.05H25.91L25.905 27.43Z" fill="currentColor"/>
<path d="M15.235 12.19H16.755V15.24H24.375V7.62H16.755V10.67H15.235V7.62H7.61502V15.24H15.235V12.19ZM18.285 9.15H22.855V13.72H18.285V9.15ZM13.715 13.72H9.14502V9.15H13.715V13.72Z" fill="currentColor"/>
<path d="M21.335 10.67H19.805V12.19H21.335V10.67Z" fill="currentColor"/>
<path d="M19.805 16.76H18.285V18.29H19.805V16.76Z" fill="currentColor"/>
<path d="M18.285 18.29H15.235V19.81H18.285V18.29Z" fill="currentColor"/>
<path d="M12.185 10.67H10.665V12.19H12.185V10.67Z" fill="currentColor"/>
</svg>
