<svg width="32" height="32" viewBox="0 0 32 32" fill="none" xmlns="http://www.w3.org/2000/svg">
<g clip-path="url(#clip0_1128_7646)">
<path d="M30.48 21.34H27.43V19.81H25.91V22.86H21.33V24.38H19.81V25.91H16.76V28.96H22.86V27.43H30.48V25.91H32V22.86H30.48V21.34Z" fill="currentColor"/>
<path d="M25.91 4.57001H24.38V6.10001H25.91V4.57001Z" fill="currentColor"/>
<path d="M24.38 28.96H22.86V30.48H24.38V28.96Z" fill="currentColor"/>
<path d="M25.91 18.29H22.86V19.81H25.91V18.29Z" fill="currentColor"/>
<path d="M24.38 9.15002H22.86V15.24H24.38V9.15002Z" fill="currentColor"/>
<path d="M24.38 6.09998H22.86V7.61998H24.38V6.09998Z" fill="currentColor"/>
<path d="M24.38 3.04999H22.86V4.56999H24.38V3.04999Z" fill="currentColor"/>
<path d="M22.86 15.24H21.33V18.29H22.86V15.24Z" fill="currentColor"/>
<path d="M22.86 7.62H21.33V9.14999H22.86V7.62Z" fill="currentColor"/>
<path d="M22.86 4.57001H21.33V6.10001H22.86V4.57001Z" fill="currentColor"/>
<path d="M22.8599 30.48H12.1899V32H22.8599V30.48Z" fill="currentColor"/>
<path d="M21.3301 9.15002H19.8101V10.67H21.3301V9.15002Z" fill="currentColor"/>
<path d="M21.3301 6.09998H19.8101V7.61998H21.3301V6.09998Z" fill="currentColor"/>
<path d="M19.81 10.67H18.29V12.19H19.81V10.67Z" fill="currentColor"/>
<path d="M19.81 7.62H18.29V9.14999H19.81V7.62Z" fill="currentColor"/>
<path d="M18.29 12.19H16.76V13.72H18.29V12.19Z" fill="currentColor"/>
<path d="M18.29 9.15002H16.76V10.67H18.29V9.15002Z" fill="currentColor"/>
<path d="M16.76 13.72H15.24V15.24H16.76V13.72Z" fill="currentColor"/>
<path d="M16.76 10.67H15.24V12.19H16.76V10.67Z" fill="currentColor"/>
<path d="M15.2399 12.19H12.1899V13.72H15.2399V12.19Z" fill="currentColor"/>
<path d="M12.19 28.96H10.67V30.48H12.19V28.96Z" fill="currentColor"/>
<path d="M15.24 22.86V21.34H13.72V19.81H16.76V16.77H12.19V18.29H7.61998V19.81H6.09998V21.34H9.13998V22.86H15.24Z" fill="currentColor"/>
<path d="M12.19 4.57001H10.67V6.10001H12.19V4.57001Z" fill="currentColor"/>
<path d="M13.72 1.53V4.57H15.24V7.62H18.29V6.1H19.81V4.57H21.33V3.05H19.81V1.53H16.76V0H9.14001V1.53H13.72Z" fill="currentColor"/>
<path d="M10.6699 27.43H4.56995V28.96H10.6699V27.43Z" fill="currentColor"/>
<path d="M10.67 9.15002H9.14001V10.67H10.67V9.15002Z" fill="currentColor"/>
<path d="M10.67 6.09998H7.62V7.61998H10.67V6.09998Z" fill="currentColor"/>
<path d="M9.13998 1.53003H6.09998V3.05003H9.13998V1.53003Z" fill="currentColor"/>
<path d="M6.09995 18.29H4.56995V19.81H6.09995V18.29Z" fill="currentColor"/>
<path d="M6.09995 3.04999H4.56995V4.56999H6.09995V3.04999Z" fill="currentColor"/>
<path d="M4.57002 25.91H1.52002V27.43H4.57002V25.91Z" fill="currentColor"/>
<path d="M9.14002 22.86H1.52002V24.38H9.14002V22.86Z" fill="currentColor"/>
<path d="M6.10002 15.24V16.77H9.14002V12.19H7.62002V10.67H6.10002V7.62001H4.57002V4.57001H3.05002V7.62001H1.52002V15.24H3.05002V18.29H4.57002V15.24H6.10002Z" fill="currentColor"/>
<path d="M1.52 24.38H0V25.91H1.52V24.38Z" fill="currentColor"/>
</g>
<defs>
<clipPath id="clip0_1128_7646">
<rect width="32" height="32" fill="white"/>
</clipPath>
</defs>
</svg>
