<svg width="32" height="32" viewBox="0 0 32 32" fill="none" xmlns="http://www.w3.org/2000/svg">
<g clip-path="url(#clip0_1128_3958)">
<path d="M9.14 4.57007V6.10007H30.48V28.9501H3.05V30.4801H32V4.57007H9.14Z" fill="currentColor"/>
<path d="M21.33 13.72H19.81V15.24H21.33V13.72Z" fill="currentColor"/>
<path d="M19.81 21.3301H18.29V22.8601H19.81V21.3301Z" fill="currentColor"/>
<path d="M18.29 22.86H16.76V24.38H18.29V22.86Z" fill="currentColor"/>
<path d="M12.19 24.38H6.10001V25.91H16.76V24.38H13.72V16.76H15.24V15.24H18.29V13.72H15.24V10.67H25.91V13.72H22.86V15.24H25.91V24.38H22.86V19.81H19.81V21.33H21.33V25.91H27.43V9.14001H12.19V10.67H13.72V15.24H9.14001V16.76H12.19V24.38Z" fill="currentColor"/>
<path d="M10.67 9.14001H9.14V10.67H10.67V9.14001Z" fill="currentColor"/>
<path d="M3.05 27.4301H1.52V28.9501H3.05V27.4301Z" fill="currentColor"/>
<path d="M3.05 24.38V22.86H7.62V3.05002H6.1V1.52002H3.05V3.05002H1.52V4.57002H0V27.43H1.52V24.38H3.05Z" fill="currentColor"/>
</g>
<defs>
<clipPath id="clip0_1128_3958">
<rect width="32" height="32" fill="white"/>
</clipPath>
</defs>
</svg>
