<svg width="32" height="32" viewBox="0 0 32 32" fill="none" xmlns="http://www.w3.org/2000/svg">
<g clip-path="url(#clip0_1128_5572)">
<path d="M32 7.62H30.47V27.43H32V7.62Z" fill="currentColor"/>
<path d="M1.52 27.43V28.95H3.05V30.48H4.57V28.95H27.43V30.48H28.95V28.95H30.47V27.43H1.52Z" fill="currentColor"/>
<path d="M28.95 16.76H27.43V18.29H28.95V16.76Z" fill="currentColor"/>
<path d="M28.95 13.71H27.43V15.24H28.95V13.71Z" fill="currentColor"/>
<path d="M28.95 10.67H27.43V12.19H28.95V10.67Z" fill="currentColor"/>
<path d="M24.38 19.81V25.9H28.95V19.81H24.38ZM27.43 22.86H25.9V21.33H27.43V22.86Z" fill="currentColor"/>
<path d="M27.43 30.48H4.57001V32H27.43V30.48Z" fill="currentColor"/>
<path d="M25.9 16.76H24.38V18.29H25.9V16.76Z" fill="currentColor"/>
<path d="M25.9 13.71H24.38V15.24H25.9V13.71Z" fill="currentColor"/>
<path d="M25.9 10.67H24.38V12.19H25.9V10.67Z" fill="currentColor"/>
<path d="M22.85 10.67H21.33V24.38H22.85V10.67Z" fill="currentColor"/>
<path d="M21.33 24.38H4.57001V25.9H21.33V24.38Z" fill="currentColor"/>
<path d="M15.24 0H13.71V1.52H15.24V0Z" fill="currentColor"/>
<path d="M13.71 1.52H12.19V3.05H13.71V1.52Z" fill="currentColor"/>
<path d="M12.19 3.05H10.66V4.57H12.19V3.05Z" fill="currentColor"/>
<path d="M9.14 3.05H7.62V4.57H9.14V3.05Z" fill="currentColor"/>
<path d="M21.33 9.14H4.57001V10.67H21.33V9.14Z" fill="currentColor"/>
<path d="M7.62 1.52H6.09V3.05H7.62V1.52Z" fill="currentColor"/>
<path d="M6.09001 0H4.57001V1.52H6.09001V0Z" fill="currentColor"/>
<path d="M4.57 10.67H3.05V24.38H4.57V10.67Z" fill="currentColor"/>
<path d="M30.47 7.62V6.1H10.66V4.57H9.14V6.1H1.52V7.62H30.47Z" fill="currentColor"/>
<path d="M1.52 7.62H0V27.43H1.52V7.62Z" fill="currentColor"/>
</g>
<defs>
<clipPath id="clip0_1128_5572">
<rect width="32" height="32" fill="white"/>
</clipPath>
</defs>
</svg>
