<svg width="32" height="32" viewBox="0 0 32 32" fill="none" xmlns="http://www.w3.org/2000/svg">
<g clip-path="url(#clip0_1128_5490)">
<path d="M32 4.57501H30.48V6.09501H32V4.57501Z" fill="currentColor"/>
<path d="M30.48 15.235H27.43V16.765H28.95V21.335H25.9V19.815H24.38V22.855H28.95V27.435H30.48V22.855H32V21.335H30.48V15.235Z" fill="currentColor"/>
<path d="M30.4801 9.14496H28.9501V10.665H27.4301V12.195H28.9501V13.715H30.4801V12.195H32.0001V10.665H30.4801V9.14496Z" fill="currentColor"/>
<path d="M27.43 16.765H25.9V19.815H27.43V16.765Z" fill="currentColor"/>
<path d="M25.9 6.09497H24.38V7.62497H25.9V6.09497Z" fill="currentColor"/>
<path d="M24.38 12.195H22.86V15.235H24.38V12.195Z" fill="currentColor"/>
<path d="M12.19 25.905V18.285H10.67V22.855H9.14V24.385H7.62V27.435H9.14V28.955H22.86V27.435H24.38V24.385H22.86V22.855H21.33V18.285H19.81V25.905H12.19Z" fill="currentColor"/>
<path d="M22.86 15.235H21.33V16.765H22.86V15.235Z" fill="currentColor"/>
<path d="M22.86 10.665H21.33V12.195H22.86V10.665Z" fill="currentColor"/>
<path d="M21.3301 3.04498H19.8101V4.57498H21.3301V3.04498Z" fill="currentColor"/>
<path d="M19.81 16.765H18.29V18.285H19.81V16.765Z" fill="currentColor"/>
<path d="M19.81 10.665H18.29V12.195H19.81V10.665Z" fill="currentColor"/>
<path d="M18.29 19.815H16.76V21.335H18.29V19.815Z" fill="currentColor"/>
<path d="M18.29 22.855H13.71V24.385H18.29V22.855Z" fill="currentColor"/>
<path d="M18.29 15.235H13.71V16.765H18.29V15.235Z" fill="currentColor"/>
<path d="M15.24 19.815H13.71V21.335H15.24V19.815Z" fill="currentColor"/>
<path d="M13.7099 7.625V9.145H12.1899V10.665H13.7099V12.195H15.2399V10.665H16.7599V9.145H15.2399V7.625H13.7099Z" fill="currentColor"/>
<path d="M13.7099 16.765H12.1899V18.285H13.7099V16.765Z" fill="currentColor"/>
<path d="M12.19 12.195H9.14001V13.715H12.19V12.195Z" fill="currentColor"/>
<path d="M10.67 15.235H9.14001V16.765H10.67V15.235Z" fill="currentColor"/>
<path d="M10.67 3.04498H9.14001V4.57498H10.67V3.04498Z" fill="currentColor"/>
<path d="M9.14 13.715H7.62V15.235H9.14V13.715Z" fill="currentColor"/>
<path d="M3.05 15.235V16.765H4.57V21.335H1.52V19.815H0V22.855H4.57V25.905H6.1V22.855H7.62V21.335H6.1V15.235H3.05Z" fill="currentColor"/>
<path d="M7.61998 9.14496H6.09998V10.665H7.61998V9.14496Z" fill="currentColor"/>
<path d="M3.05002 16.765H1.52002V19.815H3.05002V16.765Z" fill="currentColor"/>
<path d="M1.52 4.57501V6.09501H0V7.62501H1.52V9.14501H3.05V7.62501H4.57V6.09501H3.05V4.57501H1.52Z" fill="currentColor"/>
</g>
<defs>
<clipPath id="clip0_1128_5490">
<rect width="32" height="32" fill="white"/>
</clipPath>
</defs>
</svg>
