<svg width="32" height="32" viewBox="0 0 32 32" fill="none" xmlns="http://www.w3.org/2000/svg">
<g clip-path="url(#clip0_1128_12166)">
<path d="M32 13.71H30.47V25.9H32V13.71Z" fill="currentColor"/>
<path d="M30.4699 25.9H28.95V27.43H30.4699V25.9Z" fill="currentColor"/>
<path d="M28.9501 18.29H27.4301V19.81H28.9501V18.29Z" fill="currentColor"/>
<path d="M22.85 27.43V22.86H25.9V21.33H6.09005V22.86H9.14005V27.43H3.05005V28.95H9.14005V32H22.85V28.95H28.9501V27.43H22.85ZM21.33 30.48H10.66V22.86H21.33V30.48Z" fill="currentColor"/>
<path d="M25.9 18.29H24.38V19.81H25.9V18.29Z" fill="currentColor"/>
<path d="M25.9 15.24H6.08997V16.76H25.9V15.24Z" fill="currentColor"/>
<path d="M19.8099 27.43H12.1899V28.95H19.8099V27.43Z" fill="currentColor"/>
<path d="M19.8099 24.38H12.1899V25.9H19.8099V24.38Z" fill="currentColor"/>
<path d="M4.57002 15.24H6.09002V13.71H25.9V15.24H27.43V13.71H30.47V12.19H27.43V7.62H25.9V6.1H22.85V1.52H21.33V3.05H19.81V1.52H21.33V0H9.14002V6.1H6.09002V7.62H4.57002V12.19H1.52002V13.71H4.57002V15.24ZM10.66 1.52H18.28V4.57H21.33V12.19H10.66V1.52Z" fill="currentColor"/>
<path d="M3.05002 25.9H1.52002V27.43H3.05002V25.9Z" fill="currentColor"/>
<path d="M1.52 13.71H0V25.9H1.52V13.71Z" fill="currentColor"/>
</g>
<defs>
<clipPath id="clip0_1128_12166">
<rect width="32" height="32" fill="white"/>
</clipPath>
</defs>
</svg>
