<svg width="32" height="32" viewBox="0 0 32 32" fill="none" xmlns="http://www.w3.org/2000/svg">
<g clip-path="url(#clip0_1135_2470)">
<path d="M28.95 16.76V18.29H32V13.72H30.48V16.76H28.95Z" fill="currentColor"/>
<path d="M32 1.53003H30.48V9.15003H32V1.53003Z" fill="currentColor"/>
<path d="M30.48 12.1899H28.95V13.7199H30.48V12.1899Z" fill="currentColor"/>
<path d="M28.95 21.34H27.43V27.43H28.95V21.34Z" fill="currentColor"/>
<path d="M27.43 10.67H21.34V12.19H24.38V19.81H25.91V16.76H28.95V15.24H25.91V12.19H28.95V10.67H30.48V9.15002H27.43V10.67Z" fill="currentColor"/>
<path d="M28.95 1.53H30.48V0H25.91V1.53H27.43V4.57H28.95V1.53Z" fill="currentColor"/>
<path d="M27.43 19.8101H25.91V21.3401H27.43V19.8101Z" fill="currentColor"/>
<path d="M27.43 27.4301H24.38V28.9601H27.43V27.4301Z" fill="currentColor"/>
<path d="M27.43 4.56995H24.38V6.09995H27.43V4.56995Z" fill="currentColor"/>
<path d="M24.38 28.96H21.34V30.48H24.38V28.96Z" fill="currentColor"/>
<path d="M24.38 3.05005H21.34V4.57005H24.38V3.05005Z" fill="currentColor"/>
<path d="M18.29 15.24V16.76H19.81V18.29H21.34V16.76H22.86V15.24H18.29Z" fill="currentColor"/>
<path d="M21.34 1.53003H18.29V3.05003H21.34V1.53003Z" fill="currentColor"/>
<path d="M21.34 30.48H10.67V32H21.34V30.48Z" fill="currentColor"/>
<path d="M10.67 21.34V25.91H12.19V22.86H13.72V25.91H12.19V27.43H19.81V25.91H18.29V22.86H19.81V25.91H21.34V21.34H10.67Z" fill="currentColor"/>
<path d="M21.34 9.15002H18.29V10.67H21.34V9.15002Z" fill="currentColor"/>
<path d="M18.29 7.62H16.76V9.14999H18.29V7.62Z" fill="currentColor"/>
<path d="M18.29 3.05005H16.76V4.57005H18.29V3.05005Z" fill="currentColor"/>
<path d="M16.76 4.56995H15.24V7.61995H16.76V4.56995Z" fill="currentColor"/>
<path d="M15.24 7.62H13.72V9.14999H15.24V7.62Z" fill="currentColor"/>
<path d="M15.24 3.05005H13.72V4.57005H15.24V3.05005Z" fill="currentColor"/>
<path d="M13.72 1.53003H10.67V3.05003H13.72V1.53003Z" fill="currentColor"/>
<path d="M10.67 18.29H12.19V16.76H13.72V15.24H9.15002V16.76H10.67V18.29Z" fill="currentColor"/>
<path d="M13.72 9.15002H10.67V10.67H13.72V9.15002Z" fill="currentColor"/>
<path d="M10.67 28.96H7.62V30.48H10.67V28.96Z" fill="currentColor"/>
<path d="M10.67 3.05005H7.62V4.57005H10.67V3.05005Z" fill="currentColor"/>
<path d="M7.62001 27.4301H4.57001V28.9601H7.62001V27.4301Z" fill="currentColor"/>
<path d="M7.62003 12.19H10.67V10.67H4.57003V9.15002H1.53003V10.67H3.05003V12.19H6.10003V15.24H3.05003V16.76H6.10003V19.81H7.62003V12.19Z" fill="currentColor"/>
<path d="M6.10001 19.8101H4.57001V21.3401H6.10001V19.8101Z" fill="currentColor"/>
<path d="M7.62001 4.56995H4.57001V6.09995H7.62001V4.56995Z" fill="currentColor"/>
<path d="M4.56999 21.34H3.04999V27.43H4.56999V21.34Z" fill="currentColor"/>
<path d="M3.05003 4.57H4.57003V1.53H6.10003V0H1.53003V1.53H3.05003V4.57Z" fill="currentColor"/>
<path d="M3.05003 12.1899H1.53003V13.7199H3.05003V12.1899Z" fill="currentColor"/>
<path d="M1.53 13.72H0V18.29H3.05V16.76H1.53V13.72Z" fill="currentColor"/>
<path d="M1.53 1.53003H0V9.15003H1.53V1.53003Z" fill="currentColor"/>
</g>
<defs>
<clipPath id="clip0_1135_2470">
<rect width="32" height="32" fill="white"/>
</clipPath>
</defs>
</svg>
