<svg width="32" height="32" viewBox="0 0 32 32" fill="none" xmlns="http://www.w3.org/2000/svg">
<g clip-path="url(#clip0_1128_4820)">
<path d="M32 21.33H30.47V22.86H32V21.33Z" fill="currentColor"/>
<path d="M30.47 13.72H24.38V7.62001H25.9V6.10001H24.38V4.57001H7.62V6.10001H6.09V7.62001H4.57V9.14001H3.05V10.67H1.52V12.19H0V16.76H1.52V15.24H9.14V18.29H10.66V21.33H12.19V24.38H13.71V27.43H15.24V15.24H21.33V18.29H19.81V21.33H18.28V24.38H16.76V27.43H15.24V28.95H13.71V30.48H15.24V32H16.76V30.48H18.28V28.95H19.81V27.43H21.33V25.91H22.86V24.38H24.38V22.86H25.9V21.33H27.43V19.81H28.95V18.29H30.47V16.76H32V12.19H30.47V13.72ZM21.33 13.72H10.66V12.19H9.14V6.10001H15.24V7.62001H16.76V9.14001H18.28V10.67H19.81V12.19H21.33V13.72Z" fill="currentColor"/>
<path d="M30.47 25.91H28.95V27.43H30.47V25.91Z" fill="currentColor"/>
<path d="M30.47 10.67H28.95V12.19H30.47V10.67Z" fill="currentColor"/>
<path d="M28.95 27.43H27.43V28.95H28.95V27.43Z" fill="currentColor"/>
<path d="M28.95 24.38H27.43V25.91H28.95V24.38Z" fill="currentColor"/>
<path d="M28.95 9.14001H27.43V10.67H28.95V9.14001Z" fill="currentColor"/>
<path d="M27.43 3.04999H25.9V4.56999H27.43V6.09999H28.95V4.56999H30.47V3.04999H28.95V1.51999H27.43V3.04999Z" fill="currentColor"/>
<path d="M27.43 25.91H25.9V27.43H27.43V25.91Z" fill="currentColor"/>
<path d="M27.43 7.62H25.9V9.14H27.43V7.62Z" fill="currentColor"/>
<path d="M24.38 30.48H22.86V32H24.38V30.48Z" fill="currentColor"/>
<path d="M24.38 0H22.86V1.52H24.38V0Z" fill="currentColor"/>
<path d="M15.24 7.62H13.71V9.14H15.24V7.62Z" fill="currentColor"/>
<path d="M15.24 1.51999H13.71V3.04999H15.24V1.51999Z" fill="currentColor"/>
<path d="M13.71 27.43H12.19V28.95H13.71V27.43Z" fill="currentColor"/>
<path d="M13.71 9.14001H12.19V10.67H13.71V9.14001Z" fill="currentColor"/>
<path d="M12.19 25.91H10.66V27.43H12.19V25.91Z" fill="currentColor"/>
<path d="M12.19 10.67H10.66V12.19H12.19V10.67Z" fill="currentColor"/>
<path d="M10.66 28.95H9.14001V30.48H10.66V28.95Z" fill="currentColor"/>
<path d="M10.66 24.38H9.14001V25.91H10.66V24.38Z" fill="currentColor"/>
<path d="M9.14 22.86H7.62V24.38H9.14V22.86Z" fill="currentColor"/>
<path d="M7.62003 21.33H6.09003V22.86H7.62003V21.33Z" fill="currentColor"/>
<path d="M6.09001 19.81H4.57001V21.33H6.09001V19.81Z" fill="currentColor"/>
<path d="M6.09001 3.04999H4.57001V4.56999H6.09001V3.04999Z" fill="currentColor"/>
<path d="M3.05002 24.38V25.91H1.52002V27.43H3.05002V28.95H4.57002V27.43H6.09002V25.91H4.57002V24.38H3.05002Z" fill="currentColor"/>
<path d="M4.56999 18.29H3.04999V19.81H4.56999V18.29Z" fill="currentColor"/>
<path d="M4.56999 4.57001H3.04999V6.10001H4.56999V4.57001Z" fill="currentColor"/>
<path d="M4.56999 1.51999H3.04999V3.04999H4.56999V1.51999Z" fill="currentColor"/>
<path d="M3.05002 16.76H1.52002V18.29H3.05002V16.76Z" fill="currentColor"/>
<path d="M3.05002 3.04999H1.52002V4.56999H3.05002V3.04999Z" fill="currentColor"/>
<path d="M1.52 21.33H0V22.86H1.52V21.33Z" fill="currentColor"/>
</g>
<defs>
<clipPath id="clip0_1128_4820">
<rect width="32" height="32" fill="white"/>
</clipPath>
</defs>
</svg>
