<svg width="32" height="32" viewBox="0 0 32 32" fill="none" xmlns="http://www.w3.org/2000/svg">
<path d="M29.7151 0H28.1851V1.52H29.7151V0Z" fill="currentColor"/>
<path d="M28.185 4.57001H26.665V6.09001H28.185V4.57001Z" fill="currentColor"/>
<path d="M28.185 1.52002H26.665V3.05002H28.185V1.52002Z" fill="currentColor"/>
<path d="M26.665 10.67H25.135V15.24H26.665V10.67Z" fill="currentColor"/>
<path d="M26.665 3.04999H25.135V4.56999H26.665V3.04999Z" fill="currentColor"/>
<path d="M25.135 15.24H23.615V18.28H25.135V15.24Z" fill="currentColor"/>
<path d="M25.135 7.62H23.615V10.67H25.135V7.62Z" fill="currentColor"/>
<path d="M25.135 4.57001H23.615V6.09001H25.135V4.57001Z" fill="currentColor"/>
<path d="M25.135 1.52002H23.615V3.05002H25.135V1.52002Z" fill="currentColor"/>
<path d="M23.6151 18.28H20.5651V19.81H23.6151V18.28Z" fill="currentColor"/>
<path d="M23.6151 6.09003H20.5651V7.62003H23.6151V6.09003Z" fill="currentColor"/>
<path d="M17.515 18.28H15.995V21.33H20.565V19.81H17.515V18.28Z" fill="currentColor"/>
<path d="M19.045 13.71H17.515V18.28H19.045V13.71Z" fill="currentColor"/>
<path d="M20.565 4.57001H15.995V6.09001H20.565V4.57001Z" fill="currentColor"/>
<path d="M17.515 10.67H15.995V13.71H17.515V10.67Z" fill="currentColor"/>
<path d="M15.995 9.14001H14.475V10.67H15.995V9.14001Z" fill="currentColor"/>
<path d="M15.9951 6.09003H12.9451V7.62003H15.9951V6.09003Z" fill="currentColor"/>
<path d="M15.9951 21.33H12.9451V22.86H15.9951V21.33Z" fill="currentColor"/>
<path d="M14.4751 18.28H12.9451V19.81H14.4751V18.28Z" fill="currentColor"/>
<path d="M12.945 15.24H11.425V18.28H12.945V15.24Z" fill="currentColor"/>
<path d="M8.37498 22.86V24.38H9.90498V27.43H6.85498V28.95H9.90498V32H11.425V28.95H14.475V27.43H11.425V24.38H12.945V22.86H8.37498Z" fill="currentColor"/>
<path d="M11.425 10.67H9.90503V15.24H11.425V10.67Z" fill="currentColor"/>
<path d="M11.425 10.67H12.945V7.62H8.375V9.14H11.425V10.67Z" fill="currentColor"/>
<path d="M8.37507 21.33H5.32507V22.86H8.37507V21.33Z" fill="currentColor"/>
<path d="M8.37507 9.14001H5.32507V10.67H8.37507V9.14001Z" fill="currentColor"/>
<path d="M5.32505 18.28H3.80505V21.33H5.32505V18.28Z" fill="currentColor"/>
<path d="M5.32505 10.67H3.80505V13.71H5.32505V10.67Z" fill="currentColor"/>
<path d="M3.80503 13.71H2.28503V18.28H3.80503V13.71Z" fill="currentColor"/>
</svg>
