<svg width="32" height="32" viewBox="0 0 32 32" fill="none" xmlns="http://www.w3.org/2000/svg">
<g clip-path="url(#clip0_1128_14351)">
<path d="M28.95 7.62V9.14H30.4799V10.67H28.95V12.19H32V7.62H28.95Z" fill="currentColor"/>
<path d="M30.4799 13.71H28.95V15.24H30.4799V13.71Z" fill="currentColor"/>
<path d="M30.4799 4.57001H28.95V6.09001H30.4799V4.57001Z" fill="currentColor"/>
<path d="M28.9501 15.24H27.4301V16.76H28.9501V15.24Z" fill="currentColor"/>
<path d="M28.9501 12.19H27.4301V13.71H28.9501V12.19Z" fill="currentColor"/>
<path d="M28.9501 6.09003H27.4301V7.62003H28.9501V6.09003Z" fill="currentColor"/>
<path d="M28.9501 3.04999H27.4301V4.56999H28.9501V3.04999Z" fill="currentColor"/>
<path d="M27.43 16.76H25.91V18.28H27.43V16.76Z" fill="currentColor"/>
<path d="M27.43 1.52002H25.91V3.05002H27.43V1.52002Z" fill="currentColor"/>
<path d="M25.91 15.24H24.38V16.76H25.91V15.24Z" fill="currentColor"/>
<path d="M25.91 3.04999H24.38V4.56999H25.91V3.04999Z" fill="currentColor"/>
<path d="M19.8101 0V3.05H21.3401V1.52H22.8601V3.05H24.3801V0H19.8101Z" fill="currentColor"/>
<path d="M22.86 25.9H21.34V27.43H22.86V25.9Z" fill="currentColor"/>
<path d="M19.8101 16.76V18.28H22.8601V21.33H19.8101V22.86H24.3801V16.76H19.8101Z" fill="currentColor"/>
<path d="M21.3401 27.43H19.8101V28.95H21.3401V27.43Z" fill="currentColor"/>
<path d="M21.3401 24.38H19.8101V25.9H21.3401V24.38Z" fill="currentColor"/>
<path d="M21.3401 13.71H19.8101V15.24H21.3401V13.71Z" fill="currentColor"/>
<path d="M19.81 12.19H21.34V13.71H24.38V12.19H25.91V7.62003H24.38V9.14003H22.86V7.62003H24.38V6.09003H19.81V7.62003H18.29V10.67H19.81V12.19Z" fill="currentColor"/>
<path d="M19.81 28.95H18.29V30.48H19.81V28.95Z" fill="currentColor"/>
<path d="M19.81 22.86H18.29V24.38H19.81V22.86Z" fill="currentColor"/>
<path d="M19.81 15.24H18.29V16.76H19.81V15.24Z" fill="currentColor"/>
<path d="M19.81 3.04999H18.29V4.56999H19.81V3.04999Z" fill="currentColor"/>
<path d="M18.29 27.43H16.76V28.95H18.29V27.43Z" fill="currentColor"/>
<path d="M18.29 10.67H16.76V12.19H18.29V10.67Z" fill="currentColor"/>
<path d="M18.29 1.52002H16.76V3.05002H18.29V1.52002Z" fill="currentColor"/>
<path d="M16.76 25.9H15.24V27.43H16.76V25.9Z" fill="currentColor"/>
<path d="M16.76 18.28H15.24V21.33H16.76V18.28Z" fill="currentColor"/>
<path d="M16.76 12.19H15.24V13.71H16.76V12.19Z" fill="currentColor"/>
<path d="M16.76 3.04999H15.24V4.56999H16.76V3.04999Z" fill="currentColor"/>
<path d="M13.72 30.48H10.67V27.43H9.15002V32H15.24V27.43H13.72V30.48Z" fill="currentColor"/>
<path d="M15.24 21.33H13.72V22.86H15.24V21.33Z" fill="currentColor"/>
<path d="M15.24 16.76H13.72V18.28H15.24V16.76Z" fill="currentColor"/>
<path d="M15.24 4.57001H13.72V6.09001H15.24V4.57001Z" fill="currentColor"/>
<path d="M13.72 15.24H10.67V16.76H13.72V15.24Z" fill="currentColor"/>
<path d="M13.72 22.86H10.67V24.38H13.72V22.86Z" fill="currentColor"/>
<path d="M10.67 21.33H9.15002V22.86H10.67V21.33Z" fill="currentColor"/>
<path d="M10.67 16.76H9.15002V18.28H10.67V16.76Z" fill="currentColor"/>
<path d="M10.67 9.14H13.72V12.19H15.24V7.62H9.15002V12.19H10.67V9.14Z" fill="currentColor"/>
<path d="M9.14999 25.9H7.62V27.43H9.14999V25.9Z" fill="currentColor"/>
<path d="M9.14999 18.28H7.62V21.33H9.14999V18.28Z" fill="currentColor"/>
<path d="M9.14999 12.19H7.62V13.71H9.14999V12.19Z" fill="currentColor"/>
<path d="M7.61998 27.43H6.09998V28.95H7.61998V27.43Z" fill="currentColor"/>
<path d="M7.61998 10.67H6.09998V12.19H7.61998V10.67Z" fill="currentColor"/>
<path d="M6.09995 28.95H4.56995V30.48H6.09995V28.95Z" fill="currentColor"/>
<path d="M6.09995 22.86H4.56995V24.38H6.09995V22.86Z" fill="currentColor"/>
<path d="M6.09995 15.24H4.56995V16.76H6.09995V15.24Z" fill="currentColor"/>
<path d="M6.09995 9.14001H4.56995V10.67H6.09995V9.14001Z" fill="currentColor"/>
<path d="M4.57005 27.43H3.05005V28.95H4.57005V27.43Z" fill="currentColor"/>
<path d="M4.57005 24.38H3.05005V25.9H4.57005V24.38Z" fill="currentColor"/>
<path d="M1.53 21.33V18.28H4.57V16.76H0V22.86H4.57V21.33H1.53Z" fill="currentColor"/>
<path d="M4.57005 13.71H3.05005V15.24H4.57005V13.71Z" fill="currentColor"/>
<path d="M4.57005 10.67H3.05005V12.19H4.57005V10.67Z" fill="currentColor"/>
<path d="M3.05003 25.9H1.53003V27.43H3.05003V25.9Z" fill="currentColor"/>
<path d="M3.05003 12.19H1.53003V13.71H3.05003V12.19Z" fill="currentColor"/>
</g>
<defs>
<clipPath id="clip0_1128_14351">
<rect width="32" height="32" fill="white"/>
</clipPath>
</defs>
</svg>
