<svg width="32" height="32" viewBox="0 0 32 32" fill="none" xmlns="http://www.w3.org/2000/svg">
<path d="M30.48 24.385H28.95V28.955H30.48V24.385Z" fill="currentColor"/>
<path d="M30.48 3.04504H28.95V7.62504H30.48V3.04504Z" fill="currentColor"/>
<path d="M28.95 1.52502H24.38V3.04502H28.95V1.52502Z" fill="currentColor"/>
<path d="M28.95 28.955H24.38V30.475H28.95V28.955Z" fill="currentColor"/>
<path d="M25.9 6.10004H6.09003V25.91H25.9V6.10004ZM19.81 13.72H21.33V18.29H16.76V16.77H19.81V13.72ZM13.71 7.63004H18.28V9.15004H13.71V7.63004ZM13.71 10.67H18.28V15.24H16.76V12.2H13.71V10.67ZM13.71 13.72H15.24V18.29H13.71V13.72ZM12.19 24.39H7.62003V19.82H12.19V24.39ZM12.19 16.77H9.14003V18.29H7.62003V13.72H9.14003V15.24H12.19V16.77ZM12.19 13.72H10.67V10.67H12.19V13.72ZM12.19 9.15004H9.14003V12.2H7.62003V7.62504H12.19V9.15004ZM18.28 24.39H16.76V22.86H18.28V24.39ZM18.28 21.34H15.24V24.39H13.71V19.82H18.28V21.34ZM24.38 24.39H19.81V19.82H24.38V24.39ZM24.38 18.29H22.86V13.72H24.38V18.29ZM24.38 12.2H19.81V7.62504H24.38V12.2Z" fill="currentColor"/>
<path d="M22.86 21.335H21.33V22.855H22.86V21.335Z" fill="currentColor"/>
<path d="M22.86 9.14502H21.33V10.665H22.86V9.14502Z" fill="currentColor"/>
<path d="M10.67 21.335H9.14001V22.855H10.67V21.335Z" fill="currentColor"/>
<path d="M7.62005 28.955H3.05005V30.475H7.62005V28.955Z" fill="currentColor"/>
<path d="M7.62005 1.52502H3.05005V3.04502H7.62005V1.52502Z" fill="currentColor"/>
<path d="M3.05002 24.385H1.52002V28.955H3.05002V24.385Z" fill="currentColor"/>
<path d="M3.05002 3.04504H1.52002V7.62504H3.05002V3.04504Z" fill="currentColor"/>
</svg>
