<svg width="32" height="32" viewBox="0 0 32 32" fill="none" xmlns="http://www.w3.org/2000/svg">
<g clip-path="url(#clip0_1128_14846)">
<path d="M32 3.04999H30.48V28.95H32V3.04999Z" fill="currentColor"/>
<path d="M30.48 28.95H28.96V30.47H30.48V28.95Z" fill="currentColor"/>
<path d="M28.9601 19.81H27.4301V22.85H28.9601V19.81Z" fill="currentColor"/>
<path d="M28.96 30.47H3.05005V32H28.96V30.47Z" fill="currentColor"/>
<path d="M27.43 22.85H25.91V24.38H27.43V22.85Z" fill="currentColor"/>
<path d="M27.43 18.28H25.91V19.81H27.43V18.28Z" fill="currentColor"/>
<path d="M25.91 10.66H24.38V18.28H25.91V10.66Z" fill="currentColor"/>
<path d="M25.9101 24.38H22.8601V25.9H25.9101V24.38Z" fill="currentColor"/>
<path d="M24.3801 21.33H22.8601V22.85H24.3801V21.33Z" fill="currentColor"/>
<path d="M22.8599 25.9H9.1499V27.43H22.8599V25.9Z" fill="currentColor"/>
<path d="M21.3401 4.57001H19.8101V6.09001H21.3401V4.57001Z" fill="currentColor"/>
<path d="M18.29 24.38V22.85H19.81V21.33H22.86V19.81H15.24V21.33H13.72V24.38H18.29Z" fill="currentColor"/>
<path d="M19.81 3.04999H13.72V4.56999H19.81V3.04999Z" fill="currentColor"/>
<path d="M13.7199 4.57001H10.6699V6.09001H13.7199V4.57001Z" fill="currentColor"/>
<path d="M10.6699 6.09003H9.1499V7.62003H10.6699V6.09003Z" fill="currentColor"/>
<path d="M9.15012 7.62H7.62012V10.66H9.15012V7.62Z" fill="currentColor"/>
<path d="M7.6201 10.66H6.1001V18.28H7.6201V10.66Z" fill="currentColor"/>
<path d="M6.10008 18.28H4.58008V19.81H6.10008V18.28Z" fill="currentColor"/>
<path d="M4.58 28.95V27.43H6.1V25.9H7.62V24.38H9.15V22.85H10.67V21.33H12.19V19.81H13.72V18.28H15.24V16.76H16.77V15.24H18.29V13.71H19.81V12.19H21.34V10.66H22.86V9.14H24.38V7.62H25.91V6.09H27.43V4.57H28.96V3.05H30.48V1.52H28.96V0H3.05V1.52H27.43V3.05H25.91V4.57H24.38V6.09H22.86V7.62H21.34V9.14H19.81V10.66H18.29V12.19H16.77V13.71H15.24V15.24H13.72V16.76H12.19V18.28H10.67V19.81H9.15V21.33H7.62V22.85H6.1V24.38H4.58V25.9H3.05V27.43H1.53V3.05H0V28.95H1.53V30.47H3.05V28.95H4.58Z" fill="currentColor"/>
<path d="M4.58005 19.81H3.05005V22.85H4.58005V19.81Z" fill="currentColor"/>
<path d="M3.05003 1.52002H1.53003V3.05002H3.05003V1.52002Z" fill="currentColor"/>
</g>
<defs>
<clipPath id="clip0_1128_14846">
<rect width="32" height="32" fill="white"/>
</clipPath>
</defs>
</svg>
