<svg width="32" height="32" viewBox="0 0 32 32" fill="none" xmlns="http://www.w3.org/2000/svg">
<g clip-path="url(#clip0_1128_7190)">
<path d="M32 29.71H28.95V31.24H32V29.71Z" fill="currentColor"/>
<path d="M30.4799 25.14H28.95V26.67H30.4799V25.14Z" fill="currentColor"/>
<path d="M28.9501 28.19H27.4301V29.71H28.9501V28.19Z" fill="currentColor"/>
<path d="M28.95 25.14V23.62H27.43V12.95H25.9V19.05H24.38V20.57H25.9V28.19H27.43V25.14H28.95Z" fill="currentColor"/>
<path d="M25.9 11.43H24.38V12.95H25.9V11.43Z" fill="currentColor"/>
<path d="M24.3801 14.48H22.8601V17.52H24.3801V14.48Z" fill="currentColor"/>
<path d="M24.3801 9.90002H21.3301V11.43H24.3801V9.90002Z" fill="currentColor"/>
<path d="M24.3801 20.57H7.62012V22.09H24.3801V20.57Z" fill="currentColor"/>
<path d="M22.8601 12.95H21.3301V14.48H22.8601V12.95Z" fill="currentColor"/>
<path d="M22.8599 17.52H9.13989V19.05H22.8599V17.52Z" fill="currentColor"/>
<path d="M19.81 29.71H18.28V31.24H19.81V29.71Z" fill="currentColor"/>
<path d="M19.81 25.14H18.28V28.19H19.81V25.14Z" fill="currentColor"/>
<path d="M19.81 14.48H16.76V16H19.81V14.48Z" fill="currentColor"/>
<path d="M15.24 23.62H13.71V29.71H15.24V23.62Z" fill="currentColor"/>
<path d="M13.7099 29.71H12.1899V31.24H13.7099V29.71Z" fill="currentColor"/>
<path d="M13.7099 9.90001V16H15.2399V9.90001H19.8099V8.38001H21.3299V6.86001H22.8599V5.33001H24.3799V0.76001H18.2799V2.29001H16.7599V3.81001H15.2399V5.33001H13.7099V8.38001H12.1899V9.90001H13.7099ZM16.7599 5.33001H18.2799V3.81001H19.8099V2.29001H21.3299V3.81001H19.8099V5.33001H18.2799V6.86001H16.7599V5.33001Z" fill="currentColor"/>
<path d="M12.1899 12.95H9.13989V14.48H12.1899V12.95Z" fill="currentColor"/>
<path d="M10.6699 25.14H9.13989V28.19H10.6699V25.14Z" fill="currentColor"/>
<path d="M10.6701 9.90002H7.62012V11.43H10.6701V9.90002Z" fill="currentColor"/>
<path d="M9.14012 14.48H7.62012V17.52H9.14012V14.48Z" fill="currentColor"/>
<path d="M6.09002 19.05V12.95H4.57002V25.14H1.52002V26.67H4.57002V28.19H6.09002V20.57H7.62002V19.05H6.09002Z" fill="currentColor"/>
<path d="M7.62009 11.43H6.09009V12.95H7.62009V11.43Z" fill="currentColor"/>
<path d="M6.09009 2.29004V6.86004H7.62009V8.38004H12.1901V5.33004H9.14009V3.81004H7.62009V2.29004H6.09009Z" fill="currentColor"/>
<path d="M4.57005 28.19H3.05005V29.71H4.57005V28.19Z" fill="currentColor"/>
<path d="M3.05002 29.71H1.52002V31.24H3.05002V29.71Z" fill="currentColor"/>
<path d="M1.52 23.62H0V25.14H1.52V23.62Z" fill="currentColor"/>
</g>
<defs>
<clipPath id="clip0_1128_7190">
<rect width="32" height="32" fill="white"/>
</clipPath>
</defs>
</svg>
