<svg width="32" height="32" viewBox="0 0 32 32" fill="none" xmlns="http://www.w3.org/2000/svg">
<g clip-path="url(#clip0_1128_3995)">
<path d="M30.48 18.29H28.95V16.77H27.43V15.24H25.91V13.72H24.38V12.2H22.86V13.72H21.33V15.24H19.81V16.77H16.76V15.24H15.24V16.77H12.19V15.24H10.67V13.72H9.14V12.2H7.62V13.72H6.1V15.24H4.57V16.77H3.05V18.29H1.52V19.81H0V22.86H1.52V28.9599H6.1V22.86H4.57V27.43H3.05V19.81H4.57V18.29H6.1V16.77H7.62V15.24H9.14V16.77H10.67V18.29H12.19V19.81H10.67V21.34H6.1V22.86H7.62V25.91H9.14V32H13.72V25.91H12.19V30.4799H10.67V22.86H12.19V21.34H13.72V19.81H15.24V18.29H16.76V19.81H18.29V21.34H19.81V22.86H21.33V30.4799H19.81V25.91H18.29V32H22.86V25.91H24.38V22.86H25.91V21.34H21.33V19.81H19.81V18.29H21.33V16.77H22.86V15.24H24.38V16.77H25.91V18.29H27.43V19.81H28.95V27.43H27.43V22.86H25.91V28.9599H30.48V22.86H32V19.81H30.48V18.29Z" fill="currentColor"/>
<path d="M18.29 24.39H13.72V25.91H18.29V24.39Z" fill="currentColor"/>
<path d="M13.72 0V1.53H12.19V3.05H10.67V7.62H12.19V10.67H13.72V12.2H15.24V13.72H16.76V12.2H18.29V10.67H19.81V7.62H21.33V3.05H19.81V1.53H18.29V0H13.72ZM18.29 6.1H16.76V7.62H15.24V6.1H13.72V4.58H15.24V3.05H16.76V4.58H18.29V6.1Z" fill="currentColor"/>
</g>
<defs>
<clipPath id="clip0_1128_3995">
<rect width="32" height="32" fill="white"/>
</clipPath>
</defs>
</svg>
