<svg width="32" height="32" viewBox="0 0 32 32" fill="none" xmlns="http://www.w3.org/2000/svg">
<path d="M30.475 3.05002H28.945V1.52002H24.375V3.05002H22.855V7.62002H24.375V9.14002H28.945V7.62002H30.475V3.05002Z" fill="currentColor"/>
<path d="M28.945 25.9H27.425V27.43H28.945V25.9Z" fill="currentColor"/>
<path d="M28.945 18.28H30.475V13.71H28.945V12.19H24.375V13.71H22.855V18.28H24.375V19.81H28.945V18.28Z" fill="currentColor"/>
<path d="M27.425 27.43H25.905V28.95H27.425V27.43Z" fill="currentColor"/>
<path d="M27.425 24.38H25.905V25.9H27.425V24.38Z" fill="currentColor"/>
<path d="M25.905 28.95H24.375V30.48H25.905V28.95Z" fill="currentColor"/>
<path d="M25.905 22.86H24.375V24.38H25.905V22.86Z" fill="currentColor"/>
<path d="M18.2851 30.48V28.95H19.8051V24.38H18.2851V22.86H13.7151V24.38H12.1851V28.95H13.7151V30.48H18.2851Z" fill="currentColor"/>
<path d="M19.8051 13.71H18.2851V12.19H13.7151V13.71H12.1851V18.28H13.7151V19.81H18.2851V18.28H19.8051V13.71Z" fill="currentColor"/>
<path d="M19.8051 3.05002H18.2851V1.52002H13.7151V3.05002H12.1851V7.62002H13.7151V9.14002H18.2851V7.62002H19.8051V3.05002Z" fill="currentColor"/>
<path d="M7.61497 28.95H6.09497V30.48H7.61497V28.95Z" fill="currentColor"/>
<path d="M7.61497 22.86H6.09497V24.38H7.61497V22.86Z" fill="currentColor"/>
<path d="M7.61502 18.28H9.14502V13.71H7.61502V12.19H3.04502V13.71H1.52502V18.28H3.04502V19.81H7.61502V18.28Z" fill="currentColor"/>
<path d="M9.14502 3.05002H7.61502V1.52002H3.04502V3.05002H1.52502V7.62002H3.04502V9.14002H7.61502V7.62002H9.14502V3.05002Z" fill="currentColor"/>
<path d="M6.09506 27.43H4.56506V28.95H6.09506V27.43Z" fill="currentColor"/>
<path d="M6.09506 24.38H4.56506V25.9H6.09506V24.38Z" fill="currentColor"/>
<path d="M4.56504 25.9H3.04504V27.43H4.56504V25.9Z" fill="currentColor"/>
</svg>
