<svg width="32" height="32" viewBox="0 0 32 32" fill="none" xmlns="http://www.w3.org/2000/svg">
<g clip-path="url(#clip0_1128_8136)">
<path d="M32 1.53H30.47V16.77H32V1.53Z" fill="currentColor"/>
<path d="M28.9501 19.81H27.4301V21.34H30.4701V16.77H28.9501V19.81Z" fill="currentColor"/>
<path d="M27.43 18.29H25.9V19.81H27.43V18.29Z" fill="currentColor"/>
<path d="M28.95 12.19H24.38V13.72H28.95V12.19Z" fill="currentColor"/>
<path d="M28.95 9.14999H24.38V10.67H28.95V9.14999Z" fill="currentColor"/>
<path d="M28.95 6.10001H25.9V7.62001H28.95V6.10001Z" fill="currentColor"/>
<path d="M28.95 3.05H21.33V4.58H28.95V3.05Z" fill="currentColor"/>
<path d="M25.9 16.77H24.38V18.29H25.9V16.77Z" fill="currentColor"/>
<path d="M22.86 15.24V10.67H21.33V25.91H22.86V16.77H24.38V15.24H22.86Z" fill="currentColor"/>
<path d="M24.3799 6.10001H12.1899V7.62001H24.3799V6.10001Z" fill="currentColor"/>
<path d="M21.33 25.91H15.24V27.43H21.33V25.91Z" fill="currentColor"/>
<path d="M19.81 3.05H15.24V4.58H19.81V3.05Z" fill="currentColor"/>
<path d="M4.56995 13.72V22.86H18.2799V13.72H4.56995ZM16.7599 16.77H15.2399V18.29H13.7099V19.81H9.13995V18.29H7.61995V16.77H6.08995V15.24H7.61995V16.77H9.13995V18.29H13.7099V16.77H15.2399V15.24H16.7599V16.77Z" fill="currentColor"/>
<path d="M13.7099 30.48H12.1899V32H15.2399V27.43H13.7099V30.48Z" fill="currentColor"/>
<path d="M13.7099 3.05H12.1899V4.58H13.7099V3.05Z" fill="currentColor"/>
<path d="M30.47 0H10.66V1.53H30.47V0Z" fill="currentColor"/>
<path d="M12.19 28.96H10.66V30.48H12.19V28.96Z" fill="currentColor"/>
<path d="M10.66 27.43H9.14001V28.96H10.66V27.43Z" fill="currentColor"/>
<path d="M9.14002 25.91H1.52002V27.43H9.14002V25.91Z" fill="currentColor"/>
<path d="M21.33 10.67V9.15H10.66V1.53H9.14002V9.15H1.52002V10.67H21.33Z" fill="currentColor"/>
<path d="M1.52 10.67H0V25.91H1.52V10.67Z" fill="currentColor"/>
</g>
<defs>
<clipPath id="clip0_1128_8136">
<rect width="32" height="32" fill="white"/>
</clipPath>
</defs>
</svg>
