<svg width="32" height="32" viewBox="0 0 32 32" fill="none" xmlns="http://www.w3.org/2000/svg">
<g clip-path="url(#clip0_1128_11907)">
<path d="M31.24 1.52H29.71V3.04H31.24V1.52Z" fill="currentColor"/>
<path d="M31.24 28.95H29.71V30.47H31.24V28.95Z" fill="currentColor"/>
<path d="M29.7101 3.04H28.1901V4.57H29.7101V3.04Z" fill="currentColor"/>
<path d="M31.2401 15.24H11.4301V16.76H31.2401V15.24Z" fill="currentColor"/>
<path d="M29.7101 27.43H28.1901V28.95H29.7101V27.43Z" fill="currentColor"/>
<path d="M29.7099 0H12.95V1.52H29.7099V0Z" fill="currentColor"/>
<path d="M28.19 4.57H26.67V6.09H28.19V4.57Z" fill="currentColor"/>
<path d="M28.19 25.9H26.67V27.43H28.19V25.9Z" fill="currentColor"/>
<path d="M26.67 6.09H25.14V7.62H26.67V6.09Z" fill="currentColor"/>
<path d="M26.67 24.38H25.14V25.9H26.67V24.38Z" fill="currentColor"/>
<path d="M25.14 7.62H23.62V9.14H25.14V7.62Z" fill="currentColor"/>
<path d="M25.14 22.85H23.62V24.38H25.14V22.85Z" fill="currentColor"/>
<path d="M23.62 9.14H22.09V10.66H23.62V9.14Z" fill="currentColor"/>
<path d="M23.62 21.33H22.09V22.85H23.62V21.33Z" fill="currentColor"/>
<path d="M22.0901 10.66H20.5701V12.19H22.0901V10.66Z" fill="currentColor"/>
<path d="M22.0901 19.81H20.5701V21.33H22.0901V19.81Z" fill="currentColor"/>
<path d="M20.57 9.14H19.05V10.66H20.57V9.14Z" fill="currentColor"/>
<path d="M20.57 21.33H19.05V22.85H20.57V21.33Z" fill="currentColor"/>
<path d="M19.05 7.62H17.52V9.14H19.05V7.62Z" fill="currentColor"/>
<path d="M19.05 22.85H17.52V24.38H19.05V22.85Z" fill="currentColor"/>
<path d="M17.52 6.09H16V7.62H17.52V6.09Z" fill="currentColor"/>
<path d="M17.52 24.38H16V25.9H17.52V24.38Z" fill="currentColor"/>
<path d="M16 4.57H14.48V6.09H16V4.57Z" fill="currentColor"/>
<path d="M16 25.9H14.48V27.43H16V25.9Z" fill="currentColor"/>
<path d="M29.7099 30.47H12.95V32H29.7099V30.47Z" fill="currentColor"/>
<path d="M14.48 3.04H12.95V4.57H14.48V3.04Z" fill="currentColor"/>
<path d="M14.48 27.43H12.95V28.95H14.48V27.43Z" fill="currentColor"/>
<path d="M12.9501 1.52H11.4301V3.04H12.9501V1.52Z" fill="currentColor"/>
<path d="M12.9501 28.95H11.4301V30.47H12.9501V28.95Z" fill="currentColor"/>
<path d="M5.33006 15.24H6.86006V13.71H8.38006V12.19H9.90006V10.66H11.4301V9.14H9.90006V7.62H8.38006V6.09H6.86006V4.57H5.33006V9.14H3.81006V10.66H5.33006V15.24Z" fill="currentColor"/>
<path d="M6.86006 22.85H3.81006V24.38H6.86006V22.85Z" fill="currentColor"/>
<path d="M3.81004 10.66H2.29004V12.19H3.81004V10.66Z" fill="currentColor"/>
<path d="M3.81004 21.33H2.29004V22.85H3.81004V21.33Z" fill="currentColor"/>
<path d="M2.29001 12.19H0.76001V21.33H2.29001V12.19Z" fill="currentColor"/>
</g>
<defs>
<clipPath id="clip0_1128_11907">
<rect width="32" height="32" fill="white"/>
</clipPath>
</defs>
</svg>
