<svg width="32" height="32" viewBox="0 0 32 32" fill="none" xmlns="http://www.w3.org/2000/svg">
<g clip-path="url(#clip0_1128_10538)">
<path d="M32 9.15002H30.48V10.67H32V9.15002Z" fill="currentColor"/>
<path d="M28.96 18.29H18.29V19.81H19.81V21.34H21.34V25.91H24.39V27.43H28.96V28.96H30.48V15.24H28.96V18.29Z" fill="currentColor"/>
<path d="M28.96 28.96H27.43V30.48H28.96V28.96Z" fill="currentColor"/>
<path d="M27.43 13.72V12.19H25.91V13.72H12.2V10.67H10.67V13.72H9.14999V15.24H28.96V13.72H27.43Z" fill="currentColor"/>
<path d="M28.96 6.09998H27.43V12.19H28.96V6.09998Z" fill="currentColor"/>
<path d="M28.96 1.53003H27.43V3.05003H28.96V1.53003Z" fill="currentColor"/>
<path d="M27.43 4.57001H24.39V6.10001H27.43V4.57001Z" fill="currentColor"/>
<path d="M27.43 30.48H24.39V32H27.43V30.48Z" fill="currentColor"/>
<path d="M25.91 9.15002H24.39V10.67H25.91V9.15002Z" fill="currentColor"/>
<path d="M24.39 6.09998H22.86V7.61998H24.39V6.09998Z" fill="currentColor"/>
<path d="M21.34 28.96V30.48H22.86V27.43H19.81V22.86H18.29V28.96H21.34Z" fill="currentColor"/>
<path d="M21.34 3.04999H19.81V4.56999H21.34V3.04999Z" fill="currentColor"/>
<path d="M18.29 28.96H16.77V30.48H10.67V28.96H9.15001V30.48H6.10001V32H21.34V30.48H18.29V28.96Z" fill="currentColor"/>
<path d="M18.29 21.34H16.77V22.86H18.29V21.34Z" fill="currentColor"/>
<path d="M24.39 10.67H15.24V12.19H24.39V10.67Z" fill="currentColor"/>
<path d="M16.77 24.38H15.24V27.43H16.77V24.38Z" fill="currentColor"/>
<path d="M22.86 7.62H13.72V9.14999H22.86V7.62Z" fill="currentColor"/>
<path d="M16.77 1.53003H15.24V3.05003H16.77V1.53003Z" fill="currentColor"/>
<path d="M15.24 22.86H12.2V24.38H15.24V22.86Z" fill="currentColor"/>
<path d="M15.24 3.04999H13.72V4.56999H15.24V3.04999Z" fill="currentColor"/>
<path d="M15.24 0H13.72V1.53H15.24V0Z" fill="currentColor"/>
<path d="M15.24 28.96V27.43H13.72V25.91H12.2V27.43H10.67V28.96H15.24Z" fill="currentColor"/>
<path d="M16.77 19.81H10.67V21.34H16.77V19.81Z" fill="currentColor"/>
<path d="M13.72 9.15002H12.2V10.67H13.72V9.15002Z" fill="currentColor"/>
<path d="M13.72 1.53003H12.2V3.05003H13.72V1.53003Z" fill="currentColor"/>
<path d="M12.2 24.38H10.67V25.91H12.2V24.38Z" fill="currentColor"/>
<path d="M10.67 21.34H9.14999V22.86H10.67V21.34Z" fill="currentColor"/>
<path d="M10.67 6.09998H9.14999V7.61998H10.67V6.09998Z" fill="currentColor"/>
<path d="M9.14999 22.86H7.62V28.96H9.14999V22.86Z" fill="currentColor"/>
<path d="M9.14999 15.24H7.62V18.29H9.14999V15.24Z" fill="currentColor"/>
<path d="M7.62001 19.81H6.10001V22.86H7.62001V19.81Z" fill="currentColor"/>
<path d="M7.62001 12.19H6.10001V13.72H7.62001V12.19Z" fill="currentColor"/>
<path d="M6.09999 28.96H4.57999V30.48H6.09999V28.96Z" fill="currentColor"/>
<path d="M4.57999 24.38H3.04999V28.96H4.57999V24.38Z" fill="currentColor"/>
<path d="M4.57999 21.34H3.04999V22.86H4.57999V21.34Z" fill="currentColor"/>
<path d="M6.1 19.81V18.29H4.58V15.24H3.05V18.29H1.53V19.81H6.1Z" fill="currentColor"/>
<path d="M4.58 9.15001V7.62001H6.1V6.10001H4.58V4.57001H3.05V6.10001H1.53V7.62001H3.05V9.15001H4.58Z" fill="currentColor"/>
<path d="M3.05 22.86H1.53V24.38H3.05V22.86Z" fill="currentColor"/>
<path d="M1.53 19.81H0V22.86H1.53V19.81Z" fill="currentColor"/>
<path d="M1.53 15.24H0V18.29H1.53V15.24Z" fill="currentColor"/>
</g>
<defs>
<clipPath id="clip0_1128_10538">
<rect width="32" height="32" fill="white"/>
</clipPath>
</defs>
</svg>
