<svg width="32" height="32" viewBox="0 0 32 32" fill="none" xmlns="http://www.w3.org/2000/svg">
<g clip-path="url(#clip0_1128_4898)">
<path d="M29.72 23.625H28.19V22.1H26.67V20.58H25.14V17.53H23.62V20.58H22.1V22.1H20.57V23.63H17.53V25.15H20.57V26.67H22.1V28.2H23.62V29.72H25.14V31.24H29.72V29.72H31.24V25.15H29.72V23.625ZM29.72 28.195H28.19V26.665H26.67V25.145H25.14V23.625H26.67V25.145H28.19V26.665H29.72V28.195Z" fill="currentColor"/>
<path d="M26.67 9.90503H25.14V17.525H26.67V9.90503Z" fill="currentColor"/>
<path d="M25.14 6.85504H23.62V9.90504H25.14V6.85504Z" fill="currentColor"/>
<path d="M23.62 5.33502H22.1V6.85502H23.62V5.33502Z" fill="currentColor"/>
<path d="M22.1 12.955H20.57V14.475H22.1V12.955Z" fill="currentColor"/>
<path d="M22.1 3.815H20.57V5.335H22.1V3.815Z" fill="currentColor"/>
<path d="M20.57 14.475H19.05V16.005H20.57V14.475Z" fill="currentColor"/>
<path d="M20.57 11.425H19.05V12.955H20.57V11.425Z" fill="currentColor"/>
<path d="M19.05 16.005H17.53V17.525H19.05V16.005Z" fill="currentColor"/>
<path d="M19.05 9.90503H17.53V11.425H19.05V9.90503Z" fill="currentColor"/>
<path d="M20.57 2.28503H17.53V3.81503H20.57V2.28503Z" fill="currentColor"/>
<path d="M17.53 25.145H9.91003V26.665H17.53V25.145Z" fill="currentColor"/>
<path d="M16 9.90503H14.48V12.955H16V9.90503Z" fill="currentColor"/>
<path d="M14.48 12.955H12.95V14.475H14.48V12.955Z" fill="currentColor"/>
<path d="M12.95 14.475H11.43V17.525H12.95V14.475Z" fill="currentColor"/>
<path d="M17.53 0.765015H9.91003V2.28501H17.53V0.765015Z" fill="currentColor"/>
<path d="M9.90999 23.625H6.85999V25.145H9.90999V23.625Z" fill="currentColor"/>
<path d="M9.91 16.005H8.38V17.525H9.91V16.005Z" fill="currentColor"/>
<path d="M9.91 9.90503H8.38V11.425H9.91V9.90503Z" fill="currentColor"/>
<path d="M9.90999 2.28503H6.85999V3.81503H9.90999V2.28503Z" fill="currentColor"/>
<path d="M8.37999 14.475H6.85999V16.005H8.37999V14.475Z" fill="currentColor"/>
<path d="M8.37999 11.425H6.85999V12.955H8.37999V11.425Z" fill="currentColor"/>
<path d="M6.86003 22.095H5.34003V23.625H6.86003V22.095Z" fill="currentColor"/>
<path d="M6.86003 12.955H5.34003V14.475H6.86003V12.955Z" fill="currentColor"/>
<path d="M6.86003 3.815H5.34003V5.335H6.86003V3.815Z" fill="currentColor"/>
<path d="M5.34 20.575H3.81V22.095H5.34V20.575Z" fill="currentColor"/>
<path d="M5.34 5.33502H3.81V6.85502H5.34V5.33502Z" fill="currentColor"/>
<path d="M3.81004 17.525H2.29004V20.575H3.81004V17.525Z" fill="currentColor"/>
<path d="M3.81004 6.85504H2.29004V9.90504H3.81004V6.85504Z" fill="currentColor"/>
<path d="M2.29001 9.90503H0.76001V17.525H2.29001V9.90503Z" fill="currentColor"/>
</g>
<defs>
<clipPath id="clip0_1128_4898">
<rect width="32" height="32" fill="white"/>
</clipPath>
</defs>
</svg>
