<svg width="32" height="32" viewBox="0 0 32 32" fill="none" xmlns="http://www.w3.org/2000/svg">
<path d="M30.475 12.1899H28.955V19.8099H30.475V12.1899Z" fill="currentColor"/>
<path d="M28.9549 19.8101H27.4349V22.8601H28.9549V19.8101Z" fill="currentColor"/>
<path d="M28.9549 10.67H27.4349V12.19H28.9549V10.67Z" fill="currentColor"/>
<path d="M27.4349 22.86H25.9049V24.38H27.4349V22.86Z" fill="currentColor"/>
<path d="M25.9049 24.38H24.3849V25.91H25.9049V24.38Z" fill="currentColor"/>
<path d="M27.4349 9.14001H24.3849V10.67H27.4349V9.14001Z" fill="currentColor"/>
<path d="M24.385 25.91H22.855V27.43H24.385V25.91Z" fill="currentColor"/>
<path d="M21.3349 7.62005H18.2849V9.14005H24.3849V7.62005H22.8549V3.05005H21.3349V7.62005Z" fill="currentColor"/>
<path d="M22.8549 27.4301H19.8149V28.9501H22.8549V27.4301Z" fill="currentColor"/>
<path d="M21.3349 1.52002H19.8149V3.05002H21.3349V1.52002Z" fill="currentColor"/>
<path d="M18.2848 18.29H16.7648V16.76H18.2848V15.24H13.7148V16.76H12.1948V19.81H13.7148V21.33H15.2448V25.91H16.7648V21.33H18.2848V19.81H19.8148V16.76H18.2848V18.29Z" fill="currentColor"/>
<path d="M19.8149 28.95H16.7649V30.4799H19.8149V28.95Z" fill="currentColor"/>
<path d="M18.2849 9.14001H16.7649V10.67H18.2849V9.14001Z" fill="currentColor"/>
<path d="M16.7649 30.48H15.2449V32H16.7649V30.48Z" fill="currentColor"/>
<path d="M16.7649 10.67H15.2449V12.19H16.7649V10.67Z" fill="currentColor"/>
<path d="M15.2448 28.95H12.1948V30.4799H15.2448V28.95Z" fill="currentColor"/>
<path d="M15.2448 9.14001H13.7148V10.67H15.2448V9.14001Z" fill="currentColor"/>
<path d="M19.8148 0H12.1948V1.52H19.8148V0Z" fill="currentColor"/>
<path d="M12.195 27.4301H9.14502V28.9501H12.195V27.4301Z" fill="currentColor"/>
<path d="M12.1948 1.52002H10.6648V3.05002H12.1948V1.52002Z" fill="currentColor"/>
<path d="M13.715 9.14005V7.62005H10.665V3.05005H9.145V7.62005H7.625V9.14005H13.715Z" fill="currentColor"/>
<path d="M9.145 25.91H7.625V27.43H9.145V25.91Z" fill="currentColor"/>
<path d="M7.62497 24.38H6.09497V25.91H7.62497V24.38Z" fill="currentColor"/>
<path d="M7.62495 9.14001H4.57495V10.67H7.62495V9.14001Z" fill="currentColor"/>
<path d="M6.09495 22.86H4.57495V24.38H6.09495V22.86Z" fill="currentColor"/>
<path d="M4.57492 19.8101H3.04492V22.8601H4.57492V19.8101Z" fill="currentColor"/>
<path d="M4.57492 10.67H3.04492V12.19H4.57492V10.67Z" fill="currentColor"/>
<path d="M3.0449 12.1899H1.5249V19.8099H3.0449V12.1899Z" fill="currentColor"/>
</svg>
