<svg width="32" height="32" viewBox="0 0 32 32" fill="none" xmlns="http://www.w3.org/2000/svg">
<g clip-path="url(#clip0_1128_10509)">
<path d="M31.24 12.19H29.72V16.77H31.24V12.19Z" fill="currentColor"/>
<path d="M29.72 10.67H28.19V12.19H29.72V10.67Z" fill="currentColor"/>
<path d="M29.72 16.77H25.15V32H29.72V16.77ZM28.19 30.48H26.67V28.96H28.19V30.48Z" fill="currentColor"/>
<path d="M28.19 9.15002H26.67V10.67H28.19V9.15002Z" fill="currentColor"/>
<path d="M26.67 10.67H25.15V12.19H26.67V10.67Z" fill="currentColor"/>
<path d="M25.15 12.19H23.62V16.77H25.15V12.19Z" fill="currentColor"/>
<path d="M17.53 18.29V32H22.1V18.29H20.57V13.72H22.1V12.19H20.57V10.67H22.1V9.15001H20.57V7.62001H22.1V6.10001H20.57V4.57001H19.05V6.10001H17.53V7.62001H19.05V9.15001H17.53V10.67H19.05V12.19H17.53V13.72H19.05V18.29H17.53ZM20.57 28.96V30.48H19.05V28.96H20.57Z" fill="currentColor"/>
<path d="M16 3.04999H14.48V9.14999H16V3.04999Z" fill="currentColor"/>
<path d="M14.48 9.15002H12.96V12.19H14.48V9.15002Z" fill="currentColor"/>
<path d="M14.48 1.53003H12.96V3.05003H14.48V1.53003Z" fill="currentColor"/>
<path d="M12.96 12.19H11.43V13.72H12.96V12.19Z" fill="currentColor"/>
<path d="M12.96 4.57001H11.43V6.10001H12.96V4.57001Z" fill="currentColor"/>
<path d="M9.91 15.24H6.86V13.72H5.34V32H11.43V13.72H9.91V15.24ZM9.91 30.48H8.38V28.96H9.91V30.48ZM9.91 27.43H8.38V18.29H9.91V27.43Z" fill="currentColor"/>
<path d="M9.91 9.15002H8.38V12.19H9.91V9.15002Z" fill="currentColor"/>
<path d="M11.43 6.09998H5.34V7.61998H11.43V6.09998Z" fill="currentColor"/>
<path d="M6.86 9.15002H5.34V10.67H6.86V9.15002Z" fill="currentColor"/>
<path d="M12.96 0H3.81V1.53H12.96V0Z" fill="currentColor"/>
<path d="M5.34 12.19H3.81V13.72H5.34V12.19Z" fill="currentColor"/>
<path d="M5.34 4.57001H3.81V6.10001H5.34V4.57001Z" fill="currentColor"/>
<path d="M3.81001 9.15002H2.29001V12.19H3.81001V9.15002Z" fill="currentColor"/>
<path d="M3.81001 1.53003H2.29001V3.05003H3.81001V1.53003Z" fill="currentColor"/>
<path d="M2.29001 3.04999H0.76001V9.14999H2.29001V3.04999Z" fill="currentColor"/>
</g>
<defs>
<clipPath id="clip0_1128_10509">
<rect width="32" height="32" fill="white"/>
</clipPath>
</defs>
</svg>
