<svg width="32" height="32" viewBox="0 0 32 32" fill="none" xmlns="http://www.w3.org/2000/svg">
<g clip-path="url(#clip0_1128_12797)">
<path d="M32 25.9H30.48V30.48H32V25.9Z" fill="currentColor"/>
<path d="M32 1.52H30.48V6.09H32V1.52Z" fill="currentColor"/>
<path d="M30.48 0H25.91V1.52H30.48V0Z" fill="currentColor"/>
<path d="M30.48 30.48H25.91V32H30.48V30.48Z" fill="currentColor"/>
<path d="M25.91 13.71H24.38V27.43H25.91V13.71Z" fill="currentColor"/>
<path d="M24.38 27.43H22.86V28.95H24.38V27.43Z" fill="currentColor"/>
<path d="M22.86 28.95H9.15002V30.48H22.86V28.95Z" fill="currentColor"/>
<path d="M21.3401 3.05H19.8101V4.57H21.3401V3.05Z" fill="currentColor"/>
<path d="M13.7199 22.86H15.2399V25.9H16.7599V22.86H18.2899V21.33H19.8099V18.28H18.2899V19.81H16.7599V18.28H18.2899V16.76H13.7199V18.28H12.1899V21.33H13.7199V22.86Z" fill="currentColor"/>
<path d="M19.8099 1.52H12.1899V3.05H19.8099V1.52Z" fill="currentColor"/>
<path d="M12.19 3.05H10.67V4.57H12.19V3.05Z" fill="currentColor"/>
<path d="M10.67 12.19V4.57001H9.14999V12.19H7.62V13.71H24.38V12.19H22.86V4.57001H21.34V12.19H10.67Z" fill="currentColor"/>
<path d="M9.14999 27.43H7.62V28.95H9.14999V27.43Z" fill="currentColor"/>
<path d="M7.61998 13.71H6.09998V27.43H7.61998V13.71Z" fill="currentColor"/>
<path d="M6.10003 30.48H1.53003V32H6.10003V30.48Z" fill="currentColor"/>
<path d="M6.10003 0H1.53003V1.52H6.10003V0Z" fill="currentColor"/>
<path d="M1.53 25.9H0V30.48H1.53V25.9Z" fill="currentColor"/>
<path d="M1.53 1.52H0V6.09H1.53V1.52Z" fill="currentColor"/>
</g>
<defs>
<clipPath id="clip0_1128_12797">
<rect width="32" height="32" fill="white"/>
</clipPath>
</defs>
</svg>
