<svg width="32" height="32" viewBox="0 0 32 32" fill="none" xmlns="http://www.w3.org/2000/svg">
<path d="M31.235 28.95H17.525V30.48H31.235V28.95Z" fill="currentColor"/>
<path d="M26.665 13.71H25.145V16.76H26.665V13.71Z" fill="currentColor"/>
<path d="M19.045 6.09H17.525V7.62H19.045V6.09Z" fill="currentColor"/>
<path d="M17.525 30.48H12.955V32H17.525V30.48Z" fill="currentColor"/>
<path d="M17.525 28.95V27.43H16.005V22.86H26.665V21.33H28.195V16.76H26.665V19.81H3.81503V16.76H2.28503V21.33H3.81503V22.86H14.475V27.43H12.955V28.95H17.525Z" fill="currentColor"/>
<path d="M17.525 16.76H12.955V18.28H17.525V16.76Z" fill="currentColor"/>
<path d="M16.005 6.09H14.475V7.62H16.005V6.09Z" fill="currentColor"/>
<path d="M12.955 28.95H0.765015V30.48H12.955V28.95Z" fill="currentColor"/>
<path d="M12.955 6.09H11.425V7.62H12.955V6.09Z" fill="currentColor"/>
<path d="M23.615 0H6.85504V1.52H23.615V0Z" fill="currentColor"/>
<path d="M25.145 13.71V1.52H23.615V12.19H6.85502V1.52H5.33502V13.71H25.145Z" fill="currentColor"/>
<path d="M5.335 13.71H3.815V16.76H5.335V13.71Z" fill="currentColor"/>
</svg>
