<svg width="32" height="32" viewBox="0 0 32 32" fill="none" xmlns="http://www.w3.org/2000/svg">
<g clip-path="url(#clip0_1128_19794)">
<path d="M1.52 22.86H3.04V25.9H4.57V27.43H6.09V28.95H9.14V30.48H12.19V32H19.81V30.48H22.85V28.95H25.9V27.43H27.42V25.9H28.95V22.86H30.47V19.81H32V12.19H30.47V9.14H28.95V6.09H27.42V4.57H25.9V3.05H22.85V1.52H19.81V0H12.19V1.52H9.14V3.05H6.09V4.57H4.57V6.09H3.04V9.14H1.52V12.19H0V19.81H1.52V22.86ZM6.09 7.62H25.9V18.29H24.38V19.81H22.85V21.33H21.33V22.86H15.23V24.38H13.71V25.9H12.19V27.43H9.14V24.38H7.61V21.33H6.09V7.62Z" fill="currentColor"/>
<path d="M24.38 10.67H9.14001V22.86H10.66V25.9H12.19V24.38H13.71V22.86H15.23V21.33H21.33V19.81H22.85V18.29H24.38V10.67ZM16.76 18.29H15.23V12.19H16.76V18.29ZM21.33 18.29H19.81V12.19H21.33V18.29Z" fill="currentColor"/>
</g>
<defs>
<clipPath id="clip0_1128_19794">
<rect width="32" height="32" fill="white"/>
</clipPath>
</defs>
</svg>
