<svg width="32" height="32" viewBox="0 0 32 32" fill="none" xmlns="http://www.w3.org/2000/svg">
<path d="M30.4801 8.38498H28.9501V9.90498H30.4801V8.38498Z" fill="currentColor"/>
<path d="M28.9501 9.905H27.4301V11.425H28.9501V9.905Z" fill="currentColor"/>
<path d="M25.9 19.045V20.575H28.95V17.525H27.43V19.045H25.9Z" fill="currentColor"/>
<path d="M27.43 15.995H25.9V17.525H27.43V15.995Z" fill="currentColor"/>
<path d="M27.43 11.425H25.9V12.955H27.43V11.425Z" fill="currentColor"/>
<path d="M28.95 6.85498H25.9V8.38498H28.95V6.85498Z" fill="currentColor"/>
<path d="M25.9 20.575H22.86V22.095H25.9V20.575Z" fill="currentColor"/>
<path d="M22.86 14.475H24.38V15.995H25.9V12.955H22.86V14.475Z" fill="currentColor"/>
<path d="M25.9 5.33499H22.86V6.85499H25.9V5.33499Z" fill="currentColor"/>
<path d="M22.8601 11.425H21.3301V12.955H22.8601V11.425Z" fill="currentColor"/>
<path d="M22.8601 3.80499H19.8101V5.33499H22.8601V3.80499Z" fill="currentColor"/>
<path d="M19.81 20.575H18.29V19.045H16.76V17.525H13.71V19.045H15.24V26.665H13.71V28.195H16.76V26.665H19.81V25.145H22.86V22.095H19.81V20.575Z" fill="currentColor"/>
<path d="M22.8601 14.475H19.8101V15.995H22.8601V14.475Z" fill="currentColor"/>
<path d="M21.33 9.905H18.29V11.425H21.33V9.905Z" fill="currentColor"/>
<path d="M19.81 5.33499H18.29V6.85499H19.81V5.33499Z" fill="currentColor"/>
<path d="M19.81 15.995H16.76V17.525H19.81V15.995Z" fill="currentColor"/>
<path d="M18.29 9.90498V6.85498H16.76V8.38498H15.24V6.85498H13.71V9.90498H18.29Z" fill="currentColor"/>
<path d="M13.71 25.145H10.67V26.665H13.71V25.145Z" fill="currentColor"/>
<path d="M13.7101 19.045H12.1901V20.575H13.7101V19.045Z" fill="currentColor"/>
<path d="M13.71 15.995H10.67V17.525H13.71V15.995Z" fill="currentColor"/>
<path d="M13.71 9.905H10.67V11.425H13.71V9.905Z" fill="currentColor"/>
<path d="M13.7101 5.33499H12.1901V6.85499H13.7101V5.33499Z" fill="currentColor"/>
<path d="M12.19 20.575H10.67V22.095H12.19V20.575Z" fill="currentColor"/>
<path d="M12.19 3.80499H9.14001V5.33499H12.19V3.80499Z" fill="currentColor"/>
<path d="M10.67 22.095H7.62V25.145H10.67V22.095Z" fill="currentColor"/>
<path d="M10.67 14.475H7.62V15.995H10.67V14.475Z" fill="currentColor"/>
<path d="M10.67 11.425H7.62V12.955H10.67V11.425Z" fill="currentColor"/>
<path d="M9.13998 5.33499H6.09998V6.85499H9.13998V5.33499Z" fill="currentColor"/>
<path d="M7.62007 20.575H4.57007V22.095H7.62007V20.575Z" fill="currentColor"/>
<path d="M7.61998 12.955H6.09998V14.475H7.61998V12.955Z" fill="currentColor"/>
<path d="M6.10007 14.475H4.57007V15.995H6.10007V14.475Z" fill="currentColor"/>
<path d="M6.10007 11.425H4.57007V12.955H6.10007V11.425Z" fill="currentColor"/>
<path d="M6.10005 6.85498H3.05005V8.38498H6.10005V6.85498Z" fill="currentColor"/>
<path d="M4.57002 19.045H3.05002V17.525H1.52002V20.575H4.57002V19.045Z" fill="currentColor"/>
<path d="M4.57005 15.995H3.05005V17.525H4.57005V15.995Z" fill="currentColor"/>
<path d="M4.57005 9.905H3.05005V11.425H4.57005V9.905Z" fill="currentColor"/>
<path d="M3.05002 8.38498H1.52002V9.90498H3.05002V8.38498Z" fill="currentColor"/>
</svg>
