<svg width="32" height="32" viewBox="0 0 32 32" fill="none" xmlns="http://www.w3.org/2000/svg">
<path d="M28.9501 16.76H27.4301V21.33H28.9501V16.76Z" fill="currentColor"/>
<path d="M28.9501 12.1899H27.4301V15.2399H28.9501V12.1899Z" fill="currentColor"/>
<path d="M27.43 21.33H25.9V24.38H27.43V21.33Z" fill="currentColor"/>
<path d="M27.43 10.67H25.9V12.19H27.43V10.67Z" fill="currentColor"/>
<path d="M25.9 24.38H24.38V25.91H25.9V24.38Z" fill="currentColor"/>
<path d="M27.43 15.24H24.38V16.76H27.43V15.24Z" fill="currentColor"/>
<path d="M25.9 9.14001H24.38V10.67H25.9V9.14001Z" fill="currentColor"/>
<path d="M22.8501 27.43H7.62007V25.91H6.09007V27.43H4.57007V32H25.9001V27.43H24.3801V25.91H22.8501V27.43ZM22.8501 30.48H19.8101V28.95H22.8501V30.48Z" fill="currentColor"/>
<path d="M24.3801 16.76H22.8501V19.81H24.3801V16.76Z" fill="currentColor"/>
<path d="M24.3801 13.71H22.8501V15.24H24.3801V13.71Z" fill="currentColor"/>
<path d="M22.8501 12.1899H19.8101V13.7099H22.8501V12.1899Z" fill="currentColor"/>
<path d="M22.85 19.8101H18.28V21.3301H22.85V19.8101Z" fill="currentColor"/>
<path d="M24.38 7.62H18.28V9.14H24.38V7.62Z" fill="currentColor"/>
<path d="M19.81 13.71H18.28V15.24H19.81V13.71Z" fill="currentColor"/>
<path d="M18.28 15.24H16.76V19.81H18.28V15.24Z" fill="currentColor"/>
<path d="M18.28 9.14001H16.76V10.67H18.28V9.14001Z" fill="currentColor"/>
<path d="M13.7101 13.71H15.2401V12.19H16.7601V10.67H15.2401V1.52002H13.7101V13.71Z" fill="currentColor"/>
<path d="M13.7101 13.71H12.1901V16.76H13.7101V13.71Z" fill="currentColor"/>
<path d="M13.71 0H10.66V1.52H13.71V0Z" fill="currentColor"/>
<path d="M10.66 13.71H9.14001V16.76H10.66V13.71Z" fill="currentColor"/>
<path d="M10.66 1.52002H9.14001V12.19H10.66V1.52002Z" fill="currentColor"/>
<path d="M9.14 0H7.62V1.52H9.14V0Z" fill="currentColor"/>
<path d="M7.62009 15.24H6.09009V18.29H7.62009V15.24Z" fill="currentColor"/>
<path d="M6.09007 13.71H7.62007V1.52002H6.09007V4.57002H4.57007V6.10002H6.09007V13.71Z" fill="currentColor"/>
<path d="M6.09007 22.86H4.57007V25.91H6.09007V22.86Z" fill="currentColor"/>
<path d="M4.57005 6.09998H3.05005V22.86H4.57005V6.09998Z" fill="currentColor"/>
</svg>
