<svg width="32" height="32" viewBox="0 0 32 32" fill="none" xmlns="http://www.w3.org/2000/svg">
<g clip-path="url(#clip0_1135_3152)">
<path d="M30.47 7.60999H28.95V10.66H25.9V12.19H22.85V13.71H25.9V18.28H24.38V19.81H25.9V22.85H27.42V12.19H28.95V25.9H27.42V32H32V25.9H30.47V7.60999Z" fill="currentColor"/>
<path d="M28.95 6.08997H25.9V7.60997H28.95V6.08997Z" fill="currentColor"/>
<path d="M25.9 22.85H24.38V24.38H25.9V22.85Z" fill="currentColor"/>
<path d="M25.9 9.14001H19.8V10.66H25.9V9.14001Z" fill="currentColor"/>
<path d="M25.9 4.56995H22.85V6.08995H25.9V4.56995Z" fill="currentColor"/>
<path d="M24.38 24.38H21.33V25.9H24.38V24.38Z" fill="currentColor"/>
<path d="M24.38 19.8101H21.33V21.3301H24.38V19.8101Z" fill="currentColor"/>
<path d="M22.85 13.71H19.8V15.23H22.85V13.71Z" fill="currentColor"/>
<path d="M22.85 3.04004H19.8V4.57004H22.85V3.04004Z" fill="currentColor"/>
<path d="M21.33 25.9H9.14001V27.42H21.33V25.9Z" fill="currentColor"/>
<path d="M21.33 21.33H9.14001V22.85H21.33V21.33Z" fill="currentColor"/>
<path d="M19.8 15.23H16.76V16.76H19.8V15.23Z" fill="currentColor"/>
<path d="M19.8 7.60999H13.71V9.13999H19.8V7.60999Z" fill="currentColor"/>
<path d="M19.8 1.52002H16.76V3.04002H19.8V1.52002Z" fill="currentColor"/>
<path d="M16.76 0H13.71V1.52H16.76V0Z" fill="currentColor"/>
<path d="M16.76 16.76H13.71V18.28H16.76V16.76Z" fill="currentColor"/>
<path d="M13.71 1.52002H10.66V3.04002H13.71V1.52002Z" fill="currentColor"/>
<path d="M13.71 15.23H10.66V16.76H13.71V15.23Z" fill="currentColor"/>
<path d="M10.66 3.04004H7.60999V4.57004H10.66V3.04004Z" fill="currentColor"/>
<path d="M9.13997 24.38H6.08997V25.9H9.13997V24.38Z" fill="currentColor"/>
<path d="M9.13997 19.8101H6.08997V21.3301H9.13997V19.8101Z" fill="currentColor"/>
<path d="M10.66 13.71H7.60999V15.23H10.66V13.71Z" fill="currentColor"/>
<path d="M7.60995 4.56995H4.56995V6.08995H7.60995V4.56995Z" fill="currentColor"/>
<path d="M6.08995 22.85H4.56995V24.38H6.08995V22.85Z" fill="currentColor"/>
<path d="M6.09002 19.81V18.28H4.57002V13.71H7.61002V12.19H4.57002V10.66H1.52002V12.19H3.04002V22.85H4.57002V19.81H6.09002Z" fill="currentColor"/>
<path d="M4.57002 6.08997H1.52002V7.60997H4.57002V6.08997Z" fill="currentColor"/>
<path d="M1.52 7.60999H0V10.66H1.52V7.60999Z" fill="currentColor"/>
</g>
<defs>
<clipPath id="clip0_1135_3152">
<rect width="32" height="32" fill="white"/>
</clipPath>
</defs>
</svg>
