<svg width="32" height="32" viewBox="0 0 32 32" fill="none" xmlns="http://www.w3.org/2000/svg">
<g clip-path="url(#clip0_1135_3623)">
<path d="M30.48 10.66H21.33V12.19H19.81V13.71H18.29V15.23H16.76V4.57H18.29V1.52H16.76V0H15.24V1.52H13.71V4.57H12.19V7.62H10.67V10.66H1.52V12.19H0V13.71H1.52V15.23H3.05V16.76H6.1V18.28H7.62V21.33H9.14V19.81H12.19V18.28H15.24V19.81H13.71V21.33H12.19V22.85H10.67V24.38H9.14V25.9H7.62V27.43H6.1V28.95H4.57V27.43H3.05V30.47H4.57V32H7.62V30.47H9.14V28.95H12.19V27.43H13.71V25.9H15.24V24.38H16.76V19.81H18.29V21.33H19.81V22.85H21.33V24.38H22.86V25.9H24.38V27.43H25.9V30.47H24.38V32H27.43V30.47H28.95V27.43H27.43V24.38H25.9V21.33H24.38V18.28H25.9V16.76H22.86V18.28H16.76V16.76H21.33V15.23H22.86V13.71H28.95V15.23H30.48V13.71H32V12.19H30.48V10.66ZM13.71 16.76H10.67V15.23H7.62V13.71H4.57V12.19H12.19V13.71H13.71V16.76Z" fill="currentColor"/>
<path d="M28.95 15.23H25.9V16.76H28.95V15.23Z" fill="currentColor"/>
<path d="M24.38 28.95H22.86V30.4699H24.38V28.95Z" fill="currentColor"/>
<path d="M22.8601 27.4301H19.8101V28.9501H22.8601V27.4301Z" fill="currentColor"/>
<path d="M21.3301 7.62H19.8101V10.66H21.3301V7.62Z" fill="currentColor"/>
<path d="M19.81 25.9H18.29V27.43H19.81V25.9Z" fill="currentColor"/>
<path d="M19.81 4.56995H18.29V7.61995H19.81V4.56995Z" fill="currentColor"/>
<path d="M18.29 24.38H16.76V25.9H18.29V24.38Z" fill="currentColor"/>
<path d="M7.61998 21.33H6.09998V24.38H7.61998V21.33Z" fill="currentColor"/>
<path d="M6.09995 24.38H4.56995V27.43H6.09995V24.38Z" fill="currentColor"/>
</g>
<defs>
<clipPath id="clip0_1135_3623">
<rect width="32" height="32" fill="white"/>
</clipPath>
</defs>
</svg>
