<svg width="32" height="32" viewBox="0 0 32 32" fill="none" xmlns="http://www.w3.org/2000/svg">
<path d="M20.575 7.62002H22.095V9.14002H23.615V10.66H25.145V9.14002H26.665V7.62002H28.195V6.09002H29.715V3.04002H28.195V1.52002H26.665V3.04002H25.145V4.57002H23.615V3.04002H22.095V1.52002H20.575V3.04002H19.045V6.09002H20.575V7.62002Z" fill="currentColor"/>
<path d="M16.005 15.23H14.475V24.38H16.005V15.23Z" fill="currentColor"/>
<path d="M14.4751 13.71H12.9551V15.23H14.4751V13.71Z" fill="currentColor"/>
<path d="M12.9551 18.28H11.4251V21.33H6.85505V18.28H5.33505V24.38H3.80505V25.9H5.33505V32H8.38505V27.42H9.90505V32H12.9551V25.9H14.4751V24.38H12.9551V18.28Z" fill="currentColor"/>
<path d="M12.955 12.19H11.425V13.71H12.955V12.19Z" fill="currentColor"/>
<path d="M12.955 9.14001H11.425V10.66H12.955V9.14001Z" fill="currentColor"/>
<path d="M9.90501 13.71H8.38501V18.28H9.90501V13.71Z" fill="currentColor"/>
<path d="M11.425 10.66H6.85498V12.19H11.425V10.66Z" fill="currentColor"/>
<path d="M6.85508 12.19H5.33508V13.71H6.85508V12.19Z" fill="currentColor"/>
<path d="M6.85508 9.14001H5.33508V10.66H6.85508V9.14001Z" fill="currentColor"/>
<path d="M5.33505 13.71H3.80505V15.23H5.33505V13.71Z" fill="currentColor"/>
<path d="M6.85505 6.09V4.57H11.4251V6.09H12.9551V9.14H14.4751V3.04H12.9551V1.52H11.4251V0H6.85505V1.52H5.33505V3.04H3.80505V9.14H5.33505V6.09H6.85505Z" fill="currentColor"/>
<path d="M3.80503 15.23H2.28503V24.38H3.80503V15.23Z" fill="currentColor"/>
</svg>
