<svg width="32" height="32" viewBox="0 0 32 32" fill="none" xmlns="http://www.w3.org/2000/svg">
<g clip-path="url(#clip0_1128_6600)">
<path d="M1.53 30.48H9.15V32H10.67V30.48H21.34V32H22.86V30.48H30.48V32H32V0H0V32H1.53V30.48ZM22.86 12.19H24.39V10.67H25.91V9.14H27.43V10.67H28.96V12.19H30.48V18.29H22.86V12.19ZM21.34 28.95H12.2V21.33H21.34V28.95ZM15.24 19.81V16.76H16.77V19.81H15.24ZM21.34 19.81H19.81V15.24H18.29V13.72H21.34V19.81ZM19.81 1.52H21.34V6.1H19.81V1.52ZM19.81 7.62H21.34V12.19H19.81V7.62ZM16.77 1.52H18.29V3.05H16.77V1.52ZM16.77 4.57H18.29V6.1H16.77V4.57ZM16.77 7.62H18.29V12.19H16.77V7.62ZM16.77 15.24H15.24V13.72H16.77V15.24ZM13.72 1.52H15.24V6.1H13.72V1.52ZM13.72 7.62H15.24V12.19H13.72V7.62ZM10.67 1.52H12.2V6.1H10.67V1.52ZM1.53 1.52H6.1V3.05H7.62V6.1H4.58V4.57H3.05V6.1H1.53V1.52ZM1.53 7.62H10.67V9.14H12.2V12.19H9.15V10.67H7.62V12.19H1.53V7.62ZM1.53 13.72H13.72V19.81H9.15V18.29H7.62V16.76H12.2V15.24H4.58V16.76H1.53V13.72ZM1.53 18.29H3.05V19.81H1.53V18.29ZM1.53 21.33H10.67V28.95H1.53V21.33Z" fill="currentColor"/>
<path d="M28.96 13.72V12.19H27.43V10.67H25.91V12.19H24.39V13.72H28.96Z" fill="currentColor"/>
<path d="M15.24 22.86H13.72V27.43H15.24V22.86Z" fill="currentColor"/>
<path d="M10.67 9.14001H9.15002V10.67H10.67V9.14001Z" fill="currentColor"/>
<path d="M9.14999 22.86H7.62V27.43H9.14999V22.86Z" fill="currentColor"/>
<path d="M6.09996 3.04999H4.57996V4.56999H6.09996V3.04999Z" fill="currentColor"/>
</g>
<defs>
<clipPath id="clip0_1128_6600">
<rect width="32" height="32" fill="white"/>
</clipPath>
</defs>
</svg>
