<svg width="32" height="32" viewBox="0 0 32 32" fill="none" xmlns="http://www.w3.org/2000/svg">
<g clip-path="url(#clip0_1135_4010)">
<path d="M30.47 12.19H28.95V10.66H27.43V9.13997H25.9V12.19H24.38V13.71H22.86V9.13997H25.9V7.61997H18.28V6.08997H16.76V16.76H1.52V6.08997H0V22.85H1.52V18.28H16.76V22.85H10.66V21.33H9.14V25.9H10.66V24.38H19.81V25.9H21.33V21.33H19.81V22.85H18.28V9.13997H21.33V15.24H22.86V16.76H30.47V22.85H32V13.71H30.47V12.19Z" fill="currentColor"/>
<path d="M27.43 21.33H25.9V25.9H27.43V24.38H30.47V22.85H27.43V21.33Z" fill="currentColor"/>
<path d="M25.9 25.8999H21.33V27.4299H25.9V25.8999Z" fill="currentColor"/>
<path d="M24.38 22.85H22.86V24.38H24.38V22.85Z" fill="currentColor"/>
<path d="M25.9 19.8099H21.33V21.3299H25.9V19.8099Z" fill="currentColor"/>
<path d="M9.14001 19.8099H4.57001V21.3299H9.14001V19.8099Z" fill="currentColor"/>
<path d="M9.14001 25.8999H4.57001V27.4299H9.14001V25.8999Z" fill="currentColor"/>
<path d="M7.62 22.85H6.09V24.38H7.62V22.85Z" fill="currentColor"/>
<path d="M15.24 12.1899H3.04999V13.7099H15.24V12.1899Z" fill="currentColor"/>
<path d="M15.24 9.13989H3.04999V10.6599H15.24V9.13989Z" fill="currentColor"/>
<path d="M4.56999 21.33H3.04999V22.85H1.51999V24.38H3.04999V25.9H4.56999V21.33Z" fill="currentColor"/>
<path d="M16.76 4.56995H1.51999V6.08995H16.76V4.56995Z" fill="currentColor"/>
</g>
<defs>
<clipPath id="clip0_1135_4010">
<rect width="32" height="32" fill="white"/>
</clipPath>
</defs>
</svg>
