<svg width="32" height="32" viewBox="0 0 32 32" fill="none" xmlns="http://www.w3.org/2000/svg">
<path d="M25.14 22.86V15.24H26.67V12.19H25.14V9.14H23.62V22.86H25.14Z" fill="currentColor"/>
<path d="M23.62 22.86H22.09V24.38H23.62V22.86Z" fill="currentColor"/>
<path d="M23.62 7.62H22.09V9.14H23.62V7.62Z" fill="currentColor"/>
<path d="M22.09 12.19H20.57V19.81H22.09V12.19Z" fill="currentColor"/>
<path d="M19.05 32V30.48H20.57V28.95H22.09V27.43H8.37997V28.95H9.89997V30.48H11.43V32H19.05Z" fill="currentColor"/>
<path d="M22.09 24.38H8.37997V25.9H22.09V24.38Z" fill="currentColor"/>
<path d="M20.57 19.81H19.05V21.33H20.57V19.81Z" fill="currentColor"/>
<path d="M20.57 10.67H19.05V12.19H20.57V10.67Z" fill="currentColor"/>
<path d="M19.05 13.71H17.52V18.29H19.05V13.71Z" fill="currentColor"/>
<path d="M19.05 9.14H14.48V10.67H19.05V9.14Z" fill="currentColor"/>
<path d="M19.05 21.33H11.43V22.86H19.05V21.33Z" fill="currentColor"/>
<path d="M17.52 12.19H14.48V13.71H17.52V12.19Z" fill="currentColor"/>
<path d="M17.52 18.29H12.95V19.81H17.52V18.29Z" fill="currentColor"/>
<path d="M16 15.24H14.48V16.76H16V15.24Z" fill="currentColor"/>
<path d="M11.43 19.81H9.89999V21.33H11.43V19.81Z" fill="currentColor"/>
<path d="M22.09 6.1H8.37997V7.62H22.09V6.1Z" fill="currentColor"/>
<path d="M11.43 0V1.52H9.89997V3.05H8.37997V4.57H22.09V3.05H20.57V1.52H19.05V0H11.43Z" fill="currentColor"/>
<path d="M8.37999 22.86H6.85999V24.38H8.37999V22.86Z" fill="currentColor"/>
<path d="M8.37999 7.62H6.85999V9.14H8.37999V7.62Z" fill="currentColor"/>
<path d="M6.85999 9.14H5.32999V22.86H6.85999V9.14Z" fill="currentColor"/>
</svg>
