<svg width="32" height="32" viewBox="0 0 32 32" fill="none" xmlns="http://www.w3.org/2000/svg">
<g clip-path="url(#clip0_1128_7452)">
<path d="M30.48 28.96H24.38V25.91H27.43V24.38H24.38V22.86H25.91V21.34H24.38V18.29H27.43V16.77H24.38V15.24H22.86V16.77H19.81V18.29H22.86V21.34H21.33V22.86H22.86V24.38H19.81V25.91H22.86V28.96H9.14V25.91H12.19V24.38H9.14V22.86H10.67V21.34H9.14V18.29H12.19V16.77H9.14V15.24H10.67V13.72H9.14V10.67H7.62V13.72H6.1V15.24H7.62V16.77H4.57V18.29H7.62V21.34H6.1V22.86H7.62V24.38H4.57V25.91H7.62V28.96H1.52V30.48H0V32H32V30.48H30.48V28.96Z" fill="currentColor"/>
<path d="M27.43 24.38H28.95V19.81H25.91V21.34H27.43V24.38Z" fill="currentColor"/>
<path d="M27.43 16.77H28.95V12.19H25.91V13.72H27.43V16.77Z" fill="currentColor"/>
<path d="M28.9501 4.57001H27.4301V6.10001H28.9501V4.57001Z" fill="currentColor"/>
<path d="M27.43 7.62H25.91V9.14999H27.43V7.62Z" fill="currentColor"/>
<path d="M27.43 1.53003H25.91V3.05003H27.43V1.53003Z" fill="currentColor"/>
<path d="M25.91 13.72H24.38V15.24H25.91V13.72Z" fill="currentColor"/>
<path d="M24.38 9.15002H22.86V10.67H24.38V9.15002Z" fill="currentColor"/>
<path d="M24.38 0H22.86V1.53H24.38V0Z" fill="currentColor"/>
<path d="M22.86 13.72H21.33V15.24H22.86V13.72Z" fill="currentColor"/>
<path d="M25.91 3.04999H21.33V7.61999H25.91V3.04999Z" fill="currentColor"/>
<path d="M21.3301 7.62H19.8101V9.14999H21.3301V7.62Z" fill="currentColor"/>
<path d="M21.3301 1.53003H19.8101V3.05003H21.3301V1.53003Z" fill="currentColor"/>
<path d="M21.33 21.34V19.81H18.29V24.38H19.81V21.34H21.33Z" fill="currentColor"/>
<path d="M21.33 13.72V12.19H18.29V16.77H19.81V13.72H21.33Z" fill="currentColor"/>
<path d="M19.81 4.57001H18.29V6.10001H19.81V4.57001Z" fill="currentColor"/>
<path d="M12.19 24.38H13.72V19.81H10.67V21.34H12.19V24.38Z" fill="currentColor"/>
<path d="M12.19 16.77H13.72V12.19H10.67V13.72H12.19V16.77Z" fill="currentColor"/>
<path d="M12.19 7.62H10.67V9.14999H12.19V7.62Z" fill="currentColor"/>
<path d="M10.67 9.15002H9.14001V10.67H10.67V9.15002Z" fill="currentColor"/>
<path d="M7.61998 9.15002H6.09998V10.67H7.61998V9.15002Z" fill="currentColor"/>
<path d="M6.09995 7.62H4.56995V9.14999H6.09995V7.62Z" fill="currentColor"/>
<path d="M6.10005 21.34V19.81H3.05005V24.38H4.57005V21.34H6.10005Z" fill="currentColor"/>
<path d="M6.10005 13.72V12.19H3.05005V16.77H4.57005V13.72H6.10005Z" fill="currentColor"/>
</g>
<defs>
<clipPath id="clip0_1128_7452">
<rect width="32" height="32" fill="white"/>
</clipPath>
</defs>
</svg>
