<svg width="32" height="32" viewBox="0 0 32 32" fill="none" xmlns="http://www.w3.org/2000/svg">
<path d="M28.19 27.4301H26.67V32.0001H28.19V27.4301Z" fill="currentColor"/>
<path d="M26.67 25.91H25.14V27.43H26.67V25.91Z" fill="currentColor"/>
<path d="M25.1401 27.4301H23.6201V28.9501H25.1401V27.4301Z" fill="currentColor"/>
<path d="M25.1401 24.38H23.6201V25.91H25.1401V24.38Z" fill="currentColor"/>
<path d="M23.6201 28.95H22.0901V30.4799H23.6201V28.95Z" fill="currentColor"/>
<path d="M23.6201 22.86H20.5701V24.38H23.6201V22.86Z" fill="currentColor"/>
<path d="M23.6201 10.67H22.0901V15.24H23.6201V10.67Z" fill="currentColor"/>
<path d="M22.0901 30.48H20.5701V32H22.0901V30.48Z" fill="currentColor"/>
<path d="M22.0901 15.24H20.5701V16.76H22.0901V15.24Z" fill="currentColor"/>
<path d="M22.09 9.14001H19.05V10.67H22.09V9.14001Z" fill="currentColor"/>
<path d="M20.57 24.38H19.05V25.91H20.57V24.38Z" fill="currentColor"/>
<path d="M20.57 21.33H17.52V22.86H20.57V21.33Z" fill="currentColor"/>
<path d="M20.57 16.76H19.05V18.29H20.57V16.76Z" fill="currentColor"/>
<path d="M19.05 25.91H17.52V27.43H19.05V25.91Z" fill="currentColor"/>
<path d="M19.05 18.29H17.52V19.81H19.05V18.29Z" fill="currentColor"/>
<path d="M19.05 10.67H17.52V12.19H19.05V10.67Z" fill="currentColor"/>
<path d="M17.52 27.4301H16V28.9501H17.52V27.4301Z" fill="currentColor"/>
<path d="M17.52 19.8101H16V21.3301H17.52V19.8101Z" fill="currentColor"/>
<path d="M17.52 12.1899H16V13.7099H17.52V12.1899Z" fill="currentColor"/>
<path d="M16.0001 21.33H14.4801V22.86H16.0001V21.33Z" fill="currentColor"/>
<path d="M16.0001 13.71H14.4801V15.24H16.0001V13.71Z" fill="currentColor"/>
<path d="M14.4801 22.86H12.9501V24.38H14.4801V22.86Z" fill="currentColor"/>
<path d="M14.4801 15.24H12.9501V16.76H14.4801V15.24Z" fill="currentColor"/>
<path d="M12.9501 16.76H11.4301V18.29H12.9501V16.76Z" fill="currentColor"/>
<path d="M12.9501 12.1899H11.4301V15.2399H12.9501V12.1899Z" fill="currentColor"/>
<path d="M11.43 18.29H9.90002V19.81H11.43V18.29Z" fill="currentColor"/>
<path d="M9.9 0V1.52H8.38V4.57H9.9V6.1H11.43V7.62H12.95V9.14H14.48V7.62H16V6.1H17.52V4.57H19.05V1.52H17.52V0H14.48V1.52H12.95V0H9.9Z" fill="currentColor"/>
<path d="M11.4301 10.67H6.86011V12.19H11.4301V10.67Z" fill="currentColor"/>
<path d="M8.38011 16.76H6.86011V22.86H8.38011V21.33H9.90011V19.81H8.38011V16.76Z" fill="currentColor"/>
<path d="M6.86008 22.86H5.33008V24.38H6.86008V22.86Z" fill="currentColor"/>
<path d="M6.86008 12.1899H5.33008V16.7599H6.86008V12.1899Z" fill="currentColor"/>
<path d="M5.33006 24.38H3.81006V32H5.33006V24.38Z" fill="currentColor"/>
</svg>
