<svg width="32" height="32" viewBox="0 0 32 32" fill="none" xmlns="http://www.w3.org/2000/svg">
<path d="M30.907 6.8501H29.377V25.1401H30.907V6.8501Z" fill="currentColor"/>
<path d="M29.3771 25.14H27.8571V26.66H29.3771V25.14Z" fill="currentColor"/>
<path d="M29.3771 5.33008H27.8571V6.85008H29.3771V5.33008Z" fill="currentColor"/>
<path d="M27.858 26.66H3.47803V28.19H27.858V26.66Z" fill="currentColor"/>
<path d="M20.238 12.95H18.718V11.43H17.187V9.9H15.667V8.38H11.097V23.62H15.667V22.09H17.187V20.57H18.718V19.04H20.238V17.52H21.757V14.47H20.238V12.95Z" fill="currentColor"/>
<path d="M27.858 3.81006H3.47803V5.33006H27.858V3.81006Z" fill="currentColor"/>
<path d="M3.47702 25.14H1.94702V26.66H3.47702V25.14Z" fill="currentColor"/>
<path d="M3.47702 5.33008H1.94702V6.85008H3.47702V5.33008Z" fill="currentColor"/>
<path d="M1.947 6.8501H0.427002V25.1401H1.947V6.8501Z" fill="currentColor"/>
</svg>
