<svg width="32" height="32" viewBox="0 0 32 32" fill="none" xmlns="http://www.w3.org/2000/svg">
<path d="M25.145 22.86V18.28H26.665V13.71H25.145V9.14H23.615V22.86H25.145Z" fill="currentColor"/>
<path d="M6.85498 22.86V24.38H9.89998V32H20.57V24.38H23.61V22.86H6.85498ZM19.045 30.48H11.425V28.95H19.045V30.48ZM19.045 27.43H11.425V25.9H19.045V27.43Z" fill="currentColor"/>
<path d="M9.90001 10.67V12.19H8.38501V19.81H9.90001V21.33H20.57V19.81H22.1V12.19H20.58V10.67H9.90001ZM11.42 13.71H12.95V15.24H11.42V13.71ZM19.04 18.28H17.52V19.81H12.95V18.28H11.42V16.76H12.95V18.28H17.52V16.76H19.04V18.28ZM19.04 15.24H17.52V13.71H19.04V15.24Z" fill="currentColor"/>
<path d="M9.89998 0V7.62H6.85498V9.14H23.615V7.62H20.575V0H9.89998ZM19.04 6.09H11.42V4.57H19.04V6.09ZM19.04 3.05H11.42V1.52H19.04V3.05Z" fill="currentColor"/>
<path d="M6.85496 9.14H5.33496V22.86H6.85496V9.14Z" fill="currentColor"/>
</svg>
