<svg width="32" height="32" viewBox="0 0 32 32" fill="none" xmlns="http://www.w3.org/2000/svg">
<path d="M16.765 22.85V21.33H27.435V19.81H4.57502V21.33H15.245V22.85H1.52502V32H30.475V22.85H16.765ZM28.955 30.47H3.05502V24.38H28.955V30.47Z" fill="currentColor"/>
<path d="M28.955 1.52H27.435V19.81H28.955V1.52Z" fill="currentColor"/>
<path d="M25.905 10.66H24.385V13.71H25.905V10.66Z" fill="currentColor"/>
<path d="M25.905 6.09H24.385V7.62H25.905V6.09Z" fill="currentColor"/>
<path d="M25.905 27.42H6.09503V28.95H25.905V27.42Z" fill="currentColor"/>
<path d="M22.865 4.56999V3.03999H21.335V4.56999H19.815V6.08999H21.335V9.13999H19.815V10.66H21.335V13.71H19.815V15.23H21.335V16.76H22.865V15.23H24.385V13.71H22.865V10.66H24.385V9.13999H22.865V6.08999H24.385V4.56999H22.865Z" fill="currentColor"/>
<path d="M19.815 12.19H18.285V13.71H19.815V12.19Z" fill="currentColor"/>
<path d="M19.815 6.09H18.285V9.14H19.815V6.09Z" fill="currentColor"/>
<path d="M16.765 15.23H15.245V16.76H16.765V15.23Z" fill="currentColor"/>
<path d="M16.765 12.19H15.245V13.71H16.765V12.19Z" fill="currentColor"/>
<path d="M13.715 15.23H10.665V16.76H13.715V15.23Z" fill="currentColor"/>
<path d="M13.715 12.19H10.665V13.71H13.715V12.19Z" fill="currentColor"/>
<path d="M9.14503 15.23H6.09503V16.76H9.14503V15.23Z" fill="currentColor"/>
<path d="M9.14503 12.19H6.09503V13.71H9.14503V12.19Z" fill="currentColor"/>
<path d="M6.10004 10.66H16.77V3.03999H6.10004V10.66ZM12.2 4.56999H13.72V6.08999H12.2V4.56999ZM9.15004 4.56999H10.67V6.08999H9.14504L9.15004 4.56999ZM9.15004 7.61999H13.72V9.13999H9.14504L9.15004 7.61999Z" fill="currentColor"/>
<path d="M27.435 0H4.57501V1.52H27.435V0Z" fill="currentColor"/>
<path d="M4.57505 1.52H3.05505V19.81H4.57505V1.52Z" fill="currentColor"/>
</svg>
