<svg width="32" height="32" viewBox="0 0 32 32" fill="none" xmlns="http://www.w3.org/2000/svg">
<path d="M30.4751 15.235H28.9551V16.765H30.4751V15.235Z" fill="currentColor"/>
<path d="M28.955 16.765H27.425V18.285H28.955V16.765Z" fill="currentColor"/>
<path d="M28.955 13.715H27.425V15.235H28.955V13.715Z" fill="currentColor"/>
<path d="M27.425 18.285H25.905V19.815H27.425V18.285Z" fill="currentColor"/>
<path d="M27.425 12.1951H25.905V13.7151H27.425V12.1951Z" fill="currentColor"/>
<path d="M24.3851 24.3851H19.8151V25.9051H25.9051V19.8151H24.3851V24.3851Z" fill="currentColor"/>
<path d="M21.335 15.235H18.285V16.765H21.335V18.285H18.285V19.815H19.815V21.335H21.335V19.815H22.855V13.715H21.335V15.235Z" fill="currentColor"/>
<path d="M24.3851 7.62497V12.195H25.9051V6.09497H19.8151V7.62497H24.3851Z" fill="currentColor"/>
<path d="M19.815 25.905H18.285V27.435H19.815V25.905Z" fill="currentColor"/>
<path d="M21.335 12.1951H18.285V13.7151H21.335V12.1951Z" fill="currentColor"/>
<path d="M19.815 4.57507H18.285V6.09507H19.815V4.57507Z" fill="currentColor"/>
<path d="M18.285 27.4351H16.765V28.9551H18.285V27.4351Z" fill="currentColor"/>
<path d="M19.815 21.3351H13.715V22.8551H19.815V21.3351Z" fill="currentColor"/>
<path d="M18.285 9.14502H16.765V12.195H18.285V9.14502Z" fill="currentColor"/>
<path d="M18.285 3.04504H16.765V4.57504H18.285V3.04504Z" fill="currentColor"/>
<path d="M16.765 28.9551H15.235V30.4751H16.765V28.9551Z" fill="currentColor"/>
<path d="M16.765 7.625H15.235V9.145H16.765V7.625Z" fill="currentColor"/>
<path d="M16.765 1.52502H15.235V3.04502H16.765V1.52502Z" fill="currentColor"/>
<path d="M15.235 27.4351H13.715V28.9551H15.235V27.4351Z" fill="currentColor"/>
<path d="M15.235 9.14502H13.715V12.195H15.235V9.14502Z" fill="currentColor"/>
<path d="M15.235 3.04504H13.715V4.57504H15.235V3.04504Z" fill="currentColor"/>
<path d="M13.7151 25.905H12.1951V27.435H13.7151V25.905Z" fill="currentColor"/>
<path d="M12.195 19.8151V13.7151H13.715V12.1951H9.14502V21.3351H13.715V19.8151H12.195Z" fill="currentColor"/>
<path d="M13.7151 4.57507H12.1951V6.09507H13.7151V4.57507Z" fill="currentColor"/>
<path d="M7.62497 24.3851V19.8151H6.09497V25.9051H12.195V24.3851H7.62497Z" fill="currentColor"/>
<path d="M7.62497 7.62497H12.195V6.09497H6.09497V12.195H7.62497V7.62497Z" fill="currentColor"/>
<path d="M6.09507 18.285H4.57507V19.815H6.09507V18.285Z" fill="currentColor"/>
<path d="M6.09507 12.1951H4.57507V13.7151H6.09507V12.1951Z" fill="currentColor"/>
<path d="M4.57504 16.765H3.04504V18.285H4.57504V16.765Z" fill="currentColor"/>
<path d="M4.57504 13.715H3.04504V15.235H4.57504V13.715Z" fill="currentColor"/>
<path d="M3.04502 15.235H1.52502V16.765H3.04502V15.235Z" fill="currentColor"/>
</svg>
