<svg width="32" height="32" viewBox="0 0 32 32" fill="none" xmlns="http://www.w3.org/2000/svg">
<g clip-path="url(#clip0_1128_9963)">
<path d="M32 18.29H30.48V24.38H32V18.29Z" fill="currentColor"/>
<path d="M30.48 15.24H28.96V18.29H30.48V15.24Z" fill="currentColor"/>
<path d="M28.96 22.86H27.43V21.34H25.91V19.81H24.39V18.29H22.86V16.77H21.34V15.24H19.81V13.72H18.29V12.19H15.24V13.72H13.72V15.24H16.77V16.77H18.29V18.29H19.81V19.81H21.34V21.34H22.86V22.86H24.39V24.38H25.91V25.91H27.43V28.96H28.96V27.43H30.48V24.38H28.96V22.86Z" fill="currentColor"/>
<path d="M28.96 13.72H27.43V15.24H28.96V13.72Z" fill="currentColor"/>
<path d="M21.34 28.96V27.43H18.29V25.91H16.77V24.38H15.24V21.34H13.72V15.24H12.2V18.29H10.67V24.38H12.2V27.43H13.72V28.96H15.24V30.48H18.29V32H24.39V30.48H27.43V28.96H21.34Z" fill="currentColor"/>
<path d="M27.43 12.19H24.39V13.72H27.43V12.19Z" fill="currentColor"/>
<path d="M24.39 10.67H18.29V12.19H24.39V10.67Z" fill="currentColor"/>
<path d="M13.72 30.48H3.04999V32H13.72V30.48Z" fill="currentColor"/>
<path d="M9.14999 16.77H7.62V25.91H9.14999V16.77Z" fill="currentColor"/>
<path d="M6.09999 22.86H4.57999V24.38H6.09999V22.86Z" fill="currentColor"/>
<path d="M6.1 7.62H16.77V9.15H18.29V7.62H19.81V6.1H21.34V1.53H19.81V0H3.05V1.53H1.53V6.1H3.05V7.62H4.58V10.67H6.1V7.62ZM16.77 1.53H18.29V6.1H16.77V1.53ZM13.72 1.53H15.24V6.1H13.72V1.53ZM10.67 1.53H12.2V6.1H10.67V1.53ZM7.62 1.53H9.15V6.1H7.62V1.53ZM4.58 1.53H6.1V6.1H4.58V1.53Z" fill="currentColor"/>
<path d="M4.57999 10.67H3.04999V12.19H4.57999V10.67Z" fill="currentColor"/>
<path d="M3.05 28.96H1.53V30.48H3.05V28.96Z" fill="currentColor"/>
<path d="M1.53 27.43H7.62V25.91H1.53V22.86H4.58V21.34H1.53V19.81H4.58V18.29H1.53V16.77H7.62V15.24H1.53V13.72H0V28.96H1.53V27.43Z" fill="currentColor"/>
<path d="M3.05 12.19H1.53V13.72H3.05V12.19Z" fill="currentColor"/>
</g>
<defs>
<clipPath id="clip0_1128_9963">
<rect width="32" height="32" fill="white"/>
</clipPath>
</defs>
</svg>
