<svg width="32" height="32" viewBox="0 0 32 32" fill="none" xmlns="http://www.w3.org/2000/svg">
<g clip-path="url(#clip0_1135_3635)">
<path d="M32 12.1899H30.48V13.7099H32V12.1899Z" fill="currentColor"/>
<path d="M30.4799 13.71H28.95V15.23H30.4799V13.71Z" fill="currentColor"/>
<path d="M28.9501 27.4301H27.4301V30.4701H28.9501V27.4301Z" fill="currentColor"/>
<path d="M27.43 24.38H25.9V27.43H27.43V24.38Z" fill="currentColor"/>
<path d="M28.95 15.23H25.9V16.76H28.95V15.23Z" fill="currentColor"/>
<path d="M27.43 30.47H24.38V32H27.43V30.47Z" fill="currentColor"/>
<path d="M25.9 21.33H24.38V24.38H25.9V21.33Z" fill="currentColor"/>
<path d="M25.9 16.76H24.38V18.28H25.9V16.76Z" fill="currentColor"/>
<path d="M24.38 28.95H22.86V30.4699H24.38V28.95Z" fill="currentColor"/>
<path d="M24.38 18.28H22.86V21.33H24.38V18.28Z" fill="currentColor"/>
<path d="M22.8601 27.4301H19.8101V28.9501H22.8601V27.4301Z" fill="currentColor"/>
<path d="M30.48 10.66H21.33V12.19H30.48V10.66Z" fill="currentColor"/>
<path d="M21.3301 7.62H19.8101V10.66H21.3301V7.62Z" fill="currentColor"/>
<path d="M19.81 25.9H18.29V27.43H19.81V25.9Z" fill="currentColor"/>
<path d="M19.81 16.76H18.29V18.28H19.81V16.76Z" fill="currentColor"/>
<path d="M19.81 4.56995H18.29V7.61995H19.81V4.56995Z" fill="currentColor"/>
<path d="M18.29 24.38H16.76V25.9H18.29V24.38Z" fill="currentColor"/>
<path d="M18.29 13.71H16.76V15.23H18.29V13.71Z" fill="currentColor"/>
<path d="M18.29 1.52002H16.76V4.57002H18.29V1.52002Z" fill="currentColor"/>
<path d="M16.76 22.85H15.24V24.38H16.76V22.85Z" fill="currentColor"/>
<path d="M18.29 18.28H13.71V19.81H18.29V18.28Z" fill="currentColor"/>
<path d="M16.76 0H15.24V1.52H16.76V0Z" fill="currentColor"/>
<path d="M15.24 24.38H13.71V25.9H15.24V24.38Z" fill="currentColor"/>
<path d="M15.24 13.71H13.71V15.23H15.24V13.71Z" fill="currentColor"/>
<path d="M15.24 1.52002H13.71V4.57002H15.24V1.52002Z" fill="currentColor"/>
<path d="M13.7099 25.9H12.1899V27.43H13.7099V25.9Z" fill="currentColor"/>
<path d="M13.7099 16.76H12.1899V18.28H13.7099V16.76Z" fill="currentColor"/>
<path d="M13.7099 4.56995H12.1899V7.61995H13.7099V4.56995Z" fill="currentColor"/>
<path d="M12.19 7.62H10.67V10.66H12.19V7.62Z" fill="currentColor"/>
<path d="M12.19 27.4301H9.14001V28.9501H12.19V27.4301Z" fill="currentColor"/>
<path d="M9.14 28.95H7.62V30.4699H9.14V28.95Z" fill="currentColor"/>
<path d="M9.14 18.28H7.62V21.33H9.14V18.28Z" fill="currentColor"/>
<path d="M7.61998 21.33H6.09998V24.38H7.61998V21.33Z" fill="currentColor"/>
<path d="M7.61998 16.76H6.09998V18.28H7.61998V16.76Z" fill="currentColor"/>
<path d="M7.61995 30.47H4.56995V32H7.61995V30.47Z" fill="currentColor"/>
<path d="M6.09995 24.38H4.56995V27.43H6.09995V24.38Z" fill="currentColor"/>
<path d="M6.10005 15.23H3.05005V16.76H6.10005V15.23Z" fill="currentColor"/>
<path d="M4.57005 27.4301H3.05005V30.4701H4.57005V27.4301Z" fill="currentColor"/>
<path d="M10.67 10.66H1.52002V12.19H10.67V10.66Z" fill="currentColor"/>
<path d="M3.05002 13.71H1.52002V15.23H3.05002V13.71Z" fill="currentColor"/>
<path d="M1.52 12.1899H0V13.7099H1.52V12.1899Z" fill="currentColor"/>
</g>
<defs>
<clipPath id="clip0_1135_3635">
<rect width="32" height="32" fill="white"/>
</clipPath>
</defs>
</svg>
