<svg width="32" height="32" viewBox="0 0 32 32" fill="none" xmlns="http://www.w3.org/2000/svg">
<g clip-path="url(#clip0_1128_19887)">
<path d="M1.52 22.86H3.04V25.9H4.57V27.43H6.09V28.95H9.14V30.48H12.19V32H19.81V30.48H22.85V28.95H25.9V27.43H27.42V25.9H28.95V22.86H30.47V19.81H32V12.19H30.47V9.14H28.95V6.09H27.42V4.57H25.9V3.05H22.85V1.52H19.81V0H12.19V1.52H9.14V3.05H6.09V4.57H4.57V6.09H3.04V9.14H1.52V12.19H0V19.81H1.52V22.86ZM3.04 12.19H4.57V9.14H6.09V7.62H7.61V6.09H9.14V4.57H12.19V3.05H19.81V4.57H22.85V6.09H24.38V7.62H25.9V9.14H27.42V12.19H28.95V19.81H27.42V22.86H25.9V24.38H24.38V25.9H22.85V27.43H19.81V28.95H12.19V27.43H9.14V25.9H7.61V24.38H6.09V22.86H4.57V19.81H3.04V12.19Z" fill="currentColor"/>
<path d="M27.42 15.24H22.85V19.81H21.33V21.33H19.81V22.86H18.28V24.38H13.71V22.86H12.19V21.33H10.66V19.81H9.14001V15.24H4.57001V19.81H6.09001V22.86H7.61001V24.38H9.14001V25.9H12.19V27.43H19.81V25.9H22.85V24.38H24.38V22.86H25.9V19.81H27.42V15.24Z" fill="currentColor"/>
<path d="M13.71 21.33H18.28V19.81H19.81V15.24H18.28V18.29H15.23V15.24H18.28V13.71H13.71V15.24H12.19V19.81H13.71V21.33Z" fill="currentColor"/>
<path d="M12.19 13.71V12.19H13.71V10.67H18.28V12.19H19.81V13.71H27.42V12.19H25.9V9.14001H24.38V7.62001H22.85V10.67H19.81V7.62001H22.85V6.09001H19.81V4.57001H12.19V6.09001H9.14001V7.62001H7.61001V9.14001H6.09001V12.19H4.57001V13.71H12.19Z" fill="currentColor"/>
</g>
<defs>
<clipPath id="clip0_1128_19887">
<rect width="32" height="32" fill="white"/>
</clipPath>
</defs>
</svg>
