<svg width="32" height="32" viewBox="0 0 32 32" fill="none" xmlns="http://www.w3.org/2000/svg">
<path d="M24.38 3.80502H22.86V12.955H24.38V3.80502Z" fill="currentColor"/>
<path d="M22.86 26.665H21.34V29.715H22.86V26.665Z" fill="currentColor"/>
<path d="M22.86 12.955H21.34V15.995H22.86V12.955Z" fill="currentColor"/>
<path d="M21.34 15.995H19.81V17.525H21.34V15.995Z" fill="currentColor"/>
<path d="M21.34 29.715H10.67V31.235H21.34V29.715Z" fill="currentColor"/>
<path d="M12.19 17.525V19.045H15.24V25.145H10.67V26.665H15.24V28.195H16.76V26.665H21.34V25.145H16.76V19.045H19.81V17.525H12.19Z" fill="currentColor"/>
<path d="M19.81 3.80501V2.28501H21.34V0.765015H16.76V2.28501H15.24V3.80501H13.72V5.33501H12.19V6.85501H15.24V8.38502H13.72V9.90501H12.19V11.425H15.24V9.90501H16.76V8.38502H18.29V6.85501H19.81V5.33501H18.29V3.80501H19.81Z" fill="currentColor"/>
<path d="M12.19 15.995H10.67V17.525H12.19V15.995Z" fill="currentColor"/>
<path d="M12.19 2.285H9.14999V3.805H12.19V2.285Z" fill="currentColor"/>
<path d="M10.67 26.665H9.14999V29.715H10.67V26.665Z" fill="currentColor"/>
<path d="M10.67 12.955H9.14999V15.995H10.67V12.955Z" fill="currentColor"/>
<path d="M9.14999 3.80502H7.62V12.955H9.14999V3.80502Z" fill="currentColor"/>
</svg>
