<svg width="32" height="32" viewBox="0 0 32 32" fill="none" xmlns="http://www.w3.org/2000/svg">
<g clip-path="url(#clip0_1128_11834)">
<path d="M32 12.19H30.47V19.81H32V12.19Z" fill="currentColor"/>
<path d="M30.4699 19.81H28.95V22.86H30.4699V19.81Z" fill="currentColor"/>
<path d="M30.4699 9.14H28.95V12.19H30.4699V9.14Z" fill="currentColor"/>
<path d="M28.9501 22.86H27.4301V25.9H28.9501V22.86Z" fill="currentColor"/>
<path d="M28.9501 12.19H27.4301V19.81H28.9501V12.19Z" fill="currentColor"/>
<path d="M28.9501 6.1H27.4301V9.14H28.9501V6.1Z" fill="currentColor"/>
<path d="M27.43 25.9H25.9V27.43H27.43V25.9Z" fill="currentColor"/>
<path d="M27.43 19.81H25.9V22.86H27.43V19.81Z" fill="currentColor"/>
<path d="M27.43 9.14H25.9V12.19H27.43V9.14Z" fill="currentColor"/>
<path d="M27.43 4.57H25.9V6.1H27.43V4.57Z" fill="currentColor"/>
<path d="M25.9 22.86H24.38V24.38H25.9V22.86Z" fill="currentColor"/>
<path d="M25.9 15.24H24.38V16.76H25.9V15.24Z" fill="currentColor"/>
<path d="M25.9 7.62H24.38V9.14H25.9V7.62Z" fill="currentColor"/>
<path d="M25.9 27.43H22.85V28.95H25.9V27.43Z" fill="currentColor"/>
<path d="M24.38 24.38H22.85V25.9H24.38V24.38Z" fill="currentColor"/>
<path d="M24.38 6.1H22.85V7.62H24.38V6.1Z" fill="currentColor"/>
<path d="M25.9 3.05H22.85V4.57H25.9V3.05Z" fill="currentColor"/>
<path d="M22.85 21.33H21.33V22.86H22.85V21.33Z" fill="currentColor"/>
<path d="M22.85 10.67H21.33V12.19H22.85V10.67Z" fill="currentColor"/>
<path d="M22.8501 28.95H19.8101V30.48H22.8501V28.95Z" fill="currentColor"/>
<path d="M22.8501 25.9H19.8101V27.43H22.8501V25.9Z" fill="currentColor"/>
<path d="M22.8501 4.57H19.8101V6.1H22.8501V4.57Z" fill="currentColor"/>
<path d="M22.8501 1.52H19.8101V3.05H22.8501V1.52Z" fill="currentColor"/>
<path d="M18.28 13.71H15.24V15.24H13.71V19.81H18.28V18.29H19.81V15.24H21.33V12.19H18.28V13.71Z" fill="currentColor"/>
<path d="M19.8099 30.48H12.1899V32H19.8099V30.48Z" fill="currentColor"/>
<path d="M19.8099 27.43H12.1899V28.95H19.8099V27.43Z" fill="currentColor"/>
<path d="M16.76 24.38H15.24V25.9H16.76V24.38Z" fill="currentColor"/>
<path d="M16.76 6.1H15.24V7.62H16.76V6.1Z" fill="currentColor"/>
<path d="M19.8099 3.05H12.1899V4.57H19.8099V3.05Z" fill="currentColor"/>
<path d="M19.8099 0H12.1899V1.52H19.8099V0Z" fill="currentColor"/>
<path d="M12.19 28.95H9.14001V30.48H12.19V28.95Z" fill="currentColor"/>
<path d="M12.19 25.9H9.14001V27.43H12.19V25.9Z" fill="currentColor"/>
<path d="M12.19 4.57H9.14001V6.1H12.19V4.57Z" fill="currentColor"/>
<path d="M12.19 1.52H9.14001V3.05H12.19V1.52Z" fill="currentColor"/>
<path d="M10.66 21.33H9.14001V22.86H10.66V21.33Z" fill="currentColor"/>
<path d="M10.66 9.14H9.14001V10.67H10.66V9.14Z" fill="currentColor"/>
<path d="M9.13997 27.43H6.08997V28.95H9.13997V27.43Z" fill="currentColor"/>
<path d="M9.14 24.38H7.62V25.9H9.14V24.38Z" fill="currentColor"/>
<path d="M9.14 6.1H7.62V7.62H9.14V6.1Z" fill="currentColor"/>
<path d="M9.13997 3.05H6.08997V4.57H9.13997V3.05Z" fill="currentColor"/>
<path d="M7.61997 22.86H6.08997V24.38H7.61997V22.86Z" fill="currentColor"/>
<path d="M7.61997 15.24H6.08997V16.76H7.61997V15.24Z" fill="currentColor"/>
<path d="M7.61997 7.62H6.08997V9.14H7.61997V7.62Z" fill="currentColor"/>
<path d="M6.08995 25.9H4.56995V27.43H6.08995V25.9Z" fill="currentColor"/>
<path d="M6.08995 19.81H4.56995V22.86H6.08995V19.81Z" fill="currentColor"/>
<path d="M6.08995 9.14H4.56995V12.19H6.08995V9.14Z" fill="currentColor"/>
<path d="M6.08995 4.57H4.56995V6.1H6.08995V4.57Z" fill="currentColor"/>
<path d="M4.57005 22.86H3.05005V25.9H4.57005V22.86Z" fill="currentColor"/>
<path d="M4.57005 12.19H3.05005V19.81H4.57005V12.19Z" fill="currentColor"/>
<path d="M4.57005 6.1H3.05005V9.14H4.57005V6.1Z" fill="currentColor"/>
<path d="M3.05002 19.81H1.52002V22.86H3.05002V19.81Z" fill="currentColor"/>
<path d="M3.05002 9.14H1.52002V12.19H3.05002V9.14Z" fill="currentColor"/>
<path d="M1.52 12.19H0V19.81H1.52V12.19Z" fill="currentColor"/>
</g>
<defs>
<clipPath id="clip0_1128_11834">
<rect width="32" height="32" fill="white"/>
</clipPath>
</defs>
</svg>
