<svg width="32" height="32" viewBox="0 0 32 32" fill="none" xmlns="http://www.w3.org/2000/svg">
<g clip-path="url(#clip0_1128_14622)">
<path d="M32 12.19H30.47V19.81H32V12.19Z" fill="currentColor"/>
<path d="M30.4699 19.81H28.95V22.86H30.4699V19.81Z" fill="currentColor"/>
<path d="M30.4699 9.14001H28.95V12.19H30.4699V9.14001Z" fill="currentColor"/>
<path d="M28.9501 22.86H27.4301V25.9H28.9501V22.86Z" fill="currentColor"/>
<path d="M28.9501 6.09998H27.4301V9.13998H28.9501V6.09998Z" fill="currentColor"/>
<path d="M27.43 25.9H25.9V27.43H27.43V25.9Z" fill="currentColor"/>
<path d="M27.43 4.57001H25.9V6.10001H27.43V4.57001Z" fill="currentColor"/>
<path d="M25.9001 27.43H22.8501V28.95H25.9001V27.43Z" fill="currentColor"/>
<path d="M25.9001 3.04999H22.8501V4.56999H25.9001V3.04999Z" fill="currentColor"/>
<path d="M22.8501 9.14001H21.3301V7.62001H19.8101V6.10001H18.2801V4.57001H15.2401V13.71H13.7101V12.19H12.1901V10.67H10.6601V9.14001H9.14012V7.62001H7.62012V10.67H9.14012V12.19H10.6601V13.71H12.1901V15.24H13.7101V16.76H12.1901V18.29H10.6601V19.81H9.14012V21.33H7.62012V24.38H9.14012V22.86H10.6601V21.33H12.1901V19.81H13.7101V18.29H15.2401V27.43H18.2801V25.9H19.8101V24.38H21.3301V22.86H22.8501V21.33H24.3801V19.81H22.8501V18.29H21.3301V16.76H19.8101V15.24H21.3301V13.71H22.8501V12.19H24.3801V10.67H22.8501V9.14001ZM21.3301 19.81V21.33H19.8101V22.86H18.2801V24.38H16.7601V16.76H18.2801V18.29H19.8101V19.81H21.3301ZM21.3301 12.19H19.8101V13.71H18.2801V15.24H16.7601V7.62001H18.2801V9.14001H19.8101V10.67H21.3301V12.19Z" fill="currentColor"/>
<path d="M22.8501 28.95H19.8101V30.48H22.8501V28.95Z" fill="currentColor"/>
<path d="M22.8501 1.52002H19.8101V3.05002H22.8501V1.52002Z" fill="currentColor"/>
<path d="M19.8099 30.48H12.1899V32H19.8099V30.48Z" fill="currentColor"/>
<path d="M19.8099 0H12.1899V1.52H19.8099V0Z" fill="currentColor"/>
<path d="M12.1899 28.95H9.13989V30.48H12.1899V28.95Z" fill="currentColor"/>
<path d="M12.1899 1.52002H9.13989V3.05002H12.1899V1.52002Z" fill="currentColor"/>
<path d="M9.14009 27.43H6.09009V28.95H9.14009V27.43Z" fill="currentColor"/>
<path d="M9.14009 3.04999H6.09009V4.56999H9.14009V3.04999Z" fill="currentColor"/>
<path d="M6.09007 25.9H4.57007V27.43H6.09007V25.9Z" fill="currentColor"/>
<path d="M6.09007 4.57001H4.57007V6.10001H6.09007V4.57001Z" fill="currentColor"/>
<path d="M4.57005 22.86H3.05005V25.9H4.57005V22.86Z" fill="currentColor"/>
<path d="M4.57005 6.09998H3.05005V9.13998H4.57005V6.09998Z" fill="currentColor"/>
<path d="M3.05002 19.81H1.52002V22.86H3.05002V19.81Z" fill="currentColor"/>
<path d="M3.05002 9.14001H1.52002V12.19H3.05002V9.14001Z" fill="currentColor"/>
<path d="M1.52 12.19H0V19.81H1.52V12.19Z" fill="currentColor"/>
</g>
<defs>
<clipPath id="clip0_1128_14622">
<rect width="32" height="32" fill="white"/>
</clipPath>
</defs>
</svg>
