<svg width="32" height="32" viewBox="0 0 32 32" fill="none" xmlns="http://www.w3.org/2000/svg">
<path d="M29.7151 7.62H28.1851V19.81H29.7151V7.62Z" fill="currentColor"/>
<path d="M28.185 19.8101H26.665V24.3801H28.185V19.8101Z" fill="currentColor"/>
<path d="M25.145 27.43H11.425V24.38H9.9V27.43H8.375V32H28.185V27.43H26.665V24.38H25.145V27.43ZM25.145 30.48H22.1V28.95H25.15L25.145 30.48Z" fill="currentColor"/>
<path d="M23.615 13.7099H25.145V7.61995H28.185V6.09995H25.145V4.56995H23.615V13.7099Z" fill="currentColor"/>
<path d="M19.045 13.71H20.565V4.57002H23.615V3.05002H20.565V1.52002H19.045V13.71Z" fill="currentColor"/>
<path d="M19.045 18.29H17.525V21.33H19.045V18.29Z" fill="currentColor"/>
<path d="M19.045 0H15.995V1.52H19.045V0Z" fill="currentColor"/>
<path d="M17.525 16.76H15.995V18.29H17.525V16.76Z" fill="currentColor"/>
<path d="M14.475 13.71H15.995V1.52002H11.425V3.05002H14.475V13.71Z" fill="currentColor"/>
<path d="M15.995 15.24H11.425V16.76H15.995V15.24Z" fill="currentColor"/>
<path d="M9.905 21.33H8.375V24.38H9.905V21.33Z" fill="currentColor"/>
<path d="M11.425 15.24V3.05005H9.905V13.71H8.375V15.24H11.425Z" fill="currentColor"/>
<path d="M8.37498 19.8101H6.85498V21.3301H8.37498V19.8101Z" fill="currentColor"/>
<path d="M8.37498 12.1899H6.85498V13.7099H8.37498V12.1899Z" fill="currentColor"/>
<path d="M6.85508 18.29H5.33508V19.81H6.85508V18.29Z" fill="currentColor"/>
<path d="M6.85505 10.67H3.80505V12.19H6.85505V10.67Z" fill="currentColor"/>
<path d="M5.33505 16.76H3.80505V18.29H5.33505V16.76Z" fill="currentColor"/>
<path d="M3.80503 12.1899H2.28503V16.7599H3.80503V12.1899Z" fill="currentColor"/>
</svg>
