<svg width="32" height="32" viewBox="0 0 32 32" fill="none" xmlns="http://www.w3.org/2000/svg">
<g clip-path="url(#clip0_1135_1795)">
<path d="M32 6.08997H30.48V24.38H32V6.08997Z" fill="currentColor"/>
<path d="M30.48 24.38H28.96V25.9H30.48V24.38Z" fill="currentColor"/>
<path d="M28.9601 21.33H27.4301V22.85H28.9601V21.33Z" fill="currentColor"/>
<path d="M28.9601 12.1899H27.4301V16.7599H28.9601V12.1899Z" fill="currentColor"/>
<path d="M28.9601 7.62H27.4301V9.14H28.9601V7.62Z" fill="currentColor"/>
<path d="M27.43 24.38H25.91V25.9H21.34V24.38H10.67V25.9H6.10005V24.38H4.58005V25.9H3.05005V27.43H28.96V25.9H27.43V24.38Z" fill="currentColor"/>
<path d="M27.43 16.7599H25.91V18.2799H27.43V16.7599Z" fill="currentColor"/>
<path d="M27.43 10.6599H25.91V12.1899H27.43V10.6599Z" fill="currentColor"/>
<path d="M25.91 22.85H24.38V24.38H25.91V22.85Z" fill="currentColor"/>
<path d="M22.86 16.7599H21.34V12.1899H22.86V10.6599H25.91V9.13989H6.09998V10.6599H9.14998V12.1899H10.67V16.7599H9.14998V18.2799H6.09998V19.8099H25.91V18.2799H22.86V16.7599ZM19.81 15.2299H12.19V10.6599H19.81V15.2299Z" fill="currentColor"/>
<path d="M25.91 12.1899H22.86V16.7599H25.91V12.1899Z" fill="currentColor"/>
<path d="M18.29 12.1899H16.77V13.7099H18.29V12.1899Z" fill="currentColor"/>
<path d="M15.24 12.1899H13.72V13.7099H15.24V12.1899Z" fill="currentColor"/>
<path d="M24.38 21.33H7.62V22.85H24.38V21.33Z" fill="currentColor"/>
<path d="M7.61998 22.85H6.09998V24.38H7.61998V22.85Z" fill="currentColor"/>
<path d="M9.14998 12.1899H6.09998V16.7599H9.14998V12.1899Z" fill="currentColor"/>
<path d="M6.09996 16.7599H4.57996V18.2799H6.09996V16.7599Z" fill="currentColor"/>
<path d="M6.09996 10.6599H4.57996V12.1899H6.09996V10.6599Z" fill="currentColor"/>
<path d="M4.58005 21.33H3.05005V22.85H4.58005V21.33Z" fill="currentColor"/>
<path d="M4.58005 12.1899H3.05005V16.7599H4.58005V12.1899Z" fill="currentColor"/>
<path d="M4.58005 7.62H3.05005V9.14H4.58005V7.62Z" fill="currentColor"/>
<path d="M30.48 4.56995H1.53003V6.08995H30.48V4.56995Z" fill="currentColor"/>
<path d="M3.05003 24.38H1.53003V25.9H3.05003V24.38Z" fill="currentColor"/>
<path d="M1.53 6.08997H0V24.38H1.53V6.08997Z" fill="currentColor"/>
</g>
<defs>
<clipPath id="clip0_1135_1795">
<rect width="32" height="32" fill="white"/>
</clipPath>
</defs>
</svg>
