<svg width="32" height="32" viewBox="0 0 32 32" fill="none" xmlns="http://www.w3.org/2000/svg">
<g clip-path="url(#clip0_1128_13615)">
<path d="M30.4701 1.53H28.9501V15.24H27.4301V16.76H32.0001V15.24H30.4701V1.53Z" fill="currentColor"/>
<path d="M30.4699 25.91H28.95V30.48H30.4699V25.91Z" fill="currentColor"/>
<path d="M30.4699 18.29H28.95V22.86H30.4699V18.29Z" fill="currentColor"/>
<path d="M28.9501 0H3.05005V1.53H28.9501V0Z" fill="currentColor"/>
<path d="M28.95 30.48H24.38V32H28.95V30.48Z" fill="currentColor"/>
<path d="M25.9 15.24H22.85V16.76H25.9V15.24Z" fill="currentColor"/>
<path d="M12.19 19.81V21.34H10.66V22.86H21.33V12.19H19.81V13.72H18.28V15.24H16.76V13.72H15.24V10.67H16.76V9.14999H19.81V7.62H13.71V9.14999H12.19V12.19H10.66V16.76H12.19V18.29H13.71V19.81H12.19Z" fill="currentColor"/>
<path d="M21.33 30.48H16.76V32H21.33V30.48Z" fill="currentColor"/>
<path d="M15.24 30.48H10.66V32H15.24V30.48Z" fill="currentColor"/>
<path d="M9.13997 15.24H6.08997V16.76H9.13997V15.24Z" fill="currentColor"/>
<path d="M7.62005 30.48H3.05005V32H7.62005V30.48Z" fill="currentColor"/>
<path d="M3.05002 25.91H1.52002V30.48H3.05002V25.91Z" fill="currentColor"/>
<path d="M3.05002 18.29H1.52002V22.86H3.05002V18.29Z" fill="currentColor"/>
<path d="M1.52 15.24H0V16.76H4.57V15.24H3.05V1.53H1.52V15.24Z" fill="currentColor"/>
</g>
<defs>
<clipPath id="clip0_1128_13615">
<rect width="32" height="32" fill="white"/>
</clipPath>
</defs>
</svg>
