<svg width="32" height="32" viewBox="0 0 32 32" fill="none" xmlns="http://www.w3.org/2000/svg">
<g clip-path="url(#clip0_1128_13351)">
<path d="M6.85501 13.71V12.19H8.38502V10.67H9.90501V9.14H11.425V7.62H12.955V6.1H14.475V4.57H17.525V6.1H19.045V7.62H20.575V9.14H22.095V10.67H23.615V12.19H25.145V13.71H26.665V30.48H28.195V16.76H29.715V15.24H31.235V13.71H29.715V12.19H28.195V10.67H26.665V9.14H25.145V7.62H23.615V6.1H22.095V4.57H20.575V3.05H19.045V1.52H17.525V0H14.475V1.52H12.955V3.05H11.425V4.57H9.90501V6.1H8.38502V7.62H6.85501V9.14H5.33501V10.67H3.81501V12.19H2.28501V13.71H0.765015V15.24H2.28501V16.76H3.81501V30.48H5.33501V13.71H6.85501Z" fill="currentColor"/>
<path d="M26.665 32V30.48H20.575V18.29H19.045V30.48H12.955V18.29H11.425V30.48H5.33496V32H26.665Z" fill="currentColor"/>
<path d="M25.145 19.81H22.095V22.86H25.145V19.81Z" fill="currentColor"/>
<path d="M19.045 9.14001H17.525V12.19H19.045V9.14001Z" fill="currentColor"/>
<path d="M17.525 7.62H14.475V9.14H17.525V7.62Z" fill="currentColor"/>
<path d="M16.005 22.86H14.475V24.38H16.005V22.86Z" fill="currentColor"/>
<path d="M19.045 16.76H12.955V18.29H19.045V16.76Z" fill="currentColor"/>
<path d="M17.525 12.19H14.475V13.71H17.525V12.19Z" fill="currentColor"/>
<path d="M14.475 9.14001H12.955V12.19H14.475V9.14001Z" fill="currentColor"/>
<path d="M9.90498 19.81H6.85498V22.86H9.90498V19.81Z" fill="currentColor"/>
</g>
<defs>
<clipPath id="clip0_1128_13351">
<rect width="32" height="32" fill="white"/>
</clipPath>
</defs>
</svg>
