<svg width="32" height="32" viewBox="0 0 32 32" fill="none" xmlns="http://www.w3.org/2000/svg">
<g clip-path="url(#clip0_1128_13466)">
<path d="M30.47 24.38H28.95V21.33H27.42V24.38H25.9V25.9H24.38V30.48H25.9V32H30.47V30.48H32V25.9H30.47V24.38Z" fill="currentColor"/>
<path d="M27.42 19.81H25.9V21.33H27.42V19.81Z" fill="currentColor"/>
<path d="M16.76 18.29V13.71H19.8V12.19H12.19V13.71H15.23V18.29H6.08997V19.81H15.23V24.38H13.71V25.9H12.19V30.48H13.71V32H18.28V30.48H19.8V25.9H18.28V24.38H16.76V19.81H25.9V18.29H16.76Z" fill="currentColor"/>
<path d="M22.85 3.04999H21.33V10.67H22.85V3.04999Z" fill="currentColor"/>
<path d="M21.33 10.67H19.8V12.19H21.33V10.67Z" fill="currentColor"/>
<path d="M21.33 1.51999H19.8V3.04999H21.33V1.51999Z" fill="currentColor"/>
<path d="M19.8 7.62H18.28V9.14H19.8V7.62Z" fill="currentColor"/>
<path d="M19.8 4.57001H18.28V6.09001H19.8V4.57001Z" fill="currentColor"/>
<path d="M18.28 9.14001H13.71V10.67H18.28V9.14001Z" fill="currentColor"/>
<path d="M19.7999 0H12.1899V1.52H19.7999V0Z" fill="currentColor"/>
<path d="M13.7099 7.62H12.1899V9.14H13.7099V7.62Z" fill="currentColor"/>
<path d="M13.7099 4.57001H12.1899V6.09001H13.7099V4.57001Z" fill="currentColor"/>
<path d="M12.19 10.67H10.66V12.19H12.19V10.67Z" fill="currentColor"/>
<path d="M12.19 1.51999H10.66V3.04999H12.19V1.51999Z" fill="currentColor"/>
<path d="M10.66 3.04999H9.14001V10.67H10.66V3.04999Z" fill="currentColor"/>
<path d="M6.08995 19.81H4.56995V21.33H6.08995V19.81Z" fill="currentColor"/>
<path d="M3.04 24.38H1.52V25.9H0V30.48H1.52V32H6.09V30.48H7.61V25.9H6.09V24.38H4.57V21.33H3.04V24.38Z" fill="currentColor"/>
</g>
<defs>
<clipPath id="clip0_1128_13466">
<rect width="32" height="32" fill="white"/>
</clipPath>
</defs>
</svg>
