<svg width="32" height="32" viewBox="0 0 32 32" fill="none" xmlns="http://www.w3.org/2000/svg">
<g clip-path="url(#clip0_1128_6177)">
<path d="M32 20.57H30.48V22.09H32V20.57Z" fill="currentColor"/>
<path d="M7.62003 22.09V17.52H6.10003V3.81H4.58003V5.33H1.53003V6.86H3.05003V17.52H4.58003V22.09H6.10003V23.62H7.62003V25.14H21.34V26.67H22.86V23.62H25.91V29.71H27.43V23.62H30.48V22.09H7.62003Z" fill="currentColor"/>
<path d="M30.4801 19.05H27.4301V20.57H30.4801V19.05Z" fill="currentColor"/>
<path d="M27.43 3.81H25.91V19.05H27.43V3.81Z" fill="currentColor"/>
<path d="M25.91 29.71H6.09998V31.24H25.91V29.71Z" fill="currentColor"/>
<path d="M22.86 8.38H21.34V11.43H22.86V8.38Z" fill="currentColor"/>
<path d="M21.3401 11.43H19.8101V12.95H21.3401V11.43Z" fill="currentColor"/>
<path d="M21.34 6.86002H18.29V8.38002H21.34V6.86002Z" fill="currentColor"/>
<path d="M21.34 19.05H18.29V20.57H21.34V19.05Z" fill="currentColor"/>
<path d="M19.81 12.95H18.29V14.48H19.81V12.95Z" fill="currentColor"/>
<path d="M18.29 17.52H16.77V19.05H18.29V17.52Z" fill="currentColor"/>
<path d="M18.29 14.48H16.77V16H18.29V14.48Z" fill="currentColor"/>
<path d="M18.29 8.38H16.77V9.9H18.29V8.38Z" fill="currentColor"/>
<path d="M16.77 16H15.24V17.52H16.77V16Z" fill="currentColor"/>
<path d="M16.77 9.90002H15.24V11.43H16.77V9.90002Z" fill="currentColor"/>
<path d="M15.24 14.48H13.72V16H15.24V14.48Z" fill="currentColor"/>
<path d="M15.24 8.38H13.72V9.9H15.24V8.38Z" fill="currentColor"/>
<path d="M15.24 17.52H12.2V19.05H15.24V17.52Z" fill="currentColor"/>
<path d="M13.72 12.95H12.2V14.48H13.72V12.95Z" fill="currentColor"/>
<path d="M13.72 6.86002H10.67V8.38002H13.72V6.86002Z" fill="currentColor"/>
<path d="M12.2 11.43H10.67V12.95H12.2V11.43Z" fill="currentColor"/>
<path d="M10.67 8.38H9.15002V11.43H10.67V8.38Z" fill="currentColor"/>
<path d="M10.67 3.81001V5.33001H21.34V3.81001H25.91V2.28001H21.34V0.76001H10.67V2.28001H6.09998V3.81001H10.67Z" fill="currentColor"/>
<path d="M21.34 28.19V26.67H1.53003V28.19H4.58003V29.71H6.10003V28.19H21.34Z" fill="currentColor"/>
<path d="M1.53 6.86002H0V26.67H1.53V6.86002Z" fill="currentColor"/>
</g>
<defs>
<clipPath id="clip0_1128_6177">
<rect width="32" height="32" fill="white"/>
</clipPath>
</defs>
</svg>
