<svg width="32" height="32" viewBox="0 0 32 32" fill="none" xmlns="http://www.w3.org/2000/svg">
<g clip-path="url(#clip0_1128_9136)">
<path d="M25.91 10.67H6.10001V7.62H4.57001V12.19H6.10001V21.33H7.62001V27.43H9.15001V25.91H22.86V27.43H24.38V21.33H25.91V12.19H27.43V7.62H25.91V10.67ZM22.86 24.38H9.15001V22.86H22.86V24.38ZM22.86 19.81H21.34V21.33H19.81V19.81H18.29V21.33H16.76V19.81H15.24V21.33H13.72V19.81H12.19V21.33H10.67V19.81H9.15001V18.29H10.67V19.81H12.19V18.29H13.72V19.81H15.24V18.29H16.76V19.81H18.29V18.29H19.81V19.81H21.34V18.29H22.86V19.81ZM24.38 16.76H7.62001V15.24H24.38V16.76ZM24.38 13.72H7.62001V12.19H24.38V13.72Z" fill="currentColor"/>
<path d="M24.38 0H19.81V1.52H24.38V0Z" fill="currentColor"/>
<path d="M21.34 30.48H10.67V27.43H9.14999V32H22.86V27.43H21.34V30.48Z" fill="currentColor"/>
<path d="M19.81 1.52002H18.29V3.05002H19.81V1.52002Z" fill="currentColor"/>
<path d="M18.29 3.04999H7.62V4.56999H18.29V3.04999Z" fill="currentColor"/>
<path d="M25.91 7.62002V1.52002H24.38V6.10002H7.62001V4.57002H6.10001V7.62002H25.91Z" fill="currentColor"/>
</g>
<defs>
<clipPath id="clip0_1128_9136">
<rect width="32" height="32" fill="white"/>
</clipPath>
</defs>
</svg>
