<svg width="32" height="32" viewBox="0 0 32 32" fill="none" xmlns="http://www.w3.org/2000/svg">
<g clip-path="url(#clip0_1128_6852)">
<path d="M30.48 15.235H28.95V18.285H27.43V19.805H30.48V24.375H32V18.285H30.48V15.235Z" fill="currentColor"/>
<path d="M28.95 22.855H27.43V24.375H22.86V22.855H21.33V24.375H16.76V22.855H15.24V24.375H10.67V22.855H9.13999V24.375H4.56999V22.855H3.04999V24.375H1.51999V25.905H30.48V24.375H28.95V22.855Z" fill="currentColor"/>
<path d="M28.95 12.185H27.43V15.235H28.95V12.185Z" fill="currentColor"/>
<path d="M27.43 10.665H25.9V12.185H27.43V10.665Z" fill="currentColor"/>
<path d="M25.9 12.185H24.38V13.715H25.9V12.185Z" fill="currentColor"/>
<path d="M25.9 9.14496H24.38V10.665H25.9V9.14496Z" fill="currentColor"/>
<path d="M22.86 15.235H21.33V18.285H10.67V15.235H9.14V18.285H7.62V19.805H24.38V18.285H22.86V15.235Z" fill="currentColor"/>
<path d="M24.38 7.61499H21.33V9.14499H24.38V7.61499Z" fill="currentColor"/>
<path d="M21.33 13.715H19.81V15.235H21.33V13.715Z" fill="currentColor"/>
<path d="M21.33 9.14496H19.81V10.665H21.33V9.14496Z" fill="currentColor"/>
<path d="M19.81 12.185H12.19V13.715H19.81V12.185Z" fill="currentColor"/>
<path d="M15.24 7.61497V10.665H16.76V7.61497H21.33V6.09497H10.67V7.61497H15.24Z" fill="currentColor"/>
<path d="M12.19 13.715H10.67V15.235H12.19V13.715Z" fill="currentColor"/>
<path d="M12.19 9.14496H10.67V10.665H12.19V9.14496Z" fill="currentColor"/>
<path d="M10.67 7.61499H7.62V9.14499H10.67V7.61499Z" fill="currentColor"/>
<path d="M7.62001 12.185H6.10001V13.715H7.62001V12.185Z" fill="currentColor"/>
<path d="M7.62001 9.14496H6.10001V10.665H7.62001V9.14496Z" fill="currentColor"/>
<path d="M6.10001 10.665H4.57001V12.185H6.10001V10.665Z" fill="currentColor"/>
<path d="M4.56999 12.185H3.04999V15.235H4.56999V12.185Z" fill="currentColor"/>
<path d="M1.52 19.805H4.57V18.285H3.05V15.235H1.52V18.285H0V24.375H1.52V19.805Z" fill="currentColor"/>
</g>
<defs>
<clipPath id="clip0_1128_6852">
<rect width="32" height="32" fill="white"/>
</clipPath>
</defs>
</svg>
