<svg width="32" height="32" viewBox="0 0 32 32" fill="none" xmlns="http://www.w3.org/2000/svg">
<g clip-path="url(#clip0_1135_1602)">
<path d="M30.47 23.62H28.95V25.14H3.03999V26.67H4.56999V28.19H30.47V26.67H32V8.38H30.47V23.62Z" fill="currentColor"/>
<path d="M28.95 5.33H27.43V22.1H28.95V5.33Z" fill="currentColor"/>
<path d="M24.38 9.91H21.33V11.43H24.38V9.91Z" fill="currentColor"/>
<path d="M24.38 12.95H21.33V11.43H19.81V17.52H21.33V14.48H24.38V17.52H25.9V11.43H24.38V12.95Z" fill="currentColor"/>
<path d="M18.28 14.48H16.76V16H18.28V14.48Z" fill="currentColor"/>
<path d="M16.76 12.95H13.71V14.48H16.76V12.95Z" fill="currentColor"/>
<path d="M18.28 9.91H13.71V11.43H18.28V9.91Z" fill="currentColor"/>
<path d="M16.76 16H12.19V17.52H16.76V16Z" fill="currentColor"/>
<path d="M13.71 11.43H12.19V12.95H13.71V11.43Z" fill="currentColor"/>
<path d="M10.66 9.91H9.14V17.52H10.66V9.91Z" fill="currentColor"/>
<path d="M7.62 9.91H6.09V16H7.62V9.91Z" fill="currentColor"/>
<path d="M6.09001 16H4.57001V17.52H6.09001V16Z" fill="currentColor"/>
<path d="M4.56999 9.91H3.03999V16H4.56999V9.91Z" fill="currentColor"/>
<path d="M27.43 3.81H1.52V5.33H27.43V3.81Z" fill="currentColor"/>
<path d="M27.43 22.1H1.52V23.62H27.43V22.1Z" fill="currentColor"/>
<path d="M1.52 5.33H0V22.1H1.52V5.33Z" fill="currentColor"/>
</g>
<defs>
<clipPath id="clip0_1135_1602">
<rect width="32" height="32" fill="white"/>
</clipPath>
</defs>
</svg>
