<svg width="32" height="32" viewBox="0 0 32 32" fill="none" xmlns="http://www.w3.org/2000/svg">
<g clip-path="url(#clip0_1135_4787)">
<path d="M29.715 8.38503H22.095V9.90503H17.525V11.425H14.475V12.955H12.955V14.475H11.425V17.525H9.90503V22.095H8.38503V29.715H2.28503V31.235H19.045V29.715H12.955V22.095H14.475V19.045H16.005V17.525H17.525V16.005H19.045V14.475H22.095V12.955H29.715V19.045H31.235V2.28503H29.715V8.38503Z" fill="currentColor"/>
<path d="M29.715 19.045H22.095V20.575H29.715V19.045Z" fill="currentColor"/>
<path d="M29.715 0.765015H22.095V2.28501H29.715V0.765015Z" fill="currentColor"/>
<path d="M22.0951 20.5751H20.5751V22.0951H22.0951V20.5751Z" fill="currentColor"/>
<path d="M20.575 22.095H19.045V29.715H20.575V22.095Z" fill="currentColor"/>
<path d="M22.095 2.28503H17.525V3.80503H22.095V2.28503Z" fill="currentColor"/>
<path d="M17.525 3.80505H12.955V5.33505H17.525V3.80505Z" fill="currentColor"/>
<path d="M12.955 5.33496H9.90503V6.85496H12.955V5.33496Z" fill="currentColor"/>
<path d="M9.90501 6.85498H8.38501V8.38498H9.90501V6.85498Z" fill="currentColor"/>
<path d="M8.38498 8.38501H6.85498V9.90501H8.38498V8.38501Z" fill="currentColor"/>
<path d="M6.85496 9.90503H5.33496V12.955H6.85496V9.90503Z" fill="currentColor"/>
<path d="M5.33506 12.955H3.81506V17.525H5.33506V12.955Z" fill="currentColor"/>
<path d="M3.81503 17.525H2.28503V22.095H3.81503V17.525Z" fill="currentColor"/>
<path d="M2.28501 22.095H0.765015V29.715H2.28501V22.095Z" fill="currentColor"/>
</g>
<defs>
<clipPath id="clip0_1135_4787">
<rect width="32" height="32" fill="white"/>
</clipPath>
</defs>
</svg>
