<svg width="32" height="32" viewBox="0 0 32 32" fill="none" xmlns="http://www.w3.org/2000/svg">
<g clip-path="url(#clip0_1128_7571)">
<path d="M32 3.80499H30.48V5.33499H32V3.80499Z" fill="currentColor"/>
<path d="M30.4799 11.425H28.95V12.955H30.4799V11.425Z" fill="currentColor"/>
<path d="M30.4799 2.28503H28.95V3.80503H30.4799V2.28503Z" fill="currentColor"/>
<path d="M28.9501 3.80499H27.4301V5.33499H28.9501V3.80499Z" fill="currentColor"/>
<path d="M28.9501 0.765015H27.4301V2.28501H28.9501V0.765015Z" fill="currentColor"/>
<path d="M28.95 11.425V9.90501H27.43V8.38501H25.91V11.425H28.95Z" fill="currentColor"/>
<path d="M27.43 5.33502H25.91V6.85502H27.43V5.33502Z" fill="currentColor"/>
<path d="M25.91 11.425H24.38V12.955H25.91V11.425Z" fill="currentColor"/>
<path d="M25.91 6.85504H24.38V8.38504H25.91V6.85504Z" fill="currentColor"/>
<path d="M24.38 17.525H22.86V25.145H24.38V17.525Z" fill="currentColor"/>
<path d="M24.38 5.33499H22.86V3.80499H21.33V6.85499H24.38V5.33499Z" fill="currentColor"/>
<path d="M22.86 25.145H21.33V26.665H22.86V25.145Z" fill="currentColor"/>
<path d="M21.33 11.425H19.81V12.955H18.29V14.475H16.76V17.525H15.24V14.475H16.76V12.955H18.29V11.425H19.81V8.38501H18.29V9.90501H16.76V11.425H15.24V12.955H13.72V19.045H19.81V17.525H21.33V16.005H22.86V14.475H24.38V12.955H21.33V11.425Z" fill="currentColor"/>
<path d="M21.3301 26.665H19.8101V28.195H21.3301V26.665Z" fill="currentColor"/>
<path d="M21.3301 6.85504H19.8101V8.38504H21.3301V6.85504Z" fill="currentColor"/>
<path d="M21.3301 2.28503H19.8101V3.80503H21.3301V2.28503Z" fill="currentColor"/>
<path d="M19.81 28.195H16.76V29.715H19.81V28.195Z" fill="currentColor"/>
<path d="M16.76 29.715H7.62V31.235H16.76V29.715Z" fill="currentColor"/>
<path d="M13.72 9.90502V5.33502H12.19V9.90502H9.14001V11.425H15.24V9.90502H13.72Z" fill="currentColor"/>
<path d="M13.7199 19.045H12.1899V20.575H13.7199V19.045Z" fill="currentColor"/>
<path d="M12.19 20.575H10.67V22.095H12.19V20.575Z" fill="currentColor"/>
<path d="M12.19 14.475H10.67V16.005H12.19V14.475Z" fill="currentColor"/>
<path d="M12.19 3.80499H7.62V5.33499H12.19V3.80499Z" fill="currentColor"/>
<path d="M10.67 22.095H9.14001V23.615H10.67V22.095Z" fill="currentColor"/>
<path d="M10.67 12.955H9.14001V14.475H10.67V12.955Z" fill="currentColor"/>
<path d="M12.19 25.145H7.62V26.665H12.19V25.145Z" fill="currentColor"/>
<path d="M7.61995 28.195H4.56995V29.715H7.61995V28.195Z" fill="currentColor"/>
<path d="M7.61998 20.575H6.09998V25.145H7.61998V20.575Z" fill="currentColor"/>
<path d="M4.57 16.005H9.14V14.475H6.1V12.955H4.57V11.425H1.52V9.90503H0V12.955H3.05V14.475H4.57V16.005Z" fill="currentColor"/>
<path d="M10.67 6.85504H3.05005V8.38504H10.67V6.85504Z" fill="currentColor"/>
<path d="M4.57005 26.665H3.05005V28.195H4.57005V26.665Z" fill="currentColor"/>
<path d="M3.05002 25.145H1.52002V26.665H3.05002V25.145Z" fill="currentColor"/>
<path d="M3.05002 14.475H1.52002V16.005H3.05002V14.475Z" fill="currentColor"/>
<path d="M3.05002 8.38501H1.52002V9.90501H3.05002V8.38501Z" fill="currentColor"/>
<path d="M1.52 16.005H0V25.145H1.52V16.005Z" fill="currentColor"/>
</g>
<defs>
<clipPath id="clip0_1128_7571">
<rect width="32" height="32" fill="white"/>
</clipPath>
</defs>
</svg>
