<svg width="32" height="32" viewBox="0 0 32 32" fill="none" xmlns="http://www.w3.org/2000/svg">
<g clip-path="url(#clip0_1128_8972)">
<path d="M32 10.665H30.47V16.765H32V10.665Z" fill="currentColor"/>
<path d="M30.47 16.765H28.95V19.815H30.47V16.765Z" fill="currentColor"/>
<path d="M30.47 7.625H28.95V10.665H30.47V7.625Z" fill="currentColor"/>
<path d="M28.95 19.815H27.42V22.855H28.95V19.815Z" fill="currentColor"/>
<path d="M28.95 10.665H27.42V16.765H28.95V10.665Z" fill="currentColor"/>
<path d="M28.95 6.09503H27.42V7.62503H28.95V6.09503Z" fill="currentColor"/>
<path d="M27.42 22.855H25.9V24.385H27.42V22.855Z" fill="currentColor"/>
<path d="M27.42 16.765H25.9V19.815H27.42V16.765Z" fill="currentColor"/>
<path d="M27.42 4.57501H25.9V6.09501H27.42V4.57501Z" fill="currentColor"/>
<path d="M25.9 24.385H24.38V25.905H25.9V24.385Z" fill="currentColor"/>
<path d="M25.9 19.815H24.38V21.335H25.9V19.815Z" fill="currentColor"/>
<path d="M25.9 10.665H24.38V12.195H25.9V10.665Z" fill="currentColor"/>
<path d="M24.38 21.335H22.85V22.855H24.38V21.335Z" fill="currentColor"/>
<path d="M24.38 12.195H22.85V13.715H24.38V12.195Z" fill="currentColor"/>
<path d="M25.9 3.04504H22.85V4.57504H25.9V3.04504Z" fill="currentColor"/>
<path d="M24.38 25.905H21.33V27.435H24.38V25.905Z" fill="currentColor"/>
<path d="M22.85 16.765H21.33V18.285H22.85V16.765Z" fill="currentColor"/>
<path d="M22.85 7.625H21.33V9.145H22.85V7.625Z" fill="currentColor"/>
<path d="M22.85 22.855H19.81V24.385H22.85V22.855Z" fill="currentColor"/>
<path d="M21.33 4.57501H18.28V6.09501H21.33V4.57501Z" fill="currentColor"/>
<path d="M21.33 27.435H16.76V28.955H21.33V27.435Z" fill="currentColor"/>
<path d="M19.81 19.815H18.28V21.335H19.81V19.815Z" fill="currentColor"/>
<path d="M19.81 24.385H15.23V25.905H19.81V24.385Z" fill="currentColor"/>
<path d="M16.76 10.665V12.195H13.71V13.715H12.19V16.765H10.66V18.285H9.14V19.815H13.71V18.285H16.76V16.765H18.28V13.715H19.81V9.14502H18.28V10.665H16.76Z" fill="currentColor"/>
<path d="M18.28 7.625H16.76V9.145H18.28V7.625Z" fill="currentColor"/>
<path d="M22.85 1.52502H15.23V3.04502H22.85V1.52502Z" fill="currentColor"/>
<path d="M16.76 9.14502H13.71V10.665H16.76V9.14502Z" fill="currentColor"/>
<path d="M16.76 28.955H9.14V30.475H16.76V28.955Z" fill="currentColor"/>
<path d="M15.23 21.335H13.71V22.855H15.23V21.335Z" fill="currentColor"/>
<path d="M15.23 25.905H9.14V27.435H15.23V25.905Z" fill="currentColor"/>
<path d="M13.71 10.665H12.19V12.195H13.71V10.665Z" fill="currentColor"/>
<path d="M15.23 3.04504H10.66V4.57504H15.23V3.04504Z" fill="currentColor"/>
<path d="M13.71 22.855H10.66V24.385H13.71V22.855Z" fill="currentColor"/>
<path d="M12.19 12.195H10.66V13.715H12.19V12.195Z" fill="currentColor"/>
<path d="M12.19 7.625H9.14V9.145H12.19V7.625Z" fill="currentColor"/>
<path d="M10.66 13.715H9.14V16.765H10.66V13.715Z" fill="currentColor"/>
<path d="M10.66 4.57501H7.61V6.09501H10.66V4.57501Z" fill="currentColor"/>
<path d="M9.14 27.435H6.09V28.955H9.14V27.435Z" fill="currentColor"/>
<path d="M9.14 16.765H7.61V18.285H9.14V16.765Z" fill="currentColor"/>
<path d="M7.61 21.335H6.09V22.855H7.61V21.335Z" fill="currentColor"/>
<path d="M7.61 10.665H6.09V13.715H7.61V10.665Z" fill="currentColor"/>
<path d="M7.61 6.09503H6.09V7.62503H7.61V6.09503Z" fill="currentColor"/>
<path d="M6.09001 25.905H4.57001V27.435H6.09001V25.905Z" fill="currentColor"/>
<path d="M6.09001 7.625H4.57001V9.145H6.09001V7.625Z" fill="currentColor"/>
<path d="M4.56999 24.385H3.03999V25.905H4.56999V24.385Z" fill="currentColor"/>
<path d="M4.56999 16.765H3.03999V19.815H4.56999V16.765Z" fill="currentColor"/>
<path d="M4.56999 9.14502H3.03999V12.195H4.56999V9.14502Z" fill="currentColor"/>
<path d="M3.04 21.335H1.52V24.385H3.04V21.335Z" fill="currentColor"/>
<path d="M3.04 12.195H1.52V15.235H3.04V12.195Z" fill="currentColor"/>
<path d="M1.52 15.235H0V21.335H1.52V15.235Z" fill="currentColor"/>
</g>
<defs>
<clipPath id="clip0_1128_8972">
<rect width="32" height="32" fill="white"/>
</clipPath>
</defs>
</svg>
