<svg width="32" height="32" viewBox="0 0 32 32" fill="none" xmlns="http://www.w3.org/2000/svg">
<g clip-path="url(#clip0_1128_12604)">
<path d="M31.24 3.81001H29.71V28.19H31.24V3.81001Z" fill="currentColor"/>
<path d="M29.7101 28.19H28.1901V29.71H29.7101V28.19Z" fill="currentColor"/>
<path d="M29.7101 2.28H28.1901V3.81H29.7101V2.28Z" fill="currentColor"/>
<path d="M28.1901 29.71H3.81006V31.24H28.1901V29.71Z" fill="currentColor"/>
<path d="M28.19 14.47H25.14V17.52H28.19V14.47Z" fill="currentColor"/>
<path d="M23.6201 14.47H20.5701V17.52H23.6201V14.47Z" fill="currentColor"/>
<path d="M19.05 14.47H16V17.52H19.05V14.47Z" fill="currentColor"/>
<path d="M5.33006 20.57H6.86006V22.09H11.4301V20.57H12.9501V19.04H14.4801V17.52H11.4301V16H14.4801V14.47H12.9501V12.95H11.4301V11.43H6.86006V12.95H5.33006V14.47H3.81006V19.04H5.33006V20.57ZM8.38006 14.47H9.91006V16H8.38006V14.47Z" fill="currentColor"/>
<path d="M28.1901 0.760002H3.81006V2.28H28.1901V0.760002Z" fill="currentColor"/>
<path d="M3.81004 28.19H2.29004V29.71H3.81004V28.19Z" fill="currentColor"/>
<path d="M3.81004 2.28H2.29004V3.81H3.81004V2.28Z" fill="currentColor"/>
<path d="M2.29001 3.81001H0.76001V28.19H2.29001V3.81001Z" fill="currentColor"/>
</g>
<defs>
<clipPath id="clip0_1128_12604">
<rect width="32" height="32" fill="white"/>
</clipPath>
</defs>
</svg>
