<svg width="32" height="32" viewBox="0 0 32 32" fill="none" xmlns="http://www.w3.org/2000/svg">
<g clip-path="url(#clip0_1128_5659)">
<path d="M30.48 21.33H1.52V1.52H0V25.9H1.52V27.42H10.67V28.95H12.19V27.42H19.81V28.95H21.33V27.42H30.48V25.9H32V1.52H30.48V21.33Z" fill="currentColor"/>
<path d="M22.86 9.14H24.38V7.61H25.9V6.09H24.38V4.57H22.86V6.09H21.33V7.61H22.86V9.14Z" fill="currentColor"/>
<path d="M10.67 30.47V28.95H9.14001V32H22.86V28.95H21.33V30.47H10.67Z" fill="currentColor"/>
<path d="M21.33 10.66H19.81V12.19H21.33V10.66Z" fill="currentColor"/>
<path d="M21.33 15.23H10.67V16.76H21.33V15.23Z" fill="currentColor"/>
<path d="M12.19 10.66H10.67V12.19H12.19V10.66Z" fill="currentColor"/>
<path d="M30.48 0H1.51999V1.52H30.48V0Z" fill="currentColor"/>
</g>
<defs>
<clipPath id="clip0_1128_5659">
<rect width="32" height="32" fill="white"/>
</clipPath>
</defs>
</svg>
