<svg width="32" height="32" viewBox="0 0 32 32" fill="none" xmlns="http://www.w3.org/2000/svg">
<g clip-path="url(#clip0_1128_14875)">
<path d="M22.86 9.14V0H9.15V9.14H0V22.86H9.15V32H22.86V22.86H32V9.14H22.86ZM30.48 21.33H21.34V30.48H10.67V21.33H1.53V10.67H10.67V1.52H21.34V10.67H30.48V21.33Z" fill="currentColor"/>
<path d="M25.91 18.28H27.43V16.76H28.95V15.24H27.43V13.71H25.91V12.19H24.38V19.81H25.91V18.28Z" fill="currentColor"/>
<path d="M19.81 16.76H18.29V18.28H19.81V16.76Z" fill="currentColor"/>
<path d="M19.81 13.71H18.29V15.24H19.81V13.71Z" fill="currentColor"/>
<path d="M12.1899 24.38V25.9H13.7199V27.43H15.2399V28.95H16.7599V27.43H18.2899V25.9H19.8099V24.38H12.1899Z" fill="currentColor"/>
<path d="M18.2899 4.56999H16.7599V3.04999H15.2399V4.56999H13.7199V6.08999H12.1899V7.61999H19.8099V6.08999H18.2899V4.56999Z" fill="currentColor"/>
<path d="M18.29 18.28H13.72V19.81H18.29V18.28Z" fill="currentColor"/>
<path d="M13.7199 16.76H12.1899V18.28H13.7199V16.76Z" fill="currentColor"/>
<path d="M13.7199 13.71H12.1899V15.24H13.7199V13.71Z" fill="currentColor"/>
<path d="M6.10005 13.71H4.57005V15.24H3.05005V16.76H4.57005V18.28H6.10005V19.81H7.62005V12.19H6.10005V13.71Z" fill="currentColor"/>
</g>
<defs>
<clipPath id="clip0_1128_14875">
<rect width="32" height="32" fill="white"/>
</clipPath>
</defs>
</svg>
