<svg width="32" height="32" viewBox="0 0 32 32" fill="none" xmlns="http://www.w3.org/2000/svg">
<g clip-path="url(#clip0_1128_3968)">
<path d="M32 9.14001H27.43V10.66H32V9.14001Z" fill="currentColor"/>
<path d="M32 30.47H0V32H32V30.47Z" fill="currentColor"/>
<path d="M28.96 24.38H27.43V27.43H32V25.9H28.96V24.38Z" fill="currentColor"/>
<path d="M32 13.71H27.43V15.24H32V13.71Z" fill="currentColor"/>
<path d="M27.43 21.33H25.91V24.38H27.43V21.33Z" fill="currentColor"/>
<path d="M24.39 25.9H22.86V24.38H21.34V25.9H19.81V24.38H18.29V25.9H13.72V24.38H12.19V25.9H10.67V24.38H9.15001V25.9H7.62001V24.38H6.10001V27.43H25.91V24.38H24.39V25.9Z" fill="currentColor"/>
<path d="M25.91 19.8101H24.39V21.3301H25.91V19.8101Z" fill="currentColor"/>
<path d="M25.91 1.52002H24.39V16.76H25.91V1.52002Z" fill="currentColor"/>
<path d="M22.86 24.3801H24.39V21.3301H22.86V19.8101H21.34V22.8501H22.86V24.3801Z" fill="currentColor"/>
<path d="M18.29 16.76V19.81H19.81V18.28H24.39V16.76H18.29Z" fill="currentColor"/>
<path d="M21.34 22.85H19.81V24.38H21.34V22.85Z" fill="currentColor"/>
<path d="M18.29 19.8101H16.77V22.8501H18.29V19.8101Z" fill="currentColor"/>
<path d="M16.77 22.85H15.24V24.38H16.77V22.85Z" fill="currentColor"/>
<path d="M15.24 19.8101H13.72V22.8501H15.24V19.8101Z" fill="currentColor"/>
<path d="M7.62 16.76V18.28H12.19V19.81H13.72V16.76H7.62Z" fill="currentColor"/>
<path d="M12.19 22.85H10.67V24.38H12.19V22.85Z" fill="currentColor"/>
<path d="M10.67 9.14004H9.14999V10.66H10.67V15.24H15.24V12.19H16.77V15.24H21.34V10.66H22.86V9.14004H21.34V7.62004H19.81V6.09004H18.29V4.57004H16.77V3.04004H15.24V4.57004H13.72V6.09004H12.19V7.62004H10.67V9.14004Z" fill="currentColor"/>
<path d="M24.39 0H7.62V1.52H24.39V0Z" fill="currentColor"/>
<path d="M9.14999 24.3801V22.8501H10.67V19.8101H9.14999V21.3301H7.62V24.3801H9.14999Z" fill="currentColor"/>
<path d="M7.62001 19.8101H6.10001V21.3301H7.62001V19.8101Z" fill="currentColor"/>
<path d="M7.62001 1.52002H6.10001V16.76H7.62001V1.52002Z" fill="currentColor"/>
<path d="M6.09999 21.33H4.57999V24.38H6.09999V21.33Z" fill="currentColor"/>
<path d="M3.05 25.9H0V27.43H4.58V24.38H3.05V25.9Z" fill="currentColor"/>
<path d="M4.58 13.71H0V15.24H4.58V13.71Z" fill="currentColor"/>
<path d="M4.58 9.14001H0V10.66H4.58V9.14001Z" fill="currentColor"/>
</g>
<defs>
<clipPath id="clip0_1128_3968">
<rect width="32" height="32" fill="white"/>
</clipPath>
</defs>
</svg>
