<svg width="32" height="32" viewBox="0 0 32 32" fill="none" xmlns="http://www.w3.org/2000/svg">
<g clip-path="url(#clip0_1135_3218)">
<path d="M31.24 6.86001H25.15V2.29001H23.62V6.86001H17.53V2.29001H16V6.86001H8.38V2.29001H6.86V6.86001H0.760002V31.24H31.24V6.86001ZM20.57 29.72H2.29V8.38001H20.57V29.72ZM29.72 29.72H28.19V28.19H26.67V26.67H25.15V28.19H23.62V29.72H22.1V28.19H23.62V26.67H25.15V8.38001H26.67V26.67H28.19V28.19H29.72V29.72Z" fill="currentColor"/>
<path d="M23.62 0.76001H17.53V2.29001H23.62V0.76001Z" fill="currentColor"/>
<path d="M16 0.76001H8.38V2.29001H16V0.76001Z" fill="currentColor"/>
</g>
<defs>
<clipPath id="clip0_1135_3218">
<rect width="32" height="32" fill="white"/>
</clipPath>
</defs>
</svg>
