<svg width="32" height="32" viewBox="0 0 32 32" fill="none" xmlns="http://www.w3.org/2000/svg">
<g clip-path="url(#clip0_1135_4717)">
<path d="M32 15.24H30.47V19.81H32V15.24Z" fill="currentColor"/>
<path d="M30.4699 19.8101H28.95V21.3401H30.4699V19.8101Z" fill="currentColor"/>
<path d="M30.4699 12.1899H28.95V15.2399H30.4699V12.1899Z" fill="currentColor"/>
<path d="M28.9501 18.29H27.4301V19.81H28.9501V18.29Z" fill="currentColor"/>
<path d="M28.9501 9.15002H27.4301V12.19H28.9501V9.15002Z" fill="currentColor"/>
<path d="M27.43 16.77H24.38V18.29H27.43V16.77Z" fill="currentColor"/>
<path d="M27.43 7.62H25.9V9.14999H27.43V7.62Z" fill="currentColor"/>
<path d="M25.9 6.09998H24.38V7.61998H25.9V6.09998Z" fill="currentColor"/>
<path d="M24.38 18.29H22.85V19.81H24.38V18.29Z" fill="currentColor"/>
<path d="M22.85 12.1899H21.33V15.2399H22.85V12.1899Z" fill="currentColor"/>
<path d="M24.38 4.56995H21.33V6.09995H24.38V4.56995Z" fill="currentColor"/>
<path d="M22.8501 19.8101H19.8101V21.3401H22.8501V19.8101Z" fill="currentColor"/>
<path d="M21.3301 9.15002H19.8101V12.19H21.3301V9.15002Z" fill="currentColor"/>
<path d="M19.81 18.29H18.28V19.81H19.81V18.29Z" fill="currentColor"/>
<path d="M19.81 7.62H18.28V9.14999H19.81V7.62Z" fill="currentColor"/>
<path d="M13.71 16.77V18.29H15.24V30.48H16.76V18.29H18.28V16.77H13.71Z" fill="currentColor"/>
<path d="M15.2399 30.48H12.1899V32H15.2399V30.48Z" fill="currentColor"/>
<path d="M13.7099 18.29H12.1899V19.81H13.7099V18.29Z" fill="currentColor"/>
<path d="M13.7099 7.62H12.1899V9.14999H13.7099V7.62Z" fill="currentColor"/>
<path d="M21.33 4.57V3.05H16.76V0H15.24V3.05H10.66V4.57H21.33Z" fill="currentColor"/>
<path d="M12.19 28.96H10.66V30.48H12.19V28.96Z" fill="currentColor"/>
<path d="M12.19 9.15002H10.66V12.19H12.19V9.15002Z" fill="currentColor"/>
<path d="M12.19 19.8101H9.14001V21.3401H12.19V19.8101Z" fill="currentColor"/>
<path d="M10.66 12.1899H9.14001V15.2399H10.66V12.1899Z" fill="currentColor"/>
<path d="M10.66 4.56995H7.62V6.09995H10.66V4.56995Z" fill="currentColor"/>
<path d="M9.14 18.29H7.62V19.81H9.14V18.29Z" fill="currentColor"/>
<path d="M7.61995 16.77H4.56995V18.29H7.61995V16.77Z" fill="currentColor"/>
<path d="M7.61997 6.09998H6.08997V7.61998H7.61997V6.09998Z" fill="currentColor"/>
<path d="M6.08995 7.62H4.56995V9.14999H6.08995V7.62Z" fill="currentColor"/>
<path d="M4.57005 18.29H3.05005V19.81H4.57005V18.29Z" fill="currentColor"/>
<path d="M4.57005 9.15002H3.05005V12.19H4.57005V9.15002Z" fill="currentColor"/>
<path d="M3.05002 19.8101H1.52002V21.3401H3.05002V19.8101Z" fill="currentColor"/>
<path d="M3.05002 12.1899H1.52002V15.2399H3.05002V12.1899Z" fill="currentColor"/>
<path d="M1.52 15.24H0V19.81H1.52V15.24Z" fill="currentColor"/>
</g>
<defs>
<clipPath id="clip0_1135_4717">
<rect width="32" height="32" fill="white"/>
</clipPath>
</defs>
</svg>
