<svg width="32" height="32" viewBox="0 0 32 32" fill="none" xmlns="http://www.w3.org/2000/svg">
<g clip-path="url(#clip0_1128_10580)">
<path d="M32 1.53003H30.48V7.62003H32V1.53003Z" fill="currentColor"/>
<path d="M30.48 7.62H28.96V9.14999H30.48V7.62Z" fill="currentColor"/>
<path d="M3.04999 13.72V22.86H4.57999V25.91H6.09999V28.96H7.61999V30.48H10.67V32H21.34V30.48H24.39V28.96H25.91V25.91H27.43V22.86H28.96V13.72H27.43V16.77H25.91V18.29H24.39V15.24H22.86V13.72H9.14999V15.24H7.61999V18.29H6.09999V16.77H4.57999V13.72H3.04999ZM9.14999 19.81H10.67V16.77H15.24V15.24H16.77V16.77H21.34V18.29H22.86V22.86H21.34V24.38H18.29V22.86H13.72V24.38H10.67V22.86H9.14999V19.81Z" fill="currentColor"/>
<path d="M28.96 9.15002H27.43V10.67H28.96V9.15002Z" fill="currentColor"/>
<path d="M27.43 4.57001H25.91V6.10001H27.43V4.57001Z" fill="currentColor"/>
<path d="M27.43 10.67H21.34V12.19H27.43V10.67Z" fill="currentColor"/>
<path d="M25.91 6.09998H24.39V7.61998H25.91V6.09998Z" fill="currentColor"/>
<path d="M24.39 7.62H22.86V9.14999H24.39V7.62Z" fill="currentColor"/>
<path d="M24.39 3.04999H22.86V4.56999H24.39V3.04999Z" fill="currentColor"/>
<path d="M22.86 4.57001H21.34V6.10001H22.86V4.57001Z" fill="currentColor"/>
<path d="M21.34 9.15002H19.81V10.67H21.34V9.15002Z" fill="currentColor"/>
<path d="M30.48 0H18.29V1.53H30.48V0Z" fill="currentColor"/>
<path d="M19.81 18.29H18.29V19.81H19.81V18.29Z" fill="currentColor"/>
<path d="M19.81 7.62H18.29V9.14999H19.81V7.62Z" fill="currentColor"/>
<path d="M18.29 1.53003H16.77V3.05003H15.24V1.53003H13.72V7.62003H15.24V4.57003H16.77V7.62003H18.29V1.53003Z" fill="currentColor"/>
<path d="M18.29 19.81H15.24V21.34H18.29V19.81Z" fill="currentColor"/>
<path d="M18.29 10.67H13.72V12.19H18.29V10.67Z" fill="currentColor"/>
<path d="M13.72 7.62H12.2V9.14999H13.72V7.62Z" fill="currentColor"/>
<path d="M12.2 9.15002H10.67V10.67H12.2V9.15002Z" fill="currentColor"/>
<path d="M10.67 4.57001H9.15002V6.10001H10.67V4.57001Z" fill="currentColor"/>
<path d="M10.67 10.67H4.58002V12.19H10.67V10.67Z" fill="currentColor"/>
<path d="M9.14999 6.09998H7.62V7.61998H9.14999V6.09998Z" fill="currentColor"/>
<path d="M7.61998 7.62H6.09998V9.14999H7.61998V7.62Z" fill="currentColor"/>
<path d="M7.61998 3.04999H6.09998V4.56999H7.61998V3.04999Z" fill="currentColor"/>
<path d="M6.10002 4.57001H4.58002V6.10001H6.10002V4.57001Z" fill="currentColor"/>
<path d="M4.57999 9.15002H3.04999V10.67H4.57999V9.15002Z" fill="currentColor"/>
<path d="M13.72 0H1.53003V1.53H13.72V0Z" fill="currentColor"/>
<path d="M3.05003 7.62H1.53003V9.14999H3.05003V7.62Z" fill="currentColor"/>
<path d="M1.53 1.53003H0V7.62003H1.53V1.53003Z" fill="currentColor"/>
</g>
<defs>
<clipPath id="clip0_1128_10580">
<rect width="32" height="32" fill="white"/>
</clipPath>
</defs>
</svg>
