<svg width="32" height="32" viewBox="0 0 32 32" fill="none" xmlns="http://www.w3.org/2000/svg">
<g clip-path="url(#clip0_1128_4373)">
<path d="M32 9.14499H30.47V30.475H32V9.14499Z" fill="currentColor"/>
<path d="M30.47 1.52499H25.9V9.14499H27.43V3.04499H28.95V9.14499H30.47V1.52499Z" fill="currentColor"/>
<path d="M28.95 24.385H27.43V25.905H28.95V24.385Z" fill="currentColor"/>
<path d="M28.95 18.285H27.43V19.805H28.95V18.285Z" fill="currentColor"/>
<path d="M28.95 12.195H27.43V13.715H28.95V12.195Z" fill="currentColor"/>
<path d="M24.38 12.195H21.33V13.715H24.38V30.475H25.9V9.14499H24.38V12.195Z" fill="currentColor"/>
<path d="M22.86 3.04498H21.33V4.57498H22.86V3.04498Z" fill="currentColor"/>
<path d="M22.86 18.285H19.81V21.335H22.86V18.285Z" fill="currentColor"/>
<path d="M21.33 1.52499H18.28V3.04499H21.33V1.52499Z" fill="currentColor"/>
<path d="M21.33 13.715H18.28V15.235H21.33V13.715Z" fill="currentColor"/>
<path d="M18.28 24.385H15.24V27.425H18.28V24.385Z" fill="currentColor"/>
<path d="M18.28 15.235H15.24V16.765H18.28V15.235Z" fill="currentColor"/>
<path d="M18.28 3.04498H15.24V4.57498H18.28V3.04498Z" fill="currentColor"/>
<path d="M15.24 1.52499H13.71V3.04499H15.24V1.52499Z" fill="currentColor"/>
<path d="M13.71 12.195H10.66V13.715H12.19V30.475H13.71V18.285H15.24V16.765H13.71V12.195Z" fill="currentColor"/>
<path d="M10.66 6.095H9.14V7.615H10.66V6.095Z" fill="currentColor"/>
<path d="M10.66 18.285H7.62V21.335H10.66V18.285Z" fill="currentColor"/>
<path d="M10.66 13.715H7.62V15.235H10.66V13.715Z" fill="currentColor"/>
<path d="M9.14 4.57498H6.09V6.09498H9.14V4.57498Z" fill="currentColor"/>
<path d="M7.62001 15.235H4.57001V16.765H7.62001V15.235Z" fill="currentColor"/>
<path d="M6.09 24.385H3.05V27.425H6.09V24.385Z" fill="currentColor"/>
<path d="M6.09 6.095H3.05V7.615H6.09V6.095Z" fill="currentColor"/>
<path d="M4.57 16.765H1.52V18.285H4.57V16.765Z" fill="currentColor"/>
<path d="M3.05 4.57498H1.52V6.09498H3.05V4.57498Z" fill="currentColor"/>
<path d="M1.52 18.285H0V30.475H1.52V18.285Z" fill="currentColor"/>
</g>
<defs>
<clipPath id="clip0_1128_4373">
<rect width="32" height="32" fill="white"/>
</clipPath>
</defs>
</svg>
