<svg width="32" height="32" viewBox="0 0 32 32" fill="none" xmlns="http://www.w3.org/2000/svg">
<g clip-path="url(#clip0_1128_3935)">
<path d="M32 3.04004H30.48V22.85H32V3.04004Z" fill="currentColor"/>
<path d="M30.48 22.85H28.96V24.38H30.48V22.85Z" fill="currentColor"/>
<path d="M30.48 1.52002H28.96V3.04002H30.48V1.52002Z" fill="currentColor"/>
<path d="M3.05 24.38V25.9H6.1V28.95H4.58V30.47H3.05V32H13.72V30.47H12.19V28.95H10.67V25.9H21.34V28.95H19.81V30.47H18.29V32H28.96V30.47H27.43V28.95H25.91V25.9H28.96V24.38H3.05ZM9.15 28.95H7.62V25.9H9.15V28.95ZM24.39 28.95H22.86V25.9H24.39V28.95Z" fill="currentColor"/>
<path d="M27.43 6.08995H25.91V4.56995H24.39V6.08995H22.86V7.61995H21.34V12.1899H24.39V9.13995H25.91V12.1899H28.96V7.61995H27.43V6.08995Z" fill="currentColor"/>
<path d="M22.86 13.71V15.24H24.39V21.33H25.91V15.24H27.43V13.71H22.86Z" fill="currentColor"/>
<path d="M19.81 16.76H18.29V18.28H19.81V21.33H21.34V13.71H19.81V16.76Z" fill="currentColor"/>
<path d="M19.81 9.14001H18.29V12.19H19.81V9.14001Z" fill="currentColor"/>
<path d="M19.81 6.08997H18.29V7.61997H19.81V6.08997Z" fill="currentColor"/>
<path d="M16.77 15.24V13.71H15.24V21.33H16.77V16.76H18.29V15.24H16.77Z" fill="currentColor"/>
<path d="M16.77 9.13995H18.29V7.61995H16.77V6.08995H18.29V4.56995H15.24V12.1899H16.77V9.13995Z" fill="currentColor"/>
<path d="M9.14999 13.71V21.33H13.72V19.81H10.67V18.28H12.19V16.76H10.67V15.24H13.72V13.71H9.14999Z" fill="currentColor"/>
<path d="M9.14999 4.56995V12.1899H13.72V4.56995H9.14999ZM12.19 10.6599H10.67V6.08995H12.19V10.6599Z" fill="currentColor"/>
<path d="M7.62001 18.28H6.10001V21.33H7.62001V18.28Z" fill="currentColor"/>
<path d="M7.62001 15.24H6.10001V16.76H7.62001V15.24Z" fill="currentColor"/>
<path d="M3.05 4.56995V12.1899H4.58V9.13995H7.62V7.61995H4.58V6.08995H7.62V4.56995H3.05Z" fill="currentColor"/>
<path d="M28.96 0H3.05V1.52H28.96V0Z" fill="currentColor"/>
<path d="M4.58 15.24H6.1V13.71H3.05V21.33H4.58V18.28H6.1V16.76H4.58V15.24Z" fill="currentColor"/>
<path d="M3.05 22.85H1.53V24.38H3.05V22.85Z" fill="currentColor"/>
<path d="M3.05 1.52002H1.53V3.04002H3.05V1.52002Z" fill="currentColor"/>
<path d="M1.53 3.04004H0V22.85H1.53V3.04004Z" fill="currentColor"/>
</g>
<defs>
<clipPath id="clip0_1128_3935">
<rect width="32" height="32" fill="white"/>
</clipPath>
</defs>
</svg>
