<svg width="32" height="32" viewBox="0 0 32 32" fill="none" xmlns="http://www.w3.org/2000/svg">
<g clip-path="url(#clip0_1128_9980)">
<path d="M32 18.29H30.48V19.81H32V18.29Z" fill="currentColor"/>
<path d="M30.48 19.81H28.96V21.34H30.48V19.81Z" fill="currentColor"/>
<path d="M27.43 10.67H28.96V6.09998H25.91V7.61998H27.43V10.67Z" fill="currentColor"/>
<path d="M28.96 21.34H25.91V22.86H28.96V21.34Z" fill="currentColor"/>
<path d="M27.43 10.67H25.91V15.24H27.43V10.67Z" fill="currentColor"/>
<path d="M25.91 27.4301H24.39V28.9601H25.91V27.4301Z" fill="currentColor"/>
<path d="M24.39 18.29H30.48V16.77H25.91V15.24H24.39V18.29Z" fill="currentColor"/>
<path d="M25.91 7.62H24.39V9.14999H25.91V7.62Z" fill="currentColor"/>
<path d="M24.39 25.91H22.86V27.43H24.39V25.91Z" fill="currentColor"/>
<path d="M19.81 22.86V24.38H21.34V25.91H22.86V24.38H25.91V22.86H19.81Z" fill="currentColor"/>
<path d="M24.39 9.15002H22.86V10.67H24.39V9.15002Z" fill="currentColor"/>
<path d="M24.39 28.96H19.81V30.48H24.39V28.96Z" fill="currentColor"/>
<path d="M24.39 18.29H21.34V19.81H24.39V18.29Z" fill="currentColor"/>
<path d="M19.81 13.72H21.34V12.19H22.86V10.67H21.34V9.15002H19.81V13.72Z" fill="currentColor"/>
<path d="M19.81 27.4301H18.29V28.9601H19.81V27.4301Z" fill="currentColor"/>
<path d="M19.81 13.72H18.29V15.24H19.81V13.72Z" fill="currentColor"/>
<path d="M19.81 4.57001H18.29V9.15001H19.81V4.57001Z" fill="currentColor"/>
<path d="M16.77 25.91V24.38H15.24V25.91H13.72V27.43H15.24V32H16.77V27.43H18.29V25.91H16.77Z" fill="currentColor"/>
<path d="M18.29 21.34H16.77V22.86H18.29V21.34Z" fill="currentColor"/>
<path d="M18.29 18.29H16.77V19.81H18.29V18.29Z" fill="currentColor"/>
<path d="M18.29 1.53003H16.77V4.57003H18.29V1.53003Z" fill="currentColor"/>
<path d="M16.77 19.81H15.24V21.34H16.77V19.81Z" fill="currentColor"/>
<path d="M16.77 0H15.24V1.53H16.77V0Z" fill="currentColor"/>
<path d="M15.24 21.34H13.72V22.86H15.24V21.34Z" fill="currentColor"/>
<path d="M15.24 18.29H13.72V19.81H15.24V18.29Z" fill="currentColor"/>
<path d="M15.24 1.53003H13.72V4.57003H15.24V1.53003Z" fill="currentColor"/>
<path d="M13.72 27.4301H12.2V28.9601H13.72V27.4301Z" fill="currentColor"/>
<path d="M13.72 13.72H12.2V15.24H13.72V13.72Z" fill="currentColor"/>
<path d="M13.72 4.57001H12.2V9.15001H13.72V4.57001Z" fill="currentColor"/>
<path d="M12.2 19.81H10.67V21.34H12.2V19.81Z" fill="currentColor"/>
<path d="M12.2 28.96H7.62V30.48H12.2V28.96Z" fill="currentColor"/>
<path d="M10.67 24.38H12.2V22.86H6.10001V24.38H9.15001V25.91H10.67V24.38Z" fill="currentColor"/>
<path d="M10.67 12.19V13.72H12.2V9.15002H10.67V10.67H9.14999V12.19H10.67Z" fill="currentColor"/>
<path d="M9.14999 25.91H7.62V27.43H9.14999V25.91Z" fill="currentColor"/>
<path d="M10.67 18.29H7.62V19.81H10.67V18.29Z" fill="currentColor"/>
<path d="M9.14999 9.15002H7.62V10.67H9.14999V9.15002Z" fill="currentColor"/>
<path d="M7.62001 27.4301H6.10001V28.9601H7.62001V27.4301Z" fill="currentColor"/>
<path d="M7.62001 7.62H6.10001V9.14999H7.62001V7.62Z" fill="currentColor"/>
<path d="M6.09999 21.34H3.04999V22.86H6.09999V21.34Z" fill="currentColor"/>
<path d="M6.09999 10.67H4.57999V15.24H6.09999V10.67Z" fill="currentColor"/>
<path d="M7.62 18.29V15.24H6.1V16.77H1.53V18.29H7.62Z" fill="currentColor"/>
<path d="M6.09999 7.61998V6.09998H3.04999V10.67H4.57999V7.61998H6.09999Z" fill="currentColor"/>
<path d="M3.05 19.81H1.53V21.34H3.05V19.81Z" fill="currentColor"/>
<path d="M1.53 18.29H0V19.81H1.53V18.29Z" fill="currentColor"/>
</g>
<defs>
<clipPath id="clip0_1128_9980">
<rect width="32" height="32" fill="white"/>
</clipPath>
</defs>
</svg>
