<svg width="32" height="32" viewBox="0 0 32 32" fill="none" xmlns="http://www.w3.org/2000/svg">
<g clip-path="url(#clip0_1128_6454)">
<path d="M28.2 30.48V18.29H31.24V3.04999H28.2V1.51999H26.67V30.48H28.2ZM28.2 4.56999H29.72V7.61999H28.2V4.56999ZM28.2 9.13999H29.72V12.19H28.2V9.13999ZM28.2 13.72H29.72V16.76H28.2V13.72Z" fill="currentColor"/>
<path d="M26.6651 30.48H3.81506V32H26.6651V30.48Z" fill="currentColor"/>
<path d="M23.625 24.38H22.095V25.91H23.625V24.38Z" fill="currentColor"/>
<path d="M23.625 27.43H19.045V28.95H23.625V27.43Z" fill="currentColor"/>
<path d="M22.1 16.76V15.24H23.63V7.62001H22.1V6.10001H9.90001V7.62001H8.38501V15.24H9.90001V16.76H22.1ZM11.435 9.14001H20.575V10.67H11.435V9.14001ZM11.435 12.19H20.575V13.72H11.435V12.19Z" fill="currentColor"/>
<path d="M20.575 24.38H19.045V25.91H20.575V24.38Z" fill="currentColor"/>
<path d="M26.6651 0H3.81506V1.52H26.6651V0Z" fill="currentColor"/>
<path d="M5.33501 27.43V25.91H3.81501V21.33H5.33501V19.81H3.81501V16.76H5.33501V15.24H3.81501V12.19H5.33501V10.67H3.81501V6.09999H5.33501V4.56999H3.81501V1.51999H2.28501V4.56999H0.765015V6.09999H2.28501V10.67H0.765015V12.19H2.28501V15.24H0.765015V16.76H2.28501V19.81H0.765015V21.33H2.28501V25.91H0.765015V27.43H2.28501V30.48H3.81501V27.43H5.33501Z" fill="currentColor"/>
</g>
<defs>
<clipPath id="clip0_1128_6454">
<rect width="32" height="32" fill="white"/>
</clipPath>
</defs>
</svg>
