<svg width="32" height="32" viewBox="0 0 32 32" fill="none" xmlns="http://www.w3.org/2000/svg">
<g clip-path="url(#clip0_1128_6566)">
<path d="M19.81 22.855V21.335H18.29V22.855H10.67V21.335H9.15V16.765H10.67V15.235H18.29V16.765H19.81V15.235H30.48V16.765H32V13.715H25.91V12.2H24.39V13.72H15.24V12.2H13.72V10.67H15.24V9.14501H24.39V10.665H25.91V6.10001H24.39V7.62001H15.24V6.10001H13.72V7.62001H1.53V9.15001H0V13.72H1.53V15.24H3.05V16.77H4.58V15.24H7.62V16.77H6.1V21.34H7.62V22.86H4.58V21.34H3.05V22.86H1.53V24.39H0V28.96H1.53V30.48H32V27.43H30.48V28.96H18.29V27.43H16.77V25.91H18.29V24.39H30.48V25.91H32V21.34H30.48V22.86L19.81 22.855ZM6.1 12.2H3.05V10.67H6.1V12.2ZM13.72 25.91H12.2V27.43H13.72V28.96H12.2V27.43H10.67V25.91H12.2V24.39H13.72V25.91Z" fill="currentColor"/>
<path d="M30.48 16.765H28.96V21.335H30.48V16.765Z" fill="currentColor"/>
<path d="M30.48 25.905H19.81V27.425H30.48V25.905Z" fill="currentColor"/>
<path d="M27.43 19.805H21.34V21.335H27.43V19.805Z" fill="currentColor"/>
<path d="M27.43 16.765H21.34V18.285H27.43V16.765Z" fill="currentColor"/>
<path d="M24.39 10.665H16.77V12.195H24.39V10.665Z" fill="currentColor"/>
<path d="M24.39 4.57498H16.77V6.09498H24.39V4.57498Z" fill="currentColor"/>
<path d="M18.29 16.765H16.77V21.335H18.29V16.765Z" fill="currentColor"/>
<path d="M13.72 4.57498H12.2V6.09498H13.72V4.57498Z" fill="currentColor"/>
<path d="M6.09999 4.57498H3.04999V6.09498H6.09999V4.57498Z" fill="currentColor"/>
<path d="M13.72 3.04499V4.57499H15.24V3.04499H24.39V4.57499H25.91V1.52499H1.53003V3.04499H13.72Z" fill="currentColor"/>
<path d="M3.05003 16.765H1.53003V21.335H3.05003V16.765Z" fill="currentColor"/>
<path d="M1.53 3.04498H0V7.61498H1.53V3.04498Z" fill="currentColor"/>
</g>
<defs>
<clipPath id="clip0_1128_6566">
<rect width="32" height="32" fill="white"/>
</clipPath>
</defs>
</svg>
