<svg width="32" height="32" viewBox="0 0 32 32" fill="none" xmlns="http://www.w3.org/2000/svg">
<path d="M30.475 1.52502H1.52502V30.475H30.475V1.52502ZM28.955 28.955H12.2V3.04502H28.96L28.955 28.955Z" fill="currentColor"/>
<path d="M27.435 25.905H25.905V27.435H27.435V25.905Z" fill="currentColor"/>
<path d="M27.435 16.765H25.905V22.855H27.435V16.765Z" fill="currentColor"/>
<path d="M27.435 4.57507H25.905V6.09507H27.435V4.57507Z" fill="currentColor"/>
<path d="M25.905 22.855H24.385V24.385H25.905V22.855Z" fill="currentColor"/>
<path d="M25.905 15.235H24.385V16.765H25.905V15.235Z" fill="currentColor"/>
<path d="M24.385 18.285H22.855V21.335H24.385V18.285Z" fill="currentColor"/>
<path d="M24.385 7.625H22.855V10.665H24.385V7.625Z" fill="currentColor"/>
<path d="M24.385 24.385H18.285V25.905H24.385V24.385Z" fill="currentColor"/>
<path d="M22.8551 16.765H19.8151V18.285H22.8551V16.765Z" fill="currentColor"/>
<path d="M22.8551 6.09497H19.8151V7.62497H22.8551V6.09497Z" fill="currentColor"/>
<path d="M22.8551 21.3351H19.8151V22.8551H22.8551V21.3351Z" fill="currentColor"/>
<path d="M24.385 13.715H18.285V15.235H24.385V13.715Z" fill="currentColor"/>
<path d="M22.8551 10.665H19.8151V12.195H22.8551V10.665Z" fill="currentColor"/>
<path d="M19.815 18.285H18.285V21.335H19.815V18.285Z" fill="currentColor"/>
<path d="M19.815 7.625H18.285V10.665H19.815V7.625Z" fill="currentColor"/>
<path d="M18.285 22.855H16.765V24.385H18.285V22.855Z" fill="currentColor"/>
<path d="M18.285 15.235H16.765V16.765H18.285V15.235Z" fill="currentColor"/>
<path d="M16.765 16.765H15.245V22.855H16.765V16.765Z" fill="currentColor"/>
<path d="M15.245 25.905H13.715V27.435H15.245V25.905Z" fill="currentColor"/>
<path d="M15.245 4.57507H13.715V6.09507H15.245V4.57507Z" fill="currentColor"/>
</svg>
