<svg width="32" height="32" viewBox="0 0 32 32" fill="none" xmlns="http://www.w3.org/2000/svg">
<g clip-path="url(#clip0_1128_6820)">
<path d="M30.48 4.57498H28.95V3.04498H21.34V4.57498H27.43V6.09498H28.95V7.61498H30.48V13.715H32V6.09498H30.48V4.57498Z" fill="currentColor"/>
<path d="M30.48 13.715H28.95V15.235H30.48V13.715Z" fill="currentColor"/>
<path d="M28.95 15.235H27.43V16.765H28.95V15.235Z" fill="currentColor"/>
<path d="M27.43 16.765H25.91V18.285H27.43V16.765Z" fill="currentColor"/>
<path d="M25.91 18.285H24.38V19.805H25.91V18.285Z" fill="currentColor"/>
<path d="M25.91 9.14499H24.38V7.61499H22.86V9.14499H21.34V10.665H19.81V12.195H18.29V13.715H16.76V15.235H15.24V16.765H16.76V18.285H18.29V19.805H19.81V18.285H21.34V16.765H22.86V15.235H24.38V13.715H25.91V12.195H27.43V10.665H25.91V9.14499Z" fill="currentColor"/>
<path d="M24.38 19.805H22.86V21.335H24.38V19.805Z" fill="currentColor"/>
<path d="M22.86 21.335H21.34V22.855H22.86V21.335Z" fill="currentColor"/>
<path d="M21.34 4.57501H19.81V6.09501H21.34V4.57501Z" fill="currentColor"/>
<path d="M21.34 22.855H18.29V24.385H21.34V22.855Z" fill="currentColor"/>
<path d="M19.81 6.09497H18.29V7.61497H19.81V6.09497Z" fill="currentColor"/>
<path d="M18.29 21.335H16.76V22.855H18.29V21.335Z" fill="currentColor"/>
<path d="M18.29 7.61499H16.76V9.14499H18.29V7.61499Z" fill="currentColor"/>
<path d="M18.29 24.385H15.24V25.905H18.29V24.385Z" fill="currentColor"/>
<path d="M16.76 19.805H15.24V21.335H16.76V19.805Z" fill="currentColor"/>
<path d="M16.76 9.14496H15.24V10.665H16.76V9.14496Z" fill="currentColor"/>
<path d="M15.24 25.905H13.72V27.425H15.24V25.905Z" fill="currentColor"/>
<path d="M15.24 18.285H13.72V19.805H15.24V18.285Z" fill="currentColor"/>
<path d="M15.24 10.665H13.72V12.195H15.24V10.665Z" fill="currentColor"/>
<path d="M13.72 24.385H12.19V25.905H13.72V24.385Z" fill="currentColor"/>
<path d="M13.72 16.765H12.19V18.285H13.72V16.765Z" fill="currentColor"/>
<path d="M13.72 12.195H12.19V13.715H13.72V12.195Z" fill="currentColor"/>
<path d="M12.19 22.855H10.67V24.385H12.19V22.855Z" fill="currentColor"/>
<path d="M12.19 13.715H10.67V16.765H12.19V13.715Z" fill="currentColor"/>
<path d="M7.62001 25.905V24.385H6.10001V27.425H12.19V25.905H7.62001Z" fill="currentColor"/>
<path d="M10.67 21.335H9.14999V22.855H10.67V21.335Z" fill="currentColor"/>
<path d="M10.67 16.765H9.14999V19.805H10.67V16.765Z" fill="currentColor"/>
<path d="M9.14999 22.855H7.62V24.385H9.14999V22.855Z" fill="currentColor"/>
<path d="M9.14999 19.805H7.62V21.335H9.14999V19.805Z" fill="currentColor"/>
<path d="M6.1 27.425H0V28.955H6.1V27.425Z" fill="currentColor"/>
</g>
<defs>
<clipPath id="clip0_1128_6820">
<rect width="32" height="32" fill="white"/>
</clipPath>
</defs>
</svg>
