<svg width="32" height="32" viewBox="0 0 32 32" fill="none" xmlns="http://www.w3.org/2000/svg">
<path d="M25.91 4.56999V6.09999H27.43V21.34H28.95V4.56999H27.43V3.04999H24.38V4.56999H25.91Z" fill="currentColor"/>
<path d="M27.43 21.34H25.91V24.38H27.43V21.34Z" fill="currentColor"/>
<path d="M25.91 24.38H24.38V25.91H25.91V24.38Z" fill="currentColor"/>
<path d="M25.91 6.09998H24.38V21.34H25.91V6.09998Z" fill="currentColor"/>
<path d="M24.3801 25.91H22.8601V27.43H24.3801V25.91Z" fill="currentColor"/>
<path d="M24.3801 21.34H22.8601V24.38H24.3801V21.34Z" fill="currentColor"/>
<path d="M22.8601 27.43H21.3401V28.96H22.8601V27.43Z" fill="currentColor"/>
<path d="M22.8601 24.38H21.3401V25.91H22.8601V24.38Z" fill="currentColor"/>
<path d="M24.3801 4.57001H21.3401V6.10001H24.3801V4.57001Z" fill="currentColor"/>
<path d="M24.3801 1.53003H21.3401V3.05003H24.3801V1.53003Z" fill="currentColor"/>
<path d="M21.34 28.96H18.29V30.48H21.34V28.96Z" fill="currentColor"/>
<path d="M21.34 25.91H18.29V27.43H21.34V25.91Z" fill="currentColor"/>
<path d="M13.72 13.72V10.67H12.19V13.72H10.67V21.34H12.19V22.86H19.81V21.34H21.34V13.72H19.81V10.67H18.29V13.72H13.72ZM16.76 18.29H15.24V15.24H16.76V18.29Z" fill="currentColor"/>
<path d="M18.2901 30.48H13.7201V32H18.2901V30.48Z" fill="currentColor"/>
<path d="M18.2901 27.43H13.7201V28.96H18.2901V27.43Z" fill="currentColor"/>
<path d="M18.2901 9.15002H13.7201V10.67H18.2901V9.15002Z" fill="currentColor"/>
<path d="M13.72 28.96H10.67V30.48H13.72V28.96Z" fill="currentColor"/>
<path d="M13.72 25.91H10.67V27.43H13.72V25.91Z" fill="currentColor"/>
<path d="M21.34 3.04999H10.67V4.56999H21.34V3.04999Z" fill="currentColor"/>
<path d="M21.34 0H10.67V1.53H21.34V0Z" fill="currentColor"/>
<path d="M10.67 27.43H9.14001V28.96H10.67V27.43Z" fill="currentColor"/>
<path d="M10.67 24.38H9.14001V25.91H10.67V24.38Z" fill="currentColor"/>
<path d="M10.67 4.57001H7.62V6.10001H10.67V4.57001Z" fill="currentColor"/>
<path d="M10.67 1.53003H7.62V3.05003H10.67V1.53003Z" fill="currentColor"/>
<path d="M9.14 25.91H7.62V27.43H9.14V25.91Z" fill="currentColor"/>
<path d="M9.14 21.34H7.62V24.38H9.14V21.34Z" fill="currentColor"/>
<path d="M7.6201 24.38H6.1001V25.91H7.6201V24.38Z" fill="currentColor"/>
<path d="M7.6201 6.09998H6.1001V21.34H7.6201V6.09998Z" fill="currentColor"/>
<path d="M7.62007 3.04999H4.57007V4.56999H7.62007V3.04999Z" fill="currentColor"/>
<path d="M6.10007 21.34H4.57007V24.38H6.10007V21.34Z" fill="currentColor"/>
<path d="M4.57005 4.57001H3.05005V21.34H4.57005V4.57001Z" fill="currentColor"/>
</svg>
