<svg width="32" height="32" viewBox="0 0 32 32" fill="none" xmlns="http://www.w3.org/2000/svg">
<g clip-path="url(#clip0_1128_14869)">
<path d="M30.48 9.14001H24.38V10.67H22.86V21.33H24.38V22.86H30.48V21.33H32V10.67H30.48V9.14001ZM30.48 16.76H28.95V18.28H27.43V19.81H25.91V12.19H27.43V13.71H28.95V15.24H30.48V16.76Z" fill="currentColor"/>
<path d="M21.34 32V30.48H22.86V24.38H21.34V22.86H10.67V24.38H9.15002V30.48H10.67V32H21.34ZM12.19 25.9H19.81V27.43H18.29V28.95H16.76V30.48H15.24V28.95H13.72V27.43H12.19V25.9Z" fill="currentColor"/>
<path d="M22.86 1.52H21.34V0H10.67V1.52H9.15002V7.62H10.67V9.14H21.34V7.62H22.86V1.52ZM19.81 6.09H12.19V4.57H13.72V3.05H15.24V1.52H16.76V3.05H18.29V4.57H19.81V6.09Z" fill="currentColor"/>
<path d="M7.62 22.86V21.33H9.15V10.67H7.62V9.14001H1.53V10.67H0V21.33H1.53V22.86H7.62ZM1.53 15.24H3.05V13.71H4.57V12.19H6.1V19.81H4.57V18.28H3.05V16.76H1.53V15.24Z" fill="currentColor"/>
</g>
<defs>
<clipPath id="clip0_1128_14869">
<rect width="32" height="32" fill="white"/>
</clipPath>
</defs>
</svg>
