<svg width="32" height="32" viewBox="0 0 32 32" fill="none" xmlns="http://www.w3.org/2000/svg">
<g clip-path="url(#clip0_1135_4523)">
<path d="M30.48 8.37498H16.76V6.85498H13.72V8.37498H1.53003V9.90498H25.91V28.185H1.53003V29.715H30.48V28.185H32V9.90498H30.48V8.37498Z" fill="currentColor"/>
<path d="M24.38 25.145H21.33V26.665H24.38V25.145Z" fill="currentColor"/>
<path d="M24.38 22.0951H21.33V23.6151H24.38V22.0951Z" fill="currentColor"/>
<path d="M24.38 15.995H21.33V19.045H24.38V15.995Z" fill="currentColor"/>
<path d="M24.38 11.425H21.33V14.475H24.38V11.425Z" fill="currentColor"/>
<path d="M21.33 2.28503H19.81V3.80503H21.33V2.28503Z" fill="currentColor"/>
<path d="M19.81 12.9451H18.29V25.1451H19.81V12.9451Z" fill="currentColor"/>
<path d="M19.81 3.80505H18.29V5.33505H19.81V3.80505Z" fill="currentColor"/>
<path d="M18.29 5.33508H16.76V6.85508H18.29V5.33508Z" fill="currentColor"/>
<path d="M13.72 5.33508H12.19V6.85508H13.72V5.33508Z" fill="currentColor"/>
<path d="M12.19 3.80505H10.67V5.33505H12.19V3.80505Z" fill="currentColor"/>
<path d="M10.67 2.28503H9.14001V3.80503H10.67V2.28503Z" fill="currentColor"/>
<path d="M16.76 12.945H18.29V11.425H4.57001V12.945H6.10001V25.145H4.57001V26.665H18.29V25.145H16.76V12.945ZM10.67 25.145H9.14001V12.945H10.67V25.145ZM13.72 25.145H12.19V12.945H13.72V25.145Z" fill="currentColor"/>
<path d="M4.56999 12.9451H3.04999V25.1451H4.56999V12.9451Z" fill="currentColor"/>
<path d="M1.53 9.90503H0V28.185H1.53V9.90503Z" fill="currentColor"/>
</g>
<defs>
<clipPath id="clip0_1135_4523">
<rect width="32" height="32" fill="white"/>
</clipPath>
</defs>
</svg>
