<svg width="32" height="32" viewBox="0 0 32 32" fill="none" xmlns="http://www.w3.org/2000/svg">
<g clip-path="url(#clip0_1128_6717)">
<path d="M32 1.53003H30.47V9.15003H32V1.53003Z" fill="currentColor"/>
<path d="M10.67 9.15V1.53H12.19V3.05H13.71V1.53H16.76V4.58H18.28V1.53H21.33V3.05H22.86V1.53H25.9V4.58H27.43V1.53H30.47V0H6.09V1.53H9.14V9.15H1.52V6.1H0V30.48H1.52V27.43H4.57V25.91H1.52V22.86H3.05V21.34H1.52V18.29H4.57V16.77H1.52V13.72H3.05V12.2H1.52V10.67H9.14V30.48H10.67V10.67H30.47V9.15H10.67Z" fill="currentColor"/>
<path d="M9.14 30.48H1.52V32H9.14V30.48Z" fill="currentColor"/>
<path d="M6.09 1.53003H4.57V3.05003H6.09V1.53003Z" fill="currentColor"/>
<path d="M4.57 3.04999H3.05V4.57999H4.57V3.04999Z" fill="currentColor"/>
<path d="M3.05 4.58002H1.52V6.10002H3.05V4.58002Z" fill="currentColor"/>
</g>
<defs>
<clipPath id="clip0_1128_6717">
<rect width="32" height="32" fill="white"/>
</clipPath>
</defs>
</svg>
