<svg width="32" height="32" viewBox="0 0 32 32" fill="none" xmlns="http://www.w3.org/2000/svg">
<path d="M27.4249 13.71H25.9049V28.95H27.4249V13.71Z" fill="currentColor"/>
<path d="M25.905 28.95H24.375V30.48H25.905V28.95Z" fill="currentColor"/>
<path d="M24.375 30.48H7.61499V32H24.375V30.48Z" fill="currentColor"/>
<path d="M22.855 1.52H21.335V3.05H22.855V1.52Z" fill="currentColor"/>
<path d="M18.2849 19.81H16.7649V18.29H18.2849V16.76H13.7149V18.29H12.1849V21.33H13.7149V22.86H15.2349V27.43H16.7649V22.86H18.2849V21.33H19.8049V18.29H18.2849V19.81Z" fill="currentColor"/>
<path d="M21.3349 0H10.6649V1.52H21.3349V0Z" fill="currentColor"/>
<path d="M10.6649 1.52H9.1449V3.05H10.6649V1.52Z" fill="currentColor"/>
<path d="M25.905 13.71V12.19H24.375V3.05H22.855V12.19H9.14497V3.05H7.61497V12.19H6.09497V13.71H25.905Z" fill="currentColor"/>
<path d="M7.61497 28.95H6.09497V30.48H7.61497V28.95Z" fill="currentColor"/>
<path d="M6.09495 13.71H4.57495V28.95H6.09495V13.71Z" fill="currentColor"/>
</svg>
