<svg width="32" height="32" viewBox="0 0 32 32" fill="none" xmlns="http://www.w3.org/2000/svg">
<g clip-path="url(#clip0_1135_1687)">
<path d="M30.47 10.67H28.95V9.14H27.43V10.67H24.38V12.19H25.9V24.38H22.85V19.81H21.33V24.38H19.81V21.33H18.28V24.38H13.71V21.33H12.19V24.38H10.66V19.81H9.14V24.38H6.09V12.19H7.62V10.67H4.57V9.14H3.04V10.67H1.52V7.62H0V12.19H1.52V27.43H0V32H32V27.43H30.47V12.19H32V7.62H30.47V10.67ZM27.43 12.19H28.95V24.38H27.43V12.19ZM3.04 12.19H4.57V24.38H3.04V12.19ZM3.04 25.91H28.95V27.43H3.04V25.91ZM30.47 30.48H1.52V28.95H30.47V30.48Z" fill="currentColor"/>
<path d="M30.47 6.10001H27.43V7.62001H30.47V6.10001Z" fill="currentColor"/>
<path d="M27.43 7.62H24.38V9.14H27.43V7.62Z" fill="currentColor"/>
<path d="M27.43 4.57001H24.38V6.10001H27.43V4.57001Z" fill="currentColor"/>
<path d="M24.38 6.10001H21.33V7.62001H24.38V6.10001Z" fill="currentColor"/>
<path d="M24.38 3.05H21.33V4.57H24.38V3.05Z" fill="currentColor"/>
<path d="M21.33 4.57001H18.28V6.10001H21.33V4.57001Z" fill="currentColor"/>
<path d="M21.33 1.52H18.28V3.05H21.33V1.52Z" fill="currentColor"/>
<path d="M13.71 6.10001V7.62001H12.19V9.14001H10.66V10.67H9.14001V15.24H10.66V16.76H12.19V18.29H13.71V19.81H18.28V18.29H19.81V16.76H21.33V15.24H22.85V10.67H21.33V9.14001H19.81V7.62001H18.28V6.10001H13.71ZM18.28 9.14001V10.67H13.71V12.19H18.28V13.71H19.81V15.24H18.28V16.76H16.76V18.29H15.24V16.76H13.71V15.24H18.28V13.71H13.71V12.19H12.19V10.67H13.71V9.14001H15.24V7.62001H16.76V9.14001H18.28Z" fill="currentColor"/>
<path d="M18.28 3.05H13.71V4.57H18.28V3.05Z" fill="currentColor"/>
<path d="M18.28 0H13.71V1.52H18.28V0Z" fill="currentColor"/>
<path d="M13.71 4.57001H10.66V6.10001H13.71V4.57001Z" fill="currentColor"/>
<path d="M13.71 1.52H10.66V3.05H13.71V1.52Z" fill="currentColor"/>
<path d="M10.66 6.10001H7.62V7.62001H10.66V6.10001Z" fill="currentColor"/>
<path d="M10.66 3.05H7.62V4.57H10.66V3.05Z" fill="currentColor"/>
<path d="M7.62001 7.62H4.57001V9.14H7.62001V7.62Z" fill="currentColor"/>
<path d="M7.62001 4.57001H4.57001V6.10001H7.62001V4.57001Z" fill="currentColor"/>
<path d="M4.56999 6.10001H1.51999V7.62001H4.56999V6.10001Z" fill="currentColor"/>
</g>
<defs>
<clipPath id="clip0_1135_1687">
<rect width="32" height="32" fill="white"/>
</clipPath>
</defs>
</svg>
