<svg width="32" height="32" viewBox="0 0 32 32" fill="none" xmlns="http://www.w3.org/2000/svg">
<path d="M18.285 6.09501H21.335V7.61501H22.855V9.14501H24.385V12.195H25.905V19.805H24.385V22.855H22.855V24.385H21.335V25.905H18.285V27.425H10.665V28.955H21.335V27.425H24.385V25.905H25.905V24.385H27.435V22.855H28.955V19.805H30.475V12.195H28.955V9.14501H27.435V7.61501H25.905V6.09501H24.385V4.57501H21.335V3.04501H10.665V4.57501H18.285V6.09501Z" fill="currentColor"/>
<path d="M24.385 12.195H22.855V19.805H24.385V12.195Z" fill="currentColor"/>
<path d="M22.855 19.805H21.335V21.335H22.855V19.805Z" fill="currentColor"/>
<path d="M22.855 10.665H21.335V12.195H22.855V10.665Z" fill="currentColor"/>
<path d="M21.335 21.335H19.815V22.855H21.335V21.335Z" fill="currentColor"/>
<path d="M21.335 9.14502H19.815V10.665H21.335V9.14502Z" fill="currentColor"/>
<path d="M19.815 22.855H18.285V24.385H19.815V22.855Z" fill="currentColor"/>
<path d="M19.815 7.61502H18.285V9.14502H19.815V7.61502Z" fill="currentColor"/>
<path d="M18.285 24.385H10.665V25.905H18.285V24.385Z" fill="currentColor"/>
<path d="M18.285 16.765H16.765V19.805H18.285V16.765Z" fill="currentColor"/>
<path d="M18.285 12.195H16.765V13.715H18.285V12.195Z" fill="currentColor"/>
<path d="M18.285 6.095H10.665V7.615H18.285V6.095Z" fill="currentColor"/>
<path d="M13.715 21.335V22.855H15.235V21.335H16.765V19.805H15.235V16.765H16.765V15.235H15.235V12.195H16.765V10.665H15.235V9.14502H13.715V10.665H12.195V12.195H13.715V15.235H12.195V16.765H13.715V19.805H12.195V21.335H13.715Z" fill="currentColor"/>
<path d="M12.195 18.285H10.665V19.805H12.195V18.285Z" fill="currentColor"/>
<path d="M12.195 12.195H10.665V15.235H12.195V12.195Z" fill="currentColor"/>
<path d="M10.665 25.905H7.625V27.425H10.665V25.905Z" fill="currentColor"/>
<path d="M10.665 22.855H9.14502V24.385H10.665V22.855Z" fill="currentColor"/>
<path d="M10.665 7.61502H9.14502V9.14502H10.665V7.61502Z" fill="currentColor"/>
<path d="M10.665 4.57501H7.625V6.09501H10.665V4.57501Z" fill="currentColor"/>
<path d="M9.145 21.335H7.625V22.855H9.145V21.335Z" fill="currentColor"/>
<path d="M9.145 9.14502H7.625V10.665H9.145V9.14502Z" fill="currentColor"/>
<path d="M7.62503 24.385H6.09503V25.905H7.62503V24.385Z" fill="currentColor"/>
<path d="M7.62503 19.805H6.09503V21.335H7.62503V19.805Z" fill="currentColor"/>
<path d="M7.62503 10.665H6.09503V12.195H7.62503V10.665Z" fill="currentColor"/>
<path d="M7.62503 6.095H6.09503V7.615H7.62503V6.095Z" fill="currentColor"/>
<path d="M6.09501 22.855H4.57501V24.385H6.09501V22.855Z" fill="currentColor"/>
<path d="M6.09501 12.195H4.57501V19.805H6.09501V12.195Z" fill="currentColor"/>
<path d="M6.09501 7.61502H4.57501V9.14502H6.09501V7.61502Z" fill="currentColor"/>
<path d="M4.57504 19.805H3.04504V22.855H4.57504V19.805Z" fill="currentColor"/>
<path d="M4.57504 9.14502H3.04504V12.195H4.57504V9.14502Z" fill="currentColor"/>
<path d="M3.04502 12.195H1.52502V19.805H3.04502V12.195Z" fill="currentColor"/>
</svg>
