<svg width="32" height="32" viewBox="0 0 32 32" fill="none" xmlns="http://www.w3.org/2000/svg">
<g clip-path="url(#clip0_1128_4443)">
<path d="M32 28.95H30.48V32H32V28.95Z" fill="currentColor"/>
<path d="M32 10.67H30.48V12.19H32V10.67Z" fill="currentColor"/>
<path d="M30.48 25.91H28.96V28.95H30.48V25.91Z" fill="currentColor"/>
<path d="M30.48 9.14001H28.96V10.67H30.48V9.14001Z" fill="currentColor"/>
<path d="M28.96 22.86H27.43V25.91H28.96V22.86Z" fill="currentColor"/>
<path d="M30.48 12.19H25.91V13.72H30.48V12.19Z" fill="currentColor"/>
<path d="M28.96 7.62H27.43V9.14H28.96V7.62Z" fill="currentColor"/>
<path d="M25.91 19.81V16.76H24.39V13.72H22.86V10.67H21.34V9.14H19.81V6.1H25.91V4.57H24.39V3.05H22.86V4.57H19.81V1.53H21.34V0H18.29V9.14H16.77V10.67H15.24V13.72H13.72V16.76H12.19V19.81H10.67V22.86H13.72V24.38H18.29V22.86H22.86V21.34H25.91V22.86H27.43V19.81H25.91ZM16.77 22.86H15.24V21.34H16.77V22.86ZM21.34 21.34H19.81V19.81H18.29V18.29H19.81V19.81H21.34V21.34ZM21.34 15.24H19.81V12.19H18.29V10.67H19.81V12.19H21.34V15.24ZM24.39 19.81H22.86V18.29H24.39V19.81Z" fill="currentColor"/>
<path d="M27.43 9.14001H25.91V10.67H27.43V9.14001Z" fill="currentColor"/>
<path d="M25.91 10.67H24.39V12.19H25.91V10.67Z" fill="currentColor"/>
<path d="M22.86 1.53H21.34V3.05H22.86V1.53Z" fill="currentColor"/>
<path d="M10.67 22.86H9.14999V25.91H10.67V22.86Z" fill="currentColor"/>
<path d="M10.67 6.10001H9.14999V7.62001H10.67V6.10001Z" fill="currentColor"/>
<path d="M9.14999 25.91H7.62V28.95H9.14999V25.91Z" fill="currentColor"/>
<path d="M9.14999 4.57001H7.62V6.10001H9.14999V4.57001Z" fill="currentColor"/>
<path d="M7.62001 28.95H6.10001V32H7.62001V28.95Z" fill="currentColor"/>
<path d="M7.62001 24.38H6.10001V25.91H7.62001V24.38Z" fill="currentColor"/>
<path d="M9.15 7.62H1.53V9.14H9.15V7.62Z" fill="currentColor"/>
<path d="M7.61999 3.04999H4.57999V4.56999H7.61999V3.04999Z" fill="currentColor"/>
<path d="M6.09999 22.86H4.57999V24.38H6.09999V22.86Z" fill="currentColor"/>
<path d="M4.57999 24.38H3.04999V25.91H4.57999V24.38Z" fill="currentColor"/>
<path d="M4.58 4.57001H1.53V6.10001H4.58V4.57001Z" fill="currentColor"/>
<path d="M3.05 25.91H1.53V28.95H3.05V25.91Z" fill="currentColor"/>
<path d="M1.53 28.95H0V32H1.53V28.95Z" fill="currentColor"/>
<path d="M1.53 6.10001H0V7.62001H1.53V6.10001Z" fill="currentColor"/>
</g>
<defs>
<clipPath id="clip0_1128_4443">
<rect width="32" height="32" fill="white"/>
</clipPath>
</defs>
</svg>
