<svg width="32" height="32" viewBox="0 0 32 32" fill="none" xmlns="http://www.w3.org/2000/svg">
<g clip-path="url(#clip0_1128_9857)">
<path d="M24.3851 18.29V19.81H22.8651V24.38H24.3851V25.91H25.9051V27.43H27.4351V25.91H28.9551V24.38H30.4751V19.81H28.9551V18.29H27.4351V13.72H25.9051V18.29H24.3851ZM27.4351 19.81V21.34H28.9551V22.86H27.4351V24.38H25.9051V22.86H24.3851V21.34H25.9051V19.81H27.4351Z" fill="currentColor"/>
<path d="M25.905 27.4301H24.385V30.4801H25.905V27.4301Z" fill="currentColor"/>
<path d="M25.905 10.67H24.385V13.72H25.905V10.67Z" fill="currentColor"/>
<path d="M24.3851 9.15002H22.8651V10.67H24.3851V9.15002Z" fill="currentColor"/>
<path d="M24.3851 30.48H3.05505V32H24.3851V30.48Z" fill="currentColor"/>
<path d="M21.335 13.72H19.815V25.91H21.335V13.72Z" fill="currentColor"/>
<path d="M22.865 7.62H19.815V9.14999H22.865V7.62Z" fill="currentColor"/>
<path d="M19.815 12.1899H18.285V13.7199H19.815V12.1899Z" fill="currentColor"/>
<path d="M10.675 10.67V12.19H15.245V15.24H16.765V12.19H18.285V10.67H10.675Z" fill="currentColor"/>
<path d="M15.245 15.24H13.715V16.77H15.245V15.24Z" fill="currentColor"/>
<path d="M10.675 6.09995V7.61995H19.815V6.09995H16.765V4.56995H15.245V6.09995H10.675Z" fill="currentColor"/>
<path d="M13.715 16.77H7.625V19.81H13.715V16.77Z" fill="currentColor"/>
<path d="M10.675 7.62H9.14502V10.67H10.675V7.62Z" fill="currentColor"/>
<path d="M15.245 4.57V3.05H13.715V0H7.62503V3.05H6.09503V4.57H15.245Z" fill="currentColor"/>
<path d="M7.62503 15.24H6.09503V16.77H7.62503V15.24Z" fill="currentColor"/>
<path d="M19.8151 27.43V25.91H13.7151V24.38H16.7651V22.86H4.57505V24.38H7.62505V25.91H3.05505V27.43H19.8151ZM9.14505 24.38H12.2001V25.91H9.14505V24.38Z" fill="currentColor"/>
<path d="M6.09501 4.56995H4.57501V15.2399H6.09501V4.56995Z" fill="currentColor"/>
<path d="M3.05502 27.4301H1.52502V30.4801H3.05502V27.4301Z" fill="currentColor"/>
</g>
<defs>
<clipPath id="clip0_1128_9857">
<rect width="32" height="32" fill="white"/>
</clipPath>
</defs>
</svg>
