<svg width="32" height="32" viewBox="0 0 32 32" fill="none" xmlns="http://www.w3.org/2000/svg">
<g clip-path="url(#clip0_1135_3273)">
<path d="M30.47 12.19H25.9V9.14001H30.47V6.10001H28.95V7.62001H25.9V6.10001H24.38V7.62001H19.8V4.57001H18.28V7.62001H13.71V4.57001H12.19V7.62001H7.61V6.10001H6.09V7.62001H3.04V6.10001H1.52V9.14001H6.09V12.19H1.52V9.14001H0V13.72H1.52V30.48H0V32H32V30.48H30.47V13.72H32V9.14001H30.47V12.19ZM19.8 9.14001H24.38V12.19H19.8V9.14001ZM13.71 9.14001H18.28V12.19H13.71V9.14001ZM7.61 9.14001H12.19V12.19H7.61V9.14001ZM28.95 30.48H15.23V16.76H13.71V30.48H6.09V16.76H4.57V30.48H3.04V13.72H28.95V30.48Z" fill="currentColor"/>
<path d="M28.95 4.57001H27.42V6.10001H28.95V4.57001Z" fill="currentColor"/>
<path d="M27.42 16.76H25.9V19.81H22.85V16.76H25.9V15.24H18.28V16.76H21.33V19.81H18.28V16.76H16.76V25.91H27.42V16.76ZM21.33 24.38H18.28V21.33H21.33V24.38ZM25.9 24.38H22.85V21.33H25.9V24.38Z" fill="currentColor"/>
<path d="M27.42 3.04999H25.9V4.56999H27.42V3.04999Z" fill="currentColor"/>
<path d="M24.38 4.57001H22.85V6.10001H24.38V4.57001Z" fill="currentColor"/>
<path d="M13.71 15.24H6.09V16.76H13.71V15.24Z" fill="currentColor"/>
<path d="M9.13999 21.33H7.60999V24.38H9.13999V21.33Z" fill="currentColor"/>
<path d="M9.13999 4.57001H7.60999V6.10001H9.13999V4.57001Z" fill="currentColor"/>
<path d="M9.14 4.57H10.66V3.05H13.71V4.57H15.23V3.05H16.76V4.57H18.28V3.05H21.33V4.57H22.85V3.05H25.9V0H6.09V3.05H9.14V4.57Z" fill="currentColor"/>
<path d="M6.09001 3.04999H4.57001V4.56999H6.09001V3.04999Z" fill="currentColor"/>
<path d="M4.57001 4.57001H3.04001V6.10001H4.57001V4.57001Z" fill="currentColor"/>
</g>
<defs>
<clipPath id="clip0_1135_3273">
<rect width="32" height="32" fill="white"/>
</clipPath>
</defs>
</svg>
