<svg width="32" height="32" viewBox="0 0 32 32" fill="none" xmlns="http://www.w3.org/2000/svg">
<g clip-path="url(#clip0_1128_11306)">
<path d="M23.62 20.57H22.1V22.09H20.57V23.62H17.53V25.14H20.57V26.66H22.1V28.19H23.62V29.71H25.14V31.24H29.72V29.71H31.24V25.14H29.72V23.62H28.19V22.09H26.67V20.57H25.14V17.52H23.62V20.57ZM25.14 23.62H26.67V25.14H28.19V26.66H29.72V28.19H28.19V26.66H26.67V25.14H25.14V23.62Z" fill="currentColor"/>
<path d="M26.67 9.90002H25.14V17.52H26.67V9.90002Z" fill="currentColor"/>
<path d="M25.14 6.85001H23.62V9.90001H25.14V6.85001Z" fill="currentColor"/>
<path d="M23.6201 5.33002H22.1001V6.85002H23.6201V5.33002Z" fill="currentColor"/>
<path d="M22.1001 3.81H20.5701V5.33H22.1001V3.81Z" fill="currentColor"/>
<path d="M11.4301 20.57H16.0001V16H20.5701V11.43H16.0001V6.85001H11.4301V11.43H6.86011V16H11.4301V20.57Z" fill="currentColor"/>
<path d="M20.57 2.28H17.53V3.81H20.57V2.28Z" fill="currentColor"/>
<path d="M17.5299 25.14H9.90991V26.66H17.5299V25.14Z" fill="currentColor"/>
<path d="M17.5299 0.76001H9.90991V2.28001H17.5299V0.76001Z" fill="currentColor"/>
<path d="M9.91011 23.62H6.86011V25.14H9.91011V23.62Z" fill="currentColor"/>
<path d="M9.91011 2.28H6.86011V3.81H9.91011V2.28Z" fill="currentColor"/>
<path d="M6.86009 22.09H5.34009V23.62H6.86009V22.09Z" fill="currentColor"/>
<path d="M6.86009 3.81H5.34009V5.33H6.86009V3.81Z" fill="currentColor"/>
<path d="M5.34006 20.57H3.81006V22.09H5.34006V20.57Z" fill="currentColor"/>
<path d="M5.34006 5.33002H3.81006V6.85002H5.34006V5.33002Z" fill="currentColor"/>
<path d="M3.81004 17.52H2.29004V20.57H3.81004V17.52Z" fill="currentColor"/>
<path d="M3.81004 6.85001H2.29004V9.90001H3.81004V6.85001Z" fill="currentColor"/>
<path d="M2.29001 9.90002H0.76001V17.52H2.29001V9.90002Z" fill="currentColor"/>
</g>
<defs>
<clipPath id="clip0_1128_11306">
<rect width="32" height="32" fill="white"/>
</clipPath>
</defs>
</svg>
