<svg width="32" height="32" viewBox="0 0 32 32" fill="none" xmlns="http://www.w3.org/2000/svg">
<path d="M25.905 10.67H24.375V3.05H22.8549V16.76H9.14495V3.05H7.61495V10.67H6.09995V9.14H4.57495V21.33H6.09995V12.19H7.61995V19.81H9.14995V21.33H10.67V22.86H13.72V24.38H9.14495V25.9H13.715V27.43H7.61495V28.95H24.375V27.43H18.285V25.9H22.8549V24.38H18.285V22.86H21.3349V21.33H22.8549V19.81H24.375V12.19H25.905V21.33H27.4249V9.14H25.905V10.67ZM16.765 27.43H15.235V22.86H16.765V27.43Z" fill="currentColor"/>
<path d="M25.905 21.33H24.375V22.86H25.905V21.33Z" fill="currentColor"/>
<path d="M7.61495 30.48V28.95H6.09495V30.48H4.57495V32H27.4249V30.48H25.905V28.95H24.375V30.48H7.61495Z" fill="currentColor"/>
<path d="M24.375 22.86H22.855V24.38H24.375V22.86Z" fill="currentColor"/>
<path d="M22.855 1.52H21.335V3.05H22.855V1.52Z" fill="currentColor"/>
<path d="M21.3349 10.67H19.8049V12.19H21.3349V10.67Z" fill="currentColor"/>
<path d="M21.3349 4.57001H19.8049V6.10001H21.3349V4.57001Z" fill="currentColor"/>
<path d="M19.8049 13.71H18.2849V15.24H19.8049V13.71Z" fill="currentColor"/>
<path d="M19.8049 7.62H18.2849V9.14H19.8049V7.62Z" fill="currentColor"/>
<path d="M16.765 10.67H15.235V12.19H16.765V10.67Z" fill="currentColor"/>
<path d="M16.765 4.57001H15.235V6.10001H16.765V4.57001Z" fill="currentColor"/>
<path d="M13.7149 13.71H12.1849V15.24H13.7149V13.71Z" fill="currentColor"/>
<path d="M13.7149 7.62H12.1849V9.14H13.7149V7.62Z" fill="currentColor"/>
<path d="M21.3349 0H10.6649V1.52H21.3349V0Z" fill="currentColor"/>
<path d="M12.1849 10.67H10.6649V12.19H12.1849V10.67Z" fill="currentColor"/>
<path d="M12.1849 4.57001H10.6649V6.10001H12.1849V4.57001Z" fill="currentColor"/>
<path d="M10.6649 1.52H9.1449V3.05H10.6649V1.52Z" fill="currentColor"/>
<path d="M9.14499 22.86H7.61499V24.38H9.14499V22.86Z" fill="currentColor"/>
<path d="M7.61497 21.33H6.09497V22.86H7.61497V21.33Z" fill="currentColor"/>
</svg>
