<svg width="32" height="32" viewBox="0 0 32 32" fill="none" xmlns="http://www.w3.org/2000/svg">
<path d="M18.285 18.28H13.715V19.81H18.285V18.28Z" fill="currentColor"/>
<path d="M18.285 15.24H13.715V16.76H18.285V15.24Z" fill="currentColor"/>
<path d="M30.475 25.9H28.955V28.95H30.475V25.9Z" fill="currentColor"/>
<path d="M28.955 22.86H27.435V25.9H28.955V22.86Z" fill="currentColor"/>
<path d="M3.05505 28.95V30.48H4.57505V32H27.4351V30.48H28.9551V28.95H3.05505Z" fill="currentColor"/>
<path d="M25.905 9.14H21.335V10.67H25.905V9.14Z" fill="currentColor"/>
<path d="M18.285 25.9H13.715V27.43H18.285V25.9Z" fill="currentColor"/>
<path d="M13.715 13.71H18.285V6.09H21.335V4.57H19.815V3.05H18.285V1.52H16.765V0H15.245V1.52H13.715V3.05H12.195V4.57H10.665V6.09H13.715V13.71Z" fill="currentColor"/>
<path d="M10.665 9.14H6.09503V10.67H10.665V9.14Z" fill="currentColor"/>
<path d="M27.435 22.86V10.67H25.905V21.33H6.09501V10.67H4.57501V22.86H27.435Z" fill="currentColor"/>
<path d="M4.57505 22.86H3.05505V25.9H4.57505V22.86Z" fill="currentColor"/>
<path d="M3.05502 25.9H1.52502V28.95H3.05502V25.9Z" fill="currentColor"/>
</svg>
