<svg width="32" height="32" viewBox="0 0 32 32" fill="none" xmlns="http://www.w3.org/2000/svg">
<g clip-path="url(#clip0_1128_19906)">
<path d="M30.47 9.90501H28.95V6.85501H27.42V5.33501H25.9V3.80501H22.85V2.28501H19.81V0.765015H12.19V2.28501H9.14V3.80501H6.09V5.33501H4.57V6.85501H3.04V9.90501H1.52V12.955H0V20.565H1.52V23.615H3.04V26.665H4.57V28.185H6.09V29.715H9.14V31.235H13.71V20.565H9.14V15.995H13.71V9.90501H15.23V8.37501H22.85V12.955H18.28V15.995H24.38V17.525H22.85V19.045H21.33V20.565H18.28V31.235H22.85V29.715H25.9V28.185H27.42V26.665H28.95V23.615H30.47V20.565H32V12.955H30.47V9.90501Z" fill="currentColor"/>
</g>
<defs>
<clipPath id="clip0_1128_19906">
<rect width="32" height="32" fill="white"/>
</clipPath>
</defs>
</svg>
