<svg width="32" height="32" viewBox="0 0 32 32" fill="none" xmlns="http://www.w3.org/2000/svg">
<g clip-path="url(#clip0_1128_13404)">
<path d="M32 22.86H30.47V28.95H32V22.86Z" fill="currentColor"/>
<path d="M30.4699 28.95H28.95V30.48H30.4699V28.95Z" fill="currentColor"/>
<path d="M30.4699 21.33H28.95V22.86H30.4699V21.33Z" fill="currentColor"/>
<path d="M28.95 30.48H22.85V32H28.95V30.48Z" fill="currentColor"/>
<path d="M28.95 21.33V19.81H24.38V18.29H22.85V21.33H28.95Z" fill="currentColor"/>
<path d="M22.85 28.95H21.33V30.48H22.85V28.95Z" fill="currentColor"/>
<path d="M22.85 21.33H21.33V22.86H22.85V21.33Z" fill="currentColor"/>
<path d="M22.85 15.24H21.33V18.29H22.85V15.24Z" fill="currentColor"/>
<path d="M21.33 22.86H19.8V25.9H12.19V22.86H10.66V28.95H12.19V27.43H19.8V28.95H21.33V22.86Z" fill="currentColor"/>
<path d="M21.33 12.19H19.8V15.24H21.33V12.19Z" fill="currentColor"/>
<path d="M21.33 3.04999H19.8V9.13999H21.33V3.04999Z" fill="currentColor"/>
<path d="M19.8 1.51999H18.28V3.04999H19.8V1.51999Z" fill="currentColor"/>
<path d="M18.2799 0H12.1899V1.52H18.2799V0Z" fill="currentColor"/>
<path d="M19.8 12.19V9.14001H18.28V10.67H12.19V9.14001H10.66V12.19H19.8Z" fill="currentColor"/>
<path d="M12.19 1.51999H10.66V3.04999H12.19V1.51999Z" fill="currentColor"/>
<path d="M10.66 28.95H9.14001V30.48H10.66V28.95Z" fill="currentColor"/>
<path d="M10.66 21.33H9.14001V22.86H10.66V21.33Z" fill="currentColor"/>
<path d="M10.66 12.19H9.14001V15.24H10.66V12.19Z" fill="currentColor"/>
<path d="M10.66 3.04999H9.14001V9.13999H10.66V3.04999Z" fill="currentColor"/>
<path d="M9.13999 15.24H7.60999V18.29H9.13999V15.24Z" fill="currentColor"/>
<path d="M9.14004 30.48H3.04004V32H9.14004V30.48Z" fill="currentColor"/>
<path d="M9.14004 21.33V19.81H7.61004V18.29H6.09004V19.81H3.04004V21.33H9.14004Z" fill="currentColor"/>
<path d="M3.04002 28.95H1.52002V30.48H3.04002V28.95Z" fill="currentColor"/>
<path d="M3.04002 21.33H1.52002V22.86H3.04002V21.33Z" fill="currentColor"/>
<path d="M1.52 22.86H0V28.95H1.52V22.86Z" fill="currentColor"/>
</g>
<defs>
<clipPath id="clip0_1128_13404">
<rect width="32" height="32" fill="white"/>
</clipPath>
</defs>
</svg>
