<svg width="32" height="32" viewBox="0 0 32 32" fill="none" xmlns="http://www.w3.org/2000/svg">
<g clip-path="url(#clip0_1128_8624)">
<path d="M29 12.2V15.2H25.9V16.8H29V19.8H30.5V13.7H32V12.2H29Z" fill="currentColor"/>
<path d="M28.9 19.8H27.4V21.3H28.9V19.8Z" fill="currentColor"/>
<path d="M27.4 3H25.9V12.1H27.4V3Z" fill="currentColor"/>
<path d="M4.59998 21.3V22.9H7.59998V24.4H9.09998V22.9H22.8V24.4H24.4V22.9H27.4V21.3H4.59998Z" fill="currentColor"/>
<path d="M24.3 30.5H21.3V32H24.3V30.5Z" fill="currentColor"/>
<path d="M22.8 24.4H19.8V25.9H22.8V24.4Z" fill="currentColor"/>
<path d="M21.4 28.9H18.3V30.4H21.4V28.9Z" fill="currentColor"/>
<path d="M16.8 25.9V27.4H15.2V25.9H12.2V27.4H13.7V28.9H18.3V27.4H19.8V25.9H16.8Z" fill="currentColor"/>
<path d="M13.7 10.7H15.2V9.09998H16.8V10.7H18.3V7.59998H19.8V6.09998H16.8V4.59998H15.2V6.09998H12.2V7.59998H13.7V10.7Z" fill="currentColor"/>
<path d="M13.8 28.9H10.7V30.4H13.8V28.9Z" fill="currentColor"/>
<path d="M12.1 24.4H9.09998V25.9H12.1V24.4Z" fill="currentColor"/>
<path d="M10.6 30.5H7.59998V32H10.6V30.5Z" fill="currentColor"/>
<path d="M25.9 3V1.5H22.8V0H21.3V1.5H10.7V0H9.09998V1.5H6.09998V3H25.9Z" fill="currentColor"/>
<path d="M25.9 18.3V16.8H22.9V13.8H25.9V12.3H6.09998V13.8H9.19998V16.8H6.09998V18.3H25.9ZM10.7 13.7H21.4V16.7H10.7V13.7Z" fill="currentColor"/>
<path d="M6.09998 3H4.59998V12.1H6.09998V3Z" fill="currentColor"/>
<path d="M4.5 19.8H3V21.3H4.5V19.8Z" fill="currentColor"/>
<path d="M3 16.8H6.1V15.2H3V12.2H0V13.7H1.5V19.8H3V16.8Z" fill="currentColor"/>
</g>
<defs>
<clipPath id="clip0_1128_8624">
<rect width="32" height="32" fill="white"/>
</clipPath>
</defs>
</svg>
