<svg width="32" height="32" viewBox="0 0 32 32" fill="none" xmlns="http://www.w3.org/2000/svg">
<g clip-path="url(#clip0_1128_13516)">
<path d="M31.24 11.43H29.71V14.48H31.24V11.43Z" fill="currentColor"/>
<path d="M29.7101 14.48H28.1901V16H29.7101V14.48Z" fill="currentColor"/>
<path d="M28.19 16H26.67V17.52H28.19V16Z" fill="currentColor"/>
<path d="M29.71 9.91H26.67V11.43H29.71V9.91Z" fill="currentColor"/>
<path d="M26.67 11.43H25.14V12.95H26.67V11.43Z" fill="currentColor"/>
<path d="M26.67 8.38H25.14V9.91H26.67V8.38Z" fill="currentColor"/>
<path d="M26.67 17.52H23.62V19.05H26.67V17.52Z" fill="currentColor"/>
<path d="M25.14 12.95H23.62V14.48H25.14V12.95Z" fill="currentColor"/>
<path d="M25.14 6.86002H23.62V8.38002H25.14V6.86002Z" fill="currentColor"/>
<path d="M23.62 14.48H22.1V17.52H23.62V14.48Z" fill="currentColor"/>
<path d="M23.62 5.33002H22.1V6.86002H23.62V5.33002Z" fill="currentColor"/>
<path d="M22.1001 12.95H20.5701V14.48H22.1001V12.95Z" fill="currentColor"/>
<path d="M22.1001 3.81H20.5701V5.33H22.1001V3.81Z" fill="currentColor"/>
<path d="M20.57 14.48H19.05V16H20.57V14.48Z" fill="currentColor"/>
<path d="M20.57 2.29001H19.05V3.81001H20.57V2.29001Z" fill="currentColor"/>
<path d="M17.52 14.48H16V12.95H14.48V14.48H12.95V16H14.48V17.52H12.95V19.05H11.43V20.57H9.91001V19.05H8.38001V20.57H6.86001V22.1H5.33001V23.62H3.81001V25.14H2.29001V26.67H0.76001V29.72H2.29001V31.24H5.33001V29.72H6.86001V28.19H8.38001V26.67H9.91001V25.14H11.43V23.62H12.95V22.1H14.48V20.57H16V19.05H17.52V17.52H19.05V16H17.52V14.48Z" fill="currentColor"/>
<path d="M17.52 9.91H16V12.95H17.52V9.91Z" fill="currentColor"/>
<path d="M19.05 0.76001H14.48V2.29001H19.05V0.76001Z" fill="currentColor"/>
<path d="M16 8.38H14.48V9.91H16V8.38Z" fill="currentColor"/>
<path d="M14.4801 6.86002H11.4301V8.38002H14.4801V6.86002Z" fill="currentColor"/>
<path d="M14.4801 2.29001H11.4301V3.81001H14.4801V2.29001Z" fill="currentColor"/>
<path d="M12.9501 16H11.4301V17.52H12.9501V16Z" fill="currentColor"/>
<path d="M11.43 17.52H9.91003V19.05H11.43V17.52Z" fill="currentColor"/>
<path d="M11.43 8.38H9.91003V9.91H11.43V8.38Z" fill="currentColor"/>
<path d="M11.43 3.81H9.91003V5.33H11.43V3.81Z" fill="currentColor"/>
<path d="M9.91 5.33002H8.38V8.38002H9.91V5.33002Z" fill="currentColor"/>
</g>
<defs>
<clipPath id="clip0_1128_13516">
<rect width="32" height="32" fill="white"/>
</clipPath>
</defs>
</svg>
