<svg width="32" height="32" viewBox="0 0 32 32" fill="none" xmlns="http://www.w3.org/2000/svg">
<path d="M22.855 1.52502V3.04502H27.425V4.56502H28.955V9.14502H30.475V1.52502H22.855Z" fill="currentColor"/>
<path d="M27.425 4.565H25.905V6.095H27.425V4.565Z" fill="currentColor"/>
<path d="M25.905 6.09503H24.375V7.61503H25.905V6.09503Z" fill="currentColor"/>
<path d="M24.375 15.235H22.855V22.855H24.375V15.235Z" fill="currentColor"/>
<path d="M24.375 7.61505H22.855V9.14505H24.375V7.61505Z" fill="currentColor"/>
<path d="M22.8551 22.855H21.3351V25.905H22.8551V22.855Z" fill="currentColor"/>
<path d="M22.8551 12.185H21.3351V15.235H22.8551V12.185Z" fill="currentColor"/>
<path d="M22.8551 9.14502H21.3351V10.665H22.8551V9.14502Z" fill="currentColor"/>
<path d="M21.3351 25.905H19.8051V27.425H21.3351V25.905Z" fill="currentColor"/>
<path d="M21.3351 10.665H19.8051V12.185H21.3351V10.665Z" fill="currentColor"/>
<path d="M19.805 27.425H16.755V28.955H19.805V27.425Z" fill="currentColor"/>
<path d="M19.805 9.14502H16.755V10.665H19.805V9.14502Z" fill="currentColor"/>
<path d="M16.755 28.955H9.14502V30.475H16.755V28.955Z" fill="currentColor"/>
<path d="M16.755 7.61505H9.14502V9.14505H16.755V7.61505Z" fill="currentColor"/>
<path d="M9.14497 27.425H6.09497V28.955H9.14497V27.425Z" fill="currentColor"/>
<path d="M9.14497 9.14502H6.09497V10.665H9.14497V9.14502Z" fill="currentColor"/>
<path d="M6.09506 25.905H4.56506V27.425H6.09506V25.905Z" fill="currentColor"/>
<path d="M6.09506 10.665H4.56506V12.185H6.09506V10.665Z" fill="currentColor"/>
<path d="M4.56504 22.855H3.04504V25.905H4.56504V22.855Z" fill="currentColor"/>
<path d="M4.56504 12.185H3.04504V15.235H4.56504V12.185Z" fill="currentColor"/>
<path d="M3.04502 15.235H1.52502V22.855H3.04502V15.235Z" fill="currentColor"/>
</svg>
