<svg width="32" height="32" viewBox="0 0 32 32" fill="none" xmlns="http://www.w3.org/2000/svg">
<g clip-path="url(#clip0_1128_7849)">
<path d="M18.29 6.1V7.62H16.77V10.67H18.29V9.14H19.81V7.62H30.48V9.14H28.96V10.67H30.48V12.19H32V6.1H18.29Z" fill="currentColor"/>
<path d="M30.48 12.19H28.96V15.24H30.48V12.19Z" fill="currentColor"/>
<path d="M27.43 16.76H15.24V15.24H13.72V18.29H28.96V15.24H27.43V16.76Z" fill="currentColor"/>
<path d="M28.96 10.67H27.43V12.19H28.96V10.67Z" fill="currentColor"/>
<path d="M27.43 3.05H25.91V4.57H27.43V3.05Z" fill="currentColor"/>
<path d="M1.53 19.81V3.05H0V24.38H1.53V25.91H9.15V27.43H10.67V25.91H16.77V27.43H18.29V25.91H25.91V24.38H27.43V19.81H1.53Z" fill="currentColor"/>
<path d="M27.43 12.19H22.86V13.72H27.43V12.19Z" fill="currentColor"/>
<path d="M22.86 10.67H21.34V12.19H22.86V10.67Z" fill="currentColor"/>
<path d="M21.34 9.14H19.81V10.67H21.34V9.14Z" fill="currentColor"/>
<path d="M9.14999 28.95V27.43H7.62V30.48H19.81V27.43H18.29V28.95H9.14999Z" fill="currentColor"/>
<path d="M16.77 10.67H15.24V15.24H16.77V10.67Z" fill="currentColor"/>
<path d="M13.72 10.67H9.15002V12.19H13.72V10.67Z" fill="currentColor"/>
<path d="M12.19 13.72H7.62V15.24H12.19V13.72Z" fill="currentColor"/>
<path d="M12.19 7.62H7.62V9.14H12.19V7.62Z" fill="currentColor"/>
<path d="M7.61998 10.67H6.09998V12.19H7.61998V10.67Z" fill="currentColor"/>
<path d="M6.10001 13.72H4.57001V15.24H6.10001V13.72Z" fill="currentColor"/>
<path d="M6.10001 7.62H4.57001V9.14H6.10001V7.62Z" fill="currentColor"/>
<path d="M25.91 1.52H1.53003V3.05H25.91V1.52Z" fill="currentColor"/>
</g>
<defs>
<clipPath id="clip0_1128_7849">
<rect width="32" height="32" fill="white"/>
</clipPath>
</defs>
</svg>
