<svg width="32" height="32" viewBox="0 0 32 32" fill="none" xmlns="http://www.w3.org/2000/svg">
<g clip-path="url(#clip0_1128_3874)">
<path d="M0 0V3.04H1.53V1.52H21.34V3.04H1.53V15.24H0V18.28H1.53V16.76H21.34V18.28H1.53V30.47H0V32H32V30.47H30.48V18.28H22.86V16.76H30.48V18.28H32V15.24H30.48V3.04H22.86V1.52H30.48V3.04H32V0H0ZM6.1 30.47V22.85H10.67V30.47H6.1ZM12.19 30.47V21.33H4.58V30.47H3.05V19.81H21.34V30.47H12.19ZM28.96 19.81V30.47H22.86V19.81H28.96ZM3.05 15.24V4.57H21.34V15.24H3.05ZM28.96 4.57V15.24H22.86V4.57H28.96Z" fill="currentColor"/>
<path d="M13.72 21.33V28.95H19.81V21.33H13.72ZM18.29 24.38H16.77V25.9H15.24V22.85H18.29V24.38Z" fill="currentColor"/>
<path d="M16.77 6.08997H13.72V13.71H19.81V6.08997H16.77ZM18.29 9.13997H16.77V10.66H15.24V7.61997H18.29V9.13997Z" fill="currentColor"/>
<path d="M7.62 27.43H9.14999V25.9H7.62V27.43Z" fill="currentColor"/>
<path d="M4.57999 6.08997V13.71H10.67V6.08997H4.57999ZM9.14999 9.13997H7.61999V10.66H6.09999V7.61997H9.14999V9.13997Z" fill="currentColor"/>
</g>
<defs>
<clipPath id="clip0_1128_3874">
<rect width="32" height="32" fill="white"/>
</clipPath>
</defs>
</svg>
