<svg width="32" height="32" viewBox="0 0 32 32" fill="none" xmlns="http://www.w3.org/2000/svg">
<g clip-path="url(#clip0_1135_2772)">
<path d="M32 12.1899H30.48V19.8099H32V12.1899Z" fill="currentColor"/>
<path d="M30.48 19.8101H28.96V22.8601H30.48V19.8101Z" fill="currentColor"/>
<path d="M30.48 9.15002H28.96V12.19H30.48V9.15002Z" fill="currentColor"/>
<path d="M28.9601 22.86H27.4301V25.91H28.9601V22.86Z" fill="currentColor"/>
<path d="M28.9601 6.09998H27.4301V9.14998H28.9601V6.09998Z" fill="currentColor"/>
<path d="M27.43 25.91H25.91V27.43H27.43V25.91Z" fill="currentColor"/>
<path d="M27.43 4.57996H25.91V6.09996H27.43V4.57996Z" fill="currentColor"/>
<path d="M25.91 12.1899H24.39V22.8599H25.91V12.1899Z" fill="currentColor"/>
<path d="M25.91 27.4301H22.86V28.9601H25.91V27.4301Z" fill="currentColor"/>
<path d="M25.91 3.05005H22.86V4.58005H25.91V3.05005Z" fill="currentColor"/>
<path d="M24.39 22.86H7.62V24.38H24.39V22.86Z" fill="currentColor"/>
<path d="M22.86 13.72H21.34V15.24H22.86V13.72Z" fill="currentColor"/>
<path d="M22.8601 28.96H19.8101V30.48H22.8601V28.96Z" fill="currentColor"/>
<path d="M24.3901 10.67H19.8101V12.19H24.3901V10.67Z" fill="currentColor"/>
<path d="M22.8601 1.53003H19.8101V3.05003H22.8601V1.53003Z" fill="currentColor"/>
<path d="M18.29 18.29H16.77V16.77H15.24V15.24H18.29V13.72H13.72V15.24H12.2V19.81H13.72V21.34H18.29V19.81H19.81V15.24H18.29V18.29Z" fill="currentColor"/>
<path d="M19.81 9.15002H18.29V10.67H19.81V9.15002Z" fill="currentColor"/>
<path d="M19.81 30.48H12.2V32H19.81V30.48Z" fill="currentColor"/>
<path d="M18.29 7.62H13.72V9.14999H18.29V7.62Z" fill="currentColor"/>
<path d="M19.81 0H12.2V1.53H19.81V0Z" fill="currentColor"/>
<path d="M13.72 9.15002H12.2V10.67H13.72V9.15002Z" fill="currentColor"/>
<path d="M12.2 28.96H9.15002V30.48H12.2V28.96Z" fill="currentColor"/>
<path d="M12.2 1.53003H9.15002V3.05003H12.2V1.53003Z" fill="currentColor"/>
<path d="M12.2 10.67H7.62V12.19H12.2V10.67Z" fill="currentColor"/>
<path d="M9.14998 27.4301H6.09998V28.9601H9.14998V27.4301Z" fill="currentColor"/>
<path d="M9.14998 3.05005H6.09998V4.58005H9.14998V3.05005Z" fill="currentColor"/>
<path d="M7.61998 12.1899H6.09998V22.8599H7.61998V12.1899Z" fill="currentColor"/>
<path d="M6.09996 25.91H4.57996V27.43H6.09996V25.91Z" fill="currentColor"/>
<path d="M6.09996 4.57996H4.57996V6.09996H6.09996V4.57996Z" fill="currentColor"/>
<path d="M4.58005 22.86H3.05005V25.91H4.58005V22.86Z" fill="currentColor"/>
<path d="M4.58005 6.09998H3.05005V9.14998H4.58005V6.09998Z" fill="currentColor"/>
<path d="M3.05003 19.8101H1.53003V22.8601H3.05003V19.8101Z" fill="currentColor"/>
<path d="M3.05003 9.15002H1.53003V12.19H3.05003V9.15002Z" fill="currentColor"/>
<path d="M1.53 12.1899H0V19.8099H1.53V12.1899Z" fill="currentColor"/>
</g>
<defs>
<clipPath id="clip0_1135_2772">
<rect width="32" height="32" fill="white"/>
</clipPath>
</defs>
</svg>
