<svg width="32" height="32" viewBox="0 0 32 32" fill="none" xmlns="http://www.w3.org/2000/svg">
<g clip-path="url(#clip0_1128_8343)">
<path d="M31.24 19.8101H29.71V24.3801H31.24V19.8101Z" fill="currentColor"/>
<path d="M29.71 0H28.19V1.52H26.66V3.05H28.19V4.57H29.71V3.05H31.24V1.52H29.71V0Z" fill="currentColor"/>
<path d="M29.7101 10.67H28.1901V19.81H29.7101V10.67Z" fill="currentColor"/>
<path d="M29.71 24.38H26.66V25.9H29.71V24.38Z" fill="currentColor"/>
<path d="M28.19 7.62H26.66V10.67H28.19V7.62Z" fill="currentColor"/>
<path d="M26.66 25.9H25.14V27.43H26.66V25.9Z" fill="currentColor"/>
<path d="M26.66 21.33H25.14V24.38H26.66V21.33Z" fill="currentColor"/>
<path d="M26.66 6.09998H25.14V7.61998H26.66V6.09998Z" fill="currentColor"/>
<path d="M25.14 27.4301H23.62V28.9501H25.14V27.4301Z" fill="currentColor"/>
<path d="M25.14 10.67H23.62V12.19H22.09V13.71H23.62V15.24H25.14V13.71H26.66V12.19H25.14V10.67Z" fill="currentColor"/>
<path d="M25.14 4.56995H22.09V6.09995H25.14V4.56995Z" fill="currentColor"/>
<path d="M23.6201 28.95H20.5701V30.4799H23.6201V28.95Z" fill="currentColor"/>
<path d="M17.52 15.24V19.81H22.09V15.24H17.52ZM20.57 18.29H19.04V16.76H20.57V18.29Z" fill="currentColor"/>
<path d="M20.57 30.48H9.90002V32H20.57V30.48Z" fill="currentColor"/>
<path d="M17.52 21.33H16V24.38H17.52V21.33Z" fill="currentColor"/>
<path d="M22.09 3.05005H14.47V4.57005H22.09V3.05005Z" fill="currentColor"/>
<path d="M14.47 15.24H16V13.71H17.52V12.19H16V10.67H14.47V12.19H12.95V13.71H14.47V15.24Z" fill="currentColor"/>
<path d="M16 24.38H12.95V25.9H16V24.38Z" fill="currentColor"/>
<path d="M14.4701 4.56995H11.4301V6.09995H14.4701V4.56995Z" fill="currentColor"/>
<path d="M12.9501 21.33H11.4301V24.38H12.9501V21.33Z" fill="currentColor"/>
<path d="M11.43 6.09998H9.90002V7.61998H11.43V6.09998Z" fill="currentColor"/>
<path d="M11.43 0H9.90002V1.52H11.43V0Z" fill="currentColor"/>
<path d="M9.89998 28.95H6.84998V30.4799H9.89998V28.95Z" fill="currentColor"/>
<path d="M9.9 7.62H8.38V10.67H9.9V7.62Z" fill="currentColor"/>
<path d="M8.37998 10.67H6.84998V19.81H8.37998V10.67Z" fill="currentColor"/>
<path d="M6.84996 27.4301H5.32996V28.9501H6.84996V27.4301Z" fill="currentColor"/>
<path d="M6.84996 4.56995H5.32996V9.13995H6.84996V4.56995Z" fill="currentColor"/>
<path d="M5.33006 25.9H3.81006V27.43H5.33006V25.9Z" fill="currentColor"/>
<path d="M6.85006 19.8101H3.81006V21.3301H6.85006V19.8101Z" fill="currentColor"/>
<path d="M5.33003 3.05005H2.28003V4.57005H5.33003V3.05005Z" fill="currentColor"/>
<path d="M3.81003 24.38H2.28003V25.9H3.81003V24.38Z" fill="currentColor"/>
<path d="M3.81003 18.29H2.28003V19.81H3.81003V18.29Z" fill="currentColor"/>
<path d="M5.33001 9.14001H0.76001V10.67H5.33001V9.14001Z" fill="currentColor"/>
<path d="M3.81003 6.09998H2.28003V7.61998H3.81003V6.09998Z" fill="currentColor"/>
<path d="M2.28001 19.8101H0.76001V24.3801H2.28001V19.8101Z" fill="currentColor"/>
<path d="M2.28001 13.71H0.76001V15.24H2.28001V13.71Z" fill="currentColor"/>
<path d="M2.28001 4.56995H0.76001V6.09995H2.28001V4.56995Z" fill="currentColor"/>
</g>
<defs>
<clipPath id="clip0_1128_8343">
<rect width="32" height="32" fill="white"/>
</clipPath>
</defs>
</svg>
