<svg width="32" height="32" viewBox="0 0 32 32" fill="none" xmlns="http://www.w3.org/2000/svg">
<g clip-path="url(#clip0_1128_7478)">
<path d="M31.24 11.425H29.71V20.575H31.24V11.425Z" fill="currentColor"/>
<path d="M29.7101 20.575H28.1901V23.615H29.7101V20.575Z" fill="currentColor"/>
<path d="M29.7101 8.38501H28.1901V11.425H29.7101V8.38501Z" fill="currentColor"/>
<path d="M28.19 23.615H26.67V26.665H28.19V23.615Z" fill="currentColor"/>
<path d="M28.19 5.33502H26.67V8.38502H28.19V5.33502Z" fill="currentColor"/>
<path d="M26.67 26.665H23.62V28.195H26.67V26.665Z" fill="currentColor"/>
<path d="M25.14 8.38504H23.6201V6.85504H22.09V8.38504H20.57V9.90504H19.05V12.955H20.57V16.005H26.67V9.90504H25.14V8.38504Z" fill="currentColor"/>
<path d="M26.67 3.80499H23.62V5.33499H26.67V3.80499Z" fill="currentColor"/>
<path d="M23.6201 28.195H20.5701V29.715H23.6201V28.195Z" fill="currentColor"/>
<path d="M23.6201 2.28503H20.5701V3.80503H23.6201V2.28503Z" fill="currentColor"/>
<path d="M20.57 22.095H19.05V20.575H12.95V22.095H11.43V23.615H9.90002V25.145H11.43V26.665H20.57V25.145H22.09V23.615H20.57V22.095Z" fill="currentColor"/>
<path d="M20.5701 29.715H11.4301V31.235H20.5701V29.715Z" fill="currentColor"/>
<path d="M12.95 17.525H14.48V19.045H17.52V17.525H19.05V14.475H17.52V12.955H14.48V14.475H12.95V17.525Z" fill="currentColor"/>
<path d="M20.5701 0.765015H11.4301V2.28501H20.5701V0.765015Z" fill="currentColor"/>
<path d="M11.43 28.195H8.38V29.715H11.43V28.195Z" fill="currentColor"/>
<path d="M11.43 12.955H12.95V9.90504H11.43V8.38504H9.89996V6.85504H8.37996V8.38504H6.85996V9.90504H5.32996V16.005H11.43V12.955Z" fill="currentColor"/>
<path d="M11.43 2.28503H8.38V3.80503H11.43V2.28503Z" fill="currentColor"/>
<path d="M8.37996 26.665H5.32996V28.195H8.37996V26.665Z" fill="currentColor"/>
<path d="M8.37996 3.80499H5.32996V5.33499H8.37996V3.80499Z" fill="currentColor"/>
<path d="M5.33006 23.615H3.81006V26.665H5.33006V23.615Z" fill="currentColor"/>
<path d="M5.33006 5.33502H3.81006V8.38502H5.33006V5.33502Z" fill="currentColor"/>
<path d="M3.81003 20.575H2.28003V23.615H3.81003V20.575Z" fill="currentColor"/>
<path d="M3.81003 8.38501H2.28003V11.425H3.81003V8.38501Z" fill="currentColor"/>
<path d="M2.28001 11.425H0.76001V20.575H2.28001V11.425Z" fill="currentColor"/>
</g>
<defs>
<clipPath id="clip0_1128_7478">
<rect width="32" height="32" fill="white"/>
</clipPath>
</defs>
</svg>
