<svg width="32" height="32" viewBox="0 0 32 32" fill="none" xmlns="http://www.w3.org/2000/svg">
<path d="M26.66 18.29H23.62V19.81H26.66V24.39H28.19V13.72H26.66V18.29Z" fill="currentColor"/>
<path d="M25.14 27.43H9.89998V25.91H8.37998V27.43H6.84998V32H28.19V27.43H26.66V24.39H25.14V27.43ZM25.14 30.48H22.09V28.96H25.14V30.48Z" fill="currentColor"/>
<path d="M26.66 12.1899H25.14V13.7199H26.66V12.1899Z" fill="currentColor"/>
<path d="M22.09 18.29H23.62V12.19H25.14V10.67H23.62V4.57996H22.09V18.29Z" fill="currentColor"/>
<path d="M17.52 15.24H19.05V4.58003H22.09V3.05003H19.05V1.53003H17.52V15.24Z" fill="currentColor"/>
<path d="M17.52 16.77H16V19.81H17.52V16.77Z" fill="currentColor"/>
<path d="M17.52 0H14.47V1.53H17.52V0Z" fill="currentColor"/>
<path d="M16 15.24H14.47V16.77H16V15.24Z" fill="currentColor"/>
<path d="M16 19.8101H11.43V21.3401H16V19.8101Z" fill="currentColor"/>
<path d="M12.95 13.72H11.43V15.24H14.47V1.53003H9.90002V3.05003H12.95V13.72Z" fill="currentColor"/>
<path d="M11.43 18.29H9.90002V19.81H11.43V18.29Z" fill="currentColor"/>
<path d="M11.43 13.72V12.19H9.89998V3.05005H8.37998V12.19H6.84998V13.72H11.43Z" fill="currentColor"/>
<path d="M8.37998 24.39H6.84998V25.91H8.37998V24.39Z" fill="currentColor"/>
<path d="M6.85002 21.34H5.33002V24.39H6.85002V21.34Z" fill="currentColor"/>
<path d="M6.85002 13.72H5.33002V15.24H6.85002V13.72Z" fill="currentColor"/>
<path d="M5.33 15.24H3.81V21.34H5.33V15.24Z" fill="currentColor"/>
</svg>
