<svg width="32" height="32" viewBox="0 0 32 32" fill="none" xmlns="http://www.w3.org/2000/svg">
<path d="M29.71 13.71H28.19V24.38H29.71V13.71Z" fill="currentColor"/>
<path d="M26.67 27.43H11.43V25.91H9.9V27.43H8.38V32H29.71V27.43H28.19V24.38H26.67V27.43ZM26.67 30.48H23.62V28.95H26.67V30.48Z" fill="currentColor"/>
<path d="M28.19 12.1899H26.67V13.7099H28.19V12.1899Z" fill="currentColor"/>
<path d="M25.14 13.71H23.62V18.29H25.14V13.71Z" fill="currentColor"/>
<path d="M26.67 10.67H23.62V12.19H26.67V10.67Z" fill="currentColor"/>
<path d="M22.0899 4.56995H20.5699V6.09995H22.0899V4.56995Z" fill="currentColor"/>
<path d="M22.09 4.57H23.62V0H19.05V1.52H22.09V4.57Z" fill="currentColor"/>
<path d="M20.57 13.71H19.05V18.29H20.57V13.71Z" fill="currentColor"/>
<path d="M20.57 6.09998H19.05V7.61998H20.57V6.09998Z" fill="currentColor"/>
<path d="M20.57 3.05005H19.05V4.57005H20.57V3.05005Z" fill="currentColor"/>
<path d="M19.05 1.52002H17.52V3.05002H19.05V1.52002Z" fill="currentColor"/>
<path d="M17.52 3.05005H16V4.57005H17.52V3.05005Z" fill="currentColor"/>
<path d="M16 13.71H14.48V18.29H16V13.71Z" fill="currentColor"/>
<path d="M14.48 10.6699H23.62V9.13995H19.05V7.61995H17.52V9.13995H16V4.56995H11.43V6.09995H14.48V10.6699Z" fill="currentColor"/>
<path d="M9.9 15.24H8.38V16.76H9.9V19.81H11.43V6.09998H9.9V9.13998H8.38V10.67H9.9V15.24Z" fill="currentColor"/>
<path d="M9.9 24.38H8.38V25.91H9.9V24.38Z" fill="currentColor"/>
<path d="M8.37999 21.33H6.85999V24.38H8.37999V21.33Z" fill="currentColor"/>
<path d="M8.37999 16.76H6.85999V18.29H8.37999V16.76Z" fill="currentColor"/>
<path d="M8.37999 10.67H6.85999V12.19H8.37999V10.67Z" fill="currentColor"/>
<path d="M6.85996 18.29H5.32996V21.33H6.85996V18.29Z" fill="currentColor"/>
<path d="M6.85996 12.1899H5.32996V13.7099H6.85996V12.1899Z" fill="currentColor"/>
<path d="M5.33 16.76H3.81V18.29H5.33V16.76Z" fill="currentColor"/>
<path d="M5.33 13.71H3.81V15.24H5.33V13.71Z" fill="currentColor"/>
<path d="M3.80998 15.24H2.28998V16.76H3.80998V15.24Z" fill="currentColor"/>
</svg>
