<svg width="32" height="32" viewBox="0 0 32 32" fill="none" xmlns="http://www.w3.org/2000/svg">
<g clip-path="url(#clip0_1135_4835)">
<path d="M32 9.15002H30.47V10.67H32V9.15002Z" fill="currentColor"/>
<path d="M32 4.56995H30.47V6.09995H32V4.56995Z" fill="currentColor"/>
<path d="M32 0H30.47V1.53H32V0Z" fill="currentColor"/>
<path d="M30.4699 13.72H28.95V15.24H30.4699V13.72Z" fill="currentColor"/>
<path d="M30.4699 6.09998H28.95V7.61998H30.4699V6.09998Z" fill="currentColor"/>
<path d="M30.4699 1.53003H28.95V3.05003H30.4699V1.53003Z" fill="currentColor"/>
<path d="M28.9501 15.24H27.4301V16.77H28.9501V15.24Z" fill="currentColor"/>
<path d="M28.9501 7.62H27.4301V9.14999H28.9501V7.62Z" fill="currentColor"/>
<path d="M28.9501 3.05005H27.4301V4.57005H28.9501V3.05005Z" fill="currentColor"/>
<path d="M27.43 16.77H25.9V19.81H27.43V16.77Z" fill="currentColor"/>
<path d="M27.43 10.67H25.9V12.19H27.43V10.67Z" fill="currentColor"/>
<path d="M27.43 4.56995H25.9V6.09995H27.43V4.56995Z" fill="currentColor"/>
<path d="M27.43 0H25.9V1.53H27.43V0Z" fill="currentColor"/>
<path d="M25.9 19.8101H24.38V22.8601H25.9V19.8101Z" fill="currentColor"/>
<path d="M25.9 12.1899H24.38V13.7199H25.9V12.1899Z" fill="currentColor"/>
<path d="M25.9 6.09998H24.38V7.61998H25.9V6.09998Z" fill="currentColor"/>
<path d="M25.9 1.53003H24.38V3.05003H25.9V1.53003Z" fill="currentColor"/>
<path d="M24.38 22.86H22.85V25.91H24.38V22.86Z" fill="currentColor"/>
<path d="M24.38 3.05005H22.85V4.57005H24.38V3.05005Z" fill="currentColor"/>
<path d="M22.85 15.24H21.33V16.77H22.85V15.24Z" fill="currentColor"/>
<path d="M22.85 9.15002H21.33V10.67H22.85V9.15002Z" fill="currentColor"/>
<path d="M22.85 0H21.33V1.53H22.85V0Z" fill="currentColor"/>
<path d="M22.8501 25.91H19.8101V27.43H22.8501V25.91Z" fill="currentColor"/>
<path d="M21.3301 4.56995H19.8101V6.09995H21.3301V4.56995Z" fill="currentColor"/>
<path d="M21.3301 1.53003H19.8101V3.05003H21.3301V1.53003Z" fill="currentColor"/>
<path d="M19.81 27.4301H18.28V28.9601H19.81V27.4301Z" fill="currentColor"/>
<path d="M19.81 12.1899H18.28V13.7199H19.81V12.1899Z" fill="currentColor"/>
<path d="M18.28 7.62H16.76V9.14999H18.28V7.62Z" fill="currentColor"/>
<path d="M18.28 1.53003H16.76V3.05003H18.28V1.53003Z" fill="currentColor"/>
<path d="M18.28 28.96H15.24V30.48H18.28V28.96Z" fill="currentColor"/>
<path d="M16.76 9.15002H15.24V10.67H16.76V9.15002Z" fill="currentColor"/>
<path d="M16.76 3.05005H13.71V4.57005H16.76V3.05005Z" fill="currentColor"/>
<path d="M15.24 30.48H9.14001V32H15.24V30.48Z" fill="currentColor"/>
<path d="M13.7099 4.56995H12.1899V6.09995H13.7099V4.56995Z" fill="currentColor"/>
<path d="M12.19 6.09998H9.14001V7.61998H12.19V6.09998Z" fill="currentColor"/>
<path d="M15.2399 27.4299V25.9099H16.7599V24.3799H18.2799V22.8599H19.8099V16.7699H18.2799V15.2399H16.7599V13.7199H15.2399V12.1899H9.13995V13.7199H7.61995V15.2399H6.08995V16.7699H4.56995V22.8599H6.08995V24.3799H7.61995V25.9099H9.13995V27.4299H15.2399ZM12.1899 15.2399H15.2399V16.7699H16.7599V18.2899H18.2799V21.3399H16.7599V18.2899H15.2399V16.7699H12.1899V15.2399Z" fill="currentColor"/>
<path d="M9.13995 28.96H4.56995V30.48H9.13995V28.96Z" fill="currentColor"/>
<path d="M9.13997 7.62H6.08997V9.14999H9.13997V7.62Z" fill="currentColor"/>
<path d="M6.08995 9.15002H4.56995V10.67H6.08995V9.15002Z" fill="currentColor"/>
<path d="M4.57005 27.4301H3.05005V28.9601H4.57005V27.4301Z" fill="currentColor"/>
<path d="M4.57005 10.67H3.05005V12.19H4.57005V10.67Z" fill="currentColor"/>
<path d="M3.05002 24.38H1.52002V27.43H3.05002V24.38Z" fill="currentColor"/>
<path d="M3.05002 12.1899H1.52002V15.2399H3.05002V12.1899Z" fill="currentColor"/>
<path d="M1.52 15.24H0V24.38H1.52V15.24Z" fill="currentColor"/>
</g>
<defs>
<clipPath id="clip0_1135_4835">
<rect width="32" height="32" fill="white"/>
</clipPath>
</defs>
</svg>
