<svg width="32" height="32" viewBox="0 0 32 32" fill="none" xmlns="http://www.w3.org/2000/svg">
<path d="M31.235 8.38H29.715V14.48H31.235V8.38Z" fill="currentColor"/>
<path d="M29.715 6.86002H28.185V8.38002H29.715V6.86002Z" fill="currentColor"/>
<path d="M28.185 28.19H26.665V29.72H28.185V28.19Z" fill="currentColor"/>
<path d="M26.665 16H28.185V28.19H29.715V14.48H26.665V16Z" fill="currentColor"/>
<path d="M26.665 16H23.615V17.53H26.665V16Z" fill="currentColor"/>
<path d="M26.665 29.72H5.33501V31.24H26.665V29.72Z" fill="currentColor"/>
<path d="M23.615 17.53H20.575V19.05H23.615V17.53Z" fill="currentColor"/>
<path d="M14.475 20.57V23.62H17.525V20.57H20.575V19.05H17.525V17.53H14.475V19.05H11.425V20.57H14.475Z" fill="currentColor"/>
<path d="M23.615 0.76001H8.375V2.29001H23.615V0.76001Z" fill="currentColor"/>
<path d="M11.425 17.53H8.375V19.05H11.425V17.53Z" fill="currentColor"/>
<path d="M8.37501 16H5.33501V17.53H8.37501V16Z" fill="currentColor"/>
<path d="M28.185 6.86001V5.34001H25.145V2.29001H23.615V5.34001H8.37499V2.29001H6.85499V5.34001H3.80499V6.86001H28.185Z" fill="currentColor"/>
<path d="M5.33499 28.19H3.80499V29.72H5.33499V28.19Z" fill="currentColor"/>
<path d="M3.805 16H5.335V14.48H2.285V28.19H3.805V16Z" fill="currentColor"/>
<path d="M3.805 6.86002H2.285V8.38002H3.805V6.86002Z" fill="currentColor"/>
<path d="M2.285 8.38H0.764999V14.48H2.285V8.38Z" fill="currentColor"/>
</svg>
