<svg width="32" height="32" viewBox="0 0 32 32" fill="none" xmlns="http://www.w3.org/2000/svg">
<g clip-path="url(#clip0_1128_13904)">
<path d="M32 1.51999H30.47V13.71H32V1.51999Z" fill="currentColor"/>
<path d="M30.47 13.71H27.42V15.24H30.47V13.71Z" fill="currentColor"/>
<path d="M27.42 7.62H25.9V9.14H24.38V10.67H25.9V13.71H27.42V7.62Z" fill="currentColor"/>
<path d="M24.38 10.67H22.85V12.19H24.38V10.67Z" fill="currentColor"/>
<path d="M22.85 12.19H21.33V13.71H22.85V12.19Z" fill="currentColor"/>
<path d="M22.85 6.09001H24.38V4.57001H18.28V6.09001H21.33V7.62001H22.85V6.09001Z" fill="currentColor"/>
<path d="M21.33 7.62H19.8V9.14H21.33V7.62Z" fill="currentColor"/>
<path d="M30.47 0H18.28V1.52H30.47V0Z" fill="currentColor"/>
<path d="M21.33 13.71H18.28V15.24H21.33V13.71Z" fill="currentColor"/>
<path d="M19.8 9.14001H18.28V10.67H19.8V9.14001Z" fill="currentColor"/>
<path d="M18.28 10.67H16.76V13.71H18.28V10.67Z" fill="currentColor"/>
<path d="M18.28 1.51999H16.76V4.56999H18.28V1.51999Z" fill="currentColor"/>
<path d="M15.23 27.43H13.71V30.48H15.23V27.43Z" fill="currentColor"/>
<path d="M15.23 18.29H13.71V21.33H15.23V18.29Z" fill="currentColor"/>
<path d="M13.7099 21.33H12.1899V22.86H13.7099V21.33Z" fill="currentColor"/>
<path d="M13.71 16.76H10.66V18.29H13.71V16.76Z" fill="currentColor"/>
<path d="M13.71 30.48H1.52002V32H13.71V30.48Z" fill="currentColor"/>
<path d="M12.19 22.86H10.66V24.38H12.19V22.86Z" fill="currentColor"/>
<path d="M9.13999 25.9H7.60999V27.43H13.71V25.9H10.66V24.38H9.13999V25.9Z" fill="currentColor"/>
<path d="M10.66 18.29H9.14001V19.81H10.66V18.29Z" fill="currentColor"/>
<path d="M9.13999 19.81H7.60999V21.33H9.13999V19.81Z" fill="currentColor"/>
<path d="M4.56995 24.38H6.08995V22.86H7.60995V21.33H6.08995V18.29H4.56995V24.38Z" fill="currentColor"/>
<path d="M4.57002 16.76H1.52002V18.29H4.57002V16.76Z" fill="currentColor"/>
<path d="M1.52 18.29H0V30.48H1.52V18.29Z" fill="currentColor"/>
</g>
<defs>
<clipPath id="clip0_1128_13904">
<rect width="32" height="32" fill="white"/>
</clipPath>
</defs>
</svg>
