<svg width="32" height="32" viewBox="0 0 32 32" fill="none" xmlns="http://www.w3.org/2000/svg">
<g clip-path="url(#clip0_1135_4574)">
<path d="M32 3.05005H30.48V28.9501H32V3.05005Z" fill="currentColor"/>
<path d="M30.4799 28.95H28.95V30.4699H30.4799V28.95Z" fill="currentColor"/>
<path d="M30.4799 1.52002H28.95V3.05002H30.4799V1.52002Z" fill="currentColor"/>
<path d="M28.9501 30.47H3.05005V32H28.9501V30.47Z" fill="currentColor"/>
<path d="M25.9 12.19H27.43V19.81H25.9V21.33H28.95V10.66H25.9V12.19Z" fill="currentColor"/>
<path d="M25.9 18.28H24.38V19.81H25.9V18.28Z" fill="currentColor"/>
<path d="M25.9 12.1899H24.38V13.7099H25.9V12.1899Z" fill="currentColor"/>
<path d="M22.86 16.76V15.24H24.38V13.71H22.86V9.14001H21.33V22.85H22.86V18.28H24.38V16.76H22.86Z" fill="currentColor"/>
<path d="M21.3299 22.85H4.56995V24.38H21.3299V22.85Z" fill="currentColor"/>
<path d="M6.08997 13.71V21.33H18.29V13.71H6.08997ZM13.71 19.81H12.19V18.28H13.71V19.81ZM16.76 19.81H15.24V16.76H9.13997V19.81H7.61997V15.24H16.76V19.81Z" fill="currentColor"/>
<path d="M10.67 10.66H9.14001V12.19H10.67V10.66Z" fill="currentColor"/>
<path d="M7.61997 10.66H6.08997V12.19H7.61997V10.66Z" fill="currentColor"/>
<path d="M21.3299 7.62H4.56995V9.14H21.3299V7.62Z" fill="currentColor"/>
<path d="M28.9501 0H3.05005V1.52H28.9501V0Z" fill="currentColor"/>
<path d="M4.57005 9.14001H3.05005V22.85H4.57005V9.14001Z" fill="currentColor"/>
<path d="M3.05002 28.95H1.52002V30.4699H3.05002V28.95Z" fill="currentColor"/>
<path d="M3.05002 1.52002H1.52002V3.05002H3.05002V1.52002Z" fill="currentColor"/>
<path d="M1.52 3.05005H0V28.9501H1.52V3.05005Z" fill="currentColor"/>
</g>
<defs>
<clipPath id="clip0_1135_4574">
<rect width="32" height="32" fill="white"/>
</clipPath>
</defs>
</svg>
