<svg width="32" height="32" viewBox="0 0 32 32" fill="none" xmlns="http://www.w3.org/2000/svg">
<g clip-path="url(#clip0_1128_7087)">
<path d="M27.425 12.19H25.905V6.09001H24.385V7.62001H21.335V6.09001H10.665V7.62001H7.615V6.09001H6.095V10.66H7.615V12.19H9.145V13.71H18.285V15.24H7.615V16.76H19.805V21.33H22.855V18.28H24.385V16.76H25.905V13.71H27.425V27.43H28.955V4.57001H27.425V12.19Z" fill="currentColor"/>
<path d="M27.425 27.43H25.905V28.95H27.425V27.43Z" fill="currentColor"/>
<path d="M27.425 3.04999H25.905V4.56999H27.425V3.04999Z" fill="currentColor"/>
<path d="M25.905 28.95H24.385V30.47H25.905V28.95Z" fill="currentColor"/>
<path d="M25.905 1.52002H24.385V3.05002H25.905V1.52002Z" fill="currentColor"/>
<path d="M24.385 4.57001H22.855V6.09001H24.385V4.57001Z" fill="currentColor"/>
<path d="M24.385 30.47H7.61502V32H24.385V30.47Z" fill="currentColor"/>
<path d="M15.235 22.85H13.715V25.9H15.235V22.85Z" fill="currentColor"/>
<path d="M12.195 21.33H10.665V27.43H12.195V21.33Z" fill="currentColor"/>
<path d="M22.855 3.04999H9.14502V4.56999H22.855V3.04999Z" fill="currentColor"/>
<path d="M24.385 0H7.61502V1.52H24.385V0Z" fill="currentColor"/>
<path d="M9.14502 19.81H7.61502V25.9H9.14502V19.81Z" fill="currentColor"/>
<path d="M9.14502 4.57001H7.61502V6.09001H9.14502V4.57001Z" fill="currentColor"/>
<path d="M7.615 28.95H6.095V30.47H7.615V28.95Z" fill="currentColor"/>
<path d="M7.615 13.71H6.095V15.24H7.615V13.71Z" fill="currentColor"/>
<path d="M7.615 1.52002H6.095V3.05002H7.615V1.52002Z" fill="currentColor"/>
<path d="M6.09501 27.43H4.57501V28.95H6.09501V27.43Z" fill="currentColor"/>
<path d="M6.09501 3.04999H4.57501V4.56999H6.09501V3.04999Z" fill="currentColor"/>
<path d="M4.57501 13.71H6.09501V12.19H4.57501V4.57001H3.04501V27.43H4.57501V13.71Z" fill="currentColor"/>
</g>
<defs>
<clipPath id="clip0_1128_7087">
<rect width="32" height="32" fill="white"/>
</clipPath>
</defs>
</svg>
