<svg width="32" height="32" viewBox="0 0 32 32" fill="none" xmlns="http://www.w3.org/2000/svg">
<g clip-path="url(#clip0_1128_13431)">
<path d="M32 18.29H30.47V21.33H32V18.29Z" fill="currentColor"/>
<path d="M16.76 21.33V22.86H22.85V27.43H24.38V22.86H30.47V21.33H16.76Z" fill="currentColor"/>
<path d="M22.85 12.19H10.66V13.71H22.85V12.19Z" fill="currentColor"/>
<path d="M15.23 27.43V30.48H16.76V28.95H22.85V27.43H15.23Z" fill="currentColor"/>
<path d="M30.47 18.29V16.76H24.38V13.71H22.85V16.76H16.76V18.29H30.47Z" fill="currentColor"/>
<path d="M16.76 18.29H15.23V21.33H16.76V18.29Z" fill="currentColor"/>
<path d="M16.76 1.51999H15.23V4.56999H16.76V1.51999Z" fill="currentColor"/>
<path d="M15.23 30.48H1.52002V32H15.23V30.48Z" fill="currentColor"/>
<path d="M10.66 10.67H9.14001V12.19H10.66V10.67Z" fill="currentColor"/>
<path d="M9.14002 6.09001H15.23V4.57001H1.52002V6.09001H7.61002V10.67H9.14002V6.09001Z" fill="currentColor"/>
<path d="M15.23 25.9H1.52002V27.43H15.23V25.9Z" fill="currentColor"/>
<path d="M15.23 0H1.52002V1.52H15.23V0Z" fill="currentColor"/>
<path d="M1.52 27.43H0V30.48H1.52V27.43Z" fill="currentColor"/>
<path d="M1.52 1.51999H0V4.56999H1.52V1.51999Z" fill="currentColor"/>
</g>
<defs>
<clipPath id="clip0_1128_13431">
<rect width="32" height="32" fill="white"/>
</clipPath>
</defs>
</svg>
