<svg width="32" height="32" viewBox="0 0 32 32" fill="none" xmlns="http://www.w3.org/2000/svg">
<g clip-path="url(#clip0_1128_8046)">
<path d="M32 6.10001H30.47V25.9H32V6.10001Z" fill="currentColor"/>
<path d="M30.4699 25.9H28.95V27.43H30.4699V25.9Z" fill="currentColor"/>
<path d="M30.4699 4.57001H28.95V6.10001H30.4699V4.57001Z" fill="currentColor"/>
<path d="M28.9501 7.62H27.4301V10.67H28.9501V7.62Z" fill="currentColor"/>
<path d="M28.9501 27.43H3.05005V28.95H28.9501V27.43Z" fill="currentColor"/>
<path d="M27.43 22.86H25.9V24.38H27.43V22.86Z" fill="currentColor"/>
<path d="M27.43 10.67H25.9V12.19H27.43V10.67Z" fill="currentColor"/>
<path d="M25.9 21.33H24.38V22.86H25.9V21.33Z" fill="currentColor"/>
<path d="M25.9 12.19H24.38V13.71H25.9V12.19Z" fill="currentColor"/>
<path d="M24.38 19.81H22.85V21.33H24.38V19.81Z" fill="currentColor"/>
<path d="M24.38 13.71H22.85V15.24H24.38V13.71Z" fill="currentColor"/>
<path d="M22.85 18.29H21.33V19.81H22.85V18.29Z" fill="currentColor"/>
<path d="M22.85 15.24H21.33V16.76H22.85V15.24Z" fill="currentColor"/>
<path d="M21.33 16.76H18.28V18.29H21.33V16.76Z" fill="currentColor"/>
<path d="M18.28 18.29H13.71V19.81H18.28V18.29Z" fill="currentColor"/>
<path d="M13.71 16.76H10.66V18.29H13.71V16.76Z" fill="currentColor"/>
<path d="M10.66 18.29H9.14001V19.81H10.66V18.29Z" fill="currentColor"/>
<path d="M10.66 15.24H9.14001V16.76H10.66V15.24Z" fill="currentColor"/>
<path d="M9.14 19.81H7.62V21.33H9.14V19.81Z" fill="currentColor"/>
<path d="M9.14 13.71H7.62V15.24H9.14V13.71Z" fill="currentColor"/>
<path d="M7.61997 21.33H6.08997V22.86H7.61997V21.33Z" fill="currentColor"/>
<path d="M7.61997 12.19H6.08997V13.71H7.61997V12.19Z" fill="currentColor"/>
<path d="M6.08995 22.86H4.56995V24.38H6.08995V22.86Z" fill="currentColor"/>
<path d="M6.08995 10.67H4.56995V12.19H6.08995V10.67Z" fill="currentColor"/>
<path d="M28.9501 3.05H3.05005V4.57H28.9501V3.05Z" fill="currentColor"/>
<path d="M4.57005 7.62H3.05005V10.67H4.57005V7.62Z" fill="currentColor"/>
<path d="M3.05002 25.9H1.52002V27.43H3.05002V25.9Z" fill="currentColor"/>
<path d="M3.05002 4.57001H1.52002V6.10001H3.05002V4.57001Z" fill="currentColor"/>
<path d="M1.52 6.10001H0V25.9H1.52V6.10001Z" fill="currentColor"/>
</g>
<defs>
<clipPath id="clip0_1128_8046">
<rect width="32" height="32" fill="white"/>
</clipPath>
</defs>
</svg>
