<svg width="32" height="32" viewBox="0 0 32 32" fill="none" xmlns="http://www.w3.org/2000/svg">
<g clip-path="url(#clip0_1128_4755)">
<path d="M30.48 19.045H28.95V16H27.43V19.05H22.86V20.57H21.33V26.67H22.86V28.19H24.38V29.72H25.91V28.19H28.95V26.67H30.48V25.15H32V20.57H30.48V19.045ZM25.91 25.145H24.38V22.1H25.91V25.145ZM28.95 25.145H27.43V22.1H28.95V25.145Z" fill="currentColor"/>
<path d="M27.43 14.475H25.91V15.995H27.43V14.475Z" fill="currentColor"/>
<path d="M25.91 15.995H24.38V17.525H25.91V15.995Z" fill="currentColor"/>
<path d="M25.91 11.425H24.38V14.475H25.91V11.425Z" fill="currentColor"/>
<path d="M24.38 9.90503H21.33V11.425H24.38V9.90503Z" fill="currentColor"/>
<path d="M24.38 3.80502H22.86V5.33502H24.38V3.80502Z" fill="currentColor"/>
<path d="M24.38 29.715H21.33V31.235H24.38V29.715Z" fill="currentColor"/>
<path d="M21.33 28.185H12.19V29.715H21.33V28.185Z" fill="currentColor"/>
<path d="M21.33 15.995H19.81V17.525H21.33V15.995Z" fill="currentColor"/>
<path d="M19.81 8.375H18.29V9.905H19.81V8.375Z" fill="currentColor"/>
<path d="M19.81 3.80501H21.33V2.28501H19.81V0.765015H18.29V2.28501H16.76V3.80501H18.29V5.33501H19.81V3.80501Z" fill="currentColor"/>
<path d="M21.33 14.475V11.425H19.81V12.955H18.29V11.425H16.76V14.475H21.33Z" fill="currentColor"/>
<path d="M16.76 9.90503H13.71V11.425H16.76V9.90503Z" fill="currentColor"/>
<path d="M16.76 5.33502H15.24V6.85502H16.76V5.33502Z" fill="currentColor"/>
<path d="M13.71 3.80502H12.19V8.37502H13.71V3.80502Z" fill="currentColor"/>
<path d="M13.71 14.475V11.425H12.19V12.955H9.14001V14.475H13.71Z" fill="currentColor"/>
<path d="M12.19 8.375H10.67V9.905H12.19V8.375Z" fill="currentColor"/>
<path d="M12.19 2.285H10.67V3.805H12.19V2.285Z" fill="currentColor"/>
<path d="M12.19 29.715H9.14001V31.235H12.19V29.715Z" fill="currentColor"/>
<path d="M9.14 26.665H7.62V29.715H9.14V26.665Z" fill="currentColor"/>
<path d="M9.14 14.475H7.62V15.995H9.14V14.475Z" fill="currentColor"/>
<path d="M10.67 9.90503H6.10001V11.425H10.67V9.90503Z" fill="currentColor"/>
<path d="M10.67 3.80502H6.10001V8.37502H10.67V3.80502Z" fill="currentColor"/>
<path d="M10.67 0.765015H6.10001V2.28501H10.67V0.765015Z" fill="currentColor"/>
<path d="M7.62001 25.145H6.10001V26.665H7.62001V25.145Z" fill="currentColor"/>
<path d="M7.62001 15.995H6.10001V17.525H7.62001V15.995Z" fill="currentColor"/>
<path d="M6.10001 17.525H4.57001V25.145H6.10001V17.525Z" fill="currentColor"/>
<path d="M6.10001 8.375H4.57001V9.905H6.10001V8.375Z" fill="currentColor"/>
<path d="M6.10001 2.285H4.57001V3.805H6.10001V2.285Z" fill="currentColor"/>
<path d="M4.56999 12.955H3.04999V14.475H4.56999V12.955Z" fill="currentColor"/>
<path d="M4.56999 3.80502H3.04999V8.37502H4.56999V3.80502Z" fill="currentColor"/>
<path d="M3.04999 14.475H1.51999V15.995H3.04999V14.475Z" fill="currentColor"/>
<path d="M3.04999 11.425H1.51999V12.955H3.04999V11.425Z" fill="currentColor"/>
<path d="M3.04999 0.765015H1.51999V2.28501H3.04999V0.765015Z" fill="currentColor"/>
<path d="M1.52 12.955H0V14.475H1.52V12.955Z" fill="currentColor"/>
<path d="M1.52 6.85501H0V8.37501H1.52V6.85501Z" fill="currentColor"/>
</g>
<defs>
<clipPath id="clip0_1128_4755">
<rect width="32" height="32" fill="white"/>
</clipPath>
</defs>
</svg>
