<svg width="32" height="32" viewBox="0 0 32 32" fill="none" xmlns="http://www.w3.org/2000/svg">
<path d="M29.7151 9.90503H28.1851V28.195H29.7151V9.90503Z" fill="currentColor"/>
<path d="M28.185 28.195H26.665V29.715H28.185V28.195Z" fill="currentColor"/>
<path d="M28.185 8.38501H26.665V9.90501H28.185V8.38501Z" fill="currentColor"/>
<path d="M26.6651 29.715H5.33508V31.235H26.6651V29.715Z" fill="currentColor"/>
<path d="M26.6651 6.85504H20.5651V8.38504H26.6651V6.85504Z" fill="currentColor"/>
<path d="M20.565 3.80499H19.045V6.85499H20.565V3.80499Z" fill="currentColor"/>
<path d="M19.045 2.28503H17.525V3.80503H19.045V2.28503Z" fill="currentColor"/>
<path d="M17.525 0.765015H14.475V2.28501H17.525V0.765015Z" fill="currentColor"/>
<path d="M14.4751 2.28503H12.9451V3.80503H14.4751V2.28503Z" fill="currentColor"/>
<path d="M12.945 3.80499H11.425V6.85499H12.945V3.80499Z" fill="currentColor"/>
<path d="M9.905 17.525H8.375V20.575H9.905V17.525Z" fill="currentColor"/>
<path d="M8.37498 20.575H6.85498V22.095H8.37498V20.575Z" fill="currentColor"/>
<path d="M8.37498 15.995H6.85498V17.525H8.37498V15.995Z" fill="currentColor"/>
<path d="M11.4251 6.85504H5.33508V8.38504H11.4251V6.85504Z" fill="currentColor"/>
<path d="M3.80503 14.475V9.90503H2.28503V15.995H6.85503V14.475H3.80503Z" fill="currentColor"/>
<path d="M5.33505 28.195H3.80505V29.715H5.33505V28.195Z" fill="currentColor"/>
<path d="M5.33505 8.38501H3.80505V9.90501H5.33505V8.38501Z" fill="currentColor"/>
<path d="M3.80503 23.615H6.85503V22.095H2.28503V28.195H3.80503V23.615Z" fill="currentColor"/>
</svg>
