<svg width="32" height="32" viewBox="0 0 32 32" fill="none" xmlns="http://www.w3.org/2000/svg">
<path d="M28.19 3.05505H26.67V22.8651H28.19V3.05505Z" fill="currentColor"/>
<path d="M25.1501 25.905H9.91011V24.385H8.38011V25.905H6.86011V30.475H28.1901V25.905H26.6701V22.865H25.1501V25.905ZM25.1501 28.955H22.1001V27.435H25.1501V28.955Z" fill="currentColor"/>
<path d="M26.6701 1.52502H23.6201V3.05502H26.6701V1.52502Z" fill="currentColor"/>
<path d="M22.1 16.765H19.05V18.285H22.1V16.765Z" fill="currentColor"/>
<path d="M16.0001 18.285H11.4301V19.815H16.0001V18.285Z" fill="currentColor"/>
<path d="M12.95 12.1951H11.43V13.7151H14.48V9.14505H17.53V13.7151H14.48V15.2451H16V18.2851H17.53V16.7651H19.05V9.14505H22.1V16.7651H23.62V3.05505H22.1V7.62505H9.91003V9.14505H12.95V12.1951Z" fill="currentColor"/>
<path d="M11.43 16.765H9.91003V18.285H11.43V16.765Z" fill="currentColor"/>
<path d="M11.4301 12.195V10.665H9.91011V9.14502H8.38011V10.665H6.86011V12.195H11.4301Z" fill="currentColor"/>
<path d="M8.38011 22.865H6.86011V24.385H8.38011V22.865Z" fill="currentColor"/>
<path d="M6.86009 19.8151H5.34009V22.8651H6.86009V19.8151Z" fill="currentColor"/>
<path d="M6.86009 12.1951H5.34009V13.7151H6.86009V12.1951Z" fill="currentColor"/>
<path d="M5.34006 13.715H3.81006V19.815H5.34006V13.715Z" fill="currentColor"/>
</svg>
