<svg width="32" height="32" viewBox="0 0 32 32" fill="none" xmlns="http://www.w3.org/2000/svg">
<g clip-path="url(#clip0_1135_3393)">
<path d="M28.185 12.19V13.72H31.235V6.10001H29.715V12.19H28.185Z" fill="currentColor"/>
<path d="M29.715 19.81V25.91H31.235V18.29H28.185V19.81H29.715Z" fill="currentColor"/>
<path d="M29.715 25.91H2.285V27.43H29.715V25.91Z" fill="currentColor"/>
<path d="M28.185 13.72H26.665V18.29H28.185V13.72Z" fill="currentColor"/>
<path d="M22.095 16.76H19.045V18.29H17.525V21.34H19.045V22.86H22.095V21.34H23.615V18.29H22.095V16.76Z" fill="currentColor"/>
<path d="M20.575 10.67H19.045V12.19H17.525V13.72H15.995V15.24H14.475V16.76H12.955V18.29H11.425V19.81H9.905V21.34H8.385V22.86H11.425V21.34H12.955V19.81H14.475V18.29H15.995V16.76H17.525V15.24H19.045V13.72H20.575V12.19H22.095V10.67H23.615V9.14999H20.575V10.67Z" fill="currentColor"/>
<path d="M9.905 15.24H12.955V13.72H14.475V10.67H12.955V9.14999H9.905V10.67H8.385V13.72H9.905V15.24Z" fill="currentColor"/>
<path d="M5.335 13.72H3.805V18.29H5.335V13.72Z" fill="currentColor"/>
<path d="M29.715 4.57001H2.285V6.10001H29.715V4.57001Z" fill="currentColor"/>
<path d="M2.285 12.19V6.10001H0.765V13.72H3.805V12.19H2.285Z" fill="currentColor"/>
<path d="M2.285 19.81H3.805V18.29H0.765V25.91H2.285V19.81Z" fill="currentColor"/>
</g>
<defs>
<clipPath id="clip0_1135_3393">
<rect width="32" height="32" fill="white"/>
</clipPath>
</defs>
</svg>
