<svg width="32" height="32" viewBox="0 0 32 32" fill="none" xmlns="http://www.w3.org/2000/svg">
<g clip-path="url(#clip0_1128_5684)">
<path d="M0 0V32H32V0H0ZM1.52 7.62H6.1V10.67H24.38V7.62H27.43V15.24H25.91V12.19H24.38V13.72H21.33V12.19H19.81V13.72H16.76V12.19H15.24V13.72H12.19V12.19H10.67V13.72H7.62V12.19H6.1V15.24H4.57V9.15H1.52V7.62ZM7.62 9.15V7.62H9.14V9.15H7.62ZM12.19 9.15V7.62H13.71V9.15H12.19ZM16.76 9.15V7.62H18.29V9.15H16.76ZM21.33 9.15V7.62H22.86V9.15H21.33ZM24.38 15.24V18.29H7.62V15.24H24.38ZM1.52 10.67H3.05V19.81H1.52V10.67ZM30.48 28.96H1.52V27.43H7.62V22.86H1.52V21.34H4.57V16.76H6.1V21.34H7.62V19.81H10.67V21.34H12.19V19.81H15.24V21.34H16.76V19.81H19.81V21.34H21.33V19.81H24.38V21.34H25.91V16.76H27.43V18.29H28.95V15.24H30.48V28.96ZM30.48 13.72H28.95V6.1H24.38V4.57H6.1V6.1H1.52V1.53H9.14V3.05H10.67V1.53H12.19V3.05H13.71V1.53H15.24V3.05H16.76V1.53H18.29V3.05H19.81V1.53H21.33V3.05H22.86V1.53H30.48V13.72Z" fill="currentColor"/>
<path d="M28.95 22.86H27.43V27.43H28.95V22.86Z" fill="currentColor"/>
<path d="M28.95 3.05H27.43V4.57H28.95V3.05Z" fill="currentColor"/>
<path d="M25.91 22.86H24.38V27.43H25.91V22.86Z" fill="currentColor"/>
<path d="M21.33 22.86H19.81V24.38H18.29V22.86H16.76V24.38H15.24V27.43H22.86V24.38H21.33V22.86Z" fill="currentColor"/>
<path d="M13.71 22.86H9.14001V27.43H13.71V22.86Z" fill="currentColor"/>
<path d="M4.56999 3.05H3.04999V4.57H4.56999V3.05Z" fill="currentColor"/>
</g>
<defs>
<clipPath id="clip0_1128_5684">
<rect width="32" height="32" fill="white"/>
</clipPath>
</defs>
</svg>
