<svg width="32" height="32" viewBox="0 0 32 32" fill="none" xmlns="http://www.w3.org/2000/svg">
<path d="M17.53 12.19V13.72H19.05V12.19H25.14V13.72H26.67V12.19H28.19V15.24H29.72V12.19H31.24V6.10005H29.72V3.05005H28.19V6.10005H26.67V4.57005H25.14V6.10005H19.05V4.57005H17.53V6.10005H16V3.05005H14.48V6.10005H12.95V12.19H14.48V15.24H16V12.19H17.53ZM26.67 7.62005H29.72V10.67H26.67V7.62005ZM19.05 7.62005H25.14V10.67H19.05V7.62005ZM14.48 10.67V7.62005H17.53V10.67H14.48Z" fill="currentColor"/>
<path d="M23.62 28.96H25.14V27.43H26.67V16.76H28.19V15.24H25.14V13.72H23.62V16.76H20.57V13.72H19.05V15.24H16V16.76H17.53V27.43H19.05V28.96H20.57V30.48H23.62V28.96ZM19.05 24.38V19.81H20.57V24.38H19.05ZM22.1 27.43H20.57V25.91H22.1V27.43Z" fill="currentColor"/>
<path d="M20.57 30.48H16V32H20.57V30.48Z" fill="currentColor"/>
<path d="M19.05 4.57H20.57V1.53H23.62V4.57H25.14V3.05H28.19V1.53H25.14V0H19.05V1.53H16V3.05H19.05V4.57Z" fill="currentColor"/>
<path d="M16 28.96H14.48V30.48H16V28.96Z" fill="currentColor"/>
<path d="M14.48 27.4301H12.95V28.9601H14.48V27.4301Z" fill="currentColor"/>
<path d="M12.95 24.38H11.43V27.43H12.95V24.38Z" fill="currentColor"/>
<path d="M11.43 22.86H6.85999V24.38H11.43V22.86Z" fill="currentColor"/>
<path d="M6.86003 24.38H5.34003V25.91H6.86003V24.38Z" fill="currentColor"/>
<path d="M5.34 25.91H3.81V27.43H5.34V25.91Z" fill="currentColor"/>
<path d="M3.81001 27.4301H0.76001V28.9601H3.81001V27.4301Z" fill="currentColor"/>
</svg>
