<svg width="32" height="32" viewBox="0 0 32 32" fill="none" xmlns="http://www.w3.org/2000/svg">
<g clip-path="url(#clip0_1128_9195)">
<path d="M31.24 13.72H29.71V19.81H31.24V13.72Z" fill="currentColor"/>
<path d="M29.71 19.8101H28.19V24.3901H29.71V19.8101Z" fill="currentColor"/>
<path d="M29.71 12.1899H28.19V13.7199H29.71V12.1899Z" fill="currentColor"/>
<path d="M26.67 27.43H12.95V24.39H11.43V27.43H9.90002V32H29.71V27.43H28.19V24.39H26.67V27.43ZM26.67 30.48H23.62V28.96H26.67V30.48Z" fill="currentColor"/>
<path d="M28.19 10.67H26.67V12.19H28.19V10.67Z" fill="currentColor"/>
<path d="M26.67 13.72H25.14V16.77H26.67V13.72Z" fill="currentColor"/>
<path d="M22.1 13.72H20.57V16.77H22.1V13.72Z" fill="currentColor"/>
<path d="M17.52 13.72H16V16.77H17.52V13.72Z" fill="currentColor"/>
<path d="M16 10.67H26.67V9.15003H17.52V1.53003H16V10.67Z" fill="currentColor"/>
<path d="M16 0H12.95V1.53H16V0Z" fill="currentColor"/>
<path d="M11.43 21.34H9.90002V24.39H11.43V21.34Z" fill="currentColor"/>
<path d="M11.43 15.24V18.29H12.95V1.53003H11.43V13.72H9.90002V15.24H11.43Z" fill="currentColor"/>
<path d="M9.9 19.8101H8.38V21.3401H9.9V19.8101Z" fill="currentColor"/>
<path d="M9.9 12.1899H8.38V13.7199H9.9V12.1899Z" fill="currentColor"/>
<path d="M8.38002 4.58H9.90002V0H5.33002V1.53H6.86002V3.05H8.38002V4.58Z" fill="currentColor"/>
<path d="M8.37999 18.29H6.85999V19.81H8.37999V18.29Z" fill="currentColor"/>
<path d="M8.38002 10.67H5.33002V12.19H8.38002V10.67Z" fill="currentColor"/>
<path d="M6.86002 16.77H5.33002V18.29H6.86002V16.77Z" fill="currentColor"/>
<path d="M6.86002 3.05005H5.33002V4.58005H6.86002V3.05005Z" fill="currentColor"/>
<path d="M5.33 12.1899H3.81V16.7699H5.33V12.1899Z" fill="currentColor"/>
<path d="M5.33001 7.61996H3.81001V6.09996H2.29001V4.57996H0.76001V9.14996H5.33001V7.61996Z" fill="currentColor"/>
<path d="M5.33 4.57996H3.81V6.09996H5.33V4.57996Z" fill="currentColor"/>
</g>
<defs>
<clipPath id="clip0_1128_9195">
<rect width="32" height="32" fill="white"/>
</clipPath>
</defs>
</svg>
