<svg width="32" height="32" viewBox="0 0 32 32" fill="none" xmlns="http://www.w3.org/2000/svg">
<g clip-path="url(#clip0_1128_13855)">
<path d="M32 18.29H30.47V30.48H32V18.29Z" fill="currentColor"/>
<path d="M32 1.51999H30.47V13.71H32V1.51999Z" fill="currentColor"/>
<path d="M30.47 16.76H27.42V18.29H30.47V16.76Z" fill="currentColor"/>
<path d="M30.47 30.48H18.28V32H30.47V30.48Z" fill="currentColor"/>
<path d="M30.47 13.71H27.42V15.24H30.47V13.71Z" fill="currentColor"/>
<path d="M27.42 7.62H25.9V9.14H24.38V10.67H25.9V13.71H27.42V7.62Z" fill="currentColor"/>
<path d="M25.9 22.86V24.38H27.42V18.29H25.9V21.33H24.38V22.86H25.9Z" fill="currentColor"/>
<path d="M24.38 19.81H22.85V21.33H24.38V19.81Z" fill="currentColor"/>
<path d="M24.38 10.67H22.85V12.19H24.38V10.67Z" fill="currentColor"/>
<path d="M22.85 18.29H21.33V19.81H22.85V18.29Z" fill="currentColor"/>
<path d="M22.85 12.19H21.33V13.71H22.85V12.19Z" fill="currentColor"/>
<path d="M22.85 6.09001H24.38V4.57001H18.28V6.09001H21.33V7.62001H22.85V6.09001Z" fill="currentColor"/>
<path d="M24.38 27.43V25.9H22.85V24.38H21.33V25.9H18.28V27.43H24.38Z" fill="currentColor"/>
<path d="M21.33 22.86H19.8V24.38H21.33V22.86Z" fill="currentColor"/>
<path d="M21.33 16.76H18.28V18.29H21.33V16.76Z" fill="currentColor"/>
<path d="M21.33 7.62H19.8V9.14H21.33V7.62Z" fill="currentColor"/>
<path d="M30.47 0H18.28V1.52H30.47V0Z" fill="currentColor"/>
<path d="M18.28 21.33V18.29H16.76V22.86H19.8V21.33H18.28Z" fill="currentColor"/>
<path d="M21.33 13.71H18.28V15.24H21.33V13.71Z" fill="currentColor"/>
<path d="M19.8 9.14001H18.28V10.67H19.8V9.14001Z" fill="currentColor"/>
<path d="M18.28 27.43H16.76V30.48H18.28V27.43Z" fill="currentColor"/>
<path d="M18.28 10.67H16.76V13.71H18.28V10.67Z" fill="currentColor"/>
<path d="M18.28 1.51999H16.76V4.56999H18.28V1.51999Z" fill="currentColor"/>
<path d="M15.23 27.43H13.71V30.48H15.23V27.43Z" fill="currentColor"/>
<path d="M15.23 18.29H13.71V21.33H15.23V18.29Z" fill="currentColor"/>
<path d="M15.23 10.67H13.71V13.71H15.23V10.67Z" fill="currentColor"/>
<path d="M15.23 1.51999H13.71V4.56999H15.23V1.51999Z" fill="currentColor"/>
<path d="M13.7099 21.33H12.1899V22.86H13.7099V21.33Z" fill="currentColor"/>
<path d="M13.71 16.76H10.66V18.29H13.71V16.76Z" fill="currentColor"/>
<path d="M13.7099 9.14001H12.1899V10.67H13.7099V9.14001Z" fill="currentColor"/>
<path d="M13.71 30.48H1.52002V32H13.71V30.48Z" fill="currentColor"/>
<path d="M12.19 22.86H10.66V24.38H12.19V22.86Z" fill="currentColor"/>
<path d="M13.71 13.71H10.66V15.24H13.71V13.71Z" fill="currentColor"/>
<path d="M12.19 7.62H10.66V9.14H12.19V7.62Z" fill="currentColor"/>
<path d="M7.60999 4.57001V6.09001H9.13999V7.62001H10.66V6.09001H13.71V4.57001H7.60999Z" fill="currentColor"/>
<path d="M9.13999 25.9H7.60999V27.43H13.71V25.9H10.66V24.38H9.13999V25.9Z" fill="currentColor"/>
<path d="M10.66 18.29H9.14001V19.81H10.66V18.29Z" fill="currentColor"/>
<path d="M10.66 12.19H9.14001V13.71H10.66V12.19Z" fill="currentColor"/>
<path d="M9.13999 19.81H7.60999V21.33H9.13999V19.81Z" fill="currentColor"/>
<path d="M9.13999 10.67H7.60999V12.19H9.13999V10.67Z" fill="currentColor"/>
<path d="M6.08995 9.14V7.62H4.56995V13.71H6.08995V10.67H7.60995V9.14H6.08995Z" fill="currentColor"/>
<path d="M4.56995 24.38H6.08995V22.86H7.60995V21.33H6.08995V18.29H4.56995V24.38Z" fill="currentColor"/>
<path d="M4.57002 16.76H1.52002V18.29H4.57002V16.76Z" fill="currentColor"/>
<path d="M13.71 0H1.52002V1.52H13.71V0Z" fill="currentColor"/>
<path d="M4.57002 13.71H1.52002V15.24H4.57002V13.71Z" fill="currentColor"/>
<path d="M1.52 18.29H0V30.48H1.52V18.29Z" fill="currentColor"/>
<path d="M1.52 1.51999H0V13.71H1.52V1.51999Z" fill="currentColor"/>
</g>
<defs>
<clipPath id="clip0_1128_13855">
<rect width="32" height="32" fill="white"/>
</clipPath>
</defs>
</svg>
