<svg width="32" height="32" viewBox="0 0 32 32" fill="none" xmlns="http://www.w3.org/2000/svg">
<g clip-path="url(#clip0_1135_2122)">
<path d="M32 12.1851H30.48V19.8051H32V12.1851Z" fill="currentColor"/>
<path d="M30.48 19.8051H28.96V22.8551H30.48V19.8051Z" fill="currentColor"/>
<path d="M30.48 9.14502H28.96V12.185H30.48V9.14502Z" fill="currentColor"/>
<path d="M28.9601 22.8551H27.4301V24.3751H28.9601V22.8551Z" fill="currentColor"/>
<path d="M28.9601 12.1851H27.4301V13.7151H28.9601V12.1851Z" fill="currentColor"/>
<path d="M28.9601 7.61499H27.4301V9.14499H28.9601V7.61499Z" fill="currentColor"/>
<path d="M27.43 10.665H25.91V12.185H27.43V10.665Z" fill="currentColor"/>
<path d="M24.38 18.2851H25.91V13.7151H24.38V7.61506H27.43V6.09506H24.38V4.56506H22.86V27.4251H24.38V25.9051H27.43V24.3751H24.38V18.2851Z" fill="currentColor"/>
<path d="M22.86 27.425H1.53003V28.955H22.86V27.425Z" fill="currentColor"/>
<path d="M18.29 15.235H15.24V16.755H13.72V19.805H15.24V21.335H18.29V19.805H19.81V9.14502H18.29V15.235ZM18.29 18.285H16.77V16.755H18.29V18.285Z" fill="currentColor"/>
<path d="M18.29 7.61499H15.24V9.14499H18.29V7.61499Z" fill="currentColor"/>
<path d="M15.2399 9.14502H12.1899V10.665H15.2399V9.14502Z" fill="currentColor"/>
<path d="M12.19 10.665H9.15002V12.185H12.19V10.665Z" fill="currentColor"/>
<path d="M7.62005 18.2851H4.58005V19.8051H3.05005V22.8551H4.58005V24.3751H7.62005V22.8551H9.15005V12.1851H7.62005V18.2851ZM7.62005 21.3351H6.10005V19.8051H7.62005V21.3351Z" fill="currentColor"/>
<path d="M22.86 3.04504H1.53003V4.56504H22.86V3.04504Z" fill="currentColor"/>
<path d="M1.53 4.56506H0V27.4251H1.53V4.56506Z" fill="currentColor"/>
</g>
<defs>
<clipPath id="clip0_1135_2122">
<rect width="32" height="32" fill="white"/>
</clipPath>
</defs>
</svg>
