<svg width="32" height="32" viewBox="0 0 32 32" fill="none" xmlns="http://www.w3.org/2000/svg">
<g clip-path="url(#clip0_1128_5333)">
<path d="M31.235 3.80499H29.715V28.195H31.235V3.80499Z" fill="currentColor"/>
<path d="M29.715 28.195H28.185V29.715H29.715V28.195Z" fill="currentColor"/>
<path d="M29.715 2.28503H28.185V3.80503H29.715V2.28503Z" fill="currentColor"/>
<path d="M2.28501 29.715H3.80501V31.235H28.185V29.715H19.045V26.665H17.525V25.145H20.575V23.615H17.525V22.1H16V17.53H11.43V14.48H12.96V12.96H14.48V9.90001H16V6.85501H17.53V2.28501H28.19V0.765015H3.80501V2.28501H2.28501V3.80501H0.765015V28.2H2.28501V29.715ZM6.85501 8.38502H8.38502V11.425H6.85501V8.38502ZM6.85501 20.575H8.38502V22.1H9.90001V23.62H16V25.15H9.90001V23.62H8.38502V22.1H6.85501V20.575Z" fill="currentColor"/>
<path d="M25.145 8.38501H23.615V11.425H25.145V8.38501Z" fill="currentColor"/>
<path d="M23.615 20.575H22.095V22.095H23.615V20.575Z" fill="currentColor"/>
<path d="M22.095 22.095H20.575V23.615H22.095V22.095Z" fill="currentColor"/>
</g>
<defs>
<clipPath id="clip0_1128_5333">
<rect width="32" height="32" fill="white"/>
</clipPath>
</defs>
</svg>
