<svg width="32" height="32" viewBox="0 0 32 32" fill="none" xmlns="http://www.w3.org/2000/svg">
<path d="M29.7151 8.38H28.1851V14.47H29.7151V8.38Z" fill="currentColor"/>
<path d="M28.185 14.47H26.665V17.52H28.185V14.47Z" fill="currentColor"/>
<path d="M28.185 6.85999H26.665V8.37999H28.185V6.85999Z" fill="currentColor"/>
<path d="M26.665 17.52H25.145V19.05H26.665V17.52Z" fill="currentColor"/>
<path d="M26.665 5.33002H25.145V6.86002H26.665V5.33002Z" fill="currentColor"/>
<path d="M25.145 19.05H23.615V20.57H25.145V19.05Z" fill="currentColor"/>
<path d="M25.145 9.90002H23.615V14.47H25.145V9.90002Z" fill="currentColor"/>
<path d="M25.145 3.81H19.045V5.33H25.145V3.81Z" fill="currentColor"/>
<path d="M23.6151 20.57H22.0951V22.09H23.6151V20.57Z" fill="currentColor"/>
<path d="M23.6151 14.47H22.0951V16H23.6151V14.47Z" fill="currentColor"/>
<path d="M23.615 8.38H19.045V9.9H23.615V8.38Z" fill="currentColor"/>
<path d="M22.0951 22.09H20.5651V23.62H22.0951V22.09Z" fill="currentColor"/>
<path d="M22.0951 16H20.5651V17.52H22.0951V16Z" fill="currentColor"/>
<path d="M20.565 23.62H19.045V25.14H20.565V23.62Z" fill="currentColor"/>
<path d="M20.565 17.52H19.045V19.05H20.565V17.52Z" fill="currentColor"/>
<path d="M19.045 25.14H17.525V26.67H19.045V25.14Z" fill="currentColor"/>
<path d="M19.045 19.05H17.525V20.57H19.045V19.05Z" fill="currentColor"/>
<path d="M19.045 9.90002H17.525V11.43H19.045V9.90002Z" fill="currentColor"/>
<path d="M17.525 20.57H15.995V22.09H17.525V20.57Z" fill="currentColor"/>
<path d="M17.525 11.43H15.995V12.95H17.525V11.43Z" fill="currentColor"/>
<path d="M19.045 5.33002H15.995V6.86002H19.045V5.33002Z" fill="currentColor"/>
<path d="M15.995 22.09H14.475V23.62H15.995V22.09Z" fill="currentColor"/>
<path d="M15.995 12.95H14.475V14.47H15.995V12.95Z" fill="currentColor"/>
<path d="M15.995 6.85999H14.475V8.37999H15.995V6.85999Z" fill="currentColor"/>
<path d="M14.4751 23.62H12.9451V25.14H14.4751V23.62Z" fill="currentColor"/>
<path d="M14.4751 14.47H12.9451V16H14.4751V14.47Z" fill="currentColor"/>
<path d="M14.4751 8.38H12.9451V9.9H14.4751V8.38Z" fill="currentColor"/>
<path d="M12.945 25.14H11.425V26.67H12.945V25.14Z" fill="currentColor"/>
<path d="M12.945 16H11.425V17.52H12.945V16Z" fill="currentColor"/>
<path d="M12.945 9.90002H11.425V11.43H12.945V9.90002Z" fill="currentColor"/>
<path d="M11.425 17.52H9.90503V19.05H11.425V17.52Z" fill="currentColor"/>
<path d="M11.425 11.43H9.90503V12.95H11.425V11.43Z" fill="currentColor"/>
<path d="M9.905 12.95H8.375V14.47H9.905V12.95Z" fill="currentColor"/>
<path d="M8.37498 14.47H6.85498V16H8.37498V14.47Z" fill="currentColor"/>
<path d="M11.4251 26.67H5.33508V28.19H11.4251V26.67Z" fill="currentColor"/>
<path d="M6.85508 16H5.33508V17.52H6.85508V16Z" fill="currentColor"/>
<path d="M5.33505 25.14H3.80505V26.67H5.33505V25.14Z" fill="currentColor"/>
<path d="M5.33505 17.52H3.80505V19.05H5.33505V17.52Z" fill="currentColor"/>
<path d="M3.80503 19.05H2.28503V25.14H3.80503V19.05Z" fill="currentColor"/>
</svg>
