<svg width="32" height="32" viewBox="0 0 32 32" fill="none" xmlns="http://www.w3.org/2000/svg">
<g clip-path="url(#clip0_1128_8286)">
<path d="M22.86 18.28V13.71H9.14V18.28H0V32H32V18.28H22.86ZM9.14 30.47H1.53V19.81H9.14V30.47ZM21.33 30.47H10.67V15.24H21.33V30.47ZM30.48 30.47H22.86V19.81H30.48V30.47Z" fill="currentColor"/>
<path d="M28.95 21.33H24.38V22.86H27.43V24.38H24.38V25.9H27.43V27.43H24.38V28.95H28.95V21.33Z" fill="currentColor"/>
<path d="M28.95 6.08997H25.91V7.61997H28.95V6.08997Z" fill="currentColor"/>
<path d="M25.91 0H24.38V1.52H25.91V0Z" fill="currentColor"/>
<path d="M24.38 1.52002H22.86V3.05002H24.38V1.52002Z" fill="currentColor"/>
<path d="M18.29 22.86H16.76V16.76H13.72V18.28H15.24V22.86H13.72V24.38H18.29V22.86Z" fill="currentColor"/>
<path d="M16.76 0H15.24V3.05H16.76V0Z" fill="currentColor"/>
<path d="M9.14001 4.56995V10.6599H10.67V12.1899H21.33V10.6599H22.86V4.56995H21.33V6.08995H19.81V7.61995H18.29V6.08995H16.76V4.56995H15.24V6.08995H13.72V7.61995H12.19V6.08995H10.67V4.56995H9.14001ZM18.29 9.13995H19.81V10.6599H18.29V9.13995ZM15.24 9.13995H16.76V10.6599H15.24V9.13995ZM12.19 9.13995H13.72V10.6599H12.19V9.13995Z" fill="currentColor"/>
<path d="M9.14 1.52002H7.62V3.05002H9.14V1.52002Z" fill="currentColor"/>
<path d="M7.61998 0H6.09998V1.52H7.61998V0Z" fill="currentColor"/>
<path d="M7.62005 27.43H4.57005V25.9H7.62005V21.33H3.05005V22.86H6.10005V24.38H3.05005V28.95H7.62005V27.43Z" fill="currentColor"/>
<path d="M6.10005 6.08997H3.05005V7.61997H6.10005V6.08997Z" fill="currentColor"/>
</g>
<defs>
<clipPath id="clip0_1128_8286">
<rect width="32" height="32" fill="white"/>
</clipPath>
</defs>
</svg>
