<svg width="32" height="32" viewBox="0 0 32 32" fill="none" xmlns="http://www.w3.org/2000/svg">
<g clip-path="url(#clip0_1128_5033)">
<path d="M29.715 23.62H28.185V22.1H26.665V20.57H25.145V17.53H23.615V20.57H22.1V22.1H20.58V23.62H17.53V25.14H20.58V26.67H22.1V28.19H23.62V29.72H25.15V31.24H29.72V29.72H31.24V25.14H29.72L29.715 23.62ZM29.715 28.19H28.185V26.67H26.665V25.14H25.145V23.62H26.665V25.14H28.185V26.67H29.715V28.19Z" fill="currentColor"/>
<path d="M26.665 9.91003H25.145V17.53H26.665V9.91003Z" fill="currentColor"/>
<path d="M25.145 6.85999H23.615V9.90999H25.145V6.85999Z" fill="currentColor"/>
<path d="M23.615 5.33002H22.095V6.86002H23.615V5.33002Z" fill="currentColor"/>
<path d="M22.0951 3.81H20.5751V5.33H22.0951V3.81Z" fill="currentColor"/>
<path d="M20.575 6.85999H19.045V9.90999H20.575V6.85999Z" fill="currentColor"/>
<path d="M19.045 20.57H20.575V17.53H19.045V14.48H22.1V12.95H19.05V9.91H17.53V8.38H16V9.91H11.43V8.38H9.89996V9.91H8.37496V12.95H5.33496V14.48H8.37496V17.53H6.85496V20.57H8.37496V19.05H11.425V20.57H16V19.05H19.05L19.045 20.57ZM17.525 14.48H14.475V19.05H12.955V14.48H9.89996V12.95H17.52L17.525 14.48Z" fill="currentColor"/>
<path d="M20.575 2.29004H17.525V3.81004H20.575V2.29004Z" fill="currentColor"/>
<path d="M17.525 25.14H9.90503V26.67H17.525V25.14Z" fill="currentColor"/>
<path d="M15.995 8.38002V6.86002H17.525V5.33002H14.475V6.86002H12.955V5.33002H9.90503V6.86002H11.425V8.38002H15.995Z" fill="currentColor"/>
<path d="M17.525 0.76001H9.90503V2.29001H17.525V0.76001Z" fill="currentColor"/>
<path d="M9.90498 23.62H6.85498V25.14H9.90498V23.62Z" fill="currentColor"/>
<path d="M9.90498 2.29004H6.85498V3.81004H9.90498V2.29004Z" fill="currentColor"/>
<path d="M8.37498 6.85999H6.85498V9.90999H8.37498V6.85999Z" fill="currentColor"/>
<path d="M6.85496 22.1H5.33496V23.62H6.85496V22.1Z" fill="currentColor"/>
<path d="M6.85496 3.81H5.33496V5.33H6.85496V3.81Z" fill="currentColor"/>
<path d="M5.33505 20.57H3.80505V22.1H5.33505V20.57Z" fill="currentColor"/>
<path d="M5.33505 5.33002H3.80505V6.86002H5.33505V5.33002Z" fill="currentColor"/>
<path d="M3.80503 17.53H2.28503V20.57H3.80503V17.53Z" fill="currentColor"/>
<path d="M3.80503 6.85999H2.28503V9.90999H3.80503V6.85999Z" fill="currentColor"/>
<path d="M2.28501 9.91003H0.765015V17.53H2.28501V9.91003Z" fill="currentColor"/>
</g>
<defs>
<clipPath id="clip0_1128_5033">
<rect width="32" height="32" fill="white"/>
</clipPath>
</defs>
</svg>
