<svg width="32" height="32" viewBox="0 0 32 32" fill="none" xmlns="http://www.w3.org/2000/svg">
<g clip-path="url(#clip0_1128_12506)">
<path d="M32 25.9H30.47V28.95H32V25.9Z" fill="currentColor"/>
<path d="M32 3.05H30.47V6.1H32V3.05Z" fill="currentColor"/>
<path d="M30.4699 28.95H28.95V30.48H30.4699V28.95Z" fill="currentColor"/>
<path d="M30.4699 1.52H28.95V3.05H30.4699V1.52Z" fill="currentColor"/>
<path d="M28.9501 25.9H27.4301V27.43H28.9501V25.9Z" fill="currentColor"/>
<path d="M28.9501 19.81H27.4301V22.86H28.9501V19.81Z" fill="currentColor"/>
<path d="M28.9501 4.57H27.4301V6.1H28.9501V4.57Z" fill="currentColor"/>
<path d="M28.95 0H25.9V1.52H28.95V0Z" fill="currentColor"/>
<path d="M28.95 30.48H25.9V32H28.95V30.48Z" fill="currentColor"/>
<path d="M27.43 27.43H25.9V28.95H27.43V27.43Z" fill="currentColor"/>
<path d="M27.43 22.86H25.9V24.38H27.43V22.86Z" fill="currentColor"/>
<path d="M27.43 18.29H25.9V19.81H27.43V18.29Z" fill="currentColor"/>
<path d="M27.43 3.05H25.9V4.57H27.43V3.05Z" fill="currentColor"/>
<path d="M25.9 24.38H22.85V25.9H25.9V24.38Z" fill="currentColor"/>
<path d="M25.9 10.67H24.38V18.29H25.9V10.67Z" fill="currentColor"/>
<path d="M24.38 21.33H22.85V22.86H24.38V21.33Z" fill="currentColor"/>
<path d="M24.38 7.62H22.85V10.67H24.38V7.62Z" fill="currentColor"/>
<path d="M9.14001 21.33H12.19V22.86H13.71V24.38H18.28V22.86H19.81V21.33H22.85V19.81H9.14001V21.33Z" fill="currentColor"/>
<path d="M22.85 6.1H21.33V7.62H22.85V6.1Z" fill="currentColor"/>
<path d="M22.85 25.9H9.14001V27.43H22.85V25.9Z" fill="currentColor"/>
<path d="M21.33 4.57H18.28V6.1H21.33V4.57Z" fill="currentColor"/>
<path d="M18.28 3.05H13.71V4.57H18.28V3.05Z" fill="currentColor"/>
<path d="M13.71 4.57H10.66V6.1H13.71V4.57Z" fill="currentColor"/>
<path d="M10.66 6.1H9.14001V7.62H10.66V6.1Z" fill="currentColor"/>
<path d="M9.13997 24.38H6.08997V25.9H9.13997V24.38Z" fill="currentColor"/>
<path d="M9.14 21.33H7.62V22.86H9.14V21.33Z" fill="currentColor"/>
<path d="M9.14 7.62H7.62V10.67H9.14V7.62Z" fill="currentColor"/>
<path d="M7.61997 10.67H6.08997V18.29H7.61997V10.67Z" fill="currentColor"/>
<path d="M6.08995 27.43H4.56995V28.95H6.08995V27.43Z" fill="currentColor"/>
<path d="M6.08995 22.86H4.56995V24.38H6.08995V22.86Z" fill="currentColor"/>
<path d="M6.08995 18.29H4.56995V19.81H6.08995V18.29Z" fill="currentColor"/>
<path d="M6.08995 3.05H4.56995V4.57H6.08995V3.05Z" fill="currentColor"/>
<path d="M6.09005 0H3.05005V1.52H6.09005V0Z" fill="currentColor"/>
<path d="M6.09005 30.48H3.05005V32H6.09005V30.48Z" fill="currentColor"/>
<path d="M4.57005 25.9H3.05005V27.43H4.57005V25.9Z" fill="currentColor"/>
<path d="M4.57005 19.81H3.05005V22.86H4.57005V19.81Z" fill="currentColor"/>
<path d="M4.57005 4.57H3.05005V6.1H4.57005V4.57Z" fill="currentColor"/>
<path d="M3.05002 28.95H1.52002V30.48H3.05002V28.95Z" fill="currentColor"/>
<path d="M3.05002 1.52H1.52002V3.05H3.05002V1.52Z" fill="currentColor"/>
<path d="M1.52 25.9H0V28.95H1.52V25.9Z" fill="currentColor"/>
<path d="M1.52 3.05H0V6.1H1.52V3.05Z" fill="currentColor"/>
</g>
<defs>
<clipPath id="clip0_1128_12506">
<rect width="32" height="32" fill="white"/>
</clipPath>
</defs>
</svg>
