<svg width="32" height="32" viewBox="0 0 32 32" fill="none" xmlns="http://www.w3.org/2000/svg">
<g clip-path="url(#clip0_1128_14553)">
<path d="M30.47 14.48H28.95V12.95H25.9V5.34003H24.38V23.62H25.9V28.19H27.43V25.14H28.95V23.62H30.47V22.1H32V16H30.47V14.48ZM27.43 22.1H25.9V14.48H27.43V22.1Z" fill="currentColor"/>
<path d="M25.9 28.19H21.33V29.72H25.9V28.19Z" fill="currentColor"/>
<path d="M24.38 3.81H22.85V5.34H24.38V3.81Z" fill="currentColor"/>
<path d="M22.85 2.29004H21.33V3.81004H22.85V2.29004Z" fill="currentColor"/>
<path d="M21.33 0.76001H10.66V2.29001H21.33V0.76001Z" fill="currentColor"/>
<path d="M21.33 29.72H16.76V31.24H21.33V29.72Z" fill="currentColor"/>
<path d="M21.33 26.67H16.76V28.19H21.33V26.67Z" fill="currentColor"/>
<path d="M16.76 28.19H15.24V29.72H16.76V28.19Z" fill="currentColor"/>
<path d="M10.66 2.29004H9.14001V3.81004H10.66V2.29004Z" fill="currentColor"/>
<path d="M9.14 3.81H7.62V5.34H9.14V3.81Z" fill="currentColor"/>
<path d="M6.09 12.95H3.05V14.48H1.52V16H0V22.1H1.52V23.62H3.05V25.14H6.09V23.62H7.62V5.34003H6.09V12.95ZM6.09 22.1H4.57V14.48H6.09V22.1Z" fill="currentColor"/>
</g>
<defs>
<clipPath id="clip0_1128_14553">
<rect width="32" height="32" fill="white"/>
</clipPath>
</defs>
</svg>
