<svg width="32" height="32" viewBox="0 0 32 32" fill="none" xmlns="http://www.w3.org/2000/svg">
<g clip-path="url(#clip0_1128_11466)">
<path d="M30.4799 25.9H28.95V27.43H32V21.33H30.4799V25.9Z" fill="currentColor"/>
<path d="M30.4799 19.81H28.95V21.33H30.4799V19.81Z" fill="currentColor"/>
<path d="M28.9501 24.38H27.4301V25.9H28.9501V24.38Z" fill="currentColor"/>
<path d="M22.86 22.86V27.43H24.38V28.95H25.91V30.48H21.34V32H27.43V27.43H25.91V24.38H27.43V22.86H22.86Z" fill="currentColor"/>
<path d="M21.3401 28.95H19.8101V30.48H21.3401V28.95Z" fill="currentColor"/>
<path d="M21.3401 19.81H19.8101V21.33H21.3401V19.81Z" fill="currentColor"/>
<path d="M19.81 22.86H18.29V28.95H19.81V22.86Z" fill="currentColor"/>
<path d="M19.81 18.28H18.29V19.81H19.81V18.28Z" fill="currentColor"/>
<path d="M18.29 21.33H16.76V22.86H18.29V21.33Z" fill="currentColor"/>
<path d="M18.29 16.76H16.76V18.28H18.29V16.76Z" fill="currentColor"/>
<path d="M16.76 19.81H15.24V21.33H16.76V19.81Z" fill="currentColor"/>
<path d="M16.76 15.24H15.24V16.76H16.76V15.24Z" fill="currentColor"/>
<path d="M15.24 18.28H13.72V19.81H15.24V18.28Z" fill="currentColor"/>
<path d="M15.24 13.71H13.72V15.24H15.24V13.71Z" fill="currentColor"/>
<path d="M13.7199 16.76H12.1899V18.28H13.7199V16.76Z" fill="currentColor"/>
<path d="M13.7199 12.19H12.1899V13.71H13.7199V12.19Z" fill="currentColor"/>
<path d="M12.19 15.24H10.67V16.76H12.19V15.24Z" fill="currentColor"/>
<path d="M12.19 10.67H10.67V12.19H12.19V10.67Z" fill="currentColor"/>
<path d="M10.67 13.71H9.15002V15.24H10.67V13.71Z" fill="currentColor"/>
<path d="M9.15005 12.19H3.05005V13.71H9.15005V12.19Z" fill="currentColor"/>
<path d="M7.61998 3.05H6.09998V4.57H7.61998V3.05Z" fill="currentColor"/>
<path d="M10.6699 1.52V3.05H12.1899V9.14H13.7199V10.67H15.2399V12.19H16.7599V13.71H18.2899V15.24H19.8099V16.76H21.3399V18.28H22.8599V19.81H28.9499V18.28H24.3799V16.76H22.8599V15.24H21.3399V13.71H19.8099V12.19H18.2899V10.67H16.7599V9.14H15.2399V3.05H13.7199V1.52H12.1899V0H4.56995V3.05H6.09995V1.52H10.6699Z" fill="currentColor"/>
<path d="M3.05003 10.67H1.53003V12.19H3.05003V10.67Z" fill="currentColor"/>
<path d="M1.53 6.09001H3.05V7.62001H4.57V9.14001H9.15V4.57001H7.62V7.62001H6.1V6.09001H4.57V4.57001H0V10.67H1.53V6.09001Z" fill="currentColor"/>
</g>
<defs>
<clipPath id="clip0_1128_11466">
<rect width="32" height="32" fill="white"/>
</clipPath>
</defs>
</svg>
