<svg width="32" height="32" viewBox="0 0 32 32" fill="none" xmlns="http://www.w3.org/2000/svg">
<g clip-path="url(#clip0_1128_11761)">
<path d="M9.14 22.855H7.62V24.385H9.14V22.855Z" fill="currentColor"/>
<path d="M24.38 22.855H22.86V24.385H24.38V22.855Z" fill="currentColor"/>
<path d="M7.61998 21.335H6.09998V22.855H7.61998V21.335Z" fill="currentColor"/>
<path d="M25.91 21.335H24.38V22.855H25.91V21.335Z" fill="currentColor"/>
<path d="M6.09995 19.805H4.56995V21.335H6.09995V19.805Z" fill="currentColor"/>
<path d="M22.86 9.145H21.33V22.855H22.86V9.145Z" fill="currentColor"/>
<path d="M27.43 19.805H25.91V21.335H27.43V19.805Z" fill="currentColor"/>
<path d="M4.57005 18.285H3.05005V19.805H4.57005V18.285Z" fill="currentColor"/>
<path d="M28.9501 18.285H27.4301V19.805H28.9501V18.285Z" fill="currentColor"/>
<path d="M3.05002 16.765H1.52002V18.285H3.05002V16.765Z" fill="currentColor"/>
<path d="M18.2899 12.195H13.7099V13.715H12.1899V18.285H13.7099V19.805H18.2899V18.285H19.8099V13.715H18.2899V12.195Z" fill="currentColor"/>
<path d="M30.4799 16.765H28.95V18.285H30.4799V16.765Z" fill="currentColor"/>
<path d="M1.52 15.235H0V16.765H1.52V15.235Z" fill="currentColor"/>
<path d="M32 15.235H30.48V16.765H32V15.235Z" fill="currentColor"/>
<path d="M3.05002 13.715H1.52002V15.235H3.05002V13.715Z" fill="currentColor"/>
<path d="M30.4799 13.715H28.95V15.235H30.4799V13.715Z" fill="currentColor"/>
<path d="M4.57005 12.195H3.05005V13.715H4.57005V12.195Z" fill="currentColor"/>
<path d="M28.9501 12.195H27.4301V13.715H28.9501V12.195Z" fill="currentColor"/>
<path d="M6.09995 10.665H4.56995V12.195H6.09995V10.665Z" fill="currentColor"/>
<path d="M10.67 9.145H9.14001V22.855H10.67V9.145Z" fill="currentColor"/>
<path d="M27.43 10.665H25.91V12.195H27.43V10.665Z" fill="currentColor"/>
<path d="M7.61998 9.145H6.09998V10.665H7.61998V9.145Z" fill="currentColor"/>
<path d="M25.91 9.145H24.38V10.665H25.91V9.145Z" fill="currentColor"/>
<path d="M9.14 7.61501H7.62V9.14501H9.14V7.61501Z" fill="currentColor"/>
<path d="M24.38 7.61501H22.86V9.14501H24.38V7.61501Z" fill="currentColor"/>
</g>
<defs>
<clipPath id="clip0_1128_11761">
<rect width="32" height="32" fill="white"/>
</clipPath>
</defs>
</svg>
