<svg width="32" height="32" viewBox="0 0 32 32" fill="none" xmlns="http://www.w3.org/2000/svg">
<path d="M28.95 3.05H27.43V27.43H28.95V3.05Z" fill="currentColor"/>
<path d="M27.43 1.52H25.9V3.05H27.43V1.52Z" fill="currentColor"/>
<path d="M4.57 27.43V28.95H6.09V30.48H7.62V28.95H24.38V30.48H25.9V28.95H27.43V27.43H4.57Z" fill="currentColor"/>
<path d="M25.9 4.57H24.38V18.29H25.9V4.57Z" fill="currentColor"/>
<path d="M24.38 30.48H7.62V32H24.38V30.48Z" fill="currentColor"/>
<path d="M24.38 22.86H18.28V24.38H24.38V22.86Z" fill="currentColor"/>
<path d="M24.38 18.29H7.62V19.81H24.38V18.29Z" fill="currentColor"/>
<path d="M16.76 15.24H21.33V13.71H22.85V9.14H21.33V7.62H16.76V9.14H15.24V10.67H16.76V12.19H15.24V13.71H16.76V15.24ZM18.28 9.14H19.81V10.67H18.28V9.14Z" fill="currentColor"/>
<path d="M13.71 10.67H12.19V12.19H13.71V10.67Z" fill="currentColor"/>
<path d="M10.66 10.67H9.14V12.19H10.66V10.67Z" fill="currentColor"/>
<path d="M24.38 3.05H7.62V4.57H24.38V3.05Z" fill="currentColor"/>
<path d="M9.14 22.86H7.62V24.38H9.14V22.86Z" fill="currentColor"/>
<path d="M25.9 0H6.09V1.52H25.9V0Z" fill="currentColor"/>
<path d="M7.62 4.57H6.09V18.29H7.62V4.57Z" fill="currentColor"/>
<path d="M6.09 1.52H4.57V3.05H6.09V1.52Z" fill="currentColor"/>
<path d="M4.57 3.05H3.05V27.43H4.57V3.05Z" fill="currentColor"/>
</svg>
