<svg width="32" height="32" viewBox="0 0 32 32" fill="none" xmlns="http://www.w3.org/2000/svg">
<g clip-path="url(#clip0_1128_12586)">
<path d="M30.48 9.14H28.95V6.09H27.43V4.57H25.91V3.05H22.86V1.52H19.81V0H12.19V1.52H9.14V3.05H6.1V4.57H4.57V6.09H3.05V9.14H1.52V12.19H0V19.81H1.52V22.86H3.05V25.9H4.57V27.43H6.1V28.95H9.14V30.48H12.19V32H19.81V30.48H22.86V28.95H25.91V27.43H27.43V25.9H28.95V22.86H30.48V19.81H32V12.19H30.48V9.14ZM25.91 15.24H24.38V16.76H22.86V18.29H21.33V19.81H19.81V21.33H18.29V18.29H12.19V19.81H10.67V21.33H12.19V22.86H13.71V24.38H9.14V22.86H7.62V21.33H6.1V13.71H7.62V12.19H9.14V10.67H18.29V7.62H19.81V9.14H21.33V10.67H22.86V12.19H24.38V13.71H25.91V15.24Z" fill="currentColor"/>
</g>
<defs>
<clipPath id="clip0_1128_12586">
<rect width="32" height="32" fill="white"/>
</clipPath>
</defs>
</svg>
