<svg width="32" height="32" viewBox="0 0 32 32" fill="none" xmlns="http://www.w3.org/2000/svg">
<path d="M28.185 6.86H25.135V8.38H28.185V20.57H25.135V22.1H23.615V25.14H25.135V26.67H28.185V25.14H29.715V0.760002H25.135V2.29H28.185V6.86Z" fill="currentColor"/>
<path d="M25.1351 8.38H20.5651V9.91H25.1351V8.38Z" fill="currentColor"/>
<path d="M25.1351 2.29H20.5651V3.81H25.1351V2.29Z" fill="currentColor"/>
<path d="M20.565 9.91H15.995V11.43H20.565V9.91Z" fill="currentColor"/>
<path d="M20.565 3.81001H15.995V5.34001H20.565V3.81001Z" fill="currentColor"/>
<path d="M15.995 11.43H11.425V12.95H15.995V11.43Z" fill="currentColor"/>
<path d="M15.995 5.34H11.425V6.86H15.995V5.34Z" fill="currentColor"/>
<path d="M3.80503 31.24H6.85503V29.72H8.37503V14.48H11.425V12.95H8.37503V8.38H11.425V6.86H6.85503V25.14H3.80503V26.67H2.28503V29.72H3.80503V31.24Z" fill="currentColor"/>
</svg>
