<svg width="32" height="32" viewBox="0 0 32 32" fill="none" xmlns="http://www.w3.org/2000/svg">
<g clip-path="url(#clip0_1128_14757)">
<path d="M32 3.04999H30.47V7.61999H32V3.04999Z" fill="currentColor"/>
<path d="M30.4699 7.62H28.95V9.14H30.4699V7.62Z" fill="currentColor"/>
<path d="M30.4699 1.52002H28.95V3.05002H30.4699V1.52002Z" fill="currentColor"/>
<path d="M28.9501 13.71H27.4301V21.33H28.9501V13.71Z" fill="currentColor"/>
<path d="M28.9501 6.09998H27.4301V7.61998H28.9501V6.09998Z" fill="currentColor"/>
<path d="M27.43 30.48H25.9V32H27.43V30.48Z" fill="currentColor"/>
<path d="M27.43 21.33H25.9V24.38H27.43V21.33Z" fill="currentColor"/>
<path d="M27.43 10.67H25.9V13.71H27.43V10.67Z" fill="currentColor"/>
<path d="M27.43 4.57001H25.9V6.10001H27.43V4.57001Z" fill="currentColor"/>
<path d="M28.95 0H24.38V1.52H28.95V0Z" fill="currentColor"/>
<path d="M25.9 28.95H24.38V30.48H25.9V28.95Z" fill="currentColor"/>
<path d="M25.9 24.38H24.38V25.9H25.9V24.38Z" fill="currentColor"/>
<path d="M25.9 16.76H24.38V18.29H25.9V16.76Z" fill="currentColor"/>
<path d="M25.9 9.14001H24.38V10.67H25.9V9.14001Z" fill="currentColor"/>
<path d="M25.9 3.04999H24.38V4.56999H25.9V3.04999Z" fill="currentColor"/>
<path d="M22.8501 27.43H19.8101V28.95H24.3801V25.9H22.8501V27.43Z" fill="currentColor"/>
<path d="M24.38 7.62H22.85V9.14H24.38V7.62Z" fill="currentColor"/>
<path d="M24.38 1.52002H22.85V3.05002H24.38V1.52002Z" fill="currentColor"/>
<path d="M22.85 22.86H21.33V24.38H22.85V22.86Z" fill="currentColor"/>
<path d="M22.85 10.67H21.33V12.19H22.85V10.67Z" fill="currentColor"/>
<path d="M21.33 16.76H18.28V15.24H16.76V10.67H15.24V15.24H13.71V19.81H18.28V18.29H21.33V16.76Z" fill="currentColor"/>
<path d="M22.8501 6.09998H19.8101V7.61998H22.8501V6.09998Z" fill="currentColor"/>
<path d="M19.8099 28.95H12.1899V30.48H19.8099V28.95Z" fill="currentColor"/>
<path d="M16.76 25.9H15.24V27.43H16.76V25.9Z" fill="currentColor"/>
<path d="M16.76 7.62H15.24V9.14H16.76V7.62Z" fill="currentColor"/>
<path d="M19.8099 4.57001H12.1899V6.10001H19.8099V4.57001Z" fill="currentColor"/>
<path d="M9.14 27.43V25.9H7.62V28.95H12.19V27.43H9.14Z" fill="currentColor"/>
<path d="M12.19 6.09998H9.14001V7.61998H12.19V6.09998Z" fill="currentColor"/>
<path d="M10.66 22.86H9.14001V24.38H10.66V22.86Z" fill="currentColor"/>
<path d="M10.66 10.67H9.14001V12.19H10.66V10.67Z" fill="currentColor"/>
<path d="M9.14 7.62H7.62V9.14H9.14V7.62Z" fill="currentColor"/>
<path d="M9.14 1.52002H7.62V3.05002H9.14V1.52002Z" fill="currentColor"/>
<path d="M7.61997 28.95H6.08997V30.48H7.61997V28.95Z" fill="currentColor"/>
<path d="M7.61997 24.38H6.08997V25.9H7.61997V24.38Z" fill="currentColor"/>
<path d="M7.61997 16.76H6.08997V18.29H7.61997V16.76Z" fill="currentColor"/>
<path d="M7.61997 9.14001H6.08997V10.67H7.61997V9.14001Z" fill="currentColor"/>
<path d="M7.61997 3.04999H6.08997V4.56999H7.61997V3.04999Z" fill="currentColor"/>
<path d="M6.08995 30.48H4.56995V32H6.08995V30.48Z" fill="currentColor"/>
<path d="M6.08995 21.33H4.56995V24.38H6.08995V21.33Z" fill="currentColor"/>
<path d="M6.08995 10.67H4.56995V13.71H6.08995V10.67Z" fill="currentColor"/>
<path d="M6.08995 4.57001H4.56995V6.10001H6.08995V4.57001Z" fill="currentColor"/>
<path d="M7.62005 0H3.05005V1.52H7.62005V0Z" fill="currentColor"/>
<path d="M4.57005 13.71H3.05005V21.33H4.57005V13.71Z" fill="currentColor"/>
<path d="M4.57005 6.09998H3.05005V7.61998H4.57005V6.09998Z" fill="currentColor"/>
<path d="M3.05002 7.62H1.52002V9.14H3.05002V7.62Z" fill="currentColor"/>
<path d="M3.05002 1.52002H1.52002V3.05002H3.05002V1.52002Z" fill="currentColor"/>
<path d="M1.52 3.04999H0V7.61999H1.52V3.04999Z" fill="currentColor"/>
</g>
<defs>
<clipPath id="clip0_1128_14757">
<rect width="32" height="32" fill="white"/>
</clipPath>
</defs>
</svg>
