<svg width="32" height="32" viewBox="0 0 32 32" fill="none" xmlns="http://www.w3.org/2000/svg">
<path d="M30.475 12.19H28.955V19.81H30.475V12.19Z" fill="currentColor"/>
<path d="M28.9549 19.81H27.4249V22.86H28.9549V19.81Z" fill="currentColor"/>
<path d="M28.9549 9.14H27.4249V12.19H28.9549V9.14Z" fill="currentColor"/>
<path d="M27.4249 22.86H25.9049V25.9H27.4249V22.86Z" fill="currentColor"/>
<path d="M27.4249 6.09001H25.9049V9.14001H27.4249V6.09001Z" fill="currentColor"/>
<path d="M25.905 25.9H22.855V27.43H25.905V25.9Z" fill="currentColor"/>
<path d="M25.905 4.57001H22.855V6.09001H25.905V4.57001Z" fill="currentColor"/>
<path d="M22.855 18.29H21.335V19.81H22.855V18.29Z" fill="currentColor"/>
<path d="M22.855 13.71H21.335V15.24H22.855V13.71Z" fill="currentColor"/>
<path d="M22.8549 27.43H19.8049V28.95H22.8549V27.43Z" fill="currentColor"/>
<path d="M21.3349 15.24H19.8049V16.76H21.3349V15.24Z" fill="currentColor"/>
<path d="M22.8549 3.05H19.8049V4.57H22.8549V3.05Z" fill="currentColor"/>
<path d="M19.8049 16.76H18.2849V18.29H19.8049V16.76Z" fill="currentColor"/>
<path d="M19.8048 28.95H12.1948V30.48H19.8048V28.95Z" fill="currentColor"/>
<path d="M18.2849 18.29H16.7649V19.81H18.2849V18.29Z" fill="currentColor"/>
<path d="M18.2849 13.71H16.7649V15.24H18.2849V13.71Z" fill="currentColor"/>
<path d="M19.8048 1.52H12.1948V3.05H19.8048V1.52Z" fill="currentColor"/>
<path d="M15.2348 12.19H10.6648V19.81H15.2348V12.19ZM13.7148 18.29H12.1998V13.71H13.7198L13.7148 18.29Z" fill="currentColor"/>
<path d="M12.195 27.43H9.14502V28.95H12.195V27.43Z" fill="currentColor"/>
<path d="M12.195 3.05H9.14502V4.57H12.195V3.05Z" fill="currentColor"/>
<path d="M9.14497 25.9H6.09497V27.43H9.14497V25.9Z" fill="currentColor"/>
<path d="M9.14497 4.57001H6.09497V6.09001H9.14497V4.57001Z" fill="currentColor"/>
<path d="M6.09495 22.86H4.57495V25.9H6.09495V22.86Z" fill="currentColor"/>
<path d="M6.09495 6.09001H4.57495V9.14001H6.09495V6.09001Z" fill="currentColor"/>
<path d="M4.57492 19.81H3.04492V22.86H4.57492V19.81Z" fill="currentColor"/>
<path d="M4.57492 9.14H3.04492V12.19H4.57492V9.14Z" fill="currentColor"/>
<path d="M3.0449 12.19H1.5249V19.81H3.0449V12.19Z" fill="currentColor"/>
</svg>
