<svg width="32" height="32" viewBox="0 0 32 32" fill="none" xmlns="http://www.w3.org/2000/svg">
<g clip-path="url(#clip0_1128_7777)">
<path d="M32 17.52H30.48V22.09H32V17.52Z" fill="currentColor"/>
<path d="M30.4799 22.09H28.95V25.14H30.4799V22.09Z" fill="currentColor"/>
<path d="M30.4799 16H28.95V17.52H30.4799V16Z" fill="currentColor"/>
<path d="M28.9501 12.95H27.4301V16H28.9501V12.95Z" fill="currentColor"/>
<path d="M28.95 25.14H25.9V26.66H28.95V25.14Z" fill="currentColor"/>
<path d="M27.43 9.90002H25.9V12.95H27.43V9.90002Z" fill="currentColor"/>
<path d="M25.9 22.09H24.38V23.62H25.9V22.09Z" fill="currentColor"/>
<path d="M25.9 16H24.38V17.52H22.86V19.04H24.38V20.57H25.9V19.04H27.43V17.52H25.9V16Z" fill="currentColor"/>
<path d="M25.9 8.38H24.38V9.9H25.9V8.38Z" fill="currentColor"/>
<path d="M25.9 26.66H6.08997V28.19H25.9V26.66Z" fill="currentColor"/>
<path d="M24.38 11.43H22.86V12.95H24.38V11.43Z" fill="currentColor"/>
<path d="M24.38 23.62H21.33V25.14H24.38V23.62Z" fill="currentColor"/>
<path d="M22.86 9.90002H18.28V11.43H22.86V9.90002Z" fill="currentColor"/>
<path d="M24.38 6.84998H21.33V8.37998H24.38V6.84998Z" fill="currentColor"/>
<path d="M19.81 17.52H18.28V19.04H19.81V17.52Z" fill="currentColor"/>
<path d="M21.33 5.33002H18.28V6.85002H21.33V5.33002Z" fill="currentColor"/>
<path d="M16.76 20.57H15.24V22.09H13.71V23.62H15.24V25.14H16.76V23.62H18.28V22.09H16.76V20.57Z" fill="currentColor"/>
<path d="M16.76 6.84998H15.24V8.37998H16.76V6.84998Z" fill="currentColor"/>
<path d="M18.28 3.81H13.71V5.33H18.28V3.81Z" fill="currentColor"/>
<path d="M13.7099 16H15.2399V14.47H16.7599V12.95H15.2399V11.43H13.7099V12.95H12.1899V14.47H13.7099V16Z" fill="currentColor"/>
<path d="M13.71 5.33002H10.67V6.85002H13.71V5.33002Z" fill="currentColor"/>
<path d="M12.19 20.57H10.67V22.09H12.19V20.57Z" fill="currentColor"/>
<path d="M10.67 11.43H7.62V12.95H10.67V11.43Z" fill="currentColor"/>
<path d="M10.67 6.84998H7.62V8.37998H10.67V6.84998Z" fill="currentColor"/>
<path d="M9.14 23.62H7.62V25.14H9.14V23.62Z" fill="currentColor"/>
<path d="M7.61995 17.52H6.08995V19.04H4.56995V20.57H6.08995V22.09H7.61995V20.57H9.13995V19.04H7.61995V17.52Z" fill="currentColor"/>
<path d="M7.61997 8.38H6.08997V9.9H7.61997V8.38Z" fill="currentColor"/>
<path d="M6.09005 25.14H3.05005V26.66H6.09005V25.14Z" fill="currentColor"/>
<path d="M6.08995 9.90002H4.56995V11.43H6.08995V9.90002Z" fill="currentColor"/>
<path d="M4.57005 11.43H3.05005V16H4.57005V11.43Z" fill="currentColor"/>
<path d="M3.05002 22.09H1.52002V25.14H3.05002V22.09Z" fill="currentColor"/>
<path d="M3.05002 16H1.52002V17.52H3.05002V16Z" fill="currentColor"/>
<path d="M1.52 17.52H0V22.09H1.52V17.52Z" fill="currentColor"/>
</g>
<defs>
<clipPath id="clip0_1128_7777">
<rect width="32" height="32" fill="white"/>
</clipPath>
</defs>
</svg>
