<svg width="32" height="32" viewBox="0 0 32 32" fill="none" xmlns="http://www.w3.org/2000/svg">
<g clip-path="url(#clip0_1135_2202)">
<path d="M30.48 1.53003V3.05003H25.91V4.57003H24.38V6.10003H22.86V9.15003H24.38V13.72H25.91V9.15003H27.43V7.62003H30.48V6.10003H32V1.53003H30.48Z" fill="currentColor"/>
<path d="M30.48 19.8101H28.95V25.9101H30.48V19.8101Z" fill="currentColor"/>
<path d="M28.95 25.91H27.43V27.43H28.95V25.91Z" fill="currentColor"/>
<path d="M28.95 16.76H27.43V19.81H28.95V16.76Z" fill="currentColor"/>
<path d="M27.43 27.4301H25.91V28.9601H27.43V27.4301Z" fill="currentColor"/>
<path d="M27.43 13.72H25.91V16.76H27.43V13.72Z" fill="currentColor"/>
<path d="M30.48 0H24.38V1.53H30.48V0Z" fill="currentColor"/>
<path d="M25.91 28.96H22.86V30.48H25.91V28.96Z" fill="currentColor"/>
<path d="M25.91 19.8101H21.34V21.3401H25.91V19.8101Z" fill="currentColor"/>
<path d="M24.38 1.53003H22.86V3.05003H24.38V1.53003Z" fill="currentColor"/>
<path d="M24.38 22.86H21.34V24.38H24.38V22.86Z" fill="currentColor"/>
<path d="M22.86 15.24H21.34V16.76H22.86V15.24Z" fill="currentColor"/>
<path d="M22.86 3.05005H21.34V4.57005H22.86V3.05005Z" fill="currentColor"/>
<path d="M22.86 30.48H9.15V32H22.86V30.48Z" fill="currentColor"/>
<path d="M21.34 4.56995H19.81V9.14995H21.34V4.56995Z" fill="currentColor"/>
<path d="M13.72 18.29V19.81H15.24V21.34H16.76V19.81H18.29V18.29H13.72Z" fill="currentColor"/>
<path d="M19.81 9.15002H12.19V10.67H19.81V9.15002Z" fill="currentColor"/>
<path d="M12.19 4.56995H10.67V9.14995H12.19V4.56995Z" fill="currentColor"/>
<path d="M10.67 15.24H9.15V16.76H10.67V15.24Z" fill="currentColor"/>
<path d="M10.67 3.05005H9.15V4.57005H10.67V3.05005Z" fill="currentColor"/>
<path d="M9.15 28.96H6.1V30.48H9.15V28.96Z" fill="currentColor"/>
<path d="M10.67 22.86H7.62V24.38H10.67V22.86Z" fill="currentColor"/>
<path d="M10.67 19.8101H6.1V21.3401H10.67V19.8101Z" fill="currentColor"/>
<path d="M9.15 1.53003H7.62V3.05003H9.15V1.53003Z" fill="currentColor"/>
<path d="M7.62 9.15003H9.15V6.10003H7.62V4.57003H6.1V3.05003H1.53V1.53003H0V6.10003H1.53V7.62003H4.57V9.15003H6.1V13.72H7.62V9.15003Z" fill="currentColor"/>
<path d="M6.1 27.4301H4.57V28.9601H6.1V27.4301Z" fill="currentColor"/>
<path d="M6.1 13.72H4.57V16.76H6.1V13.72Z" fill="currentColor"/>
<path d="M4.57 25.91H3.05V27.43H4.57V25.91Z" fill="currentColor"/>
<path d="M4.57 16.76H3.05V19.81H4.57V16.76Z" fill="currentColor"/>
<path d="M7.62 0H1.53V1.53H7.62V0Z" fill="currentColor"/>
<path d="M3.05 19.8101H1.53V25.9101H3.05V19.8101Z" fill="currentColor"/>
</g>
<defs>
<clipPath id="clip0_1135_2202">
<rect width="32" height="32" fill="white"/>
</clipPath>
</defs>
</svg>
