<svg width="32" height="32" viewBox="0 0 32 32" fill="none" xmlns="http://www.w3.org/2000/svg">
<g clip-path="url(#clip0_1128_8856)">
<path d="M31.235 25.15H29.715V28.19H31.235V25.15Z" fill="currentColor"/>
<path d="M29.715 28.19H28.185V29.72H29.715V28.19Z" fill="currentColor"/>
<path d="M29.715 23.62H26.665V25.15H29.715V23.62Z" fill="currentColor"/>
<path d="M28.185 29.72H25.145V31.24H28.185V29.72Z" fill="currentColor"/>
<path d="M26.665 22.1H25.145V23.62H26.665V22.1Z" fill="currentColor"/>
<path d="M25.145 26.67H23.615V29.72H25.145V26.67Z" fill="currentColor"/>
<path d="M23.615 20.57H22.095V22.1H25.145V12.95H23.615V20.57Z" fill="currentColor"/>
<path d="M23.615 25.15H22.095V26.67H23.615V25.15Z" fill="currentColor"/>
<path d="M23.615 8.38H22.095V12.95H23.615V8.38Z" fill="currentColor"/>
<path d="M20.575 22.1V23.62H12.955V25.15H22.095V22.1H20.575Z" fill="currentColor"/>
<path d="M22.095 6.85999H20.575V8.37999H22.095V6.85999Z" fill="currentColor"/>
<path d="M20.575 5.34003H19.045V6.86003H20.575V5.34003Z" fill="currentColor"/>
<path d="M19.045 3.81H17.525V5.34H19.045V3.81Z" fill="currentColor"/>
<path d="M17.525 2.29004H15.995V3.81004H17.525V2.29004Z" fill="currentColor"/>
<path d="M15.995 17.53H14.475V19.05H15.995V17.53Z" fill="currentColor"/>
<path d="M12.955 22.1H8.375V23.62H12.955V22.1Z" fill="currentColor"/>
<path d="M12.955 17.53H9.90503V19.05H12.955V17.53Z" fill="currentColor"/>
<path d="M9.905 16H8.375V17.53H9.905V16Z" fill="currentColor"/>
<path d="M8.37501 20.57H6.85501V22.1H8.37501V20.57Z" fill="currentColor"/>
<path d="M8.37501 14.48H6.85501V16H8.37501V14.48Z" fill="currentColor"/>
<path d="M15.995 0.76001H5.33502V2.29001H15.995V0.76001Z" fill="currentColor"/>
<path d="M6.85502 19.05H5.33502V20.57H6.85502V19.05Z" fill="currentColor"/>
<path d="M6.85502 12.95H5.33502V14.48H6.85502V12.95Z" fill="currentColor"/>
<path d="M5.33502 17.53H3.80502V19.05H5.33502V17.53Z" fill="currentColor"/>
<path d="M5.33502 9.91003H3.80502V12.95H5.33502V9.91003Z" fill="currentColor"/>
<path d="M5.33502 2.29004H3.80502V3.81004H5.33502V2.29004Z" fill="currentColor"/>
<path d="M3.805 16H2.285V17.53H3.805V16Z" fill="currentColor"/>
<path d="M3.805 3.81H2.285V5.34H3.805V3.81Z" fill="currentColor"/>
<path d="M2.28501 5.34003H0.765015V16H2.28501V5.34003Z" fill="currentColor"/>
</g>
<defs>
<clipPath id="clip0_1128_8856">
<rect width="32" height="32" fill="white"/>
</clipPath>
</defs>
</svg>
