<svg width="32" height="32" viewBox="0 0 32 32" fill="none" xmlns="http://www.w3.org/2000/svg">
<g clip-path="url(#clip0_1128_19827)">
<path d="M30.47 9.14H28.95V6.09H27.42V4.57H25.9V3.05H22.85V1.52H19.81V0H12.19V1.52H9.14V3.05H6.09V4.57H4.57V6.09H3.04V9.14H1.52V12.19H0V19.81H1.52V22.86H3.04V25.9H4.57V27.43H6.09V28.95H9.14V30.48H12.19V32H19.81V30.48H22.85V28.95H25.9V27.43H27.42V25.9H28.95V22.86H30.47V19.81H32V12.19H30.47V9.14ZM22.85 16.76H21.33V18.29H19.81V19.81H18.28V21.33H16.76V22.86H13.71V24.38H12.19V7.62H13.71V9.14H16.76V10.67H18.28V12.19H19.81V13.71H21.33V15.24H22.85V16.76Z" fill="currentColor"/>
</g>
<defs>
<clipPath id="clip0_1128_19827">
<rect width="32" height="32" fill="white"/>
</clipPath>
</defs>
</svg>
