<svg width="32" height="32" viewBox="0 0 32 32" fill="none" xmlns="http://www.w3.org/2000/svg">
<path d="M30.48 1.53H28.95V30.48H30.48V1.53Z" fill="currentColor"/>
<path d="M28.95 30.48H3.04999V32H28.95V30.48Z" fill="currentColor"/>
<path d="M27.43 27.43H25.91V28.96H27.43V27.43Z" fill="currentColor"/>
<path d="M25.91 21.34H24.38V22.86H22.86V24.38H21.33V25.91H27.43V19.81H25.91V21.34Z" fill="currentColor"/>
<path d="M27.43 3.05H25.91V4.57H27.43V3.05Z" fill="currentColor"/>
<path d="M25.91 9.15H24.38V16.76H25.91V9.15Z" fill="currentColor"/>
<path d="M24.38 16.76H22.86V19.81H24.38V16.76Z" fill="currentColor"/>
<path d="M24.38 6.1H22.86V9.15H24.38V6.1Z" fill="currentColor"/>
<path d="M22.86 19.81H19.81V21.34H22.86V19.81Z" fill="currentColor"/>
<path d="M22.86 10.67H21.33V13.72H22.86V10.67Z" fill="currentColor"/>
<path d="M22.86 4.57H19.81V6.1H22.86V4.57Z" fill="currentColor"/>
<path d="M21.33 9.15H19.81V10.67H21.33V9.15Z" fill="currentColor"/>
<path d="M19.81 7.62H16.76V9.15H19.81V7.62Z" fill="currentColor"/>
<path d="M19.81 3.05H12.19V4.57H19.81V3.05Z" fill="currentColor"/>
<path d="M19.81 21.34H12.19V22.86H19.81V21.34Z" fill="currentColor"/>
<path d="M18.29 12.19H16.76V13.72H18.29V12.19Z" fill="currentColor"/>
<path d="M16.76 13.72H15.24V15.24H16.76V13.72Z" fill="currentColor"/>
<path d="M16.76 10.67H15.24V12.19H16.76V10.67Z" fill="currentColor"/>
<path d="M15.24 12.19H13.71V13.72H15.24V12.19Z" fill="currentColor"/>
<path d="M13.71 16.76H12.19V18.29H13.71V16.76Z" fill="currentColor"/>
<path d="M12.19 18.29H10.67V19.81H12.19V18.29Z" fill="currentColor"/>
<path d="M10.67 19.81H9.13998V21.34H10.67V19.81Z" fill="currentColor"/>
<path d="M12.19 4.57H9.13998V6.1H12.19V4.57Z" fill="currentColor"/>
<path d="M10.67 22.86H9.13998V21.34H7.61998V22.86H4.56998V25.91H10.67V22.86Z" fill="currentColor"/>
<path d="M9.14 16.76H7.62V18.29H9.14V16.76Z" fill="currentColor"/>
<path d="M9.14 6.1H7.62V9.15H9.14V6.1Z" fill="currentColor"/>
<path d="M7.61998 9.15H6.09998V16.76H7.61998V9.15Z" fill="currentColor"/>
<path d="M6.09998 27.43H4.56998V28.96H6.09998V27.43Z" fill="currentColor"/>
<path d="M6.09998 3.05H4.56998V4.57H6.09998V3.05Z" fill="currentColor"/>
<path d="M28.95 0H3.04999V1.53H28.95V0Z" fill="currentColor"/>
<path d="M3.04999 1.53H1.51999V30.48H3.04999V1.53Z" fill="currentColor"/>
</svg>
