<svg width="32" height="32" viewBox="0 0 32 32" fill="none" xmlns="http://www.w3.org/2000/svg">
<path d="M28.945 7.625H27.425V6.1H25.905V4.575H24.375V3.045H21.325V1.525H16.755V15.235H30.475V10.665H28.945V7.625ZM27.425 12.195H25.905V9.145H24.375V7.625H22.855V6.1H24.375V7.63H25.905V9.15H27.425V12.195Z" fill="currentColor"/>
<path d="M25.905 21.335H24.375V24.385H25.905V21.335Z" fill="currentColor"/>
<path d="M13.715 18.285V4.575H10.665V6.095H12.185V19.815H25.905V21.335H27.425V18.285H13.715Z" fill="currentColor"/>
<path d="M24.375 24.385H22.855V25.905H24.375V24.385Z" fill="currentColor"/>
<path d="M22.8551 25.905H21.3251V27.425H22.8551V25.905Z" fill="currentColor"/>
<path d="M21.325 27.425H18.285V28.955H21.325V27.425Z" fill="currentColor"/>
<path d="M18.285 28.955H10.665V30.475H18.285V28.955Z" fill="currentColor"/>
<path d="M10.665 27.425H7.61499V28.955H10.665V27.425Z" fill="currentColor"/>
<path d="M10.665 6.095H7.61499V7.625H10.665V6.095Z" fill="currentColor"/>
<path d="M7.61497 25.905H6.09497V27.425H7.61497V25.905Z" fill="currentColor"/>
<path d="M7.61497 7.625H6.09497V9.145H7.61497V7.625Z" fill="currentColor"/>
<path d="M6.09506 24.385H4.56506V25.905H6.09506V24.385Z" fill="currentColor"/>
<path d="M6.09506 9.145H4.56506V10.665H6.09506V9.145Z" fill="currentColor"/>
<path d="M4.56504 21.335H3.04504V24.385H4.56504V21.335Z" fill="currentColor"/>
<path d="M4.56504 10.665H3.04504V13.715H4.56504V10.665Z" fill="currentColor"/>
<path d="M3.04502 13.715H1.52502V21.335H3.04502V13.715Z" fill="currentColor"/>
</svg>
