<svg width="32" height="32" viewBox="0 0 32 32" fill="none" xmlns="http://www.w3.org/2000/svg">
<g clip-path="url(#clip0_1128_12179)">
<path d="M32 28.955H0V30.475H32V28.955Z" fill="currentColor"/>
<path d="M24.38 1.525V3.045H22.85V25.905H24.38V27.425H28.95V25.905H30.47V3.045H28.95V1.525H24.38Z" fill="currentColor"/>
<path d="M16.76 22.855H15.24V24.375H16.76V22.855Z" fill="currentColor"/>
<path d="M16.76 18.285H15.24V19.805H16.76V18.285Z" fill="currentColor"/>
<path d="M16.76 13.715H15.24V15.235H16.76V13.715Z" fill="currentColor"/>
<path d="M16.76 9.145H15.24V10.665H16.76V9.145Z" fill="currentColor"/>
<path d="M16.76 9.145H18.28V12.185H16.76V13.715H18.28V16.765H16.76V18.285H18.28V21.335H16.76V22.855H18.28V25.905H19.81V7.615H18.28V6.095H13.71V7.615H16.76V9.145Z" fill="currentColor"/>
<path d="M18.2799 27.425V25.905H15.2399V24.375H13.7099V21.335H15.2399V19.805H13.7099V16.765H15.2399V15.235H13.7099V12.185H15.2399V10.665H13.7099V7.615H12.1899V25.905H13.7099V27.425H18.2799Z" fill="currentColor"/>
<path d="M9.14 16.765H7.62V25.905H9.14V16.765Z" fill="currentColor"/>
<path d="M7.62005 25.905H3.05005V27.425H7.62005V25.905Z" fill="currentColor"/>
<path d="M7.62005 15.235H3.05005V16.765H7.62005V15.235Z" fill="currentColor"/>
<path d="M3.05002 16.765H1.52002V25.905H3.05002V16.765Z" fill="currentColor"/>
</g>
<defs>
<clipPath id="clip0_1128_12179">
<rect width="32" height="32" fill="white"/>
</clipPath>
</defs>
</svg>
