<svg width="32" height="32" viewBox="0 0 32 32" fill="none" xmlns="http://www.w3.org/2000/svg">
<g clip-path="url(#clip0_1128_14733)">
<path d="M31.24 25.905H29.71V28.955H31.24V25.905Z" fill="currentColor"/>
<path d="M29.7101 22.855H28.1901V25.905H29.7101V22.855Z" fill="currentColor"/>
<path d="M29.71 28.955H2.28003V30.475H29.71V28.955Z" fill="currentColor"/>
<path d="M28.19 19.8051H26.67V22.8551H28.19V19.8051Z" fill="currentColor"/>
<path d="M26.67 16.765H25.14V19.805H26.67V16.765Z" fill="currentColor"/>
<path d="M25.14 13.715H23.62V16.765H25.14V13.715Z" fill="currentColor"/>
<path d="M23.62 10.665H22.09V13.715H23.62V10.665Z" fill="currentColor"/>
<path d="M22.0901 7.61505H20.5701V10.6651H22.0901V7.61505Z" fill="currentColor"/>
<path d="M20.57 4.57501H19.05V7.61501H20.57V4.57501Z" fill="currentColor"/>
<path d="M19.05 3.04504H17.52V4.57504H19.05V3.04504Z" fill="currentColor"/>
<path d="M14.47 25.9051H17.52V24.3851H19.05V21.3351H17.52V19.8051H14.47V21.3351H12.95V24.3851H14.47V25.9051Z" fill="currentColor"/>
<path d="M17.52 9.14502H14.47V18.285H17.52V9.14502Z" fill="currentColor"/>
<path d="M17.52 1.52502H14.47V3.04502H17.52V1.52502Z" fill="currentColor"/>
<path d="M14.47 3.04504H12.95V4.57504H14.47V3.04504Z" fill="currentColor"/>
<path d="M12.9501 4.57501H11.4301V7.61501H12.9501V4.57501Z" fill="currentColor"/>
<path d="M11.43 7.61505H9.90002V10.6651H11.43V7.61505Z" fill="currentColor"/>
<path d="M9.9 10.665H8.38V13.715H9.9V10.665Z" fill="currentColor"/>
<path d="M8.37999 13.715H6.85999V16.765H8.37999V13.715Z" fill="currentColor"/>
<path d="M6.85996 16.765H5.32996V19.805H6.85996V16.765Z" fill="currentColor"/>
<path d="M5.33006 19.8051H3.81006V22.8551H5.33006V19.8051Z" fill="currentColor"/>
<path d="M3.81003 22.855H2.28003V25.905H3.81003V22.855Z" fill="currentColor"/>
<path d="M2.28001 25.905H0.76001V28.955H2.28001V25.905Z" fill="currentColor"/>
</g>
<defs>
<clipPath id="clip0_1128_14733">
<rect width="32" height="32" fill="white"/>
</clipPath>
</defs>
</svg>
