<svg width="32" height="32" viewBox="0 0 32 32" fill="none" xmlns="http://www.w3.org/2000/svg">
<g clip-path="url(#clip0_1128_10910)">
<path d="M30.48 6.09H28.95V4.57H27.43V3.05H25.91V1.52H24.38V0H7.62V1.52H6.1V3.05H4.57V4.57H3.05V6.09H1.53V7.62H0V24.38H1.53V25.9H3.05V27.43H4.57V28.95H6.1V30.48H7.62V32H24.38V30.48H25.91V28.95H27.43V27.43H28.95V25.9H30.48V24.38H32V7.62H30.48V6.09ZM28.95 24.38H27.43V25.9H25.91V27.43H24.38V28.95H7.62V27.43H6.1V25.9H4.57V24.38H3.05V7.62H4.57V6.09H6.1V4.57H7.62V3.05H24.38V4.57H25.91V6.09H27.43V7.62H28.95V24.38Z" fill="currentColor"/>
<path d="M27.4299 7.62001H25.9099V6.09001H24.3799V4.57001H7.61995V6.09001H6.09995V7.62001H4.56995V24.38H6.09995V25.9H7.61995V27.43H24.3799V25.9H25.9099V24.38H27.4299V7.62001ZM22.8599 24.38H21.3399V25.9H12.1899V24.38H10.6699V21.33H9.14995V19.81H7.61995V18.28H6.09995V15.24H9.14995V16.76H10.6699V18.28H12.1899V7.62001H13.7199V16.76H15.2399V6.09001H16.7599V16.76H18.2899V7.62001H19.8099V16.76H21.3399V10.67H22.8599V24.38Z" fill="currentColor"/>
<path d="M19.81 21.33H18.29V22.86H19.81V21.33Z" fill="currentColor"/>
<path d="M19.81 18.28H18.29V19.81H19.81V18.28Z" fill="currentColor"/>
<path d="M18.29 22.86H15.24V24.38H18.29V22.86Z" fill="currentColor"/>
<path d="M15.24 21.33H13.72V22.86H15.24V21.33Z" fill="currentColor"/>
<path d="M15.24 18.28H13.72V19.81H15.24V18.28Z" fill="currentColor"/>
</g>
<defs>
<clipPath id="clip0_1128_10910">
<rect width="32" height="32" fill="white"/>
</clipPath>
</defs>
</svg>
