<svg width="32" height="32" viewBox="0 0 32 32" fill="none" xmlns="http://www.w3.org/2000/svg">
<g clip-path="url(#clip0_1128_8457)">
<path d="M32 6.09998H30.47V32H32V6.09998Z" fill="currentColor"/>
<path d="M30.4699 4.56995H28.95V6.09995H30.4699V4.56995Z" fill="currentColor"/>
<path d="M28.95 3.05005H27.42V4.57005H28.95V3.05005Z" fill="currentColor"/>
<path d="M27.42 1.52002H25.9V3.05002H27.42V1.52002Z" fill="currentColor"/>
<path d="M3.04002 0V6.1H4.57002V7.62H6.09002V21.33H4.57002V22.86H3.04002V24.38H1.52002V25.9H21.33V32H22.85V24.38H24.38V22.86H25.9V21.33H27.42V7.62H25.9V6.1H24.38V1.52H25.9V0H3.04002ZM10.66 1.52H22.85V4.57H10.66V1.52ZM7.61002 1.52H9.14002V4.57H7.61002V1.52ZM4.57002 4.57V1.52H6.09002V4.57H4.57002ZM9.14002 22.86H7.61002V24.38H6.09002V22.86H7.61002V21.33H9.14002V22.86ZM13.71 22.86H12.19V24.38H10.66V22.86H12.19V21.33H13.71V22.86ZM21.33 24.38H16.76V22.86H21.33V24.38ZM22.85 19.81H10.66V10.67H22.85V19.81ZM24.38 9.14H7.61002V7.62H24.38V9.14Z" fill="currentColor"/>
<path d="M21.33 15.24H19.8V16.76H21.33V15.24Z" fill="currentColor"/>
<path d="M19.8 12.1899H18.28V13.7099H19.8V12.1899Z" fill="currentColor"/>
<path d="M19.8 32V28.95H15.23V32H16.76V30.4799H18.28V32H19.8Z" fill="currentColor"/>
<path d="M19.8 16.76H13.71V18.29H19.8V16.76Z" fill="currentColor"/>
<path d="M15.23 12.1899H13.71V13.7099H15.23V12.1899Z" fill="currentColor"/>
<path d="M13.7099 15.24H12.1899V16.76H13.7099V15.24Z" fill="currentColor"/>
<path d="M1.52 25.9H0V32H1.52V25.9Z" fill="currentColor"/>
</g>
<defs>
<clipPath id="clip0_1128_8457">
<rect width="32" height="32" fill="white"/>
</clipPath>
</defs>
</svg>
