<svg width="32" height="32" viewBox="0 0 32 32" fill="none" xmlns="http://www.w3.org/2000/svg">
<path d="M27.4299 19.8101H25.9099V24.3801H27.4299V19.8101Z" fill="currentColor"/>
<path d="M25.91 24.38H24.38V27.43H25.91V24.38Z" fill="currentColor"/>
<path d="M25.91 16.77H24.38V19.81H25.91V16.77Z" fill="currentColor"/>
<path d="M24.38 27.4301H22.86V28.9601H24.38V27.4301Z" fill="currentColor"/>
<path d="M24.38 15.24H22.86V16.77H24.38V15.24Z" fill="currentColor"/>
<path d="M22.86 13.72H21.33V15.24H22.86V13.72Z" fill="currentColor"/>
<path d="M22.8599 28.96H19.8099V30.48H22.8599V28.96Z" fill="currentColor"/>
<path d="M21.3299 12.1899H19.8099V13.7199H21.3299V12.1899Z" fill="currentColor"/>
<path d="M19.8099 7.62H18.2899V9.14999H19.8099V7.62Z" fill="currentColor"/>
<path d="M19.8099 30.48H12.1899V32H19.8099V30.48Z" fill="currentColor"/>
<path d="M16.76 24.38H15.24V25.91H13.72V27.43H15.24V28.96H16.76V27.43H18.29V25.91H16.76V24.38Z" fill="currentColor"/>
<path d="M16.76 16.77H15.24V18.29H13.72V19.81H15.24V21.34H16.76V19.81H18.29V18.29H16.76V16.77Z" fill="currentColor"/>
<path d="M18.29 10.67H13.72V12.19H18.29V10.67Z" fill="currentColor"/>
<path d="M19.8099 4.57V6.1H21.3299V12.19H22.8599V7.62H24.3799V6.1H25.9099V3.05H24.3799V1.53H22.8599V0H19.8099V1.53H18.2899V3.05H12.1899V4.57H19.8099Z" fill="currentColor"/>
<path d="M13.7199 7.62H12.1899V9.14999H13.7199V7.62Z" fill="currentColor"/>
<path d="M12.1899 28.96H9.13989V30.48H12.1899V28.96Z" fill="currentColor"/>
<path d="M12.1899 12.1899H10.6699V13.7199H12.1899V12.1899Z" fill="currentColor"/>
<path d="M12.1899 4.56995H10.6699V6.09995H12.1899V4.56995Z" fill="currentColor"/>
<path d="M10.6699 13.72H9.13989V15.24H10.6699V13.72Z" fill="currentColor"/>
<path d="M10.6699 6.09998H9.13989V12.19H10.6699V6.09998Z" fill="currentColor"/>
<path d="M9.14 27.4301H7.62V28.9601H9.14V27.4301Z" fill="currentColor"/>
<path d="M9.14 15.24H7.62V16.77H9.14V15.24Z" fill="currentColor"/>
<path d="M7.61998 24.38H6.09998V27.43H7.61998V24.38Z" fill="currentColor"/>
<path d="M7.61998 16.77H6.09998V19.81H7.61998V16.77Z" fill="currentColor"/>
<path d="M6.09995 19.8101H4.56995V24.3801H6.09995V19.8101Z" fill="currentColor"/>
</svg>
