<svg width="32" height="32" viewBox="0 0 32 32" fill="none" xmlns="http://www.w3.org/2000/svg">
<g clip-path="url(#clip0_1135_4540)">
<path d="M32 1.52002H30.48V21.33H32V1.52002Z" fill="currentColor"/>
<path d="M1.53003 21.33V22.86H6.10003V25.9H7.62003V22.86H9.14003V25.9H10.67V22.86H21.33V25.9H22.86V22.86H24.38V25.9H25.91V22.86H30.48V21.33H1.53003Z" fill="currentColor"/>
<path d="M25.91 30.47H24.38V32H27.43V25.9H25.91V30.47Z" fill="currentColor"/>
<path d="M28.95 18.28H24.38V19.81H28.95V18.28Z" fill="currentColor"/>
<path d="M28.95 15.24H24.38V16.76H28.95V15.24Z" fill="currentColor"/>
<path d="M24.38 9.14001V13.71H28.95V9.14001H24.38ZM27.43 12.19H25.91V10.66H27.43V12.19Z" fill="currentColor"/>
<path d="M24.38 3.05005V7.62005H28.95V3.05005H24.38ZM27.43 6.09005H25.91V4.57005H27.43V6.09005Z" fill="currentColor"/>
<path d="M24.38 25.9H22.86V30.47H24.38V25.9Z" fill="currentColor"/>
<path d="M21.33 4.57005H19.81V3.05005H6.09999V4.57005H4.56999V6.09005H3.04999V16.76H4.56999V18.28H6.09999V19.81H19.81V18.28H21.33V16.76H22.86V6.09005H21.33V4.57005ZM21.33 10.66H19.81V9.14005H18.29V7.62005H16.76V9.14005H15.24V10.66H13.72V12.19H12.19V10.66H10.67V13.71H12.19V15.24H13.72V13.71H15.24V12.19H16.76V10.66H18.29V12.19H19.81V13.71H21.33V15.24H19.81V13.71H18.29V12.19H16.76V13.71H15.24V15.24H13.72V16.76H12.19V15.24H10.67V13.71H9.13999V10.66H7.61999V12.19H6.09999V13.71H4.56999V12.19H6.09999V10.66H7.61999V9.14005H9.13999V6.09005H7.61999V7.62005H6.09999V9.14005H4.56999V7.62005H6.09999V6.09005H7.61999V4.57005H9.13999V6.09005H10.67V9.14005H12.19V10.66H13.72V9.14005H15.24V7.62005H16.76V6.09005H18.29V7.62005H19.81V9.14005H21.33V10.66Z" fill="currentColor"/>
<path d="M10.67 9.14001H9.14001V10.66H10.67V9.14001Z" fill="currentColor"/>
<path d="M9.14 25.9H7.62V30.47H9.14V25.9Z" fill="currentColor"/>
<path d="M6.10001 25.9H4.57001V32H7.62001V30.47H6.10001V25.9Z" fill="currentColor"/>
<path d="M1.53 3.05H3.05V1.52H30.48V0H1.53V1.52H0V21.33H1.53V3.05Z" fill="currentColor"/>
</g>
<defs>
<clipPath id="clip0_1135_4540">
<rect width="32" height="32" fill="white"/>
</clipPath>
</defs>
</svg>
