<svg width="32" height="32" viewBox="0 0 32 32" fill="none" xmlns="http://www.w3.org/2000/svg">
<path d="M20.565 9.14H22.095V10.67H26.665V9.14H28.185V7.62H26.665V4.57H25.135V3.05H26.665V4.57H28.185V7.62H29.715V3.05H28.185V1.52H26.665V0H22.095V1.52H20.565V3.05H19.045V7.62H20.565V9.14Z" fill="currentColor"/>
<path d="M19.045 28.95H20.565V30.48H22.095V32H26.665V30.48H28.185V28.95H26.665V25.9H25.135V24.38H26.665V25.9H28.185V28.95H29.715V24.38H28.185V22.86H26.665V21.33H22.095V22.86H20.565V24.38H19.045V28.95Z" fill="currentColor"/>
<path d="M19.045 22.86H17.525V24.38H19.045V22.86Z" fill="currentColor"/>
<path d="M19.045 7.62H17.525V9.14H19.045V7.62Z" fill="currentColor"/>
<path d="M17.525 21.33H15.995V22.86H17.525V21.33Z" fill="currentColor"/>
<path d="M17.525 9.14H15.995V10.67H17.525V9.14Z" fill="currentColor"/>
<path d="M15.995 19.81H14.475V21.33H15.995V19.81Z" fill="currentColor"/>
<path d="M15.995 10.67H14.475V12.19H15.995V10.67Z" fill="currentColor"/>
<path d="M14.4751 18.29H12.9451V19.81H14.4751V18.29Z" fill="currentColor"/>
<path d="M14.4751 12.19H12.9451V13.71H14.4751V12.19Z" fill="currentColor"/>
<path d="M5.33503 10.67V12.19H3.80503V13.71H2.28503V18.29H3.80503V19.81H5.33503V21.33H9.90503V19.81H11.425V18.29H12.945V13.71H11.425V12.19H9.90503V10.67H5.33503Z" fill="currentColor"/>
</svg>
