<svg width="32" height="32" viewBox="0 0 32 32" fill="none" xmlns="http://www.w3.org/2000/svg">
<path d="M28.955 18.28H27.425V25.9H28.955V18.28Z" fill="currentColor"/>
<path d="M27.425 25.9H25.905V28.95H27.425V25.9Z" fill="currentColor"/>
<path d="M27.425 15.23H25.905V18.28H27.425V15.23Z" fill="currentColor"/>
<path d="M25.905 28.95H24.385V30.4699H25.905V28.95Z" fill="currentColor"/>
<path d="M25.905 13.71H24.385V15.23H25.905V13.71Z" fill="currentColor"/>
<path d="M24.3851 18.28H22.8551V19.81H24.3851V18.28Z" fill="currentColor"/>
<path d="M24.3851 12.1899H22.8551V13.7099H24.3851V12.1899Z" fill="currentColor"/>
<path d="M24.385 30.47H7.61499V32H24.385V30.47Z" fill="currentColor"/>
<path d="M22.8551 10.66H19.8051V12.19H22.8551V10.66Z" fill="currentColor"/>
<path d="M19.805 15.23H18.285V16.76H19.805V15.23Z" fill="currentColor"/>
<path d="M16.765 19.8101H15.235V21.3301H16.765V19.8101Z" fill="currentColor"/>
<path d="M13.7151 15.23H12.1951V16.76H13.7151V15.23Z" fill="currentColor"/>
<path d="M13.715 1.52H18.285V10.66H19.805V1.52H21.335V0H10.665V1.52H12.195V10.66H13.715V1.52Z" fill="currentColor"/>
<path d="M12.195 10.66H9.14502V12.19H12.195V10.66Z" fill="currentColor"/>
<path d="M10.665 18.28H9.14502V19.81H10.665V18.28Z" fill="currentColor"/>
<path d="M7.61509 27.42H9.14509V28.95H22.8551V27.42H24.3851V25.9H25.9051V22.85H24.3851V21.33H21.3351V22.85H19.8051V24.38H15.2351V22.85H12.1951V21.33H7.61509V22.85H6.09509V25.9H7.61509V27.42Z" fill="currentColor"/>
<path d="M9.14499 12.1899H7.61499V13.7099H9.14499V12.1899Z" fill="currentColor"/>
<path d="M7.61509 28.95H6.09509V30.4699H7.61509V28.95Z" fill="currentColor"/>
<path d="M7.61509 13.71H6.09509V15.23H7.61509V13.71Z" fill="currentColor"/>
<path d="M6.09507 25.9H4.57507V28.95H6.09507V25.9Z" fill="currentColor"/>
<path d="M6.09507 15.23H4.57507V18.28H6.09507V15.23Z" fill="currentColor"/>
<path d="M4.57504 18.28H3.04504V25.9H4.57504V18.28Z" fill="currentColor"/>
</svg>
