<svg width="32" height="32" viewBox="0 0 32 32" fill="none" xmlns="http://www.w3.org/2000/svg">
<g clip-path="url(#clip0_1135_2173)">
<path d="M28.95 19.8101H27.43V27.4301H28.95V19.8101Z" fill="currentColor"/>
<path d="M27.43 27.4301H25.91V28.9601H27.43V27.4301Z" fill="currentColor"/>
<path d="M27.43 16.76H25.91V19.81H27.43V16.76Z" fill="currentColor"/>
<path d="M25.91 3.05005H24.38V16.76H25.91V3.05005Z" fill="currentColor"/>
<path d="M25.91 28.96H22.86V30.48H25.91V28.96Z" fill="currentColor"/>
<path d="M24.38 1.53003H22.86V3.05003H24.38V1.53003Z" fill="currentColor"/>
<path d="M22.86 0H19.81V1.53H22.86V0Z" fill="currentColor"/>
<path d="M22.86 30.48H9.14996V32H22.86V30.48Z" fill="currentColor"/>
<path d="M21.34 18.29H19.81V19.81H21.34V18.29Z" fill="currentColor"/>
<path d="M22.86 4.56995H19.81V13.7199H22.86V4.56995Z" fill="currentColor"/>
<path d="M19.81 22.86H18.29V24.38H19.81V22.86Z" fill="currentColor"/>
<path d="M19.81 1.53003H18.29V3.05003H19.81V1.53003Z" fill="currentColor"/>
<path d="M18.29 3.05005H16.76V15.24H18.29V3.05005Z" fill="currentColor"/>
<path d="M18.29 24.38H15.24V25.91H18.29V24.38Z" fill="currentColor"/>
<path d="M15.24 22.8601H16.76V21.3401H18.29V19.8101H13.72V21.3401H15.24V22.8601Z" fill="currentColor"/>
<path d="M16.76 15.24H15.24V16.76H16.76V15.24Z" fill="currentColor"/>
<path d="M15.24 3.05005H13.72V15.24H15.24V3.05005Z" fill="currentColor"/>
<path d="M13.72 1.53003H12.19V3.05003H13.72V1.53003Z" fill="currentColor"/>
<path d="M12.19 18.29H10.67V19.81H12.19V18.29Z" fill="currentColor"/>
<path d="M12.19 0H9.14996V1.53H12.19V0Z" fill="currentColor"/>
<path d="M12.19 4.56995H9.14996V13.7199H12.19V4.56995Z" fill="currentColor"/>
<path d="M9.14998 28.96H6.09998V30.48H9.14998V28.96Z" fill="currentColor"/>
<path d="M9.14999 1.53003H7.62V3.05003H9.14999V1.53003Z" fill="currentColor"/>
<path d="M7.61998 3.05005H6.09998V16.76H7.61998V3.05005Z" fill="currentColor"/>
<path d="M6.10001 27.4301H4.57001V28.9601H6.10001V27.4301Z" fill="currentColor"/>
<path d="M6.10001 16.76H4.57001V19.81H6.10001V16.76Z" fill="currentColor"/>
<path d="M4.56999 19.8101H3.04999V27.4301H4.56999V19.8101Z" fill="currentColor"/>
</g>
<defs>
<clipPath id="clip0_1135_2173">
<rect width="32" height="32" fill="white"/>
</clipPath>
</defs>
</svg>
