<svg width="32" height="32" viewBox="0 0 32 32" fill="none" xmlns="http://www.w3.org/2000/svg">
<g clip-path="url(#clip0_1128_11525)">
<path d="M31.24 14.475H29.71V17.525H31.24V14.475Z" fill="currentColor"/>
<path d="M29.7101 17.525H28.1901V19.045H29.7101V17.525Z" fill="currentColor"/>
<path d="M29.7101 12.955H28.1901V14.475H29.7101V12.955Z" fill="currentColor"/>
<path d="M28.19 19.045H26.67V20.575H28.19V19.045Z" fill="currentColor"/>
<path d="M28.19 11.425H26.67V12.955H28.19V11.425Z" fill="currentColor"/>
<path d="M26.67 20.575H23.62V22.095H26.67V20.575Z" fill="currentColor"/>
<path d="M26.67 9.905H23.62V11.425H26.67V9.905Z" fill="currentColor"/>
<path d="M23.6201 22.095H20.5701V23.615H23.6201V22.095Z" fill="currentColor"/>
<path d="M22.0901 12.955H20.5701V19.045H22.0901V12.955Z" fill="currentColor"/>
<path d="M23.6201 8.38499H20.5701V9.90499H23.6201V8.38499Z" fill="currentColor"/>
<path d="M20.57 19.045H19.05V20.575H20.57V19.045Z" fill="currentColor"/>
<path d="M20.57 11.425H19.05V12.955H20.57V11.425Z" fill="currentColor"/>
<path d="M20.5701 23.615H11.4301V25.145H20.5701V23.615Z" fill="currentColor"/>
<path d="M19.05 20.575H12.95V22.095H19.05V20.575Z" fill="currentColor"/>
<path d="M17.52 12.955H14.48V14.475H12.95V17.525H14.48V19.045H17.52V17.525H19.05V14.475H17.52V12.955Z" fill="currentColor"/>
<path d="M19.05 9.905H12.95V11.425H19.05V9.905Z" fill="currentColor"/>
<path d="M20.5701 6.855H11.4301V8.385H20.5701V6.855Z" fill="currentColor"/>
<path d="M12.9501 19.045H11.4301V20.575H12.9501V19.045Z" fill="currentColor"/>
<path d="M12.9501 11.425H11.4301V12.955H12.9501V11.425Z" fill="currentColor"/>
<path d="M11.43 22.095H8.38V23.615H11.43V22.095Z" fill="currentColor"/>
<path d="M11.43 12.955H9.90002V19.045H11.43V12.955Z" fill="currentColor"/>
<path d="M11.43 8.38499H8.38V9.90499H11.43V8.38499Z" fill="currentColor"/>
<path d="M8.37996 20.575H5.32996V22.095H8.37996V20.575Z" fill="currentColor"/>
<path d="M8.37996 9.905H5.32996V11.425H8.37996V9.905Z" fill="currentColor"/>
<path d="M5.33006 19.045H3.81006V20.575H5.33006V19.045Z" fill="currentColor"/>
<path d="M5.33006 11.425H3.81006V12.955H5.33006V11.425Z" fill="currentColor"/>
<path d="M3.81004 17.525H2.29004V19.045H3.81004V17.525Z" fill="currentColor"/>
<path d="M3.81004 12.955H2.29004V14.475H3.81004V12.955Z" fill="currentColor"/>
<path d="M2.29001 14.475H0.76001V17.525H2.29001V14.475Z" fill="currentColor"/>
</g>
<defs>
<clipPath id="clip0_1128_11525">
<rect width="32" height="32" fill="white"/>
</clipPath>
</defs>
</svg>
