<svg width="32" height="32" viewBox="0 0 32 32" fill="none" xmlns="http://www.w3.org/2000/svg">
<g clip-path="url(#clip0_1135_1496)">
<path d="M30.47 9.91H28.95V8.38H27.43V6.86H19.81V8.38H18.28V9.91H16.76V16H3.04V14.48H1.52V16H0V28.19H1.52V20.57H7.62V29.72H3.04V31.24H28.95V29.72H24.38V20.57H30.47V28.19H32V16H30.47V9.91ZM19.81 11.43H21.33V9.91H22.85V8.38H24.38V9.91H25.9V11.43H21.33V12.95H25.9V14.48H27.43V16H25.9V14.48H21.33V12.95H19.81V11.43ZM1.52 19.05V17.53H12.19V19.05H1.52ZM22.85 29.72H9.14V20.57H12.19V22.1H13.71V17.53H15.24V20.57H16.76V17.53H18.28V22.1H19.81V20.57H22.85V29.72ZM30.47 19.05H19.81V17.53H30.47V19.05Z" fill="currentColor"/>
<path d="M30.47 28.19H28.95V29.72H30.47V28.19Z" fill="currentColor"/>
<path d="M30.47 2.28999H28.95V3.80999H30.47V2.28999Z" fill="currentColor"/>
<path d="M28.95 3.81H27.43V5.34H28.95V3.81Z" fill="currentColor"/>
<path d="M24.38 0.759995H22.85V5.33999H24.38V0.759995Z" fill="currentColor"/>
<path d="M19.81 3.81H18.28V5.34H19.81V3.81Z" fill="currentColor"/>
<path d="M18.28 2.28999H16.76V3.80999H18.28V2.28999Z" fill="currentColor"/>
<path d="M18.28 22.1H13.71V23.62H18.28V22.1Z" fill="currentColor"/>
<path d="M15.24 12.95H13.71V14.48H15.24V12.95Z" fill="currentColor"/>
<path d="M3.04002 12.95H4.57002V14.48H12.19V12.95H13.71V11.43H15.24V8.37999H18.28V6.85999H15.24V3.80999H13.71V2.28999H12.19V0.759995H4.57002V2.28999H3.04002V3.80999H1.52002V11.43H3.04002V12.95ZM4.57002 5.33999H6.09002V3.80999H7.62002V2.28999H9.14002V3.80999H10.66V5.33999H6.09002V6.85999H10.66V8.37999H12.19V9.90999H10.66V11.43H9.14002V12.95H7.62002V11.43H6.09002V9.90999H10.66V8.37999H6.09002V6.85999H4.57002V5.33999Z" fill="currentColor"/>
<path d="M3.04002 28.19H1.52002V29.72H3.04002V28.19Z" fill="currentColor"/>
<path d="M1.52 11.43H0V14.48H1.52V11.43Z" fill="currentColor"/>
</g>
<defs>
<clipPath id="clip0_1135_1496">
<rect width="32" height="32" fill="white"/>
</clipPath>
</defs>
</svg>
