<svg width="32" height="32" viewBox="0 0 32 32" fill="none" xmlns="http://www.w3.org/2000/svg">
<g clip-path="url(#clip0_1128_12247)">
<path d="M30.4699 15.24H16.7599V1.52H19.8099V0H12.1899V1.52H15.2399V16.76H13.7099V18.29H16.7599V19.81H18.2799V21.33H19.8099V22.86H21.3299V24.38H22.8499V25.9H24.3799V27.43H22.8499V28.95H25.8999V27.43H27.4299V25.9H28.9499V22.86H30.4699V19.81H31.9999V12.19H30.4699V15.24Z" fill="currentColor"/>
<path d="M30.4699 9.14H28.95V12.19H30.4699V9.14Z" fill="currentColor"/>
<path d="M28.9501 6.1H27.4301V9.14H28.9501V6.1Z" fill="currentColor"/>
<path d="M27.43 12.19H25.9V13.71H27.43V12.19Z" fill="currentColor"/>
<path d="M27.43 4.57H25.9V6.1H27.43V4.57Z" fill="currentColor"/>
<path d="M25.9 9.14H24.38V10.67H25.9V9.14Z" fill="currentColor"/>
<path d="M25.9 3.05H22.85V4.57H25.9V3.05Z" fill="currentColor"/>
<path d="M22.85 12.19H21.33V13.71H22.85V12.19Z" fill="currentColor"/>
<path d="M22.85 6.1H21.33V7.62H22.85V6.1Z" fill="currentColor"/>
<path d="M21.3301 27.43H19.8101V30.48H22.8501V28.95H21.3301V27.43Z" fill="currentColor"/>
<path d="M22.8501 1.52H19.8101V3.05H22.8501V1.52Z" fill="currentColor"/>
<path d="M19.81 25.9H18.28V27.43H19.81V25.9Z" fill="currentColor"/>
<path d="M19.81 9.14H18.28V10.67H19.81V9.14Z" fill="currentColor"/>
<path d="M19.81 4.57H18.28V6.1H19.81V4.57Z" fill="currentColor"/>
<path d="M16.7599 28.95H15.2399V30.48H12.1899V32H19.8099V30.48H16.7599V28.95Z" fill="currentColor"/>
<path d="M18.28 24.38H16.76V25.9H18.28V24.38Z" fill="currentColor"/>
<path d="M16.76 22.86H15.24V24.38H16.76V22.86Z" fill="currentColor"/>
<path d="M15.24 27.43H13.71V28.95H15.24V27.43Z" fill="currentColor"/>
<path d="M15.24 21.33H13.71V22.86H15.24V21.33Z" fill="currentColor"/>
<path d="M13.7099 25.9H12.1899V27.43H13.7099V25.9Z" fill="currentColor"/>
<path d="M12.19 19.81H10.66V21.33H13.71V18.29H12.19V19.81Z" fill="currentColor"/>
<path d="M12.19 28.95H9.14001V30.48H12.19V28.95Z" fill="currentColor"/>
<path d="M12.19 24.38H10.66V25.9H12.19V24.38Z" fill="currentColor"/>
<path d="M12.19 1.52H9.14001V3.05H12.19V1.52Z" fill="currentColor"/>
<path d="M9.14 22.86H7.62V24.38H10.66V21.33H9.14V22.86Z" fill="currentColor"/>
<path d="M9.13997 27.43H6.08997V28.95H9.13997V27.43Z" fill="currentColor"/>
<path d="M9.13997 3.05H6.08997V4.57H9.13997V3.05Z" fill="currentColor"/>
<path d="M7.61997 24.38H6.08997V25.9H7.61997V24.38Z" fill="currentColor"/>
<path d="M6.08995 25.9H4.56995V27.43H6.08995V25.9Z" fill="currentColor"/>
<path d="M6.08995 4.57H4.56995V6.1H6.08995V4.57Z" fill="currentColor"/>
<path d="M4.57005 22.86H3.05005V25.9H4.57005V22.86Z" fill="currentColor"/>
<path d="M4.57005 6.1H3.05005V9.14H4.57005V6.1Z" fill="currentColor"/>
<path d="M3.05002 19.81H1.52002V22.86H3.05002V19.81Z" fill="currentColor"/>
<path d="M3.05002 9.14H1.52002V12.19H3.05002V9.14Z" fill="currentColor"/>
<path d="M1.52 12.19H0V19.81H1.52V12.19Z" fill="currentColor"/>
</g>
<defs>
<clipPath id="clip0_1128_12247">
<rect width="32" height="32" fill="white"/>
</clipPath>
</defs>
</svg>
