<svg width="32" height="32" viewBox="0 0 32 32" fill="none" xmlns="http://www.w3.org/2000/svg">
<path d="M27.4299 7.62H25.9099V15.24H27.4299V7.62Z" fill="currentColor"/>
<path d="M25.91 15.24H24.38V18.28H25.91V15.24Z" fill="currentColor"/>
<path d="M25.91 4.57001H24.38V7.62001H25.91V4.57001Z" fill="currentColor"/>
<path d="M24.38 18.28H22.86V19.81H24.38V18.28Z" fill="currentColor"/>
<path d="M24.38 3.04999H22.86V4.56999H24.38V3.04999Z" fill="currentColor"/>
<path d="M22.8599 19.81H19.8099V21.33H22.8599V19.81Z" fill="currentColor"/>
<path d="M22.8599 1.52002H19.8099V3.05002H22.8599V1.52002Z" fill="currentColor"/>
<path d="M12.1899 21.33V22.86H15.2399V27.43H12.1899V28.95H15.2399V32H16.7599V28.95H19.8099V27.43H16.7599V22.86H19.8099V21.33H12.1899Z" fill="currentColor"/>
<path d="M19.8099 0H12.1899V1.52H19.8099V0Z" fill="currentColor"/>
<path d="M12.1899 19.81H9.1499V21.33H12.1899V19.81Z" fill="currentColor"/>
<path d="M12.1899 1.52002H9.1499V3.05002H12.1899V1.52002Z" fill="currentColor"/>
<path d="M9.14999 18.28H7.62V19.81H9.14999V18.28Z" fill="currentColor"/>
<path d="M9.14999 3.04999H7.62V4.56999H9.14999V3.04999Z" fill="currentColor"/>
<path d="M7.61998 15.24H6.09998V18.28H7.61998V15.24Z" fill="currentColor"/>
<path d="M7.61998 4.57001H6.09998V7.62001H7.61998V4.57001Z" fill="currentColor"/>
<path d="M6.09995 7.62H4.56995V15.24H6.09995V7.62Z" fill="currentColor"/>
</svg>
