<svg width="32" height="32" viewBox="0 0 32 32" fill="none" xmlns="http://www.w3.org/2000/svg">
<g clip-path="url(#clip0_1135_4908)">
<path d="M32 19.0551H30.47V25.1451H32V19.0551Z" fill="currentColor"/>
<path d="M32 11.4351H28.95V12.9551H32V11.4351Z" fill="currentColor"/>
<path d="M30.4699 25.145H28.95V26.675H30.4699V25.145Z" fill="currentColor"/>
<path d="M30.4699 17.525H28.95V19.055H30.4699V17.525Z" fill="currentColor"/>
<path d="M30.4699 3.81506H28.95V5.33506H30.4699V3.81506Z" fill="currentColor"/>
<path d="M28.9501 26.675H27.4301V28.195H28.9501V26.675Z" fill="currentColor"/>
<path d="M28.9501 16.005H27.4301V17.525H28.9501V16.005Z" fill="currentColor"/>
<path d="M28.9501 5.33508H27.4301V6.86508H28.9501V5.33508Z" fill="currentColor"/>
<path d="M27.43 28.1951H3.05005V29.7151H27.43V28.1951Z" fill="currentColor"/>
<path d="M22.8501 16.005H21.3301V17.525H22.8501V16.005Z" fill="currentColor"/>
<path d="M22.8501 2.28503H21.3301V5.33503H22.8501V2.28503Z" fill="currentColor"/>
<path d="M21.3301 17.525H19.8101V19.055H21.3301V17.525Z" fill="currentColor"/>
<path d="M16.76 5.33508H15.24V6.86508H16.76V5.33508Z" fill="currentColor"/>
<path d="M15.24 3.81506H13.71V5.33506H15.24V3.81506Z" fill="currentColor"/>
<path d="M13.7099 9.90499H18.2799V11.435H21.3299V12.955H22.8499V16.005H27.4299V9.90499H25.8999V8.38499H24.3799V6.86499H19.8099V8.38499H12.1899V9.90499H10.6599V11.435H13.7099V9.90499Z" fill="currentColor"/>
<path d="M12.1899 19.0551H10.6599V20.5751H12.1899V19.0551Z" fill="currentColor"/>
<path d="M10.6599 17.525H9.13989V19.055H10.6599V17.525Z" fill="currentColor"/>
<path d="M10.6599 11.4351H9.13989V12.9551H10.6599V11.4351Z" fill="currentColor"/>
<path d="M9.14005 17.5251V12.9551H7.62005V16.0051H3.05005V17.5251H9.14005Z" fill="currentColor"/>
<path d="M3.05002 26.675H1.52002V28.195H3.05002V26.675Z" fill="currentColor"/>
<path d="M3.05002 17.525H1.52002V19.055H3.05002V17.525Z" fill="currentColor"/>
<path d="M1.52 19.0551H0V26.6751H1.52V19.0551Z" fill="currentColor"/>
</g>
<defs>
<clipPath id="clip0_1135_4908">
<rect width="32" height="32" fill="white"/>
</clipPath>
</defs>
</svg>
