<svg width="32" height="32" viewBox="0 0 32 32" fill="none" xmlns="http://www.w3.org/2000/svg">
<g clip-path="url(#clip0_1128_12019)">
<path d="M32 12.19H30.48V19.81H32V12.19Z" fill="currentColor"/>
<path d="M30.4799 19.81H28.95V22.86H30.4799V19.81Z" fill="currentColor"/>
<path d="M30.4799 9.14H28.95V12.19H30.4799V9.14Z" fill="currentColor"/>
<path d="M28.9501 22.86H27.4301V25.9H28.9501V22.86Z" fill="currentColor"/>
<path d="M28.9501 6.09H27.4301V9.14H28.9501V6.09Z" fill="currentColor"/>
<path d="M27.43 25.9H25.9V27.43H27.43V25.9Z" fill="currentColor"/>
<path d="M27.43 4.57H25.9V6.09H27.43V4.57Z" fill="currentColor"/>
<path d="M25.9 27.43H22.86V28.95H25.9V27.43Z" fill="currentColor"/>
<path d="M25.9 3.05H22.86V4.57H25.9V3.05Z" fill="currentColor"/>
<path d="M22.8601 28.95H19.8101V30.48H22.8601V28.95Z" fill="currentColor"/>
<path d="M21.33 6.09H19.81V4.57H12.19V6.09H10.67V7.62H9.14001V12.19H12.19V9.14H13.71V7.62H16.76V9.14H18.29V12.19H16.76V13.71H15.24V15.24H13.71V18.29H18.29V16.76H19.81V15.24H21.33V13.71H22.86V7.62H21.33V6.09Z" fill="currentColor"/>
<path d="M22.8601 1.52H19.8101V3.05H22.8601V1.52Z" fill="currentColor"/>
<path d="M19.8099 30.48H12.1899V32H19.8099V30.48Z" fill="currentColor"/>
<path d="M18.2899 19.81H13.7099V21.33H12.1899V25.9H13.7099V27.43H18.2899V25.9H19.8099V21.33H18.2899V19.81Z" fill="currentColor"/>
<path d="M19.8099 0H12.1899V1.52H19.8099V0Z" fill="currentColor"/>
<path d="M12.19 28.95H9.14001V30.48H12.19V28.95Z" fill="currentColor"/>
<path d="M12.19 1.52H9.14001V3.05H12.19V1.52Z" fill="currentColor"/>
<path d="M9.13997 27.43H6.08997V28.95H9.13997V27.43Z" fill="currentColor"/>
<path d="M9.13997 3.05H6.08997V4.57H9.13997V3.05Z" fill="currentColor"/>
<path d="M6.08995 25.9H4.56995V27.43H6.08995V25.9Z" fill="currentColor"/>
<path d="M6.08995 4.57H4.56995V6.09H6.08995V4.57Z" fill="currentColor"/>
<path d="M4.57005 22.86H3.05005V25.9H4.57005V22.86Z" fill="currentColor"/>
<path d="M4.57005 6.09H3.05005V9.14H4.57005V6.09Z" fill="currentColor"/>
<path d="M3.05002 19.81H1.52002V22.86H3.05002V19.81Z" fill="currentColor"/>
<path d="M3.05002 9.14H1.52002V12.19H3.05002V9.14Z" fill="currentColor"/>
<path d="M1.52 12.19H0V19.81H1.52V12.19Z" fill="currentColor"/>
</g>
<defs>
<clipPath id="clip0_1128_12019">
<rect width="32" height="32" fill="white"/>
</clipPath>
</defs>
</svg>
