<svg width="32" height="32" viewBox="0 0 32 32" fill="none" xmlns="http://www.w3.org/2000/svg">
<g clip-path="url(#clip0_1128_19947)">
<path d="M30.47 1.52H28.95V0H3.04V1.52H1.52V3.05H0V28.95H1.52V30.48H3.04V32H28.95V30.48H30.47V28.95H32V3.05H30.47V1.52ZM27.42 22.86H25.9V24.38H21.33V25.9H18.28V27.43H13.71V25.9H10.66V24.38H6.09V22.86H4.57V21.33H7.61V19.81H9.14V16.76H7.61V15.24H6.09V12.19H9.14V13.71H10.66V7.62H12.19V6.09H13.71V4.57H18.28V6.09H19.81V7.62H21.33V13.71H22.85V12.19H25.9V15.24H24.38V16.76H22.85V19.81H24.38V21.33H27.42V22.86Z" fill="currentColor"/>
</g>
<defs>
<clipPath id="clip0_1128_19947">
<rect width="32" height="32" fill="white"/>
</clipPath>
</defs>
</svg>
