<svg width="32" height="32" viewBox="0 0 32 32" fill="none" xmlns="http://www.w3.org/2000/svg">
<g clip-path="url(#clip0_1128_6623)">
<path d="M28.96 13.72V9.14H27.43V10.67H24.39V7.62H25.91V6.1H22.86V3.05H21.34V0H4.58V1.52H1.53V13.72H0V32H32V13.72H28.96ZM22.86 7.62V12.19H27.43V13.72H15.24V7.62H22.86ZM3.05 3.05H4.58V13.72H3.05V3.05ZM9.15 18.29H7.62V19.81H4.58V18.29H3.05V16.76H9.15V18.29ZM9.15 13.72H6.1V1.52H19.81V3.05H9.15V13.72ZM10.67 4.57H21.34V6.1H13.72V13.72H10.67V4.57ZM30.48 30.48H12.2V15.24H30.48V30.48Z" fill="currentColor"/>
<path d="M28.9601 22.86H27.4301V24.38H28.9601V22.86Z" fill="currentColor"/>
<path d="M28.9601 27.43H19.8101V28.95H28.9601V27.43Z" fill="currentColor"/>
<path d="M27.43 7.62H25.91V9.14H27.43V7.62Z" fill="currentColor"/>
<path d="M25.91 24.38H22.86V25.91H25.91V24.38Z" fill="currentColor"/>
<path d="M21.3401 22.86H19.8101V24.38H21.3401V22.86Z" fill="currentColor"/>
</g>
<defs>
<clipPath id="clip0_1128_6623">
<rect width="32" height="32" fill="white"/>
</clipPath>
</defs>
</svg>
