<svg width="32" height="32" viewBox="0 0 32 32" fill="none" xmlns="http://www.w3.org/2000/svg">
<g clip-path="url(#clip0_1128_9144)">
<path d="M31.24 15.24H29.71V19.81H31.24V15.24Z" fill="currentColor"/>
<path d="M29.71 19.81H28.19V21.33H29.71V19.81Z" fill="currentColor"/>
<path d="M29.71 13.72H28.19V15.24H29.71V13.72Z" fill="currentColor"/>
<path d="M28.19 25.91H26.67V27.43H28.19V25.91Z" fill="currentColor"/>
<path d="M28.19 16.76H26.67V18.29H28.19V16.76Z" fill="currentColor"/>
<path d="M28.19 12.19H23.62V13.72H28.19V12.19Z" fill="currentColor"/>
<path d="M26.67 27.43H25.14V28.95H26.67V27.43Z" fill="currentColor"/>
<path d="M26.67 24.38H25.14V25.91H26.67V24.38Z" fill="currentColor"/>
<path d="M23.62 21.33V22.86H22.09V24.38H25.14V22.86H28.19V21.33H23.62Z" fill="currentColor"/>
<path d="M23.62 15.24V19.81H26.67V18.29H25.14V16.76H26.67V15.24H23.62Z" fill="currentColor"/>
<path d="M25.14 28.95H22.09V30.48H25.14V28.95Z" fill="currentColor"/>
<path d="M23.62 10.67H22.09V12.19H23.62V10.67Z" fill="currentColor"/>
<path d="M22.09 24.38H19.05V25.91H22.09V24.38Z" fill="currentColor"/>
<path d="M22.09 9.14001H17.52V10.67H22.09V9.14001Z" fill="currentColor"/>
<path d="M22.09 30.48H6.85999V32H22.09V30.48Z" fill="currentColor"/>
<path d="M8.37999 12.19V13.72H6.85999V15.24H8.37999V16.76H20.57V15.24H22.09V13.72H20.57V12.19H8.37999Z" fill="currentColor"/>
<path d="M20.57 1.52002H19.05V4.57002H20.57V1.52002Z" fill="currentColor"/>
<path d="M19.05 0H16V1.52H19.05V0Z" fill="currentColor"/>
<path d="M19.05 4.57001H17.52V6.10001H19.05V4.57001Z" fill="currentColor"/>
<path d="M16 1.52002H14.47V3.05002H16V1.52002Z" fill="currentColor"/>
<path d="M16 7.62H14.47V10.67H16V7.62Z" fill="currentColor"/>
<path d="M14.47 0H11.43V1.52H14.47V0Z" fill="currentColor"/>
<path d="M14.47 6.09998H12.95V7.61998H14.47V6.09998Z" fill="currentColor"/>
<path d="M12.95 4.57001H11.43V6.10001H12.95V4.57001Z" fill="currentColor"/>
<path d="M19.05 25.91H9.90002V27.43H19.05V25.91Z" fill="currentColor"/>
<path d="M11.43 1.52002H9.90002V4.57002H11.43V1.52002Z" fill="currentColor"/>
<path d="M12.95 9.14001H6.85999V10.67H12.95V9.14001Z" fill="currentColor"/>
<path d="M9.89998 24.38H6.85999V25.91H9.89998V24.38Z" fill="currentColor"/>
<path d="M6.86 28.95H3.81V30.48H6.86V28.95Z" fill="currentColor"/>
<path d="M6.86 21.33H5.33V22.86H3.81V24.38H6.86V21.33Z" fill="currentColor"/>
<path d="M6.86002 10.67H5.33002V12.19H6.86002V10.67Z" fill="currentColor"/>
<path d="M5.33 12.19H3.81V21.33H5.33V12.19Z" fill="currentColor"/>
<path d="M3.81003 27.43H2.28003V28.95H3.81003V27.43Z" fill="currentColor"/>
<path d="M3.81003 24.38H2.28003V25.91H3.81003V24.38Z" fill="currentColor"/>
<path d="M2.28001 25.91H0.76001V27.43H2.28001V25.91Z" fill="currentColor"/>
</g>
<defs>
<clipPath id="clip0_1128_9144">
<rect width="32" height="32" fill="white"/>
</clipPath>
</defs>
</svg>
