<svg width="32" height="32" viewBox="0 0 32 32" fill="none" xmlns="http://www.w3.org/2000/svg">
<g clip-path="url(#clip0_1128_14444)">
<path d="M32 12.195H30.47V18.285H32V12.195Z" fill="currentColor"/>
<path d="M30.4699 18.285H28.95V19.815H30.4699V18.285Z" fill="currentColor"/>
<path d="M30.4699 10.665H28.95V12.195H30.4699V10.665Z" fill="currentColor"/>
<path d="M28.9501 19.815H27.4301V21.335H28.9501V19.815Z" fill="currentColor"/>
<path d="M28.9501 9.14502H27.4301V10.665H28.9501V9.14502Z" fill="currentColor"/>
<path d="M24.38 7.62503V6.09503H22.85V9.14503H27.43V7.62503H24.38Z" fill="currentColor"/>
<path d="M27.43 21.335H21.33V22.855H27.43V21.335Z" fill="currentColor"/>
<path d="M22.85 9.14502H21.33V10.665H22.85V9.14502Z" fill="currentColor"/>
<path d="M22.85 4.57501H21.33V6.09501H22.85V4.57501Z" fill="currentColor"/>
<path d="M21.3301 10.665H19.8101V12.195H21.3301V10.665Z" fill="currentColor"/>
<path d="M21.33 3.04504H18.28V4.57504H21.33V3.04504Z" fill="currentColor"/>
<path d="M13.71 19.815V24.385H10.66V25.905H12.19V27.425H13.71V28.955H15.24V30.475H16.76V28.955H18.28V27.425H19.81V25.905H21.33V24.385H18.28V19.815H13.71Z" fill="currentColor"/>
<path d="M18.28 1.52502H13.71V3.04502H18.28V1.52502Z" fill="currentColor"/>
<path d="M12.19 12.195H10.66V13.715H12.19V12.195Z" fill="currentColor"/>
<path d="M13.71 3.04504H10.66V4.57504H13.71V3.04504Z" fill="currentColor"/>
<path d="M10.66 10.665H9.14001V12.195H10.66V10.665Z" fill="currentColor"/>
<path d="M10.66 4.57501H9.14001V6.09501H10.66V4.57501Z" fill="currentColor"/>
<path d="M7.62005 9.14503H3.05005V10.665H9.14005V6.09503H7.62005V9.14503Z" fill="currentColor"/>
<path d="M10.66 21.335H3.05005V22.855H10.66V21.335Z" fill="currentColor"/>
<path d="M3.05002 19.815H1.52002V21.335H3.05002V19.815Z" fill="currentColor"/>
<path d="M3.05002 10.665H1.52002V12.195H3.05002V10.665Z" fill="currentColor"/>
<path d="M1.52 12.195H0V19.815H1.52V12.195Z" fill="currentColor"/>
</g>
<defs>
<clipPath id="clip0_1128_14444">
<rect width="32" height="32" fill="white"/>
</clipPath>
</defs>
</svg>
