<svg width="32" height="32" viewBox="0 0 32 32" fill="none" xmlns="http://www.w3.org/2000/svg">
<g clip-path="url(#clip0_1128_6725)">
<path d="M22.855 9.14001H21.335V18.29H22.855V9.14001Z" fill="currentColor"/>
<path d="M12.2 3.05002V1.52002H10.67V3.05002H9.145V24.38H10.665V12.19H18.285V24.38H19.805V9.14002H21.335V7.62002H19.805V3.05002H18.285V1.52002H16.765V3.05002H12.2ZM18.29 4.57002V6.10002H10.67V4.57002H18.29Z" fill="currentColor"/>
<path d="M10.665 24.38V27.43H12.195V25.91H16.765V27.43H18.285V24.38H10.665Z" fill="currentColor"/>
<path d="M16.765 27.43H15.235V28.95H16.765V27.43Z" fill="currentColor"/>
<path d="M16.765 0H12.195V1.52H16.765V0Z" fill="currentColor"/>
<path d="M15.235 28.95H13.715V32H15.235V28.95Z" fill="currentColor"/>
<path d="M13.715 27.43H12.195V28.95H13.715V27.43Z" fill="currentColor"/>
</g>
<defs>
<clipPath id="clip0_1128_6725">
<rect width="32" height="32" fill="white"/>
</clipPath>
</defs>
</svg>
