<svg width="32" height="32" viewBox="0 0 32 32" fill="none" xmlns="http://www.w3.org/2000/svg">
<path d="M19.8099 26.67V28.19H22.8499V29.72H9.13995V28.19H12.1899V26.67H9.13995V23.62H7.61995V29.72H4.56995V31.24H27.4299V29.72H24.3799V23.62H22.8499V26.67H19.8099Z" fill="currentColor"/>
<path d="M22.85 20.57H21.33V23.62H22.85V20.57Z" fill="currentColor"/>
<path d="M22.85 8.37999H21.33V11.43H22.85V8.37999Z" fill="currentColor"/>
<path d="M21.3299 19.05H19.8099V20.57H21.3299V19.05Z" fill="currentColor"/>
<path d="M19.8099 17.53H18.2799V19.05H19.8099V17.53Z" fill="currentColor"/>
<path d="M19.8099 25.14H16.7599V26.67H19.8099V25.14Z" fill="currentColor"/>
<path d="M19.8099 14.48V12.95H21.3299V11.43H10.6599V12.95H12.1899V14.48H13.7099V17.53H15.2399V25.14H16.7599V17.53H18.2799V14.48H19.8099Z" fill="currentColor"/>
<path d="M15.2399 25.14H12.1899V26.67H15.2399V25.14Z" fill="currentColor"/>
<path d="M13.7099 17.53H12.1899V19.05H13.7099V17.53Z" fill="currentColor"/>
<path d="M12.1899 19.05H10.6599V20.57H12.1899V19.05Z" fill="currentColor"/>
<path d="M10.6599 20.57H9.13989V23.62H10.6599V20.57Z" fill="currentColor"/>
<path d="M10.6599 8.37999H9.13989V11.43H10.6599V8.37999Z" fill="currentColor"/>
<path d="M9.13995 2.28999H22.8499V8.37999H24.3799V2.28999H27.4299V0.759995H4.56995V2.28999H7.61995V8.37999H9.13995V2.28999Z" fill="currentColor"/>
</svg>
