<svg width="32" height="32" viewBox="0 0 32 32" fill="none" xmlns="http://www.w3.org/2000/svg">
<g clip-path="url(#clip0_1128_9877)">
<path d="M30.475 28.96H28.955V32H30.475V28.96Z" fill="currentColor"/>
<path d="M28.955 25.91H27.435V27.43H28.955V25.91Z" fill="currentColor"/>
<path d="M27.435 24.38H25.905V25.91H27.435V24.38Z" fill="currentColor"/>
<path d="M27.435 21.34H25.905V22.86H27.435V21.34Z" fill="currentColor"/>
<path d="M27.435 16.77H25.905V19.81H27.435V16.77Z" fill="currentColor"/>
<path d="M25.905 22.86H24.385V24.38H25.905V22.86Z" fill="currentColor"/>
<path d="M25.905 19.81H24.385V21.34H25.905V19.81Z" fill="currentColor"/>
<path d="M25.905 15.24H24.385V16.77H25.905V15.24Z" fill="currentColor"/>
<path d="M24.385 24.38H22.865V25.91H24.385V24.38Z" fill="currentColor"/>
<path d="M24.385 21.34H22.865V22.86H24.385V21.34Z" fill="currentColor"/>
<path d="M24.385 13.72H22.865V15.24H24.385V13.72Z" fill="currentColor"/>
<path d="M22.865 22.86H21.335V24.38H22.865V22.86Z" fill="currentColor"/>
<path d="M10.675 15.24H12.195V16.77H13.715V18.29H15.245V19.81H16.765V21.34H18.285V22.86H19.815V21.34H21.335V19.81H22.865V18.29H24.385V16.77H21.335V18.29H19.815V16.77H21.335V13.72H18.285V15.24H16.765V13.72H18.285V10.67H15.245V12.19H13.715V10.67H15.245V7.62H13.715V9.14999H12.195V10.67H10.675V12.19H9.145V13.72H10.675V15.24Z" fill="currentColor"/>
<path d="M22.865 12.19H21.335V13.72H22.865V12.19Z" fill="currentColor"/>
<path d="M21.335 10.67H19.815V12.19H21.335V10.67Z" fill="currentColor"/>
<path d="M21.335 24.38H18.285V25.91H21.335V24.38Z" fill="currentColor"/>
<path d="M19.815 9.15002H18.285V10.67H19.815V9.15002Z" fill="currentColor"/>
<path d="M18.285 22.86H16.765V24.38H18.285V22.86Z" fill="currentColor"/>
<path d="M18.285 7.62H16.765V9.14999H18.285V7.62Z" fill="currentColor"/>
<path d="M16.765 21.34H15.245V22.86H16.765V21.34Z" fill="currentColor"/>
<path d="M16.765 4.57001H15.245V7.62001H16.765V4.57001Z" fill="currentColor"/>
<path d="M15.245 19.81H13.715V21.34H15.245V19.81Z" fill="currentColor"/>
<path d="M15.245 3.04999H13.715V4.56999H15.245V3.04999Z" fill="currentColor"/>
<path d="M13.715 18.29H12.195V19.81H13.715V18.29Z" fill="currentColor"/>
<path d="M13.715 4.57001H12.195V6.10001H13.715V4.57001Z" fill="currentColor"/>
<path d="M12.195 16.77H10.675V18.29H12.195V16.77Z" fill="currentColor"/>
<path d="M10.675 15.24H9.145V16.77H10.675V15.24Z" fill="currentColor"/>
<path d="M9.145 13.72H6.095V15.24H9.145V13.72Z" fill="currentColor"/>
<path d="M4.575 4.57H3.055V6.1H1.525V9.15H4.575V7.62H7.625V10.67H9.145V9.15H10.675V7.62H12.195V6.1H9.145V3.05H10.675V0H7.625V1.53H6.095V3.05H4.575V4.57Z" fill="currentColor"/>
<path d="M7.625 10.67H6.095V12.19H7.625V10.67Z" fill="currentColor"/>
<path d="M6.095 12.19H4.575V13.72H6.095V12.19Z" fill="currentColor"/>
</g>
<defs>
<clipPath id="clip0_1128_9877">
<rect width="32" height="32" fill="white"/>
</clipPath>
</defs>
</svg>
