<svg width="32" height="32" viewBox="0 0 32 32" fill="none" xmlns="http://www.w3.org/2000/svg">
<g clip-path="url(#clip0_1135_1562)">
<path d="M32 4.57001H30.47V12.19H32V4.57001Z" fill="currentColor"/>
<path d="M30.47 12.19H28.95V13.71H30.47V12.19Z" fill="currentColor"/>
<path d="M30.47 3.05H28.95V4.57H30.47V3.05Z" fill="currentColor"/>
<path d="M27.43 27.43V22.86H30.47V21.33H28.95V19.81H27.43V18.29H25.9V19.81H24.38V21.33H22.85V22.86H25.9V27.43H27.43Z" fill="currentColor"/>
<path d="M28.95 13.71H27.43V15.24H28.95V13.71Z" fill="currentColor"/>
<path d="M28.95 1.52H27.43V3.05H28.95V1.52Z" fill="currentColor"/>
<path d="M27.43 9.14H25.9V10.67H27.43V9.14Z" fill="currentColor"/>
<path d="M25.9 27.43H24.38V28.95H25.9V27.43Z" fill="currentColor"/>
<path d="M27.43 15.24H19.81V16.76H27.43V15.24Z" fill="currentColor"/>
<path d="M25.9 7.62H21.33V9.14H25.9V7.62Z" fill="currentColor"/>
<path d="M21.33 10.67V12.19H22.85V13.71H24.38V12.19H25.9V10.67H21.33Z" fill="currentColor"/>
<path d="M25.9 6.1V4.57H24.38V3.05H22.85V4.57H21.33V6.1H25.9Z" fill="currentColor"/>
<path d="M24.38 28.95H18.28V30.48H24.38V28.95Z" fill="currentColor"/>
<path d="M27.43 0H19.81V1.52H27.43V0Z" fill="currentColor"/>
<path d="M21.33 6.10001H19.81V7.62001H21.33V6.10001Z" fill="currentColor"/>
<path d="M19.81 13.71H18.28V15.24H19.81V13.71Z" fill="currentColor"/>
<path d="M19.81 1.52H18.28V3.05H19.81V1.52Z" fill="currentColor"/>
<path d="M18.28 12.19H16.76V13.71H18.28V12.19Z" fill="currentColor"/>
<path d="M18.28 3.05H16.76V4.57H18.28V3.05Z" fill="currentColor"/>
<path d="M16.76 19.81H15.24V27.43H16.76V19.81Z" fill="currentColor"/>
<path d="M16.76 4.57001H15.24V12.19H16.76V4.57001Z" fill="currentColor"/>
<path d="M15.24 27.43H13.71V28.95H15.24V27.43Z" fill="currentColor"/>
<path d="M15.24 18.29H13.71V19.81H15.24V18.29Z" fill="currentColor"/>
<path d="M13.71 28.95H12.19V30.48H13.71V28.95Z" fill="currentColor"/>
<path d="M13.71 16.76H12.19V18.29H13.71V16.76Z" fill="currentColor"/>
<path d="M12.19 30.48H4.57V32H12.19V30.48Z" fill="currentColor"/>
<path d="M13.71 1.52H7.62V3.05H13.71V1.52Z" fill="currentColor"/>
<path d="M10.66 27.43H7.62V28.95H10.66V27.43Z" fill="currentColor"/>
<path d="M10.66 18.29H7.62V19.81H10.66V18.29Z" fill="currentColor"/>
<path d="M6.09 27.43H7.62V25.91H9.14V24.38H6.09V22.86H10.66V21.33H7.62V19.81H6.09V21.33H3.04V22.86H4.57V24.38H3.04V25.91H6.09V27.43Z" fill="currentColor"/>
<path d="M12.19 15.24H4.57V16.76H12.19V15.24Z" fill="currentColor"/>
<path d="M7.62 3.05H6.09V4.57H7.62V3.05Z" fill="currentColor"/>
<path d="M4.57 28.95H3.04V30.48H4.57V28.95Z" fill="currentColor"/>
<path d="M4.57 16.76H3.04V18.29H4.57V16.76Z" fill="currentColor"/>
<path d="M3.04 12.19H4.57V13.71H6.09V12.19H7.62V10.67H9.14V9.14001H6.09V4.57001H4.57V9.14001H1.52V10.67H3.04V12.19Z" fill="currentColor"/>
<path d="M3.04 27.43H1.52V28.95H3.04V27.43Z" fill="currentColor"/>
<path d="M3.04 18.29H1.52V19.81H3.04V18.29Z" fill="currentColor"/>
<path d="M1.52 19.81H0V27.43H1.52V19.81Z" fill="currentColor"/>
</g>
<defs>
<clipPath id="clip0_1135_1562">
<rect width="32" height="32" fill="white"/>
</clipPath>
</defs>
</svg>
