<svg width="32" height="32" viewBox="0 0 32 32" fill="none" xmlns="http://www.w3.org/2000/svg">
<path d="M27.43 6.09H22.86V1.52H24.38V0H3.04999V32H28.95V4.57H27.43V6.09ZM27.43 30.48H4.56999V1.52H21.33V7.62H27.43V30.48Z" fill="currentColor"/>
<path d="M27.43 3.04999H25.91V4.56999H27.43V3.04999Z" fill="currentColor"/>
<path d="M25.91 1.51999H24.38V3.04999H25.91V1.51999Z" fill="currentColor"/>
<path d="M21.33 22.86H19.81V13.71H16.76V22.86H15.24V16.76H12.19V22.86H7.61998V19.81H9.13998V18.29H7.61998V15.24H9.13998V13.71H7.61998V10.67H6.09998V24.38H25.91V22.86H24.38V15.24H21.33V22.86Z" fill="currentColor"/>
</svg>
