<svg width="32" height="32" viewBox="0 0 32 32" fill="none" xmlns="http://www.w3.org/2000/svg">
<g clip-path="url(#clip0_1128_14241)">
<path d="M31.235 9.14502H29.715V12.185H31.235V9.14502Z" fill="currentColor"/>
<path d="M29.715 7.61499H26.665V9.14499H29.715V7.61499Z" fill="currentColor"/>
<path d="M26.665 18.285H28.195V13.715H29.715V12.185H26.665V9.14502H25.145V13.715H26.665V18.285Z" fill="currentColor"/>
<path d="M25.145 19.805H23.615V21.335H25.145V22.855H6.85496V21.335H8.38496V19.805H6.85496V18.285H5.33496V25.905H6.85496V27.425H25.145V25.905H26.665V18.285H25.145V19.805Z" fill="currentColor"/>
<path d="M25.145 13.715H23.615V15.235H25.145V13.715Z" fill="currentColor"/>
<path d="M23.615 15.235H22.095V16.765H23.615V15.235Z" fill="currentColor"/>
<path d="M22.0951 16.765H20.5751V18.285H22.0951V16.765Z" fill="currentColor"/>
<path d="M22.095 19.805H19.045V21.335H22.095V19.805Z" fill="currentColor"/>
<path d="M20.575 13.715H19.045V16.765H20.575V13.715Z" fill="currentColor"/>
<path d="M19.045 10.665H17.525V13.715H19.045V10.665Z" fill="currentColor"/>
<path d="M19.045 6.09503H17.525V9.14503H19.045V6.09503Z" fill="currentColor"/>
<path d="M17.525 9.14502H14.475V10.665H17.525V9.14502Z" fill="currentColor"/>
<path d="M17.525 4.57501H14.475V6.09501H17.525V4.57501Z" fill="currentColor"/>
<path d="M17.525 18.285H14.475V21.335H17.525V18.285Z" fill="currentColor"/>
<path d="M14.475 10.665H12.955V13.715H14.475V10.665Z" fill="currentColor"/>
<path d="M14.475 6.09503H12.955V9.14503H14.475V6.09503Z" fill="currentColor"/>
<path d="M12.955 13.715H11.425V16.765H12.955V13.715Z" fill="currentColor"/>
<path d="M12.955 19.805H9.90503V21.335H12.955V19.805Z" fill="currentColor"/>
<path d="M11.425 16.765H9.90503V18.285H11.425V16.765Z" fill="currentColor"/>
<path d="M9.90501 15.235H8.38501V16.765H9.90501V15.235Z" fill="currentColor"/>
<path d="M8.38498 13.715H6.85498V15.235H8.38498V13.715Z" fill="currentColor"/>
<path d="M2.28503 12.185V13.715H3.81503V18.285H5.33503V13.715H6.85503V9.14502H5.33503V12.185H2.28503Z" fill="currentColor"/>
<path d="M5.33503 7.61499H2.28503V9.14499H5.33503V7.61499Z" fill="currentColor"/>
<path d="M2.28501 9.14502H0.765015V12.185H2.28501V9.14502Z" fill="currentColor"/>
</g>
<defs>
<clipPath id="clip0_1128_14241">
<rect width="32" height="32" fill="white"/>
</clipPath>
</defs>
</svg>
