<svg width="32" height="32" viewBox="0 0 32 32" fill="none" xmlns="http://www.w3.org/2000/svg">
<g clip-path="url(#clip0_1128_14566)">
<path d="M2.29001 9.13999H29.71V30.48H31.24V4.56999H29.71V3.04999H25.14V6.09999H23.62V3.04999H8.38001V6.09999H6.86001V3.04999H2.29001V4.56999H0.76001V30.48H2.29001V9.13999Z" fill="currentColor"/>
<path d="M29.71 30.48H2.29004V32H29.71V30.48Z" fill="currentColor"/>
<path d="M25.14 0H23.62V3.05H25.14V0Z" fill="currentColor"/>
<path d="M17.52 15.24V21.33H22.09V24.38H17.52V25.9H23.62V19.81H19.05V16.76H23.62V15.24H17.52Z" fill="currentColor"/>
<path d="M12.95 15.24H11.43V16.76H8.38V18.29H11.43V24.38H8.38V25.9H16V24.38H12.95V15.24Z" fill="currentColor"/>
<path d="M8.37999 0H6.85999V3.05H8.37999V0Z" fill="currentColor"/>
</g>
<defs>
<clipPath id="clip0_1128_14566">
<rect width="32" height="32" fill="white"/>
</clipPath>
</defs>
</svg>
