<svg width="32" height="32" viewBox="0 0 32 32" fill="none" xmlns="http://www.w3.org/2000/svg">
<g clip-path="url(#clip0_1135_2699)">
<path d="M32 3.04999H30.48V28.95H32V3.04999Z" fill="currentColor"/>
<path d="M30.4799 28.95H28.95V30.47H30.4799V28.95Z" fill="currentColor"/>
<path d="M28.9501 19.81H27.4301V24.38H28.9501V19.81Z" fill="currentColor"/>
<path d="M28.9501 30.47H3.05005V32H28.9501V30.47Z" fill="currentColor"/>
<path d="M27.43 18.28H25.9V19.81H27.43V18.28Z" fill="currentColor"/>
<path d="M25.9 21.33H24.38V24.38H25.9V21.33Z" fill="currentColor"/>
<path d="M25.9 16.76H24.38V18.28H25.9V16.76Z" fill="currentColor"/>
<path d="M24.38 19.81H22.86V21.33H24.38V19.81Z" fill="currentColor"/>
<path d="M24.38 15.24H21.33V16.76H24.38V15.24Z" fill="currentColor"/>
<path d="M22.86 22.85H21.33V24.38H22.86V22.85Z" fill="currentColor"/>
<path d="M22.8601 18.28H19.8101V19.81H22.8601V18.28Z" fill="currentColor"/>
<path d="M21.3301 21.33H19.8101V22.85H21.3301V21.33Z" fill="currentColor"/>
<path d="M18.28 19.81H16.76V25.9H18.28V19.81Z" fill="currentColor"/>
<path d="M18.28 6.09003H16.76V10.66H18.28V6.09003Z" fill="currentColor"/>
<path d="M16.76 25.9H15.24V27.43H16.76V25.9Z" fill="currentColor"/>
<path d="M16.76 18.28H15.24V19.81H16.76V18.28Z" fill="currentColor"/>
<path d="M16.76 4.57001H15.24V6.09001H16.76V4.57001Z" fill="currentColor"/>
<path d="M15.2399 12.19H12.1899V13.71H15.2399V12.19Z" fill="currentColor"/>
<path d="M15.24 27.43H9.14001V28.95H15.24V27.43Z" fill="currentColor"/>
<path d="M12.1899 25.9H13.7099V24.38H15.2399V21.33H12.1899V25.9Z" fill="currentColor"/>
<path d="M13.7099 6.09003H12.1899V10.66H15.2399V7.62003H13.7099V6.09003Z" fill="currentColor"/>
<path d="M12.19 13.71H10.67V16.76H12.19V13.71Z" fill="currentColor"/>
<path d="M15.24 3.04999H9.14001V4.56999H15.24V3.04999Z" fill="currentColor"/>
<path d="M9.14 25.9H7.62V27.43H9.14V25.9Z" fill="currentColor"/>
<path d="M9.14 4.57001H7.62V6.09001H9.14V4.57001Z" fill="currentColor"/>
<path d="M7.61997 6.09003H6.08997V9.14003H7.61997V6.09003Z" fill="currentColor"/>
<path d="M6.08995 9.14001H4.56995V22.85H6.08995V9.14001Z" fill="currentColor"/>
<path d="M4.57 28.95V27.43H6.09V25.9H7.62V24.38H9.14V22.85H10.67V21.33H12.19V19.81H13.71V18.28H15.24V16.76H16.76V15.24H18.28V13.71H19.81V12.19H21.33V10.66H22.86V9.14H24.38V7.62H25.9V6.09H27.43V4.57H28.95V3.05H30.48V1.52H28.95V0H3.05V1.52H27.43V3.05H25.9V4.57H24.38V6.09H22.86V7.62H21.33V9.14H19.81V10.66H18.28V12.19H16.76V13.71H15.24V15.24H13.71V16.76H12.19V18.28H10.67V19.81H9.14V21.33H7.62V22.85H6.09V24.38H4.57V25.9H3.05V27.43H1.52V3.05H0V28.95H1.52V30.47H3.05V28.95H4.57Z" fill="currentColor"/>
<path d="M3.05002 1.52002H1.52002V3.05002H3.05002V1.52002Z" fill="currentColor"/>
</g>
<defs>
<clipPath id="clip0_1135_2699">
<rect width="32" height="32" fill="white"/>
</clipPath>
</defs>
</svg>
