<svg width="32" height="32" viewBox="0 0 32 32" fill="none" xmlns="http://www.w3.org/2000/svg">
<g clip-path="url(#clip0_1128_6070)">
<path d="M28.96 9.90999V8.37999H27.43V11.43H30.48V16H27.43V19.05H28.96V17.53H32V9.90999H28.96Z" fill="currentColor"/>
<path d="M27.43 19.05H25.91V20.57H27.43V19.05Z" fill="currentColor"/>
<path d="M27.43 6.86H25.91V8.38H27.43V6.86Z" fill="currentColor"/>
<path d="M25.91 5.34H22.86V6.86H25.91V5.34Z" fill="currentColor"/>
<path d="M25.91 20.57H16.77V22.1H25.91V20.57Z" fill="currentColor"/>
<path d="M15.24 26.67V19.05H18.29V17.53H19.81V16H21.34V8.37999H19.81V2.28999H18.29V8.37999H16.77V2.28999H15.24V8.37999H13.72V2.28999H12.2V8.37999H10.67V2.28999H9.14999V8.37999H7.62V16H9.14999V17.53H10.67V19.05H13.72V26.67H15.24ZM16.77 11.43H18.29V12.95H16.77V11.43ZM10.67 11.43H12.2V12.95H10.67V11.43ZM12.2 17.53V16H10.67V14.48H12.2V16H16.77V14.48H18.29V16H16.77V17.53H12.2Z" fill="currentColor"/>
<path d="M18.29 0.759995H16.77V2.28999H18.29V0.759995Z" fill="currentColor"/>
<path d="M13.72 26.67H10.67V28.19H13.72V26.67Z" fill="currentColor"/>
<path d="M12.2 0.759995H10.67V2.28999H12.2V0.759995Z" fill="currentColor"/>
<path d="M10.67 28.19H9.14999V29.72H10.67V28.19Z" fill="currentColor"/>
<path d="M9.14999 29.72H7.62V31.24H9.14999V29.72Z" fill="currentColor"/>
<path d="M10.67 20.57H1.53V22.1H10.67V20.57Z" fill="currentColor"/>
<path d="M6.1 5.34H1.53V6.86H6.1V5.34Z" fill="currentColor"/>
<path d="M1.53 6.86H0V20.57H1.53V6.86Z" fill="currentColor"/>
</g>
<defs>
<clipPath id="clip0_1128_6070">
<rect width="32" height="32" fill="white"/>
</clipPath>
</defs>
</svg>
