<svg width="32" height="32" viewBox="0 0 32 32" fill="none" xmlns="http://www.w3.org/2000/svg">
<g clip-path="url(#clip0_1128_6766)">
<path d="M31.235 8.38H29.715V9.9H31.235V8.38Z" fill="currentColor"/>
<path d="M29.715 9.90002H26.665V11.43H29.715V9.90002Z" fill="currentColor"/>
<path d="M29.715 6.85999H26.665V8.37999H29.715V6.85999Z" fill="currentColor"/>
<path d="M23.615 23.62V25.14H20.575V26.67H17.525V28.19H14.475V26.67H11.425V25.14H8.38502V23.62H5.33501V22.09H0.765015V23.62H2.28501V25.14H5.33501V26.67H8.38502V28.19H11.425V29.71H14.475V31.24H17.525V29.71H20.575V28.19H23.615V26.67H26.665V25.14H29.715V23.62H31.235V22.09H26.665V23.62H23.615Z" fill="currentColor"/>
<path d="M23.615 19.05V20.57H20.575V22.09H17.525V23.62H14.475V22.09H11.425V20.57H8.38502V19.05H5.33501V17.52H0.765015V19.05H2.28501V20.57H5.33501V22.09H8.38502V23.62H11.425V25.14H14.475V26.67H17.525V25.14H20.575V23.62H23.615V22.09H26.665V20.57H29.715V19.05H31.235V17.52H26.665V19.05H23.615Z" fill="currentColor"/>
<path d="M23.615 14.48V16H20.575V17.52H17.525V19.05H14.475V17.52H11.425V16H8.38502V14.48H5.33501V12.95H0.765015V14.48H2.28501V16H5.33501V17.52H8.38502V19.05H11.425V20.57H14.475V22.09H17.525V20.57H20.575V19.05H23.615V17.52H26.665V16H29.715V14.48H31.235V12.95H26.665V14.48H23.615Z" fill="currentColor"/>
<path d="M26.665 11.43H23.615V12.95H26.665V11.43Z" fill="currentColor"/>
<path d="M26.665 5.33002H23.615V6.86002H26.665V5.33002Z" fill="currentColor"/>
<path d="M23.615 12.95H20.575V14.48H23.615V12.95Z" fill="currentColor"/>
<path d="M23.615 3.81H20.575V5.33H23.615V3.81Z" fill="currentColor"/>
<path d="M20.575 14.48H17.525V16H20.575V14.48Z" fill="currentColor"/>
<path d="M20.575 2.29004H17.525V3.81004H20.575V2.29004Z" fill="currentColor"/>
<path d="M17.525 16H14.475V17.52H17.525V16Z" fill="currentColor"/>
<path d="M17.525 0.76001H14.475V2.29001H17.525V0.76001Z" fill="currentColor"/>
<path d="M14.475 14.48H11.425V16H14.475V14.48Z" fill="currentColor"/>
<path d="M14.475 2.29004H11.425V3.81004H14.475V2.29004Z" fill="currentColor"/>
<path d="M11.425 12.95H8.38501V14.48H11.425V12.95Z" fill="currentColor"/>
<path d="M11.425 3.81H8.38501V5.33H11.425V3.81Z" fill="currentColor"/>
<path d="M8.38502 11.43H5.33502V12.95H8.38502V11.43Z" fill="currentColor"/>
<path d="M8.38502 5.33002H5.33502V6.86002H8.38502V5.33002Z" fill="currentColor"/>
<path d="M5.335 9.90002H2.285V11.43H5.335V9.90002Z" fill="currentColor"/>
<path d="M5.335 6.85999H2.285V8.37999H5.335V6.85999Z" fill="currentColor"/>
<path d="M2.28501 8.38H0.765015V9.9H2.28501V8.38Z" fill="currentColor"/>
</g>
<defs>
<clipPath id="clip0_1128_6766">
<rect width="32" height="32" fill="white"/>
</clipPath>
</defs>
</svg>
