<svg width="32" height="32" viewBox="0 0 32 32" fill="none" xmlns="http://www.w3.org/2000/svg">
<g clip-path="url(#clip0_1128_14728)">
<path d="M30.48 9.14H28.95V6.09H27.43V4.57H25.9V3.05H22.86V1.52H19.81V0H12.19V1.52H9.14V3.05H6.09V4.57H4.57V6.09H3.05V9.14H1.52V12.19H0V19.81H1.52V22.86H3.05V25.9H4.57V27.43H6.09V28.95H9.14V30.48H12.19V32H19.81V30.48H22.86V28.95H25.9V27.43H27.43V25.9H28.95V22.86H30.48V19.81H32V12.19H30.48V9.14ZM19.81 25.9H18.29V27.43H13.71V25.9H12.19V21.33H13.71V19.81H18.29V21.33H19.81V25.9ZM21.33 13.71H19.81V16.76H18.29V18.29H13.71V16.76H12.19V13.71H10.67V6.09H12.19V4.57H19.81V6.09H21.33V13.71Z" fill="currentColor"/>
<path d="M19.81 7.62H18.29V12.19H19.81V7.62Z" fill="currentColor"/>
<path d="M18.29 6.09003H16.76V7.62003H18.29V6.09003Z" fill="currentColor"/>
</g>
<defs>
<clipPath id="clip0_1128_14728">
<rect width="32" height="32" fill="white"/>
</clipPath>
</defs>
</svg>
