<svg width="32" height="32" viewBox="0 0 32 32" fill="none" xmlns="http://www.w3.org/2000/svg">
<path d="M28.955 12.19H27.425V19.81H28.955V12.19Z" fill="currentColor"/>
<path d="M27.425 19.81H25.905V21.33H27.425V19.81Z" fill="currentColor"/>
<path d="M27.425 10.66H25.905V12.19H27.425V10.66Z" fill="currentColor"/>
<path d="M25.905 21.33H24.375V22.86H25.905V21.33Z" fill="currentColor"/>
<path d="M25.905 9.14H24.375V10.66H25.905V9.14Z" fill="currentColor"/>
<path d="M22.855 28.95H4.57501V3.05H9.14501V4.57H18.285V3.05H22.855V6.09H24.375V1.52H22.855V0H4.57501V1.52H3.04501V30.47H4.57501V32H22.855V30.47H24.375V25.9H22.855V28.95ZM13.715 1.52H16.765V3.05H13.715V1.52ZM10.665 1.52H12.185V3.05H10.665V1.52Z" fill="currentColor"/>
<path d="M24.375 16.76H22.855V18.28H24.375V16.76Z" fill="currentColor"/>
<path d="M24.375 22.86H16.765V24.38H24.375V22.86Z" fill="currentColor"/>
<path d="M22.855 15.24H18.285V16.76H22.855V15.24Z" fill="currentColor"/>
<path d="M18.285 18.28V19.81H19.805V21.33H21.335V19.81H22.855V18.28H18.285Z" fill="currentColor"/>
<path d="M22.855 13.71V12.19H21.335V10.66H19.805V12.19H18.285V13.71H22.855Z" fill="currentColor"/>
<path d="M24.375 7.62H16.765V9.14H24.375V7.62Z" fill="currentColor"/>
<path d="M18.285 13.71H16.765V15.24H18.285V13.71Z" fill="currentColor"/>
<path d="M16.765 21.33H15.235V22.86H16.765V21.33Z" fill="currentColor"/>
<path d="M16.765 9.14H15.235V10.66H16.765V9.14Z" fill="currentColor"/>
<path d="M15.235 19.81H13.715V21.33H15.235V19.81Z" fill="currentColor"/>
<path d="M15.235 10.66H13.715V12.19H15.235V10.66Z" fill="currentColor"/>
<path d="M13.715 12.19H12.185V19.81H13.715V12.19Z" fill="currentColor"/>
</svg>
