<svg width="32" height="32" viewBox="0 0 32 32" fill="none" xmlns="http://www.w3.org/2000/svg">
<path d="M27.425 6.08997H25.905V16.76H27.425V6.08997Z" fill="currentColor"/>
<path d="M25.905 16.76H24.385V19.81H25.905V16.76Z" fill="currentColor"/>
<path d="M25.905 3.05005H24.385V6.09005H25.905V3.05005Z" fill="currentColor"/>
<path d="M24.385 19.8101H22.855V21.3301H24.385V19.8101Z" fill="currentColor"/>
<path d="M22.855 21.33H21.335V22.86H22.855V21.33Z" fill="currentColor"/>
<path d="M24.385 1.52002H21.335V3.05002H24.385V1.52002Z" fill="currentColor"/>
<path d="M21.335 7.62H19.805V18.28H21.335V7.62Z" fill="currentColor"/>
<path d="M19.805 18.28H18.285V22.86H13.715V18.28H12.185V22.86H10.665V24.38H12.185V27.43H10.665V30.48H12.185V32H19.805V30.48H21.335V27.43H19.805V24.38H21.335V22.86H19.805V18.28ZM18.285 27.43H13.715V24.38H18.285V27.43Z" fill="currentColor"/>
<path d="M12.185 7.62H13.715V1.52H18.285V7.62H19.805V1.52H21.335V0H10.665V1.52H12.185V7.62Z" fill="currentColor"/>
<path d="M12.185 7.62H10.665V18.28H12.185V7.62Z" fill="currentColor"/>
<path d="M10.665 21.33H9.14502V22.86H10.665V21.33Z" fill="currentColor"/>
<path d="M10.665 1.52002H7.61499V3.05002H10.665V1.52002Z" fill="currentColor"/>
<path d="M9.14499 19.8101H7.61499V21.3301H9.14499V19.8101Z" fill="currentColor"/>
<path d="M7.61503 16.76H6.09503V19.81H7.61503V16.76Z" fill="currentColor"/>
<path d="M7.61503 3.05005H6.09503V6.09005H7.61503V3.05005Z" fill="currentColor"/>
<path d="M6.09501 6.08997H4.57501V16.76H6.09501V6.08997Z" fill="currentColor"/>
</svg>
