<svg width="32" height="32" viewBox="0 0 32 32" fill="none" xmlns="http://www.w3.org/2000/svg">
<path d="M26.665 21.33H25.135V28.95H26.665V21.33Z" fill="currentColor"/>
<path d="M25.135 28.95H23.615V30.4799H25.135V28.95Z" fill="currentColor"/>
<path d="M25.135 19.8101H23.615V21.3301H25.135V19.8101Z" fill="currentColor"/>
<path d="M23.615 30.48H22.095V32H23.615V30.48Z" fill="currentColor"/>
<path d="M23.615 18.29H22.095V19.81H23.615V18.29Z" fill="currentColor"/>
<path d="M22.095 18.29V16.76H15.995V10.67H14.475V18.29H22.095Z" fill="currentColor"/>
<path d="M22.095 3.05005H20.565V4.57005H22.095V3.05005Z" fill="currentColor"/>
<path d="M20.565 19.8101H19.045V24.3801H20.565V19.8101Z" fill="currentColor"/>
<path d="M20.565 4.56995H19.045V6.09995H20.565V4.56995Z" fill="currentColor"/>
<path d="M19.045 6.09998H17.525V7.61998H19.045V6.09998Z" fill="currentColor"/>
<path d="M15.995 19.8101H14.475V24.3801H15.995V19.8101Z" fill="currentColor"/>
<path d="M14.475 9.14001H11.425V10.67H14.475V9.14001Z" fill="currentColor"/>
<path d="M14.475 0H12.945V4.57H14.475V0Z" fill="currentColor"/>
<path d="M11.425 28.95H9.90503V32H11.425V28.95Z" fill="currentColor"/>
<path d="M9.90504 22.86H11.425V10.67H9.90504V18.29H6.85504V19.81H9.90504V22.86Z" fill="currentColor"/>
<path d="M9.905 27.4301H8.375V28.9501H9.905V27.4301Z" fill="currentColor"/>
<path d="M9.905 6.09998H8.375V7.61998H9.905V6.09998Z" fill="currentColor"/>
<path d="M8.37504 25.91H6.85504V27.43H8.37504V25.91Z" fill="currentColor"/>
<path d="M8.37504 4.56995H6.85504V6.09995H8.37504V4.56995Z" fill="currentColor"/>
<path d="M6.85502 19.8101H5.33502V25.9101H6.85502V19.8101Z" fill="currentColor"/>
<path d="M6.85502 3.05005H5.33502V4.57005H6.85502V3.05005Z" fill="currentColor"/>
</svg>
