<svg width="32" height="32" viewBox="0 0 32 32" fill="none" xmlns="http://www.w3.org/2000/svg">
<g clip-path="url(#clip0_1135_1620)">
<path d="M30.47 23.62H28.95V25.14H3.03999V26.67H4.56999V28.19H30.47V26.67H32V8.38H30.47V23.62Z" fill="currentColor"/>
<path d="M28.95 5.33H27.43V22.1H28.95V5.33Z" fill="currentColor"/>
<path d="M22.85 9.91H21.33V8.38H19.81V6.86H15.24V8.38H13.71V9.91H15.24V11.43H16.76V16H15.24V17.52H13.71V19.05H15.24V20.57H19.81V19.05H21.33V17.52H22.85V16H24.38V11.43H22.85V9.91Z" fill="currentColor"/>
<path d="M13.71 16H12.19V17.52H13.71V16Z" fill="currentColor"/>
<path d="M13.71 9.91H12.19V11.43H13.71V9.91Z" fill="currentColor"/>
<path d="M12.19 17.52H10.66V19.05H9.14V20.57H13.71V19.05H12.19V17.52Z" fill="currentColor"/>
<path d="M10.66 12.95H9.14V14.48H10.66V16H12.19V11.43H10.66V12.95Z" fill="currentColor"/>
<path d="M10.66 9.91H12.19V8.38H13.71V6.86H9.14V8.38H10.66V9.91Z" fill="currentColor"/>
<path d="M10.66 16H9.14V17.52H10.66V16Z" fill="currentColor"/>
<path d="M10.66 9.91H9.14V11.43H10.66V9.91Z" fill="currentColor"/>
<path d="M9.14 17.52H7.62V19.05H9.14V17.52Z" fill="currentColor"/>
<path d="M9.14 14.48H7.62V16H9.14V14.48Z" fill="currentColor"/>
<path d="M9.14 11.43H7.62V12.95H9.14V11.43Z" fill="currentColor"/>
<path d="M9.14 8.38H7.62V9.91H9.14V8.38Z" fill="currentColor"/>
<path d="M7.62 16H6.09V17.52H7.62V16Z" fill="currentColor"/>
<path d="M7.62 9.91H6.09V11.43H7.62V9.91Z" fill="currentColor"/>
<path d="M7.62001 14.48V12.95H6.09001V11.43H4.57001V16H6.09001V14.48H7.62001Z" fill="currentColor"/>
<path d="M27.43 3.81H1.52V5.33H27.43V3.81Z" fill="currentColor"/>
<path d="M27.43 22.1H1.52V23.62H27.43V22.1Z" fill="currentColor"/>
<path d="M1.52 5.33H0V22.1H1.52V5.33Z" fill="currentColor"/>
</g>
<defs>
<clipPath id="clip0_1135_1620">
<rect width="32" height="32" fill="white"/>
</clipPath>
</defs>
</svg>
