<svg width="32" height="32" viewBox="0 0 32 32" fill="none" xmlns="http://www.w3.org/2000/svg">
<g clip-path="url(#clip0_1128_12588)">
<path d="M31.24 3.81001H29.71V28.19H31.24V3.81001Z" fill="currentColor"/>
<path d="M29.7101 28.19H28.1901V29.71H29.7101V28.19Z" fill="currentColor"/>
<path d="M29.7101 2.28H28.1901V3.81H29.7101V2.28Z" fill="currentColor"/>
<path d="M28.1901 29.71H3.81006V31.24H28.1901V29.71Z" fill="currentColor"/>
<path d="M25.14 20.57H6.85996V22.09H5.32996V25.14H6.85996V23.62H25.14V25.14H26.67V22.09H25.14V20.57Z" fill="currentColor"/>
<path d="M25.14 12.95H6.85996V14.47H5.32996V17.52H6.85996V16H25.14V17.52H26.67V14.47H25.14V12.95Z" fill="currentColor"/>
<path d="M25.14 5.33H6.85996V6.85H5.32996V9.9H6.85996V8.38H25.14V9.9H26.67V6.85H25.14V5.33Z" fill="currentColor"/>
<path d="M25.14 25.14H6.85999V26.66H25.14V25.14Z" fill="currentColor"/>
<path d="M25.14 17.52H6.85999V19.04H25.14V17.52Z" fill="currentColor"/>
<path d="M25.14 9.9H6.85999V11.43H25.14V9.9Z" fill="currentColor"/>
<path d="M28.1901 0.760002H3.81006V2.28H28.1901V0.760002Z" fill="currentColor"/>
<path d="M3.81004 28.19H2.29004V29.71H3.81004V28.19Z" fill="currentColor"/>
<path d="M3.81004 2.28H2.29004V3.81H3.81004V2.28Z" fill="currentColor"/>
<path d="M2.29001 3.81001H0.76001V28.19H2.29001V3.81001Z" fill="currentColor"/>
</g>
<defs>
<clipPath id="clip0_1128_12588">
<rect width="32" height="32" fill="white"/>
</clipPath>
</defs>
</svg>
