<svg width="32" height="32" viewBox="0 0 32 32" fill="none" xmlns="http://www.w3.org/2000/svg">
<path d="M25.905 1.52002V3.04002H27.435V4.57002H28.955V6.09002H30.475V1.52002H25.905Z" fill="currentColor"/>
<path d="M30.475 10.66H16.765V12.19H30.475V10.66Z" fill="currentColor"/>
<path d="M27.435 4.57001H25.905V6.09001H27.435V4.57001Z" fill="currentColor"/>
<path d="M25.905 6.09003H24.385V7.62003H25.905V6.09003Z" fill="currentColor"/>
<path d="M24.385 4.57001H22.855V6.09001H24.385V4.57001Z" fill="currentColor"/>
<path d="M22.8551 3.03998H21.3351V4.56998H22.8551V3.03998Z" fill="currentColor"/>
<path d="M21.3351 4.57001H19.8151V6.09001H21.3351V4.57001Z" fill="currentColor"/>
<path d="M19.815 6.09003H18.285V7.62003H19.815V6.09003Z" fill="currentColor"/>
<path d="M18.285 7.62H16.765V9.14H18.285V7.62Z" fill="currentColor"/>
<path d="M15.245 15.23H13.715V24.38H15.245V15.23Z" fill="currentColor"/>
<path d="M13.7151 13.71H12.1951V15.23H13.7151V13.71Z" fill="currentColor"/>
<path d="M4.57502 9.14V6.09H6.09502V4.57H7.62502V3.04H9.14502V4.57H10.665V6.09H12.195V9.14H10.665V10.66H13.715V9.14H15.245V4.57H13.715V1.52H12.195V0H4.57502V1.52H3.04502V4.57H1.52502V9.14H3.04502V10.66H6.09502V9.14H4.57502Z" fill="currentColor"/>
<path d="M12.2 18.28H10.67V21.33H6.10004V18.28H4.57504V24.38H3.04504V25.9H4.57504V32H12.2V25.9H13.72V24.38H12.2V18.28ZM7.62504 30.47H6.10004V27.42H7.63004L7.62504 30.47ZM10.665 30.47H9.14504V27.42H10.665V30.47Z" fill="currentColor"/>
<path d="M12.195 12.19H10.665V13.71H12.195V12.19Z" fill="currentColor"/>
<path d="M9.145 16.76H7.625V18.28H9.145V16.76Z" fill="currentColor"/>
<path d="M9.145 13.71H7.625V15.23H9.145V13.71Z" fill="currentColor"/>
<path d="M10.665 10.66H6.09497V12.19H10.665V10.66Z" fill="currentColor"/>
<path d="M6.09507 12.19H4.57507V13.71H6.09507V12.19Z" fill="currentColor"/>
<path d="M4.57504 13.71H3.04504V15.23H4.57504V13.71Z" fill="currentColor"/>
<path d="M3.04502 15.23H1.52502V24.38H3.04502V15.23Z" fill="currentColor"/>
</svg>
