<svg width="32" height="32" viewBox="0 0 32 32" fill="none" xmlns="http://www.w3.org/2000/svg">
<path d="M25.14 4.57001H23.62V12.19H25.14V4.57001Z" fill="currentColor"/>
<path d="M23.62 25.91H22.09V27.43H23.62V25.91Z" fill="currentColor"/>
<path d="M23.62 19.81H22.09V21.33H23.62V19.81Z" fill="currentColor"/>
<path d="M23.62 12.19H22.09V13.71H23.62V12.19Z" fill="currentColor"/>
<path d="M23.62 3.04999H22.09V4.56999H23.62V3.04999Z" fill="currentColor"/>
<path d="M22.0899 13.71H20.5699V15.24H22.0899V13.71Z" fill="currentColor"/>
<path d="M22.0899 1.52002H20.5699V3.05002H22.0899V1.52002Z" fill="currentColor"/>
<path d="M17.52 27.43V30.48H19.05V28.95H22.09V27.43H17.52Z" fill="currentColor"/>
<path d="M17.52 21.33V25.91H22.09V24.38H19.05V22.86H22.09V21.33H17.52Z" fill="currentColor"/>
<path d="M20.57 16.76V15.24H17.52V19.81H22.09V18.29H19.05V16.76H20.57Z" fill="currentColor"/>
<path d="M17.52 7.61999H19.05V4.56999H17.52V6.09999H16V4.56999H17.52V3.04999H14.47V4.56999H12.95V7.61999H14.47V9.13999H17.52V7.61999Z" fill="currentColor"/>
<path d="M17.52 30.48H14.47V32H17.52V30.48Z" fill="currentColor"/>
<path d="M14.4699 15.24H11.4299V16.76H12.9499V30.48H14.4699V15.24Z" fill="currentColor"/>
<path d="M20.5699 0H11.4299V1.52H20.5699V0Z" fill="currentColor"/>
<path d="M11.43 13.71H9.90002V15.24H11.43V13.71Z" fill="currentColor"/>
<path d="M11.43 1.52002H9.90002V3.05002H11.43V1.52002Z" fill="currentColor"/>
<path d="M9.9 12.19H8.38V13.71H9.9V12.19Z" fill="currentColor"/>
<path d="M9.9 3.04999H8.38V4.56999H9.9V3.04999Z" fill="currentColor"/>
<path d="M8.37999 4.57001H6.85999V12.19H8.37999V4.57001Z" fill="currentColor"/>
</svg>
