<svg width="32" height="32" viewBox="0 0 32 32" fill="none" xmlns="http://www.w3.org/2000/svg">
<path d="M30.475 6.86002H28.955V20.57H30.475V6.86002Z" fill="currentColor"/>
<path d="M28.9549 20.57H27.4349V22.09H28.9549V20.57Z" fill="currentColor"/>
<path d="M28.9549 5.33002H27.4349V6.86002H28.9549V5.33002Z" fill="currentColor"/>
<path d="M27.4349 22.09H25.9049V23.62H27.4349V22.09Z" fill="currentColor"/>
<path d="M27.4349 3.81H25.9049V5.33H27.4349V3.81Z" fill="currentColor"/>
<path d="M25.9049 23.62H24.3849V29.71H25.9049V23.62Z" fill="currentColor"/>
<path d="M24.3849 12.95H21.3349V14.47H19.8149V17.52H21.3349V19.05H24.3849V17.52H25.9049V14.47H24.3849V12.95Z" fill="currentColor"/>
<path d="M25.905 2.28H22.855V3.81H25.905V2.28Z" fill="currentColor"/>
<path d="M24.3849 29.71H19.8149V31.24H24.3849V29.71Z" fill="currentColor"/>
<path d="M19.8149 25.14H18.2849V29.71H19.8149V25.14Z" fill="currentColor"/>
<path d="M18.2848 29.71H13.7148V31.24H18.2848V29.71Z" fill="currentColor"/>
<path d="M18.2848 20.57H13.7148V22.09H18.2848V20.57Z" fill="currentColor"/>
<path d="M13.7148 25.14H12.1948V29.71H13.7148V25.14Z" fill="currentColor"/>
<path d="M22.855 0.76001H9.14502V2.28001H22.855V0.76001Z" fill="currentColor"/>
<path d="M12.195 29.71H7.625V31.24H12.195V29.71Z" fill="currentColor"/>
<path d="M10.665 12.95H7.62497V14.47H6.09497V17.52H7.62497V19.05H10.665V17.52H12.195V14.47H10.665V12.95Z" fill="currentColor"/>
<path d="M9.14497 2.28H6.09497V3.81H9.14497V2.28Z" fill="currentColor"/>
<path d="M7.62497 23.62H6.09497V29.71H7.62497V23.62Z" fill="currentColor"/>
<path d="M6.09495 22.09H4.57495V23.62H6.09495V22.09Z" fill="currentColor"/>
<path d="M6.09495 3.81H4.57495V5.33H6.09495V3.81Z" fill="currentColor"/>
<path d="M4.57493 20.57H3.05493V22.09H4.57493V20.57Z" fill="currentColor"/>
<path d="M4.57493 5.33002H3.05493V6.86002H4.57493V5.33002Z" fill="currentColor"/>
<path d="M3.0549 6.86002H1.5249V20.57H3.0549V6.86002Z" fill="currentColor"/>
</svg>
