<svg width="32" height="32" viewBox="0 0 32 32" fill="none" xmlns="http://www.w3.org/2000/svg">
<g clip-path="url(#clip0_1128_13485)">
<path d="M32 8.38H30.47V16H32V8.38Z" fill="currentColor"/>
<path d="M30.4699 16H28.95V19.05H30.4699V16Z" fill="currentColor"/>
<path d="M30.4699 6.85999H28.95V8.37999H30.4699V6.85999Z" fill="currentColor"/>
<path d="M28.9501 19.05H27.4301V20.57H28.9501V19.05Z" fill="currentColor"/>
<path d="M28.9501 9.89999H27.4301V12.95H28.9501V9.89999Z" fill="currentColor"/>
<path d="M28.9501 5.32999H27.4301V6.85999H28.9501V5.32999Z" fill="currentColor"/>
<path d="M27.43 8.38H25.9V9.9H27.43V8.38Z" fill="currentColor"/>
<path d="M27.43 20.57H24.38V22.09H27.43V20.57Z" fill="currentColor"/>
<path d="M25.9 6.85999H22.85V8.37999H25.9V6.85999Z" fill="currentColor"/>
<path d="M24.38 22.09H21.33V23.62H24.38V22.09Z" fill="currentColor"/>
<path d="M27.4301 3.81H19.8101V5.33H27.4301V3.81Z" fill="currentColor"/>
<path d="M21.33 23.62H18.28V25.14H21.33V23.62Z" fill="currentColor"/>
<path d="M19.81 5.32999H18.28V6.85999H19.81V5.32999Z" fill="currentColor"/>
<path d="M18.28 25.14H16.76V26.66H18.28V25.14Z" fill="currentColor"/>
<path d="M18.28 6.85999H16.76V8.37999H18.28V6.85999Z" fill="currentColor"/>
<path d="M16.76 26.66H15.24V28.19H16.76V26.66Z" fill="currentColor"/>
<path d="M16.76 8.38H15.24V9.9H16.76V8.38Z" fill="currentColor"/>
<path d="M15.24 25.14H13.71V26.66H15.24V25.14Z" fill="currentColor"/>
<path d="M15.24 6.85999H13.71V8.37999H15.24V6.85999Z" fill="currentColor"/>
<path d="M13.71 23.62H10.66V25.14H13.71V23.62Z" fill="currentColor"/>
<path d="M13.7099 5.32999H12.1899V6.85999H13.7099V5.32999Z" fill="currentColor"/>
<path d="M10.66 22.09H7.62V23.62H10.66V22.09Z" fill="currentColor"/>
<path d="M7.61995 20.57H4.56995V22.09H7.61995V20.57Z" fill="currentColor"/>
<path d="M12.1899 3.81H4.56995V5.33H12.1899V3.81Z" fill="currentColor"/>
<path d="M4.57005 19.05H3.05005V20.57H4.57005V19.05Z" fill="currentColor"/>
<path d="M4.57005 5.32999H3.05005V6.85999H4.57005V5.32999Z" fill="currentColor"/>
<path d="M3.05002 16H1.52002V19.05H3.05002V16Z" fill="currentColor"/>
<path d="M3.05002 6.85999H1.52002V8.37999H3.05002V6.85999Z" fill="currentColor"/>
<path d="M1.52 8.38H0V16H1.52V8.38Z" fill="currentColor"/>
</g>
<defs>
<clipPath id="clip0_1128_13485">
<rect width="32" height="32" fill="white"/>
</clipPath>
</defs>
</svg>
