<svg width="32" height="32" viewBox="0 0 32 32" fill="none" xmlns="http://www.w3.org/2000/svg">
<g clip-path="url(#clip0_1135_3027)">
<path d="M27.4301 0V32H32.0001V0H27.4301ZM30.4801 30.48H28.9601V28.96H30.4801V30.48ZM30.4801 27.43H28.9601V25.91H30.4801V27.43ZM30.4801 24.38H28.9601V22.86H30.4801V24.38ZM30.4801 21.34H28.9601V19.81H30.4801V21.34ZM30.4801 18.29H28.9601V16.77H30.4801V18.29ZM30.4801 15.24H28.9601V13.72H30.4801V15.24ZM30.4801 12.19H28.9601V10.67H30.4801V12.19ZM30.4801 9.15H28.9601V7.62H30.4801V9.15ZM30.4801 6.1H28.9601V4.58H30.4801V6.1ZM30.4801 3.05H28.9601V1.53H30.4801V3.05Z" fill="currentColor"/>
<path d="M25.91 30.48H24.39V32H25.91V30.48Z" fill="currentColor"/>
<path d="M25.91 13.72H24.39V24.38H25.91V13.72Z" fill="currentColor"/>
<path d="M25.91 0H24.39V7.62H25.91V0Z" fill="currentColor"/>
<path d="M24.39 28.96H7.62V30.48H24.39V28.96Z" fill="currentColor"/>
<path d="M24.39 24.38H7.62V25.91H24.39V24.38Z" fill="currentColor"/>
<path d="M22.86 19.81H21.34V21.34H22.86V19.81Z" fill="currentColor"/>
<path d="M24.39 7.62H7.62V9.14999H24.39V7.62Z" fill="currentColor"/>
<path d="M21.3401 16.77H19.8101V18.29H21.3401V16.77Z" fill="currentColor"/>
<path d="M21.34 21.34H16.77V22.86H21.34V21.34Z" fill="currentColor"/>
<path d="M18.29 16.77H16.77V18.29H18.29V16.77Z" fill="currentColor"/>
<path d="M16.77 19.81H15.24V21.34H16.77V19.81Z" fill="currentColor"/>
<path d="M24.39 12.19H7.62V13.72H24.39V12.19Z" fill="currentColor"/>
<path d="M7.61998 30.48H6.09998V32H7.61998V30.48Z" fill="currentColor"/>
<path d="M7.61998 13.72H6.09998V24.38H7.61998V13.72Z" fill="currentColor"/>
<path d="M7.61998 0H6.09998V7.62H7.61998V0Z" fill="currentColor"/>
<path d="M0 0V32H4.58V0H0ZM3.05 30.48H1.53V28.96H3.05V30.48ZM3.05 27.43H1.53V25.91H3.05V27.43ZM3.05 24.38H1.53V22.86H3.05V24.38ZM3.05 21.34H1.53V19.81H3.05V21.34ZM3.05 18.29H1.53V16.77H3.05V18.29ZM3.05 15.24H1.53V13.72H3.05V15.24ZM3.05 12.19H1.53V10.67H3.05V12.19ZM3.05 9.15H1.53V7.62H3.05V9.15ZM3.05 6.1H1.53V4.58H3.05V6.1ZM3.05 3.05H1.53V1.53H3.05V3.05Z" fill="currentColor"/>
</g>
<defs>
<clipPath id="clip0_1135_3027">
<rect width="32" height="32" fill="white"/>
</clipPath>
</defs>
</svg>
