<svg width="32" height="32" viewBox="0 0 32 32" fill="none" xmlns="http://www.w3.org/2000/svg">
<path d="M25.14 6.09003H23.62V30.47H25.14V6.09003Z" fill="currentColor"/>
<path d="M23.62 30.47H8.38V32H23.62V30.47Z" fill="currentColor"/>
<path d="M22.0999 21.33H20.5699V22.85H22.0999V21.33Z" fill="currentColor"/>
<path d="M22.0999 18.28H20.5699V19.8H22.0999V18.28Z" fill="currentColor"/>
<path d="M22.0999 27.42H19.0499V28.95H22.0999V27.42Z" fill="currentColor"/>
<path d="M22.0999 24.38H19.0499V25.9H22.0999V24.38Z" fill="currentColor"/>
<path d="M9.91003 7.60999V16.76H22.1V7.60999H9.91003ZM17.53 10.66H16V12.19H14.48V13.71H12.95V15.23H11.43V9.13999H17.53V10.66Z" fill="currentColor"/>
<path d="M19.05 19.8H17.53V18.28H14.48V19.8H12.95V21.33H14.48V22.85H17.53V21.33H19.05V19.8Z" fill="currentColor"/>
<path d="M17.53 27.42H14.48V28.95H17.53V27.42Z" fill="currentColor"/>
<path d="M17.53 24.38H14.48V25.9H17.53V24.38Z" fill="currentColor"/>
<path d="M12.95 27.42H9.91003V28.95H12.95V27.42Z" fill="currentColor"/>
<path d="M12.95 24.38H9.91003V25.9H12.95V24.38Z" fill="currentColor"/>
<path d="M11.43 21.33H9.91003V22.85H11.43V21.33Z" fill="currentColor"/>
<path d="M11.43 18.28H9.91003V19.8H11.43V18.28Z" fill="currentColor"/>
<path d="M9.91 0H8.38V1.52H9.91V0Z" fill="currentColor"/>
<path d="M8.37999 6.09002H23.62V4.57002H11.43V1.52002H9.90999V4.57002H8.37999V1.52002H6.85999V30.47H8.37999V6.09002Z" fill="currentColor"/>
</svg>
