<svg width="32" height="32" viewBox="0 0 32 32" fill="none" xmlns="http://www.w3.org/2000/svg">
<g clip-path="url(#clip0_1128_9796)">
<path d="M32 12.1899H30.48V13.7199H32V12.1899Z" fill="currentColor"/>
<path d="M32 6.09998H30.48V9.14998H32V6.09998Z" fill="currentColor"/>
<path d="M30.48 18.29H28.96V19.81H30.48V18.29Z" fill="currentColor"/>
<path d="M30.48 9.15002H28.96V10.67H30.48V9.15002Z" fill="currentColor"/>
<path d="M30.48 4.56995H28.96V6.09995H30.48V4.56995Z" fill="currentColor"/>
<path d="M28.96 27.4301H27.43V28.9601H28.96V27.4301Z" fill="currentColor"/>
<path d="M28.96 19.8101H27.43V21.3401H28.96V19.8101Z" fill="currentColor"/>
<path d="M28.96 16.77H27.43V18.29H28.96V16.77Z" fill="currentColor"/>
<path d="M28.96 10.67H27.43V12.19H28.96V10.67Z" fill="currentColor"/>
<path d="M28.96 3.05005H27.43V4.57005H28.96V3.05005Z" fill="currentColor"/>
<path d="M27.43 18.29H25.91V19.81H27.43V18.29Z" fill="currentColor"/>
<path d="M27.43 12.1899H25.91V13.7199H27.43V12.1899Z" fill="currentColor"/>
<path d="M27.43 1.53003H25.91V3.05003H27.43V1.53003Z" fill="currentColor"/>
<path d="M25.91 13.72H24.39V15.24H25.91V13.72Z" fill="currentColor"/>
<path d="M25.91 0H22.86V1.53H25.91V0Z" fill="currentColor"/>
<path d="M24.39 21.34H22.86V22.86H24.39V21.34Z" fill="currentColor"/>
<path d="M24.39 15.24H22.86V16.77H24.39V15.24Z" fill="currentColor"/>
<path d="M24.39 6.09998H21.34V10.67H25.91V7.61998H24.39V6.09998Z" fill="currentColor"/>
<path d="M22.86 16.77H21.34V18.29H22.86V16.77Z" fill="currentColor"/>
<path d="M22.86 1.53003H21.34V3.05003H22.86V1.53003Z" fill="currentColor"/>
<path d="M19.81 25.91V27.43H18.29V28.96H19.81V30.48H21.34V28.96H22.86V27.43H21.34V25.91H19.81Z" fill="currentColor"/>
<path d="M21.34 18.29H19.81V19.81H21.34V18.29Z" fill="currentColor"/>
<path d="M21.34 3.05005H19.81V4.57005H21.34V3.05005Z" fill="currentColor"/>
<path d="M19.81 19.8101H18.29V21.3401H19.81V19.8101Z" fill="currentColor"/>
<path d="M19.81 12.19H18.29V10.67H16.77V12.19H15.24V13.72H13.72V15.24H15.24V19.81H16.77V18.29H18.29V16.77H19.81V15.24H21.34V13.72H19.81V12.19Z" fill="currentColor"/>
<path d="M19.81 4.56995H18.29V6.09995H19.81V4.56995Z" fill="currentColor"/>
<path d="M18.29 21.34H16.77V22.86H18.29V21.34Z" fill="currentColor"/>
<path d="M18.29 6.09998H16.77V7.61998H18.29V6.09998Z" fill="currentColor"/>
<path d="M16.77 22.86H15.24V24.38H16.77V22.86Z" fill="currentColor"/>
<path d="M16.77 7.62H15.24V9.14999H16.77V7.62Z" fill="currentColor"/>
<path d="M15.24 24.38H13.72V25.91H15.24V24.38Z" fill="currentColor"/>
<path d="M15.24 19.8101H13.72V21.3401H15.24V19.8101Z" fill="currentColor"/>
<path d="M15.24 9.15002H13.72V10.67H15.24V9.15002Z" fill="currentColor"/>
<path d="M13.72 0V1.53H12.2V3.05H13.72V4.57H15.24V3.05H16.77V1.53H15.24V0H13.72Z" fill="currentColor"/>
<path d="M13.72 21.34H12.2V22.86H13.72V21.34Z" fill="currentColor"/>
<path d="M13.72 15.24H12.2V16.77H13.72V15.24Z" fill="currentColor"/>
<path d="M13.72 10.67H12.2V12.19H13.72V10.67Z" fill="currentColor"/>
<path d="M13.72 25.91H10.67V27.43H13.72V25.91Z" fill="currentColor"/>
<path d="M12.2 19.8101H10.67V21.3401H12.2V19.8101Z" fill="currentColor"/>
<path d="M12.2 16.77H10.67V18.29H12.2V16.77Z" fill="currentColor"/>
<path d="M12.2 12.1899H10.67V13.7199H12.2V12.1899Z" fill="currentColor"/>
<path d="M10.67 18.29H9.15002V19.81H10.67V18.29Z" fill="currentColor"/>
<path d="M10.67 13.72H9.15002V15.24H10.67V13.72Z" fill="currentColor"/>
<path d="M7.61998 25.91H6.09998V28.96H10.67V27.43H7.61998V25.91Z" fill="currentColor"/>
<path d="M9.14999 15.24H7.62V16.77H9.14999V15.24Z" fill="currentColor"/>
<path d="M9.14999 10.67H7.62V12.19H9.14999V10.67Z" fill="currentColor"/>
<path d="M9.14999 6.09998H7.62V7.61998H9.14999V6.09998Z" fill="currentColor"/>
<path d="M7.61998 16.77H6.09998V18.29H7.61998V16.77Z" fill="currentColor"/>
<path d="M6.10002 28.96H4.58002V30.48H6.10002V28.96Z" fill="currentColor"/>
<path d="M6.09999 24.38H4.57999V21.34H3.04999V25.91H6.09999V24.38Z" fill="currentColor"/>
<path d="M6.10002 18.29H4.58002V21.34H6.10002V18.29Z" fill="currentColor"/>
<path d="M4.57999 3.05005H3.04999V4.57005H4.57999V3.05005Z" fill="currentColor"/>
<path d="M4.58003 30.48H1.53003V32H4.58003V30.48Z" fill="currentColor"/>
<path d="M3.05003 25.91H1.53003V27.43H3.05003V25.91Z" fill="currentColor"/>
<path d="M3.05003 12.1899H1.53003V13.7199H3.05003V12.1899Z" fill="currentColor"/>
<path d="M3.05003 4.56995H1.53003V6.09995H3.05003V4.56995Z" fill="currentColor"/>
<path d="M3.05003 1.53003H1.53003V3.05003H3.05003V1.53003Z" fill="currentColor"/>
<path d="M1.53 27.4301H0V30.4801H1.53V27.4301Z" fill="currentColor"/>
<path d="M1.53 3.05005H0V4.57005H1.53V3.05005Z" fill="currentColor"/>
</g>
<defs>
<clipPath id="clip0_1128_9796">
<rect width="32" height="32" fill="white"/>
</clipPath>
</defs>
</svg>
