<svg width="32" height="32" viewBox="0 0 32 32" fill="none" xmlns="http://www.w3.org/2000/svg">
<g clip-path="url(#clip0_1128_12348)">
<path d="M32 10.67H30.48V21.33H32V10.67Z" fill="currentColor"/>
<path d="M30.4799 21.33H28.95V22.86H30.4799V21.33Z" fill="currentColor"/>
<path d="M30.4799 9.14H28.95V10.67H30.4799V9.14Z" fill="currentColor"/>
<path d="M28.9501 22.86H3.05005V24.38H28.9501V22.86Z" fill="currentColor"/>
<path d="M28.9501 16.76H21.3401V18.28H28.9501V16.76Z" fill="currentColor"/>
<path d="M19.81 16.76H18.29V18.28H19.81V16.76Z" fill="currentColor"/>
<path d="M19.81 13.71H18.29V15.24H19.81V13.71Z" fill="currentColor"/>
<path d="M18.29 15.24H16.76V16.76H18.29V15.24Z" fill="currentColor"/>
<path d="M16.76 16.76H15.24V18.28H16.76V16.76Z" fill="currentColor"/>
<path d="M16.76 13.71H15.24V15.24H16.76V13.71Z" fill="currentColor"/>
<path d="M13.7199 16.76H12.1899V18.28H13.7199V16.76Z" fill="currentColor"/>
<path d="M13.7199 13.71H12.1899V15.24H13.7199V13.71Z" fill="currentColor"/>
<path d="M12.1899 15.24H10.6699V16.76H12.1899V15.24Z" fill="currentColor"/>
<path d="M10.6699 16.76H9.1499V18.28H10.6699V16.76Z" fill="currentColor"/>
<path d="M10.6699 13.71H9.1499V15.24H10.6699V13.71Z" fill="currentColor"/>
<path d="M7.6201 16.76H6.1001V18.28H7.6201V16.76Z" fill="currentColor"/>
<path d="M7.6201 13.71H6.1001V15.24H7.6201V13.71Z" fill="currentColor"/>
<path d="M6.10007 15.24H4.57007V16.76H6.10007V15.24Z" fill="currentColor"/>
<path d="M28.9501 7.62H3.05005V9.14H28.9501V7.62Z" fill="currentColor"/>
<path d="M4.57005 16.76H3.05005V18.28H4.57005V16.76Z" fill="currentColor"/>
<path d="M4.57005 13.71H3.05005V15.24H4.57005V13.71Z" fill="currentColor"/>
<path d="M3.05003 21.33H1.53003V22.86H3.05003V21.33Z" fill="currentColor"/>
<path d="M3.05003 9.14H1.53003V10.67H3.05003V9.14Z" fill="currentColor"/>
<path d="M1.53 10.67H0V21.33H1.53V10.67Z" fill="currentColor"/>
</g>
<defs>
<clipPath id="clip0_1128_12348">
<rect width="32" height="32" fill="white"/>
</clipPath>
</defs>
</svg>
