<svg width="32" height="32" viewBox="0 0 32 32" fill="none" xmlns="http://www.w3.org/2000/svg">
<path d="M20.5701 0V1.52H19.0501V3.05H17.5201V7.62H14.4801V9.14H17.5201V13.71H28.1901V0H20.5701ZM26.6701 12.19H19.0501V4.57H22.0901V1.52H26.6701V12.19Z" fill="currentColor"/>
<path d="M20.5701 18.29V19.81H19.0501V21.33H17.5201V25.9H14.4801V27.43H17.5201V32H28.1901V18.29H20.5701ZM26.6701 30.48H19.0501V22.86H22.0901V19.81H26.6701V30.48Z" fill="currentColor"/>
<path d="M25.1401 24.38H23.6201V25.9H25.1401V24.38Z" fill="currentColor"/>
<path d="M25.1401 6.09H23.6201V7.62H25.1401V6.09Z" fill="currentColor"/>
<path d="M25.1401 27.43H20.5701V28.95H25.1401V27.43Z" fill="currentColor"/>
<path d="M25.1401 9.14001H20.5701V10.67H25.1401V9.14001Z" fill="currentColor"/>
<path d="M22.0901 24.38H20.5701V25.9H22.0901V24.38Z" fill="currentColor"/>
<path d="M22.0901 6.09H20.5701V7.62H22.0901V6.09Z" fill="currentColor"/>
<path d="M12.95 25.9H9.90002V27.43H12.95V25.9Z" fill="currentColor"/>
<path d="M12.95 7.62H9.90002V9.14H12.95V7.62Z" fill="currentColor"/>
<path d="M8.38008 25.9H5.33008V27.43H8.38008V25.9Z" fill="currentColor"/>
<path d="M5.33006 6.09H3.81006V10.67H5.33006V9.14H8.38006V7.62H5.33006V6.09Z" fill="currentColor"/>
<path d="M5.33006 24.38H3.81006V25.9H5.33006V24.38Z" fill="currentColor"/>
<path d="M5.33006 18.29H3.81006V22.86H5.33006V18.29Z" fill="currentColor"/>
<path d="M5.33006 12.19H3.81006V16.76H5.33006V12.19Z" fill="currentColor"/>
<path d="M5.33006 0H3.81006V4.57H5.33006V0Z" fill="currentColor"/>
</svg>
