<svg width="32" height="32" viewBox="0 0 32 32" fill="none" xmlns="http://www.w3.org/2000/svg">
<path d="M27.425 6.09H25.905V4.57H24.385V3.04H22.855V1.52H21.335V0H3.04504V32H28.955V7.62H27.425V6.09ZM27.425 30.47H4.57504V1.52H19.805V9.14H27.425V30.47Z" fill="currentColor"/>
<path d="M19.8051 19.81V18.28H18.2851V19.81H9.14509V18.28H7.61509V7.62H6.09509V24.38H7.61509V21.33H24.3851V24.38H25.9051V10.66H24.3851V18.28H22.8551V19.81H19.8051Z" fill="currentColor"/>
<path d="M24.385 24.38H7.61499V25.9H24.385V24.38Z" fill="currentColor"/>
<path d="M22.8551 16.76H21.3351V18.28H22.8551V16.76Z" fill="currentColor"/>
<path d="M21.335 15.24H18.285V16.76H21.335V15.24Z" fill="currentColor"/>
<path d="M18.285 16.76H16.765V18.28H18.285V16.76Z" fill="currentColor"/>
<path d="M16.765 15.24H15.235V16.76H16.765V15.24Z" fill="currentColor"/>
<path d="M15.2351 13.71H12.1951V15.24H15.2351V13.71Z" fill="currentColor"/>
<path d="M12.195 15.24H10.665V16.76H12.195V15.24Z" fill="currentColor"/>
<path d="M10.665 16.76H9.14502V18.28H10.665V16.76Z" fill="currentColor"/>
<path d="M12.195 9.14001H9.14502V12.19H12.195V9.14001Z" fill="currentColor"/>
<path d="M16.765 6.09003H7.61499V7.62003H16.765V6.09003Z" fill="currentColor"/>
</svg>
