<svg width="32" height="32" viewBox="0 0 32 32" fill="none" xmlns="http://www.w3.org/2000/svg">
<g clip-path="url(#clip0_1128_5109)">
<path d="M28.95 18.29V15.24H25.9V12.19H24.38V10.67H22.86V12.19H16.76V13.72H18.29V15.24H19.81V18.29H18.29V19.81H16.76V30.48H19.81V28.96H21.33V27.43H24.38V25.91H25.9V28.96H27.43V22.86H25.9V16.77H27.43V19.81H32V18.29H28.95ZM19.81 27.43H18.29V25.91H19.81V27.43ZM24.38 22.86H22.86V24.39H21.33V22.86H19.81V21.34H21.33V19.81H22.86V21.34H24.38V22.86ZM24.38 15.24H22.86V13.72H24.38V15.24Z" fill="currentColor"/>
<path d="M27.43 6.10002H30.48V4.58002H25.9V9.15002H24.38V10.67H27.43V6.10002Z" fill="currentColor"/>
<path d="M25.9 28.96H24.38V32H25.9V28.96Z" fill="currentColor"/>
<path d="M22.86 21.34H21.33V22.86H22.86V21.34Z" fill="currentColor"/>
<path d="M22.86 6.09998H21.33V9.14998H10.67V6.09998H9.14001V10.67H22.86V6.09998Z" fill="currentColor"/>
<path d="M22.86 0H21.33V1.53H22.86V0Z" fill="currentColor"/>
<path d="M21.33 4.58002H19.81V6.10002H21.33V4.58002Z" fill="currentColor"/>
<path d="M21.33 1.53003H19.81V3.05003H21.33V1.53003Z" fill="currentColor"/>
<path d="M18.29 15.24H16.76V18.29H18.29V15.24Z" fill="currentColor"/>
<path d="M18.29 6.09998H16.76V7.61998H18.29V6.09998Z" fill="currentColor"/>
<path d="M15.24 15.24H13.71V18.29H15.24V15.24Z" fill="currentColor"/>
<path d="M15.24 6.09998H13.71V7.61998H15.24V6.09998Z" fill="currentColor"/>
<path d="M19.81 3.04999H12.19V4.57999H19.81V3.04999Z" fill="currentColor"/>
<path d="M12.19 4.58002H10.67V6.10002H12.19V4.58002Z" fill="currentColor"/>
<path d="M12.19 1.53003H10.67V3.05003H12.19V1.53003Z" fill="currentColor"/>
<path d="M10.67 21.34H9.14001V22.86H10.67V21.34Z" fill="currentColor"/>
<path d="M10.67 0H9.14001V1.53H10.67V0Z" fill="currentColor"/>
<path d="M7.62 12.19H6.1V15.24H3.05V18.29H0V19.81H4.57V16.77H6.1V22.86H4.57V28.96H6.1V25.91H7.62V27.43H10.67V28.96H12.19V30.48H15.24V19.81H13.71V18.29H12.19V15.24H13.71V13.72H15.24V12.19H9.14V10.67H7.62V12.19ZM13.71 25.91V27.43H12.19V25.91H13.71ZM10.67 19.81V21.34H12.19V22.86H10.67V24.39H9.14V22.86H7.62V21.34H9.14V19.81H10.67ZM9.14 15.24H7.62V13.72H9.14V15.24Z" fill="currentColor"/>
<path d="M7.61998 28.96H6.09998V32H7.61998V28.96Z" fill="currentColor"/>
<path d="M6.10002 9.15002V4.58002H1.52002V6.10002H4.57002V10.67H7.62002V9.15002H6.10002Z" fill="currentColor"/>
</g>
<defs>
<clipPath id="clip0_1128_5109">
<rect width="32" height="32" fill="white"/>
</clipPath>
</defs>
</svg>
