<svg width="32" height="32" viewBox="0 0 32 32" fill="none" xmlns="http://www.w3.org/2000/svg">
<g clip-path="url(#clip0_1128_10058)">
<path d="M31.24 9.90503H29.72V28.195H31.24V9.90503Z" fill="currentColor"/>
<path d="M29.72 28.1951H28.19V29.7151H29.72V28.1951Z" fill="currentColor"/>
<path d="M29.72 8.38501H28.19V9.90501H29.72V8.38501Z" fill="currentColor"/>
<path d="M28.19 29.715H3.81V31.235H28.19V29.715Z" fill="currentColor"/>
<path d="M25.15 16.005H23.62V22.095H25.15V16.005Z" fill="currentColor"/>
<path d="M23.62 22.095H22.1V25.145H23.62V22.095Z" fill="currentColor"/>
<path d="M23.62 12.955H22.1V16.005H23.62V12.955Z" fill="currentColor"/>
<path d="M22.1 25.145H19.05V26.665H22.1V25.145Z" fill="currentColor"/>
<path d="M22.1 11.425H19.05V12.955H22.1V11.425Z" fill="currentColor"/>
<path d="M14.48 23.615H17.53V20.575H20.57V17.525H17.53V14.475H14.48V17.525H11.43V20.575H14.48V23.615Z" fill="currentColor"/>
<path d="M19.05 26.665H12.96V28.195H19.05V26.665Z" fill="currentColor"/>
<path d="M19.05 9.90503H12.96V11.425H19.05V9.90503Z" fill="currentColor"/>
<path d="M12.96 25.145H9.91003V26.665H12.96V25.145Z" fill="currentColor"/>
<path d="M12.96 11.425H9.91003V12.955H12.96V11.425Z" fill="currentColor"/>
<path d="M9.91 22.095H8.38V25.145H9.91V22.095Z" fill="currentColor"/>
<path d="M9.91 12.955H8.38V16.005H9.91V12.955Z" fill="currentColor"/>
<path d="M9.90999 5.33501H22.1V3.80501H25.15V2.28501H20.57V0.765015H11.43V2.28501H6.85999V3.80501H9.90999V5.33501Z" fill="currentColor"/>
<path d="M8.37999 16.005H6.85999V22.095H8.37999V16.005Z" fill="currentColor"/>
<path d="M28.19 8.38499V6.85499H26.67V3.80499H25.15V6.85499H6.86V3.80499H5.34V6.85499H3.81V8.38499H28.19Z" fill="currentColor"/>
<path d="M3.81004 28.1951H2.29004V29.7151H3.81004V28.1951Z" fill="currentColor"/>
<path d="M3.81004 8.38501H2.29004V9.90501H3.81004V8.38501Z" fill="currentColor"/>
<path d="M2.29001 9.90503H0.76001V28.195H2.29001V9.90503Z" fill="currentColor"/>
</g>
<defs>
<clipPath id="clip0_1128_10058">
<rect width="32" height="32" fill="white"/>
</clipPath>
</defs>
</svg>
