<svg width="32" height="32" viewBox="0 0 32 32" fill="none" xmlns="http://www.w3.org/2000/svg">
<g clip-path="url(#clip0_1128_3785)">
<path d="M30.48 18.29H28.95V16.77H27.43V15.24H25.91V0H10.67V9.15H9.14V6.1H6.1V1.53H4.57V6.1H1.52V9.15H0V32H30.48V22.86H32V19.81H30.48V18.29ZM3.05 7.62H7.62V9.15H3.05V7.62ZM10.67 19.81H9.14V22.86H10.67V30.48H1.52V10.67H10.67V19.81ZM12.19 1.53H24.38V12.2H22.86V10.67H21.33V9.15H19.81V10.67H18.29V12.2H16.76V13.72H15.24V15.24H13.72V16.77H12.19V1.53ZM28.95 30.48H24.38V24.39H22.86V30.48H18.29V28.96H19.81V27.43H18.29V24.39H16.76V30.48H12.19V19.81H13.72V18.29H15.24V16.77H16.76V15.24H18.29V13.72H19.81V12.2H21.33V13.72H22.86V15.24H24.38V16.77H25.91V18.29H27.43V19.81H28.95V30.48Z" fill="currentColor"/>
<path d="M25.91 19.8101H15.24V21.3401H25.91V19.8101Z" fill="currentColor"/>
<path d="M22.86 22.86H18.29V24.39H22.86V22.86Z" fill="currentColor"/>
<path d="M22.86 3.05005H19.81V6.10005H22.86V3.05005Z" fill="currentColor"/>
<path d="M16.76 7.62H13.72V10.67H16.76V7.62Z" fill="currentColor"/>
<path d="M16.76 3.05005H13.72V6.10005H16.76V3.05005Z" fill="currentColor"/>
<path d="M7.62 25.91H4.57V28.96H7.62V25.91Z" fill="currentColor"/>
<path d="M7.62 19.8101H4.57V22.8601H7.62V19.8101Z" fill="currentColor"/>
<path d="M7.62 13.72H4.57V16.77H7.62V13.72Z" fill="currentColor"/>
</g>
<defs>
<clipPath id="clip0_1128_3785">
<rect width="32" height="32" fill="white"/>
</clipPath>
</defs>
</svg>
