<svg width="32" height="32" viewBox="0 0 32 32" fill="none" xmlns="http://www.w3.org/2000/svg">
<path d="M30.4751 4.57001H28.9551V12.19H30.4751V4.57001Z" fill="currentColor"/>
<path d="M28.9551 12.19H27.4351V13.71H28.9551V12.19Z" fill="currentColor"/>
<path d="M28.9551 3.04999H27.4351V4.56999H28.9551V3.04999Z" fill="currentColor"/>
<path d="M27.435 13.71H25.905V15.24H27.435V13.71Z" fill="currentColor"/>
<path d="M25.905 15.24H24.385V16.76H25.905V15.24Z" fill="currentColor"/>
<path d="M24.3851 3.04999H7.62507V4.56999H4.57507V7.61999H7.62507V9.13999H10.6651V10.67H21.3351V9.13999H24.3851V7.61999H27.4351V4.56999H24.3851V3.04999Z" fill="currentColor"/>
<path d="M27.435 1.51999H24.385V3.04999H27.435V1.51999Z" fill="currentColor"/>
<path d="M24.385 16.76H22.855V18.29H24.385V16.76Z" fill="currentColor"/>
<path d="M22.8551 18.29H21.3351V19.81H22.8551V18.29Z" fill="currentColor"/>
<path d="M21.3351 19.81H19.8151V21.33H21.3351V19.81Z" fill="currentColor"/>
<path d="M19.815 21.33H18.285V28.95H19.815V21.33Z" fill="currentColor"/>
<path d="M18.285 28.95H16.765V30.48H18.285V28.95Z" fill="currentColor"/>
<path d="M16.765 30.48H13.715V32H16.765V30.48Z" fill="currentColor"/>
<path d="M13.7151 21.33H12.1951V30.48H13.7151V21.33Z" fill="currentColor"/>
<path d="M12.195 19.81H10.665V21.33H12.195V19.81Z" fill="currentColor"/>
<path d="M10.665 18.29H9.14502V19.81H10.665V18.29Z" fill="currentColor"/>
<path d="M24.385 0H7.625V1.52H24.385V0Z" fill="currentColor"/>
<path d="M9.145 16.76H7.625V18.29H9.145V16.76Z" fill="currentColor"/>
<path d="M7.62497 15.24H6.09497V16.76H7.62497V15.24Z" fill="currentColor"/>
<path d="M7.62507 1.51999H4.57507V3.04999H7.62507V1.51999Z" fill="currentColor"/>
<path d="M6.09507 13.71H4.57507V15.24H6.09507V13.71Z" fill="currentColor"/>
<path d="M4.57505 12.19H3.05505V13.71H4.57505V12.19Z" fill="currentColor"/>
<path d="M4.57505 3.04999H3.05505V4.56999H4.57505V3.04999Z" fill="currentColor"/>
<path d="M3.05502 4.57001H1.52502V12.19H3.05502V4.57001Z" fill="currentColor"/>
</svg>
