<svg width="32" height="32" viewBox="0 0 32 32" fill="none" xmlns="http://www.w3.org/2000/svg">
<g clip-path="url(#clip0_1128_9680)">
<path d="M31.235 22.095H29.715V28.195H31.235V22.095Z" fill="currentColor"/>
<path d="M29.715 28.1951H28.195V29.7151H29.715V28.1951Z" fill="currentColor"/>
<path d="M29.715 16.005H28.195V20.575H29.715V16.005Z" fill="currentColor"/>
<path d="M29.715 3.80505H28.195V5.33505H29.715V3.80505Z" fill="currentColor"/>
<path d="M28.195 20.5751H26.665V22.0951H28.195V20.5751Z" fill="currentColor"/>
<path d="M28.195 14.475H26.665V16.005H28.195V14.475Z" fill="currentColor"/>
<path d="M28.195 5.33496H26.665V6.85496H28.195V5.33496Z" fill="currentColor"/>
<path d="M28.195 29.715H3.815V31.235H28.195V29.715Z" fill="currentColor"/>
<path d="M26.665 17.525H25.145V19.045H26.665V17.525Z" fill="currentColor"/>
<path d="M26.665 3.80505H25.145V5.33505H26.665V3.80505Z" fill="currentColor"/>
<path d="M25.145 19.045H22.095V20.575H25.145V19.045Z" fill="currentColor"/>
<path d="M25.145 16.005H23.625V17.525H25.145V16.005Z" fill="currentColor"/>
<path d="M26.665 12.955H22.095V14.475H26.665V12.955Z" fill="currentColor"/>
<path d="M26.665 22.095H22.095V23.615H26.665V22.095Z" fill="currentColor"/>
<path d="M25.145 9.90503H22.095V11.425H25.145V9.90503Z" fill="currentColor"/>
<path d="M22.095 20.5751H20.575V22.0951H22.095V20.5751Z" fill="currentColor"/>
<path d="M22.095 14.475H20.575V19.045H22.095V14.475Z" fill="currentColor"/>
<path d="M22.095 6.85498H20.575V9.90498H22.095V6.85498Z" fill="currentColor"/>
<path d="M20.575 5.33496H19.045V6.85496H20.575V5.33496Z" fill="currentColor"/>
<path d="M19.045 3.80505H17.525V5.33505H19.045V3.80505Z" fill="currentColor"/>
<path d="M20.575 25.145H16.005V26.665H20.575V25.145Z" fill="currentColor"/>
<path d="M17.525 2.28503H16.005V3.80503H17.525V2.28503Z" fill="currentColor"/>
<path d="M16.005 23.615H14.475V25.145H16.005V23.615Z" fill="currentColor"/>
<path d="M16.005 16.005H14.475V20.575H16.005V16.005Z" fill="currentColor"/>
<path d="M16.005 0.765015H14.475V2.28501H16.005V0.765015Z" fill="currentColor"/>
<path d="M14.475 20.5751H12.955V22.0951H14.475V20.5751Z" fill="currentColor"/>
<path d="M14.475 14.475H12.955V16.005H14.475V14.475Z" fill="currentColor"/>
<path d="M14.475 2.28503H12.955V6.85503H14.475V2.28503Z" fill="currentColor"/>
<path d="M12.955 17.525H11.435V19.045H12.955V17.525Z" fill="currentColor"/>
<path d="M12.955 12.955H8.38501V14.475H12.955V12.955Z" fill="currentColor"/>
<path d="M12.955 6.85498H11.435V8.38498H9.90503V9.90498H12.955V6.85498Z" fill="currentColor"/>
<path d="M11.435 16.005H9.90503V17.525H11.435V16.005Z" fill="currentColor"/>
<path d="M11.435 0.765015H9.90503V2.28501H11.435V0.765015Z" fill="currentColor"/>
<path d="M11.435 19.045H8.38501V20.575H11.435V19.045Z" fill="currentColor"/>
<path d="M9.90501 9.90503H6.85501V11.425H9.90501V9.90503Z" fill="currentColor"/>
<path d="M9.90501 2.28503H8.38501V3.80503H9.90501V2.28503Z" fill="currentColor"/>
<path d="M12.955 22.095H6.85501V23.615H12.955V22.095Z" fill="currentColor"/>
<path d="M8.38501 14.475H6.85501V19.045H8.38501V14.475Z" fill="currentColor"/>
<path d="M8.38501 0.765015H6.85501V2.28501H8.38501V0.765015Z" fill="currentColor"/>
<path d="M6.85502 20.5751H5.33502V22.0951H6.85502V20.5751Z" fill="currentColor"/>
<path d="M6.85502 11.425H5.33502V12.955H6.85502V11.425Z" fill="currentColor"/>
<path d="M6.85502 5.33496H5.33502V6.85496H6.85502V5.33496Z" fill="currentColor"/>
<path d="M5.335 12.955H3.815V17.525H5.335V12.955Z" fill="currentColor"/>
<path d="M5.335 6.85498H3.815V8.38498H5.335V6.85498Z" fill="currentColor"/>
<path d="M3.815 28.1951H2.285V29.7151H3.815V28.1951Z" fill="currentColor"/>
<path d="M3.815 23.615H2.285V25.145H3.815V23.615Z" fill="currentColor"/>
<path d="M3.815 17.525H2.285V19.045H3.815V17.525Z" fill="currentColor"/>
<path d="M3.815 5.33496H2.285V6.85496H3.815V5.33496Z" fill="currentColor"/>
<path d="M2.28501 25.145H0.765015V28.195H2.28501V25.145Z" fill="currentColor"/>
<path d="M2.28501 19.045H0.765015V23.615H2.28501V19.045Z" fill="currentColor"/>
</g>
<defs>
<clipPath id="clip0_1128_9680">
<rect width="32" height="32" fill="white"/>
</clipPath>
</defs>
</svg>
