<svg width="32" height="32" viewBox="0 0 32 32" fill="none" xmlns="http://www.w3.org/2000/svg">
<g clip-path="url(#clip0_1128_13826)">
<path d="M32 23.62H30.47V28.19H32V23.62Z" fill="currentColor"/>
<path d="M32 12.95H30.47V19.05H32V12.95Z" fill="currentColor"/>
<path d="M32 3.81H30.47V8.38H32V3.81Z" fill="currentColor"/>
<path d="M30.4699 28.19H28.95V29.71H30.4699V28.19Z" fill="currentColor"/>
<path d="M30.4699 2.28H28.95V3.81H30.4699V2.28Z" fill="currentColor"/>
<path d="M28.95 0.76001H24.38V2.28001H28.95V0.76001Z" fill="currentColor"/>
<path d="M28.95 29.71H24.38V31.24H28.95V29.71Z" fill="currentColor"/>
<path d="M22.85 20.57H21.33V22.09H22.85V20.57Z" fill="currentColor"/>
<path d="M22.85 8.38H21.33V11.43H22.85V8.38Z" fill="currentColor"/>
<path d="M21.3301 22.09H19.8101V23.62H21.3301V22.09Z" fill="currentColor"/>
<path d="M19.81 16H18.28V17.52H19.81V16Z" fill="currentColor"/>
<path d="M19.8099 29.71H12.1899V31.24H19.8099V29.71Z" fill="currentColor"/>
<path d="M19.8099 23.62H12.1899V25.14H19.8099V23.62Z" fill="currentColor"/>
<path d="M18.28 14.47H16.76V16H18.28V14.47Z" fill="currentColor"/>
<path d="M18.28 17.52H15.24V19.05H18.28V17.52Z" fill="currentColor"/>
<path d="M16.76 9.90002H15.24V14.47H16.76V9.90002Z" fill="currentColor"/>
<path d="M19.8099 0.76001H12.1899V2.28001H19.8099V0.76001Z" fill="currentColor"/>
<path d="M12.19 22.09H10.66V23.62H12.19V22.09Z" fill="currentColor"/>
<path d="M10.66 20.57H9.14001V22.09H10.66V20.57Z" fill="currentColor"/>
<path d="M10.66 8.38H9.14001V11.43H10.66V8.38Z" fill="currentColor"/>
<path d="M7.62005 29.71H3.05005V31.24H7.62005V29.71Z" fill="currentColor"/>
<path d="M7.62005 0.76001H3.05005V2.28001H7.62005V0.76001Z" fill="currentColor"/>
<path d="M3.05002 28.19H1.52002V29.71H3.05002V28.19Z" fill="currentColor"/>
<path d="M3.05002 2.28H1.52002V3.81H3.05002V2.28Z" fill="currentColor"/>
<path d="M1.52 23.62H0V28.19H1.52V23.62Z" fill="currentColor"/>
<path d="M1.52 12.95H0V19.05H1.52V12.95Z" fill="currentColor"/>
<path d="M1.52 3.81H0V8.38H1.52V3.81Z" fill="currentColor"/>
</g>
<defs>
<clipPath id="clip0_1128_13826">
<rect width="32" height="32" fill="white"/>
</clipPath>
</defs>
</svg>
