<svg width="32" height="32" viewBox="0 0 32 32" fill="none" xmlns="http://www.w3.org/2000/svg">
<g clip-path="url(#clip0_1128_10919)">
<path d="M32 7.62H30.48V24.38H32V7.62Z" fill="currentColor"/>
<path d="M30.4799 24.38H28.95V25.9H30.4799V24.38Z" fill="currentColor"/>
<path d="M30.4799 6.09H28.95V7.62H30.4799V6.09Z" fill="currentColor"/>
<path d="M28.9501 25.9H27.4301V27.43H28.9501V25.9Z" fill="currentColor"/>
<path d="M28.9501 4.57001H27.4301V6.09001H28.9501V4.57001Z" fill="currentColor"/>
<path d="M27.43 27.43H25.91V28.95H27.43V27.43Z" fill="currentColor"/>
<path d="M27.43 3.04999H25.91V4.56999H27.43V3.04999Z" fill="currentColor"/>
<path d="M25.91 28.95H24.38V30.48H25.91V28.95Z" fill="currentColor"/>
<path d="M25.91 1.51999H24.38V3.04999H25.91V1.51999Z" fill="currentColor"/>
<path d="M24.38 10.67H22.86V24.38H24.38V10.67Z" fill="currentColor"/>
<path d="M24.38 30.48H7.62V32H24.38V30.48Z" fill="currentColor"/>
<path d="M22.86 24.38H21.34V25.9H22.86V24.38Z" fill="currentColor"/>
<path d="M19.8101 16.76H21.3401V10.67H22.8601V9.14H21.3401V7.62H19.8101V16.76Z" fill="currentColor"/>
<path d="M21.3399 25.9H12.1899V27.43H21.3399V25.9Z" fill="currentColor"/>
<path d="M19.81 21.33H18.29V22.86H19.81V21.33Z" fill="currentColor"/>
<path d="M19.81 18.28H18.29V19.81H19.81V18.28Z" fill="currentColor"/>
<path d="M16.76 16.76H18.29V7.62H19.81V6.09H16.76V16.76Z" fill="currentColor"/>
<path d="M18.29 22.86H15.24V24.38H18.29V22.86Z" fill="currentColor"/>
<path d="M15.24 21.33H13.72V22.86H15.24V21.33Z" fill="currentColor"/>
<path d="M15.24 18.28H13.72V19.81H15.24V18.28Z" fill="currentColor"/>
<path d="M13.7199 16.76H15.2399V6.09001H16.7599V4.57001H13.7199V6.09001H12.1899V7.62001H13.7199V16.76Z" fill="currentColor"/>
<path d="M12.19 24.38H10.67V25.9H12.19V24.38Z" fill="currentColor"/>
<path d="M10.67 21.33H9.15002V24.38H10.67V21.33Z" fill="currentColor"/>
<path d="M10.67 16.76V18.28H12.19V7.62H10.67V15.24H9.15002V16.76H10.67Z" fill="currentColor"/>
<path d="M24.38 0H7.62V1.52H24.38V0Z" fill="currentColor"/>
<path d="M9.14999 19.81H7.62V21.33H9.14999V19.81Z" fill="currentColor"/>
<path d="M9.14998 13.71H6.09998V15.24H9.14998V13.71Z" fill="currentColor"/>
<path d="M7.61998 28.95H6.09998V30.48H7.61998V28.95Z" fill="currentColor"/>
<path d="M7.61998 18.28H6.09998V19.81H7.61998V18.28Z" fill="currentColor"/>
<path d="M7.61998 1.51999H6.09998V3.04999H7.61998V1.51999Z" fill="currentColor"/>
<path d="M6.09995 27.43H4.56995V28.95H6.09995V27.43Z" fill="currentColor"/>
<path d="M6.09995 15.24H4.56995V18.28H6.09995V15.24Z" fill="currentColor"/>
<path d="M6.09995 3.04999H4.56995V4.56999H6.09995V3.04999Z" fill="currentColor"/>
<path d="M4.57005 25.9H3.05005V27.43H4.57005V25.9Z" fill="currentColor"/>
<path d="M4.57005 4.57001H3.05005V6.09001H4.57005V4.57001Z" fill="currentColor"/>
<path d="M3.05003 24.38H1.53003V25.9H3.05003V24.38Z" fill="currentColor"/>
<path d="M3.05003 6.09H1.53003V7.62H3.05003V6.09Z" fill="currentColor"/>
<path d="M1.53 7.62H0V24.38H1.53V7.62Z" fill="currentColor"/>
</g>
<defs>
<clipPath id="clip0_1128_10919">
<rect width="32" height="32" fill="white"/>
</clipPath>
</defs>
</svg>
