<svg width="32" height="32" viewBox="0 0 32 32" fill="none" xmlns="http://www.w3.org/2000/svg">
<g clip-path="url(#clip0_1128_8077)">
<path d="M30.4699 9.145H28.95V10.675H30.4699V12.195H28.95V13.715H30.4699V15.245H28.95V16.765H30.4699V18.285H28.95V19.815H30.4699V21.335H28.95V22.865H30.4699V24.385H32V7.625H30.4699V9.145Z" fill="currentColor"/>
<path d="M27.43 22.865H25.9V24.385H24.38V22.865H22.86V24.385H21.33V22.865H19.81V24.385H18.28V22.865H16.76V24.385H15.24V22.865H13.71V24.385H12.19V22.865H10.66V24.385H9.14002V22.865H7.62002V24.385H6.09002V22.865H4.57002V24.385H1.52002V25.905H30.47V24.385H27.43V22.865Z" fill="currentColor"/>
<path d="M25.9 10.675H22.86V12.195H21.33V15.245H22.86V16.765H25.9V15.245H27.43V12.195H25.9V10.675Z" fill="currentColor"/>
<path d="M13.7099 19.815H4.56995V21.335H13.7099V19.815Z" fill="currentColor"/>
<path d="M10.6599 16.765H4.56995V18.285H10.6599V16.765Z" fill="currentColor"/>
<path d="M4.57002 9.145H6.09002V7.625H7.62002V9.145H9.14002V7.625H10.66V9.145H12.19V7.625H13.71V9.145H15.24V7.625H16.76V9.145H18.28V7.625H19.81V9.145H21.33V7.625H22.86V9.145H24.38V7.625H25.9V9.145H27.43V7.625H30.47V6.095H1.52002V7.625H4.57002V9.145Z" fill="currentColor"/>
<path d="M3.05 22.865V21.335H1.52V19.815H3.05V18.285H1.52V16.765H3.05V15.245H1.52V13.715H3.05V12.195H1.52V10.675H3.05V9.145H1.52V7.625H0V24.385H1.52V22.865H3.05Z" fill="currentColor"/>
</g>
<defs>
<clipPath id="clip0_1128_8077">
<rect width="32" height="32" fill="white"/>
</clipPath>
</defs>
</svg>
