<svg width="32" height="32" viewBox="0 0 32 32" fill="none" xmlns="http://www.w3.org/2000/svg">
<g clip-path="url(#clip0_1128_4334)">
<path d="M30.47 6.10001V4.57001H1.52V6.10001H0V25.91H1.52V27.43H30.47V25.91H32V6.10001H30.47ZM30.47 22.86H28.95V24.38H27.43V25.91H4.57V24.38H3.05V22.86H1.52V9.15001H3.05V7.62001H4.57V6.10001H27.43V7.62001H28.95V9.15001H30.47V22.86Z" fill="currentColor"/>
<path d="M24.38 12.19H22.86V19.81H24.38V12.19Z" fill="currentColor"/>
<path d="M22.86 19.81H21.33V21.34H22.86V19.81Z" fill="currentColor"/>
<path d="M22.86 10.67H21.33V12.19H22.86V10.67Z" fill="currentColor"/>
<path d="M21.33 21.34H19.81V22.86H21.33V21.34Z" fill="currentColor"/>
<path d="M21.33 9.14999H19.81V10.67H21.33V9.14999Z" fill="currentColor"/>
<path d="M19.81 16.76H18.28V18.29H19.81V16.76Z" fill="currentColor"/>
<path d="M19.81 22.86H12.19V24.38H19.81V22.86Z" fill="currentColor"/>
<path d="M18.28 15.24H13.71V16.76H18.28V15.24Z" fill="currentColor"/>
<path d="M13.71 18.29V19.81H15.24V21.34H16.76V19.81H18.28V18.29H13.71Z" fill="currentColor"/>
<path d="M18.28 13.72V12.19H16.76V10.67H15.24V12.19H13.71V13.72H18.28Z" fill="currentColor"/>
<path d="M19.81 7.62H12.19V9.14999H19.81V7.62Z" fill="currentColor"/>
<path d="M13.71 13.72H12.19V15.24H13.71V13.72Z" fill="currentColor"/>
<path d="M12.19 21.34H10.66V22.86H12.19V21.34Z" fill="currentColor"/>
<path d="M12.19 9.14999H10.66V10.67H12.19V9.14999Z" fill="currentColor"/>
<path d="M10.66 19.81H9.14V21.34H10.66V19.81Z" fill="currentColor"/>
<path d="M10.66 10.67H9.14V12.19H10.66V10.67Z" fill="currentColor"/>
<path d="M9.14 12.19H7.62V19.81H9.14V12.19Z" fill="currentColor"/>
</g>
<defs>
<clipPath id="clip0_1128_4334">
<rect width="32" height="32" fill="white"/>
</clipPath>
</defs>
</svg>
