<svg width="32" height="32" viewBox="0 0 32 32" fill="none" xmlns="http://www.w3.org/2000/svg">
<g clip-path="url(#clip0_1128_9910)">
<path d="M28.96 15.24V13.72H30.48V12.19H32V7.62H30.48V6.1H28.96V4.57H24.39V6.1H22.86V7.62H21.34V4.57H22.86V0H0V4.57H1.53V32H3.05V4.57H19.81V32H21.34V18.29H30.48V32H32V16.77H21.34V12.19H22.86V13.72H24.39V15.24H28.96ZM1.53 3.05V1.53H21.34V3.05H1.53ZM24.39 9.15H25.91V7.62H27.43V9.15H28.96V10.67H27.43V12.19H25.91V10.67H24.39V9.15Z" fill="currentColor"/>
<path d="M22.86 19.81V30.48H28.96V19.81H22.86ZM27.43 28.96H24.39V25.91H27.43V28.96ZM27.43 24.38H24.39V21.34H27.43V24.38Z" fill="currentColor"/>
<path d="M4.58 30.48V32H18.29V30.48H16.77V22.86H18.29V18.29H4.58V22.86H6.1V30.48H4.58ZM10.67 28.96H7.62V22.86H10.67V28.96ZM15.24 28.96H12.2V22.86H15.24V28.96ZM6.1 19.81H16.77V21.34H6.1V19.81Z" fill="currentColor"/>
<path d="M13.72 16.77H18.29V12.19H13.72V16.77ZM15.24 13.72H16.77V15.24H15.24V13.72Z" fill="currentColor"/>
<path d="M18.29 6.09998H13.72V10.67H18.29V6.09998ZM16.77 9.14998H15.24V7.61998H16.77V9.14998Z" fill="currentColor"/>
<path d="M12.2 12.19H10.67V16.77H12.2V12.19Z" fill="currentColor"/>
<path d="M12.2 6.09998H10.67V10.67H12.2V6.09998Z" fill="currentColor"/>
<path d="M9.15 6.09998H4.58V10.67H9.15V6.09998ZM7.62 9.14998H6.1V7.61998H7.62V9.14998Z" fill="currentColor"/>
<path d="M4.58 16.77H9.15V12.19H4.58V16.77ZM6.1 13.72H7.62V15.24H6.1V13.72Z" fill="currentColor"/>
</g>
<defs>
<clipPath id="clip0_1128_9910">
<rect width="32" height="32" fill="white"/>
</clipPath>
</defs>
</svg>
