<svg width="32" height="32" viewBox="0 0 32 32" fill="none" xmlns="http://www.w3.org/2000/svg">
<path d="M30.4751 27.43H28.9551V30.48H30.4751V27.43Z" fill="currentColor"/>
<path d="M30.4751 16.77H28.9551V19.81H30.4751V16.77Z" fill="currentColor"/>
<path d="M28.955 15.24H25.905V16.77H28.955V15.24Z" fill="currentColor"/>
<path d="M28.955 30.48H25.905V32H28.955V30.48Z" fill="currentColor"/>
<path d="M27.435 21.34H25.905V27.43H27.435V21.34Z" fill="currentColor"/>
<path d="M25.905 19.81H24.385V21.34H25.905V19.81Z" fill="currentColor"/>
<path d="M24.385 22.86H22.855V28.96H24.385V22.86Z" fill="currentColor"/>
<path d="M24.3851 18.29H19.8151V19.81H24.3851V18.29Z" fill="currentColor"/>
<path d="M22.8551 21.34H21.3351V22.86H22.8551V21.34Z" fill="currentColor"/>
<path d="M22.8551 28.96H19.8151V30.48H22.8551V28.96Z" fill="currentColor"/>
<path d="M21.3351 22.86H19.8151V25.91H21.3351V22.86Z" fill="currentColor"/>
<path d="M19.815 27.43H18.285V28.96H19.815V27.43Z" fill="currentColor"/>
<path d="M19.815 19.81H18.285V21.34H19.815V19.81Z" fill="currentColor"/>
<path d="M19.815 1.53H18.285V3.05H19.815V1.53Z" fill="currentColor"/>
<path d="M18.285 21.34H16.765V27.43H18.285V21.34Z" fill="currentColor"/>
<path d="M18.285 30.48H15.245V32H18.285V30.48Z" fill="currentColor"/>
<path d="M18.285 15.24H15.245V16.77H18.285V15.24Z" fill="currentColor"/>
<path d="M15.245 27.43H13.715V30.48H15.245V27.43Z" fill="currentColor"/>
<path d="M15.245 16.77H13.715V19.81H15.245V16.77Z" fill="currentColor"/>
<path d="M22.8551 13.72V12.2H21.3351V3.04999H19.8151V12.2H6.09505V3.04999H4.57505V12.2H3.05505V13.72H22.8551Z" fill="currentColor"/>
<path d="M12.195 19.81V16.77H9.145V18.29H7.625V21.34H9.145V22.86H10.665V27.43H12.195V21.34H10.665V19.81H12.195Z" fill="currentColor"/>
<path d="M18.285 0H7.625V1.53H18.285V0Z" fill="currentColor"/>
<path d="M7.62497 1.53H6.09497V3.05H7.62497V1.53Z" fill="currentColor"/>
<path d="M12.1951 30.48H4.57507V32H12.1951V30.48Z" fill="currentColor"/>
<path d="M4.57505 28.96H3.05505V30.48H4.57505V28.96Z" fill="currentColor"/>
<path d="M3.05502 13.72H1.52502V28.96H3.05502V13.72Z" fill="currentColor"/>
</svg>
