<svg width="32" height="32" viewBox="0 0 32 32" fill="none" xmlns="http://www.w3.org/2000/svg">
<g clip-path="url(#clip0_1128_6044)">
<path d="M32 22.86H28.95V25.91H32V22.86Z" fill="currentColor"/>
<path d="M28.95 25.91H27.43V27.43H28.95V25.91Z" fill="currentColor"/>
<path d="M28.95 16.76V12.19H30.48V7.62H25.91V12.19H27.43V16.76H28.95Z" fill="currentColor"/>
<path d="M27.43 27.43H25.91V28.96H27.43V27.43Z" fill="currentColor"/>
<path d="M27.43 16.76H25.91V18.29H27.43V16.76Z" fill="currentColor"/>
<path d="M25.91 28.96H24.38V32H25.91V28.96Z" fill="currentColor"/>
<path d="M25.91 18.29H24.38V19.81H25.91V18.29Z" fill="currentColor"/>
<path d="M24.38 19.81H22.86V21.34H24.38V19.81Z" fill="currentColor"/>
<path d="M22.86 21.34H21.33V32H22.86V21.34Z" fill="currentColor"/>
<path d="M22.86 16.76V4.57H24.38V0H19.81V4.57H21.33V16.76H22.86ZM21.33 1.53H22.86V3.05H21.33V1.53Z" fill="currentColor"/>
<path d="M21.33 16.76H19.81V18.29H21.33V16.76Z" fill="currentColor"/>
<path d="M19.81 18.29H18.29V32H19.81V18.29Z" fill="currentColor"/>
<path d="M13.71 15.24H15.24V32H16.76V15.24H18.29V10.67H13.71V15.24Z" fill="currentColor"/>
<path d="M13.71 18.29H12.19V32H13.71V18.29Z" fill="currentColor"/>
<path d="M12.19 16.76H10.67V18.29H12.19V16.76Z" fill="currentColor"/>
<path d="M10.67 24.38H9.14001V32H10.67V24.38Z" fill="currentColor"/>
<path d="M10.67 9.15001H12.19V4.57001H7.62V9.15001H9.14V16.76H10.67V9.15001Z" fill="currentColor"/>
<path d="M9.14 22.86H7.62V24.38H9.14V22.86Z" fill="currentColor"/>
<path d="M7.62001 28.96H6.10001V32H7.62001V28.96Z" fill="currentColor"/>
<path d="M7.62001 21.34H6.10001V22.86H7.62001V21.34Z" fill="currentColor"/>
<path d="M7.61999 19.81V15.24H3.04999V19.81H4.56999V21.34H6.09999V19.81H7.61999ZM4.56999 18.29V16.76H6.09999V18.29H4.56999Z" fill="currentColor"/>
<path d="M6.10001 27.43H4.57001V28.96H6.10001V27.43Z" fill="currentColor"/>
<path d="M4.56999 25.91H3.04999V27.43H4.56999V25.91Z" fill="currentColor"/>
<path d="M3.05 22.86H0V25.91H3.05V22.86Z" fill="currentColor"/>
</g>
<defs>
<clipPath id="clip0_1128_6044">
<rect width="32" height="32" fill="white"/>
</clipPath>
</defs>
</svg>
