<svg width="32" height="32" viewBox="0 0 32 32" fill="none" xmlns="http://www.w3.org/2000/svg">
<g clip-path="url(#clip0_1128_6383)">
<path d="M32 4.57498H30.48V27.425H32V4.57498Z" fill="currentColor"/>
<path d="M30.48 27.425H19.81V28.955H30.48V27.425Z" fill="currentColor"/>
<path d="M25.91 4.57498H24.39V6.09498H25.91V4.57498Z" fill="currentColor"/>
<path d="M25.91 13.715H22.86V15.235H25.91V13.715Z" fill="currentColor"/>
<path d="M25.91 19.805H18.29V21.335H25.91V19.805Z" fill="currentColor"/>
<path d="M25.91 16.765H18.29V18.285H25.91V16.765Z" fill="currentColor"/>
<path d="M21.34 13.715H18.29V15.235H21.34V13.715Z" fill="currentColor"/>
<path d="M24.39 10.665H18.29V12.195H24.39V10.665Z" fill="currentColor"/>
<path d="M25.91 7.61499H18.29V9.14499H25.91V7.61499Z" fill="currentColor"/>
<path d="M22.86 4.57498H18.29V6.09498H22.86V4.57498Z" fill="currentColor"/>
<path d="M27.43 1.52499H16.77V3.04499H27.43V1.52499Z" fill="currentColor"/>
<path d="M19.81 28.955H12.2V30.475H19.81V28.955Z" fill="currentColor"/>
<path d="M13.72 13.715H12.2V15.235H13.72V13.715Z" fill="currentColor"/>
<path d="M13.72 10.665H12.2V12.195H13.72V10.665Z" fill="currentColor"/>
<path d="M13.72 7.61499H12.2V9.14499H13.72V7.61499Z" fill="currentColor"/>
<path d="M13.72 4.57498H12.2V6.09498H13.72V4.57498Z" fill="currentColor"/>
<path d="M12.2 27.425H1.53003V28.955H12.2V27.425Z" fill="currentColor"/>
<path d="M13.72 19.805H9.15002V21.335H13.72V19.805Z" fill="currentColor"/>
<path d="M13.72 16.765H7.62V18.285H13.72V16.765Z" fill="currentColor"/>
<path d="M7.61998 19.805H6.09998V21.335H7.61998V19.805Z" fill="currentColor"/>
<path d="M6.10002 15.235H7.62002V13.715H9.15002V15.235H10.67V3.04499H15.24V1.52499H4.58002V3.04499H6.10002V15.235Z" fill="currentColor"/>
<path d="M3.05003 25.905H13.72V27.425H18.29V25.905H28.96V4.57498H30.48V3.04498H27.43V24.385H16.77V3.04498H15.24V24.385H4.58003V3.04498H1.53003V4.57498H3.05003V25.905Z" fill="currentColor"/>
<path d="M1.53 4.57498H0V27.425H1.53V4.57498Z" fill="currentColor"/>
</g>
<defs>
<clipPath id="clip0_1128_6383">
<rect width="32" height="32" fill="white"/>
</clipPath>
</defs>
</svg>
