<svg width="32" height="32" viewBox="0 0 32 32" fill="none" xmlns="http://www.w3.org/2000/svg">
<g clip-path="url(#clip0_1135_2762)">
<path d="M32 3.04999H30.48V28.95H32V3.04999Z" fill="currentColor"/>
<path d="M30.4799 28.95H28.95V30.47H30.4799V28.95Z" fill="currentColor"/>
<path d="M28.9501 30.47H3.05005V32H28.9501V30.47Z" fill="currentColor"/>
<path d="M21.33 24.38H10.67V25.9H9.14001V27.43H21.33V25.9H22.86V13.71H21.33V24.38Z" fill="currentColor"/>
<path d="M9.14 6.08999H10.67V7.61999H19.81V6.08999H21.33V3.04999H9.14V4.56999H7.62V18.28H9.14V6.08999ZM15.24 4.56999H18.28V6.08999H15.24V4.56999ZM12.19 4.56999H13.71V6.08999H12.19V4.56999Z" fill="currentColor"/>
<path d="M4.57 28.95V27.43H6.09V25.9H7.62V24.38H9.14V22.85H10.67V21.33H12.19V19.81H13.71V18.28H15.24V16.76H16.76V15.24H18.28V13.71H19.81V12.19H21.33V10.66H22.86V9.14H24.38V7.62H25.9V6.09H27.43V4.57H28.95V3.05H30.48V1.52H28.95V0H3.05V1.52H27.43V3.05H25.9V4.57H24.38V6.09H22.86V7.62H21.33V9.14H19.81V10.66H18.28V12.19H16.76V13.71H15.24V15.24H13.71V16.76H12.19V18.28H10.67V19.81H9.14V21.33H7.62V22.85H6.09V24.38H4.57V25.9H3.05V27.43H1.52V3.05H0V28.95H1.52V30.47H3.05V28.95H4.57Z" fill="currentColor"/>
<path d="M3.05002 1.52002H1.52002V3.05002H3.05002V1.52002Z" fill="currentColor"/>
</g>
<defs>
<clipPath id="clip0_1135_2762">
<rect width="32" height="32" fill="white"/>
</clipPath>
</defs>
</svg>
