<svg width="32" height="32" viewBox="0 0 32 32" fill="none" xmlns="http://www.w3.org/2000/svg">
<g clip-path="url(#clip0_1128_14114)">
<path d="M32 19.05H30.48V26.67H32V19.05Z" fill="currentColor"/>
<path d="M30.4799 26.67H28.95V28.19H30.4799V26.67Z" fill="currentColor"/>
<path d="M30.4799 17.52H28.95V19.05H30.4799V17.52Z" fill="currentColor"/>
<path d="M28.9501 28.19H27.4301V31.24H28.9501V28.19Z" fill="currentColor"/>
<path d="M28.9501 12.95H27.4301V11.43H22.8601V12.95H21.3401V8.38H19.8101V16H27.4301V17.52H28.9501V12.95Z" fill="currentColor"/>
<path d="M25.91 17.52H24.38V22.1H25.91V17.52Z" fill="currentColor"/>
<path d="M27.4301 8.38001V6.86001H28.9501V2.29001H27.4301V0.76001H22.8601V2.29001H21.3401V6.86001H22.8601V8.38001H27.4301Z" fill="currentColor"/>
<path d="M21.3401 17.52H19.8101V22.1H21.3401V17.52Z" fill="currentColor"/>
<path d="M19.81 6.86002H16.76V8.38002H19.81V6.86002Z" fill="currentColor"/>
<path d="M16.76 26.67H15.24V31.24H16.76V26.67Z" fill="currentColor"/>
<path d="M15.2399 11.43H12.1899V12.95H10.6699V23.62H12.1899V17.52H15.2399V20.57H16.7599V8.38H15.2399V11.43Z" fill="currentColor"/>
<path d="M15.24 25.14H13.72V26.67H15.24V25.14Z" fill="currentColor"/>
<path d="M13.7199 23.62H12.1899V25.14H13.7199V23.62Z" fill="currentColor"/>
<path d="M13.7199 8.38001V6.86001H15.2399V5.33001H18.2899V2.29001H16.7599V0.76001H12.1899V2.29001H10.6699V6.86001H12.1899V8.38001H13.7199Z" fill="currentColor"/>
<path d="M1.53 29.72H6.1V28.19H7.62V23.62H6.1V22.1H1.53V23.62H0V28.19H1.53V29.72Z" fill="currentColor"/>
<path d="M1.53 19.05H6.1V17.52H7.62V12.95H6.1V11.43H1.53V12.95H0V17.52H1.53V19.05Z" fill="currentColor"/>
<path d="M1.53 8.38001H6.1V6.86001H7.62V2.29001H6.1V0.76001H1.53V2.29001H0V6.86001H1.53V8.38001Z" fill="currentColor"/>
</g>
<defs>
<clipPath id="clip0_1128_14114">
<rect width="32" height="32" fill="white"/>
</clipPath>
</defs>
</svg>
