<svg width="32" height="32" viewBox="0 0 32 32" fill="none" xmlns="http://www.w3.org/2000/svg">
<path d="M6.85496 1.52H5.33496V30.48H6.85496V32H25.145V30.48H26.665V1.52H25.145V0H6.85496V1.52ZM16.005 1.52H19.045V3.05H16.005V1.52ZM12.955 1.52H14.475V3.05H12.955V1.52ZM20.575 4.57V3.05H25.145V28.95H6.85496V3.05H11.425V4.57H20.575Z" fill="currentColor"/>
<path d="M23.615 22.86H22.095V25.91H23.615V22.86Z" fill="currentColor"/>
<path d="M23.615 7.62H22.095V10.67H23.615V7.62Z" fill="currentColor"/>
<path d="M22.0949 15.24H20.575V19.81H22.0949V15.24Z" fill="currentColor"/>
<path d="M22.0949 12.19H20.575V13.71H22.0949V12.19Z" fill="currentColor"/>
<path d="M22.0949 6.10001H19.0449V7.62001H22.0949V6.10001Z" fill="currentColor"/>
<path d="M22.0949 25.91H19.0449V27.43H22.0949V25.91Z" fill="currentColor"/>
<path d="M20.5749 10.67H19.0449V12.19H20.5749V10.67Z" fill="currentColor"/>
<path d="M19.0449 18.29H17.5249V22.86H19.0449V18.29Z" fill="currentColor"/>
<path d="M19.0449 13.71H17.5249V16.76H19.0449V13.71Z" fill="currentColor"/>
<path d="M19.045 9.14001H16.005V10.67H19.045V9.14001Z" fill="currentColor"/>
<path d="M17.525 22.86H12.955V24.38H17.525V22.86Z" fill="currentColor"/>
<path d="M16.005 18.29H14.475V19.81H16.005V18.29Z" fill="currentColor"/>
<path d="M17.525 12.19H14.475V13.71H17.525V12.19Z" fill="currentColor"/>
<path d="M14.475 13.71H12.955V18.29H14.475V13.71Z" fill="currentColor"/>
<path d="M14.475 9.14001H12.955V10.67H14.475V9.14001Z" fill="currentColor"/>
<path d="M12.9549 21.33H11.4249V22.86H12.9549V21.33Z" fill="currentColor"/>
<path d="M12.9549 10.67H11.4249V12.19H12.9549V10.67Z" fill="currentColor"/>
<path d="M12.9549 6.10001H9.90491V7.62001H12.9549V6.10001Z" fill="currentColor"/>
<path d="M12.9549 25.91H9.90491V27.43H12.9549V25.91Z" fill="currentColor"/>
<path d="M11.4249 19.81H9.90491V21.33H11.4249V19.81Z" fill="currentColor"/>
<path d="M11.4249 12.19H9.90491V18.29H11.4249V12.19Z" fill="currentColor"/>
<path d="M9.90501 22.86H8.38501V25.91H9.90501V22.86Z" fill="currentColor"/>
<path d="M9.90501 7.62H8.38501V10.67H9.90501V7.62Z" fill="currentColor"/>
</svg>
