<svg width="32" height="32" viewBox="0 0 32 32" fill="none" xmlns="http://www.w3.org/2000/svg">
<g clip-path="url(#clip0_1128_5442)">
<path d="M1.52 24.38H30.47V25.9H32V22.86H28.95V6.09001H27.42V22.86H25.9V21.33H24.38V22.86H15.23V21.33H13.71V22.86H12.19V6.09001H27.42V4.57001H4.57V6.09001H10.66V12.19H4.57V6.09001H3.04V22.86H0V25.9H1.52V24.38ZM4.57 15.24H10.66V21.33H4.57V15.24Z" fill="currentColor"/>
<path d="M30.47 25.9H1.52002V27.43H30.47V25.9Z" fill="currentColor"/>
<path d="M24.38 19.81H21.33V21.33H24.38V19.81Z" fill="currentColor"/>
<path d="M22.85 16.76H21.33V18.28H22.85V16.76Z" fill="currentColor"/>
<path d="M21.33 18.28H18.28V19.81H21.33V18.28Z" fill="currentColor"/>
<path d="M18.28 19.81H15.23V21.33H18.28V19.81Z" fill="currentColor"/>
<path d="M18.28 16.76H16.76V18.28H18.28V16.76Z" fill="currentColor"/>
<path d="M22.85 13.71V16.76H24.38V12.19H22.85V10.66H21.33V9.14001H18.28V10.66H16.76V12.19H15.23V16.76H16.76V13.71H22.85Z" fill="currentColor"/>
<path d="M9.13997 18.28H6.08997V19.81H9.13997V18.28Z" fill="currentColor"/>
<path d="M9.13997 9.14001H6.08997V10.66H9.13997V9.14001Z" fill="currentColor"/>
</g>
<defs>
<clipPath id="clip0_1128_5442">
<rect width="32" height="32" fill="white"/>
</clipPath>
</defs>
</svg>
