<svg width="32" height="32" viewBox="0 0 32 32" fill="none" xmlns="http://www.w3.org/2000/svg">
<path d="M29.7151 10.665H28.1851V21.335H29.7151V10.665Z" fill="currentColor"/>
<path d="M28.185 21.335H26.665V22.855H28.185V21.335Z" fill="currentColor"/>
<path d="M28.185 9.14496H26.665V10.665H28.185V9.14496Z" fill="currentColor"/>
<path d="M26.665 10.665H23.615V12.185H26.665V10.665Z" fill="currentColor"/>
<path d="M26.665 22.855H23.615V24.385H26.665V22.855Z" fill="currentColor"/>
<path d="M25.145 9.14497V7.61497H23.615V6.09497H20.575V7.61497H19.045V9.14497H20.575V10.665H23.615V9.14497H25.145Z" fill="currentColor"/>
<path d="M23.6151 12.185H20.5751V13.715H23.6151V12.185Z" fill="currentColor"/>
<path d="M23.6151 24.385H20.5751V25.905H23.6151V24.385Z" fill="currentColor"/>
<path d="M17.525 28.955V27.425H20.575V25.905H17.525V15.235H14.475V16.765H15.995V27.425H14.475V28.955H17.525Z" fill="currentColor"/>
<path d="M20.575 13.715H17.525V15.235H20.575V13.715Z" fill="currentColor"/>
<path d="M17.5251 12.185H19.0451V10.665H17.5251V9.14496H14.4751V10.665H12.9551V12.185H14.4751V13.715H17.5251V12.185Z" fill="currentColor"/>
<path d="M14.4751 3.04498V4.57498H12.9551V6.09498H14.4751V7.61498H17.5251V6.09498H19.0451V4.57498H17.5251V3.04498H14.4751Z" fill="currentColor"/>
<path d="M14.475 25.905H11.425V27.425H14.475V25.905Z" fill="currentColor"/>
<path d="M14.475 13.715H11.425V15.235H14.475V13.715Z" fill="currentColor"/>
<path d="M11.425 24.385H8.38501V25.905H11.425V24.385Z" fill="currentColor"/>
<path d="M11.425 9.14497H12.955V7.61497H11.425V6.09497H8.38498V7.61497H6.85498V9.14497H8.38498V10.665H11.425V9.14497Z" fill="currentColor"/>
<path d="M11.425 12.185H8.38501V13.715H11.425V12.185Z" fill="currentColor"/>
<path d="M8.38508 22.855H5.33508V24.385H8.38508V22.855Z" fill="currentColor"/>
<path d="M8.38508 10.665H5.33508V12.185H8.38508V10.665Z" fill="currentColor"/>
<path d="M5.33505 21.335H3.80505V22.855H5.33505V21.335Z" fill="currentColor"/>
<path d="M5.33505 9.14496H3.80505V10.665H5.33505V9.14496Z" fill="currentColor"/>
<path d="M3.80503 10.665H2.28503V21.335H3.80503V10.665Z" fill="currentColor"/>
</svg>
