<svg width="32" height="32" viewBox="0 0 32 32" fill="none" xmlns="http://www.w3.org/2000/svg">
<path d="M28.9501 12.19H27.4301V19.81H28.9501V12.19Z" fill="currentColor"/>
<path d="M27.43 19.81H25.91V22.86H27.43V19.81Z" fill="currentColor"/>
<path d="M27.43 9.14H25.91V12.19H27.43V9.14Z" fill="currentColor"/>
<path d="M27.4301 7.62V6.1H28.9501V4.57H21.3301V12.19H22.8601V10.67H24.3801V9.14H25.9101V7.62H27.4301Z" fill="currentColor"/>
<path d="M25.91 22.86H24.38V24.38H25.91V22.86Z" fill="currentColor"/>
<path d="M24.3801 24.38H22.8601V25.91H24.3801V24.38Z" fill="currentColor"/>
<path d="M22.8601 25.91H19.8101V27.43H22.8601V25.91Z" fill="currentColor"/>
<path d="M19.8101 27.43H13.7101V28.95H19.8101V27.43Z" fill="currentColor"/>
<path d="M18.2901 3.05H12.1901V4.57H18.2901V3.05Z" fill="currentColor"/>
<path d="M12.19 4.57H9.14001V6.1H12.19V4.57Z" fill="currentColor"/>
<path d="M9.14 6.10001H7.62V7.62001H9.14V6.10001Z" fill="currentColor"/>
<path d="M7.6201 7.62H6.1001V9.14H7.6201V7.62Z" fill="currentColor"/>
<path d="M4.57005 24.38V25.91H3.05005V27.43H10.67V19.81H9.14005V21.33H7.62005V22.86H6.10005V24.38H4.57005Z" fill="currentColor"/>
<path d="M6.10007 19.81H4.57007V22.86H6.10007V19.81Z" fill="currentColor"/>
<path d="M6.10007 9.14H4.57007V12.19H6.10007V9.14Z" fill="currentColor"/>
<path d="M4.57005 12.19H3.05005V19.81H4.57005V12.19Z" fill="currentColor"/>
</svg>
