<svg width="32" height="32" viewBox="0 0 32 32" fill="none" xmlns="http://www.w3.org/2000/svg">
<g clip-path="url(#clip0_1128_15034)">
<path d="M32 12.195H30.48V19.815H32V12.195Z" fill="currentColor"/>
<path d="M30.4799 19.815H28.95V21.335H30.4799V19.815Z" fill="currentColor"/>
<path d="M30.4799 10.665H28.95V12.195H30.4799V10.665Z" fill="currentColor"/>
<path d="M28.9501 13.715H27.4301V18.285H28.9501V13.715Z" fill="currentColor"/>
<path d="M28.9501 21.335H19.8101V22.855H28.9501V21.335Z" fill="currentColor"/>
<path d="M28.9501 9.14502H19.8101V10.665H28.9501V9.14502Z" fill="currentColor"/>
<path d="M19.81 19.815H18.29V21.335H19.81V19.815Z" fill="currentColor"/>
<path d="M21.3399 18.285V19.815H27.4299V18.285H22.8599V16.765H24.3799V15.235H22.8599V13.715H27.4299V12.195H21.3399V13.715H18.2899V12.195H16.7599V13.715H15.2399V12.195H13.7199V13.715H10.6699V12.195H4.56995V13.715H9.14995V15.235H7.61995V16.765H9.14995V18.285H4.56995V19.815H10.6699V18.285H13.7199V19.815H15.2399V18.285H16.7599V19.815H18.2899V18.285H21.3399Z" fill="currentColor"/>
<path d="M19.81 10.665H18.29V12.195H19.81V10.665Z" fill="currentColor"/>
<path d="M13.7199 19.815H12.1899V21.335H13.7199V19.815Z" fill="currentColor"/>
<path d="M13.7199 10.665H12.1899V12.195H13.7199V10.665Z" fill="currentColor"/>
<path d="M12.19 21.335H3.05005V22.855H12.19V21.335Z" fill="currentColor"/>
<path d="M12.19 9.14502H3.05005V10.665H12.19V9.14502Z" fill="currentColor"/>
<path d="M4.57005 13.715H3.05005V18.285H4.57005V13.715Z" fill="currentColor"/>
<path d="M3.05003 19.815H1.53003V21.335H3.05003V19.815Z" fill="currentColor"/>
<path d="M3.05003 10.665H1.53003V12.195H3.05003V10.665Z" fill="currentColor"/>
<path d="M1.53 12.195H0V19.815H1.53V12.195Z" fill="currentColor"/>
</g>
<defs>
<clipPath id="clip0_1128_15034">
<rect width="32" height="32" fill="white"/>
</clipPath>
</defs>
</svg>
