<svg width="32" height="32" viewBox="0 0 32 32" fill="none" xmlns="http://www.w3.org/2000/svg">
<g clip-path="url(#clip0_1135_3580)">
<path d="M20.565 19.8101H17.525V21.3301H15.995V19.8101H12.945V21.3301H11.425V24.3801H12.945V25.9001H14.475V27.4301H15.995V28.9501H17.525V27.4301H19.045V25.9001H20.565V24.3801H22.095V21.3301H20.565V19.8101Z" fill="currentColor"/>
<path d="M29.7151 10.66H28.1851V22.85H29.7151V10.66Z" fill="currentColor"/>
<path d="M28.185 22.85H26.665V25.9H28.185V22.85Z" fill="currentColor"/>
<path d="M28.185 9.14001H26.665V10.66H28.185V9.14001Z" fill="currentColor"/>
<path d="M26.665 25.9H25.135V27.43H26.665V25.9Z" fill="currentColor"/>
<path d="M26.665 7.62H25.135V9.14H26.665V7.62Z" fill="currentColor"/>
<path d="M25.135 27.4301H23.615V28.9501H25.135V27.4301Z" fill="currentColor"/>
<path d="M25.135 6.08997H23.615V7.61997H25.135V6.08997Z" fill="currentColor"/>
<path d="M23.6151 28.95H22.0951V30.4699H23.6151V28.95Z" fill="currentColor"/>
<path d="M23.6151 4.56995H22.0951V6.08995H23.6151V4.56995Z" fill="currentColor"/>
<path d="M22.0951 3.04004H20.5651V4.57004H22.0951V3.04004Z" fill="currentColor"/>
<path d="M22.095 30.47H9.90503V32H22.095V30.47Z" fill="currentColor"/>
<path d="M20.565 1.52002H17.525V3.04002H20.565V1.52002Z" fill="currentColor"/>
<path d="M15.995 9.14001H14.475V15.23H15.995V9.14001Z" fill="currentColor"/>
<path d="M14.4751 4.56995H12.9451V9.13995H14.4751V4.56995Z" fill="currentColor"/>
<path d="M12.945 3.04004H11.425V4.57004H12.945V3.04004Z" fill="currentColor"/>
<path d="M17.525 1.52V0H8.375V1.52H9.905V3.04H11.425V1.52H17.525Z" fill="currentColor"/>
<path d="M14.475 15.23H9.90503V16.76H14.475V15.23Z" fill="currentColor"/>
<path d="M9.905 28.95H8.375V30.4699H9.905V28.95Z" fill="currentColor"/>
<path d="M9.905 13.71H8.375V15.23H9.905V13.71Z" fill="currentColor"/>
<path d="M8.37508 27.4301H5.33508V28.9501H8.37508V27.4301Z" fill="currentColor"/>
<path d="M8.37508 10.66H6.85508V12.19H5.33508V13.71H8.37508V10.66Z" fill="currentColor"/>
<path d="M5.33505 25.9H3.80505V27.43H5.33505V25.9Z" fill="currentColor"/>
<path d="M5.33505 13.71H3.80505V18.28H5.33505V13.71Z" fill="currentColor"/>
<path d="M3.80503 18.28H2.28503V25.9H3.80503V18.28Z" fill="currentColor"/>
</g>
<defs>
<clipPath id="clip0_1135_3580">
<rect width="32" height="32" fill="white"/>
</clipPath>
</defs>
</svg>
