<svg width="32" height="32" viewBox="0 0 32 32" fill="none" xmlns="http://www.w3.org/2000/svg">
<g clip-path="url(#clip0_1128_5182)">
<path d="M31.24 24.38H29.71V25.9H31.24V24.38Z" fill="currentColor"/>
<path d="M29.7101 22.85H28.1901V24.38H29.7101V22.85Z" fill="currentColor"/>
<path d="M29.7101 25.9H28.1901V27.43H29.7101V25.9Z" fill="currentColor"/>
<path d="M28.19 21.33H26.66V22.85H28.19V21.33Z" fill="currentColor"/>
<path d="M28.19 27.43H26.66V28.95H28.19V27.43Z" fill="currentColor"/>
<path d="M26.66 19.81H25.14V21.33H26.66V19.81Z" fill="currentColor"/>
<path d="M26.66 25.9H25.14V27.43H26.66V25.9Z" fill="currentColor"/>
<path d="M25.14 18.28H23.62V19.81H25.14V18.28Z" fill="currentColor"/>
<path d="M25.14 24.38H23.62V25.9H25.14V24.38Z" fill="currentColor"/>
<path d="M23.62 16.76H22.09V18.28H23.62V16.76Z" fill="currentColor"/>
<path d="M23.62 22.85H22.09V24.38H23.62V22.85Z" fill="currentColor"/>
<path d="M20.57 21.33V19.81H19.05V21.33H20.56V22.85H22.09V21.33H20.57Z" fill="currentColor"/>
<path d="M2.28001 1.52H0.76001V30.47H2.28001V32H20.56V30.47H22.09V25.9H20.56V28.95H2.28001V3.04H6.85001V4.57H15.99V3.04H20.56V12.19H22.09V1.52H20.56V0H2.28001V1.52ZM11.42 1.52H14.47V3.04H11.42V1.52ZM8.37001 1.52H9.90001V3.04H8.37001V1.52Z" fill="currentColor"/>
<path d="M19.05 18.28H17.52V19.81H19.05V18.28Z" fill="currentColor"/>
<path d="M19.05 7.62H16V10.66H19.05V7.62Z" fill="currentColor"/>
<path d="M20.56 15.23V16.76H22.09V15.23H20.57V13.71H16V18.28H17.52V15.23H20.56Z" fill="currentColor"/>
<path d="M12.95 7.62H9.90002V10.66H12.95V7.62Z" fill="currentColor"/>
<path d="M12.95 24.38V22.85H14.47V21.33H12.95V19.81H11.43V21.33H9.90002V22.85H11.43V24.38H12.95Z" fill="currentColor"/>
<path d="M12.95 13.71H9.90002V16.76H12.95V13.71Z" fill="currentColor"/>
<path d="M6.86006 7.62H3.81006V10.66H6.86006V7.62Z" fill="currentColor"/>
<path d="M6.86006 13.71H3.81006V16.76H6.86006V13.71Z" fill="currentColor"/>
<path d="M6.86006 19.81H3.81006V22.85H6.86006V19.81Z" fill="currentColor"/>
</g>
<defs>
<clipPath id="clip0_1128_5182">
<rect width="32" height="32" fill="white"/>
</clipPath>
</defs>
</svg>
