<svg width="32" height="32" viewBox="0 0 32 32" fill="none" xmlns="http://www.w3.org/2000/svg">
<g clip-path="url(#clip0_1128_10046)">
<path d="M32 6.85504H30.48V20.575H32V6.85504Z" fill="currentColor"/>
<path d="M28.96 22.1H3.05V20.58H1.53V29.72H3.05V23.62H6.1V29.72H3.05V31.24H28.96V29.72H25.91V23.62H28.96V29.72H30.48V20.58H28.96V22.1ZM21.34 29.72H10.67V23.62H21.34V29.72Z" fill="currentColor"/>
<path d="M30.48 5.33502H28.96V6.85502H30.48V5.33502Z" fill="currentColor"/>
<path d="M19.81 16.005V17.525H21.34V20.575H25.91V17.525H27.43V16.005H19.81ZM24.39 19.045H22.86V17.525H24.39V19.045Z" fill="currentColor"/>
<path d="M21.34 9.90504H18.29V6.85504H13.72V9.90504H10.67V14.475H13.72V17.525H18.29V14.475H21.34V9.90504Z" fill="currentColor"/>
<path d="M22.86 0.765015H9.14999V2.28501H22.86V0.765015Z" fill="currentColor"/>
<path d="M4.57999 16.005V17.525H6.09999V20.575H10.67V17.525H12.2V16.005H4.57999ZM9.14999 19.045H7.61999V17.525H9.14999V19.045Z" fill="currentColor"/>
<path d="M28.96 5.33503V3.80503H24.39V2.28503H22.86V3.80503H9.14999V2.28503H7.61999V3.80503H3.04999V5.33503H28.96Z" fill="currentColor"/>
<path d="M3.05 5.33502H1.53V6.85502H3.05V5.33502Z" fill="currentColor"/>
<path d="M1.53 6.85504H0V20.575H1.53V6.85504Z" fill="currentColor"/>
</g>
<defs>
<clipPath id="clip0_1128_10046">
<rect width="32" height="32" fill="white"/>
</clipPath>
</defs>
</svg>
