<svg width="32" height="32" viewBox="0 0 32 32" fill="none" xmlns="http://www.w3.org/2000/svg">
<g clip-path="url(#clip0_1128_11027)">
<path d="M23.6151 8.38001V11.43H25.1451V8.38001H26.6651V6.85001H28.1851V5.33001H31.2351V2.28001H29.7151V0.76001H26.6651V3.81001H25.1451V5.33001H23.6151V6.85001H20.5751V8.38001H23.6151Z" fill="currentColor"/>
<path d="M28.185 14.47H26.665V20.57H28.185V14.47Z" fill="currentColor"/>
<path d="M26.665 20.57H25.145V22.09H26.665V20.57Z" fill="currentColor"/>
<path d="M26.665 11.43H25.145V14.47H26.665V11.43Z" fill="currentColor"/>
<path d="M23.615 23.62H22.095V28.19H23.615V26.66H25.145V28.19H26.665V31.24H29.715V29.71H31.235V26.66H28.185V25.14H26.665V23.62H25.145V22.09H23.615V23.62Z" fill="currentColor"/>
<path d="M19.045 17.52H22.095V16H23.615V12.95H22.095V11.43H19.045V12.95H17.525V16H19.045V17.52Z" fill="currentColor"/>
<path d="M19.045 25.14H17.525V28.19H14.475V25.14H12.955V28.19H9.90503V29.71H22.095V28.19H19.045V25.14Z" fill="currentColor"/>
<path d="M17.525 19.04H14.475V20.57H17.525V19.04Z" fill="currentColor"/>
<path d="M9.90501 17.52H12.955V16H14.475V12.95H12.955V11.43H9.90501V12.95H8.38501V16H9.90501V17.52Z" fill="currentColor"/>
<path d="M20.575 5.33002H11.425V6.85002H20.575V5.33002Z" fill="currentColor"/>
<path d="M5.33501 23.62V25.14H3.80501V26.66H0.765015V29.71H2.28501V31.24H5.33501V28.19H6.85501V26.66H8.38502V28.19H9.90501V23.62H8.38502V22.09H6.85501V23.62H5.33501Z" fill="currentColor"/>
<path d="M8.38502 8.38001H11.425V6.85001H8.38502V5.33001H6.85501V3.81001H5.33501V0.76001H2.28501V2.28001H0.765015V5.33001H3.80501V6.85001H5.33501V8.38001H6.85501V11.43H8.38502V8.38001Z" fill="currentColor"/>
<path d="M6.85496 20.57H5.33496V22.09H6.85496V20.57Z" fill="currentColor"/>
<path d="M6.85496 11.43H5.33496V14.47H6.85496V11.43Z" fill="currentColor"/>
<path d="M5.33505 14.47H3.80505V20.57H5.33505V14.47Z" fill="currentColor"/>
</g>
<defs>
<clipPath id="clip0_1128_11027">
<rect width="32" height="32" fill="white"/>
</clipPath>
</defs>
</svg>
