<svg width="32" height="32" viewBox="0 0 32 32" fill="none" xmlns="http://www.w3.org/2000/svg">
<g clip-path="url(#clip0_1128_12829)">
<path d="M32 10.66H30.47V21.33H32V10.66Z" fill="currentColor"/>
<path d="M30.4699 21.33H28.95V22.85H30.4699V21.33Z" fill="currentColor"/>
<path d="M30.4699 9.14H28.95V10.66H30.4699V9.14Z" fill="currentColor"/>
<path d="M28.9501 22.85H3.05005V24.38H28.9501V22.85Z" fill="currentColor"/>
<path d="M19.81 12.19H18.28V10.66H4.57005V12.19H3.05005V19.81H4.57005V21.33H18.28V19.81H19.81V18.28H21.33V13.71H19.81V12.19Z" fill="currentColor"/>
<path d="M28.9501 7.62H3.05005V9.14H28.9501V7.62Z" fill="currentColor"/>
<path d="M3.05002 21.33H1.52002V22.85H3.05002V21.33Z" fill="currentColor"/>
<path d="M3.05002 9.14H1.52002V10.66H3.05002V9.14Z" fill="currentColor"/>
<path d="M1.52 10.66H0V21.33H1.52V10.66Z" fill="currentColor"/>
</g>
<defs>
<clipPath id="clip0_1128_12829">
<rect width="32" height="32" fill="white"/>
</clipPath>
</defs>
</svg>
