<svg width="32" height="32" viewBox="0 0 32 32" fill="none" xmlns="http://www.w3.org/2000/svg">
<path d="M27.4249 25.9H25.9049V28.95H27.4249V25.9Z" fill="currentColor"/>
<path d="M25.905 28.9501H6.09497V30.4801H25.905V28.9501Z" fill="currentColor"/>
<path d="M22.855 19.8101H21.335V21.3301H22.855V19.8101Z" fill="currentColor"/>
<path d="M21.3349 18.29H19.8049V19.81H21.3349V18.29Z" fill="currentColor"/>
<path d="M13.715 18.29V10.67H18.285V18.29H19.805V10.67H22.855V9.14002H24.385V1.52002H21.335V3.05002H18.285V1.52002H13.715V3.05002H10.665V1.52002H7.61499V9.14002H9.14499V10.67H12.2V18.29H13.715ZM12.2 6.10002H19.81V7.62002H12.2V6.10002Z" fill="currentColor"/>
<path d="M12.1949 18.29H10.6649V19.81H12.1949V18.29Z" fill="currentColor"/>
<path d="M10.6649 19.8101H9.1449V21.3301H10.6649V19.8101Z" fill="currentColor"/>
<path d="M9.14497 24.3801V21.3301H7.61497V24.3801H6.09497V25.9001H25.905V24.3801H24.385V21.3301H22.855V24.3801H9.14497Z" fill="currentColor"/>
<path d="M6.09495 25.9H4.57495V28.95H6.09495V25.9Z" fill="currentColor"/>
</svg>
