<svg width="32" height="32" viewBox="0 0 32 32" fill="none" xmlns="http://www.w3.org/2000/svg">
<g clip-path="url(#clip0_1128_4930)">
<path d="M1.52 7.62002H30.48V30.47H32V1.52002H30.48V6.09002H1.52V1.52002H0V30.47H1.52V7.62002Z" fill="currentColor"/>
<path d="M30.48 30.47H1.52002V32H30.48V30.47Z" fill="currentColor"/>
<path d="M27.43 25.9H21.33V27.43H27.43V25.9Z" fill="currentColor"/>
<path d="M27.43 22.85H21.33V24.38H27.43V22.85Z" fill="currentColor"/>
<path d="M4.56995 10.66V19.81H27.4299V10.66H4.56995ZM25.8999 18.28H15.2399V16.76H13.7099V18.28H6.08995V12.19H21.3299V13.71H22.8599V12.19H25.8999V18.28Z" fill="currentColor"/>
<path d="M21.33 13.71H18.29V15.23H21.33V13.71Z" fill="currentColor"/>
<path d="M18.29 15.23H15.24V16.76H18.29V15.23Z" fill="currentColor"/>
<path d="M16.7599 25.9H4.56995V27.43H16.7599V25.9Z" fill="currentColor"/>
<path d="M16.7599 22.85H4.56995V24.38H16.7599V22.85Z" fill="currentColor"/>
<path d="M10.67 3.03998H9.14001V4.56998H10.67V3.03998Z" fill="currentColor"/>
<path d="M10.67 13.71H7.62V16.76H10.67V13.71Z" fill="currentColor"/>
<path d="M7.61997 3.03998H6.08997V4.56998H7.61997V3.03998Z" fill="currentColor"/>
<path d="M4.57005 3.03998H3.05005V4.56998H4.57005V3.03998Z" fill="currentColor"/>
<path d="M30.48 0H1.52002V1.52H30.48V0Z" fill="currentColor"/>
</g>
<defs>
<clipPath id="clip0_1128_4930">
<rect width="32" height="32" fill="white"/>
</clipPath>
</defs>
</svg>
