<svg width="32" height="32" viewBox="0 0 32 32" fill="none" xmlns="http://www.w3.org/2000/svg">
<g clip-path="url(#clip0_1128_10725)">
<path d="M32 15.995H30.48V20.575H32V15.995Z" fill="currentColor"/>
<path d="M32 11.425H30.48V14.475H32V11.425Z" fill="currentColor"/>
<path d="M30.4799 20.575H28.95V22.095H30.4799V20.575Z" fill="currentColor"/>
<path d="M30.4799 9.905H28.95V11.425H30.4799V9.905Z" fill="currentColor"/>
<path d="M28.9501 22.095H27.4301V23.615H28.9501V22.095Z" fill="currentColor"/>
<path d="M28.9501 8.38498H27.4301V9.90498H28.9501V8.38498Z" fill="currentColor"/>
<path d="M28.95 5.33499H25.91V6.85499H28.95V5.33499Z" fill="currentColor"/>
<path d="M28.95 25.145H25.91V26.665H28.95V25.145Z" fill="currentColor"/>
<path d="M25.91 6.85498H24.38V25.145H25.91V6.85498Z" fill="currentColor"/>
<path d="M24.38 5.33499H21.34V6.85499H24.38V5.33499Z" fill="currentColor"/>
<path d="M24.38 25.145H21.34V26.665H24.38V25.145Z" fill="currentColor"/>
<path d="M22.86 22.095H18.29V23.615H22.86V22.095Z" fill="currentColor"/>
<path d="M22.86 19.045H21.34V20.575H22.86V19.045Z" fill="currentColor"/>
<path d="M22.86 14.475H21.34V15.995H22.86V14.475Z" fill="currentColor"/>
<path d="M21.3401 15.995H19.8101V19.045H21.3401V15.995Z" fill="currentColor"/>
<path d="M22.86 8.38498H18.29V9.90498H22.86V8.38498Z" fill="currentColor"/>
<path d="M18.29 15.995H16.76V19.045H18.29V15.995Z" fill="currentColor"/>
<path d="M16.7599 22.095H12.1899V23.615H16.7599V22.095Z" fill="currentColor"/>
<path d="M13.7199 15.995H16.7599V14.475H13.7199V11.425H12.1899V20.575H16.7599V19.045H13.7199V15.995Z" fill="currentColor"/>
<path d="M16.7599 8.38498H12.1899V9.90498H16.7599V8.38498Z" fill="currentColor"/>
<path d="M10.6699 12.955H9.14995V15.995H6.09995V12.955H4.56995V20.575H6.09995V17.525H9.14995V20.575H10.6699V12.955Z" fill="currentColor"/>
<path d="M10.67 22.095H6.09998V23.615H10.67V22.095Z" fill="currentColor"/>
<path d="M9.14998 11.425H6.09998V12.955H9.14998V11.425Z" fill="currentColor"/>
<path d="M10.67 8.38498H6.09998V9.90498H10.67V8.38498Z" fill="currentColor"/>
<path d="M4.57005 22.095H3.05005V23.615H4.57005V22.095Z" fill="currentColor"/>
<path d="M4.57005 8.38498H3.05005V9.90498H4.57005V8.38498Z" fill="currentColor"/>
<path d="M3.05003 20.575H1.53003V22.095H3.05003V20.575Z" fill="currentColor"/>
<path d="M3.05003 9.905H1.53003V11.425H3.05003V9.905Z" fill="currentColor"/>
<path d="M1.53 15.995H0V20.575H1.53V15.995Z" fill="currentColor"/>
<path d="M1.53 11.425H0V14.475H1.53V11.425Z" fill="currentColor"/>
</g>
<defs>
<clipPath id="clip0_1128_10725">
<rect width="32" height="32" fill="white"/>
</clipPath>
</defs>
</svg>
