<svg width="32" height="32" viewBox="0 0 32 32" fill="none" xmlns="http://www.w3.org/2000/svg">
<path d="M29.7149 1.52002H28.1949V3.04002H29.7149V1.52002Z" fill="currentColor"/>
<path d="M29.7149 6.09003H26.6649V7.62003H29.7149V6.09003Z" fill="currentColor"/>
<path d="M28.1949 3.03998H26.6649V4.56998H28.1949V3.03998Z" fill="currentColor"/>
<path d="M28.1949 0H25.1449V1.52H28.1949V0Z" fill="currentColor"/>
<path d="M26.6649 4.57001H25.1449V6.09001H26.6649V4.57001Z" fill="currentColor"/>
<path d="M23.615 7.62H22.095V9.14H23.615V7.62Z" fill="currentColor"/>
<path d="M23.615 12.19H20.575V13.71H23.615V12.19Z" fill="currentColor"/>
<path d="M22.0949 9.14001H20.575V10.66H22.0949V9.14001Z" fill="currentColor"/>
<path d="M22.0949 6.09003H19.0449V7.62003H22.0949V6.09003Z" fill="currentColor"/>
<path d="M20.5749 10.66H19.0449V12.19H20.5749V10.66Z" fill="currentColor"/>
<path d="M16.0049 15.23H14.4749V24.38H16.0049V15.23Z" fill="currentColor"/>
<path d="M14.4748 13.71H12.9548V15.23H14.4748V13.71Z" fill="currentColor"/>
<path d="M14.4748 3.03998H12.9548V9.13998H14.4748V3.03998Z" fill="currentColor"/>
<path d="M12.9549 18.28H11.4249V30.47H9.90493V24.38H8.38493V30.47H6.85493V18.28H5.33493V24.38H3.80493V25.9H5.33493V32H12.9549V25.9H14.4749V24.38H12.9549V18.28Z" fill="currentColor"/>
<path d="M12.9548 12.19H11.4248V13.71H12.9548V12.19Z" fill="currentColor"/>
<path d="M12.9548 9.14001H11.4248V10.66H12.9548V9.14001Z" fill="currentColor"/>
<path d="M12.9548 1.52002H11.4248V3.04002H12.9548V1.52002Z" fill="currentColor"/>
<path d="M11.425 10.66H6.85498V12.19H11.425V10.66Z" fill="currentColor"/>
<path d="M11.425 0H6.85498V1.52H11.425V0Z" fill="currentColor"/>
<path d="M6.85496 12.19H5.33496V13.71H6.85496V12.19Z" fill="currentColor"/>
<path d="M6.85496 9.14001H5.33496V10.66H6.85496V9.14001Z" fill="currentColor"/>
<path d="M6.85496 1.52002H5.33496V3.04002H6.85496V1.52002Z" fill="currentColor"/>
<path d="M5.33493 13.71H3.80493V15.23H5.33493V13.71Z" fill="currentColor"/>
<path d="M5.33493 3.03998H3.80493V9.13998H5.33493V3.03998Z" fill="currentColor"/>
<path d="M3.80491 15.23H2.28491V24.38H3.80491V15.23Z" fill="currentColor"/>
</svg>
