<svg width="32" height="32" viewBox="0 0 32 32" fill="none" xmlns="http://www.w3.org/2000/svg">
<g clip-path="url(#clip0_1128_7539)">
<path d="M30.4799 24.38H32V15.24H30.4799V16.77H28.95V18.29H30.4799V24.38Z" fill="currentColor"/>
<path d="M30.4799 24.38H28.95V25.91H30.4799V24.38Z" fill="currentColor"/>
<path d="M28.9501 25.91H27.4301V27.43H28.9501V25.91Z" fill="currentColor"/>
<path d="M28.9501 21.34H27.4301V22.86H28.9501V21.34Z" fill="currentColor"/>
<path d="M27.43 22.86H24.38V24.38H27.43V22.86Z" fill="currentColor"/>
<path d="M27.43 27.43H24.38V28.96H27.43V27.43Z" fill="currentColor"/>
<path d="M28.95 18.29H22.86V19.81H28.95V18.29Z" fill="currentColor"/>
<path d="M27.43 4.57H28.95V3.05H30.48V1.53H28.95V0H27.43V1.53H25.91V0H24.38V1.53H22.86V3.05H24.38V4.57H25.91V6.1H27.43V4.57Z" fill="currentColor"/>
<path d="M24.38 24.38H21.33V25.91H24.38V24.38Z" fill="currentColor"/>
<path d="M24.38 28.96H18.29V30.48H24.38V28.96Z" fill="currentColor"/>
<path d="M22.8601 19.81H19.8101V21.34H22.8601V19.81Z" fill="currentColor"/>
<path d="M13.72 19.81V21.34H9.14001V22.86H13.72V32H15.24V27.43H16.76V28.96H18.29V27.43H21.33V25.91H16.76V24.38H15.24V21.34H16.76V13.72H15.24V19.81H13.72Z" fill="currentColor"/>
<path d="M19.81 21.34H18.29V22.86H19.81V21.34Z" fill="currentColor"/>
<path d="M22.86 16.77V15.24H24.38V13.72H25.91V12.19H27.43V9.14999H25.91V7.62H22.86V9.14999H21.33V7.62H18.29V9.14999H16.76V12.19H18.29V13.72H19.81V15.24H21.33V16.77H22.86Z" fill="currentColor"/>
<path d="M18.29 22.86H16.76V24.38H18.29V22.86Z" fill="currentColor"/>
<path d="M15.24 12.19H13.72V13.72H15.24V12.19Z" fill="currentColor"/>
<path d="M13.7199 16.77H12.1899V19.81H13.7199V16.77Z" fill="currentColor"/>
<path d="M13.7199 10.67H12.1899V12.19H13.7199V10.67Z" fill="currentColor"/>
<path d="M12.19 15.24H10.67V16.77H12.19V15.24Z" fill="currentColor"/>
<path d="M10.67 13.72H7.62V15.24H10.67V13.72Z" fill="currentColor"/>
<path d="M12.19 9.15002H9.14001V10.67H12.19V9.15002Z" fill="currentColor"/>
<path d="M9.13998 19.81H6.09998V21.34H9.13998V19.81Z" fill="currentColor"/>
<path d="M7.61998 12.19H6.09998V13.72H7.61998V12.19Z" fill="currentColor"/>
<path d="M6.09995 18.29H4.56995V19.81H6.09995V18.29Z" fill="currentColor"/>
<path d="M6.09995 10.67H4.56995V12.19H6.09995V10.67Z" fill="currentColor"/>
<path d="M9.13995 7.62H4.56995V9.14999H9.13995V7.62Z" fill="currentColor"/>
<path d="M4.57005 15.24H3.05005V18.29H4.57005V15.24Z" fill="currentColor"/>
<path d="M4.57005 6.09998H3.05005V7.61998H4.57005V6.09998Z" fill="currentColor"/>
<path d="M3.05002 12.19H1.52002V15.24H3.05002V12.19Z" fill="currentColor"/>
<path d="M1.52 6.10001H3.05V4.57001H0V12.19H1.52V6.10001Z" fill="currentColor"/>
</g>
<defs>
<clipPath id="clip0_1128_7539">
<rect width="32" height="32" fill="white"/>
</clipPath>
</defs>
</svg>
