<svg width="32" height="32" viewBox="0 0 32 32" fill="none" xmlns="http://www.w3.org/2000/svg">
<g clip-path="url(#clip0_1128_11979)">
<path d="M25.9 12.19V13.71H24.38V15.24H22.85V18.29H24.38V21.33H21.33V22.86H24.38V24.38H28.95V25.9H30.47V22.86H32V18.29H30.47V15.24H28.95V12.19H25.9Z" fill="currentColor"/>
<path d="M28.95 25.9H27.42V27.43H28.95V25.9Z" fill="currentColor"/>
<path d="M27.42 27.43H25.9V28.95H27.42V27.43Z" fill="currentColor"/>
<path d="M25.9 28.95H21.33V30.48H25.9V28.95Z" fill="currentColor"/>
<path d="M24.38 4.57V10.67H25.9V1.52H24.38V3.05H22.85V4.57H24.38Z" fill="currentColor"/>
<path d="M18.28 10.67V7.62H16.76V10.67H15.23V12.19H24.38V10.67H18.28Z" fill="currentColor"/>
<path d="M22.85 1.52H21.33V3.05H22.85V1.52Z" fill="currentColor"/>
<path d="M21.33 30.48H19.8V32H21.33V30.48Z" fill="currentColor"/>
<path d="M21.33 19.81H19.8V21.33H21.33V19.81Z" fill="currentColor"/>
<path d="M19.8 28.95H18.28V30.48H19.8V28.95Z" fill="currentColor"/>
<path d="M19.8 21.33H18.28V22.86H19.8V21.33Z" fill="currentColor"/>
<path d="M18.28 27.43H16.76V28.95H18.28V27.43Z" fill="currentColor"/>
<path d="M18.28 22.86H16.76V24.38H18.28V22.86Z" fill="currentColor"/>
<path d="M16.76 24.38H15.23V27.43H16.76V24.38Z" fill="currentColor"/>
<path d="M16.76 6.09H15.23V7.62H16.76V6.09Z" fill="currentColor"/>
<path d="M4.57004 10.67H7.61004V12.19H10.66V10.67H12.19V9.14H13.71V6.09H15.23V3.05H13.71V1.52H21.33V0H7.61004V1.52H6.09004V3.05H4.57004V6.09H3.04004V9.14H4.57004V10.67Z" fill="currentColor"/>
<path d="M7.61004 24.38H6.09004V25.9H4.57004V27.43H3.04004V28.95H4.57004V30.48H6.09004V32H13.71V24.38H9.14004V21.33H7.61004V24.38Z" fill="currentColor"/>
<path d="M10.66 19.81H9.14001V21.33H10.66V22.86H12.19V15.24H10.66V19.81Z" fill="currentColor"/>
<path d="M4.57002 15.24H10.66V13.71H1.52002V15.24H3.04002V16.76H4.57002V15.24Z" fill="currentColor"/>
<path d="M3.04002 24.38H1.52002V27.43H3.04002V24.38Z" fill="currentColor"/>
<path d="M3.04002 16.76H1.52002V19.81H3.04002V16.76Z" fill="currentColor"/>
<path d="M1.52 19.81H0V24.38H1.52V19.81Z" fill="currentColor"/>
</g>
<defs>
<clipPath id="clip0_1128_11979">
<rect width="32" height="32" fill="white"/>
</clipPath>
</defs>
</svg>
