<svg width="32" height="32" viewBox="0 0 32 32" fill="none" xmlns="http://www.w3.org/2000/svg">
<g clip-path="url(#clip0_1128_7608)">
<path d="M32 10.67H30.48V12.19H32V10.67Z" fill="currentColor"/>
<path d="M30.48 9.15V6.1H32V4.57H28.95V6.1H27.43V7.62H25.91V9.15H24.38V4.57H22.86V1.53H21.33V4.57H19.81V7.62H18.29V6.1H16.76V3.05H18.29V0H15.24V1.53H13.72V3.05H12.19V6.1H10.67V7.62H9.14V4.57H7.62V3.05H6.1V1.53H3.05V3.05H4.57V7.62H3.05V10.67H4.57V12.19H1.52V10.67H0V15.24H1.52V18.29H3.05V16.77H4.57V13.72H6.1V7.62H7.62V9.15H9.14V10.67H12.19V9.15H13.72V6.1H15.24V9.15H21.33V7.62H22.86V12.19H25.91V16.77H27.43V19.81H28.95V16.77H30.48V12.19H28.95V9.15H30.48Z" fill="currentColor"/>
<path d="M28.9501 1.53003H27.4301V3.05003H28.9501V1.53003Z" fill="currentColor"/>
<path d="M27.43 3.04999H25.91V4.56999H27.43V3.04999Z" fill="currentColor"/>
<path d="M25.91 0H24.38V1.53H25.91V0Z" fill="currentColor"/>
<path d="M24.38 24.38H22.86V27.43H24.38V24.38Z" fill="currentColor"/>
<path d="M22.86 19.81H24.38V24.38H25.91V18.29H24.38V15.24H22.86V19.81Z" fill="currentColor"/>
<path d="M22.86 27.43H21.33V28.96H22.86V27.43Z" fill="currentColor"/>
<path d="M22.86 19.81H21.33V21.34H22.86V19.81Z" fill="currentColor"/>
<path d="M22.86 13.72H21.33V15.24H22.86V13.72Z" fill="currentColor"/>
<path d="M21.3301 24.38H19.8101V27.43H21.3301V24.38Z" fill="currentColor"/>
<path d="M21.3301 18.29H19.8101V19.81H21.3301V18.29Z" fill="currentColor"/>
<path d="M21.33 28.96H18.29V30.48H21.33V28.96Z" fill="currentColor"/>
<path d="M19.81 22.86H18.29V24.38H19.81V22.86Z" fill="currentColor"/>
<path d="M19.81 16.77H18.29V18.29H19.81V16.77Z" fill="currentColor"/>
<path d="M21.33 12.19H18.29V13.72H21.33V12.19Z" fill="currentColor"/>
<path d="M18.29 21.34H15.24V22.86H18.29V21.34Z" fill="currentColor"/>
<path d="M18.29 13.72H16.76V16.77H18.29V13.72Z" fill="currentColor"/>
<path d="M15.2399 27.43H13.7199V30.48H12.1899V32H18.2899V30.48H15.2399V27.43Z" fill="currentColor"/>
<path d="M16.76 24.38H15.24V27.43H16.76V24.38Z" fill="currentColor"/>
<path d="M15.24 22.86H13.72V24.38H15.24V22.86Z" fill="currentColor"/>
<path d="M13.7199 16.77H12.1899V19.81H13.7199V16.77Z" fill="currentColor"/>
<path d="M12.19 28.96H9.14001V30.48H12.19V28.96Z" fill="currentColor"/>
<path d="M12.19 19.81H10.67V21.34H12.19V19.81Z" fill="currentColor"/>
<path d="M12.19 15.24H10.67V16.77H12.19V15.24Z" fill="currentColor"/>
<path d="M9.14001 12.19V13.72H12.19V15.24H13.72V12.19H18.29V10.67H12.19V12.19H9.14001Z" fill="currentColor"/>
<path d="M10.67 21.34H9.14001V22.86H10.67V21.34Z" fill="currentColor"/>
<path d="M10.67 1.53003H9.14001V3.05003H10.67V1.53003Z" fill="currentColor"/>
<path d="M9.14 27.43H7.62V28.96H9.14V27.43Z" fill="currentColor"/>
<path d="M9.14 19.81H7.62V21.34H9.14V19.81Z" fill="currentColor"/>
<path d="M9.14 13.72H7.62V15.24H9.14V13.72Z" fill="currentColor"/>
<path d="M9.14 0H7.62V1.53H9.14V0Z" fill="currentColor"/>
<path d="M7.61998 24.38H6.09998V27.43H7.61998V24.38Z" fill="currentColor"/>
<path d="M6.09995 19.81H7.61995V15.24H6.09995V18.29H4.56995V24.38H6.09995V19.81Z" fill="currentColor"/>
<path d="M3.05002 4.57001H1.52002V6.10001H3.05002V4.57001Z" fill="currentColor"/>
<path d="M1.52 3.04999H0V4.56999H1.52V3.04999Z" fill="currentColor"/>
</g>
<defs>
<clipPath id="clip0_1128_7608">
<rect width="32" height="32" fill="white"/>
</clipPath>
</defs>
</svg>
