<svg width="32" height="32" viewBox="0 0 32 32" fill="none" xmlns="http://www.w3.org/2000/svg">
<path d="M28.945 11.435V12.955H30.475V9.90501H25.905V6.85501H24.375V11.435H28.945Z" fill="currentColor"/>
<path d="M28.945 12.955H27.425V14.475H28.945V12.955Z" fill="currentColor"/>
<path d="M27.425 14.475H25.905V16.005H27.425V14.475Z" fill="currentColor"/>
<path d="M25.905 16.005H24.375V22.095H25.905V16.005Z" fill="currentColor"/>
<path d="M24.375 22.095H22.855V25.145H24.375V22.095Z" fill="currentColor"/>
<path d="M24.375 5.33499H22.855V6.85499H24.375V5.33499Z" fill="currentColor"/>
<path d="M22.855 25.145H21.335V26.665H22.855V25.145Z" fill="currentColor"/>
<path d="M22.855 3.815H21.335V5.335H22.855V3.815Z" fill="currentColor"/>
<path d="M21.3351 26.665H19.8051V28.195H21.3351V26.665Z" fill="currentColor"/>
<path d="M21.335 8.38501H18.285V11.435H21.335V8.38501Z" fill="currentColor"/>
<path d="M4.56504 28.195V26.665H3.04504V29.715H19.805V28.195H4.56504Z" fill="currentColor"/>
<path d="M21.335 2.285H15.235V3.815H21.335V2.285Z" fill="currentColor"/>
<path d="M15.235 3.815H13.715V5.335H15.235V3.815Z" fill="currentColor"/>
<path d="M13.715 5.33499H12.185V6.85499H13.715V5.33499Z" fill="currentColor"/>
<path d="M12.185 11.435V6.85501H10.665V9.90501H9.14502V11.435H12.185Z" fill="currentColor"/>
<path d="M9.14505 22.095H10.6651V20.575H7.61505V23.625H9.14505V22.095Z" fill="currentColor"/>
<path d="M9.14505 8.38501H7.61505V9.90501H9.14505V8.38501Z" fill="currentColor"/>
<path d="M7.61503 23.625H6.09503V25.145H7.61503V23.625Z" fill="currentColor"/>
<path d="M7.61503 19.045H6.09503V20.575H7.61503V19.045Z" fill="currentColor"/>
<path d="M7.61503 6.85501H6.09503V8.38501H7.61503V6.85501Z" fill="currentColor"/>
<path d="M6.095 25.145H4.565V26.665H6.095V25.145Z" fill="currentColor"/>
<path d="M6.095 17.525H4.565V19.045H6.095V17.525Z" fill="currentColor"/>
<path d="M6.095 5.33499H4.565V6.85499H6.095V5.33499Z" fill="currentColor"/>
<path d="M4.56504 16.005H3.04504V17.525H4.56504V16.005Z" fill="currentColor"/>
<path d="M3.04502 5.335H4.56502V3.815H1.52502V16.005H3.04502V5.335Z" fill="currentColor"/>
</svg>
