<svg width="32" height="32" viewBox="0 0 32 32" fill="none" xmlns="http://www.w3.org/2000/svg">
<path d="M1.52499 13.72V27.43H3.04499V15.24H22.855V27.43H3.04499V28.95H28.955V27.43H24.385V15.24H28.955V27.43H30.475V7.62H28.955V12.19H27.425V13.72H7.61499V12.19H6.09499V13.72H1.52499Z" fill="currentColor"/>
<path d="M28.955 6.09998H27.425V7.61998H28.955V6.09998Z" fill="currentColor"/>
<path d="M27.425 16.76H25.905V25.91H27.425V16.76Z" fill="currentColor"/>
<path d="M27.425 10.67H25.905V12.19H27.425V10.67Z" fill="currentColor"/>
<path d="M27.425 4.56998H25.905V6.09998H27.425V4.56998Z" fill="currentColor"/>
<path d="M25.905 9.13998H24.385V10.67H25.905V9.13998Z" fill="currentColor"/>
<path d="M25.905 6.09998H24.385V7.61998H25.905V6.09998Z" fill="currentColor"/>
<path d="M13.715 19.81H12.185V25.91H19.805V16.76H13.715V19.81ZM18.285 21.33V24.38H13.715V21.33H18.285Z" fill="currentColor"/>
<path d="M12.185 16.76H10.665V18.29H12.185V16.76Z" fill="currentColor"/>
<path d="M9.145 16.76H4.575V25.91H10.665V19.81H9.145V16.76ZM9.145 24.38H6.1V21.33H9.15L9.145 24.38Z" fill="currentColor"/>
<path d="M25.905 3.04999H4.575V4.56999H25.905V3.04999Z" fill="currentColor"/>
<path d="M6.095 10.67H4.575V12.19H6.095V10.67Z" fill="currentColor"/>
<path d="M24.385 9.13998V7.61998H3.04499V6.09998H1.52499V9.13998H3.04499V10.67H4.57499V9.13998H24.385Z" fill="currentColor"/>
<path d="M4.575 4.56998H3.045V6.09998H4.575V4.56998Z" fill="currentColor"/>
</svg>
