<svg width="32" height="32" viewBox="0 0 32 32" fill="none" xmlns="http://www.w3.org/2000/svg">
<path d="M29.7151 6.09998H28.1851V19.81H29.7151V6.09998Z" fill="currentColor"/>
<path d="M28.185 19.8101H26.665V24.3901H28.185V19.8101Z" fill="currentColor"/>
<path d="M28.185 4.57996H25.145V6.09996H28.185V4.57996Z" fill="currentColor"/>
<path d="M25.145 27.43H11.425V24.39H9.9V27.43H8.375V32H28.185V27.43H26.665V24.39H25.145V27.43ZM25.145 30.48H22.1V28.96H25.15L25.145 30.48Z" fill="currentColor"/>
<path d="M25.145 15.24H23.615V16.77H25.145V15.24Z" fill="currentColor"/>
<path d="M20.575 15.24H19.045V16.77H20.575V15.24Z" fill="currentColor"/>
<path d="M15.995 15.24H14.475V16.77H15.995V15.24Z" fill="currentColor"/>
<path d="M14.475 13.72H15.995V10.67H19.045V13.72H20.575V10.67H23.615V13.72H25.145V6.10003H23.615V9.15003H15.995V1.53003H14.475V13.72Z" fill="currentColor"/>
<path d="M14.475 0H11.425V1.53H14.475V0Z" fill="currentColor"/>
<path d="M9.905 21.34H8.375V24.39H9.905V21.34Z" fill="currentColor"/>
<path d="M9.905 15.24V16.77H11.425V1.53003H9.905V13.72H8.375V15.24H9.905Z" fill="currentColor"/>
<path d="M8.37498 19.8101H6.85498V21.3401H8.37498V19.8101Z" fill="currentColor"/>
<path d="M8.37498 12.1899H6.85498V13.7199H8.37498V12.1899Z" fill="currentColor"/>
<path d="M6.85508 18.29H5.33508V19.81H6.85508V18.29Z" fill="currentColor"/>
<path d="M6.85505 10.67H3.80505V12.19H6.85505V10.67Z" fill="currentColor"/>
<path d="M5.33505 16.77H3.80505V18.29H5.33505V16.77Z" fill="currentColor"/>
<path d="M3.80503 12.1899H2.28503V16.7699H3.80503V12.1899Z" fill="currentColor"/>
</svg>
