<svg width="32" height="32" viewBox="0 0 32 32" fill="none" xmlns="http://www.w3.org/2000/svg">
<g clip-path="url(#clip0_1128_12939)">
<path d="M4.58005 9.14H3.05005V12.19H4.58005V9.14Z" fill="currentColor"/>
<path d="M6.09996 6.09H4.57996V9.14H6.09996V6.09Z" fill="currentColor"/>
<path d="M9.14998 4.57001H6.09998V6.09001H9.14998V4.57001Z" fill="currentColor"/>
<path d="M12.19 3.05H9.15002V4.57H12.19V3.05Z" fill="currentColor"/>
<path d="M13.7199 22.86H12.1899V24.38H13.7199V22.86Z" fill="currentColor"/>
<path d="M13.7199 18.29H12.1899V19.81H13.7199V18.29Z" fill="currentColor"/>
<path d="M13.72 16.76H15.24V9.14H10.67V10.67H13.72V16.76Z" fill="currentColor"/>
<path d="M15.24 21.33H13.72V22.86H15.24V21.33Z" fill="currentColor"/>
<path d="M16.77 19.81H15.24V21.33H16.77V19.81Z" fill="currentColor"/>
<path d="M18.29 22.86H16.77V24.38H18.29V22.86Z" fill="currentColor"/>
<path d="M18.29 18.29H16.77V19.81H18.29V18.29Z" fill="currentColor"/>
<path d="M21.34 16.76V12.19H18.29V10.67H21.34V9.14H16.77V13.71H19.81V15.24H16.77V16.76H21.34Z" fill="currentColor"/>
<path d="M1.53 22.86H3.05V25.9H4.58V27.43H6.1V28.95H9.15V30.48H12.19V32H19.81V30.48H22.86V28.95H25.91V27.43H27.43V25.9H28.96V22.86H30.48V19.81H32V12.19H30.48V9.14H28.96V6.09H27.43V4.57H25.91V3.05H22.86V1.52H19.81V0H15.24V1.52H12.19V3.05H15.24V4.57H18.29V6.09H21.34V7.62H24.39V10.67H25.91V13.71H27.43V18.29H25.91V21.33H24.39V24.38H21.34V25.9H18.29V27.43H13.72V25.9H10.67V24.38H7.62V21.33H6.1V18.29H4.58V15.24H3.05V12.19H1.53V15.24H0V19.81H1.53V22.86Z" fill="currentColor"/>
</g>
<defs>
<clipPath id="clip0_1128_12939">
<rect width="32" height="32" fill="white"/>
</clipPath>
</defs>
</svg>
