<svg width="32" height="32" viewBox="0 0 32 32" fill="none" xmlns="http://www.w3.org/2000/svg">
<g clip-path="url(#clip0_1128_9087)">
<path d="M30.47 16.76H28.95V18.29H30.47V22.86H1.52V18.29H3.04V16.76H1.52V12.19H0V28.95H1.52V25.91H30.47V28.95H32V12.19H30.47V16.76Z" fill="currentColor"/>
<path d="M30.47 28.95H28.95V30.48H30.47V28.95Z" fill="currentColor"/>
<path d="M30.47 10.67H28.95V12.19H30.47V10.67Z" fill="currentColor"/>
<path d="M28.95 13.71H27.42V15.24H28.95V13.71Z" fill="currentColor"/>
<path d="M28.95 30.48H3.04001V32H28.95V30.48Z" fill="currentColor"/>
<path d="M28.95 18.29H24.38V19.81H28.95V18.29Z" fill="currentColor"/>
<path d="M24.38 16.76H22.85V18.29H24.38V16.76Z" fill="currentColor"/>
<path d="M22.85 0H21.33V1.52H22.85V0Z" fill="currentColor"/>
<path d="M21.33 12.19H19.81V13.71H21.33V12.19Z" fill="currentColor"/>
<path d="M22.85 18.29H16.76V19.81H22.85V18.29Z" fill="currentColor"/>
<path d="M16.76 16.76H15.23V18.29H16.76V16.76Z" fill="currentColor"/>
<path d="M16.76 0H15.23V1.52H16.76V0Z" fill="currentColor"/>
<path d="M12.19 12.19H10.66V13.71H12.19V12.19Z" fill="currentColor"/>
<path d="M15.23 18.29H9.14001V19.81H15.23V18.29Z" fill="currentColor"/>
<path d="M10.66 0H9.14001V1.52H10.66V0Z" fill="currentColor"/>
<path d="M9.13999 16.76H7.60999V18.29H9.13999V16.76Z" fill="currentColor"/>
<path d="M28.95 10.67V9.13999H22.85V3.04999H21.33V9.13999H16.76V3.04999H15.23V9.13999H10.66V3.04999H9.14001V9.13999H3.04001V10.67H28.95Z" fill="currentColor"/>
<path d="M7.61001 18.29H3.04001V19.81H7.61001V18.29Z" fill="currentColor"/>
<path d="M4.57001 13.71H3.04001V15.24H4.57001V13.71Z" fill="currentColor"/>
<path d="M3.03999 28.95H1.51999V30.48H3.03999V28.95Z" fill="currentColor"/>
<path d="M3.03999 10.67H1.51999V12.19H3.03999V10.67Z" fill="currentColor"/>
</g>
<defs>
<clipPath id="clip0_1128_9087">
<rect width="32" height="32" fill="white"/>
</clipPath>
</defs>
</svg>
