<svg width="32" height="32" viewBox="0 0 32 32" fill="none" xmlns="http://www.w3.org/2000/svg">
<g clip-path="url(#clip0_1135_2730)">
<path d="M30.48 18.29H21.33V21.33H22.86V22.86H30.48V25.9H32V15.24H30.48V18.29Z" fill="currentColor"/>
<path d="M30.4799 25.9H28.95V27.43H30.4799V25.9Z" fill="currentColor"/>
<path d="M30.4799 13.71H28.95V15.24H30.4799V13.71Z" fill="currentColor"/>
<path d="M28.9501 12.19H27.4301V13.71H28.9501V12.19Z" fill="currentColor"/>
<path d="M27.43 25.9H25.9V27.43H24.38V28.95H28.95V27.43H27.43V25.9Z" fill="currentColor"/>
<path d="M25.9 24.38H24.38V25.9H25.9V24.38Z" fill="currentColor"/>
<path d="M25.9 1.52002H24.38V3.05002H25.9V1.52002Z" fill="currentColor"/>
<path d="M24.38 25.9H22.86V27.43H24.38V25.9Z" fill="currentColor"/>
<path d="M24.38 3.05005H22.86V4.57005H24.38V3.05005Z" fill="currentColor"/>
<path d="M24.3801 28.95H19.8101V30.48H24.3801V28.95Z" fill="currentColor"/>
<path d="M22.86 4.57001H21.33V6.10001H22.86V4.57001Z" fill="currentColor"/>
<path d="M21.33 16.76H10.67V18.29H21.33V16.76Z" fill="currentColor"/>
<path d="M16.76 1.52002H15.24V6.10002H16.76V1.52002Z" fill="currentColor"/>
<path d="M10.67 4.57001H9.14001V6.10001H10.67V4.57001Z" fill="currentColor"/>
<path d="M1.52 18.29V15.24H0V21.33H1.52V22.86H9.14V21.33H10.67V18.29H1.52Z" fill="currentColor"/>
<path d="M9.14 3.05005H7.62V4.57005H9.14V3.05005Z" fill="currentColor"/>
<path d="M27.4299 10.67H4.56995V12.19H27.4299V10.67Z" fill="currentColor"/>
<path d="M7.61997 1.52002H6.08997V3.05002H7.61997V1.52002Z" fill="currentColor"/>
<path d="M4.57005 12.19H3.05005V13.71H4.57005V12.19Z" fill="currentColor"/>
<path d="M3.05002 13.71H1.52002V15.24H3.05002V13.71Z" fill="currentColor"/>
</g>
<defs>
<clipPath id="clip0_1135_2730">
<rect width="32" height="32" fill="white"/>
</clipPath>
</defs>
</svg>
