<svg width="32" height="32" viewBox="0 0 32 32" fill="none" xmlns="http://www.w3.org/2000/svg">
<g clip-path="url(#clip0_1135_4501)">
<path d="M32 18.285H30.48V19.815H32V18.285Z" fill="currentColor"/>
<path d="M30.4801 16.765H27.4301V18.285H30.4801V16.765Z" fill="currentColor"/>
<path d="M28.9501 13.715H27.4301V15.245H28.9501V13.715Z" fill="currentColor"/>
<path d="M22.86 15.245V12.195H21.34V10.665H19.81V7.62502H21.34V6.09502H27.43V7.62502H28.95V13.715H30.48V4.57502H28.95V3.04502H27.43V1.52502H21.34V3.04502H19.81V4.57502H18.29V9.14502H13.72V4.57502H12.19V3.04502H10.67V1.52502H4.57003V3.04502H3.05003V4.57502H1.53003V13.715H3.05003V7.62502H4.57003V6.09502H10.67V7.62502H12.19V10.665H10.67V12.195H9.15003V15.245H4.57003V16.765H9.15003V22.855H10.67V15.245H12.19V13.715H19.81V15.245H21.34V22.855H22.86V16.765H27.43V15.245H22.86Z" fill="currentColor"/>
<path d="M25.91 28.955H24.38V30.475H25.91V28.955Z" fill="currentColor"/>
<path d="M24.3801 27.435H22.8601V28.955H24.3801V27.435Z" fill="currentColor"/>
<path d="M22.8601 25.905H19.8101V27.435H22.8601V25.905Z" fill="currentColor"/>
<path d="M21.3401 22.855H19.8101V24.385H21.3401V22.855Z" fill="currentColor"/>
<path d="M19.81 16.765H18.29V19.815H19.81V16.765Z" fill="currentColor"/>
<path d="M19.8099 24.385H12.1899V25.905H19.8099V24.385Z" fill="currentColor"/>
<path d="M18.29 21.335H13.72V22.855H18.29V21.335Z" fill="currentColor"/>
<path d="M13.7199 16.765H12.1899V19.815H13.7199V16.765Z" fill="currentColor"/>
<path d="M12.1899 22.855H10.6699V24.385H12.1899V22.855Z" fill="currentColor"/>
<path d="M12.1899 25.905H9.1499V27.435H12.1899V25.905Z" fill="currentColor"/>
<path d="M9.15012 27.435H7.62012V28.955H9.15012V27.435Z" fill="currentColor"/>
<path d="M7.6201 28.955H6.1001V30.475H7.6201V28.955Z" fill="currentColor"/>
<path d="M4.57005 13.715H3.05005V15.245H4.57005V13.715Z" fill="currentColor"/>
<path d="M4.57003 16.765H1.53003V18.285H4.57003V16.765Z" fill="currentColor"/>
<path d="M1.53 18.285H0V19.815H1.53V18.285Z" fill="currentColor"/>
</g>
<defs>
<clipPath id="clip0_1135_4501">
<rect width="32" height="32" fill="white"/>
</clipPath>
</defs>
</svg>
