<svg width="32" height="32" viewBox="0 0 32 32" fill="none" xmlns="http://www.w3.org/2000/svg">
<g clip-path="url(#clip0_1135_3896)">
<path d="M30.47 18.28V7.62H28.95V16.76H27.43V15.24H25.9V27.43H27.43V25.9H30.47V24.38H32V18.28H30.47Z" fill="currentColor"/>
<path d="M25.9 12.1899H24.38V15.2399H25.9V12.1899Z" fill="currentColor"/>
<path d="M6.08997 27.4301V28.9501H7.61997V30.4801H9.13997V28.9501H22.85V30.4801H24.38V28.9501H25.9V27.4301H6.08997Z" fill="currentColor"/>
<path d="M24.38 18.28H22.85V21.33H24.38V18.28Z" fill="currentColor"/>
<path d="M24.38 10.67H22.85V12.19H24.38V10.67Z" fill="currentColor"/>
<path d="M22.8501 16.76H19.8101V18.28H22.8501V16.76Z" fill="currentColor"/>
<path d="M22.85 30.48H9.14001V32H22.85V30.48Z" fill="currentColor"/>
<path d="M22.8501 21.33H19.8101V22.86H22.8501V21.33Z" fill="currentColor"/>
<path d="M19.81 18.28H18.28V21.33H19.81V18.28Z" fill="currentColor"/>
<path d="M19.81 1.52002H18.28V3.05002H19.81V1.52002Z" fill="currentColor"/>
<path d="M18.28 24.38H13.71V25.9H18.28V24.38Z" fill="currentColor"/>
<path d="M18.28 0H13.71V1.52H18.28V0Z" fill="currentColor"/>
<path d="M13.7099 18.28H12.1899V21.33H13.7099V18.28Z" fill="currentColor"/>
<path d="M13.7099 1.52002H12.1899V3.05002H13.7099V1.52002Z" fill="currentColor"/>
<path d="M12.19 16.76H9.14001V18.28H12.19V16.76Z" fill="currentColor"/>
<path d="M22.85 10.67V9.14005H16.76V4.57005H18.28V3.05005H13.71V4.57005H15.23V9.14005H9.14001V10.67H22.85Z" fill="currentColor"/>
<path d="M12.19 21.33H9.14001V22.86H12.19V21.33Z" fill="currentColor"/>
<path d="M9.14 18.28H7.62V21.33H9.14V18.28Z" fill="currentColor"/>
<path d="M9.14 10.67H7.62V12.19H9.14V10.67Z" fill="currentColor"/>
<path d="M7.61997 12.1899H6.08997V15.2399H7.61997V12.1899Z" fill="currentColor"/>
<path d="M6.09 15.24H4.57V16.76H3.04V7.62H1.52V18.28H0V24.38H1.52V25.9H4.57V27.43H6.09V15.24Z" fill="currentColor"/>
</g>
<defs>
<clipPath id="clip0_1135_3896">
<rect width="32" height="32" fill="white"/>
</clipPath>
</defs>
</svg>
