<svg width="32" height="32" viewBox="0 0 32 32" fill="none" xmlns="http://www.w3.org/2000/svg">
<g clip-path="url(#clip0_1128_14080)">
<path d="M31.235 21.33H29.715V28.95H31.235V21.33Z" fill="currentColor"/>
<path d="M29.7151 28.95H28.1851V30.48H29.7151V28.95Z" fill="currentColor"/>
<path d="M29.7151 19.81H28.1851V21.33H29.7151V19.81Z" fill="currentColor"/>
<path d="M29.7151 6.09H28.1851V10.67H29.7151V6.09Z" fill="currentColor"/>
<path d="M28.185 30.48H26.665V32H28.185V30.48Z" fill="currentColor"/>
<path d="M28.185 18.28H26.665V19.81H28.185V18.28Z" fill="currentColor"/>
<path d="M20.575 16.76V10.67H19.045V18.28H26.665V16.76H20.575Z" fill="currentColor"/>
<path d="M28.185 10.67H23.615V12.19H28.185V10.67Z" fill="currentColor"/>
<path d="M28.185 4.57001H23.615V6.09001H28.185V4.57001Z" fill="currentColor"/>
<path d="M25.145 19.81H23.615V24.38H25.145V19.81Z" fill="currentColor"/>
<path d="M23.615 6.09H22.095V10.67H23.615V6.09Z" fill="currentColor"/>
<path d="M22.0951 0H20.5751V1.52H22.0951V0Z" fill="currentColor"/>
<path d="M20.575 19.81H19.045V24.38H20.575V19.81Z" fill="currentColor"/>
<path d="M20.575 1.51999H19.045V3.04999H20.575V1.51999Z" fill="currentColor"/>
<path d="M19.045 9.14001H15.995V10.67H19.045V9.14001Z" fill="currentColor"/>
<path d="M15.995 28.95H14.475V32H15.995V28.95Z" fill="currentColor"/>
<path d="M14.475 18.28H11.425V19.81H14.475V22.86H15.995V10.67H14.475V18.28Z" fill="currentColor"/>
<path d="M15.995 0H14.475V3.05H15.995V0Z" fill="currentColor"/>
<path d="M14.475 27.43H12.955V28.95H14.475V27.43Z" fill="currentColor"/>
<path d="M12.955 25.9H11.425V27.43H12.955V25.9Z" fill="currentColor"/>
<path d="M12.955 6.09001H11.425V10.67H12.955V9.14001H14.475V7.62001H19.045V6.09001H17.525V4.57001H12.955V6.09001Z" fill="currentColor"/>
<path d="M11.425 19.81H9.90503V25.9H11.425V19.81Z" fill="currentColor"/>
<path d="M11.425 1.51999H9.90503V3.04999H11.425V1.51999Z" fill="currentColor"/>
<path d="M9.90501 0H8.38501V1.52H9.90501V0Z" fill="currentColor"/>
<path d="M8.38498 18.28H6.85498V22.86H8.38498V18.28Z" fill="currentColor"/>
<path d="M8.38498 6.09H6.85498V10.67H8.38498V6.09Z" fill="currentColor"/>
<path d="M6.85503 22.86H2.28503V24.38H6.85503V22.86Z" fill="currentColor"/>
<path d="M6.85503 16.76H2.28503V18.28H6.85503V16.76Z" fill="currentColor"/>
<path d="M6.85503 10.67H2.28503V12.19H6.85503V10.67Z" fill="currentColor"/>
<path d="M6.85503 4.57001H2.28503V6.09001H6.85503V4.57001Z" fill="currentColor"/>
<path d="M2.28501 18.28H0.765015V22.86H2.28501V18.28Z" fill="currentColor"/>
<path d="M2.28501 6.09H0.765015V10.67H2.28501V6.09Z" fill="currentColor"/>
</g>
<defs>
<clipPath id="clip0_1128_14080">
<rect width="32" height="32" fill="white"/>
</clipPath>
</defs>
</svg>
