<svg width="32" height="32" viewBox="0 0 32 32" fill="none" xmlns="http://www.w3.org/2000/svg">
<path d="M29.71 6.1H28.19V30.48H29.71V6.1Z" fill="currentColor"/>
<path d="M28.19 30.48H3.81V32H28.19V30.48Z" fill="currentColor"/>
<path d="M12.95 22.86V28.96H26.67V22.86H12.95ZM25.14 25.91H23.62V27.43H20.57V25.91H19.05V24.38H20.57V25.91H23.62V24.38H25.14V25.91Z" fill="currentColor"/>
<path d="M20.57 15.24V21.34H26.67V15.24H20.57ZM25.14 19.81H22.09V16.77H25.14V19.81Z" fill="currentColor"/>
<path d="M20.57 7.62V13.72H26.67V7.62H20.57ZM25.14 12.19H22.09V9.15H25.14V12.19Z" fill="currentColor"/>
<path d="M22.09 1.53H12.95V3.05H22.09V1.53Z" fill="currentColor"/>
<path d="M19.05 21.34V15.24H12.95V21.34H19.05ZM14.48 16.77H17.52V19.81H14.48V16.77Z" fill="currentColor"/>
<path d="M19.05 13.72V7.62H12.95V13.72H19.05ZM14.48 9.15H17.52V12.19H14.48V9.15Z" fill="currentColor"/>
<path d="M12.95 0H11.43V1.53H12.95V0Z" fill="currentColor"/>
<path d="M5.32999 22.86V28.96H11.43V22.86H5.32999ZM9.89999 27.43H6.85999V24.38H9.89999V27.43Z" fill="currentColor"/>
<path d="M5.32999 15.24V21.34H11.43V15.24H5.32999ZM9.89999 19.81H6.85999V16.77H9.89999V19.81Z" fill="currentColor"/>
<path d="M5.32999 7.62V13.72H11.43V7.62H5.32999ZM9.89999 12.19H6.85999V9.15H9.89999V12.19Z" fill="currentColor"/>
<path d="M28.19 6.1V4.58H23.62V3.05H22.09V4.58H3.81V6.1H28.19Z" fill="currentColor"/>
<path d="M3.80999 6.1H2.28999V30.48H3.80999V6.1Z" fill="currentColor"/>
</svg>
