<svg width="32" height="32" viewBox="0 0 32 32" fill="none" xmlns="http://www.w3.org/2000/svg">
<g clip-path="url(#clip0_1128_13117)">
<path d="M31.24 23.62H29.72V26.67H31.24V23.62Z" fill="currentColor"/>
<path d="M31.24 14.47H29.72V17.52H31.24V14.47Z" fill="currentColor"/>
<path d="M31.24 5.32999H29.72V8.37999H31.24V5.32999Z" fill="currentColor"/>
<path d="M29.7201 26.67H11.4301V28.19H29.7201V26.67Z" fill="currentColor"/>
<path d="M29.7201 17.52H11.4301V19.05H29.7201V17.52Z" fill="currentColor"/>
<path d="M29.7201 8.38H11.4301V9.9H29.7201V8.38Z" fill="currentColor"/>
<path d="M29.7201 22.09H11.4301V23.62H29.7201V22.09Z" fill="currentColor"/>
<path d="M29.7201 12.95H11.4301V14.47H29.7201V12.95Z" fill="currentColor"/>
<path d="M29.7201 3.81H11.4301V5.33H29.7201V3.81Z" fill="currentColor"/>
<path d="M11.43 23.62H9.91003V26.67H11.43V23.62Z" fill="currentColor"/>
<path d="M11.43 14.47H9.91003V17.52H11.43V14.47Z" fill="currentColor"/>
<path d="M11.43 5.32999H9.91003V8.37999H11.43V5.32999Z" fill="currentColor"/>
<path d="M0.76001 26.67H2.29001V28.19H5.34001V26.67H6.86001V23.62H5.34001V22.09H2.29001V23.62H0.76001V26.67Z" fill="currentColor"/>
<path d="M0.76001 17.52H2.29001V19.05H5.34001V17.52H6.86001V14.47H5.34001V12.95H2.29001V14.47H0.76001V17.52Z" fill="currentColor"/>
<path d="M2.29001 5.33H0.76001V8.38H2.29001V9.9H5.34001V8.38H6.86001V5.33H5.34001V3.81H2.29001V5.33Z" fill="currentColor"/>
</g>
<defs>
<clipPath id="clip0_1128_13117">
<rect width="32" height="32" fill="white"/>
</clipPath>
</defs>
</svg>
