<svg width="32" height="32" viewBox="0 0 32 32" fill="none" xmlns="http://www.w3.org/2000/svg">
<g clip-path="url(#clip0_1128_6126)">
<path d="M31.995 27.429H30.475V28.949H31.995V27.429Z" fill="currentColor"/>
<path d="M31.995 1.51898H30.475V22.859H31.995V1.51898Z" fill="currentColor"/>
<path d="M30.475 28.949H28.955V30.479H30.475V28.949Z" fill="currentColor"/>
<path d="M30.475 25.909H28.955V27.429H30.475V25.909Z" fill="currentColor"/>
<path d="M30.475 -0.00100708H1.52502V1.51899H30.475V-0.00100708Z" fill="currentColor"/>
<path d="M28.955 30.479H27.425V31.999H28.955V30.479Z" fill="currentColor"/>
<path d="M28.955 24.379H27.425V25.909H28.955V24.379Z" fill="currentColor"/>
<path d="M28.955 19.809H27.425V21.329H28.955V19.809Z" fill="currentColor"/>
<path d="M28.955 15.239H22.855V16.759H28.955V15.239Z" fill="currentColor"/>
<path d="M27.425 28.949H25.905V30.479H27.425V28.949Z" fill="currentColor"/>
<path d="M27.425 22.859H25.905V24.379H27.425V22.859Z" fill="currentColor"/>
<path d="M25.905 27.429H24.385V28.949H25.905V27.429Z" fill="currentColor"/>
<path d="M25.905 21.329H24.385V22.859H25.905V21.329Z" fill="currentColor"/>
<path d="M24.385 25.909H22.855V27.429H24.385V25.909Z" fill="currentColor"/>
<path d="M24.385 19.809H22.855V21.329H24.385V19.809Z" fill="currentColor"/>
<path d="M22.855 24.379H21.335V25.909H22.855V24.379Z" fill="currentColor"/>
<path d="M22.855 18.289H21.335V19.809H22.855V18.289Z" fill="currentColor"/>
<path d="M21.335 22.859H19.805V24.379H21.335V22.859Z" fill="currentColor"/>
<path d="M21.335 16.759H19.805V18.289H21.335V16.759Z" fill="currentColor"/>
<path d="M19.805 21.329H18.285V22.859H19.805V21.329Z" fill="currentColor"/>
<path d="M18.285 19.809H16.765V21.329H18.285V19.809Z" fill="currentColor"/>
<path d="M28.955 4.569H15.235V6.099H28.955V4.569Z" fill="currentColor"/>
<path d="M19.805 16.759V15.239H15.235V19.809H16.765V16.759H19.805Z" fill="currentColor"/>
<path d="M28.955 9.13901H15.235V10.669H28.955V9.13901Z" fill="currentColor"/>
<path d="M13.715 3.04898H3.04498V13.719H13.715V3.04898ZM12.2 7.61898H10.67V6.09998H9.14498V10.67H10.665V12.19H6.09998V10.67H7.61998V6.09998H6.09998V7.61998H4.57498V4.56898H12.2V7.61898Z" fill="currentColor"/>
<path d="M12.195 15.239H3.04498V16.759H12.195V15.239Z" fill="currentColor"/>
<path d="M12.195 28.949V24.379H16.765V22.859H10.665V27.429H9.14502V28.949H12.195Z" fill="currentColor"/>
<path d="M12.195 19.809H3.04498V21.329H12.195V19.809Z" fill="currentColor"/>
<path d="M9.14499 25.909H7.61499V27.429H9.14499V25.909Z" fill="currentColor"/>
<path d="M7.61497 24.379H6.09497V25.909H7.61497V24.379Z" fill="currentColor"/>
<path d="M6.09502 22.859H1.52502V24.379H6.09502V22.859Z" fill="currentColor"/>
<path d="M1.525 1.51898H-0.00500488V22.859H1.525V1.51898Z" fill="currentColor"/>
</g>
<defs>
<clipPath id="clip0_1128_6126">
<rect width="32" height="32" fill="white"/>
</clipPath>
</defs>
</svg>
