<svg width="32" height="32" viewBox="0 0 32 32" fill="none" xmlns="http://www.w3.org/2000/svg">
<g clip-path="url(#clip0_1128_13672)">
<path d="M31.235 21.335H29.715V22.855H31.235V21.335Z" fill="currentColor"/>
<path d="M31.235 6.095H29.715V7.615H31.235V6.095Z" fill="currentColor"/>
<path d="M29.7151 18.285H28.1951V21.335H29.7151V18.285Z" fill="currentColor"/>
<path d="M29.7151 7.61499H28.1951V10.665H29.7151V7.61499Z" fill="currentColor"/>
<path d="M19.045 22.855V6.09498H29.715V4.57498H19.045V3.04498H17.525V19.805H2.28501V3.04498H0.765015V30.475H2.28501V21.335H14.475V22.855H16.005V24.375H29.715V22.855H19.045Z" fill="currentColor"/>
<path d="M28.195 15.235H26.665V18.285H28.195V15.235Z" fill="currentColor"/>
<path d="M28.195 10.665H26.665V13.715H28.195V10.665Z" fill="currentColor"/>
<path d="M26.665 13.715H25.145V15.235H26.665V13.715Z" fill="currentColor"/>
<path d="M17.525 1.52499H2.28503V3.04499H17.525V1.52499Z" fill="currentColor"/>
</g>
<defs>
<clipPath id="clip0_1128_13672">
<rect width="32" height="32" fill="white"/>
</clipPath>
</defs>
</svg>
