<svg width="32" height="32" viewBox="0 0 32 32" fill="none" xmlns="http://www.w3.org/2000/svg">
<g clip-path="url(#clip0_1128_11418)">
<path d="M30.4799 25.9H28.95V27.43H32V21.33H30.4799V25.9Z" fill="currentColor"/>
<path d="M28.95 4.57001V6.09001H30.4799V10.67H32V4.57001H28.95Z" fill="currentColor"/>
<path d="M30.4799 19.81H28.95V21.33H30.4799V19.81Z" fill="currentColor"/>
<path d="M30.4799 10.67H28.95V12.19H30.4799V10.67Z" fill="currentColor"/>
<path d="M28.9501 24.38H27.4301V25.9H28.9501V24.38Z" fill="currentColor"/>
<path d="M28.9501 6.09H27.4301V7.62H28.9501V6.09Z" fill="currentColor"/>
<path d="M22.86 22.86V27.43H24.38V28.95H25.91V30.48H21.34V32H28.95V28.95H27.43V27.43H25.91V24.38H27.43V22.86H22.86Z" fill="currentColor"/>
<path d="M28.95 12.19H22.86V13.71H28.95V12.19Z" fill="currentColor"/>
<path d="M25.91 3.05H24.38V4.57H25.91V3.05Z" fill="currentColor"/>
<path d="M22.86 9.14001H27.43V7.62001H24.38V4.57001H22.86V9.14001Z" fill="currentColor"/>
<path d="M25.91 1.52V3.05H27.43V0H21.34V1.52H25.91Z" fill="currentColor"/>
<path d="M21.3401 28.95H19.8101V30.48H21.3401V28.95Z" fill="currentColor"/>
<path d="M21.3401 19.81H19.8101V21.33H21.3401V19.81Z" fill="currentColor"/>
<path d="M19.8099 12.19H18.2899V9.14H15.2399V3.05H13.7199V1.52H12.1899V0H4.56995V3.05H6.09995V1.52H10.6699V3.05H12.1899V9.14H13.7199V10.67H15.2399V12.19H16.7599V13.71H18.2899V15.24H19.8099V16.76H21.3399V18.28H22.8599V19.81H28.9499V18.28H24.3799V16.76H22.8599V13.71H19.8099V12.19Z" fill="currentColor"/>
<path d="M21.3401 1.52H19.8101V3.05H21.3401V1.52Z" fill="currentColor"/>
<path d="M19.81 22.86H18.29V28.95H19.81V22.86Z" fill="currentColor"/>
<path d="M19.81 18.28H18.29V19.81H19.81V18.28Z" fill="currentColor"/>
<path d="M19.81 3.05H18.29V9.14H19.81V3.05Z" fill="currentColor"/>
<path d="M18.29 21.33H16.76V22.86H18.29V21.33Z" fill="currentColor"/>
<path d="M18.29 16.76H16.76V18.28H18.29V16.76Z" fill="currentColor"/>
<path d="M16.76 19.81H15.24V21.33H16.76V19.81Z" fill="currentColor"/>
<path d="M16.76 15.24H15.24V16.76H16.76V15.24Z" fill="currentColor"/>
<path d="M15.24 21.33H13.72V22.86H15.24V21.33Z" fill="currentColor"/>
<path d="M15.24 18.28H13.72V19.81H15.24V18.28Z" fill="currentColor"/>
<path d="M15.24 13.71H13.72V15.24H15.24V13.71Z" fill="currentColor"/>
<path d="M13.7199 22.86H12.1899V28.95H13.7199V22.86Z" fill="currentColor"/>
<path d="M13.7199 16.76H12.1899V18.28H13.7199V16.76Z" fill="currentColor"/>
<path d="M13.7199 12.19H12.1899V13.71H13.7199V12.19Z" fill="currentColor"/>
<path d="M12.19 28.95H10.67V30.48H12.19V28.95Z" fill="currentColor"/>
<path d="M12.19 15.24H10.67V16.76H12.19V15.24Z" fill="currentColor"/>
<path d="M12.19 10.67H10.67V12.19H12.19V10.67Z" fill="currentColor"/>
<path d="M10.67 16.76H9.15002V18.28H10.67V16.76Z" fill="currentColor"/>
<path d="M10.67 13.71H9.15002V15.24H10.67V13.71Z" fill="currentColor"/>
<path d="M6.09995 30.48V28.95H4.56995V32H10.6699V30.48H6.09995Z" fill="currentColor"/>
<path d="M9.14995 22.86H4.56995V24.38H7.61995V27.43H9.14995V22.86Z" fill="currentColor"/>
<path d="M9.15005 12.19H3.05005V13.71H9.15005V12.19Z" fill="currentColor"/>
<path d="M7.61998 27.43H6.09998V28.95H7.61998V27.43Z" fill="currentColor"/>
<path d="M7.61998 3.05H6.09998V4.57H7.61998V3.05Z" fill="currentColor"/>
<path d="M9.15005 18.28H3.05005V19.81H9.15005V18.28Z" fill="currentColor"/>
<path d="M9.14995 9.14001V4.57001H7.61995V7.62001H4.56995V9.14001H9.14995Z" fill="currentColor"/>
<path d="M4.57005 24.38H3.05005V25.9H4.57005V24.38Z" fill="currentColor"/>
<path d="M4.57005 6.09H3.05005V7.62H4.57005V6.09Z" fill="currentColor"/>
<path d="M3.05003 19.81H1.53003V21.33H3.05003V19.81Z" fill="currentColor"/>
<path d="M3.05003 10.67H1.53003V12.19H3.05003V10.67Z" fill="currentColor"/>
<path d="M1.53 21.33H0V27.43H3.05V25.9H1.53V21.33Z" fill="currentColor"/>
<path d="M1.53 6.09001H3.05V4.57001H0V10.67H1.53V6.09001Z" fill="currentColor"/>
</g>
<defs>
<clipPath id="clip0_1128_11418">
<rect width="32" height="32" fill="white"/>
</clipPath>
</defs>
</svg>
