<svg width="32" height="32" viewBox="0 0 32 32" fill="none" xmlns="http://www.w3.org/2000/svg">
<g clip-path="url(#clip0_1128_19949)">
<path d="M32 3.04999H30.47V28.95H32V3.04999Z" fill="currentColor"/>
<path d="M30.4699 28.95H28.95V30.48H30.4699V28.95Z" fill="currentColor"/>
<path d="M30.4699 1.51999H28.95V3.04999H30.4699V1.51999Z" fill="currentColor"/>
<path d="M28.95 30.48H3.04004V32H28.95V30.48Z" fill="currentColor"/>
<path d="M24.38 6.08999H22.85V4.56999H19.81V3.04999H13.71V4.56999H10.66V6.08999H9.13997V7.61999H7.60997V9.13999H6.08997V13.71H7.60997V15.24H9.13997V13.71H10.66V10.67H12.19V9.13999H19.81V10.67H21.33V13.71H19.81V16.76H18.28V18.29H15.23V16.76H16.76V13.71H15.23V12.19H12.19V13.71H10.66V16.76H9.13997V19.81H7.60997V22.86H6.08997V27.43H7.60997V28.95H9.13997V27.43H10.66V24.38H12.19V21.33H15.23V22.86H19.81V21.33H21.33V19.81H22.85V18.29H24.38V15.24H25.9V9.13999H24.38V6.08999Z" fill="currentColor"/>
<path d="M28.95 0H3.04004V1.52H28.95V0Z" fill="currentColor"/>
<path d="M3.04002 28.95H1.52002V30.48H3.04002V28.95Z" fill="currentColor"/>
<path d="M3.04002 1.51999H1.52002V3.04999H3.04002V1.51999Z" fill="currentColor"/>
<path d="M1.52 3.04999H0V28.95H1.52V3.04999Z" fill="currentColor"/>
</g>
<defs>
<clipPath id="clip0_1128_19949">
<rect width="32" height="32" fill="white"/>
</clipPath>
</defs>
</svg>
