<svg width="32" height="32" viewBox="0 0 32 32" fill="none" xmlns="http://www.w3.org/2000/svg">
<path d="M30.4751 3.05005H28.9551V4.57005H30.4751V3.05005Z" fill="currentColor"/>
<path d="M27.4351 19.81H21.3351V15.24H19.8151V19.81H12.1951V15.24H10.6651V19.81H4.57505V16.77H3.05505V21.34H15.2451V30.48H16.7651V21.34H28.9551V16.77H27.4351V19.81Z" fill="currentColor"/>
<path d="M30.4751 9.15002H27.4351V12.19H30.4751V9.15002Z" fill="currentColor"/>
<path d="M27.435 13.72H25.905V16.77H27.435V13.72Z" fill="currentColor"/>
<path d="M27.435 0H25.905V1.53H27.435V0Z" fill="currentColor"/>
<path d="M25.905 12.1899H24.385V13.7199H25.905V12.1899Z" fill="currentColor"/>
<path d="M24.385 6.09998H22.855V7.61998H24.385V6.09998Z" fill="currentColor"/>
<path d="M24.3851 10.67H21.3351V12.19H24.3851V10.67Z" fill="currentColor"/>
<path d="M21.335 1.53003H18.285V4.57003H21.335V1.53003Z" fill="currentColor"/>
<path d="M19.815 12.1899H18.285V15.2399H19.815V12.1899Z" fill="currentColor"/>
<path d="M15.2451 30.48H12.1951V32H15.2451V30.48Z" fill="currentColor"/>
<path d="M13.7151 12.1899H12.1951V15.2399H13.7151V12.1899Z" fill="currentColor"/>
<path d="M13.715 12.19H15.245V10.67H16.765V12.19H18.285V10.67H21.335V9.14999H16.765V7.62H15.245V9.14999H10.665V10.67H13.715V12.19Z" fill="currentColor"/>
<path d="M13.7151 3.05005H12.1951V4.57005H13.7151V3.05005Z" fill="currentColor"/>
<path d="M12.195 28.96H10.665V30.48H12.195V28.96Z" fill="currentColor"/>
<path d="M10.665 10.67H7.625V12.19H10.665V10.67Z" fill="currentColor"/>
<path d="M9.145 0H7.625V1.53H9.145V0Z" fill="currentColor"/>
<path d="M7.62497 12.1899H6.09497V13.7199H7.62497V12.1899Z" fill="currentColor"/>
<path d="M6.09507 13.72H4.57507V16.77H6.09507V13.72Z" fill="currentColor"/>
<path d="M7.62507 6.09998H4.57507V9.14998H7.62507V6.09998Z" fill="currentColor"/>
<path d="M4.57505 1.53003H3.05505V3.05003H4.57505V1.53003Z" fill="currentColor"/>
<path d="M3.05502 9.15002H1.52502V10.67H3.05502V9.15002Z" fill="currentColor"/>
</svg>
