<svg width="32" height="32" viewBox="0 0 32 32" fill="none" xmlns="http://www.w3.org/2000/svg">
<g clip-path="url(#clip0_1128_11678)">
<path d="M32 19.045H30.47V25.135H32V19.045Z" fill="currentColor"/>
<path d="M30.4699 25.135H28.95V26.665H30.4699V25.135Z" fill="currentColor"/>
<path d="M27.4301 15.995V17.525H28.9501V19.045H30.4701V12.945H28.9501V15.995H27.4301Z" fill="currentColor"/>
<path d="M28.9501 26.665H27.4301V28.185H28.9501V26.665Z" fill="currentColor"/>
<path d="M28.9501 8.375H27.4301V12.945H28.9501V8.375Z" fill="currentColor"/>
<path d="M27.4301 17.525H21.3301V19.045H25.9001V20.565H24.3801V22.095H22.8501V23.615H21.3301V19.045H19.8101V25.135H21.3301V26.665H27.4301V25.135H28.9501V19.045H27.4301V17.525Z" fill="currentColor"/>
<path d="M27.43 3.80501H25.9V8.37501H27.43V3.80501Z" fill="currentColor"/>
<path d="M27.43 28.185H21.33V29.715H27.43V28.185Z" fill="currentColor"/>
<path d="M27.43 14.475H21.33V15.995H27.43V14.475Z" fill="currentColor"/>
<path d="M21.3301 26.665H19.8101V28.185H21.3301V26.665Z" fill="currentColor"/>
<path d="M21.3301 15.995H19.8101V17.525H21.3301V15.995Z" fill="currentColor"/>
<path d="M25.9 2.285H18.28V3.805H25.9V2.285Z" fill="currentColor"/>
<path d="M19.81 25.135H18.28V26.665H19.81V25.135Z" fill="currentColor"/>
<path d="M18.28 19.045H19.81V17.525H16.76V25.135H18.28V19.045Z" fill="currentColor"/>
<path d="M19.8099 11.425H18.2799V9.905H13.7099V11.425H12.1899V12.945H13.7099V14.475H18.2799V12.945H19.8099V11.425Z" fill="currentColor"/>
<path d="M16.76 15.995H15.24V17.525H16.76V15.995Z" fill="currentColor"/>
<path d="M13.71 8.37501H18.28V3.80501H16.76V6.85501H15.24V3.80501H13.71V8.37501Z" fill="currentColor"/>
<path d="M13.7099 25.135H12.1899V26.665H13.7099V25.135Z" fill="currentColor"/>
<path d="M12.1899 19.045H13.7099V25.135H15.2399V17.525H12.1899V19.045Z" fill="currentColor"/>
<path d="M12.19 26.665H10.66V28.185H12.19V26.665Z" fill="currentColor"/>
<path d="M12.19 15.995H10.66V17.525H12.19V15.995Z" fill="currentColor"/>
<path d="M10.66 17.525H4.57005V19.045H9.14005V20.565H7.62005V22.095H6.09005V23.615H4.57005V19.045H3.05005V25.135H4.57005V26.665H10.66V25.135H12.19V19.045H10.66V17.525Z" fill="currentColor"/>
<path d="M10.6599 28.185H4.56995V29.715H10.6599V28.185Z" fill="currentColor"/>
<path d="M13.71 2.285H6.08997V3.805H13.71V2.285Z" fill="currentColor"/>
<path d="M10.6599 14.475H4.56995V15.995H10.6599V14.475Z" fill="currentColor"/>
<path d="M6.08995 3.80501H4.56995V8.37501H6.08995V3.80501Z" fill="currentColor"/>
<path d="M4.57005 26.665H3.05005V28.185H4.57005V26.665Z" fill="currentColor"/>
<path d="M4.57005 8.375H3.05005V12.945H4.57005V8.375Z" fill="currentColor"/>
<path d="M3.05002 25.135H1.52002V26.665H3.05002V25.135Z" fill="currentColor"/>
<path d="M3.05002 17.525H4.57002V15.995H3.05002V12.945H1.52002V19.045H3.05002V17.525Z" fill="currentColor"/>
<path d="M1.52 19.045H0V25.135H1.52V19.045Z" fill="currentColor"/>
</g>
<defs>
<clipPath id="clip0_1128_11678">
<rect width="32" height="32" fill="white"/>
</clipPath>
</defs>
</svg>
