<svg width="32" height="32" viewBox="0 0 32 32" fill="none" xmlns="http://www.w3.org/2000/svg">
<g clip-path="url(#clip0_1128_3881)">
<path d="M28.949 18.285V13.715H27.429V15.235H24.379V13.715H22.859V18.285H19.809V16.765H21.329V15.235H19.809V12.2H18.289V15.24H12.189V13.72H10.669V18.29H9.13904V32H10.669V19.805H13.719V22.855H18.289V19.805H22.859V21.335H27.429V19.805H30.479V32H32V18.285H28.949ZM18.289 18.285H16.759V21.335H15.239V18.285H12.189V16.765H18.289V18.285ZM27.429 18.285H25.909V19.805H24.379V16.765H27.429V18.285Z" fill="currentColor"/>
<path d="M27.429 24.385H24.379V27.425H27.429V24.385Z" fill="currentColor"/>
<path d="M24.379 28.955H21.329V31.995H24.379V28.955Z" fill="currentColor"/>
<path d="M21.329 24.385H18.289V27.425H21.329V24.385Z" fill="currentColor"/>
<path d="M18.289 28.955H15.239V31.995H18.289V28.955Z" fill="currentColor"/>
<path d="M15.239 24.385H12.189V27.425H15.239V24.385Z" fill="currentColor"/>
<path d="M27.429 9.145V12.195H28.949V9.145H30.479V7.615H28.949V6.095H27.429V7.615H9.13902V6.095H27.429V4.575H7.61902V1.525H6.09902V4.575H4.56902V1.525H6.09902V-0.00500488H3.04902V4.575H-0.000976562V6.095H1.51902V9.145H3.04902V6.095H7.61902V9.145H27.429Z" fill="currentColor"/>
<path d="M3.04901 9.14502V31.995H4.56901V10.665H6.09901V31.995H7.61901V9.14502H3.04901Z" fill="currentColor"/>
</g>
<defs>
<clipPath id="clip0_1128_3881">
<rect width="32" height="32" fill="white"/>
</clipPath>
</defs>
</svg>
