<svg width="32" height="32" viewBox="0 0 32 32" fill="none" xmlns="http://www.w3.org/2000/svg">
<path d="M28.19 7.62H26.66V19.81H28.19V7.62Z" fill="currentColor"/>
<path d="M26.66 19.8101H25.14V24.3901H26.66V19.8101Z" fill="currentColor"/>
<path d="M23.62 27.43H9.89998V25.91H8.37998V27.43H6.84998V32H26.66V27.43H25.14V24.39H23.62V27.43ZM23.62 30.48H20.57V28.96H23.62V30.48Z" fill="currentColor"/>
<path d="M22.09 15.24H23.62V7.61996H26.66V6.09996H23.62V4.57996H22.09V15.24Z" fill="currentColor"/>
<path d="M17.52 15.24H19.05V4.58003H22.09V3.05003H19.05V1.53003H17.52V15.24Z" fill="currentColor"/>
<path d="M17.52 16.77H16V19.81H17.52V16.77Z" fill="currentColor"/>
<path d="M17.52 0H14.47V1.53H17.52V0Z" fill="currentColor"/>
<path d="M16 15.24H14.47V16.77H16V15.24Z" fill="currentColor"/>
<path d="M16 19.8101H11.43V21.3401H16V19.8101Z" fill="currentColor"/>
<path d="M12.95 13.72H11.43V15.24H14.47V1.53003H9.90002V3.05003H12.95V13.72Z" fill="currentColor"/>
<path d="M11.43 18.29H9.90002V19.81H11.43V18.29Z" fill="currentColor"/>
<path d="M11.43 13.72V12.19H9.89998V3.05005H8.37998V12.19H6.84998V13.72H11.43Z" fill="currentColor"/>
<path d="M8.37998 24.39H6.84998V25.91H8.37998V24.39Z" fill="currentColor"/>
<path d="M6.85002 21.34H5.33002V24.39H6.85002V21.34Z" fill="currentColor"/>
<path d="M6.85002 13.72H5.33002V15.24H6.85002V13.72Z" fill="currentColor"/>
<path d="M5.33 15.24H3.81V21.34H5.33V15.24Z" fill="currentColor"/>
</svg>
