<svg width="32" height="32" viewBox="0 0 32 32" fill="none" xmlns="http://www.w3.org/2000/svg">
<g clip-path="url(#clip0_1128_5206)">
<path d="M32 1.53003H30.48V30.48H32V1.53003Z" fill="currentColor"/>
<path d="M30.48 30.48H1.52002V32H30.48V30.48Z" fill="currentColor"/>
<path d="M27.43 24.39H25.9V25.91H27.43V24.39Z" fill="currentColor"/>
<path d="M3.05005 3.04999V19.81H28.9501V3.04999H3.05005ZM27.43 18.29H4.57005V4.57999H27.43V18.29Z" fill="currentColor"/>
<path d="M25.9 25.91H24.38V27.43H25.9V25.91Z" fill="currentColor"/>
<path d="M25.9 22.86H24.38V24.39H25.9V22.86Z" fill="currentColor"/>
<path d="M24.38 12.19H25.9V10.67H24.38V9.15002H22.86V13.72H21.33V15.24H24.38V12.19Z" fill="currentColor"/>
<path d="M22.86 22.86H21.33V27.43H22.86V22.86Z" fill="currentColor"/>
<path d="M18.29 9.14998H16.76V10.67H19.81V6.09998H15.24V7.61998H18.29V9.14998Z" fill="currentColor"/>
<path d="M16.76 22.86H15.24V21.34H13.71V28.96H15.24V27.43H16.76V25.91H18.29V24.39H16.76V22.86Z" fill="currentColor"/>
<path d="M15.2399 7.62H13.7099V10.67H12.1899V12.19H15.2399V7.62Z" fill="currentColor"/>
<path d="M10.67 22.86H9.14001V27.43H10.67V22.86Z" fill="currentColor"/>
<path d="M9.13998 9.15002H7.61998V13.72H6.09998V15.24H9.13998V9.15002Z" fill="currentColor"/>
<path d="M7.61998 25.91H6.09998V27.43H7.61998V25.91Z" fill="currentColor"/>
<path d="M7.61998 22.86H6.09998V24.39H7.61998V22.86Z" fill="currentColor"/>
<path d="M6.09995 24.39H4.56995V25.91H6.09995V24.39Z" fill="currentColor"/>
<path d="M30.48 0H1.52002V1.53H30.48V0Z" fill="currentColor"/>
<path d="M1.52 1.53003H0V30.48H1.52V1.53003Z" fill="currentColor"/>
</g>
<defs>
<clipPath id="clip0_1128_5206">
<rect width="32" height="32" fill="white"/>
</clipPath>
</defs>
</svg>
