<svg width="32" height="32" viewBox="0 0 32 32" fill="none" xmlns="http://www.w3.org/2000/svg">
<g clip-path="url(#clip0_1128_3891)">
<path d="M29.72 9.14999H5.34V7.62H3.81V22.86H5.34V10.67H29.72V24.39H26.67V13.72H25.15V19.81H23.62V15.24H16V19.81H12.96V22.86H14.48V21.34H16V22.86H17.53V21.34H19.05V24.39H14.48V25.91H31.24V7.62H29.72V9.14999ZM17.53 19.81V16.77H19.05V18.29H20.57V16.77H22.1V19.81H17.53ZM25.15 24.39H20.57V21.34H22.1V22.86H23.62V21.34H25.15V24.39Z" fill="currentColor"/>
<path d="M29.72 6.09998H28.19V7.61998H29.72V6.09998Z" fill="currentColor"/>
<path d="M28.19 4.57996H26.67V6.09996H28.19V4.57996Z" fill="currentColor"/>
<path d="M26.67 3.05005H25.15V4.58005H26.67V3.05005Z" fill="currentColor"/>
<path d="M25.15 12.2H9.91003V13.72H25.15V12.2Z" fill="currentColor"/>
<path d="M25.15 1.53003H22.1V3.05003H25.15V1.53003Z" fill="currentColor"/>
<path d="M20.57 3.05005H14.48V4.58005H20.57V3.05005Z" fill="currentColor"/>
<path d="M22.1 0H12.96V1.53H22.1V0Z" fill="currentColor"/>
<path d="M23.62 6.09998H11.43V7.61998H23.62V6.09998Z" fill="currentColor"/>
<path d="M12.96 1.53003H9.91003V3.05003H12.96V1.53003Z" fill="currentColor"/>
<path d="M0.76001 24.39V32H12.96V24.39H0.76001ZM6.86001 30.48H2.29001V25.91H3.81001V27.43H5.34001V25.91H6.86001V30.48Z" fill="currentColor"/>
<path d="M9.91 13.72H8.38V22.86H9.91V13.72Z" fill="currentColor"/>
<path d="M9.91 3.05005H8.38V4.58005H9.91V3.05005Z" fill="currentColor"/>
<path d="M8.37999 4.57996H6.85999V6.09996H8.37999V4.57996Z" fill="currentColor"/>
<path d="M6.86003 6.09998H5.34003V7.61998H6.86003V6.09998Z" fill="currentColor"/>
</g>
<defs>
<clipPath id="clip0_1128_3891">
<rect width="32" height="32" fill="white"/>
</clipPath>
</defs>
</svg>
