<svg width="32" height="32" viewBox="0 0 32 32" fill="none" xmlns="http://www.w3.org/2000/svg">
<g clip-path="url(#clip0_1128_19761)">
<path d="M32 12.19H30.47V19.81H32V12.19Z" fill="currentColor"/>
<path d="M30.47 19.81H28.95V22.86H30.47V19.81Z" fill="currentColor"/>
<path d="M30.47 9.14001H28.95V12.19H30.47V9.14001Z" fill="currentColor"/>
<path d="M28.95 22.86H27.42V25.9H28.95V22.86Z" fill="currentColor"/>
<path d="M28.95 6.09H27.42V9.14H28.95V6.09Z" fill="currentColor"/>
<path d="M27.42 25.9H25.9V27.43H27.42V25.9Z" fill="currentColor"/>
<path d="M27.42 4.57001H25.9V6.09001H27.42V4.57001Z" fill="currentColor"/>
<path d="M25.9 27.43H22.85V28.95H25.9V27.43Z" fill="currentColor"/>
<path d="M24.38 18.29H22.85V19.81H24.38V18.29Z" fill="currentColor"/>
<path d="M6.09003 7.62V19.81H7.61003V22.86H9.14003V25.9H12.19V24.38H10.66V19.81H9.14003V10.67H24.38V18.29H25.9V7.62H6.09003Z" fill="currentColor"/>
<path d="M25.9 3.04999H22.85V4.56999H25.9V3.04999Z" fill="currentColor"/>
<path d="M22.85 19.81H21.33V21.33H22.85V19.81Z" fill="currentColor"/>
<path d="M22.85 28.95H19.81V30.48H22.85V28.95Z" fill="currentColor"/>
<path d="M21.33 12.19H19.81V18.29H21.33V12.19Z" fill="currentColor"/>
<path d="M22.85 1.51999H19.81V3.04999H22.85V1.51999Z" fill="currentColor"/>
<path d="M21.33 21.33H13.71V22.86H21.33V21.33Z" fill="currentColor"/>
<path d="M19.81 30.48H12.19V32H19.81V30.48Z" fill="currentColor"/>
<path d="M16.76 12.19H15.23V18.29H16.76V12.19Z" fill="currentColor"/>
<path d="M19.81 0H12.19V1.52H19.81V0Z" fill="currentColor"/>
<path d="M13.71 22.86H12.19V24.38H13.71V22.86Z" fill="currentColor"/>
<path d="M12.19 28.95H9.14001V30.48H12.19V28.95Z" fill="currentColor"/>
<path d="M12.19 1.51999H9.14001V3.04999H12.19V1.51999Z" fill="currentColor"/>
<path d="M9.14003 27.43H6.09003V28.95H9.14003V27.43Z" fill="currentColor"/>
<path d="M9.14003 3.04999H6.09003V4.56999H9.14003V3.04999Z" fill="currentColor"/>
<path d="M6.09001 25.9H4.57001V27.43H6.09001V25.9Z" fill="currentColor"/>
<path d="M6.09001 4.57001H4.57001V6.09001H6.09001V4.57001Z" fill="currentColor"/>
<path d="M4.56998 22.86H3.03998V25.9H4.56998V22.86Z" fill="currentColor"/>
<path d="M4.56998 6.09H3.03998V9.14H4.56998V6.09Z" fill="currentColor"/>
<path d="M3.04002 19.81H1.52002V22.86H3.04002V19.81Z" fill="currentColor"/>
<path d="M3.04002 9.14001H1.52002V12.19H3.04002V9.14001Z" fill="currentColor"/>
<path d="M1.52 12.19H0V19.81H1.52V12.19Z" fill="currentColor"/>
</g>
<defs>
<clipPath id="clip0_1128_19761">
<rect width="32" height="32" fill="white"/>
</clipPath>
</defs>
</svg>
