<svg width="32" height="32" viewBox="0 0 32 32" fill="none" xmlns="http://www.w3.org/2000/svg">
<path d="M24.38 10.67H22.86V3.05005H21.33V16.76H22.86V12.19H24.38V18.29H25.9V9.15005H24.38V10.67Z" fill="currentColor"/>
<path d="M24.38 18.29H22.86V19.81H24.38V18.29Z" fill="currentColor"/>
<path d="M22.86 19.8101H21.33V21.3401H22.86V19.8101Z" fill="currentColor"/>
<path d="M21.33 16.76H19.81V18.29H21.33V16.76Z" fill="currentColor"/>
<path d="M21.33 1.53003H19.81V3.05003H21.33V1.53003Z" fill="currentColor"/>
<path d="M10.67 21.34V22.86H15.24V27.43H10.67V28.96H7.62V32H24.38V28.96H21.33V27.43H16.76V22.86H21.33V21.34H10.67Z" fill="currentColor"/>
<path d="M19.81 7.62H18.29V9.14999H19.81V7.62Z" fill="currentColor"/>
<path d="M19.81 4.56995H18.29V6.09995H19.81V4.56995Z" fill="currentColor"/>
<path d="M19.81 18.29H12.19V19.81H19.81V18.29Z" fill="currentColor"/>
<path d="M16.76 9.15002H15.24V10.67H16.76V9.15002Z" fill="currentColor"/>
<path d="M16.76 6.09998H15.24V7.61998H16.76V6.09998Z" fill="currentColor"/>
<path d="M16.76 3.05005H15.24V4.57005H16.76V3.05005Z" fill="currentColor"/>
<path d="M19.81 0H12.19V1.53H19.81V0Z" fill="currentColor"/>
<path d="M13.71 7.62H12.19V9.14999H13.71V7.62Z" fill="currentColor"/>
<path d="M13.71 4.56995H12.19V6.09995H13.71V4.56995Z" fill="currentColor"/>
<path d="M12.19 16.76H10.67V18.29H12.19V16.76Z" fill="currentColor"/>
<path d="M12.19 1.53003H10.67V3.05003H12.19V1.53003Z" fill="currentColor"/>
<path d="M10.67 19.8101H9.13995V21.3401H10.67V19.8101Z" fill="currentColor"/>
<path d="M9.14 18.29H7.62V19.81H9.14V18.29Z" fill="currentColor"/>
<path d="M7.61998 12.19H9.13998V16.76H10.67V3.05005H9.13998V10.67H7.61998V9.15005H6.09998V18.29H7.61998V12.19Z" fill="currentColor"/>
</svg>
