<svg width="32" height="32" viewBox="0 0 32 32" fill="none" xmlns="http://www.w3.org/2000/svg">
<path d="M30.475 5.33496H28.955V17.525H30.475V5.33496Z" fill="currentColor"/>
<path d="M28.955 17.525H27.425V25.145H28.955V17.525Z" fill="currentColor"/>
<path d="M28.955 3.815H27.425V5.335H28.955V3.815Z" fill="currentColor"/>
<path d="M27.425 25.145H25.905V28.195H27.425V25.145Z" fill="currentColor"/>
<path d="M27.425 9.90497H25.905V14.485H27.425V9.90497Z" fill="currentColor"/>
<path d="M25.905 8.38495H24.385V9.90495H25.905V8.38495Z" fill="currentColor"/>
<path d="M25.905 28.1949H22.855V29.7149H25.905V28.1949Z" fill="currentColor"/>
<path d="M24.385 6.86499H21.335V8.38499H24.385V6.86499Z" fill="currentColor"/>
<path d="M22.855 23.625H21.335V28.195H22.855V23.625Z" fill="currentColor"/>
<path d="M21.335 22.095H19.805V23.625H21.335V22.095Z" fill="currentColor"/>
<path d="M27.425 2.28497H18.285V3.81497H27.425V2.28497Z" fill="currentColor"/>
<path d="M19.805 20.575H12.195V22.0949H19.805V20.575Z" fill="currentColor"/>
<path d="M19.805 14.485H18.285V16.005H19.805V14.485Z" fill="currentColor"/>
<path d="M19.805 11.435H18.285V12.955H19.805V11.435Z" fill="currentColor"/>
<path d="M18.285 16.0049H13.715V17.5249H18.285V16.0049Z" fill="currentColor"/>
<path d="M18.285 3.815H13.715V5.335H18.285V3.815Z" fill="currentColor"/>
<path d="M13.715 14.485H12.195V16.005H13.715V14.485Z" fill="currentColor"/>
<path d="M13.715 11.435H12.195V12.955H13.715V11.435Z" fill="currentColor"/>
<path d="M12.195 22.095H10.665V23.625H12.195V22.095Z" fill="currentColor"/>
<path d="M10.665 23.625H9.145V28.195H10.665V23.625Z" fill="currentColor"/>
<path d="M9.145 28.1949H6.095V29.7149H9.145V28.1949Z" fill="currentColor"/>
<path d="M13.715 2.28497H4.575V3.81497H13.715V2.28497Z" fill="currentColor"/>
<path d="M6.095 25.145H4.575V28.195H6.095V25.145Z" fill="currentColor"/>
<path d="M4.575 17.525H3.045V25.145H4.575V17.525Z" fill="currentColor"/>
<path d="M4.575 3.815H3.045V5.335H4.575V3.815Z" fill="currentColor"/>
<path d="M3.045 5.33496H1.525V17.525H3.045V5.33496Z" fill="currentColor"/>
</svg>
