<svg width="32" height="32" viewBox="0 0 32 32" fill="none" xmlns="http://www.w3.org/2000/svg">
<path d="M31.235 15.24H29.715V24.38H31.235V15.24Z" fill="currentColor"/>
<path d="M29.715 13.72H28.195V15.24H29.715V13.72Z" fill="currentColor"/>
<path d="M28.195 18.29H26.665V21.33H22.095V18.29H20.575V24.38H19.045V25.91H20.575V32H23.625V27.43H25.145V32H28.195V25.91H29.715V24.38H28.195V18.29Z" fill="currentColor"/>
<path d="M28.195 12.19H26.665V13.72H28.195V12.19Z" fill="currentColor"/>
<path d="M28.195 9.14001H26.665V10.67H28.195V9.14001Z" fill="currentColor"/>
<path d="M25.145 13.72H23.625V18.29H25.145V13.72Z" fill="currentColor"/>
<path d="M26.665 10.67H22.095V12.19H26.665V10.67Z" fill="currentColor"/>
<path d="M22.095 12.19H20.575V13.72H22.095V12.19Z" fill="currentColor"/>
<path d="M22.095 9.14001H20.575V10.67H22.095V9.14001Z" fill="currentColor"/>
<path d="M20.575 13.72H19.045V15.24H20.575V13.72Z" fill="currentColor"/>
<path d="M22.095 6.1V4.57H26.665V6.1H28.195V9.14H29.715V3.05H28.195V1.52H26.665V0H22.095V1.52H20.575V3.05H19.045V9.14H20.575V6.1H22.095Z" fill="currentColor"/>
<path d="M19.045 15.24H17.525V24.38H19.045V15.24Z" fill="currentColor"/>
<path d="M17.525 27.43H16.005V28.95H17.525V27.43Z" fill="currentColor"/>
<path d="M17.525 3.04999H16.005V4.56999H17.525V3.04999Z" fill="currentColor"/>
<path d="M16.005 25.91H12.955V27.43H16.005V25.91Z" fill="currentColor"/>
<path d="M16.005 4.57001H12.955V6.10001H16.005V4.57001Z" fill="currentColor"/>
<path d="M17.525 0H12.955V1.52H17.525V0Z" fill="currentColor"/>
<path d="M17.525 30.48H12.955V32H17.525V30.48Z" fill="currentColor"/>
<path d="M3.815 22.86V25.91H5.335V24.38H11.425V25.91H12.955V24.38H14.475V22.86H9.905V19.81H8.385V22.86H3.815Z" fill="currentColor"/>
<path d="M12.955 1.51999H9.90503V3.04999H12.955V1.51999Z" fill="currentColor"/>
<path d="M12.955 28.95H9.90503V30.48H12.955V28.95Z" fill="currentColor"/>
<path d="M9.90504 3.04999H6.85504V4.56999H9.90504V3.04999Z" fill="currentColor"/>
<path d="M9.90504 27.43H6.85504V28.95H9.90504V27.43Z" fill="currentColor"/>
<path d="M6.85502 25.91H5.33502V27.43H6.85502V25.91Z" fill="currentColor"/>
<path d="M3.815 9.14001H8.385V12.19H9.905V9.14001H17.525V7.62001H12.955V6.10001H11.425V7.62001H5.335V6.10001H3.815V9.14001Z" fill="currentColor"/>
<path d="M6.85502 4.57001H5.33502V6.10001H6.85502V4.57001Z" fill="currentColor"/>
<path d="M3.81503 19.81H2.28503V22.86H3.81503V19.81Z" fill="currentColor"/>
<path d="M3.81503 9.14001H2.28503V12.19H3.81503V9.14001Z" fill="currentColor"/>
<path d="M6.85501 15.24H2.28501V12.19H0.765015V19.81H2.28501V16.76H6.85501V19.81H8.38502V16.76H14.475V15.24H8.38502V12.19H6.85501V15.24Z" fill="currentColor"/>
</svg>
