<svg width="32" height="32" viewBox="0 0 32 32" fill="none" xmlns="http://www.w3.org/2000/svg">
<path d="M29.7149 7.62H28.1949V24.38H29.7149V7.62Z" fill="currentColor"/>
<path d="M28.1949 24.38H26.6649V25.9H28.1949V24.38Z" fill="currentColor"/>
<path d="M28.1949 6.09H26.6649V7.62H28.1949V6.09Z" fill="currentColor"/>
<path d="M26.665 4.57001H20.575V6.09001H26.665V4.57001Z" fill="currentColor"/>
<path d="M20.5749 25.9V21.33H19.0449V22.86H17.5249V24.38H16.0049V25.9H14.4749V27.43H16.0049V28.95H17.5249V30.48H19.0449V32H20.5749V27.43H26.6649V25.9H20.5749Z" fill="currentColor"/>
<path d="M14.475 7.62H16.005V6.09H17.525V4.57H16.005V3.05H14.475V1.52H12.955V0H11.435V4.57H5.33496V6.09H11.435V10.67H12.955V9.14H14.475V7.62Z" fill="currentColor"/>
<path d="M11.435 25.9H5.33496V27.43H11.435V25.9Z" fill="currentColor"/>
<path d="M5.33494 24.38H3.81494V25.9H5.33494V24.38Z" fill="currentColor"/>
<path d="M5.33494 6.09H3.81494V7.62H5.33494V6.09Z" fill="currentColor"/>
<path d="M3.81491 7.62H2.28491V24.38H3.81491V7.62Z" fill="currentColor"/>
</svg>
