<svg width="32" height="32" viewBox="0 0 32 32" fill="none" xmlns="http://www.w3.org/2000/svg">
<g clip-path="url(#clip0_1128_19978)">
<path d="M25.91 14.47H22.86V16H21.34V19.05H22.86V20.57H25.91V19.05H27.43V16H25.91V14.47Z" fill="currentColor"/>
<path d="M30.4799 14.47H28.95V16H30.4799V14.47Z" fill="currentColor"/>
<path d="M28.9501 12.95H27.4301V14.47H28.9501V12.95Z" fill="currentColor"/>
<path d="M27.43 11.43H21.34V12.95H27.43V11.43Z" fill="currentColor"/>
<path d="M21.3401 12.95H19.8101V14.47H21.3401V12.95Z" fill="currentColor"/>
<path d="M19.81 14.47H18.29V16H19.81V14.47Z" fill="currentColor"/>
<path d="M32 16H30.48V22.09H32V16Z" fill="currentColor"/>
<path d="M30.4799 22.09H28.95V25.14H30.4799V22.09Z" fill="currentColor"/>
<path d="M28.9501 25.14H27.4301V28.19H28.9501V25.14Z" fill="currentColor"/>
<path d="M27.43 28.19H25.91V29.71H27.43V28.19Z" fill="currentColor"/>
<path d="M25.91 29.71H22.86V31.24H25.91V29.71Z" fill="currentColor"/>
<path d="M22.86 28.19H21.34V29.71H22.86V28.19Z" fill="currentColor"/>
<path d="M21.3401 25.14H19.8101V28.19H21.3401V25.14Z" fill="currentColor"/>
<path d="M19.81 22.09H18.29V25.14H19.81V22.09Z" fill="currentColor"/>
<path d="M19.81 29.71H16.76V31.24H19.81V29.71Z" fill="currentColor"/>
<path d="M18.29 16H16.76V22.09H18.29V16Z" fill="currentColor"/>
<path d="M15.24 5.33002H13.72V11.43H15.24V5.33002Z" fill="currentColor"/>
<path d="M15.2399 29.71H12.1899V31.24H15.2399V29.71Z" fill="currentColor"/>
<path d="M13.7199 11.43H12.1899V14.47H13.7199V11.43Z" fill="currentColor"/>
<path d="M13.7199 3.81H12.1899V5.33H13.7199V3.81Z" fill="currentColor"/>
<path d="M12.19 14.47H10.67V17.52H12.19V14.47Z" fill="currentColor"/>
<path d="M12.19 2.28003H10.67V3.81003H12.19V2.28003Z" fill="currentColor"/>
<path d="M10.67 17.52H9.14001V19.05H10.67V17.52Z" fill="currentColor"/>
<path d="M10.67 29.71H7.62V31.24H10.67V29.71Z" fill="currentColor"/>
<path d="M9.13995 3.81H6.09995V5.33H4.56995V8.38H6.09995V9.9H9.13995V8.38H10.6699V5.33H9.13995V3.81Z" fill="currentColor"/>
<path d="M7.61998 26.67H6.09998V29.71H7.61998V26.67Z" fill="currentColor"/>
<path d="M7.61998 22.09H6.09998V25.14H7.61998V22.09Z" fill="currentColor"/>
<path d="M9.13998 19.05H6.09998V20.57H9.13998V19.05Z" fill="currentColor"/>
<path d="M10.6699 0.76001H4.56995V2.28001H10.6699V0.76001Z" fill="currentColor"/>
<path d="M6.09995 17.52H4.56995V19.05H6.09995V17.52Z" fill="currentColor"/>
<path d="M4.57005 14.47H3.05005V17.52H4.57005V14.47Z" fill="currentColor"/>
<path d="M4.57005 2.28003H3.05005V3.81003H4.57005V2.28003Z" fill="currentColor"/>
<path d="M3.05003 11.43H1.53003V14.47H3.05003V11.43Z" fill="currentColor"/>
<path d="M3.05003 3.81H1.53003V5.33H3.05003V3.81Z" fill="currentColor"/>
<path d="M1.53 5.33002H0V11.43H1.53V5.33002Z" fill="currentColor"/>
</g>
<defs>
<clipPath id="clip0_1128_19978">
<rect width="32" height="32" fill="white"/>
</clipPath>
</defs>
</svg>
