<svg width="32" height="32" viewBox="0 0 32 32" fill="none" xmlns="http://www.w3.org/2000/svg">
<g clip-path="url(#clip0_1128_5167)">
<path d="M30.48 6.09998H28.96V7.61998H27.43V9.14998H28.96V10.67H30.48V9.14998H32V7.61998H30.48V6.09998Z" fill="currentColor"/>
<path d="M30.48 18.29H28.96V16.77H25.91V10.67H15.24V16.77H4.57V18.29H3.05V19.81H1.53V21.34H0V22.86H4.57V32H27.43V22.86H32V19.81H30.48V18.29ZM16.76 12.19H24.38V16.77H16.76V12.19ZM18.29 30.48H6.1V22.86H16.76V21.34H18.29V30.48ZM25.91 30.48H19.81V18.29H25.91V30.48Z" fill="currentColor"/>
<path d="M21.34 3.04999H19.81V4.57999H21.34V3.04999Z" fill="currentColor"/>
<path d="M16.76 0V7.62H24.38V6.1H22.86V4.58H21.34V6.1H18.29V3.05H19.81V1.53H18.29V0H16.76Z" fill="currentColor"/>
<path d="M13.72 7.62H12.19V12.19H13.72V7.62Z" fill="currentColor"/>
<path d="M12.19 12.19H10.67V13.72H12.19V12.19Z" fill="currentColor"/>
<path d="M12.19 6.09998H10.67V7.61998H12.19V6.09998Z" fill="currentColor"/>
<path d="M10.67 13.72H6.09998V15.24H10.67V13.72Z" fill="currentColor"/>
<path d="M10.67 4.58002H6.09998V6.10002H10.67V4.58002Z" fill="currentColor"/>
<path d="M6.10001 12.19H4.57001V13.72H6.10001V12.19Z" fill="currentColor"/>
<path d="M6.10001 6.09998H4.57001V7.61998H6.10001V6.09998Z" fill="currentColor"/>
<path d="M4.56999 7.62H3.04999V12.19H4.56999V7.62Z" fill="currentColor"/>
<path d="M3.05003 1.53003H1.53003V3.05003H3.05003V1.53003Z" fill="currentColor"/>
</g>
<defs>
<clipPath id="clip0_1128_5167">
<rect width="32" height="32" fill="white"/>
</clipPath>
</defs>
</svg>
