<svg width="32" height="32" viewBox="0 0 32 32" fill="none" xmlns="http://www.w3.org/2000/svg">
<path d="M23.62 13.7199V15.2399H26.67V19.8099H28.19V9.13989H26.67V13.7199H23.62Z" fill="currentColor"/>
<path d="M25.14 22.8599H9.90999V21.3399H8.37999V22.8599H6.85999V27.4299H28.19V22.8599H26.67V19.8099H25.14V22.8599ZM25.14 25.9099H22.1V24.3799H25.14V25.9099Z" fill="currentColor"/>
<path d="M26.67 7.62H25.14V9.14H26.67V7.62Z" fill="currentColor"/>
<path d="M22.1 13.72H23.62V7.61998H25.14V6.09998H22.1V13.72Z" fill="currentColor"/>
<path d="M22.1 13.72H19.05V15.24H22.1V13.72Z" fill="currentColor"/>
<path d="M16 15.24H11.43V16.76H16V15.24Z" fill="currentColor"/>
<path d="M12.95 9.13995H11.43V10.6699H14.48V6.09995H17.53V10.6699H14.48V12.1899H16V15.2399H17.53V13.7199H19.05V6.09995H22.1V4.56995H9.90997V6.09995H12.95V9.13995Z" fill="currentColor"/>
<path d="M11.43 13.72H9.90997V15.24H11.43V13.72Z" fill="currentColor"/>
<path d="M11.43 9.13998V7.61998H9.90999V6.09998H8.37999V7.61998H6.85999V9.13998H11.43Z" fill="currentColor"/>
<path d="M8.37999 19.8099H6.85999V21.3399H8.37999V19.8099Z" fill="currentColor"/>
<path d="M6.86003 16.7599H5.34003V19.8099H6.86003V16.7599Z" fill="currentColor"/>
<path d="M6.86003 9.13989H5.34003V10.6699H6.86003V9.13989Z" fill="currentColor"/>
<path d="M5.34 10.6699H3.81V16.7599H5.34V10.6699Z" fill="currentColor"/>
</svg>
