<svg width="32" height="32" viewBox="0 0 32 32" fill="none" xmlns="http://www.w3.org/2000/svg">
<g clip-path="url(#clip0_1135_2555)">
<path d="M31.235 4.57001H29.715V9.14001H31.235V4.57001Z" fill="currentColor"/>
<path d="M29.715 19.8H28.195V28.95H29.715V19.8Z" fill="currentColor"/>
<path d="M29.715 3.03998H28.195V4.56998H29.715V3.03998Z" fill="currentColor"/>
<path d="M28.195 28.95H26.665V30.47H28.195V28.95Z" fill="currentColor"/>
<path d="M28.195 16.76H26.665V19.8H28.195V16.76Z" fill="currentColor"/>
<path d="M29.715 9.14001H25.145V10.66H29.715V9.14001Z" fill="currentColor"/>
<path d="M28.195 1.52002H26.665V3.04002H28.195V1.52002Z" fill="currentColor"/>
<path d="M26.665 15.23H25.145V16.76H26.665V15.23Z" fill="currentColor"/>
<path d="M26.665 30.47H5.33502V32H26.665V30.47Z" fill="currentColor"/>
<path d="M25.145 6.09003H23.625V9.14003H25.145V6.09003Z" fill="currentColor"/>
<path d="M23.625 4.57001H8.38501V6.09001H23.625V4.57001Z" fill="currentColor"/>
<path d="M22.095 19.8H20.575V25.9H22.095V19.8Z" fill="currentColor"/>
<path d="M20.575 25.9H19.045V27.42H20.575V25.9Z" fill="currentColor"/>
<path d="M20.575 18.28H19.045V19.8H20.575V18.28Z" fill="currentColor"/>
<path d="M19.045 27.42H12.955V28.95H19.045V27.42Z" fill="currentColor"/>
<path d="M17.525 19.8H14.475V21.33H12.955V24.38H14.475V25.9H17.525V24.38H19.045V21.33H17.525V19.8Z" fill="currentColor"/>
<path d="M19.045 16.76H12.955V18.28H19.045V16.76Z" fill="currentColor"/>
<path d="M12.955 25.9H11.435V27.42H12.955V25.9Z" fill="currentColor"/>
<path d="M12.955 18.28H11.435V19.8H12.955V18.28Z" fill="currentColor"/>
<path d="M11.435 19.8H9.90503V25.9H11.435V19.8Z" fill="currentColor"/>
<path d="M9.90504 12.19H12.955V15.23H19.045V12.19H22.095V15.23H25.145V13.71H23.625V10.66H17.525V13.71H14.475V10.66H8.38504V13.71H6.85504V15.23H9.90504V12.19Z" fill="currentColor"/>
<path d="M8.38504 6.09003H6.85504V9.14003H8.38504V6.09003Z" fill="currentColor"/>
<path d="M26.665 0H5.33502V1.52H26.665V0Z" fill="currentColor"/>
<path d="M6.85502 15.23H5.33502V16.76H6.85502V15.23Z" fill="currentColor"/>
<path d="M5.335 28.95H3.815V30.47H5.335V28.95Z" fill="currentColor"/>
<path d="M5.335 16.76H3.815V19.8H5.335V16.76Z" fill="currentColor"/>
<path d="M6.85503 9.14001H2.28503V10.66H6.85503V9.14001Z" fill="currentColor"/>
<path d="M5.335 1.52002H3.815V3.04002H5.335V1.52002Z" fill="currentColor"/>
<path d="M3.81503 19.8H2.28503V28.95H3.81503V19.8Z" fill="currentColor"/>
<path d="M3.81503 3.03998H2.28503V4.56998H3.81503V3.03998Z" fill="currentColor"/>
<path d="M2.28501 4.57001H0.765015V9.14001H2.28501V4.57001Z" fill="currentColor"/>
</g>
<defs>
<clipPath id="clip0_1135_2555">
<rect width="32" height="32" fill="white"/>
</clipPath>
</defs>
</svg>
