<svg width="32" height="32" viewBox="0 0 32 32" fill="none" xmlns="http://www.w3.org/2000/svg">
<g clip-path="url(#clip0_1135_4092)">
<path d="M30.47 12.195H27.43V9.14502H25.9V12.195H19.81V13.715H28.95V15.235H30.47V13.715H32V9.14502H30.47V12.195Z" fill="currentColor"/>
<path d="M30.47 7.61499H27.43V9.14499H30.47V7.61499Z" fill="currentColor"/>
<path d="M28.95 15.235H27.43V16.765H28.95V15.235Z" fill="currentColor"/>
<path d="M27.43 16.765H24.38V18.285H27.43V16.765Z" fill="currentColor"/>
<path d="M21.33 21.335H22.86V19.815H24.38V18.285H21.33V21.335Z" fill="currentColor"/>
<path d="M21.33 21.3351H19.81V22.8551H21.33V21.3351Z" fill="currentColor"/>
<path d="M19.81 25.905H18.28V27.425H19.81V25.905Z" fill="currentColor"/>
<path d="M18.28 16.765H16.76V22.855H12.19V16.765H10.66V22.855H3.04999V24.385H4.56999V27.425H3.04999V28.955H18.28V27.425H16.76V24.385H19.81V22.855H18.28V16.765ZM15.24 27.425H6.08999V24.385H15.24V27.425Z" fill="currentColor"/>
<path d="M19.81 10.665H16.76V12.195H19.81V10.665Z" fill="currentColor"/>
<path d="M16.76 15.235H12.19V16.765H16.76V15.235Z" fill="currentColor"/>
<path d="M7.62 10.665H16.76V9.14504H13.71V7.61504H12.19V4.57504H24.38V3.04504H0V4.57504H10.66V7.61504H9.14V9.14504H6.09V10.665H4.57V12.195H7.62V10.665Z" fill="currentColor"/>
<path d="M3.05002 25.905H1.52002V27.425H3.05002V25.905Z" fill="currentColor"/>
<path d="M3.05002 21.3351H1.52002V22.8551H3.05002V21.3351Z" fill="currentColor"/>
<path d="M6.09 19.8151V18.2851H7.62V16.7651H9.14V12.1951H7.62V15.2351H6.09V13.7151H4.57V12.1951H3.05V13.7151H1.52V15.2351H0V21.3351H1.52V19.8151H6.09Z" fill="currentColor"/>
</g>
<defs>
<clipPath id="clip0_1135_4092">
<rect width="32" height="32" fill="white"/>
</clipPath>
</defs>
</svg>
