<svg width="32" height="32" viewBox="0 0 32 32" fill="none" xmlns="http://www.w3.org/2000/svg">
<g clip-path="url(#clip0_1128_5400)">
<path d="M28.19 27.43H29.72V25.91H31.24V6.10004H29.72V7.62004H28.19V9.14004H23.62V10.67H8.38V12.19H22.1V19.81H23.62V18.29H28.19V16.76H29.72V18.29H28.19V19.81H23.62V21.33H22.1V28.95H8.38V30.48H23.62V28.95H28.19V27.43Z" fill="currentColor"/>
<path d="M29.72 4.57001H26.67V6.10001H29.72V4.57001Z" fill="currentColor"/>
<path d="M26.67 3.05005H22.1V4.57005H26.67V3.05005Z" fill="currentColor"/>
<path d="M22.1 19.81H8.38V21.33H22.1V19.81Z" fill="currentColor"/>
<path d="M14.48 24.38H9.91003V25.91H14.48V24.38Z" fill="currentColor"/>
<path d="M14.48 15.24H9.91003V16.76H14.48V15.24Z" fill="currentColor"/>
<path d="M22.1 1.52002H9.91003V3.05002H22.1V1.52002Z" fill="currentColor"/>
<path d="M8.38 27.43H3.81V28.95H8.38V27.43Z" fill="currentColor"/>
<path d="M8.38 18.29H3.81V19.81H8.38V18.29Z" fill="currentColor"/>
<path d="M8.38 9.14001H3.81V10.67H8.38V9.14001Z" fill="currentColor"/>
<path d="M9.91002 3.05005H5.33002V4.57005H9.91002V3.05005Z" fill="currentColor"/>
<path d="M6.86 21.33H3.81V24.38H6.86V21.33Z" fill="currentColor"/>
<path d="M6.86 12.19H3.81V15.24H6.86V12.19Z" fill="currentColor"/>
<path d="M5.33004 4.57001H2.29004V6.10001H5.33004V4.57001Z" fill="currentColor"/>
<path d="M3.81004 25.91H2.29004V27.43H3.81004V25.91Z" fill="currentColor"/>
<path d="M2.29001 18.29H3.81001V16.76H2.29001V9.14004H3.81001V7.62004H2.29001V6.10004H0.76001V25.91H2.29001V18.29Z" fill="currentColor"/>
</g>
<defs>
<clipPath id="clip0_1128_5400">
<rect width="32" height="32" fill="white"/>
</clipPath>
</defs>
</svg>
