<svg width="32" height="32" viewBox="0 0 32 32" fill="none" xmlns="http://www.w3.org/2000/svg">
<g clip-path="url(#clip0_1128_12877)">
<path d="M32 15.24H28.95V16.76H32V15.24Z" fill="currentColor"/>
<path d="M30.4699 22.86H28.95V24.38H30.4699V22.86Z" fill="currentColor"/>
<path d="M30.4699 7.62H28.95V9.14H30.4699V7.62Z" fill="currentColor"/>
<path d="M28.95 21.33H27.42V22.86H28.95V21.33Z" fill="currentColor"/>
<path d="M28.95 9.14H27.42V10.67H28.95V9.14Z" fill="currentColor"/>
<path d="M25.9 27.43H24.38V28.95H25.9V27.43Z" fill="currentColor"/>
<path d="M25.9 1.52H24.38V3.05H25.9V1.52Z" fill="currentColor"/>
<path d="M24.38 25.9H22.85V27.43H24.38V25.9Z" fill="currentColor"/>
<path d="M24.38 3.05H22.85V4.57H24.38V3.05Z" fill="currentColor"/>
<path d="M22.85 12.19H18.28V18.29H22.85V12.19ZM21.33 16.76H19.8V13.71H21.33V16.76Z" fill="currentColor"/>
<path d="M18.28 24.38H16.76V25.9H18.28V24.38Z" fill="currentColor"/>
<path d="M18.28 19.81H16.76V21.33H18.28V19.81Z" fill="currentColor"/>
<path d="M16.76 28.95H15.23V32H16.76V28.95Z" fill="currentColor"/>
<path d="M16.76 21.33H15.23V22.86H16.76V21.33Z" fill="currentColor"/>
<path d="M16.76 0H15.23V3.05H16.76V0Z" fill="currentColor"/>
<path d="M15.23 22.86H13.71V24.38H15.23V22.86Z" fill="currentColor"/>
<path d="M16.7599 18.29V12.19H12.1899V18.29H16.7599ZM13.7099 13.71H15.2299V16.76H13.7099V13.71Z" fill="currentColor"/>
<path d="M18.2799 7.62H16.7599V6.09H15.2299V7.62H13.7099V6.09H12.1899V10.67H19.7999V6.09H18.2799V7.62Z" fill="currentColor"/>
<path d="M13.7099 24.38H12.1899V25.9H13.7099V24.38Z" fill="currentColor"/>
<path d="M13.7099 19.81H12.1899V21.33H13.7099V19.81Z" fill="currentColor"/>
<path d="M10.66 12.19H9.14001V18.29H10.66V12.19Z" fill="currentColor"/>
<path d="M9.13999 25.9H7.60999V27.43H9.13999V25.9Z" fill="currentColor"/>
<path d="M9.13999 3.05H7.60999V4.57H9.13999V3.05Z" fill="currentColor"/>
<path d="M7.60997 27.43H6.08997V28.95H7.60997V27.43Z" fill="currentColor"/>
<path d="M7.60997 1.52H6.08997V3.05H7.60997V1.52Z" fill="currentColor"/>
<path d="M4.57004 21.33H3.04004V22.86H4.57004V21.33Z" fill="currentColor"/>
<path d="M4.57004 9.14H3.04004V10.67H4.57004V9.14Z" fill="currentColor"/>
<path d="M3.04002 22.86H1.52002V24.38H3.04002V22.86Z" fill="currentColor"/>
<path d="M3.04 15.24H0V16.76H3.04V15.24Z" fill="currentColor"/>
<path d="M3.04002 7.62H1.52002V9.14H3.04002V7.62Z" fill="currentColor"/>
</g>
<defs>
<clipPath id="clip0_1128_12877">
<rect width="32" height="32" fill="white"/>
</clipPath>
</defs>
</svg>
