<svg width="32" height="32" viewBox="0 0 32 32" fill="none" xmlns="http://www.w3.org/2000/svg">
<g clip-path="url(#clip0_1128_11326)">
<path d="M32 12.19H30.47V19.81H32V12.19Z" fill="currentColor"/>
<path d="M30.4699 19.81H28.95V22.86H30.4699V19.81Z" fill="currentColor"/>
<path d="M30.4699 9.14H28.95V12.19H30.4699V9.14Z" fill="currentColor"/>
<path d="M28.9501 22.86H27.4301V25.9H28.9501V22.86Z" fill="currentColor"/>
<path d="M28.9501 6.10001H27.4301V9.14001H28.9501V6.10001Z" fill="currentColor"/>
<path d="M27.43 25.9H25.9V27.43H27.43V25.9Z" fill="currentColor"/>
<path d="M27.43 12.19H25.9V19.81H27.43V12.19Z" fill="currentColor"/>
<path d="M27.43 4.57001H25.9V6.10001H27.43V4.57001Z" fill="currentColor"/>
<path d="M25.9 19.81H24.38V22.86H25.9V19.81Z" fill="currentColor"/>
<path d="M25.9 9.14H24.38V12.19H25.9V9.14Z" fill="currentColor"/>
<path d="M25.9 3.05H22.85V4.57H25.9V3.05Z" fill="currentColor"/>
<path d="M24.38 22.86H22.85V24.38H24.38V22.86Z" fill="currentColor"/>
<path d="M24.38 7.62H22.85V9.14H24.38V7.62Z" fill="currentColor"/>
<path d="M22.85 12.19H21.33V19.81H22.85V12.19Z" fill="currentColor"/>
<path d="M22.8501 6.10001H19.8101V7.62001H22.8501V6.10001Z" fill="currentColor"/>
<path d="M22.8501 1.52H19.8101V3.05H22.8501V1.52Z" fill="currentColor"/>
<path d="M21.3301 19.81H19.8101V21.33H21.3301V19.81Z" fill="currentColor"/>
<path d="M21.3301 10.67H19.8101V12.19H21.3301V10.67Z" fill="currentColor"/>
<path d="M19.81 22.86H18.28V21.33H13.71V22.86H12.19V24.38H10.66V30.48H12.19V32H19.81V30.48H21.33V24.38H19.81V22.86ZM16.76 27.43H15.24V24.38H16.76V27.43Z" fill="currentColor"/>
<path d="M19.8099 9.14H12.1899V10.67H19.8099V9.14Z" fill="currentColor"/>
<path d="M19.8099 4.57001H12.1899V6.10001H19.8099V4.57001Z" fill="currentColor"/>
<path d="M19.8099 0H12.1899V1.52H19.8099V0Z" fill="currentColor"/>
<path d="M13.7099 12.19V13.71H12.1899V18.29H13.7099V19.81H18.2799V18.29H19.8099V13.71H18.2799V12.19H13.7099Z" fill="currentColor"/>
<path d="M12.19 19.81H10.66V21.33H12.19V19.81Z" fill="currentColor"/>
<path d="M12.19 10.67H10.66V12.19H12.19V10.67Z" fill="currentColor"/>
<path d="M10.66 12.19H9.14001V19.81H10.66V12.19Z" fill="currentColor"/>
<path d="M12.19 6.10001H9.14001V7.62001H12.19V6.10001Z" fill="currentColor"/>
<path d="M12.19 1.52H9.14001V3.05H12.19V1.52Z" fill="currentColor"/>
<path d="M9.14 22.86H7.62V24.38H9.14V22.86Z" fill="currentColor"/>
<path d="M9.14 7.62H7.62V9.14H9.14V7.62Z" fill="currentColor"/>
<path d="M7.61997 19.81H6.08997V22.86H7.61997V19.81Z" fill="currentColor"/>
<path d="M7.61997 9.14H6.08997V12.19H7.61997V9.14Z" fill="currentColor"/>
<path d="M9.13997 3.05H6.08997V4.57H9.13997V3.05Z" fill="currentColor"/>
<path d="M6.08995 25.9H4.56995V27.43H6.08995V25.9Z" fill="currentColor"/>
<path d="M6.08995 12.19H4.56995V19.81H6.08995V12.19Z" fill="currentColor"/>
<path d="M6.08995 4.57001H4.56995V6.10001H6.08995V4.57001Z" fill="currentColor"/>
<path d="M4.57005 22.86H3.05005V25.9H4.57005V22.86Z" fill="currentColor"/>
<path d="M4.57005 6.10001H3.05005V9.14001H4.57005V6.10001Z" fill="currentColor"/>
<path d="M3.05002 19.81H1.52002V22.86H3.05002V19.81Z" fill="currentColor"/>
<path d="M3.05002 9.14H1.52002V12.19H3.05002V9.14Z" fill="currentColor"/>
<path d="M1.52 12.19H0V19.81H1.52V12.19Z" fill="currentColor"/>
</g>
<defs>
<clipPath id="clip0_1128_11326">
<rect width="32" height="32" fill="white"/>
</clipPath>
</defs>
</svg>
