<svg width="32" height="32" viewBox="0 0 32 32" fill="none" xmlns="http://www.w3.org/2000/svg">
<g clip-path="url(#clip0_1128_7218)">
<path d="M31.24 4.57001H29.72V7.62001H31.24V4.57001Z" fill="currentColor"/>
<path d="M29.7201 3.04999H28.1901V4.56999H29.7201V3.04999Z" fill="currentColor"/>
<path d="M28.19 28.96H26.67V32H28.19V28.96Z" fill="currentColor"/>
<path d="M5.34001 24.38H6.86001V22.86H11.43V18.29H14.48V32H20.57V21.34H16V18.29H23.62V24.38H25.15V18.29H29.72V12.19H19.05V16.77H16V3.04999H9.91001V13.72H14.48V16.77H8.38001V6.09999H6.86001V7.61999H5.34001V9.14999H3.81001V10.67H6.86001V16.77H0.76001V22.86H5.34001V24.38ZM26.67 13.72H28.19V16.77H26.67V13.72ZM23.62 13.72H25.15V16.77H23.62V13.72ZM20.57 13.72H22.1V16.77H20.57V13.72ZM16 22.86H19.05V24.38H16V22.86ZM16 25.91H19.05V27.43H16V25.91ZM16 28.96H19.05V30.48H16V28.96ZM11.43 4.56999H14.48V6.09999H11.43V4.56999ZM11.43 7.61999H14.48V9.14999H11.43V7.61999ZM11.43 12.19V10.67H14.48V12.19H11.43ZM8.38001 18.29H9.91001V21.34H8.38001V18.29ZM3.81001 21.34H2.29001V18.29H3.81001V21.34ZM5.34001 18.29H6.86001V21.34H5.34001V18.29Z" fill="currentColor"/>
<path d="M28.19 6.09998H26.67V7.61998H28.19V6.09998Z" fill="currentColor"/>
<path d="M28.19 1.53003H25.15V3.05003H28.19V1.53003Z" fill="currentColor"/>
<path d="M26.67 24.38H25.15V28.96H26.67V24.38Z" fill="currentColor"/>
<path d="M26.67 4.57001H25.15V6.10001H26.67V4.57001Z" fill="currentColor"/>
<path d="M17.53 10.67H26.67V9.15H25.15V7.62H23.62V6.1H22.1V4.57H20.57V3.05H19.05V1.53H17.53V0H12.96V1.53H16V3.05H17.53V10.67Z" fill="currentColor"/>
<path d="M6.85997 3.04999H5.33997V4.56999H6.85997V3.04999Z" fill="currentColor"/>
<path d="M6.86006 0H3.81006V1.53H6.86006V0Z" fill="currentColor"/>
<path d="M5.34006 24.38H3.81006V28.96H5.34006V24.38Z" fill="currentColor"/>
<path d="M5.34006 4.57001H3.81006V6.10001H5.34006V4.57001Z" fill="currentColor"/>
<path d="M3.81004 28.96H2.29004V32H3.81004V28.96Z" fill="currentColor"/>
<path d="M3.81004 1.53003H2.29004V3.05003H3.81004V1.53003Z" fill="currentColor"/>
<path d="M2.29001 3.04999H0.76001V6.09999H2.29001V3.04999Z" fill="currentColor"/>
</g>
<defs>
<clipPath id="clip0_1128_7218">
<rect width="32" height="32" fill="white"/>
</clipPath>
</defs>
</svg>
