<svg width="32" height="32" viewBox="0 0 32 32" fill="none" xmlns="http://www.w3.org/2000/svg">
<path d="M31.24 1.53H29.71V19.81H31.24V1.53Z" fill="currentColor"/>
<path d="M2.27999 30.48V28.96H0.759995V32H31.24V28.96H29.71V30.48H2.27999Z" fill="currentColor"/>
<path d="M29.71 27.43H28.19V28.96H29.71V27.43Z" fill="currentColor"/>
<path d="M28.19 25.91H26.67V27.43H28.19V25.91Z" fill="currentColor"/>
<path d="M6.86 22.86V24.38H25.14V22.86H20.57V21.34H29.71V19.81H2.28V21.34H11.43V22.86H6.86ZM12.95 21.34H19.05V22.86H12.95V21.34Z" fill="currentColor"/>
<path d="M26.67 24.38H25.14V25.91H26.67V24.38Z" fill="currentColor"/>
<path d="M28.19 3.05H3.81V18.29H28.19V3.05ZM26.67 16.76H5.33V4.57H26.67V16.76Z" fill="currentColor"/>
<path d="M25.14 27.43H23.62V28.96H25.14V27.43Z" fill="currentColor"/>
<path d="M23.62 25.91H22.09V27.43H23.62V25.91Z" fill="currentColor"/>
<path d="M19.05 10.67H20.57V12.19H22.09V10.67H23.62V9.15001H25.14V7.62001H23.62V6.10001H22.09V7.62001H20.57V6.10001H19.05V7.62001H17.52V9.15001H19.05V10.67Z" fill="currentColor"/>
<path d="M20.57 27.43H19.05V28.96H20.57V27.43Z" fill="currentColor"/>
<path d="M19.05 25.91H17.52V27.43H19.05V25.91Z" fill="currentColor"/>
<path d="M16 27.43H14.47V28.96H16V27.43Z" fill="currentColor"/>
<path d="M14.47 25.91H12.95V27.43H14.47V25.91Z" fill="currentColor"/>
<path d="M12.95 27.43H11.43V28.96H12.95V27.43Z" fill="currentColor"/>
<path d="M9.89999 25.91H8.37999V27.43H9.89999V25.91Z" fill="currentColor"/>
<path d="M8.38 27.43H6.86V28.96H8.38V27.43Z" fill="currentColor"/>
<path d="M6.85999 24.38H5.32999V25.91H6.85999V24.38Z" fill="currentColor"/>
<path d="M5.33 25.91H3.81V27.43H5.33V25.91Z" fill="currentColor"/>
<path d="M29.71 0H2.28V1.53H29.71V0Z" fill="currentColor"/>
<path d="M3.81 27.43H2.28V28.96H3.81V27.43Z" fill="currentColor"/>
<path d="M2.27999 1.53H0.759995V19.81H2.27999V1.53Z" fill="currentColor"/>
</svg>
