<svg width="32" height="32" viewBox="0 0 32 32" fill="none" xmlns="http://www.w3.org/2000/svg">
<g clip-path="url(#clip0_1128_7342)">
<path d="M30.48 22.86H24.38V24.38H32V21.34H30.48V22.86Z" fill="currentColor"/>
<path d="M30.4799 19.81H28.95V21.34H30.4799V19.81Z" fill="currentColor"/>
<path d="M30.4801 7.62H27.4301V9.14999H30.4801V7.62Z" fill="currentColor"/>
<path d="M30.4801 3.04999H27.4301V4.56999H30.4801V3.04999Z" fill="currentColor"/>
<path d="M28.95 18.29H25.91V19.81H28.95V18.29Z" fill="currentColor"/>
<path d="M27.43 9.15002H24.38V10.67H27.43V9.15002Z" fill="currentColor"/>
<path d="M27.43 4.57001H24.38V6.10001H27.43V4.57001Z" fill="currentColor"/>
<path d="M24.38 21.34H21.33V22.86H24.38V21.34Z" fill="currentColor"/>
<path d="M25.91 16.77H22.86V18.29H25.91V16.77Z" fill="currentColor"/>
<path d="M24.38 7.62H21.33V9.14999H24.38V7.62Z" fill="currentColor"/>
<path d="M24.38 3.04999H21.33V4.56999H24.38V3.04999Z" fill="currentColor"/>
<path d="M21.33 19.81H18.29V21.34H21.33V19.81Z" fill="currentColor"/>
<path d="M21.33 9.15002H18.29V10.67H21.33V9.15002Z" fill="currentColor"/>
<path d="M21.33 4.57001H18.29V6.10001H21.33V4.57001Z" fill="currentColor"/>
<path d="M22.8599 16.77V15.24H16.7599V18.29H13.7199V19.81H15.2399V25.91H13.7199V27.43H12.1899V32H19.8099V27.43H18.2899V25.91H16.7599V19.81H18.2899V16.77H22.8599Z" fill="currentColor"/>
<path d="M16.76 9.15002H15.24V13.72H13.72V15.24H16.76V9.15002Z" fill="currentColor"/>
<path d="M15.24 6.09998H13.72V9.14998H15.24V6.09998Z" fill="currentColor"/>
<path d="M13.7199 19.81H12.1899V21.34H13.7199V19.81Z" fill="currentColor"/>
<path d="M13.72 15.24H12.19V16.77H10.67V18.29H13.72V15.24Z" fill="currentColor"/>
<path d="M12.19 12.19V10.67H10.67V13.72H13.72V12.19H12.19Z" fill="currentColor"/>
<path d="M13.7199 3.04999H12.1899V6.09999H13.7199V3.04999Z" fill="currentColor"/>
<path d="M12.19 21.34H10.67V24.38H12.19V21.34Z" fill="currentColor"/>
<path d="M12.19 1.53003H10.67V3.05003H12.19V1.53003Z" fill="currentColor"/>
<path d="M10.67 24.38H9.14001V25.91H10.67V24.38Z" fill="currentColor"/>
<path d="M10.67 18.29H7.62V19.81H10.67V18.29Z" fill="currentColor"/>
<path d="M10.67 7.62H9.14001V10.67H10.67V7.62Z" fill="currentColor"/>
<path d="M9.14 1.53H10.67V0H7.62V7.62H9.14V1.53Z" fill="currentColor"/>
<path d="M9.13998 25.91H6.09998V27.43H9.13998V25.91Z" fill="currentColor"/>
<path d="M7.61998 19.81H6.09998V21.34H7.61998V19.81Z" fill="currentColor"/>
<path d="M9.13998 13.72H6.09998V15.24H9.13998V13.72Z" fill="currentColor"/>
<path d="M6.09995 21.34H4.56995V22.86H6.09995V21.34Z" fill="currentColor"/>
<path d="M6.10005 12.19H3.05005V13.72H6.10005V12.19Z" fill="currentColor"/>
<path d="M6.10005 7.62H3.05005V9.14999H6.10005V7.62Z" fill="currentColor"/>
<path d="M3.05002 24.38H1.52002V28.96H6.10002V27.43H3.05002V24.38Z" fill="currentColor"/>
<path d="M4.57005 22.86H3.05005V24.38H4.57005V22.86Z" fill="currentColor"/>
<path d="M3.05 13.72H0V15.24H3.05V13.72Z" fill="currentColor"/>
<path d="M3.05 9.15002H0V10.67H3.05V9.15002Z" fill="currentColor"/>
</g>
<defs>
<clipPath id="clip0_1128_7342">
<rect width="32" height="32" fill="white"/>
</clipPath>
</defs>
</svg>
