<svg width="32" height="32" viewBox="0 0 32 32" fill="none" xmlns="http://www.w3.org/2000/svg">
<g clip-path="url(#clip0_1135_2852)">
<path d="M32 12.19H30.48V19.81H32V12.19Z" fill="currentColor"/>
<path d="M30.48 19.81H28.96V22.86H30.48V19.81Z" fill="currentColor"/>
<path d="M30.48 9.15002H28.96V12.19H30.48V9.15002Z" fill="currentColor"/>
<path d="M28.96 22.86H27.43V25.91H28.96V22.86Z" fill="currentColor"/>
<path d="M28.96 6.09998H27.43V9.14998H28.96V6.09998Z" fill="currentColor"/>
<path d="M27.43 25.91H25.91V27.43H27.43V25.91Z" fill="currentColor"/>
<path d="M27.43 15.24H25.91V16.77H24.39V18.29H25.91V19.81H27.43V18.29H28.96V16.77H27.43V15.24Z" fill="currentColor"/>
<path d="M27.43 4.58002H25.91V6.10002H27.43V4.58002Z" fill="currentColor"/>
<path d="M25.91 10.67H24.39V12.19H25.91V10.67Z" fill="currentColor"/>
<path d="M25.91 27.43H22.86V28.96H25.91V27.43Z" fill="currentColor"/>
<path d="M24.39 21.34H22.86V22.86H24.39V21.34Z" fill="currentColor"/>
<path d="M25.91 3.04999H22.86V4.57999H25.91V3.04999Z" fill="currentColor"/>
<path d="M22.86 6.09998H21.34V7.61998H22.86V6.09998Z" fill="currentColor"/>
<path d="M22.86 28.96H19.81V30.48H22.86V28.96Z" fill="currentColor"/>
<path d="M22.86 1.53003H19.81V3.05003H22.86V1.53003Z" fill="currentColor"/>
<path d="M19.81 19.81H18.29V21.34H16.77V22.86H18.29V24.38H19.81V22.86H21.34V21.34H19.81V19.81Z" fill="currentColor"/>
<path d="M19.81 30.48H12.2V32H19.81V30.48Z" fill="currentColor"/>
<path d="M15.24 19.81H13.72V21.34H15.24V19.81Z" fill="currentColor"/>
<path d="M13.72 18.29H15.24V19.81H16.77V18.29H18.29V16.77H19.81V15.24H21.34V13.72H22.86V12.19H21.34V10.67H19.81V9.15002H18.29V10.67H16.77V12.19H15.24V13.72H13.72V15.24H12.2V16.77H13.72V18.29Z" fill="currentColor"/>
<path d="M15.24 3.04999H13.72V4.57999H12.2V6.09999H13.72V7.61999H15.24V6.09999H16.77V4.57999H15.24V3.04999Z" fill="currentColor"/>
<path d="M19.81 0H12.2V1.53H19.81V0Z" fill="currentColor"/>
<path d="M13.72 21.34H12.2V22.86H13.72V21.34Z" fill="currentColor"/>
<path d="M12.2 28.96H9.15002V30.48H12.2V28.96Z" fill="currentColor"/>
<path d="M12.2 22.86H10.67V24.38H12.2V22.86Z" fill="currentColor"/>
<path d="M12.2 16.77H10.67V18.29H12.2V16.77Z" fill="currentColor"/>
<path d="M12.2 9.15002H10.67V10.67H12.2V9.15002Z" fill="currentColor"/>
<path d="M12.2 1.53003H9.15002V3.05003H12.2V1.53003Z" fill="currentColor"/>
<path d="M10.67 24.38H9.15002V25.91H10.67V24.38Z" fill="currentColor"/>
<path d="M10.67 18.29H9.15002V19.81H10.67V18.29Z" fill="currentColor"/>
<path d="M7.61998 25.91V27.43H6.09998V28.96H9.14998V25.91H7.61998Z" fill="currentColor"/>
<path d="M9.14999 19.81H7.62V21.34H9.14999V19.81Z" fill="currentColor"/>
<path d="M9.14998 3.04999H6.09998V4.57999H9.14998V3.04999Z" fill="currentColor"/>
<path d="M7.61998 21.34H6.09998V22.86H7.61998V21.34Z" fill="currentColor"/>
<path d="M7.62002 9.15002H6.10002V10.67H4.58002V12.19H6.10002V13.72H7.62002V12.19H9.15002V10.67H7.62002V9.15002Z" fill="currentColor"/>
<path d="M6.10002 25.91H4.58002V27.43H6.10002V25.91Z" fill="currentColor"/>
<path d="M6.09999 24.38V22.86H3.04999V25.91H4.57999V24.38H6.09999Z" fill="currentColor"/>
<path d="M6.10002 4.58002H4.58002V6.10002H6.10002V4.58002Z" fill="currentColor"/>
<path d="M4.57999 6.09998H3.04999V9.14998H4.57999V6.09998Z" fill="currentColor"/>
<path d="M3.05003 19.81H1.53003V22.86H3.05003V19.81Z" fill="currentColor"/>
<path d="M3.05003 9.15002H1.53003V12.19H3.05003V9.15002Z" fill="currentColor"/>
<path d="M1.53 12.19H0V19.81H1.53V12.19Z" fill="currentColor"/>
</g>
<defs>
<clipPath id="clip0_1135_2852">
<rect width="32" height="32" fill="white"/>
</clipPath>
</defs>
</svg>
