<svg width="32" height="32" viewBox="0 0 32 32" fill="none" xmlns="http://www.w3.org/2000/svg">
<g clip-path="url(#clip0_1128_4092)">
<path d="M32 12.19H30.47V19.81H32V12.19Z" fill="currentColor"/>
<path d="M28.95 3.05V0H27.43V1.52H25.9V3.05H24.38V7.62H28.95V6.1H30.47V4.57H32V3.05H28.95Z" fill="currentColor"/>
<path d="M30.47 19.81H28.95V22.86H30.47V19.81Z" fill="currentColor"/>
<path d="M30.47 9.14001H28.95V12.19H30.47V9.14001Z" fill="currentColor"/>
<path d="M28.95 22.86H27.43V25.91H28.95V22.86Z" fill="currentColor"/>
<path d="M27.43 25.91H25.9V27.43H27.43V25.91Z" fill="currentColor"/>
<path d="M25.9 27.43H22.86V28.95H25.9V27.43Z" fill="currentColor"/>
<path d="M24.38 7.62H22.86V9.14H24.38V7.62Z" fill="currentColor"/>
<path d="M22.86 9.14001H21.33V10.67H22.86V9.14001Z" fill="currentColor"/>
<path d="M22.86 28.95H19.81V30.48H22.86V28.95Z" fill="currentColor"/>
<path d="M21.33 13.72H19.81V18.29H21.33V13.72Z" fill="currentColor"/>
<path d="M21.33 10.67H19.81V12.19H21.33V10.67Z" fill="currentColor"/>
<path d="M22.86 1.51999H19.81V3.04999H22.86V1.51999Z" fill="currentColor"/>
<path d="M19.81 18.29H18.28V19.81H19.81V18.29Z" fill="currentColor"/>
<path d="M19.81 12.19H18.28V13.72H19.81V12.19Z" fill="currentColor"/>
<path d="M19.81 30.48H12.19V32H19.81V30.48Z" fill="currentColor"/>
<path d="M18.28 13.72H16.76V15.24H18.28V13.72Z" fill="currentColor"/>
<path d="M18.28 19.81H13.71V21.33H18.28V19.81Z" fill="currentColor"/>
<path d="M16.76 15.24H15.24V16.76H16.76V15.24Z" fill="currentColor"/>
<path d="M18.28 10.67H13.71V12.19H18.28V10.67Z" fill="currentColor"/>
<path d="M19.81 0H12.19V1.52H19.81V0Z" fill="currentColor"/>
<path d="M13.71 18.29H12.19V19.81H13.71V18.29Z" fill="currentColor"/>
<path d="M13.71 12.19H12.19V13.72H13.71V12.19Z" fill="currentColor"/>
<path d="M12.19 28.95H9.14V30.48H12.19V28.95Z" fill="currentColor"/>
<path d="M12.19 13.72H10.66V18.29H12.19V13.72Z" fill="currentColor"/>
<path d="M12.19 1.51999H9.14V3.04999H12.19V1.51999Z" fill="currentColor"/>
<path d="M9.14 27.43H6.09V28.95H9.14V27.43Z" fill="currentColor"/>
<path d="M9.14 3.04999H6.09V4.56999H9.14V3.04999Z" fill="currentColor"/>
<path d="M7.62 12.19H9.14V9.14001H12.19V7.62001H21.33V6.10001H19.81V4.57001H12.19V6.10001H9.14V7.62001H7.62V9.14001H6.09V12.19H4.57V19.81H6.09V22.86H7.62V24.38H9.14V25.91H12.19V27.43H19.81V25.91H22.86V24.38H24.38V22.86H25.9V19.81H27.43V12.19H25.9V10.67H24.38V19.81H22.86V22.86H21.33V24.38H12.19V22.86H9.14V19.81H7.62V12.19Z" fill="currentColor"/>
<path d="M6.09 25.91H4.57V27.43H6.09V25.91Z" fill="currentColor"/>
<path d="M6.09 4.57001H4.57V6.10001H6.09V4.57001Z" fill="currentColor"/>
<path d="M4.57 22.86H3.05V25.91H4.57V22.86Z" fill="currentColor"/>
<path d="M4.57 6.10001H3.05V9.14001H4.57V6.10001Z" fill="currentColor"/>
<path d="M3.05 19.81H1.52V22.86H3.05V19.81Z" fill="currentColor"/>
<path d="M3.05 9.14001H1.52V12.19H3.05V9.14001Z" fill="currentColor"/>
<path d="M1.52 12.19H0V19.81H1.52V12.19Z" fill="currentColor"/>
</g>
<defs>
<clipPath id="clip0_1128_4092">
<rect width="32" height="32" fill="white"/>
</clipPath>
</defs>
</svg>
