<svg width="32" height="32" viewBox="0 0 32 32" fill="none" xmlns="http://www.w3.org/2000/svg">
<g clip-path="url(#clip0_1128_10362)">
<path d="M31.235 4.57001H29.715V6.10001H31.235V4.57001Z" fill="currentColor"/>
<path d="M31.235 1.53003H29.715V3.05003H31.235V1.53003Z" fill="currentColor"/>
<path d="M28.195 13.72H26.665V28.96H28.195V13.72Z" fill="currentColor"/>
<path d="M28.195 6.09998H26.665V7.61998H28.195V6.09998Z" fill="currentColor"/>
<path d="M28.195 3.04999H26.665V4.56999H28.195V3.04999Z" fill="currentColor"/>
<path d="M28.195 0H26.665V1.53H28.195V0Z" fill="currentColor"/>
<path d="M26.665 28.96H25.145V30.48H26.665V28.96Z" fill="currentColor"/>
<path d="M26.665 12.19H25.145V13.72H26.665V12.19Z" fill="currentColor"/>
<path d="M25.145 16.77H23.625V19.81H25.145V16.77Z" fill="currentColor"/>
<path d="M25.145 4.57001H23.625V6.10001H25.145V4.57001Z" fill="currentColor"/>
<path d="M25.145 1.53003H23.625V3.05003H25.145V1.53003Z" fill="currentColor"/>
<path d="M25.145 30.48H3.815V32H25.145V30.48Z" fill="currentColor"/>
<path d="M5.335 28.96H23.625V27.43H25.145V21.34H20.575V19.81H17.525V18.29H9.905V19.81H6.855V21.34H3.815V27.43H5.335V28.96Z" fill="currentColor"/>
<path d="M23.625 15.24H22.095V16.77H23.625V15.24Z" fill="currentColor"/>
<path d="M22.095 13.72H19.045V15.24H22.095V13.72Z" fill="currentColor"/>
<path d="M19.045 0H9.90503V1.53H19.045V0Z" fill="currentColor"/>
<path d="M25.145 12.19V10.67H19.045V7.62003H17.525V6.10003H20.575V4.57003H22.1V3.05003H20.58V1.53003H19.05V4.57003H9.9V1.53003H8.385V6.10003H11.435V7.62003H9.9V10.67H3.815V12.19H25.145ZM12.955 6.10003H16.005V7.62003H12.955V6.10003ZM11.435 9.15003H17.525V10.67H11.435V9.15003Z" fill="currentColor"/>
<path d="M3.81503 28.96H2.28503V30.48H3.81503V28.96Z" fill="currentColor"/>
<path d="M3.81503 12.19H2.28503V13.72H3.81503V12.19Z" fill="currentColor"/>
<path d="M2.28501 13.72H0.765015V28.96H2.28501V13.72Z" fill="currentColor"/>
</g>
<defs>
<clipPath id="clip0_1128_10362">
<rect width="32" height="32" fill="white"/>
</clipPath>
</defs>
</svg>
