<svg width="32" height="32" viewBox="0 0 32 32" fill="none" xmlns="http://www.w3.org/2000/svg">
<g clip-path="url(#clip0_1128_11808)">
<path d="M30.48 4.57H28.95V3.05H24.38V4.57H22.86V6.09H21.34V7.62H19.81V9.14H18.29V10.67H16.76V12.19H18.29V13.71H19.81V15.24H21.34V16.76H22.86V18.28H24.38V16.76H25.91V15.24H27.43V13.71H28.95V12.19H30.48V10.67H32V6.09H30.48V4.57ZM28.95 7.62H27.43V9.14H28.95V10.67H27.43V9.14H25.91V10.67H24.38V12.19H25.91V13.71H24.38V12.19H22.86V13.71H21.34V12.19H22.86V10.67H21.34V9.14H22.86V10.67H24.38V9.14H25.91V7.62H24.38V6.09H25.91V7.62H27.43V6.09H28.95V7.62Z" fill="currentColor"/>
<path d="M24.3801 22.86V24.38H22.8601V25.9H19.8101V27.43H21.3401V28.95H24.3801V27.43H25.9101V25.9H27.4301V24.38H28.9501V21.33H27.4301V19.81H25.9101V22.86H24.3801Z" fill="currentColor"/>
<path d="M25.91 18.28H24.38V19.81H25.91V18.28Z" fill="currentColor"/>
<path d="M24.3801 21.33H22.8601V22.86H24.3801V21.33Z" fill="currentColor"/>
<path d="M22.8601 19.81H21.3401V21.33H22.8601V19.81Z" fill="currentColor"/>
<path d="M19.81 24.38H18.29V25.9H19.81V24.38Z" fill="currentColor"/>
<path d="M16.76 22.86V21.33H15.24V19.81H13.72V18.28H12.19V16.76H10.67V18.28H9.15005V19.81H7.62005V21.33H6.10005V22.86H4.57005V24.38H3.05005V28.95H4.57005V30.48H6.10005V32H10.67V30.48H12.19V28.95H13.72V27.43H15.24V25.9H16.76V24.38H18.29V22.86H16.76ZM13.72 22.86H12.19V24.38H13.72V25.9H12.19V24.38H10.67V25.9H9.15005V27.43H10.67V28.95H9.15005V27.43H7.62005V28.95H6.10005V27.43H7.62005V25.9H6.10005V24.38H7.62005V25.9H9.15005V24.38H10.67V22.86H9.15005V21.33H10.67V22.86H12.19V21.33H13.72V22.86Z" fill="currentColor"/>
<path d="M16.76 12.19H15.24V13.71H16.76V12.19Z" fill="currentColor"/>
<path d="M16.76 9.14H15.24V10.67H16.76V9.14Z" fill="currentColor"/>
<path d="M15.24 13.71H13.72V15.24H15.24V13.71Z" fill="currentColor"/>
<path d="M15.24 10.67H13.72V12.19H15.24V10.67Z" fill="currentColor"/>
<path d="M13.7199 15.24H12.1899V16.76H13.7199V15.24Z" fill="currentColor"/>
<path d="M13.7199 12.19H12.1899V13.71H13.7199V12.19Z" fill="currentColor"/>
<path d="M12.1899 13.71H10.6699V15.24H12.1899V13.71Z" fill="currentColor"/>
<path d="M10.6699 15.24H9.1499V16.76H10.6699V15.24Z" fill="currentColor"/>
<path d="M12.1901 0H7.62012V1.52H12.1901V0Z" fill="currentColor"/>
<path d="M10.6701 12.19V10.67H12.1901V9.14H15.2401V7.62H10.6701V9.14H9.15012V10.67H7.62012V15.24H9.15012V12.19H10.6701Z" fill="currentColor"/>
<path d="M10.6701 4.57001H7.62012V6.09001H10.6701V4.57001Z" fill="currentColor"/>
<path d="M7.6201 6.09H6.1001V7.62H7.6201V6.09Z" fill="currentColor"/>
<path d="M7.62007 1.52H4.57007V3.05H7.62007V1.52Z" fill="currentColor"/>
<path d="M6.10007 7.62H4.57007V10.67H6.10007V7.62Z" fill="currentColor"/>
<path d="M4.57005 3.05H3.05005V4.57H4.57005V3.05Z" fill="currentColor"/>
<path d="M3.05003 4.57001H1.53003V7.62001H3.05003V4.57001Z" fill="currentColor"/>
<path d="M1.53 7.62H0V12.19H1.53V7.62Z" fill="currentColor"/>
</g>
<defs>
<clipPath id="clip0_1128_11808">
<rect width="32" height="32" fill="white"/>
</clipPath>
</defs>
</svg>
