<svg width="32" height="32" viewBox="0 0 32 32" fill="none" xmlns="http://www.w3.org/2000/svg">
<g clip-path="url(#clip0_1128_14037)">
<path d="M32 15.24H30.47V16.76H32V15.24Z" fill="currentColor"/>
<path d="M30.4699 16.76H28.95V18.29H30.4699V16.76Z" fill="currentColor"/>
<path d="M30.4699 13.71H28.95V15.24H30.4699V13.71Z" fill="currentColor"/>
<path d="M28.95 18.29H27.42V19.81H28.95V18.29Z" fill="currentColor"/>
<path d="M28.95 12.19H27.42V13.71H28.95V12.19Z" fill="currentColor"/>
<path d="M27.42 19.81H25.9V21.33H27.42V19.81Z" fill="currentColor"/>
<path d="M27.42 10.67H25.9V12.19H27.42V10.67Z" fill="currentColor"/>
<path d="M25.9 21.33H24.38V22.86H25.9V21.33Z" fill="currentColor"/>
<path d="M25.9 9.14001H24.38V10.67H25.9V9.14001Z" fill="currentColor"/>
<path d="M24.38 10.67H22.85V21.33H24.38V10.67Z" fill="currentColor"/>
<path d="M22.85 24.38H21.33V25.9H22.85V24.38Z" fill="currentColor"/>
<path d="M22.85 6.09H21.33V7.62H22.85V6.09Z" fill="currentColor"/>
<path d="M21.33 25.9H19.8V27.43H21.33V25.9Z" fill="currentColor"/>
<path d="M21.33 4.57001H19.8V6.09001H21.33V4.57001Z" fill="currentColor"/>
<path d="M19.8 27.43H18.28V28.95H19.8V27.43Z" fill="currentColor"/>
<path d="M21.33 7.62H10.66V9.14H21.33V7.62Z" fill="currentColor"/>
<path d="M19.8 3.04999H18.28V4.56999H19.8V3.04999Z" fill="currentColor"/>
<path d="M18.28 28.95H16.76V30.48H18.28V28.95Z" fill="currentColor"/>
<path d="M18.28 1.51999H16.76V3.04999H18.28V1.51999Z" fill="currentColor"/>
<path d="M16.76 30.48H15.23V32H16.76V30.48Z" fill="currentColor"/>
<path d="M16.76 0H15.23V1.52H16.76V0Z" fill="currentColor"/>
<path d="M15.23 28.95H13.71V30.48H15.23V28.95Z" fill="currentColor"/>
<path d="M18.2799 19.81V18.29H19.7999V13.71H18.2799V12.19H13.7099V13.71H12.1899V18.29H13.7099V19.81H18.2799Z" fill="currentColor"/>
<path d="M15.23 1.51999H13.71V3.04999H15.23V1.51999Z" fill="currentColor"/>
<path d="M13.7099 27.43H12.1899V28.95H13.7099V27.43Z" fill="currentColor"/>
<path d="M21.33 22.86H10.66V24.38H21.33V22.86Z" fill="currentColor"/>
<path d="M13.7099 3.04999H12.1899V4.56999H13.7099V3.04999Z" fill="currentColor"/>
<path d="M12.19 25.9H10.66V27.43H12.19V25.9Z" fill="currentColor"/>
<path d="M12.19 4.57001H10.66V6.09001H12.19V4.57001Z" fill="currentColor"/>
<path d="M10.66 24.38H9.14001V25.9H10.66V24.38Z" fill="currentColor"/>
<path d="M10.66 6.09H9.14001V7.62H10.66V6.09Z" fill="currentColor"/>
<path d="M9.13999 10.67H7.60999V21.33H9.13999V10.67Z" fill="currentColor"/>
<path d="M7.60997 21.33H6.08997V22.86H7.60997V21.33Z" fill="currentColor"/>
<path d="M7.60997 9.14001H6.08997V10.67H7.60997V9.14001Z" fill="currentColor"/>
<path d="M6.08995 19.81H4.56995V21.33H6.08995V19.81Z" fill="currentColor"/>
<path d="M6.08995 10.67H4.56995V12.19H6.08995V10.67Z" fill="currentColor"/>
<path d="M4.57004 18.29H3.04004V19.81H4.57004V18.29Z" fill="currentColor"/>
<path d="M4.57004 12.19H3.04004V13.71H4.57004V12.19Z" fill="currentColor"/>
<path d="M3.04002 16.76H1.52002V18.29H3.04002V16.76Z" fill="currentColor"/>
<path d="M3.04002 13.71H1.52002V15.24H3.04002V13.71Z" fill="currentColor"/>
<path d="M1.52 15.24H0V16.76H1.52V15.24Z" fill="currentColor"/>
</g>
<defs>
<clipPath id="clip0_1128_14037">
<rect width="32" height="32" fill="white"/>
</clipPath>
</defs>
</svg>
