<svg width="32" height="32" viewBox="0 0 32 32" fill="none" xmlns="http://www.w3.org/2000/svg">
<g clip-path="url(#clip0_1128_19646)">
<path d="M32 16.005H30.47V22.095H32V16.005Z" fill="currentColor"/>
<path d="M30.4699 22.095H28.95V23.625H30.4699V22.095Z" fill="currentColor"/>
<path d="M30.4699 14.475H28.95V16.005H30.4699V14.475Z" fill="currentColor"/>
<path d="M28.9501 23.625H27.4301V25.145H28.9501V23.625Z" fill="currentColor"/>
<path d="M28.9501 12.955H27.4301V14.475H28.9501V12.955Z" fill="currentColor"/>
<path d="M27.43 25.145H3.05005V26.665H27.43V25.145Z" fill="currentColor"/>
<path d="M27.43 11.435H24.38V12.955H27.43V11.435Z" fill="currentColor"/>
<path d="M24.38 9.905H22.85V11.435H24.38V9.905Z" fill="currentColor"/>
<path d="M22.85 17.525H21.33V19.045H22.85V17.525Z" fill="currentColor"/>
<path d="M22.85 14.475H21.33V16.005H22.85V14.475Z" fill="currentColor"/>
<path d="M22.85 8.385H21.33V9.905H22.85V8.385Z" fill="currentColor"/>
<path d="M21.3301 16.005H19.8101V17.525H21.3301V16.005Z" fill="currentColor"/>
<path d="M19.81 17.525H18.28V19.045H19.81V17.525Z" fill="currentColor"/>
<path d="M19.81 14.475H18.28V16.005H19.81V14.475Z" fill="currentColor"/>
<path d="M21.33 6.855H18.28V8.385H21.33V6.855Z" fill="currentColor"/>
<path d="M13.71 22.095H16.76V23.625H19.81V20.575H13.71V22.095Z" fill="currentColor"/>
<path d="M18.28 5.335H13.71V6.855H18.28V5.335Z" fill="currentColor"/>
<path d="M13.7099 17.525H12.1899V19.045H13.7099V17.525Z" fill="currentColor"/>
<path d="M13.7099 14.475H12.1899V16.005H13.7099V14.475Z" fill="currentColor"/>
<path d="M13.71 6.855H10.66V8.385H13.71V6.855Z" fill="currentColor"/>
<path d="M12.19 16.005H10.66V17.525H12.19V16.005Z" fill="currentColor"/>
<path d="M10.66 17.525H9.14001V19.045H10.66V17.525Z" fill="currentColor"/>
<path d="M10.66 14.475H9.14001V16.005H10.66V14.475Z" fill="currentColor"/>
<path d="M10.66 8.385H9.14001V9.905H10.66V8.385Z" fill="currentColor"/>
<path d="M9.14 9.905H7.62V12.955H9.14V9.905Z" fill="currentColor"/>
<path d="M7.62005 12.955H3.05005V14.475H7.62005V12.955Z" fill="currentColor"/>
<path d="M3.05002 23.625H1.52002V25.145H3.05002V23.625Z" fill="currentColor"/>
<path d="M3.05002 14.475H1.52002V16.005H3.05002V14.475Z" fill="currentColor"/>
<path d="M1.52 16.005H0V23.625H1.52V16.005Z" fill="currentColor"/>
</g>
<defs>
<clipPath id="clip0_1128_19646">
<rect width="32" height="32" fill="white"/>
</clipPath>
</defs>
</svg>
