<svg width="32" height="32" viewBox="0 0 32 32" fill="none" xmlns="http://www.w3.org/2000/svg">
<path d="M10.67 0V7.62H9.15V9.15H7.62V28.96H9.15V10.67H22.86V28.96H24.38V9.15H22.86V7.62H21.34V0H10.67ZM19.81 7.62H12.19V1.53H19.81V7.62Z" fill="currentColor"/>
<path d="M22.86 28.96H21.34V30.48H22.86V28.96Z" fill="currentColor"/>
<path d="M21.34 30.48H10.67V32H21.34V30.48Z" fill="currentColor"/>
<path d="M19.81 24.38H18.29V25.91H19.81V24.38Z" fill="currentColor"/>
<path d="M19.81 21.34H18.29V22.86H19.81V21.34Z" fill="currentColor"/>
<path d="M18.29 3.05H16.76V6.1H18.29V3.05Z" fill="currentColor"/>
<path d="M18.29 25.91H13.72V27.43H18.29V25.91Z" fill="currentColor"/>
<path d="M15.24 3.05H13.72V6.1H15.24V3.05Z" fill="currentColor"/>
<path d="M13.72 24.38H12.19V25.91H13.72V24.38Z" fill="currentColor"/>
<path d="M13.72 21.34H12.19V22.86H13.72V21.34Z" fill="currentColor"/>
<path d="M10.67 28.96H9.15V30.48H10.67V28.96Z" fill="currentColor"/>
</svg>
