<svg width="32" height="32" viewBox="0 0 32 32" fill="none" xmlns="http://www.w3.org/2000/svg">
<path d="M23.62 15.24V12.19H22.1V15.24H20.57V18.29H22.1V19.81H23.62V21.33H28.19V19.81H29.71V18.29H31.24V15.24H29.71V12.19H28.19V15.24H23.62Z" fill="currentColor"/>
<path d="M28.19 9.14001H26.67V12.19H28.19V9.14001Z" fill="currentColor"/>
<path d="M25.14 9.13999H26.67V4.56999H28.19V3.04999H25.14V4.56999H22.1V6.09999H25.14V9.13999Z" fill="currentColor"/>
<path d="M25.14 9.14001H23.62V12.19H25.14V9.14001Z" fill="currentColor"/>
<path d="M12.95 30.48V28.95H11.43V30.48H9.90002V32H23.62V30.48H22.1V28.95H20.57V30.48H12.95Z" fill="currentColor"/>
<path d="M22.1 6.10001H19.05V7.62001H22.1V6.10001Z" fill="currentColor"/>
<path d="M19.05 1.51999H17.52V3.04999H19.05V1.51999Z" fill="currentColor"/>
<path d="M16 27.43H12.95V28.95H20.57V27.43H17.52V9.13999H19.05V7.61999H17.52V3.04999H16V9.13999H12.95V10.67H16V27.43Z" fill="currentColor"/>
<path d="M17.52 0H16V1.52H17.52V0Z" fill="currentColor"/>
<path d="M16 1.51999H14.48V3.04999H16V1.51999Z" fill="currentColor"/>
<path d="M12.95 10.67H9.90002V12.19H12.95V10.67Z" fill="currentColor"/>
<path d="M3.81001 22.86V19.81H2.29001V22.86H0.76001V25.91H2.29001V27.43H3.81001V28.95H8.38001V27.43H9.90001V25.91H11.43V22.86H9.90001V19.81H8.38001V22.86H3.81001Z" fill="currentColor"/>
<path d="M8.37999 16.76H6.85999V19.81H8.37999V16.76Z" fill="currentColor"/>
<path d="M9.89998 12.19H6.85999V13.72H9.89998V12.19Z" fill="currentColor"/>
<path d="M5.33 16.76H3.81V19.81H5.33V16.76Z" fill="currentColor"/>
<path d="M6.86 16.76V13.72H3.81V15.24H5.33V16.76H6.86Z" fill="currentColor"/>
</svg>
