<svg width="32" height="32" viewBox="0 0 32 32" fill="none" xmlns="http://www.w3.org/2000/svg">
<g clip-path="url(#clip0_1128_9024)">
<path d="M32 9.91003H30.47V16H32V9.91003Z" fill="currentColor"/>
<path d="M30.47 16H28.95V17.53H30.47V16Z" fill="currentColor"/>
<path d="M30.47 6.85999H28.95V9.90999H30.47V6.85999Z" fill="currentColor"/>
<path d="M28.95 5.34003H27.42V6.86003H28.95V5.34003Z" fill="currentColor"/>
<path d="M24.38 17.53V16H22.85V17.53H21.33V20.57H18.28V19.05H15.23V20.57H13.71V23.62H10.66V22.1H9.13999V20.57H7.60999V19.05H3.03999V20.57H4.56999V23.62H6.08999V28.19H7.60999V29.72H9.13999V31.24H24.38V29.72H25.9V28.19H27.42V23.62H28.95V17.53H24.38ZM12.19 28.19H10.66V25.15H12.19V28.19ZM18.28 28.19H16.76V22.1H18.28V28.19ZM24.38 28.19H22.85V25.15H24.38V28.19Z" fill="currentColor"/>
<path d="M28.95 12.95H25.9V14.48H28.95V12.95Z" fill="currentColor"/>
<path d="M27.42 3.81H25.9V5.34H27.42V3.81Z" fill="currentColor"/>
<path d="M24.38 8.38H22.85V11.43H24.38V8.38Z" fill="currentColor"/>
<path d="M25.9 2.29004H22.85V3.81004H25.9V2.29004Z" fill="currentColor"/>
<path d="M21.33 5.34003H19.81V6.86003H21.33V5.34003Z" fill="currentColor"/>
<path d="M19.81 3.81H18.28V5.34H19.81V3.81Z" fill="currentColor"/>
<path d="M19.81 11.43H16.76V12.95H19.81V11.43Z" fill="currentColor"/>
<path d="M22.85 0.76001H13.71V2.29001H22.85V0.76001Z" fill="currentColor"/>
<path d="M16.76 16H13.71V17.53H16.76V16Z" fill="currentColor"/>
<path d="M13.71 9.91003H15.23V8.38003H16.76V6.86003H15.23V5.34003H12.19V6.86003H10.66V8.38003H9.14V9.91003H10.66V11.43H9.14V9.91003H7.61V12.95H9.14V14.48H10.66V12.95H12.19V11.43H13.71V9.91003Z" fill="currentColor"/>
<path d="M13.71 2.29004H9.14V3.81004H13.71V2.29004Z" fill="currentColor"/>
<path d="M10.66 17.53H9.14V19.05H10.66V17.53Z" fill="currentColor"/>
<path d="M9.14 16H7.61V17.53H9.14V16Z" fill="currentColor"/>
<path d="M9.14 3.81H6.09V5.34H9.14V3.81Z" fill="currentColor"/>
<path d="M6.09001 5.34003H4.57001V6.86003H6.09001V5.34003Z" fill="currentColor"/>
<path d="M4.56999 12.95H3.03999V16H4.56999V12.95Z" fill="currentColor"/>
<path d="M4.56999 6.85999H3.03999V9.90999H4.56999V6.85999Z" fill="currentColor"/>
<path d="M3.04 17.53H1.52V19.05H3.04V17.53Z" fill="currentColor"/>
<path d="M3.04 9.91003H1.52V11.43H3.04V9.91003Z" fill="currentColor"/>
<path d="M1.52 11.43H0V17.53H1.52V11.43Z" fill="currentColor"/>
</g>
<defs>
<clipPath id="clip0_1128_9024">
<rect width="32" height="32" fill="white"/>
</clipPath>
</defs>
</svg>
