<svg width="32" height="32" viewBox="0 0 32 32" fill="none" xmlns="http://www.w3.org/2000/svg">
<g clip-path="url(#clip0_1135_2098)">
<path d="M32 9.15002H15.24V10.67H32V9.15002Z" fill="currentColor"/>
<path d="M32 27.4301H13.72V28.9601H32V27.4301Z" fill="currentColor"/>
<path d="M32 22.86H16.77V24.38H32V22.86Z" fill="currentColor"/>
<path d="M32 18.29H18.29V19.81H32V18.29Z" fill="currentColor"/>
<path d="M32 13.72H16.77V15.24H32V13.72Z" fill="currentColor"/>
<path d="M16.77 16.76H15.24V21.34H16.77V16.76Z" fill="currentColor"/>
<path d="M16.77 1.53003H15.24V6.10003H16.77V1.53003Z" fill="currentColor"/>
<path d="M15.24 21.34H13.72V22.86H15.24V21.34Z" fill="currentColor"/>
<path d="M15.24 15.24H13.72V16.76H15.24V15.24Z" fill="currentColor"/>
<path d="M15.24 6.09998H13.72V7.61998H15.24V6.09998Z" fill="currentColor"/>
<path d="M15.2399 0H12.1899V1.53H15.2399V0Z" fill="currentColor"/>
<path d="M13.72 22.86H12.19V15.24H13.72V13.72H12.19V9.15003H13.72V7.62003H12.19V1.53003H10.67V9.15003H9.14998V10.67H10.67V13.72H9.14998V15.24H10.67V18.29H9.14998V19.81H10.67V22.86H7.61998V24.38H10.67V25.91H7.61998V27.43H6.09998V30.48H7.61998V32H10.67V30.48H12.19V24.38H13.72V22.86Z" fill="currentColor"/>
<path d="M9.14999 15.24H7.62V18.29H9.14999V15.24Z" fill="currentColor"/>
<path d="M9.14999 10.67H7.62V12.19H9.14999V10.67Z" fill="currentColor"/>
<path d="M7.61998 21.34H6.09998V22.86H7.61998V21.34Z" fill="currentColor"/>
<path d="M7.61998 12.1899H6.09998V13.7199H7.61998V12.1899Z" fill="currentColor"/>
<path d="M6.09996 13.72H4.57996V21.34H6.09996V13.72Z" fill="currentColor"/>
<path d="M4.58 27.4301H0V28.9601H4.58V27.4301Z" fill="currentColor"/>
<path d="M4.58 22.86H0V24.38H4.58V22.86Z" fill="currentColor"/>
<path d="M3.05 18.29H0V19.81H3.05V18.29Z" fill="currentColor"/>
<path d="M3.05 13.72H0V15.24H3.05V13.72Z" fill="currentColor"/>
<path d="M6.1 9.15002H0V10.67H6.1V9.15002Z" fill="currentColor"/>
</g>
<defs>
<clipPath id="clip0_1135_2098">
<rect width="32" height="32" fill="white"/>
</clipPath>
</defs>
</svg>
