<svg width="32" height="32" viewBox="0 0 32 32" fill="none" xmlns="http://www.w3.org/2000/svg">
<g clip-path="url(#clip0_1128_6277)">
<path d="M30.48 22.1H28.96V23.62H25.91V26.67H22.86V29.72H21.34V31.24H32V29.72H30.48V22.1Z" fill="currentColor"/>
<path d="M30.48 5.34H28.96V8.38H30.48V5.34Z" fill="currentColor"/>
<path d="M28.96 20.57H27.43V22.1H28.96V20.57Z" fill="currentColor"/>
<path d="M28.96 8.38H27.43V9.91H28.96V8.38Z" fill="currentColor"/>
<path d="M28.96 3.81H27.43V5.34H28.96V3.81Z" fill="currentColor"/>
<path d="M27.43 9.91H25.91V11.43H27.43V9.91Z" fill="currentColor"/>
<path d="M27.43 2.29001H25.91V3.81001H27.43V2.29001Z" fill="currentColor"/>
<path d="M25.91 11.43H24.39V12.96H25.91V11.43Z" fill="currentColor"/>
<path d="M25.91 8.38H24.39V9.91H25.91V8.38Z" fill="currentColor"/>
<path d="M25.91 0.76001H22.86V2.29001H25.91V0.76001Z" fill="currentColor"/>
<path d="M27.43 19.05H22.86V20.57H27.43V19.05Z" fill="currentColor"/>
<path d="M24.39 12.96H22.86V14.48H24.39V12.96Z" fill="currentColor"/>
<path d="M24.39 6.86002H22.86V8.38002H24.39V6.86002Z" fill="currentColor"/>
<path d="M22.86 20.57H21.34V22.1H22.86V20.57Z" fill="currentColor"/>
<path d="M22.86 17.53H21.34V19.05H22.86V17.53Z" fill="currentColor"/>
<path d="M22.86 14.48H21.34V16H22.86V14.48Z" fill="currentColor"/>
<path d="M22.86 8.38H21.34V9.91H22.86V8.38Z" fill="currentColor"/>
<path d="M22.86 5.34H21.34V6.86H22.86V5.34Z" fill="currentColor"/>
<path d="M22.86 2.29001H21.34V3.81001H22.86V2.29001Z" fill="currentColor"/>
<path d="M21.34 28.19H19.81V29.72H21.34V28.19Z" fill="currentColor"/>
<path d="M21.34 22.1H19.81V23.62H21.34V22.1Z" fill="currentColor"/>
<path d="M21.34 16H19.81V17.53H21.34V16Z" fill="currentColor"/>
<path d="M21.34 9.91H19.81V11.43H21.34V9.91Z" fill="currentColor"/>
<path d="M21.34 3.81H19.81V5.34H21.34V3.81Z" fill="currentColor"/>
<path d="M19.81 23.62H18.29V28.19H19.81V23.62Z" fill="currentColor"/>
<path d="M19.81 17.53H18.29V19.05H19.81V17.53Z" fill="currentColor"/>
<path d="M19.81 11.43H18.29V12.96H19.81V11.43Z" fill="currentColor"/>
<path d="M19.81 5.34H18.29V6.86H19.81V5.34Z" fill="currentColor"/>
<path d="M18.29 22.1H16.77V23.62H18.29V22.1Z" fill="currentColor"/>
<path d="M18.29 19.05H16.77V20.57H18.29V19.05Z" fill="currentColor"/>
<path d="M18.29 12.96H16.77V14.48H18.29V12.96Z" fill="currentColor"/>
<path d="M18.29 6.86002H16.77V8.38002H18.29V6.86002Z" fill="currentColor"/>
<path d="M16.77 20.57H15.24V22.1H16.77V20.57Z" fill="currentColor"/>
<path d="M16.77 14.48H15.24V16H16.77V14.48Z" fill="currentColor"/>
<path d="M16.77 8.38H15.24V9.91H16.77V8.38Z" fill="currentColor"/>
<path d="M15.24 22.1H13.72V23.62H15.24V22.1Z" fill="currentColor"/>
<path d="M15.24 16H13.72V17.53H15.24V16Z" fill="currentColor"/>
<path d="M15.24 9.91H13.72V11.43H15.24V9.91Z" fill="currentColor"/>
<path d="M13.72 23.62H12.2V25.15H13.72V23.62Z" fill="currentColor"/>
<path d="M13.72 17.53H12.2V19.05H13.72V17.53Z" fill="currentColor"/>
<path d="M13.72 11.43H12.2V12.96H13.72V11.43Z" fill="currentColor"/>
<path d="M13.72 8.38H12.2V9.91H13.72V8.38Z" fill="currentColor"/>
<path d="M12.2 25.15H10.67V26.67H12.2V25.15Z" fill="currentColor"/>
<path d="M12.2 19.05H10.67V20.57H12.2V19.05Z" fill="currentColor"/>
<path d="M12.2 12.96H10.67V14.48H12.2V12.96Z" fill="currentColor"/>
<path d="M12.2 6.86002H10.67V8.38002H12.2V6.86002Z" fill="currentColor"/>
<path d="M10.67 26.67H9.15002V28.19H10.67V26.67Z" fill="currentColor"/>
<path d="M10.67 20.57H9.15002V22.1H10.67V20.57Z" fill="currentColor"/>
<path d="M10.67 14.48H9.15002V16H10.67V14.48Z" fill="currentColor"/>
<path d="M10.67 5.34H9.15002V6.86H10.67V5.34Z" fill="currentColor"/>
<path d="M9.14999 28.19H7.62V29.72H9.14999V28.19Z" fill="currentColor"/>
<path d="M9.14999 22.1H7.62V23.62H9.14999V22.1Z" fill="currentColor"/>
<path d="M9.14999 16H7.62V17.53H9.14999V16Z" fill="currentColor"/>
<path d="M9.14999 12.96H7.62V14.48H9.14999V12.96Z" fill="currentColor"/>
<path d="M9.14999 3.81H7.62V5.34H9.14999V3.81Z" fill="currentColor"/>
<path d="M7.61998 26.67H6.09998V28.19H7.61998V26.67Z" fill="currentColor"/>
<path d="M7.61998 23.62H6.09998V25.15H7.61998V23.62Z" fill="currentColor"/>
<path d="M7.61998 17.53H6.09998V19.05H7.61998V17.53Z" fill="currentColor"/>
<path d="M7.61998 11.43H6.09998V12.96H7.61998V11.43Z" fill="currentColor"/>
<path d="M7.61998 2.29001H6.09998V3.81001H7.61998V2.29001Z" fill="currentColor"/>
<path d="M4.58 28.19H3.05V26.67H1.53V23.62H0V31.24H7.62V29.72H4.58V28.19Z" fill="currentColor"/>
<path d="M6.10002 25.15H4.58002V26.67H6.10002V25.15Z" fill="currentColor"/>
<path d="M6.10002 19.05H4.58002V20.57H6.10002V19.05Z" fill="currentColor"/>
<path d="M6.10002 9.91H4.58002V11.43H6.10002V9.91Z" fill="currentColor"/>
<path d="M6.09999 0.76001H3.04999V2.29001H6.09999V0.76001Z" fill="currentColor"/>
<path d="M4.57999 23.62H3.04999V25.15H4.57999V23.62Z" fill="currentColor"/>
<path d="M4.57999 20.57H3.04999V22.1H4.57999V20.57Z" fill="currentColor"/>
<path d="M4.57999 8.38H3.04999V9.91H4.57999V8.38Z" fill="currentColor"/>
<path d="M3.05003 22.1H1.53003V23.62H3.05003V22.1Z" fill="currentColor"/>
<path d="M3.05003 6.86002H1.53003V8.38002H3.05003V6.86002Z" fill="currentColor"/>
<path d="M3.05003 2.29001H1.53003V3.81001H3.05003V2.29001Z" fill="currentColor"/>
<path d="M1.53 3.81H0V6.86H1.53V3.81Z" fill="currentColor"/>
</g>
<defs>
<clipPath id="clip0_1128_6277">
<rect width="32" height="32" fill="white"/>
</clipPath>
</defs>
</svg>
