<svg width="32" height="32" viewBox="0 0 32 32" fill="none" xmlns="http://www.w3.org/2000/svg">
<g clip-path="url(#clip0_1128_13948)">
<path d="M32 29.72H30.47V31.24H32V29.72Z" fill="currentColor"/>
<path d="M28.95 26.67H27.42V28.19H28.95V26.67Z" fill="currentColor"/>
<path d="M28.95 11.43H27.42V14.48H28.95V11.43Z" fill="currentColor"/>
<path d="M27.42 14.48H25.9V16H27.42V14.48Z" fill="currentColor"/>
<path d="M27.42 9.91H25.9V11.43H27.42V9.91Z" fill="currentColor"/>
<path d="M25.9 29.72H24.38V31.24H25.9V29.72Z" fill="currentColor"/>
<path d="M25.9 16H24.38V17.53H25.9V16Z" fill="currentColor"/>
<path d="M25.9 8.38H24.38V9.91H25.9V8.38Z" fill="currentColor"/>
<path d="M24.38 26.67H22.85V28.19H24.38V26.67Z" fill="currentColor"/>
<path d="M24.38 17.53H22.85V19.05H24.38V17.53Z" fill="currentColor"/>
<path d="M24.38 6.86002H22.85V8.38002H24.38V6.86002Z" fill="currentColor"/>
<path d="M22.85 19.05H21.33V20.57H22.85V19.05Z" fill="currentColor"/>
<path d="M22.85 5.33002H21.33V6.86002H22.85V5.33002Z" fill="currentColor"/>
<path d="M21.33 28.19H19.8V29.72H21.33V28.19Z" fill="currentColor"/>
<path d="M21.33 20.57H19.8V22.1H21.33V20.57Z" fill="currentColor"/>
<path d="M21.33 3.81H19.8V5.33H21.33V3.81Z" fill="currentColor"/>
<path d="M19.8 22.1H18.28V23.62H19.8V22.1Z" fill="currentColor"/>
<path d="M19.8 11.43H18.28V12.95H19.8V11.43Z" fill="currentColor"/>
<path d="M19.8 2.29001H18.28V3.81001H19.8V2.29001Z" fill="currentColor"/>
<path d="M18.28 23.62H16.76V25.14H18.28V23.62Z" fill="currentColor"/>
<path d="M18.28 0.76001H15.23V2.29001H18.28V0.76001Z" fill="currentColor"/>
<path d="M16.76 25.14H15.23V26.67H16.76V25.14Z" fill="currentColor"/>
<path d="M18.28 14.48H15.23V16H18.28V14.48Z" fill="currentColor"/>
<path d="M16.76 8.38H15.23V9.91H16.76V8.38Z" fill="currentColor"/>
<path d="M15.23 23.62H13.71V25.14H15.23V23.62Z" fill="currentColor"/>
<path d="M15.23 12.95H13.71V14.48H15.23V12.95Z" fill="currentColor"/>
<path d="M15.23 2.29001H13.71V3.81001H15.23V2.29001Z" fill="currentColor"/>
<path d="M13.7099 25.14H12.1899V26.67H13.7099V25.14Z" fill="currentColor"/>
<path d="M13.7099 22.1H12.1899V23.62H13.7099V22.1Z" fill="currentColor"/>
<path d="M13.7099 9.91H12.1899V12.95H13.7099V9.91Z" fill="currentColor"/>
<path d="M13.7099 3.81H12.1899V5.33H13.7099V3.81Z" fill="currentColor"/>
<path d="M12.19 20.57H10.66V22.1H12.19V20.57Z" fill="currentColor"/>
<path d="M12.19 5.33002H10.66V6.86002H12.19V5.33002Z" fill="currentColor"/>
<path d="M6.09 29.72H7.61V31.24H18.28V29.72H15.23V28.19H12.19V26.67H6.09V28.19H1.52V29.72H0V31.24H6.09V29.72Z" fill="currentColor"/>
<path d="M10.66 19.05H9.14001V20.57H10.66V19.05Z" fill="currentColor"/>
<path d="M10.66 6.86002H9.14001V8.38002H10.66V6.86002Z" fill="currentColor"/>
<path d="M9.13999 17.53H7.60999V19.05H9.13999V17.53Z" fill="currentColor"/>
<path d="M9.13999 8.38H7.60999V9.91H9.13999V8.38Z" fill="currentColor"/>
<path d="M7.60997 16H6.08997V17.53H7.60997V16Z" fill="currentColor"/>
<path d="M7.60997 9.91H6.08997V11.43H7.60997V9.91Z" fill="currentColor"/>
<path d="M6.08995 25.14H4.56995V26.67H6.08995V25.14Z" fill="currentColor"/>
<path d="M6.08995 14.48H4.56995V16H6.08995V14.48Z" fill="currentColor"/>
<path d="M6.08995 11.43H4.56995V12.95H6.08995V11.43Z" fill="currentColor"/>
<path d="M4.57004 23.62H3.04004V25.14H4.57004V23.62Z" fill="currentColor"/>
<path d="M4.57004 16H3.04004V17.53H4.57004V16Z" fill="currentColor"/>
<path d="M4.57004 12.95H3.04004V14.48H4.57004V12.95Z" fill="currentColor"/>
<path d="M3.04002 22.1H1.52002V23.62H3.04002V22.1Z" fill="currentColor"/>
<path d="M3.04002 17.53H1.52002V19.05H3.04002V17.53Z" fill="currentColor"/>
<path d="M1.52 19.05H0V22.1H1.52V19.05Z" fill="currentColor"/>
</g>
<defs>
<clipPath id="clip0_1128_13948">
<rect width="32" height="32" fill="white"/>
</clipPath>
</defs>
</svg>
