<svg width="32" height="32" viewBox="0 0 32 32" fill="none" xmlns="http://www.w3.org/2000/svg">
<g clip-path="url(#clip0_1128_12687)">
<path d="M31.235 8.37999H29.715V20.57H31.235V8.37999Z" fill="currentColor"/>
<path d="M29.7151 20.57H28.1951V22.09H29.7151V20.57Z" fill="currentColor"/>
<path d="M29.7151 6.86H28.1951V8.38H29.7151V6.86Z" fill="currentColor"/>
<path d="M28.195 22.09H26.665V23.62H28.195V22.09Z" fill="currentColor"/>
<path d="M28.195 5.32999H26.665V6.85999H28.195V5.32999Z" fill="currentColor"/>
<path d="M26.665 23.62H25.145V25.14H26.665V23.62Z" fill="currentColor"/>
<path d="M26.665 3.81H25.145V5.33H26.665V3.81Z" fill="currentColor"/>
<path d="M25.145 25.14H23.615V26.66H25.145V25.14Z" fill="currentColor"/>
<path d="M25.145 12.95H22.095V16H25.145V12.95Z" fill="currentColor"/>
<path d="M25.145 2.28H22.095V3.81H25.145V2.28Z" fill="currentColor"/>
<path d="M23.6151 26.66H20.5751V28.19H23.6151V26.66Z" fill="currentColor"/>
<path d="M20.575 28.19H17.525V29.71H20.575V28.19Z" fill="currentColor"/>
<path d="M6.85506 29.71V28.19H5.33506V29.71H3.81506V31.24H17.5251V29.71H6.85506Z" fill="currentColor"/>
<path d="M17.525 12.95H14.475V16H17.525V12.95Z" fill="currentColor"/>
<path d="M22.095 0.759995H11.425V2.27999H22.095V0.759995Z" fill="currentColor"/>
<path d="M11.425 2.28H8.38501V3.81H11.425V2.28Z" fill="currentColor"/>
<path d="M8.38498 26.66H9.90498V25.14H6.85498V28.19H8.38498V26.66Z" fill="currentColor"/>
<path d="M9.90498 12.95H6.85498V16H9.90498V12.95Z" fill="currentColor"/>
<path d="M8.38496 3.81H5.33496V5.33H8.38496V3.81Z" fill="currentColor"/>
<path d="M6.85496 23.62H5.33496V25.14H6.85496V23.62Z" fill="currentColor"/>
<path d="M5.33506 22.09H3.81506V23.62H5.33506V22.09Z" fill="currentColor"/>
<path d="M5.33506 5.32999H3.81506V6.85999H5.33506V5.32999Z" fill="currentColor"/>
<path d="M3.81503 20.57H2.28503V22.09H3.81503V20.57Z" fill="currentColor"/>
<path d="M3.81503 6.86H2.28503V8.38H3.81503V6.86Z" fill="currentColor"/>
<path d="M2.28501 8.37999H0.765015V20.57H2.28501V8.37999Z" fill="currentColor"/>
</g>
<defs>
<clipPath id="clip0_1128_12687">
<rect width="32" height="32" fill="white"/>
</clipPath>
</defs>
</svg>
