<svg width="32" height="32" viewBox="0 0 32 32" fill="none" xmlns="http://www.w3.org/2000/svg">
<g clip-path="url(#clip0_1128_8887)">
<path d="M32 18.285H30.47V21.335H32V18.285Z" fill="currentColor"/>
<path d="M32 10.665H30.47V13.715H32V10.665Z" fill="currentColor"/>
<path d="M30.47 16.765H28.95V18.285H30.47V16.765Z" fill="currentColor"/>
<path d="M30.47 13.715H28.95V15.235H30.47V13.715Z" fill="currentColor"/>
<path d="M30.47 9.14496H27.42V10.665H30.47V9.14496Z" fill="currentColor"/>
<path d="M30.47 21.335H27.42V22.855H30.47V21.335Z" fill="currentColor"/>
<path d="M28.95 15.235H27.42V16.765H28.95V15.235Z" fill="currentColor"/>
<path d="M27.42 19.805H25.9V21.335H27.42V19.805Z" fill="currentColor"/>
<path d="M27.42 10.665H25.9V12.185H27.42V10.665Z" fill="currentColor"/>
<path d="M25.9 12.185H24.38V15.235H21.33V12.185H19.81V15.235H16.76V9.14497H15.23V15.235H12.19V6.09497H6.09003V7.61497H10.66V24.385H6.09003V25.905H12.19V16.765H15.23V22.855H16.76V16.765H19.81V19.805H21.33V16.765H24.38V19.805H25.9V12.185Z" fill="currentColor"/>
<path d="M7.61001 15.235H4.57001V18.285H7.61001V15.235Z" fill="currentColor"/>
<path d="M6.08998 22.855H3.03998V24.385H6.08998V22.855Z" fill="currentColor"/>
<path d="M6.08998 7.61499H3.03998V9.14499H6.08998V7.61499Z" fill="currentColor"/>
<path d="M3.04002 19.805H1.52002V22.855H3.04002V19.805Z" fill="currentColor"/>
<path d="M3.04002 9.14496H1.52002V12.185H3.04002V9.14496Z" fill="currentColor"/>
<path d="M1.52 12.185H0V19.805H1.52V12.185Z" fill="currentColor"/>
</g>
<defs>
<clipPath id="clip0_1128_8887">
<rect width="32" height="32" fill="white"/>
</clipPath>
</defs>
</svg>
