<svg width="32" height="32" viewBox="0 0 32 32" fill="none" xmlns="http://www.w3.org/2000/svg">
<g clip-path="url(#clip0_1128_14674)">
<path d="M32 27.43H30.48V30.48H32V27.43Z" fill="currentColor"/>
<path d="M30.4799 24.38H28.95V27.43H30.4799V24.38Z" fill="currentColor"/>
<path d="M30.48 30.48H1.52002V32H30.48V30.48Z" fill="currentColor"/>
<path d="M28.9501 21.33H27.4301V24.38H28.9501V21.33Z" fill="currentColor"/>
<path d="M27.43 18.29H25.9V21.33H27.43V18.29Z" fill="currentColor"/>
<path d="M25.9 15.24H24.38V18.29H25.9V15.24Z" fill="currentColor"/>
<path d="M24.38 12.19H22.86V15.24H24.38V12.19Z" fill="currentColor"/>
<path d="M22.86 9.14001H21.33V12.19H22.86V9.14001Z" fill="currentColor"/>
<path d="M21.3301 6.09003H19.8101V9.14003H21.3301V6.09003Z" fill="currentColor"/>
<path d="M19.81 3.04999H18.29V6.08999H19.81V3.04999Z" fill="currentColor"/>
<path d="M18.2899 21.33H13.7099V22.86H12.1899V27.43H13.7099V28.95H18.2899V27.43H19.8099V22.86H18.2899V21.33Z" fill="currentColor"/>
<path d="M18.2899 9.14001H13.7099V10.67H12.1899V16.76H13.7099V19.81H18.2899V16.76H19.8099V10.67H18.2899V9.14001ZM18.2899 15.24H16.7599V12.19H15.2399V10.67H16.7599V12.19H18.2899V15.24Z" fill="currentColor"/>
<path d="M18.29 1.52002H16.76V3.05002H18.29V1.52002Z" fill="currentColor"/>
<path d="M16.76 0H15.24V1.52H16.76V0Z" fill="currentColor"/>
<path d="M15.24 1.52002H13.71V3.05002H15.24V1.52002Z" fill="currentColor"/>
<path d="M13.7099 3.04999H12.1899V6.08999H13.7099V3.04999Z" fill="currentColor"/>
<path d="M12.19 6.09003H10.67V9.14003H12.19V6.09003Z" fill="currentColor"/>
<path d="M10.67 9.14001H9.14001V12.19H10.67V9.14001Z" fill="currentColor"/>
<path d="M9.14 12.19H7.62V15.24H9.14V12.19Z" fill="currentColor"/>
<path d="M7.61997 15.24H6.08997V18.29H7.61997V15.24Z" fill="currentColor"/>
<path d="M6.08995 18.29H4.56995V21.33H6.08995V18.29Z" fill="currentColor"/>
<path d="M4.57005 21.33H3.05005V24.38H4.57005V21.33Z" fill="currentColor"/>
<path d="M3.05002 24.38H1.52002V27.43H3.05002V24.38Z" fill="currentColor"/>
<path d="M1.52 27.43H0V30.48H1.52V27.43Z" fill="currentColor"/>
</g>
<defs>
<clipPath id="clip0_1128_14674">
<rect width="32" height="32" fill="white"/>
</clipPath>
</defs>
</svg>
