<svg width="32" height="32" viewBox="0 0 32 32" fill="none" xmlns="http://www.w3.org/2000/svg">
<g clip-path="url(#clip0_1128_13250)">
<path d="M32 12.19H30.47V18.29H32V12.19Z" fill="currentColor"/>
<path d="M30.4699 18.29H28.95V19.81H30.4699V18.29Z" fill="currentColor"/>
<path d="M30.4699 10.67H28.95V12.19H30.4699V10.67Z" fill="currentColor"/>
<path d="M28.9501 24.38H27.4301V25.9H28.9501V24.38Z" fill="currentColor"/>
<path d="M27.43 25.9H25.9V27.43H27.43V25.9Z" fill="currentColor"/>
<path d="M28.95 19.81H22.85V21.33H28.95V19.81Z" fill="currentColor"/>
<path d="M27.43 12.19H24.38V13.71H22.85V16.76H24.38V18.29H27.43V16.76H28.95V13.71H27.43V12.19Z" fill="currentColor"/>
<path d="M27.43 4.57001H25.9V6.10001H27.43V4.57001Z" fill="currentColor"/>
<path d="M28.95 9.14001H22.85V10.67H28.95V9.14001Z" fill="currentColor"/>
<path d="M25.9 27.43H22.85V28.95H25.9V27.43Z" fill="currentColor"/>
<path d="M25.9 3.04999H22.85V4.56999H25.9V3.04999Z" fill="currentColor"/>
<path d="M22.85 18.29H21.33V19.81H22.85V18.29Z" fill="currentColor"/>
<path d="M22.85 10.67H21.33V12.19H22.85V10.67Z" fill="currentColor"/>
<path d="M22.8501 28.95H19.8101V30.48H22.8501V28.95Z" fill="currentColor"/>
<path d="M15.24 15.24V19.81H16.76V16.76H19.81V18.29H21.33V15.24H15.24Z" fill="currentColor"/>
<path d="M22.8501 1.51999H19.8101V3.04999H22.8501V1.51999Z" fill="currentColor"/>
<path d="M19.8099 30.48H12.1899V32H19.8099V30.48Z" fill="currentColor"/>
<path d="M15.24 19.81H13.71V21.33H15.24V19.81Z" fill="currentColor"/>
<path d="M19.8099 0H12.1899V1.52H19.8099V0Z" fill="currentColor"/>
<path d="M13.71 15.24H9.14001V19.81H10.66V16.76H12.19V19.81H13.71V15.24Z" fill="currentColor"/>
<path d="M12.19 28.95H9.14001V30.48H12.19V28.95Z" fill="currentColor"/>
<path d="M12.19 1.51999H9.14001V3.04999H12.19V1.51999Z" fill="currentColor"/>
<path d="M21.33 12.19H7.62V13.71H21.33V12.19Z" fill="currentColor"/>
<path d="M9.13997 27.43H6.08997V28.95H9.13997V27.43Z" fill="currentColor"/>
<path d="M9.14 19.81H7.62V21.33H9.14V19.81Z" fill="currentColor"/>
<path d="M9.13997 3.04999H6.08997V4.56999H9.13997V3.04999Z" fill="currentColor"/>
<path d="M7.61997 13.71H6.08997V19.81H7.61997V13.71Z" fill="currentColor"/>
<path d="M6.08995 25.9H4.56995V27.43H6.08995V25.9Z" fill="currentColor"/>
<path d="M6.08995 4.57001H4.56995V6.10001H6.08995V4.57001Z" fill="currentColor"/>
<path d="M4.57005 22.86H3.05005V25.9H4.57005V22.86Z" fill="currentColor"/>
<path d="M4.57005 6.10001H3.05005V9.14001H4.57005V6.10001Z" fill="currentColor"/>
<path d="M3.05002 19.81H1.52002V22.86H3.05002V19.81Z" fill="currentColor"/>
<path d="M3.05002 9.14001H1.52002V12.19H3.05002V9.14001Z" fill="currentColor"/>
<path d="M1.52 12.19H0V19.81H1.52V12.19Z" fill="currentColor"/>
</g>
<defs>
<clipPath id="clip0_1128_13250">
<rect width="32" height="32" fill="white"/>
</clipPath>
</defs>
</svg>
