<svg width="32" height="32" viewBox="0 0 32 32" fill="none" xmlns="http://www.w3.org/2000/svg">
<path d="M28.19 26.66H26.67V29.71H28.19V26.66Z" fill="currentColor"/>
<path d="M26.67 9.90002H25.15V12.95H26.67V9.90002Z" fill="currentColor"/>
<path d="M26.6701 29.71H6.86011V31.24H26.6701V29.71Z" fill="currentColor"/>
<path d="M25.1501 12.95H23.6201V14.47H25.1501V12.95Z" fill="currentColor"/>
<path d="M25.1501 8.38H23.6201V9.9H25.1501V8.38Z" fill="currentColor"/>
<path d="M23.6201 17.52H22.1001V20.57H23.6201V17.52Z" fill="currentColor"/>
<path d="M23.6201 6.85999H22.1001V8.37999H23.6201V6.85999Z" fill="currentColor"/>
<path d="M19.05 14.47V16H20.57V17.52H22.1V16H23.6201V14.47H19.05Z" fill="currentColor"/>
<path d="M22.1001 9.90002H20.5701V11.43H22.1001V9.90002Z" fill="currentColor"/>
<path d="M22.1001 3.81006H20.5701V6.86006H22.1001V3.81006Z" fill="currentColor"/>
<path d="M20.57 2.28003H19.05V3.81003H20.57V2.28003Z" fill="currentColor"/>
<path d="M19.05 12.95H17.53V14.47H19.05V12.95Z" fill="currentColor"/>
<path d="M19.05 6.85999H17.53V8.37999H19.05V6.85999Z" fill="currentColor"/>
<path d="M19.05 0.76001H17.53V2.28001H19.05V0.76001Z" fill="currentColor"/>
<path d="M17.53 11.4301H16V12.9501H17.53V11.4301Z" fill="currentColor"/>
<path d="M17.53 5.32996H16V6.85996H17.53V5.32996Z" fill="currentColor"/>
<path d="M16.0001 6.85999H14.4801V8.37999H16.0001V6.85999Z" fill="currentColor"/>
<path d="M17.5301 2.28003H14.4801V3.81003H17.5301V2.28003Z" fill="currentColor"/>
<path d="M14.4801 0.76001H12.9601V2.28001H14.4801V0.76001Z" fill="currentColor"/>
<path d="M11.4301 20.57H12.9601V17.52H11.4301V16H9.91006V8.38003H11.4301V6.86003H12.9601V2.28003H9.91006V3.81003H6.86006V5.33003H5.34006V6.86003H3.81006V16H5.34006V17.52H6.86006V19.05H9.91006V22.09H11.4301V20.57ZM8.38006 16H6.86006V14.47H8.38006V16ZM8.38006 11.43H5.34006V9.90003H8.38006V11.43ZM8.38006 6.86003V5.33003H9.91006V6.86003H8.38006Z" fill="currentColor"/>
<path d="M26.6701 26.6601V25.1401H25.1501V20.5701H23.6201V25.1401H9.91011V22.0901H8.38011V25.1401H6.86011V26.6601H26.6701Z" fill="currentColor"/>
<path d="M6.86009 26.66H5.34009V29.71H6.86009V26.66Z" fill="currentColor"/>
</svg>
