<svg width="32" height="32" viewBox="0 0 32 32" fill="none" xmlns="http://www.w3.org/2000/svg">
<g clip-path="url(#clip0_1128_12135)">
<path d="M32 12.19H30.47V19.81H32V12.19Z" fill="currentColor"/>
<path d="M30.4699 19.81H28.95V22.86H30.4699V19.81Z" fill="currentColor"/>
<path d="M30.4699 9.14H28.95V12.19H30.4699V9.14Z" fill="currentColor"/>
<path d="M28.9501 22.86H27.4301V25.9H28.9501V22.86Z" fill="currentColor"/>
<path d="M28.9501 6.1H27.4301V9.14H28.9501V6.1Z" fill="currentColor"/>
<path d="M27.43 25.9H25.9V27.43H27.43V25.9Z" fill="currentColor"/>
<path d="M27.43 4.57H25.9V6.1H27.43V4.57Z" fill="currentColor"/>
<path d="M6.08995 24.38H7.61995V25.9H10.6599V24.38H12.1899V22.86H10.6599V21.33H9.13995V15.24H10.6599V13.71H21.3299V15.24H22.8499V21.33H21.3299V22.86H19.8099V24.38H21.3299V25.9H24.3799V24.38H25.8999V21.33H27.4299V13.71H25.8999V10.67H24.3799V9.14H22.8499V7.62H21.3299V6.1H10.6599V7.62H9.13995V9.14H7.61995V10.67H6.08995V13.71H4.56995V21.33H6.08995V24.38Z" fill="currentColor"/>
<path d="M25.9 27.43H22.85V28.95H25.9V27.43Z" fill="currentColor"/>
<path d="M25.9 3.05H22.85V4.57H25.9V3.05Z" fill="currentColor"/>
<path d="M22.8501 28.95H19.8101V30.48H22.8501V28.95Z" fill="currentColor"/>
<path d="M21.3301 16.76H19.8101V19.81H21.3301V16.76Z" fill="currentColor"/>
<path d="M22.8501 1.52H19.8101V3.05H22.8501V1.52Z" fill="currentColor"/>
<path d="M19.8099 30.48H12.1899V32H19.8099V30.48Z" fill="currentColor"/>
<path d="M19.8099 24.38H12.1899V25.9H19.8099V24.38Z" fill="currentColor"/>
<path d="M18.28 21.33H13.71V22.86H18.28V21.33Z" fill="currentColor"/>
<path d="M19.8099 0H12.1899V1.52H19.8099V0Z" fill="currentColor"/>
<path d="M12.19 28.95H9.14001V30.48H12.19V28.95Z" fill="currentColor"/>
<path d="M12.19 16.76H10.66V19.81H12.19V16.76Z" fill="currentColor"/>
<path d="M12.19 1.52H9.14001V3.05H12.19V1.52Z" fill="currentColor"/>
<path d="M9.13997 27.43H6.08997V28.95H9.13997V27.43Z" fill="currentColor"/>
<path d="M9.13997 3.05H6.08997V4.57H9.13997V3.05Z" fill="currentColor"/>
<path d="M6.08995 25.9H4.56995V27.43H6.08995V25.9Z" fill="currentColor"/>
<path d="M6.08995 4.57H4.56995V6.1H6.08995V4.57Z" fill="currentColor"/>
<path d="M4.57005 22.86H3.05005V25.9H4.57005V22.86Z" fill="currentColor"/>
<path d="M4.57005 6.1H3.05005V9.14H4.57005V6.1Z" fill="currentColor"/>
<path d="M3.05002 19.81H1.52002V22.86H3.05002V19.81Z" fill="currentColor"/>
<path d="M3.05002 9.14H1.52002V12.19H3.05002V9.14Z" fill="currentColor"/>
<path d="M1.52 12.19H0V19.81H1.52V12.19Z" fill="currentColor"/>
</g>
<defs>
<clipPath id="clip0_1128_12135">
<rect width="32" height="32" fill="white"/>
</clipPath>
</defs>
</svg>
