<svg width="32" height="32" viewBox="0 0 32 32" fill="none" xmlns="http://www.w3.org/2000/svg">
<g clip-path="url(#clip0_1128_19852)">
<path d="M32 3.04999H30.47V28.95H32V3.04999Z" fill="currentColor"/>
<path d="M30.47 28.95H28.95V30.48H30.47V28.95Z" fill="currentColor"/>
<path d="M30.47 1.51999H28.95V3.04999H30.47V1.51999Z" fill="currentColor"/>
<path d="M28.95 30.48H3.03998V32H28.95V30.48Z" fill="currentColor"/>
<path d="M27.42 9.13999H24.38V10.67H22.85V9.13999H21.33V7.61999H19.81V6.08999H21.33V4.56999H19.81V3.04999H16.76V4.56999H15.23V22.86H13.71V24.38H10.66V22.86H9.13998V16.76H10.66V15.24H12.19V10.67H7.60998V12.19H6.08998V13.71H4.56998V15.24H3.03998V22.86H4.56998V16.76H6.08998V15.24H7.60998V13.71H9.13998V15.24H7.60998V16.76H6.08998V22.86H4.56998V25.9H6.08998V24.38H7.60998V25.9H9.13998V27.43H7.60998V28.95H16.76V27.43H18.28V25.9H19.81V24.38H21.33V13.71H22.85V15.24H27.42V13.71H28.95V10.67H27.42V9.13999ZM19.81 22.86H18.28V12.19H19.81V22.86Z" fill="currentColor"/>
<path d="M24.38 7.62H22.85V9.14H24.38V7.62Z" fill="currentColor"/>
<path d="M22.85 6.09H21.33V7.62H22.85V6.09Z" fill="currentColor"/>
<path d="M7.61003 25.9H6.09003V27.43H7.61003V25.9Z" fill="currentColor"/>
<path d="M28.95 0H3.03998V1.52H28.95V0Z" fill="currentColor"/>
<path d="M3.04002 28.95H1.52002V30.48H3.04002V28.95Z" fill="currentColor"/>
<path d="M3.04002 1.51999H1.52002V3.04999H3.04002V1.51999Z" fill="currentColor"/>
<path d="M1.52 3.04999H0V28.95H1.52V3.04999Z" fill="currentColor"/>
</g>
<defs>
<clipPath id="clip0_1128_19852">
<rect width="32" height="32" fill="white"/>
</clipPath>
</defs>
</svg>
