<svg width="32" height="32" viewBox="0 0 32 32" fill="none" xmlns="http://www.w3.org/2000/svg">
<path d="M27.43 12.955H25.91V28.195H27.43V12.955Z" fill="currentColor"/>
<path d="M25.91 28.1951H24.38V29.7151H25.91V28.1951Z" fill="currentColor"/>
<path d="M25.91 11.425H24.38V12.955H25.91V11.425Z" fill="currentColor"/>
<path d="M25.91 5.33502H24.38V6.85502H25.91V5.33502Z" fill="currentColor"/>
<path d="M24.38 9.90503H22.86V11.425H24.38V9.90503Z" fill="currentColor"/>
<path d="M24.38 29.715H7.62V31.235H24.38V29.715Z" fill="currentColor"/>
<path d="M15.24 26.665H9.14001V28.195H22.86V26.665H24.38V14.475H21.33V16.005H19.81V17.525H16.76V25.145H15.24V26.665Z" fill="currentColor"/>
<path d="M15.24 16.005H13.72V23.615H15.24V16.005Z" fill="currentColor"/>
<path d="M21.33 0.765015H10.67V2.28501H21.33V0.765015Z" fill="currentColor"/>
<path d="M12.19 20.575H7.62V22.095H12.19V20.575Z" fill="currentColor"/>
<path d="M12.19 17.525H7.62V19.045H12.19V17.525Z" fill="currentColor"/>
<path d="M10.67 8.38504H21.33V9.90504H22.86V8.38504H24.38V6.85504H7.62V8.38504H9.14V9.90504H10.67V8.38504Z" fill="currentColor"/>
<path d="M24.38 5.33503V3.80503H22.86V2.28503H21.33V3.80503H10.67V2.28503H9.14V3.80503H7.62V5.33503H24.38Z" fill="currentColor"/>
<path d="M9.14 9.90503H7.62V11.425H9.14V9.90503Z" fill="currentColor"/>
<path d="M7.62001 28.1951H6.10001V29.7151H7.62001V28.1951Z" fill="currentColor"/>
<path d="M7.62001 11.425H6.10001V12.955H7.62001V11.425Z" fill="currentColor"/>
<path d="M7.62001 5.33502H6.10001V6.85502H7.62001V5.33502Z" fill="currentColor"/>
<path d="M6.10001 25.145H13.72V23.615H6.10001V16.005H13.72V14.475H6.10001V12.955H4.57001V28.195H6.10001V25.145Z" fill="currentColor"/>
</svg>
