<svg width="32" height="32" viewBox="0 0 32 32" fill="none" xmlns="http://www.w3.org/2000/svg">
<path d="M30.4751 12.19H28.9551V18.28H30.4751V12.19Z" fill="currentColor"/>
<path d="M28.955 18.28H27.425V19.81H28.955V18.28Z" fill="currentColor"/>
<path d="M28.955 10.66H25.905V12.19H28.955V10.66Z" fill="currentColor"/>
<path d="M27.425 19.81H25.905V21.33H27.425V19.81Z" fill="currentColor"/>
<path d="M27.425 15.24H25.905V16.76H27.425V15.24Z" fill="currentColor"/>
<path d="M25.905 18.28H24.375V19.81H25.905V18.28Z" fill="currentColor"/>
<path d="M25.905 12.19H24.375V15.24H25.905V12.19Z" fill="currentColor"/>
<path d="M19.805 4.56999V6.08999H18.285V9.13999H19.805V10.66H21.335V32H22.855V22.85H25.905V21.33H22.855V16.76H24.375V15.24H22.855V9.13999H24.375V6.08999H22.855V7.61999H21.335V6.08999H22.855V3.04999H21.335V4.56999H19.805Z" fill="currentColor"/>
<path d="M21.3351 1.52002H19.8051V3.05002H21.3351V1.52002Z" fill="currentColor"/>
<path d="M19.805 24.38H18.285V27.43H19.805V24.38Z" fill="currentColor"/>
<path d="M19.805 16.76H18.285V19.81H19.805V16.76Z" fill="currentColor"/>
<path d="M19.805 0H15.235V1.52H19.805V0Z" fill="currentColor"/>
<path d="M16.755 28.95H15.235V30.47H16.755V28.95Z" fill="currentColor"/>
<path d="M16.755 19.81H15.235V22.85H16.755V19.81Z" fill="currentColor"/>
<path d="M16.755 12.19H15.235V15.24H16.755V12.19Z" fill="currentColor"/>
<path d="M16.755 4.57001H15.235V6.09001H16.755V4.57001Z" fill="currentColor"/>
<path d="M15.235 1.52002H13.715V3.05002H15.235V1.52002Z" fill="currentColor"/>
<path d="M13.7151 25.9H12.1851V32H13.7151V25.9Z" fill="currentColor"/>
<path d="M13.7151 7.62H12.1851V18.28H13.7151V7.62Z" fill="currentColor"/>
<path d="M13.715 6.09002V3.05002H12.185V4.57002H10.665V3.05002H12.185V1.52002H9.14499V3.05002H7.61499V6.09002H9.14499V7.62002H12.185V6.09002H13.715Z" fill="currentColor"/>
<path d="M12.185 18.28H10.665V19.81H12.185V18.28Z" fill="currentColor"/>
<path d="M10.665 21.33H9.14502V22.85H10.665V21.33Z" fill="currentColor"/>
<path d="M10.665 16.76H9.14502V18.28H10.665V16.76Z" fill="currentColor"/>
<path d="M12.185 24.38H7.61499V25.9H12.185V24.38Z" fill="currentColor"/>
<path d="M9.14499 10.66H7.61499V16.76H9.14499V10.66Z" fill="currentColor"/>
<path d="M7.61497 22.85H6.09497V24.38H7.61497V22.85Z" fill="currentColor"/>
<path d="M7.61497 18.28H6.09497V19.81H7.61497V18.28Z" fill="currentColor"/>
<path d="M7.61504 9.14001H3.04504V10.66H7.61504V9.14001Z" fill="currentColor"/>
<path d="M6.09506 21.33H4.56506V22.85H6.09506V21.33Z" fill="currentColor"/>
<path d="M6.09506 13.71H4.56506V16.76H6.09506V13.71Z" fill="currentColor"/>
<path d="M4.56504 19.81H3.04504V21.33H4.56504V19.81Z" fill="currentColor"/>
<path d="M3.04502 10.66H1.52502V19.81H3.04502V10.66Z" fill="currentColor"/>
</svg>
