<svg width="32" height="32" viewBox="0 0 32 32" fill="none" xmlns="http://www.w3.org/2000/svg">
<path d="M28.955 4.57001H27.425V21.33H28.955V4.57001Z" fill="currentColor"/>
<path d="M27.425 21.33H25.905V24.38H27.425V21.33Z" fill="currentColor"/>
<path d="M25.905 24.38H24.385V25.91H25.905V24.38Z" fill="currentColor"/>
<path d="M27.425 3.05H24.385V4.57H27.425V3.05Z" fill="currentColor"/>
<path d="M24.3851 25.91H22.8551V27.43H24.3851V25.91Z" fill="currentColor"/>
<path d="M24.3851 13.71H22.8551V22.86H24.3851V13.71Z" fill="currentColor"/>
<path d="M22.8551 27.43H21.3351V28.95H22.8551V27.43Z" fill="currentColor"/>
<path d="M22.8551 22.86H21.3351V24.38H22.8551V22.86Z" fill="currentColor"/>
<path d="M24.3851 1.52H21.3351V3.05H24.3851V1.52Z" fill="currentColor"/>
<path d="M21.335 28.95H18.285V30.48H21.335V28.95Z" fill="currentColor"/>
<path d="M21.335 24.38H10.665V25.91H21.335V24.38Z" fill="currentColor"/>
<path d="M18.2851 18.29H16.7651V16.76H15.2351V15.24H13.7151V16.76H12.1951V19.81H13.7151V21.33H15.2351V22.86H16.7651V21.33H18.2851V19.81H19.8151V16.76H18.2851V18.29Z" fill="currentColor"/>
<path d="M19.815 4.57001H18.285V6.10001H19.815V4.57001Z" fill="currentColor"/>
<path d="M18.285 15.24H16.765V16.76H18.285V15.24Z" fill="currentColor"/>
<path d="M18.2851 30.48H13.7151V32H18.2851V30.48Z" fill="currentColor"/>
<path d="M18.2851 3.05H13.7151V4.57H18.2851V3.05Z" fill="currentColor"/>
<path d="M13.715 28.95H10.665V30.48H13.715V28.95Z" fill="currentColor"/>
<path d="M13.7151 4.57001H12.1951V6.10001H13.7151V4.57001Z" fill="currentColor"/>
<path d="M21.335 0H10.665V1.52H21.335V0Z" fill="currentColor"/>
<path d="M22.855 13.71V12.19H21.335V6.10001H19.815V12.19H12.195V6.10001H10.665V12.19H9.14502V13.71H22.855Z" fill="currentColor"/>
<path d="M10.665 27.43H9.14502V28.95H10.665V27.43Z" fill="currentColor"/>
<path d="M10.665 22.86H9.14502V24.38H10.665V22.86Z" fill="currentColor"/>
<path d="M10.665 1.52H7.625V3.05H10.665V1.52Z" fill="currentColor"/>
<path d="M9.145 25.91H7.625V27.43H9.145V25.91Z" fill="currentColor"/>
<path d="M9.145 13.71H7.625V22.86H9.145V13.71Z" fill="currentColor"/>
<path d="M7.62509 24.38H6.09509V25.91H7.62509V24.38Z" fill="currentColor"/>
<path d="M7.62507 3.05H4.57507V4.57H7.62507V3.05Z" fill="currentColor"/>
<path d="M6.09507 21.33H4.57507V24.38H6.09507V21.33Z" fill="currentColor"/>
<path d="M4.57504 4.57001H3.04504V21.33H4.57504V4.57001Z" fill="currentColor"/>
</svg>
