<svg width="32" height="32" viewBox="0 0 32 32" fill="none" xmlns="http://www.w3.org/2000/svg">
<path d="M30.48 6.09999V1.51999H25.91V3.04999H6.10002V1.51999H1.52002V6.09999H3.05002V25.91H1.52002V30.48H6.10002V28.95H25.91V30.48H30.48V25.91H28.95V6.09999H30.48ZM27.43 25.91H25.91V27.43H6.10002V25.91H4.57002V6.09999H6.10002V4.56999H25.91V6.09999H27.43V25.91Z" fill="currentColor"/>
<path d="M22.8601 9.13998H21.3301V12.19H22.8601V9.13998Z" fill="currentColor"/>
<path d="M10.67 7.62V9.14H15.24V22.86H12.19V24.38H19.81V22.86H16.76V9.14H21.33V7.62H10.67Z" fill="currentColor"/>
<path d="M10.67 9.13998H9.14001V12.19H10.67V9.13998Z" fill="currentColor"/>
</svg>
