<svg width="32" height="32" viewBox="0 0 32 32" fill="none" xmlns="http://www.w3.org/2000/svg">
<path d="M25.145 14.47V19.05H29.715V14.47H25.145ZM28.195 17.52H26.665V16H28.2L28.195 17.52Z" fill="currentColor"/>
<path d="M26.665 23.62H22.1V28.19H26.67L26.665 23.62ZM25.145 26.66H23.625V25.14H25.145V26.66Z" fill="currentColor"/>
<path d="M28.2001 11.43V3.81H20.5801V11.43H28.2001ZM22.1001 5.33H26.6701V9.9H22.1001V5.33Z" fill="currentColor"/>
<path d="M19.0451 0.759995H11.4351V8.37999H19.0451V0.759995ZM17.5251 6.84999H12.9551V2.27999H17.5251V6.84999Z" fill="currentColor"/>
<path d="M17.5251 26.66H12.9551V31.24H17.5251V26.66Z" fill="currentColor"/>
<path d="M8.38506 23.62H3.81506V28.19H8.38506V23.62Z" fill="currentColor"/>
<path d="M6.85508 6.84999H5.33508V8.37999H6.85508V6.84999Z" fill="currentColor"/>
<path d="M3.81503 16H2.28503V17.52H3.81503V16Z" fill="currentColor"/>
</svg>
