<svg width="32" height="32" viewBox="0 0 32 32" fill="none" xmlns="http://www.w3.org/2000/svg">
<g clip-path="url(#clip0_1135_3238)">
<path d="M30.48 22.86H28.95V27.43H30.48V25.91H32V16.76H30.48V22.86Z" fill="currentColor"/>
<path d="M30.48 15.24H28.95V16.76H30.48V15.24Z" fill="currentColor"/>
<path d="M28.95 21.33H24.38V22.86H28.95V21.33Z" fill="currentColor"/>
<path d="M28.95 27.43H24.38V28.95H28.95V27.43Z" fill="currentColor"/>
<path d="M27.43 24.38H25.91V25.91H27.43V24.38Z" fill="currentColor"/>
<path d="M25.91 13.71H22.86V12.19H21.34V10.67H18.29V12.19H16.76V18.29H13.72V16.76H15.24V15.24H10.67V16.76H12.19V21.33H13.72V19.81H18.29V16.76H19.81V15.24H28.95V13.71H27.43V6.09998H25.91V13.71Z" fill="currentColor"/>
<path d="M25.91 4.56998H24.38V6.09998H25.91V4.56998Z" fill="currentColor"/>
<path d="M24.38 22.86H22.86V24.38H21.34V21.33H19.81V25.91H22.86V27.43H24.38V22.86Z" fill="currentColor"/>
<path d="M19.81 25.91H18.29V27.43H19.81V25.91Z" fill="currentColor"/>
<path d="M19.81 19.81H18.29V21.33H19.81V19.81Z" fill="currentColor"/>
<path d="M24.38 3.04999H15.24V4.56999H24.38V3.04999Z" fill="currentColor"/>
<path d="M18.29 27.43H13.72V28.95H18.29V27.43Z" fill="currentColor"/>
<path d="M16.76 22.86H15.24V24.38H16.76V22.86Z" fill="currentColor"/>
<path d="M15.24 4.56998H13.72V6.09998H15.24V4.56998Z" fill="currentColor"/>
<path d="M13.72 25.91H12.19V27.43H13.72V25.91Z" fill="currentColor"/>
<path d="M13.72 6.09998H12.19V7.61998H13.72V6.09998Z" fill="currentColor"/>
<path d="M12.19 21.33H10.67V24.38H9.14999V25.91H12.19V21.33Z" fill="currentColor"/>
<path d="M12.19 7.62H10.67V10.67H12.19V7.62Z" fill="currentColor"/>
<path d="M10.67 10.67H9.14999V13.71H10.67V10.67Z" fill="currentColor"/>
<path d="M9.15 13.71H7.62V21.33H6.1V4.56998H3.05V18.29H0V19.81H3.05V24.38H0V25.91H4.57V24.38H6.1V22.86H7.62V24.38H9.15V13.71Z" fill="currentColor"/>
</g>
<defs>
<clipPath id="clip0_1135_3238">
<rect width="32" height="32" fill="white"/>
</clipPath>
</defs>
</svg>
