<svg width="32" height="32" viewBox="0 0 32 32" fill="none" xmlns="http://www.w3.org/2000/svg">
<g clip-path="url(#clip0_1128_19513)">
<path d="M30.47 9.14H28.95V10.67H25.9V9.14H24.38V10.67H7.62V9.14H6.09V10.67H3.05V9.14H1.52V12.19H0V19.81H1.52V22.86H3.05V21.33H6.09V22.86H7.62V21.33H24.38V22.86H25.9V21.33H28.95V22.86H30.47V19.81H32V12.19H30.47V9.14ZM10.66 18.28H9.14V19.81H7.62V18.28H6.09V19.81H4.57V18.28H3.05V13.71H4.57V18.28H6.09V15.24H7.62V18.28H9.14V13.71H10.66V18.28ZM19.81 18.28H18.28V19.81H16.76V18.28H15.24V19.81H13.71V18.28H12.19V13.71H13.71V18.28H15.24V15.24H16.76V18.28H18.28V13.71H19.81V18.28ZM28.95 18.28H27.43V19.81H25.9V18.28H24.38V19.81H22.85V18.28H21.33V13.71H22.85V18.28H24.38V15.24H25.9V18.28H27.43V13.71H28.95V18.28Z" fill="currentColor"/>
<path d="M28.95 22.86H27.43V25.9H28.95V22.86Z" fill="currentColor"/>
<path d="M28.95 6.09H27.43V9.14H28.95V6.09Z" fill="currentColor"/>
<path d="M27.43 25.9H25.9V27.43H27.43V25.9Z" fill="currentColor"/>
<path d="M27.43 4.57H25.9V6.09H27.43V4.57Z" fill="currentColor"/>
<path d="M25.9 7.62V6.09H21.33V4.57H19.81V7.62H22.85V9.14H24.38V7.62H25.9Z" fill="currentColor"/>
<path d="M25.9 27.43H22.85V28.95H25.9V27.43Z" fill="currentColor"/>
<path d="M22.85 24.38H19.81V27.43H21.33V25.9H25.9V24.38H24.38V22.86H22.85V24.38Z" fill="currentColor"/>
<path d="M25.9 3.05H22.85V4.57H25.9V3.05Z" fill="currentColor"/>
<path d="M22.85 28.95H19.81V30.48H22.85V28.95Z" fill="currentColor"/>
<path d="M22.85 1.52H19.81V3.05H22.85V1.52Z" fill="currentColor"/>
<path d="M19.81 27.43H18.28V28.95H19.81V27.43Z" fill="currentColor"/>
<path d="M19.81 3.05H18.28V4.57H19.81V3.05Z" fill="currentColor"/>
<path d="M18.28 28.95H16.76V30.48H15.24V28.95H13.71V30.48H12.19V32H19.81V30.48H18.28V28.95Z" fill="currentColor"/>
<path d="M19.81 7.62H12.19V9.14H19.81V7.62Z" fill="currentColor"/>
<path d="M19.81 22.86H12.19V24.38H19.81V22.86Z" fill="currentColor"/>
<path d="M13.71 3.05H15.24V1.52H16.76V3.05H18.28V1.52H19.81V0H12.19V1.52H13.71V3.05Z" fill="currentColor"/>
<path d="M13.71 27.43H12.19V28.95H13.71V27.43Z" fill="currentColor"/>
<path d="M13.71 3.05H12.19V4.57H13.71V3.05Z" fill="currentColor"/>
<path d="M12.19 28.95H9.14001V30.48H12.19V28.95Z" fill="currentColor"/>
<path d="M12.19 1.52H9.14001V3.05H12.19V1.52Z" fill="currentColor"/>
<path d="M9.14003 27.43H6.09003V28.95H9.14003V27.43Z" fill="currentColor"/>
<path d="M9.14003 7.62H12.19V4.57H10.66V6.09H6.09003V7.62H7.62003V9.14H9.14003V7.62Z" fill="currentColor"/>
<path d="M9.14003 3.05H6.09003V4.57H9.14003V3.05Z" fill="currentColor"/>
<path d="M6.09003 24.38V25.9H10.66V27.43H12.19V24.38H9.14003V22.86H7.62003V24.38H6.09003Z" fill="currentColor"/>
<path d="M6.09001 25.9H4.57001V27.43H6.09001V25.9Z" fill="currentColor"/>
<path d="M6.09001 4.57H4.57001V6.09H6.09001V4.57Z" fill="currentColor"/>
<path d="M4.56999 22.86H3.04999V25.9H4.56999V22.86Z" fill="currentColor"/>
<path d="M4.56999 6.09H3.04999V9.14H4.56999V6.09Z" fill="currentColor"/>
</g>
<defs>
<clipPath id="clip0_1128_19513">
<rect width="32" height="32" fill="white"/>
</clipPath>
</defs>
</svg>
