<svg width="32" height="32" viewBox="0 0 32 32" fill="none" xmlns="http://www.w3.org/2000/svg">
<g clip-path="url(#clip0_1128_13544)">
<path d="M32 11.43H30.48V12.95H32V11.43Z" fill="currentColor"/>
<path d="M30.4799 12.95H28.95V14.48H30.4799V12.95Z" fill="currentColor"/>
<path d="M30.4799 9.91H28.95V11.43H30.4799V9.91Z" fill="currentColor"/>
<path d="M28.9501 14.48H27.4301V16H28.9501V14.48Z" fill="currentColor"/>
<path d="M28.9501 8.38H27.4301V9.91H28.9501V8.38Z" fill="currentColor"/>
<path d="M27.43 16H25.91V17.52H27.43V16Z" fill="currentColor"/>
<path d="M27.43 9.91H25.91V11.43H27.43V9.91Z" fill="currentColor"/>
<path d="M27.43 6.86002H25.91V8.38002H27.43V6.86002Z" fill="currentColor"/>
<path d="M25.91 17.52H24.38V19.05H25.91V17.52Z" fill="currentColor"/>
<path d="M25.91 11.43H24.38V12.95H25.91V11.43Z" fill="currentColor"/>
<path d="M25.91 5.33002H24.38V6.86002H25.91V5.33002Z" fill="currentColor"/>
<path d="M24.3801 16H22.8601V17.52H24.3801V16Z" fill="currentColor"/>
<path d="M24.3801 12.95H22.8601V14.48H24.3801V12.95Z" fill="currentColor"/>
<path d="M24.3801 3.81H22.8601V5.33H24.3801V3.81Z" fill="currentColor"/>
<path d="M22.8601 14.48H21.3401V16H22.8601V14.48Z" fill="currentColor"/>
<path d="M22.8601 2.29001H19.8101V3.81001H22.8601V2.29001Z" fill="currentColor"/>
<path d="M19.81 12.95V11.43H18.29V9.91H16.76V11.43H15.24V12.95H16.76V14.48H15.24V16H13.72V17.52H12.19V16H10.67V17.52H9.15V19.05H7.62V20.57H6.1V22.1H4.57V23.62H3.05V25.14H1.53V26.67H0V29.72H1.53V31.24H4.57V29.72H6.1V28.19H7.62V26.67H9.15V25.14H10.67V23.62H12.19V22.1H13.72V20.57H15.24V19.05H16.76V17.52H18.29V16H19.81V14.48H21.34V12.95H19.81Z" fill="currentColor"/>
<path d="M19.81 3.81H16.76V5.33H19.81V3.81Z" fill="currentColor"/>
<path d="M16.76 8.38H15.24V9.91H16.76V8.38Z" fill="currentColor"/>
<path d="M16.76 2.29001H15.24V3.81001H16.76V2.29001Z" fill="currentColor"/>
<path d="M15.24 12.95H13.72V14.48H15.24V12.95Z" fill="currentColor"/>
<path d="M15.24 6.86002H13.72V8.38002H15.24V6.86002Z" fill="currentColor"/>
<path d="M15.24 0.76001H13.72V2.29001H15.24V0.76001Z" fill="currentColor"/>
<path d="M13.7199 14.48H12.1899V16H13.7199V14.48Z" fill="currentColor"/>
<path d="M13.7199 5.33002H12.1899V6.86002H13.7199V5.33002Z" fill="currentColor"/>
<path d="M13.7199 2.29001H12.1899V3.81001H13.7199V2.29001Z" fill="currentColor"/>
<path d="M12.1899 3.81H10.6699V5.33H12.1899V3.81Z" fill="currentColor"/>
</g>
<defs>
<clipPath id="clip0_1128_13544">
<rect width="32" height="32" fill="white"/>
</clipPath>
</defs>
</svg>
