<svg width="32" height="32" viewBox="0 0 32 32" fill="none" xmlns="http://www.w3.org/2000/svg">
<g clip-path="url(#clip0_1128_11083)">
<path d="M22.855 9.58301V11.103H21.325V12.633H19.805V14.153H18.285V17.203H19.805V18.723H21.325V20.253H22.855V21.773H24.375V17.203H30.475V14.153H24.375V9.58301H22.855Z" fill="currentColor"/>
<path d="M22.8551 24.823H21.3251V27.873H22.8551V24.823Z" fill="currentColor"/>
<path d="M22.8551 1.96298H21.3251V6.53298H22.8551V1.96298Z" fill="currentColor"/>
<path d="M15.235 30.913V29.393H21.325V27.873H15.235V8.06299H13.715V30.913H15.235Z" fill="currentColor"/>
<path d="M13.715 30.913H9.13501V32.443H13.715V30.913Z" fill="currentColor"/>
<path d="M12.185 17.203H10.665V20.253H12.185V17.203Z" fill="currentColor"/>
<path d="M13.715 6.53299H10.665V8.06299H13.715V6.53299Z" fill="currentColor"/>
<path d="M9.13497 29.393H6.09497V30.913H9.13497V29.393Z" fill="currentColor"/>
<path d="M10.665 5.013H7.61499V6.533H10.665V5.013Z" fill="currentColor"/>
<path d="M6.09504 27.873H3.04504V29.393H6.09504V27.873Z" fill="currentColor"/>
<path d="M7.61506 3.49298H4.56506V5.01298H7.61506V3.49298Z" fill="currentColor"/>
<path d="M3.04502 0.442993V1.96299H1.52502V27.873H3.04502V3.49299H4.56502V1.96299H21.325V0.442993H3.04502Z" fill="currentColor"/>
</g>
<defs>
<clipPath id="clip0_1128_11083">
<rect width="32" height="32" fill="white"/>
</clipPath>
</defs>
</svg>
