<svg width="32" height="32" viewBox="0 0 32 32" fill="none" xmlns="http://www.w3.org/2000/svg">
<g clip-path="url(#clip0_1128_7682)">
<path d="M27.43 16.76V15.24H28.95V13.71H24.38V15.24H25.91V16.76H18.29V10.67H21.34V9.14H19.81V7.62H18.29V6.09H16.76V4.57H15.24V3.05H13.72V1.52H12.19V0H10.67V1.52H9.14V3.05H7.62V4.57H6.1V6.09H4.57V7.62H3.05V9.14H1.53V10.67H4.57V16.76H0V19.81H1.53V18.28H3.05V19.81H4.57V22.86H6.1V24.38H9.14V22.86H10.67V21.33H12.19V18.28H15.24V19.81H18.29V21.33H21.34V22.86H22.86V24.38H25.91V22.86H27.43V19.81H28.95V18.28H30.48V19.81H32V16.76H27.43ZM16.76 16.76H15.24V10.67H13.72V16.76H9.14V15.24H10.67V13.71H9.14V10.67H7.62V16.76H6.1V7.62H7.62V6.09H9.14V4.57H10.67V3.05H12.19V4.57H13.72V6.09H15.24V7.62H16.76V16.76Z" fill="currentColor"/>
<path d="M30.4799 19.81H28.95V22.86H30.4799V19.81Z" fill="currentColor"/>
<path d="M30.4799 6.09003H28.95V13.71H30.4799V6.09003Z" fill="currentColor"/>
<path d="M28.9501 22.86H27.4301V25.9H28.9501V22.86Z" fill="currentColor"/>
<path d="M27.43 25.9H25.91V27.43H27.43V25.9Z" fill="currentColor"/>
<path d="M28.95 4.57001H24.38V6.09001H28.95V4.57001Z" fill="currentColor"/>
<path d="M21.34 27.43V25.9H19.81V24.38H15.24V25.9H12.19V27.43H10.67V28.95H9.14001V30.47H12.19V32H19.81V30.47H22.86V28.95H25.91V27.43H21.34Z" fill="currentColor"/>
<path d="M24.38 6.09003H22.86V13.71H24.38V6.09003Z" fill="currentColor"/>
<path d="M13.72 9.14001H9.14001V10.67H13.72V9.14001Z" fill="currentColor"/>
<path d="M9.13998 27.43H6.09998V28.95H9.13998V27.43Z" fill="currentColor"/>
<path d="M6.09995 25.9H4.56995V27.43H6.09995V25.9Z" fill="currentColor"/>
<path d="M4.57005 22.86H3.05005V25.9H4.57005V22.86Z" fill="currentColor"/>
<path d="M3.05003 19.81H1.53003V22.86H3.05003V19.81Z" fill="currentColor"/>
</g>
<defs>
<clipPath id="clip0_1128_7682">
<rect width="32" height="32" fill="white"/>
</clipPath>
</defs>
</svg>
