<svg width="32" height="32" viewBox="0 0 32 32" fill="none" xmlns="http://www.w3.org/2000/svg">
<path d="M22.0901 16.76H26.6701V24.38H28.1901V10.67H20.5701V24.38H22.0901V16.76Z" fill="currentColor"/>
<path d="M26.67 24.38H25.14V27.43H26.67V24.38Z" fill="currentColor"/>
<path d="M25.1401 27.43H23.6201V28.95H25.1401V27.43Z" fill="currentColor"/>
<path d="M25.1401 0H23.6201V1.52H25.1401V0Z" fill="currentColor"/>
<path d="M23.6201 6.10001H22.0901V7.62001H23.6201V6.10001Z" fill="currentColor"/>
<path d="M22.0901 1.52V3.05H20.5701V4.57H23.6201V6.1H25.1401V4.57H26.6701V3.05H23.6201V1.52H22.0901Z" fill="currentColor"/>
<path d="M23.6201 28.95H20.5701V30.48H23.6201V28.95Z" fill="currentColor"/>
<path d="M20.5701 30.48H11.4301V32H20.5701V30.48Z" fill="currentColor"/>
<path d="M20.5701 24.38H11.4301V25.9H20.5701V24.38Z" fill="currentColor"/>
<path d="M11.43 28.95H8.38V30.48H11.43V28.95Z" fill="currentColor"/>
<path d="M8.38011 27.43H6.86011V28.95H8.38011V27.43Z" fill="currentColor"/>
<path d="M8.38011 0H6.86011V1.52H8.38011V0Z" fill="currentColor"/>
<path d="M6.86008 24.38H5.33008V27.43H6.86008V24.38Z" fill="currentColor"/>
<path d="M6.86008 6.10001H5.33008V7.62001H6.86008V6.10001Z" fill="currentColor"/>
<path d="M5.33006 1.52V3.05H3.81006V4.57H6.86006V6.1H8.38006V4.57H9.90006V3.05H6.86006V1.52H5.33006Z" fill="currentColor"/>
<path d="M3.81006 24.38H5.33006V16.76H9.90006V24.38H11.4301V10.67H3.81006V24.38Z" fill="currentColor"/>
</svg>
