<svg width="32" height="32" viewBox="0 0 32 32" fill="none" xmlns="http://www.w3.org/2000/svg">
<g clip-path="url(#clip0_1128_10384)">
<path d="M8.38003 13.72H9.91003V15.24H11.43V13.72H12.96V15.24H14.48V13.72H16V12.19H19.05V10.67H17.53V9.15H16V6.1H19.05V7.62H20.57V9.15H22.1V7.62H28.19V9.15H29.72V7.62H31.24V3.05H29.72V1.53H28.19V3.05H22.1V1.53H20.57V3.05H19.05V4.57H12.96V3.05H14.48V0H9.91003V1.53H8.38003V3.05H11.43V4.57H9.91003V6.1H14.48V7.62H9.91003V6.1H8.38003V9.15H6.86003V10.67H5.34003V12.19H8.38003V13.72ZM20.57 4.57H29.72V6.1H20.57V4.57Z" fill="currentColor"/>
<path d="M28.19 9.15002H22.1V10.67H28.19V9.15002Z" fill="currentColor"/>
<path d="M28.19 0H22.1V1.53H28.19V0Z" fill="currentColor"/>
<path d="M23.62 16.77H22.1V25.91H23.62V16.77Z" fill="currentColor"/>
<path d="M22.1 25.91H20.57V28.96H22.1V25.91Z" fill="currentColor"/>
<path d="M22.1 13.72H20.57V16.77H22.1V13.72Z" fill="currentColor"/>
<path d="M20.57 12.19H19.05V13.72H20.57V12.19Z" fill="currentColor"/>
<path d="M20.57 28.96H17.53V30.48H20.57V28.96Z" fill="currentColor"/>
<path d="M17.53 16.77H16V25.91H17.53V16.77Z" fill="currentColor"/>
<path d="M14.48 28.96H12.96V30.48H11.43V28.96H9.90999V30.48H6.85999V32H17.53V30.48H14.48V28.96Z" fill="currentColor"/>
<path d="M16 25.91H14.48V28.96H16V25.91Z" fill="currentColor"/>
<path d="M16 15.24H14.48V16.77H16V15.24Z" fill="currentColor"/>
<path d="M9.91 25.91H8.38V28.96H9.91V25.91Z" fill="currentColor"/>
<path d="M9.91 15.24H8.38V16.77H9.91V15.24Z" fill="currentColor"/>
<path d="M8.37999 16.77H6.85999V25.91H8.37999V16.77Z" fill="currentColor"/>
<path d="M6.86 28.96H3.81V30.48H6.86V28.96Z" fill="currentColor"/>
<path d="M6.86003 1.53003H5.34003V3.05003H6.86003V1.53003Z" fill="currentColor"/>
<path d="M5.34 12.19H3.81V13.72H5.34V12.19Z" fill="currentColor"/>
<path d="M3.81004 25.91H2.29004V28.96H3.81004V25.91Z" fill="currentColor"/>
<path d="M3.81004 13.72H2.29004V16.77H3.81004V13.72Z" fill="currentColor"/>
<path d="M3.81004 1.53003H2.29004V3.05003H3.81004V1.53003Z" fill="currentColor"/>
<path d="M2.29001 16.77H0.76001V25.91H2.29001V16.77Z" fill="currentColor"/>
</g>
<defs>
<clipPath id="clip0_1128_10384">
<rect width="32" height="32" fill="white"/>
</clipPath>
</defs>
</svg>
