<svg width="32" height="32" viewBox="0 0 32 32" fill="none" xmlns="http://www.w3.org/2000/svg">
<g clip-path="url(#clip0_1135_3070)">
<path d="M30.4699 15.2299H28.95V16.7599H30.4699V28.9499H32V12.1899H30.4699V15.2299Z" fill="currentColor"/>
<path d="M30.4699 28.95H28.95V30.4699H30.4699V28.95Z" fill="currentColor"/>
<path d="M30.4699 10.66H28.95V12.19H30.4699V10.66Z" fill="currentColor"/>
<path d="M27.43 28.95H25.9V30.4699H6.09004V28.95H4.57004V30.4699H3.04004V32H28.95V30.4699H27.43V28.95Z" fill="currentColor"/>
<path d="M25.9 27.42H24.38V28.95H25.9V27.42Z" fill="currentColor"/>
<path d="M24.38 25.9H22.85V27.42H24.38V25.9Z" fill="currentColor"/>
<path d="M25.9 18.28H22.85V19.81H25.9V18.28Z" fill="currentColor"/>
<path d="M22.85 24.38H21.33V25.9H22.85V24.38Z" fill="currentColor"/>
<path d="M21.3301 22.85H19.8101V24.38H21.3301V22.85Z" fill="currentColor"/>
<path d="M22.8501 19.8101H19.8101V21.3301H22.8501V19.8101Z" fill="currentColor"/>
<path d="M21.3301 1.52002H19.8101V3.04002H21.3301V1.52002Z" fill="currentColor"/>
<path d="M19.81 10.66H16.76V12.19H15.24V10.66H12.19V12.19H10.66V15.23H12.19V16.76H13.71V18.28H15.24V19.81H16.76V18.28H18.28V16.76H19.81V15.23H21.33V12.19H19.81V10.66Z" fill="currentColor"/>
<path d="M19.8099 21.33H12.1899V22.85H19.8099V21.33Z" fill="currentColor"/>
<path d="M19.8099 0H12.1899V1.52H19.8099V0Z" fill="currentColor"/>
<path d="M12.19 22.85H10.66V24.38H12.19V22.85Z" fill="currentColor"/>
<path d="M12.19 19.8101H9.14001V21.3301H12.19V19.8101Z" fill="currentColor"/>
<path d="M12.19 1.52002H10.66V3.04002H12.19V1.52002Z" fill="currentColor"/>
<path d="M10.66 24.38H9.14001V25.9H10.66V24.38Z" fill="currentColor"/>
<path d="M9.14 25.9H7.62V27.42H9.14V25.9Z" fill="currentColor"/>
<path d="M9.13997 18.28H6.08997V19.81H9.13997V18.28Z" fill="currentColor"/>
<path d="M7.61997 27.42H6.08997V28.95H7.61997V27.42Z" fill="currentColor"/>
<path d="M4.57004 16.76H3.04004V18.28H6.09004V6.09004H25.9V18.28H28.95V16.76H27.43V10.66H28.95V9.14004H27.43V4.57004H22.85V3.04004H21.33V4.57004H10.66V3.04004H9.14004V4.57004H4.57004V9.14004H3.04004V10.66H4.57004V16.76Z" fill="currentColor"/>
<path d="M3.04002 28.95H1.52002V30.4699H3.04002V28.95Z" fill="currentColor"/>
<path d="M3.04002 10.66H1.52002V12.19H3.04002V10.66Z" fill="currentColor"/>
<path d="M1.52 16.7599H3.04V15.2299H1.52V12.1899H0V28.9499H1.52V16.7599Z" fill="currentColor"/>
</g>
<defs>
<clipPath id="clip0_1135_3070">
<rect width="32" height="32" fill="white"/>
</clipPath>
</defs>
</svg>
