<svg width="32" height="32" viewBox="0 0 32 32" fill="none" xmlns="http://www.w3.org/2000/svg">
<g clip-path="url(#clip0_1135_2235)">
<path d="M32 14.475H30.48V20.565H32V14.475Z" fill="currentColor"/>
<path d="M32 3.80505H30.48V9.90505H32V3.80505Z" fill="currentColor"/>
<path d="M30.48 20.5651H28.95V23.6151H30.48V20.5651Z" fill="currentColor"/>
<path d="M30.48 9.90503H28.95V14.475H30.48V9.90503Z" fill="currentColor"/>
<path d="M28.95 23.615H27.43V25.135H28.95V23.615Z" fill="currentColor"/>
<path d="M28.95 8.375H27.43V9.905H28.95V8.375Z" fill="currentColor"/>
<path d="M27.43 25.135H25.91V26.665H27.43V25.135Z" fill="currentColor"/>
<path d="M27.43 6.85498H25.91V8.37498H27.43V6.85498Z" fill="currentColor"/>
<path d="M30.48 2.28503H22.86V3.80503H30.48V2.28503Z" fill="currentColor"/>
<path d="M25.91 26.665H21.34V28.185H25.91V26.665Z" fill="currentColor"/>
<path d="M22.86 3.80505H21.34V5.32505H22.86V3.80505Z" fill="currentColor"/>
<path d="M21.34 16H10.67V17.52H9.15V22.1H10.67V23.62H21.34V22.1H22.86V17.52H21.34V16ZM15.24 22.1H12.19V19.05H15.24V22.1ZM19.81 22.1H16.76V19.05H19.81V22.1Z" fill="currentColor"/>
<path d="M21.34 28.1851H10.67V29.7151H21.34V28.1851Z" fill="currentColor"/>
<path d="M19.81 12.9451H18.29V14.4751H19.81V12.9451Z" fill="currentColor"/>
<path d="M13.72 12.9451H12.19V14.4751H13.72V12.9451Z" fill="currentColor"/>
<path d="M21.34 2.28503H10.67V3.80503H21.34V2.28503Z" fill="currentColor"/>
<path d="M10.67 26.665H6.1V28.185H10.67V26.665Z" fill="currentColor"/>
<path d="M10.67 3.80505H9.15V5.32505H10.67V3.80505Z" fill="currentColor"/>
<path d="M6.1 25.135H4.57V26.665H6.1V25.135Z" fill="currentColor"/>
<path d="M6.1 6.85498H4.57V8.37498H6.1V6.85498Z" fill="currentColor"/>
<path d="M4.57 23.615H3.05V25.135H4.57V23.615Z" fill="currentColor"/>
<path d="M4.57 8.375H3.05V9.905H4.57V8.375Z" fill="currentColor"/>
<path d="M9.15 2.28503H1.53V3.80503H9.15V2.28503Z" fill="currentColor"/>
<path d="M3.05 20.5651H1.53V23.6151H3.05V20.5651Z" fill="currentColor"/>
<path d="M3.05 9.90503H1.53V14.475H3.05V9.90503Z" fill="currentColor"/>
<path d="M1.53 14.475H0V20.565H1.53V14.475Z" fill="currentColor"/>
<path d="M1.53 3.80505H0V9.90505H1.53V3.80505Z" fill="currentColor"/>
</g>
<defs>
<clipPath id="clip0_1135_2235">
<rect width="32" height="32" fill="white"/>
</clipPath>
</defs>
</svg>
