<svg width="32" height="32" viewBox="0 0 32 32" fill="none" xmlns="http://www.w3.org/2000/svg">
<path d="M26.67 18.29H23.62V19.81H26.67V24.38H28.19V13.71H26.67V18.29Z" fill="currentColor"/>
<path d="M25.14 27.43H9.90999V25.91H8.37999V27.43H6.85999V32H28.19V27.43H26.67V24.38H25.14V27.43ZM25.14 30.48H22.1V28.95H25.14V30.48Z" fill="currentColor"/>
<path d="M26.67 12.1899H25.14V13.7099H26.67V12.1899Z" fill="currentColor"/>
<path d="M22.1 18.29H23.62V12.19H25.14V10.67H22.1V18.29Z" fill="currentColor"/>
<path d="M22.1 18.29H19.05V19.81H22.1V18.29Z" fill="currentColor"/>
<path d="M17.53 15.24H14.48V16.76H16V19.81H17.53V18.29H19.05V10.67H22.1V9.14002H19.05V1.52002H17.53V15.24Z" fill="currentColor"/>
<path d="M17.53 0H14.48V1.52H17.53V0Z" fill="currentColor"/>
<path d="M16 19.8101H11.43V21.3301H16V19.8101Z" fill="currentColor"/>
<path d="M12.95 13.71H11.43V15.24H14.48V1.52002H12.95V9.14002H9.90997V10.67H12.95V13.71Z" fill="currentColor"/>
<path d="M11.43 18.29H9.90997V19.81H11.43V18.29Z" fill="currentColor"/>
<path d="M11.43 13.71V12.19H9.90999V10.67H8.37999V12.19H6.85999V13.71H11.43Z" fill="currentColor"/>
<path d="M8.37999 24.38H6.85999V25.91H8.37999V24.38Z" fill="currentColor"/>
<path d="M6.86003 21.33H5.34003V24.38H6.86003V21.33Z" fill="currentColor"/>
<path d="M6.86003 13.71H5.34003V15.24H6.86003V13.71Z" fill="currentColor"/>
<path d="M5.34 15.24H3.81V21.33H5.34V15.24Z" fill="currentColor"/>
</svg>
