<svg width="32" height="32" viewBox="0 0 32 32" fill="none" xmlns="http://www.w3.org/2000/svg">
<path d="M21.33 24.38V25.9H22.85V24.38H24.38V3.05H22.85V6.1H9.14V3.05H7.62V24.38H9.14V25.9H10.66V24.38H21.33ZM19.81 7.62H22.85V22.86H19.81V7.62ZM13.71 7.62H18.28V22.86H13.71V7.62ZM9.14 22.86V7.62H12.19V22.86H9.14Z" fill="currentColor"/>
<path d="M22.85 1.52H21.33V3.05H22.85V1.52Z" fill="currentColor"/>
<path d="M21.3299 25.9H19.8099V27.43H21.3299V25.9Z" fill="currentColor"/>
<path d="M16.7599 32V30.48H18.2799V28.95H19.8099V27.43H12.1899V28.95H13.7099V30.48H15.2399V32H16.7599Z" fill="currentColor"/>
<path d="M21.33 0H10.66V1.52H21.33V0Z" fill="currentColor"/>
<path d="M12.19 25.9H10.66V27.43H12.19V25.9Z" fill="currentColor"/>
<path d="M10.66 1.52H9.14001V3.05H10.66V1.52Z" fill="currentColor"/>
</svg>
