<svg width="32" height="32" viewBox="0 0 32 32" fill="none" xmlns="http://www.w3.org/2000/svg">
<g clip-path="url(#clip0_1128_8960)">
<path d="M6.855 21.33H8.375V9.14H9.9V7.62H14.47V9.14H16V10.67H19.05V9.14H20.58V7.62H22.1V9.14H23.62V21.33H25.15V7.62H26.67V4.57H25.15V3.05H23.62V1.52H22.1V0H9.9V1.52H8.375V3.05H6.855V4.57H5.335V7.62H6.855V21.33ZM16 1.52H19.05V3.05H20.58V4.57H22.1V6.1H20.58V4.57H19.05V3.05H16V1.52Z" fill="currentColor"/>
<path d="M23.615 21.33H22.095V22.86H23.615V21.33Z" fill="currentColor"/>
<path d="M9.905 22.86V24.38H12.955V30.48H14.475V24.38H17.525V30.48H19.045V24.38H22.095V22.86H9.905Z" fill="currentColor"/>
<path d="M20.575 16.76H19.045V18.29H20.575V16.76Z" fill="currentColor"/>
<path d="M19.045 13.71H17.525V15.24H19.045V13.71Z" fill="currentColor"/>
<path d="M19.045 18.29H12.955V19.81H19.045V18.29Z" fill="currentColor"/>
<path d="M17.525 30.48H14.475V32H17.525V30.48Z" fill="currentColor"/>
<path d="M14.475 13.71H12.955V15.24H14.475V13.71Z" fill="currentColor"/>
<path d="M12.955 16.76H11.425V18.29H12.955V16.76Z" fill="currentColor"/>
<path d="M9.905 21.33H8.375V22.86H9.905V21.33Z" fill="currentColor"/>
</g>
<defs>
<clipPath id="clip0_1128_8960">
<rect width="32" height="32" fill="white"/>
</clipPath>
</defs>
</svg>
