<svg width="32" height="32" viewBox="0 0 32 32" fill="none" xmlns="http://www.w3.org/2000/svg">
<g clip-path="url(#clip0_1135_1935)">
<path d="M30.48 18.29H28.96V21.34H27.43V22.86H25.91V24.38H27.43V25.91H28.96V28.96H30.48V27.43H32V19.81H30.48V18.29Z" fill="currentColor"/>
<path d="M25.91 27.43H24.38V25.91H22.86V27.43H21.34V28.96H18.29V30.48H19.81V32H27.43V30.48H28.96V28.96H25.91V27.43Z" fill="currentColor"/>
<path d="M21.34 19.81H22.86V21.34H24.38V19.81H25.91V18.29H28.96V16.76H27.43V15.24H19.81V16.76H18.29V18.29H21.34V19.81Z" fill="currentColor"/>
<path d="M19.81 25.91V24.38H21.34V22.86H19.81V21.34H18.29V18.29H16.77V19.81H15.24V27.43H16.77V28.96H18.29V25.91H19.81Z" fill="currentColor"/>
<path d="M15.24 16.76H16.77V12.19H18.29V13.72H19.81V9.15005H18.29V10.67H16.77V3.05005H15.24V16.76Z" fill="currentColor"/>
<path d="M15.24 28.96H13.72V27.43H10.67V22.86H13.72V21.34H4.58003V22.86H9.15003V27.43H4.58003V28.96H1.53003V32H16.77V30.48H15.24V28.96Z" fill="currentColor"/>
<path d="M15.24 16.76H13.72V18.29H15.24V16.76Z" fill="currentColor"/>
<path d="M15.24 1.53003H13.72V3.05003H15.24V1.53003Z" fill="currentColor"/>
<path d="M13.72 7.62H12.19V9.14999H13.72V7.62Z" fill="currentColor"/>
<path d="M13.72 4.56995H12.19V6.09995H13.72V4.56995Z" fill="currentColor"/>
<path d="M13.72 18.29H6.09998V19.81H13.72V18.29Z" fill="currentColor"/>
<path d="M10.67 9.15002H9.15002V10.67H10.67V9.15002Z" fill="currentColor"/>
<path d="M10.67 6.09998H9.15002V7.61998H10.67V6.09998Z" fill="currentColor"/>
<path d="M10.67 3.05005H9.15002V4.57005H10.67V3.05005Z" fill="currentColor"/>
<path d="M13.72 0H6.09998V1.53H13.72V0Z" fill="currentColor"/>
<path d="M7.61998 7.62H6.09998V9.14999H7.61998V7.62Z" fill="currentColor"/>
<path d="M7.61998 4.56995H6.09998V6.09995H7.61998V4.56995Z" fill="currentColor"/>
<path d="M6.10002 16.76H4.58002V18.29H6.10002V16.76Z" fill="currentColor"/>
<path d="M6.10002 1.53003H4.58002V3.05003H6.10002V1.53003Z" fill="currentColor"/>
<path d="M4.57999 19.8101H3.04999V21.3401H4.57999V19.8101Z" fill="currentColor"/>
<path d="M3.05003 18.29H1.53003V19.81H3.05003V18.29Z" fill="currentColor"/>
<path d="M1.53 12.19H3.05V16.76H4.58V3.05005H3.05V10.67H1.53V9.15005H0V18.29H1.53V12.19Z" fill="currentColor"/>
</g>
<defs>
<clipPath id="clip0_1135_1935">
<rect width="32" height="32" fill="white"/>
</clipPath>
</defs>
</svg>
