<svg width="32" height="32" viewBox="0 0 32 32" fill="none" xmlns="http://www.w3.org/2000/svg">
<g clip-path="url(#clip0_1135_3607)">
<path d="M26.66 12.95V14.47H28.19V23.62H26.66V25.14H29.71V14.47H31.24V9.90002H29.71V12.95H26.66Z" fill="currentColor"/>
<path d="M29.7101 2.28003H28.1901V6.86003H29.7101V2.28003Z" fill="currentColor"/>
<path d="M2.28003 8.38006V9.90006H5.33003V8.38006H9.90003V9.90006H5.33003V11.4301H6.86003V14.4701H5.33003V16.0001H6.86003V25.1401H5.33003V26.6701H8.38003V28.1901H11.43V19.0501H14.47V17.5201H11.43V14.4701H14.47V12.9501H11.43V11.4301H20.57V12.9501H17.52V14.4701H20.57V17.5201H17.52V19.0501H20.57V26.6701H19.05V28.1901H17.52V29.7101H20.57V28.1901H23.62V26.6701H26.66V25.1401H25.14V16.0001H26.66V14.4701H25.14V11.4301H26.66V9.90006H22.09V8.38006H26.66V9.90006H29.71V8.38006H28.19V6.86006H26.66V3.81006H23.62V5.33006H20.57V6.86006H19.05V3.81006H17.52V6.86006H14.47V3.81006H12.95V8.38006H11.43V5.33006H8.38003V3.81006H5.33003V6.86006H3.81003V8.38006H2.28003ZM14.47 8.38006H17.52V9.90006H14.47V8.38006Z" fill="currentColor"/>
<path d="M28.19 0.76001H22.09V2.28001H28.19V0.76001Z" fill="currentColor"/>
<path d="M22.09 2.28003H19.05V3.81003H22.09V2.28003Z" fill="currentColor"/>
<path d="M17.52 2.28003H14.47V3.81003H17.52V2.28003Z" fill="currentColor"/>
<path d="M17.52 29.71H14.47V31.24H17.52V29.71Z" fill="currentColor"/>
<path d="M17.52 19.05H14.47V20.57H17.52V19.05Z" fill="currentColor"/>
<path d="M17.52 14.47H14.47V16H17.52V14.47Z" fill="currentColor"/>
<path d="M14.4701 28.1901H11.4301V29.7101H14.4701V28.1901Z" fill="currentColor"/>
<path d="M12.95 2.28003H9.90002V3.81003H12.95V2.28003Z" fill="currentColor"/>
<path d="M9.90006 0.76001H3.81006V2.28001H9.90006V0.76001Z" fill="currentColor"/>
<path d="M3.81001 23.62V14.47H5.33001V12.95H2.28001V9.90002H0.76001V14.47H2.28001V25.14H5.33001V23.62H3.81001Z" fill="currentColor"/>
<path d="M3.81003 2.28003H2.28003V6.86003H3.81003V2.28003Z" fill="currentColor"/>
</g>
<defs>
<clipPath id="clip0_1135_3607">
<rect width="32" height="32" fill="white"/>
</clipPath>
</defs>
</svg>
