<svg width="32" height="32" viewBox="0 0 32 32" fill="none" xmlns="http://www.w3.org/2000/svg">
<g clip-path="url(#clip0_1128_7697)">
<path d="M32 16.77H30.48V24.38H32V16.77Z" fill="currentColor"/>
<path d="M30.48 0H28.95V3.05H27.43V0H25.91V3.05H24.38V9.15H25.91V10.67H27.43V15.24H28.95V10.67H30.48V9.15H32V3.05H30.48V0ZM30.48 7.62H28.95V6.1H27.43V4.57H30.48V7.62Z" fill="currentColor"/>
<path d="M30.4799 15.24H28.95V16.77H30.4799V15.24Z" fill="currentColor"/>
<path d="M28.9501 21.34H27.4301V28.96H28.9501V25.91H30.4801V24.38H28.9501V21.34Z" fill="currentColor"/>
<path d="M25.91 27.43H24.38V30.48H27.43V28.96H25.91V27.43Z" fill="currentColor"/>
<path d="M25.91 15.24H24.38V18.29H25.91V15.24Z" fill="currentColor"/>
<path d="M24.38 25.91H21.33V27.43H24.38V25.91Z" fill="currentColor"/>
<path d="M24.38 13.72H22.86V15.24H24.38V13.72Z" fill="currentColor"/>
<path d="M24.38 30.48H21.33V32H24.38V30.48Z" fill="currentColor"/>
<path d="M19.81 27.43V28.96H10.67V27.43H9.14001V30.48H21.33V27.43H19.81Z" fill="currentColor"/>
<path d="M15.2399 22.86H12.1899V24.38H15.2399V22.86Z" fill="currentColor"/>
<path d="M12.19 13.72H10.67V15.24H12.19V13.72Z" fill="currentColor"/>
<path d="M10.67 15.24H9.14001V18.29H10.67V15.24Z" fill="currentColor"/>
<path d="M9.13998 25.91H6.09998V27.43H9.13998V25.91Z" fill="currentColor"/>
<path d="M9.13998 30.48H6.09998V32H9.13998V30.48Z" fill="currentColor"/>
<path d="M27.4299 21.34V18.29H25.9099V19.81H18.2899V13.72H22.8599V12.19H12.1899V13.72H16.7599V19.81H9.13995V18.29H7.61995V19.81H4.56995V21.34H27.4299Z" fill="currentColor"/>
<path d="M4.57002 27.43V28.96H1.52002V30.48H6.10002V27.43H4.57002Z" fill="currentColor"/>
<path d="M4.57002 21.34H1.52002V22.86H4.57002V21.34Z" fill="currentColor"/>
<path d="M1.52 22.86H0V28.96H1.52V22.86Z" fill="currentColor"/>
</g>
<defs>
<clipPath id="clip0_1128_7697">
<rect width="32" height="32" fill="white"/>
</clipPath>
</defs>
</svg>
