<svg width="32" height="32" viewBox="0 0 32 32" fill="none" xmlns="http://www.w3.org/2000/svg">
<path d="M28.9501 10.67H27.4301V24.38H28.9501V10.67Z" fill="currentColor"/>
<path d="M28.9501 7.62H27.4301V9.14H28.9501V7.62Z" fill="currentColor"/>
<path d="M27.43 24.38H25.91V27.43H27.43V24.38Z" fill="currentColor"/>
<path d="M27.43 4.57001H25.91V7.62001H27.43V4.57001Z" fill="currentColor"/>
<path d="M25.91 18.29H24.38V22.86H25.91V18.29Z" fill="currentColor"/>
<path d="M25.91 9.14001H24.38V13.71H25.91V9.14001Z" fill="currentColor"/>
<path d="M24.3801 22.86H22.8601V25.91H24.3801V22.86Z" fill="currentColor"/>
<path d="M24.3801 6.10001H22.8601V9.14001H24.3801V6.10001Z" fill="currentColor"/>
<path d="M22.8601 28.95H21.3301V30.48H22.8601V28.95Z" fill="currentColor"/>
<path d="M22.8601 10.67H21.3301V21.33H22.8601V10.67Z" fill="currentColor"/>
<path d="M22.8601 4.57001H19.8101V6.10001H22.8601V4.57001Z" fill="currentColor"/>
<path d="M22.8601 1.51999H21.3301V3.04999H22.8601V1.51999Z" fill="currentColor"/>
<path d="M22.8601 25.91H19.8101V27.43H22.8601V25.91Z" fill="currentColor"/>
<path d="M21.3301 9.14001H19.8101V10.67H21.3301V9.14001Z" fill="currentColor"/>
<path d="M21.33 30.48H18.29V32H21.33V30.48Z" fill="currentColor"/>
<path d="M19.81 22.86H18.29V24.38H19.81V22.86Z" fill="currentColor"/>
<path d="M19.81 16.76H18.29V19.81H19.81V16.76Z" fill="currentColor"/>
<path d="M19.81 12.19H18.29V15.24H19.81V12.19Z" fill="currentColor"/>
<path d="M19.81 3.04999H16.76V4.56999H19.81V3.04999Z" fill="currentColor"/>
<path d="M19.8101 27.43H12.1901V28.95H19.8101V27.43Z" fill="currentColor"/>
<path d="M18.29 10.67H15.24V12.19H18.29V10.67Z" fill="currentColor"/>
<path d="M18.2901 19.81H13.7101V21.33H18.2901V19.81Z" fill="currentColor"/>
<path d="M16.76 13.71H15.24V18.29H16.76V13.71Z" fill="currentColor"/>
<path d="M18.2901 6.10001H13.7101V7.62001H18.2901V6.10001Z" fill="currentColor"/>
<path d="M18.2901 24.38H13.7101V25.91H18.2901V24.38Z" fill="currentColor"/>
<path d="M15.2401 3.04999H12.1901V4.56999H15.2401V3.04999Z" fill="currentColor"/>
<path d="M15.24 30.48H10.67V32H15.24V30.48Z" fill="currentColor"/>
<path d="M13.7101 22.86H12.1901V24.38H13.7101V22.86Z" fill="currentColor"/>
<path d="M13.7101 13.71H12.1901V19.81H13.7101V13.71Z" fill="currentColor"/>
<path d="M21.33 0H10.67V1.52H21.33V0Z" fill="currentColor"/>
<path d="M12.19 9.14001H10.67V10.67H12.19V9.14001Z" fill="currentColor"/>
<path d="M12.19 4.57001H9.14001V6.10001H12.19V4.57001Z" fill="currentColor"/>
<path d="M10.67 28.95H7.62V30.48H10.67V28.95Z" fill="currentColor"/>
<path d="M10.67 19.81H9.14001V21.33H10.67V19.81Z" fill="currentColor"/>
<path d="M10.67 15.24H9.14001V18.29H10.67V15.24Z" fill="currentColor"/>
<path d="M10.67 10.67H9.14001V13.71H10.67V10.67Z" fill="currentColor"/>
<path d="M9.14 22.86H7.62V25.91H9.14V22.86Z" fill="currentColor"/>
<path d="M9.14 6.10001H7.62V9.14001H9.14V6.10001Z" fill="currentColor"/>
<path d="M7.6201 27.43H6.1001V28.95H7.6201V27.43Z" fill="currentColor"/>
<path d="M7.6201 10.67H6.1001V22.86H7.6201V10.67Z" fill="currentColor"/>
<path d="M7.6201 3.04999H6.1001V4.56999H7.6201V3.04999Z" fill="currentColor"/>
<path d="M6.10007 24.38H4.57007V27.43H6.10007V24.38Z" fill="currentColor"/>
<path d="M6.10007 4.57001H4.57007V7.62001H6.10007V4.57001Z" fill="currentColor"/>
<path d="M4.57005 19.81H3.05005V24.38H4.57005V19.81Z" fill="currentColor"/>
<path d="M4.57005 7.62H3.05005V18.29H4.57005V7.62Z" fill="currentColor"/>
</svg>
