<svg width="32" height="32" viewBox="0 0 32 32" fill="none" xmlns="http://www.w3.org/2000/svg">
<path d="M30.4751 9.14H28.9551V12.19H30.4751V9.14Z" fill="currentColor"/>
<path d="M28.955 6.09H27.425V9.14H28.955V6.09Z" fill="currentColor"/>
<path d="M27.425 4.57001H25.905V6.09001H27.425V4.57001Z" fill="currentColor"/>
<path d="M18.285 30.48V28.95H16.765V30.48H15.235V28.95H13.715V30.48H7.61497V28.95H6.09497V32H25.905V28.95H24.385V30.48H18.285Z" fill="currentColor"/>
<path d="M25.905 3.05H22.855V4.57H25.905V3.05Z" fill="currentColor"/>
<path d="M24.385 9.14H22.855V12.19H24.385V9.14Z" fill="currentColor"/>
<path d="M21.3351 27.43V28.95H24.3851V25.9H22.8551V27.43H21.3351Z" fill="currentColor"/>
<path d="M22.8551 22.86H21.3351V25.9H22.8551V22.86Z" fill="currentColor"/>
<path d="M22.8551 7.62H21.3351V9.14H22.8551V7.62Z" fill="currentColor"/>
<path d="M22.8551 1.52H19.8051V3.05H22.8551V1.52Z" fill="currentColor"/>
<path d="M21.3351 25.9H19.8051V27.43H21.3351V25.9Z" fill="currentColor"/>
<path d="M21.3351 19.81H19.8051V22.86H21.3351V19.81Z" fill="currentColor"/>
<path d="M19.805 27.43H18.285V28.95H19.805V27.43Z" fill="currentColor"/>
<path d="M19.805 24.38H18.285V25.9H19.805V24.38Z" fill="currentColor"/>
<path d="M19.805 16.76H18.285V19.81H19.805V16.76Z" fill="currentColor"/>
<path d="M21.335 6.09H18.285V7.62H21.335V6.09Z" fill="currentColor"/>
<path d="M19.8051 0H12.1951V1.52H19.8051V0Z" fill="currentColor"/>
<path d="M18.285 22.86H16.765V24.38H18.285V22.86Z" fill="currentColor"/>
<path d="M18.285 19.81H16.765V21.33H18.285V19.81Z" fill="currentColor"/>
<path d="M18.285 13.71H16.765V16.76H18.285V13.71Z" fill="currentColor"/>
<path d="M18.285 4.57001H13.715V6.09001H18.285V4.57001Z" fill="currentColor"/>
<path d="M16.765 21.33H15.235V22.86H16.765V21.33Z" fill="currentColor"/>
<path d="M16.765 9.14H15.235V13.71H16.765V9.14Z" fill="currentColor"/>
<path d="M15.235 22.86H13.715V24.38H15.235V22.86Z" fill="currentColor"/>
<path d="M15.235 19.81H13.715V21.33H15.235V19.81Z" fill="currentColor"/>
<path d="M15.235 13.71H13.715V16.76H15.235V13.71Z" fill="currentColor"/>
<path d="M13.7151 27.43H12.1951V28.95H13.7151V27.43Z" fill="currentColor"/>
<path d="M13.7151 24.38H12.1951V25.9H13.7151V24.38Z" fill="currentColor"/>
<path d="M13.7151 16.76H12.1951V19.81H13.7151V16.76Z" fill="currentColor"/>
<path d="M12.195 25.9H10.665V27.43H12.195V25.9Z" fill="currentColor"/>
<path d="M12.195 19.81H10.665V22.86H12.195V19.81Z" fill="currentColor"/>
<path d="M13.715 6.09H10.665V7.62H13.715V6.09Z" fill="currentColor"/>
<path d="M7.61499 28.95H10.665V27.43H9.14499V25.9H7.61499V28.95Z" fill="currentColor"/>
<path d="M10.665 22.86H9.14502V25.9H10.665V22.86Z" fill="currentColor"/>
<path d="M10.665 7.62H9.14502V9.14H10.665V7.62Z" fill="currentColor"/>
<path d="M12.195 1.52H9.14502V3.05H12.195V1.52Z" fill="currentColor"/>
<path d="M9.14499 9.14H7.61499V12.19H9.14499V9.14Z" fill="currentColor"/>
<path d="M9.14497 3.05H6.09497V4.57H9.14497V3.05Z" fill="currentColor"/>
<path d="M6.09507 4.57001H4.57507V6.09001H6.09507V4.57001Z" fill="currentColor"/>
<path d="M4.57504 6.09H3.04504V9.14H4.57504V6.09Z" fill="currentColor"/>
<path d="M3.04502 9.14H1.52502V12.19H3.04502V9.14Z" fill="currentColor"/>
</svg>
