<svg width="32" height="32" viewBox="0 0 32 32" fill="none" xmlns="http://www.w3.org/2000/svg">
<path d="M28.955 18.28H27.425V21.33H25.905V22.85H24.375V24.38H25.905V25.9H27.425V28.95H28.955V27.42H30.475V19.81H28.955V18.28Z" fill="currentColor"/>
<path d="M24.375 27.42H22.855V25.9H21.335V27.42H19.805V28.95H16.755V30.47H18.285V32H25.905V30.47H27.425V28.95H24.375V27.42Z" fill="currentColor"/>
<path d="M19.805 19.81H21.335V21.33H22.855V19.81H24.375V18.28H27.425V16.76H25.905V15.23H18.285V16.76H16.755V18.28H19.805V19.81Z" fill="currentColor"/>
<path d="M18.285 25.9V24.38H19.805V22.85H18.285V21.33H16.755V18.28H15.235V19.81H13.715V27.42H15.235V28.95H16.755V25.9H18.285Z" fill="currentColor"/>
<path d="M15.235 3.03998H13.715V9.13998H15.235V3.03998Z" fill="currentColor"/>
<path d="M13.715 9.14001H10.665V10.66H13.715V9.14001Z" fill="currentColor"/>
<path d="M13.7151 1.52002H12.1851V3.04002H13.7151V1.52002Z" fill="currentColor"/>
<path d="M12.185 19.81H10.665V21.33H12.185V19.81Z" fill="currentColor"/>
<path d="M12.185 0H6.09497V1.52H12.185V0Z" fill="currentColor"/>
<path d="M9.14502 27.42H10.665V25.9H12.185V22.85H9.14502V27.42Z" fill="currentColor"/>
<path d="M10.665 10.66H9.14502V19.81H10.665V10.66Z" fill="currentColor"/>
<path d="M9.14502 3.03998V7.61998H12.185V4.56998H10.665V3.03998H9.14502Z" fill="currentColor"/>
<path d="M12.185 28.95H6.09497V30.47H12.185V28.95Z" fill="currentColor"/>
<path d="M6.09506 27.42H4.56506V28.95H6.09506V27.42Z" fill="currentColor"/>
<path d="M6.09506 1.52002H4.56506V3.04002H6.09506V1.52002Z" fill="currentColor"/>
<path d="M4.56504 24.38H3.04504V27.42H4.56504V24.38Z" fill="currentColor"/>
<path d="M4.56504 3.03998H3.04504V6.08998H4.56504V3.03998Z" fill="currentColor"/>
<path d="M3.04502 6.09003H1.52502V24.38H3.04502V6.09003Z" fill="currentColor"/>
</svg>
