<svg width="32" height="32" viewBox="0 0 32 32" fill="none" xmlns="http://www.w3.org/2000/svg">
<g clip-path="url(#clip0_1135_2020)">
<path d="M32 12.1899H30.47V19.8099H32V12.1899Z" fill="currentColor"/>
<path d="M30.4699 19.8101H28.95V22.8601H30.4699V19.8101Z" fill="currentColor"/>
<path d="M30.4699 9.14001H28.95V12.19H30.4699V9.14001Z" fill="currentColor"/>
<path d="M28.9501 22.86H27.4301V25.91H28.9501V22.86Z" fill="currentColor"/>
<path d="M28.9501 6.09998H27.4301V9.13998H28.9501V6.09998Z" fill="currentColor"/>
<path d="M27.43 25.91H25.9V27.43H27.43V25.91Z" fill="currentColor"/>
<path d="M27.43 4.56995H25.9V6.09995H27.43V4.56995Z" fill="currentColor"/>
<path d="M25.9 15.24H24.38V19.81H25.9V15.24Z" fill="currentColor"/>
<path d="M25.9 27.4301H22.86V28.9501H25.9V27.4301Z" fill="currentColor"/>
<path d="M24.38 21.33H22.86V22.86H24.38V21.33Z" fill="currentColor"/>
<path d="M25.9 3.05005H22.86V4.57005H25.9V3.05005Z" fill="currentColor"/>
<path d="M22.86 22.86H21.33V24.38H22.86V22.86Z" fill="currentColor"/>
<path d="M22.86 12.1899H21.33V19.8099H22.86V12.1899Z" fill="currentColor"/>
<path d="M22.8601 28.95H19.8101V30.4799H22.8601V28.95Z" fill="currentColor"/>
<path d="M21.3301 19.8101H19.8101V21.3301H21.3301V19.8101Z" fill="currentColor"/>
<path d="M21.3301 10.67H19.8101V12.19H21.3301V10.67Z" fill="currentColor"/>
<path d="M22.8601 1.53003H19.8101V3.05003H22.8601V1.53003Z" fill="currentColor"/>
<path d="M21.33 24.38H18.28V25.91H21.33V24.38Z" fill="currentColor"/>
<path d="M19.8099 21.33H12.1899V22.86H19.8099V21.33Z" fill="currentColor"/>
<path d="M19.8099 30.48H12.1899V32H19.8099V30.48Z" fill="currentColor"/>
<path d="M19.8099 13.7199H18.2799V12.1899H13.7099V13.7199H12.1899V18.2899H13.7099V19.8099H18.2799V18.2899H19.8099V13.7199ZM16.7599 16.7599H15.2399V15.2399H16.7599V16.7599Z" fill="currentColor"/>
<path d="M19.8099 9.14001H12.1899V10.67H19.8099V9.14001Z" fill="currentColor"/>
<path d="M19.8099 0H12.1899V1.53H19.8099V0Z" fill="currentColor"/>
<path d="M15.24 6.09998H10.67V7.61998H15.24V6.09998Z" fill="currentColor"/>
<path d="M12.19 28.95H9.14001V30.4799H12.19V28.95Z" fill="currentColor"/>
<path d="M12.19 19.8101H10.67V21.3301H12.19V19.8101Z" fill="currentColor"/>
<path d="M12.19 10.67H10.67V12.19H12.19V10.67Z" fill="currentColor"/>
<path d="M12.19 1.53003H9.14001V3.05003H12.19V1.53003Z" fill="currentColor"/>
<path d="M10.67 12.1899H9.14001V19.8099H10.67V12.1899Z" fill="currentColor"/>
<path d="M10.67 7.62H9.14001V9.14H10.67V7.62Z" fill="currentColor"/>
<path d="M9.13997 27.4301H6.08997V28.9501H9.13997V27.4301Z" fill="currentColor"/>
<path d="M9.14 9.14001H7.62V10.67H9.14V9.14001Z" fill="currentColor"/>
<path d="M9.13997 3.05005H6.08997V4.57005H9.13997V3.05005Z" fill="currentColor"/>
<path d="M7.61997 10.67H6.08997V15.24H7.61997V10.67Z" fill="currentColor"/>
<path d="M6.08995 25.91H4.56995V27.43H6.08995V25.91Z" fill="currentColor"/>
<path d="M6.08995 4.56995H4.56995V6.09995H6.08995V4.56995Z" fill="currentColor"/>
<path d="M4.57005 22.86H3.05005V25.91H4.57005V22.86Z" fill="currentColor"/>
<path d="M4.57005 6.09998H3.05005V9.13998H4.57005V6.09998Z" fill="currentColor"/>
<path d="M3.05002 19.8101H1.52002V22.8601H3.05002V19.8101Z" fill="currentColor"/>
<path d="M3.05002 9.14001H1.52002V12.19H3.05002V9.14001Z" fill="currentColor"/>
<path d="M1.52 12.1899H0V19.8099H1.52V12.1899Z" fill="currentColor"/>
</g>
<defs>
<clipPath id="clip0_1135_2020">
<rect width="32" height="32" fill="white"/>
</clipPath>
</defs>
</svg>
