<svg width="32" height="32" viewBox="0 0 32 32" fill="none" xmlns="http://www.w3.org/2000/svg">
<path d="M25.9049 23.615H24.3849V25.145H22.8549V26.665H21.3349V28.195H19.8049V29.715H24.3849V28.195H25.9049V26.665H27.4249V22.095H25.9049V23.615Z" fill="currentColor"/>
<path d="M24.385 12.955H25.905V0.765015H22.855V2.28501H24.385V12.955Z" fill="currentColor"/>
<path d="M24.385 12.955H22.855V14.475H24.385V12.955Z" fill="currentColor"/>
<path d="M22.855 2.28503H21.335V3.81503H22.855V2.28503Z" fill="currentColor"/>
<path d="M21.3349 26.665V25.145H22.8549V23.615H24.3849V22.095H25.9049V20.575H21.3349V22.095H19.8049V23.615H18.2849V28.195H19.8049V26.665H21.3349Z" fill="currentColor"/>
<path d="M22.8549 14.475H19.8049V16.005H22.8549V14.475Z" fill="currentColor"/>
<path d="M21.3349 3.815H19.8049V5.335H21.3349V3.815Z" fill="currentColor"/>
<path d="M19.8049 16.005H12.1949V17.525H15.2349V31.235H16.7649V17.525H19.8049V16.005Z" fill="currentColor"/>
<path d="M19.8049 2.28503H18.2849V3.81503H19.8049V2.28503Z" fill="currentColor"/>
<path d="M18.285 0.765015H13.715V2.28501H18.285V0.765015Z" fill="currentColor"/>
<path d="M13.7149 2.28503H12.1949V3.81503H13.7149V2.28503Z" fill="currentColor"/>
<path d="M12.195 22.095H10.665V20.575H6.09497V22.095H7.61497V23.615H9.14497V25.145H10.665V26.665H12.195V28.195H13.715V23.615H12.195V22.095Z" fill="currentColor"/>
<path d="M12.1949 14.475H9.1449V16.005H12.1949V14.475Z" fill="currentColor"/>
<path d="M12.1949 3.815H10.6649V5.335H12.1949V3.815Z" fill="currentColor"/>
<path d="M10.665 26.665H9.14495V25.145H7.61495V23.615H6.09495V22.095H4.57495V26.665H6.09495V28.195H7.61495V29.715H12.195V28.195H10.665V26.665Z" fill="currentColor"/>
<path d="M10.6649 2.28503H9.1449V3.81503H10.6649V2.28503Z" fill="currentColor"/>
<path d="M9.14499 12.955H7.61499V14.475H9.14499V12.955Z" fill="currentColor"/>
<path d="M7.61497 2.28501H9.14497V0.765015H6.09497V12.955H7.61497V2.28501Z" fill="currentColor"/>
</svg>
