<svg width="32" height="32" viewBox="0 0 32 32" fill="none" xmlns="http://www.w3.org/2000/svg">
<g clip-path="url(#clip0_1135_3518)">
<path d="M0.76001 17.53H31.24V12.96H0.76001V17.53ZM2.29001 14.48H29.72V16H2.29001V14.48Z" fill="currentColor"/>
<path d="M29.72 19.05H28.19V28.19H29.72V19.05Z" fill="currentColor"/>
<path d="M29.72 3.81H28.19V11.43H29.72V3.81Z" fill="currentColor"/>
<path d="M26.67 19.05H25.15V28.19H26.67V19.05Z" fill="currentColor"/>
<path d="M26.67 3.81H25.15V11.43H26.67V3.81Z" fill="currentColor"/>
<path d="M23.62 3.81H20.57V11.43H23.62V3.81Z" fill="currentColor"/>
<path d="M23.62 19.05H20.57V28.19H23.62V19.05Z" fill="currentColor"/>
<path d="M19.05 19.05H17.53V28.19H19.05V19.05Z" fill="currentColor"/>
<path d="M19.05 3.81H17.53V11.43H19.05V3.81Z" fill="currentColor"/>
<path d="M12.96 3.81H9.91003V11.43H12.96V3.81Z" fill="currentColor"/>
<path d="M12.96 19.05H9.91003V28.19H12.96V19.05Z" fill="currentColor"/>
<path d="M8.37999 19.05H6.85999V28.19H8.37999V19.05Z" fill="currentColor"/>
<path d="M8.37999 3.81H6.85999V11.43H8.37999V3.81Z" fill="currentColor"/>
<path d="M5.34004 3.81H2.29004V11.43H5.34004V3.81Z" fill="currentColor"/>
<path d="M5.34004 19.05H2.29004V28.19H5.34004V19.05Z" fill="currentColor"/>
</g>
<defs>
<clipPath id="clip0_1135_3518">
<rect width="32" height="32" fill="white"/>
</clipPath>
</defs>
</svg>
