<svg width="32" height="32" viewBox="0 0 32 32" fill="none" xmlns="http://www.w3.org/2000/svg">
<path d="M25.91 11.43H28.95V8.38001H27.43V6.85001H24.38V9.90001H25.91V11.43Z" fill="currentColor"/>
<path d="M27.43 14.47H25.91V25.14H27.43V14.47Z" fill="currentColor"/>
<path d="M25.91 25.14H24.38V28.19H25.91V25.14Z" fill="currentColor"/>
<path d="M25.91 11.43H24.38V14.47H25.91V11.43Z" fill="currentColor"/>
<path d="M24.3801 22.09H22.8601V23.62H24.3801V22.09Z" fill="currentColor"/>
<path d="M24.3801 19.04H22.8601V20.57H24.3801V19.04Z" fill="currentColor"/>
<path d="M24.3801 16H22.8601V17.52H24.3801V16Z" fill="currentColor"/>
<path d="M24.3801 28.19H21.3401V29.71H24.3801V28.19Z" fill="currentColor"/>
<path d="M22.8601 25.14H21.3401V26.66H22.8601V25.14Z" fill="currentColor"/>
<path d="M22.8601 12.95H21.3401V14.47H22.8601V12.95Z" fill="currentColor"/>
<path d="M24.3801 9.90002H21.3401V11.43H24.3801V9.90002Z" fill="currentColor"/>
<path d="M22.8601 2.28H21.3401V5.33H22.8601V2.28Z" fill="currentColor"/>
<path d="M13.7201 20.57H15.2401V22.09H16.7601V20.57H21.3401V19.04H16.7601V16H15.2401V19.04H13.7201V20.57Z" fill="currentColor"/>
<path d="M21.34 29.71H10.67V31.24H21.34V29.71Z" fill="currentColor"/>
<path d="M19.81 26.66H18.29V28.19H19.81V26.66Z" fill="currentColor"/>
<path d="M19.81 11.43H18.29V12.95H19.81V11.43Z" fill="currentColor"/>
<path d="M16.76 26.66H15.24V28.19H16.76V26.66Z" fill="currentColor"/>
<path d="M16.76 11.43H15.24V12.95H16.76V11.43Z" fill="currentColor"/>
<path d="M13.7201 26.66H12.1901V28.19H13.7201V26.66Z" fill="currentColor"/>
<path d="M13.7201 11.43H12.1901V12.95H13.7201V11.43Z" fill="currentColor"/>
<path d="M21.34 9.90001V8.38001H18.29V6.85001H21.34V5.33001H19.81V2.28001H21.34V0.76001H10.67V2.28001H12.19V5.33001H10.67V6.85001H13.72V8.38001H10.67V9.90001H21.34ZM16.76 2.28001H18.29V5.33001H16.76V2.28001ZM16.76 8.38001H15.24V6.85001H16.76V8.38001ZM13.72 2.28001H15.24V5.33001H13.72V2.28001Z" fill="currentColor"/>
<path d="M10.67 28.19H7.62V29.71H10.67V28.19Z" fill="currentColor"/>
<path d="M10.67 25.14H9.15002V26.66H10.67V25.14Z" fill="currentColor"/>
<path d="M10.67 12.95H9.15002V14.47H10.67V12.95Z" fill="currentColor"/>
<path d="M10.67 2.28H9.15002V5.33H10.67V2.28Z" fill="currentColor"/>
<path d="M9.14999 22.09H7.62V23.62H9.14999V22.09Z" fill="currentColor"/>
<path d="M9.14999 19.04H7.62V20.57H9.14999V19.04Z" fill="currentColor"/>
<path d="M9.14999 16H7.62V17.52H9.14999V16Z" fill="currentColor"/>
<path d="M10.67 9.90002H7.62V11.43H10.67V9.90002Z" fill="currentColor"/>
<path d="M7.6201 25.14H6.1001V28.19H7.6201V25.14Z" fill="currentColor"/>
<path d="M7.6201 11.43H6.1001V14.47H7.6201V11.43Z" fill="currentColor"/>
<path d="M4.57005 6.85001V8.38001H3.05005V11.43H6.10005V9.90001H7.62005V6.85001H4.57005Z" fill="currentColor"/>
<path d="M6.10007 14.47H4.57007V25.14H6.10007V14.47Z" fill="currentColor"/>
</svg>
