<svg width="32" height="32" viewBox="0 0 32 32" fill="none" xmlns="http://www.w3.org/2000/svg">
<g clip-path="url(#clip0_1135_4665)">
<path d="M32 4.56995H30.47V16.7699H32V4.56995Z" fill="currentColor"/>
<path d="M30.4699 16.77H28.95V18.29H30.4699V16.77Z" fill="currentColor"/>
<path d="M30.4699 3.05005H28.95V4.57005H30.4699V3.05005Z" fill="currentColor"/>
<path d="M28.9501 18.29H27.4301V19.81H28.9501V18.29Z" fill="currentColor"/>
<path d="M28.9501 1.53003H27.4301V3.05003H28.9501V1.53003Z" fill="currentColor"/>
<path d="M27.43 4.56995H24.38V6.09995H22.85V15.2399H24.38V16.7699H27.43V15.2399H28.95V6.09995H27.43V4.56995Z" fill="currentColor"/>
<path d="M24.3801 18.29H22.8501V19.81H19.8101V21.34H24.3801V32H25.9001V21.34H27.4301V19.81H24.3801V18.29Z" fill="currentColor"/>
<path d="M22.85 16.77H21.33V18.29H22.85V16.77Z" fill="currentColor"/>
<path d="M22.85 3.05005H21.33V4.57005H22.85V3.05005Z" fill="currentColor"/>
<path d="M22.8501 3.05H24.3801V1.53H27.4301V0H19.8101V1.53H22.8501V3.05Z" fill="currentColor"/>
<path d="M22.85 27.4301H18.28V28.9601H22.85V27.4301Z" fill="currentColor"/>
<path d="M21.3301 4.56995H19.8101V16.7699H21.3301V4.56995Z" fill="currentColor"/>
<path d="M19.81 18.29H15.24V19.81H19.81V18.29Z" fill="currentColor"/>
<path d="M18.28 25.91H13.71V27.43H18.28V25.91Z" fill="currentColor"/>
<path d="M19.81 1.53003H15.24V3.05003H19.81V1.53003Z" fill="currentColor"/>
<path d="M15.24 3.05005H13.71V4.57005H9.14001V6.10005H13.71V15.24H9.14001V16.77H13.71V18.29H15.24V3.05005Z" fill="currentColor"/>
<path d="M13.71 27.4301H10.66V28.9601H13.71V27.4301Z" fill="currentColor"/>
<path d="M13.71 21.34H9.14001V22.86H13.71V21.34Z" fill="currentColor"/>
<path d="M9.14 19.8101H7.62V21.3401H9.14V19.8101Z" fill="currentColor"/>
<path d="M9.13995 6.09998H7.61995V7.61998H4.56995V9.14998H7.61995V12.19H4.56995V13.72H7.61995V15.24H9.13995V6.09998Z" fill="currentColor"/>
<path d="M7.62005 18.29H3.05005V19.81H7.62005V18.29Z" fill="currentColor"/>
<path d="M7.61995 3.05005H4.56995V4.57005H7.61995V3.05005Z" fill="currentColor"/>
<path d="M4.57005 9.15002H3.05005V12.19H4.57005V9.15002Z" fill="currentColor"/>
<path d="M4.57002 1.53003H1.52002V3.05003H4.57002V1.53003Z" fill="currentColor"/>
<path d="M3.05 19.8101H0V21.3401H3.05V19.8101Z" fill="currentColor"/>
<path d="M1.52 3.05005H0V4.57005H1.52V3.05005Z" fill="currentColor"/>
</g>
<defs>
<clipPath id="clip0_1135_4665">
<rect width="32" height="32" fill="white"/>
</clipPath>
</defs>
</svg>
