<svg width="32" height="32" viewBox="0 0 32 32" fill="none" xmlns="http://www.w3.org/2000/svg">
<path d="M28.955 22.85H3.05502V7.62H1.52502V25.9H3.05502V27.43H12.195V28.95H13.715V27.43H18.285V28.95H19.815V27.43H28.955V25.9H30.475V7.62H28.955V22.85Z" fill="currentColor"/>
<path d="M28.955 6.09H22.865V7.62H28.955V6.09Z" fill="currentColor"/>
<path d="M12.195 30.47V28.95H10.675V32H21.335V28.95H19.815V30.47H12.195Z" fill="currentColor"/>
<path d="M18.285 15.24H13.715V16.76H18.285V15.24Z" fill="currentColor"/>
<path d="M18.285 18.28H13.715V19.81H18.285V18.28Z" fill="currentColor"/>
<path d="M15.245 0V1.52H13.715V3.05H12.195V4.57H10.675V6.09H13.715V13.71H18.285V6.09H21.335V4.57H19.815V3.05H18.285V1.52H16.765V0H15.245Z" fill="currentColor"/>
<path d="M9.14505 6.09H3.05505V7.62H9.14505V6.09Z" fill="currentColor"/>
</svg>
