<svg width="32" height="32" viewBox="0 0 32 32" fill="none" xmlns="http://www.w3.org/2000/svg">
<g clip-path="url(#clip0_1135_3260)">
<path d="M32 3.04999H30.48V28.96H32V3.04999Z" fill="currentColor"/>
<path d="M30.48 28.96H28.95V30.48H30.48V28.96Z" fill="currentColor"/>
<path d="M30.48 1.53H28.95V3.05H30.48V1.53Z" fill="currentColor"/>
<path d="M28.95 30.48H3.04999V32H28.95V30.48Z" fill="currentColor"/>
<path d="M25.91 10.67H24.38V9.14999H22.86V7.62H21.34V9.14999H19.81V10.67H18.29V12.19H16.76V13.72H19.81V21.34H24.38V13.72H27.43V12.19H25.91V10.67Z" fill="currentColor"/>
<path d="M25.91 24.38H6.10001V25.91H25.91V24.38Z" fill="currentColor"/>
<path d="M7.62001 21.34H12.19V13.72H15.24V12.19H13.72V10.67H12.19V9.14999H10.67V7.62H9.15001V9.14999H7.62001V10.67H6.10001V12.19H4.57001V13.72H7.62001V21.34Z" fill="currentColor"/>
<path d="M28.95 0H3.04999V1.53H28.95V0Z" fill="currentColor"/>
<path d="M3.05 28.96H1.53V30.48H3.05V28.96Z" fill="currentColor"/>
<path d="M3.05 1.53H1.53V3.05H3.05V1.53Z" fill="currentColor"/>
<path d="M1.53 3.04999H0V28.96H1.53V3.04999Z" fill="currentColor"/>
</g>
<defs>
<clipPath id="clip0_1135_3260">
<rect width="32" height="32" fill="white"/>
</clipPath>
</defs>
</svg>
