<svg width="32" height="32" viewBox="0 0 32 32" fill="none" xmlns="http://www.w3.org/2000/svg">
<g clip-path="url(#clip0_1128_19544)">
<path d="M32 7.62H30.47V15.24H32V7.62Z" fill="currentColor"/>
<path d="M30.47 4.57H28.95V7.62H30.47V4.57Z" fill="currentColor"/>
<path d="M28.95 3.05H27.43V4.57H28.95V3.05Z" fill="currentColor"/>
<path d="M27.43 9.14H25.9V13.71H27.43V9.14Z" fill="currentColor"/>
<path d="M27.43 1.52H24.38V3.05H27.43V1.52Z" fill="currentColor"/>
<path d="M9.14 27.43V28.95H10.67V27.43H15.24V28.95H16.76V27.43H24.38V25.9H25.9V18.28H24.38V22.85H1.52V9.14H0V25.9H1.52V27.43H9.14Z" fill="currentColor"/>
<path d="M25.9 7.62H24.38V9.14H25.9V7.62Z" fill="currentColor"/>
<path d="M24.38 6.09H22.86V7.62H24.38V6.09Z" fill="currentColor"/>
<path d="M24.38 0H16.76V1.52H24.38V0Z" fill="currentColor"/>
<path d="M22.86 10.66H21.33V13.71H22.86V10.66Z" fill="currentColor"/>
<path d="M22.86 4.57H18.28V6.09H22.86V4.57Z" fill="currentColor"/>
<path d="M21.33 9.14H18.28V10.66H21.33V9.14Z" fill="currentColor"/>
<path d="M21.33 13.71H18.28V15.24H21.33V13.71Z" fill="currentColor"/>
<path d="M18.28 10.66H16.76V13.71H18.28V10.66Z" fill="currentColor"/>
<path d="M9.14 30.47V28.95H7.62V32H18.28V28.95H16.76V30.47H9.14Z" fill="currentColor"/>
<path d="M15.24 18.28H13.71V19.81H15.24V18.28Z" fill="currentColor"/>
<path d="M13.71 15.24H12.19V16.76H13.71V15.24Z" fill="currentColor"/>
<path d="M13.71 19.81H7.62V21.33H13.71V19.81Z" fill="currentColor"/>
<path d="M9.14 15.24H7.62V16.76H9.14V15.24Z" fill="currentColor"/>
<path d="M7.62003 18.28H6.09003V19.81H7.62003V18.28Z" fill="currentColor"/>
<path d="M13.71 7.62H1.52002V9.14H13.71V7.62Z" fill="currentColor"/>
</g>
<defs>
<clipPath id="clip0_1128_19544">
<rect width="32" height="32" fill="white"/>
</clipPath>
</defs>
</svg>
