<svg width="32" height="32" viewBox="0 0 32 32" fill="none" xmlns="http://www.w3.org/2000/svg">
<g clip-path="url(#clip0_1128_6697)">
<path d="M32 22.85H30.48V28.95H32V22.85Z" fill="currentColor"/>
<path d="M30.48 28.95H28.95V30.47H30.48V28.95Z" fill="currentColor"/>
<path d="M30.48 21.33H28.95V22.85H30.48V21.33Z" fill="currentColor"/>
<path d="M28.95 30.47H15.24V32H28.95V30.47Z" fill="currentColor"/>
<path d="M27.43 25.9H25.91V27.43H27.43V25.9Z" fill="currentColor"/>
<path d="M27.43 22.85H25.91V24.38H27.43V22.85Z" fill="currentColor"/>
<path d="M25.91 27.43H19.81V28.95H25.91V27.43Z" fill="currentColor"/>
<path d="M19.81 25.9H18.29V27.43H19.81V25.9Z" fill="currentColor"/>
<path d="M18.29 15.24V16.76H19.81V25.9H21.34V21.33H28.95V19.81H21.34V13.71H19.81V15.24H18.29Z" fill="currentColor"/>
<path d="M19.81 12.19H18.29V13.71H19.81V12.19Z" fill="currentColor"/>
<path d="M18.29 13.71H3.05V15.24H18.29V13.71Z" fill="currentColor"/>
<path d="M18.29 28.95V27.43H3.05V28.95H13.72V30.47H15.24V28.95H18.29Z" fill="currentColor"/>
<path d="M13.72 0H7.62V1.52H13.72V0Z" fill="currentColor"/>
<path d="M18.29 18.28H16.76V16.76H4.57V18.28H3.05V24.38H4.57V25.9H16.76V24.38H18.29V18.28ZM6.1 18.28H7.62V19.81H6.1V18.28ZM15.24 22.85H13.72V24.38H7.62V22.85H6.1V21.33H7.62V22.85H13.72V21.33H15.24V22.85ZM15.24 19.81H13.72V18.28H15.24V19.81Z" fill="currentColor"/>
<path d="M18.29 12.19V10.66H15.24V1.52002H13.72V10.66H7.62V1.52002H6.1V10.66H3.05V12.19H18.29Z" fill="currentColor"/>
<path d="M3.05 25.9H1.53V27.43H3.05V25.9Z" fill="currentColor"/>
<path d="M3.05 12.19H1.53V13.71H3.05V12.19Z" fill="currentColor"/>
<path d="M1.53 16.76H3.05V15.24H1.53V13.71H0V25.9H1.53V16.76Z" fill="currentColor"/>
</g>
<defs>
<clipPath id="clip0_1128_6697">
<rect width="32" height="32" fill="white"/>
</clipPath>
</defs>
</svg>
