<svg width="32" height="32" viewBox="0 0 32 32" fill="none" xmlns="http://www.w3.org/2000/svg">
<path d="M28.19 19.81H26.66V24.38H28.19V19.81Z" fill="currentColor"/>
<path d="M26.66 18.28H25.14V19.81H26.66V18.28Z" fill="currentColor"/>
<path d="M26.6601 24.38H23.6201V25.9H26.6601V24.38Z" fill="currentColor"/>
<path d="M25.1401 13.71H23.6201V18.28H25.1401V13.71Z" fill="currentColor"/>
<path d="M23.6201 19.81H22.0901V21.33H23.6201V19.81Z" fill="currentColor"/>
<path d="M23.6201 9.14001H22.0901V13.71H23.6201V9.14001Z" fill="currentColor"/>
<path d="M17.52 25.9V24.38H19.04V22.85H17.52V18.28H14.47V22.85H11.43V24.38H14.47V25.9H8.38V27.43H14.47V32H17.52V27.43H23.62V25.9H17.52Z" fill="currentColor"/>
<path d="M22.0901 18.28H20.5701V19.81H22.0901V18.28Z" fill="currentColor"/>
<path d="M22.0901 4.57001H20.5701V9.14001H22.0901V4.57001Z" fill="currentColor"/>
<path d="M20.57 21.33H19.04V22.85H20.57V21.33Z" fill="currentColor"/>
<path d="M20.57 12.19H17.52V13.71H20.57V12.19Z" fill="currentColor"/>
<path d="M20.57 3.04999H19.04V4.56999H20.57V3.04999Z" fill="currentColor"/>
<path d="M19.04 1.52002H17.52V3.05002H19.04V1.52002Z" fill="currentColor"/>
<path d="M17.52 10.66H16V12.19H17.52V10.66Z" fill="currentColor"/>
<path d="M17.52 6.09003H16V7.62003H17.52V6.09003Z" fill="currentColor"/>
<path d="M17.5201 0H14.4701V1.52H17.5201V0Z" fill="currentColor"/>
<path d="M16.0001 7.62H12.9501V9.14H16.0001V7.62Z" fill="currentColor"/>
<path d="M14.4701 13.71H12.9501V15.24H14.4701V13.71Z" fill="currentColor"/>
<path d="M14.4701 1.52002H12.9501V3.05002H14.4701V1.52002Z" fill="currentColor"/>
<path d="M12.9501 3.04999H11.4301V4.56999H12.9501V3.04999Z" fill="currentColor"/>
<path d="M11.43 21.33H9.90002V22.85H11.43V21.33Z" fill="currentColor"/>
<path d="M12.95 15.24H9.90002V16.76H12.95V15.24Z" fill="currentColor"/>
<path d="M11.43 4.57001H9.90002V9.14001H11.43V4.57001Z" fill="currentColor"/>
<path d="M9.9 9.14001H8.38V13.71H9.9V9.14001Z" fill="currentColor"/>
<path d="M8.38008 24.38H5.33008V25.9H8.38008V24.38Z" fill="currentColor"/>
<path d="M8.3801 13.71H6.8501V18.28H8.3801V13.71Z" fill="currentColor"/>
<path d="M6.85008 18.28H5.33008V19.81H6.85008V18.28Z" fill="currentColor"/>
<path d="M5.33006 19.81H3.81006V24.38H5.33006V19.81Z" fill="currentColor"/>
</svg>
