<svg width="32" height="32" viewBox="0 0 32 32" fill="none" xmlns="http://www.w3.org/2000/svg">
<path d="M28.9501 4.57001H27.4301V21.33H28.9501V4.57001Z" fill="currentColor"/>
<path d="M27.43 21.33H25.9V24.38H27.43V21.33Z" fill="currentColor"/>
<path d="M25.9 24.38H24.38V25.91H25.9V24.38Z" fill="currentColor"/>
<path d="M27.43 3.04999H24.38V4.56999H27.43V3.04999Z" fill="currentColor"/>
<path d="M24.3801 25.91H22.8601V27.43H24.3801V25.91Z" fill="currentColor"/>
<path d="M22.8601 27.43H21.3301V28.95H22.8601V27.43Z" fill="currentColor"/>
<path d="M22.8601 21.33H21.3301V22.86H22.8601V21.33Z" fill="currentColor"/>
<path d="M22.86 7.61998H21.33V6.09998H10.67V7.61998H9.14V9.13998H7.62V21.33H9.14V15.24H10.67V13.72H21.33V15.24H22.86V21.33H24.38V9.13998H22.86V7.61998Z" fill="currentColor"/>
<path d="M24.3801 1.53003H21.3301V3.05003H24.3801V1.53003Z" fill="currentColor"/>
<path d="M21.3301 22.86H19.8101V24.38H21.3301V22.86Z" fill="currentColor"/>
<path d="M21.3301 16.76H19.8101V19.81H21.3301V16.76Z" fill="currentColor"/>
<path d="M21.33 28.95H18.29V30.48H21.33V28.95Z" fill="currentColor"/>
<path d="M19.8101 24.38H12.1901V25.91H19.8101V24.38Z" fill="currentColor"/>
<path d="M18.2901 30.48H13.7101V32H18.2901V30.48Z" fill="currentColor"/>
<path d="M18.2901 21.33H13.7101V22.86H18.2901V21.33Z" fill="currentColor"/>
<path d="M13.71 28.95H10.67V30.48H13.71V28.95Z" fill="currentColor"/>
<path d="M21.33 0H10.67V1.53H21.33V0Z" fill="currentColor"/>
<path d="M12.19 22.86H10.67V24.38H12.19V22.86Z" fill="currentColor"/>
<path d="M12.19 16.76H10.67V19.81H12.19V16.76Z" fill="currentColor"/>
<path d="M10.67 27.43H9.14001V28.95H10.67V27.43Z" fill="currentColor"/>
<path d="M10.67 21.33H9.14001V22.86H10.67V21.33Z" fill="currentColor"/>
<path d="M10.67 1.53003H7.62V3.05003H10.67V1.53003Z" fill="currentColor"/>
<path d="M9.14 25.91H7.62V27.43H9.14V25.91Z" fill="currentColor"/>
<path d="M7.62009 24.38H6.09009V25.91H7.62009V24.38Z" fill="currentColor"/>
<path d="M7.62007 3.04999H4.57007V4.56999H7.62007V3.04999Z" fill="currentColor"/>
<path d="M6.09007 21.33H4.57007V24.38H6.09007V21.33Z" fill="currentColor"/>
<path d="M4.57005 4.57001H3.05005V21.33H4.57005V4.57001Z" fill="currentColor"/>
</svg>
