<svg width="32" height="32" viewBox="0 0 32 32" fill="none" xmlns="http://www.w3.org/2000/svg">
<g clip-path="url(#clip0_1135_3286)">
<path d="M19.81 29.715H7.62V31.235H19.81V29.715Z" fill="currentColor"/>
<path d="M24.38 28.195H19.81V29.715H24.38V28.195Z" fill="currentColor"/>
<path d="M15.24 26.665V25.145H4.57001V26.665H6.09001V29.715H7.62001V26.665H15.24Z" fill="currentColor"/>
<path d="M6.08999 22.095V20.575H1.51999V22.095H3.03999V25.145H4.56999V22.095H6.08999Z" fill="currentColor"/>
<path d="M12.19 20.575V19.045H15.24V17.525H12.19V9.90503H9.14001V11.425H10.66V19.045H9.14001V20.575H12.19Z" fill="currentColor"/>
<path d="M9.14 17.525H6.09V19.045H9.14V17.525Z" fill="currentColor"/>
<path d="M1.52 17.525H0V20.575H1.52V17.525Z" fill="currentColor"/>
<path d="M18.28 16.005H15.24V17.525H18.28V16.005Z" fill="currentColor"/>
<path d="M6.09001 16.005H3.04001V17.525H6.09001V16.005Z" fill="currentColor"/>
<path d="M3.03999 8.38502H6.08999V6.85502H3.03999V5.33502H1.51999V16.005H3.03999V8.38502Z" fill="currentColor"/>
<path d="M27.43 9.90002V11.42H25.9V12.95H27.43V26.66H24.38V28.2H27.43V29.72H32V9.90002H27.43ZM30.47 26.66H28.95V23.61H30.47V26.66Z" fill="currentColor"/>
<path d="M25.9 9.90503H24.38V11.425H25.9V9.90503Z" fill="currentColor"/>
<path d="M24.38 8.38501H21.33V9.90501H24.38V8.38501Z" fill="currentColor"/>
<path d="M15.24 8.38501H12.19V9.90501H15.24V8.38501Z" fill="currentColor"/>
<path d="M7.62 6.85501V8.38501H6.09V9.90501H9.14V6.85501H7.62Z" fill="currentColor"/>
<path d="M15.24 6.85502V8.38502H18.28V16.005H19.81V5.33502H18.28V6.85502H15.24Z" fill="currentColor"/>
<path d="M12.19 5.33502H9.14001V6.85502H12.19V5.33502Z" fill="currentColor"/>
<path d="M18.28 3.815H15.24V5.335H18.28V3.815Z" fill="currentColor"/>
<path d="M13.71 5.335V3.815H15.24V2.285H12.19V5.335H13.71Z" fill="currentColor"/>
<path d="M6.09001 3.815H3.04001V5.335H6.09001V3.815Z" fill="currentColor"/>
<path d="M9.14 2.285H6.09V3.815H9.14V2.285Z" fill="currentColor"/>
<path d="M12.19 0.765015H9.14001V2.28501H12.19V0.765015Z" fill="currentColor"/>
</g>
<defs>
<clipPath id="clip0_1135_3286">
<rect width="32" height="32" fill="white"/>
</clipPath>
</defs>
</svg>
