<svg width="32" height="32" viewBox="0 0 32 32" fill="none" xmlns="http://www.w3.org/2000/svg">
<g clip-path="url(#clip0_1128_19829)">
<path d="M32 9.14001H30.47V22.86H32V9.14001Z" fill="currentColor"/>
<path d="M30.4699 22.86H28.95V24.38H30.4699V22.86Z" fill="currentColor"/>
<path d="M30.4699 7.62H28.95V9.14H30.4699V7.62Z" fill="currentColor"/>
<path d="M28.95 24.38H27.42V25.9H28.95V24.38Z" fill="currentColor"/>
<path d="M28.95 6.09H27.42V7.62H28.95V6.09Z" fill="currentColor"/>
<path d="M27.42 7.62H4.57004V9.14H3.04004V22.86H4.57004V24.38H27.42V22.86H28.95V9.14H27.42V7.62ZM19.81 16.76H18.28V18.29H16.76V19.81H13.71V21.33H12.19V10.67H13.71V12.19H16.76V13.71H18.28V15.24H19.81V16.76Z" fill="currentColor"/>
<path d="M27.4199 25.9H4.56995V27.43H27.4199V25.9Z" fill="currentColor"/>
<path d="M27.4199 4.57001H4.56995V6.09001H27.4199V4.57001Z" fill="currentColor"/>
<path d="M4.57004 24.38H3.04004V25.9H4.57004V24.38Z" fill="currentColor"/>
<path d="M4.57004 6.09H3.04004V7.62H4.57004V6.09Z" fill="currentColor"/>
<path d="M3.04002 22.86H1.52002V24.38H3.04002V22.86Z" fill="currentColor"/>
<path d="M3.04002 7.62H1.52002V9.14H3.04002V7.62Z" fill="currentColor"/>
<path d="M1.52 9.14001H0V22.86H1.52V9.14001Z" fill="currentColor"/>
</g>
<defs>
<clipPath id="clip0_1128_19829">
<rect width="32" height="32" fill="white"/>
</clipPath>
</defs>
</svg>
