<svg width="32" height="32" viewBox="0 0 32 32" fill="none" xmlns="http://www.w3.org/2000/svg">
<path d="M27.43 9.89998V8.37999H25.9V9.89998H24.38V11.43H28.95V14.47H24.38V16H19.81V17.52H15.24V19.05H10.67V20.57H6.08999V22.09H3.04999V19.05H6.08999V17.52H3.04999V16H1.51999V31.24H6.08999V29.71H3.04999V26.67H6.08999V25.14H10.67V23.62H15.24V22.09H19.81V20.57H24.38V19.05H28.95V20.57H27.43V22.09H30.48V6.85999H28.95V9.89998H27.43Z" fill="currentColor"/>
<path d="M28.95 5.33002H25.9V6.86002H28.95V5.33002Z" fill="currentColor"/>
<path d="M27.43 22.09H24.38V23.62H27.43V22.09Z" fill="currentColor"/>
<path d="M25.9 6.85999H22.86V8.37999H25.9V6.85999Z" fill="currentColor"/>
<path d="M25.9 3.81H22.86V5.33H25.9V3.81Z" fill="currentColor"/>
<path d="M24.38 23.62H19.81V25.14H24.38V23.62Z" fill="currentColor"/>
<path d="M24.38 11.43H19.81V12.95H24.38V11.43Z" fill="currentColor"/>
<path d="M22.86 5.33002H19.81V6.86002H22.86V5.33002Z" fill="currentColor"/>
<path d="M22.86 2.28003H19.81V3.81003H22.86V2.28003Z" fill="currentColor"/>
<path d="M19.81 3.81H16.76V5.33H19.81V3.81Z" fill="currentColor"/>
<path d="M19.81 0.76001H16.76V2.28001H19.81V0.76001Z" fill="currentColor"/>
<path d="M19.81 25.14H15.24V26.67H19.81V25.14Z" fill="currentColor"/>
<path d="M19.81 12.95H15.24V14.47H19.81V12.95Z" fill="currentColor"/>
<path d="M16.76 2.28003H15.24V3.81003H16.76V2.28003Z" fill="currentColor"/>
<path d="M15.24 26.67H10.67V28.19H15.24V26.67Z" fill="currentColor"/>
<path d="M15.24 14.47H10.67V16H15.24V14.47Z" fill="currentColor"/>
<path d="M10.67 3.81003V5.33003H9.13998V9.90003H10.67V11.43H15.24V9.90003H16.76V5.33003H15.24V3.81003H13.71V2.28003H12.19V3.81003H10.67ZM13.71 5.33003V6.86003H15.24V8.38003H13.71V6.86003H12.19V5.33003H13.71Z" fill="currentColor"/>
<path d="M12.19 0.76001H9.13998V2.28001H12.19V0.76001Z" fill="currentColor"/>
<path d="M10.67 28.19H6.09V29.71H10.67V28.19Z" fill="currentColor"/>
<path d="M10.67 16H6.09V17.52H10.67V16Z" fill="currentColor"/>
<path d="M9.14 9.90002H7.62V11.43H9.14V9.90002Z" fill="currentColor"/>
<path d="M7.62 11.43H6.09V12.95H7.62V11.43Z" fill="currentColor"/>
<path d="M6.08998 12.95H4.56998V14.47H6.08998V12.95Z" fill="currentColor"/>
<path d="M4.56999 14.47H3.04999V16H4.56999V14.47Z" fill="currentColor"/>
</svg>
