<svg width="32" height="32" viewBox="0 0 32 32" fill="none" xmlns="http://www.w3.org/2000/svg">
<path d="M30.475 4.575H28.955V15.235H30.475V4.575Z" fill="currentColor"/>
<path d="M28.955 15.235H27.425V16.765H28.955V15.235Z" fill="currentColor"/>
<path d="M28.955 3.045H27.425V4.575H28.955V3.045Z" fill="currentColor"/>
<path d="M27.425 16.765H25.905V18.285H27.425V16.765Z" fill="currentColor"/>
<path d="M27.425 7.61499H25.905V12.185H27.425V7.61499Z" fill="currentColor"/>
<path d="M27.425 1.52499H25.905V3.04499H27.425V1.52499Z" fill="currentColor"/>
<path d="M25.905 12.185H24.385V13.715H25.905V12.185Z" fill="currentColor"/>
<path d="M25.905 6.095H24.385V7.615H25.905V6.095Z" fill="currentColor"/>
<path d="M22.855 4.575H21.335V15.235H22.855V4.575Z" fill="currentColor"/>
<path d="M21.335 15.235H19.815V16.765H21.335V15.235Z" fill="currentColor"/>
<path d="M21.335 3.045H19.815V4.575H21.335V3.045Z" fill="currentColor"/>
<path d="M19.815 16.765H13.715V18.285H19.815V16.765Z" fill="currentColor"/>
<path d="M18.285 13.715H19.815V6.095H18.285V4.575H16.765V15.235H18.285V13.715Z" fill="currentColor"/>
<path d="M19.815 1.52499H13.715V3.04499H19.815V1.52499Z" fill="currentColor"/>
<path d="M13.715 15.235H12.195V16.765H13.715V15.235Z" fill="currentColor"/>
<path d="M13.715 3.045H10.665V4.575H13.715V3.045Z" fill="currentColor"/>
<path d="M12.195 13.715H10.665V15.235H12.195V13.715Z" fill="currentColor"/>
<path d="M10.665 12.185H9.145V13.715H10.665V12.185Z" fill="currentColor"/>
<path d="M10.665 4.575H9.145V6.095H10.665V4.575Z" fill="currentColor"/>
<path d="M9.145 13.715H7.615V15.235H9.145V13.715Z" fill="currentColor"/>
<path d="M9.145 6.095H7.615V7.615H9.145V6.095Z" fill="currentColor"/>
<path d="M7.615 15.235H6.095V28.955H7.615V15.235Z" fill="currentColor"/>
<path d="M7.615 7.61499H6.095V9.14499H7.615V7.61499Z" fill="currentColor"/>
<path d="M6.095 9.14499H4.575V10.665H6.095V9.14499Z" fill="currentColor"/>
<path d="M6.095 28.955H3.045V30.475H6.095V28.955Z" fill="currentColor"/>
<path d="M4.575 10.665H3.045V12.185H4.575V10.665Z" fill="currentColor"/>
<path d="M3.045 12.185H1.525V28.955H3.045V12.185Z" fill="currentColor"/>
</svg>
