<svg width="32" height="32" viewBox="0 0 32 32" fill="none" xmlns="http://www.w3.org/2000/svg">
<g clip-path="url(#clip0_1135_2965)">
<path d="M32 24.375H30.48V27.425H32V24.375Z" fill="currentColor"/>
<path d="M32 4.57501H30.48V7.61501H32V4.57501Z" fill="currentColor"/>
<path d="M30.48 7.61499H28.96V24.375H30.48V7.61499Z" fill="currentColor"/>
<path d="M30.4801 3.04498H27.4301V4.57498H30.4801V3.04498Z" fill="currentColor"/>
<path d="M30.4801 27.425H27.4301V28.955H30.4801V27.425Z" fill="currentColor"/>
<path d="M27.43 25.905H4.57996V27.425H27.43V25.905Z" fill="currentColor"/>
<path d="M4.57996 7.61499V24.375H27.43V7.61499H4.57996ZM25.91 19.805H22.86V22.855H21.34V19.805H22.86V18.285H25.91V19.805ZM25.91 10.665H24.39V12.185H25.91V16.765H24.39V12.185H22.86V15.235H21.34V18.285H18.29V19.805H15.24V21.335H19.81V22.855H15.24V21.335H13.72V22.855H6.09996V9.14499H25.91V10.665Z" fill="currentColor"/>
<path d="M21.3401 13.715H19.8101V15.235H21.3401V13.715Z" fill="currentColor"/>
<path d="M19.81 12.185H16.77V13.715H19.81V12.185Z" fill="currentColor"/>
<path d="M18.29 16.765H16.77V18.285H18.29V16.765Z" fill="currentColor"/>
<path d="M16.77 13.715H15.24V16.765H16.77V13.715Z" fill="currentColor"/>
<path d="M15.24 10.665H13.72V12.185H15.24V10.665Z" fill="currentColor"/>
<path d="M13.72 18.285H12.2V19.805H13.72V18.285Z" fill="currentColor"/>
<path d="M12.2 19.805H10.67V21.335H12.2V19.805Z" fill="currentColor"/>
<path d="M12.2 16.765H10.67V18.285H12.2V16.765Z" fill="currentColor"/>
<path d="M12.2 12.185H10.67V13.715H12.2V12.185Z" fill="currentColor"/>
<path d="M10.67 18.285H9.15002V19.805H10.67V18.285Z" fill="currentColor"/>
<path d="M10.67 13.715H9.15002V15.235H10.67V13.715Z" fill="currentColor"/>
<path d="M10.67 10.665H9.15002V12.185H10.67V10.665Z" fill="currentColor"/>
<path d="M9.14999 12.185H7.62V13.715H9.14999V12.185Z" fill="currentColor"/>
<path d="M27.43 4.57501H4.57996V6.09501H27.43V4.57501Z" fill="currentColor"/>
<path d="M4.58003 3.04498H1.53003V4.57498H4.58003V3.04498Z" fill="currentColor"/>
<path d="M4.58003 27.425H1.53003V28.955H4.58003V27.425Z" fill="currentColor"/>
<path d="M3.05003 7.61499H1.53003V24.375H3.05003V7.61499Z" fill="currentColor"/>
<path d="M1.53 24.375H0V27.425H1.53V24.375Z" fill="currentColor"/>
<path d="M1.53 4.57501H0V7.61501H1.53V4.57501Z" fill="currentColor"/>
</g>
<defs>
<clipPath id="clip0_1135_2965">
<rect width="32" height="32" fill="white"/>
</clipPath>
</defs>
</svg>
