<svg width="32" height="32" viewBox="0 0 32 32" fill="none" xmlns="http://www.w3.org/2000/svg">
<g clip-path="url(#clip0_1128_10834)">
<path d="M32 3.04999H30.48V28.95H32V3.04999Z" fill="currentColor"/>
<path d="M30.4799 28.95H28.95V30.48H30.4799V28.95Z" fill="currentColor"/>
<path d="M30.4799 1.51999H28.95V3.04999H30.4799V1.51999Z" fill="currentColor"/>
<path d="M28.9501 25.9H27.4301V27.43H28.9501V25.9Z" fill="currentColor"/>
<path d="M28.9501 4.57001H27.4301V6.09001H28.9501V4.57001Z" fill="currentColor"/>
<path d="M28.9501 30.48H3.05005V32H28.9501V30.48Z" fill="currentColor"/>
<path d="M22.86 6.08999H19.81V4.56999H18.29V3.04999H7.61998V4.56999H15.24V6.08999H7.61998V4.56999H6.09998V9.13999H7.61998V7.61999H18.29V9.13999H19.81V10.67H21.34V12.19H22.86V13.71H12.19V12.19H10.67V24.38H12.19V15.24H22.86V24.38H24.38V7.61999H22.86V6.08999Z" fill="currentColor"/>
<path d="M22.8599 24.38H12.1899V25.9H22.8599V24.38Z" fill="currentColor"/>
<path d="M21.3401 19.81H19.8101V21.33H21.3401V19.81Z" fill="currentColor"/>
<path d="M21.3401 16.76H19.8101V18.28H21.3401V16.76Z" fill="currentColor"/>
<path d="M19.81 21.33H15.24V22.86H19.81V21.33Z" fill="currentColor"/>
<path d="M15.24 19.81H13.72V21.33H15.24V19.81Z" fill="currentColor"/>
<path d="M15.24 16.76H13.72V18.28H15.24V16.76Z" fill="currentColor"/>
<path d="M10.67 10.67H9.15002V12.19H10.67V10.67Z" fill="currentColor"/>
<path d="M9.14999 9.14001H7.62V10.67H9.14999V9.14001Z" fill="currentColor"/>
<path d="M28.9501 0H3.05005V1.52H28.9501V0Z" fill="currentColor"/>
<path d="M4.57005 25.9H3.05005V27.43H4.57005V25.9Z" fill="currentColor"/>
<path d="M4.57005 4.57001H3.05005V6.09001H4.57005V4.57001Z" fill="currentColor"/>
<path d="M3.05003 28.95H1.53003V30.48H3.05003V28.95Z" fill="currentColor"/>
<path d="M3.05003 1.51999H1.53003V3.04999H3.05003V1.51999Z" fill="currentColor"/>
<path d="M1.53 3.04999H0V28.95H1.53V3.04999Z" fill="currentColor"/>
</g>
<defs>
<clipPath id="clip0_1128_10834">
<rect width="32" height="32" fill="white"/>
</clipPath>
</defs>
</svg>
