<svg width="32" height="32" viewBox="0 0 32 32" fill="none" xmlns="http://www.w3.org/2000/svg">
<g clip-path="url(#clip0_1128_6003)">
<path d="M27.43 6.10001H25.91V25.91H27.43V24.38H32V22.86H27.43V19.81H32V18.29H27.43V13.72H32V12.19H27.43V9.15001H32V7.62001H27.43V6.10001Z" fill="currentColor"/>
<path d="M6.10001 25.91V27.43H7.62001V32H9.14001V27.43H12.19V32H13.72V27.43H18.29V32H19.81V27.43H22.86V32H24.38V27.43H25.91V25.91H6.10001Z" fill="currentColor"/>
<path d="M22.86 7.62H9.14V9.14999H7.62V22.86H9.14V21.34H12.19V19.81H15.24V18.29H16.76V16.77H18.29V15.24H19.81V13.72H21.33V10.67H22.86V22.86H24.38V9.14999H22.86V7.62ZM13.72 15.24H10.67V13.72H13.72V15.24ZM18.29 12.19H10.67V10.67H18.29V12.19Z" fill="currentColor"/>
<path d="M22.86 22.86H9.14001V24.38H22.86V22.86Z" fill="currentColor"/>
<path d="M21.33 19.81H19.81V21.34H21.33V19.81Z" fill="currentColor"/>
<path d="M18.29 19.81H16.76V21.34H18.29V19.81Z" fill="currentColor"/>
<path d="M25.91 6.1V4.58H24.38V0H22.86V4.58H19.81V0H18.29V4.58H13.72V0H12.19V4.58H9.14001V0H7.62001V4.58H6.10001V6.1H25.91Z" fill="currentColor"/>
<path d="M6.1 6.10001H4.57V7.62001H0V9.15001H4.57V12.19H0V13.72H4.57V18.29H0V19.81H4.57V22.86H0V24.38H4.57V25.91H6.1V6.10001Z" fill="currentColor"/>
</g>
<defs>
<clipPath id="clip0_1128_6003">
<rect width="32" height="32" fill="white"/>
</clipPath>
</defs>
</svg>
