<svg width="32" height="32" viewBox="0 0 32 32" fill="none" xmlns="http://www.w3.org/2000/svg">
<g clip-path="url(#clip0_1128_3922)">
<path d="M32 10.66H30.48V28.95H32V10.66Z" fill="currentColor"/>
<path d="M30.48 28.95H28.96V30.4699H30.48V28.95Z" fill="currentColor"/>
<path d="M30.48 9.14001H28.96V10.66H30.48V9.14001Z" fill="currentColor"/>
<path d="M28.96 30.47H9.15V32H28.96V30.47Z" fill="currentColor"/>
<path d="M32 4.57002V3.04002H27.43V1.52002H25.91V3.04002H13.72V1.52002H12.19V3.04002H4.58V1.52002H3.05V32H4.58V4.57002H12.19V7.62002H9.15V9.14002H28.96V7.62002H27.43V4.57002H32ZM25.91 7.62002H13.72V4.57002H25.91V7.62002Z" fill="currentColor"/>
<path d="M12.19 27.43H18.29V22.85H19.81V27.43H25.91V21.33H27.43V18.28H25.91V16.76H24.39V15.24H22.86V13.71H21.34V12.19H19.81V10.66H18.29V12.19H16.77V13.71H15.24V15.24H13.72V16.76H12.19V18.28H10.67V21.33H12.19V27.43ZM13.72 19.81H15.24V18.28H16.77V16.76H18.29V15.24H19.81V16.76H21.34V18.28H22.86V19.81H24.39V25.9H21.34V21.33H16.77V25.9H13.72V19.81Z" fill="currentColor"/>
<path d="M9.15 28.95H7.62V30.4699H9.15V28.95Z" fill="currentColor"/>
<path d="M9.15 9.14001H7.62V10.66H9.15V9.14001Z" fill="currentColor"/>
<path d="M7.62 10.66H6.1V28.95H7.62V10.66Z" fill="currentColor"/>
<path d="M3.05 0H1.53V1.52H3.05V0Z" fill="currentColor"/>
<path d="M1.53 1.52002H0V32H1.53V1.52002Z" fill="currentColor"/>
</g>
<defs>
<clipPath id="clip0_1128_3922">
<rect width="32" height="32" fill="white"/>
</clipPath>
</defs>
</svg>
