<svg width="32" height="32" viewBox="0 0 32 32" fill="none" xmlns="http://www.w3.org/2000/svg">
<g clip-path="url(#clip0_1128_13286)">
<path d="M32 16.76H30.48V28.95H32V16.76Z" fill="currentColor"/>
<path d="M30.4799 28.95H28.95V30.48H30.4799V28.95Z" fill="currentColor"/>
<path d="M28.95 15.24V3.05H27.43V1.52H25.91V0H18.29V1.52H16.76V3.05H15.24V15.24H13.72V16.76H30.48V15.24H28.95ZM25.91 15.24H18.29V4.57H19.81V3.05H24.38V4.57H25.91V15.24Z" fill="currentColor"/>
<path d="M28.95 30.48H15.24V32H28.95V30.48Z" fill="currentColor"/>
<path d="M25.91 22.86H24.38V24.38H25.91V22.86Z" fill="currentColor"/>
<path d="M25.91 19.81H24.38V21.33H25.91V19.81Z" fill="currentColor"/>
<path d="M24.3801 24.38H19.8101V25.9H24.3801V24.38Z" fill="currentColor"/>
<path d="M19.81 22.86H18.29V24.38H19.81V22.86Z" fill="currentColor"/>
<path d="M19.81 19.81H18.29V21.33H19.81V19.81Z" fill="currentColor"/>
<path d="M15.24 28.95H13.72V30.48H15.24V28.95Z" fill="currentColor"/>
<path d="M13.7199 16.76H12.1899V21.33H13.7199V16.76Z" fill="currentColor"/>
<path d="M12.19 22.86H10.67V28.95H12.19V22.86Z" fill="currentColor"/>
<path d="M10.67 28.95H9.15002V30.48H10.67V28.95Z" fill="currentColor"/>
<path d="M10.67 21.33H9.15002V22.86H10.67V21.33Z" fill="currentColor"/>
<path d="M9.14999 6.09H7.62V21.33H9.14999V6.09Z" fill="currentColor"/>
<path d="M9.15005 30.48H3.05005V32H9.15005V30.48Z" fill="currentColor"/>
<path d="M7.62005 22.86H4.57005V24.38H3.05005V27.43H4.57005V28.95H7.62005V27.43H9.15005V24.38H7.62005V22.86Z" fill="currentColor"/>
<path d="M7.61995 4.57001H4.56995V6.09001H7.61995V4.57001Z" fill="currentColor"/>
<path d="M4.57 16.76H1.53V15.24H4.57V10.67H1.53V9.14H4.57V6.09H3.05V7.62H0V12.19H3.05V13.71H0V18.28H3.05V21.33H4.57V16.76Z" fill="currentColor"/>
<path d="M3.05003 28.95H1.53003V30.48H3.05003V28.95Z" fill="currentColor"/>
<path d="M3.05003 21.33H1.53003V22.86H3.05003V21.33Z" fill="currentColor"/>
<path d="M1.53 22.86H0V28.95H1.53V22.86Z" fill="currentColor"/>
</g>
<defs>
<clipPath id="clip0_1128_13286">
<rect width="32" height="32" fill="white"/>
</clipPath>
</defs>
</svg>
