<svg width="32" height="32" viewBox="0 0 32 32" fill="none" xmlns="http://www.w3.org/2000/svg">
<g clip-path="url(#clip0_1135_4273)">
<path d="M30.4701 12.19H28.9501V15.24H27.4301V16.76H28.9501V19.81H30.4701V16.76H32.0001V15.24H30.4701V12.19Z" fill="currentColor"/>
<path d="M28.9501 19.81H27.4301V22.86H28.9501V19.81Z" fill="currentColor"/>
<path d="M28.9501 9.14001H27.4301V12.19H28.9501V9.14001Z" fill="currentColor"/>
<path d="M27.43 22.86H25.9V25.9H27.43V22.86Z" fill="currentColor"/>
<path d="M27.43 6.09003H25.9V9.14003H27.43V6.09003Z" fill="currentColor"/>
<path d="M24.38 24.38H22.85V27.43H25.9V25.9H24.38V24.38Z" fill="currentColor"/>
<path d="M25.9 4.57001H22.85V6.09001H25.9V4.57001Z" fill="currentColor"/>
<path d="M22.8501 27.43H19.8101V28.95H22.8501V27.43Z" fill="currentColor"/>
<path d="M22.8501 22.86H19.8101V24.38H22.8501V22.86Z" fill="currentColor"/>
<path d="M21.3301 19.81H19.8101V21.33H21.3301V19.81Z" fill="currentColor"/>
<path d="M22.8501 3.04999H19.8101V4.56999H22.8501V3.04999Z" fill="currentColor"/>
<path d="M19.81 13.71H18.28V16.76H19.81V13.71Z" fill="currentColor"/>
<path d="M16.7599 27.43H15.2299V28.95H12.1899V30.48H15.2299V32H16.7599V30.48H19.8099V28.95H16.7599V27.43Z" fill="currentColor"/>
<path d="M19.8099 21.33H12.1899V22.86H19.8099V21.33Z" fill="currentColor"/>
<path d="M18.28 18.28H13.71V19.81H18.28V18.28Z" fill="currentColor"/>
<path d="M15.2299 4.57H16.7599V3.05H19.8099V1.52H16.7599V0H15.2299V1.52H12.1899V3.05H15.2299V4.57Z" fill="currentColor"/>
<path d="M13.7099 13.71H12.1899V16.76H13.7099V13.71Z" fill="currentColor"/>
<path d="M12.19 27.43H9.14001V28.95H12.19V27.43Z" fill="currentColor"/>
<path d="M12.19 22.86H9.14001V24.38H12.19V22.86Z" fill="currentColor"/>
<path d="M12.19 19.81H10.66V21.33H12.19V19.81Z" fill="currentColor"/>
<path d="M12.19 3.04999H9.14001V4.56999H12.19V3.04999Z" fill="currentColor"/>
<path d="M10.66 12.19H12.19V10.67H19.81V12.19H21.33V19.81H22.85V9.14003H21.33V7.62003H19.81V6.09003H12.19V7.62003H10.66V9.14003H9.14001V19.81H10.66V12.19Z" fill="currentColor"/>
<path d="M7.61997 24.38V25.9H6.08997V27.43H9.13997V24.38H7.61997Z" fill="currentColor"/>
<path d="M9.13997 4.57001H6.08997V6.09001H9.13997V4.57001Z" fill="currentColor"/>
<path d="M6.08995 22.86H4.56995V25.9H6.08995V22.86Z" fill="currentColor"/>
<path d="M6.08995 6.09003H4.56995V9.14003H6.08995V6.09003Z" fill="currentColor"/>
<path d="M4.57004 19.81H3.04004V22.86H4.57004V19.81Z" fill="currentColor"/>
<path d="M4.57004 9.14001H3.04004V12.19H4.57004V9.14001Z" fill="currentColor"/>
<path d="M4.57 16.76V15.24H3.04V12.19H1.52V15.24H0V16.76H1.52V19.81H3.04V16.76H4.57Z" fill="currentColor"/>
</g>
<defs>
<clipPath id="clip0_1135_4273">
<rect width="32" height="32" fill="white"/>
</clipPath>
</defs>
</svg>
