<svg width="32" height="32" viewBox="0 0 32 32" fill="none" xmlns="http://www.w3.org/2000/svg">
<g clip-path="url(#clip0_1128_12954)">
<path d="M2.28501 12.19H0.765015V19.81H2.28501V12.19Z" fill="currentColor"/>
<path d="M3.81503 19.81H2.28503V22.86H3.81503V19.81Z" fill="currentColor"/>
<path d="M3.81503 9.14H2.28503V12.19H3.81503V9.14Z" fill="currentColor"/>
<path d="M5.33506 22.86H3.81506V25.9H5.33506V22.86Z" fill="currentColor"/>
<path d="M5.33506 6.09H3.81506V9.14H5.33506V6.09Z" fill="currentColor"/>
<path d="M8.38496 25.9H5.33496V27.43H8.38496V25.9Z" fill="currentColor"/>
<path d="M8.38496 4.57001H5.33496V6.09001H8.38496V4.57001Z" fill="currentColor"/>
<path d="M11.425 27.43H8.38501V28.95H11.425V27.43Z" fill="currentColor"/>
<path d="M11.425 3.05H8.38501V4.57H11.425V3.05Z" fill="currentColor"/>
<path d="M12.955 22.86H11.425V24.38H12.955V22.86Z" fill="currentColor"/>
<path d="M12.955 18.29H11.425V19.81H12.955V18.29Z" fill="currentColor"/>
<path d="M14.475 16.76V12.19H11.425V10.67H14.475V9.14H9.90503V13.71H12.955V15.24H9.90503V16.76H14.475Z" fill="currentColor"/>
<path d="M14.475 21.33H12.955V22.86H14.475V21.33Z" fill="currentColor"/>
<path d="M16.005 19.81H14.475V21.33H16.005V19.81Z" fill="currentColor"/>
<path d="M17.525 22.86H16.005V24.38H17.525V22.86Z" fill="currentColor"/>
<path d="M17.525 18.29H16.005V19.81H17.525V18.29Z" fill="currentColor"/>
<path d="M20.575 16.76V9.14H16.005V16.76H20.575ZM17.525 10.67H19.045V15.24H17.525V10.67Z" fill="currentColor"/>
<path d="M14.475 30.48V32H19.045V30.48H22.095V28.95H25.145V27.43H26.665V25.9H28.195V22.86H29.715V19.81H31.2351V12.19H29.715V9.14H28.195V6.09H26.665V4.57H25.145V3.05H22.095V1.52H19.045V0H14.475V1.52H11.425V3.05H14.475V4.57H17.525V6.09H20.575V7.62H23.625V10.67H25.145V13.71H26.665V18.29H25.145V21.33H23.625V24.38H20.575V25.9H17.525V27.43H14.475V28.95H11.425V30.48H14.475Z" fill="currentColor"/>
</g>
<defs>
<clipPath id="clip0_1128_12954">
<rect width="32" height="32" fill="white"/>
</clipPath>
</defs>
</svg>
