<svg width="32" height="32" viewBox="0 0 32 32" fill="none" xmlns="http://www.w3.org/2000/svg">
<path d="M27.425 29.72H28.955V5.33004H27.425V3.81004H21.335V2.29004H18.285V3.81004H19.805V5.33004H12.2V3.81004H13.72V2.29004H10.67V3.81004H4.57501V5.33004H3.04501V29.72H4.57501V31.24H27.425V29.72ZM25.905 28.19H6.10001V5.33004H10.67V6.86004H21.34V5.33004H25.91L25.905 28.19Z" fill="currentColor"/>
<path d="M22.855 25.14H12.195V26.67H22.855V25.14Z" fill="currentColor"/>
<path d="M22.855 20.5701H12.195V22.1001H22.855V20.5701Z" fill="currentColor"/>
<path d="M22.855 11.4301H16.765V12.9501H22.855V11.4301Z" fill="currentColor"/>
<path d="M18.285 0.76001H13.715V2.29001H18.285V0.76001Z" fill="currentColor"/>
<path d="M22.855 16H12.195V17.53H22.855V16Z" fill="currentColor"/>
<path d="M10.665 25.14H9.14502V26.67H10.665V25.14Z" fill="currentColor"/>
<path d="M10.665 20.5701H9.14502V22.1001H10.665V20.5701Z" fill="currentColor"/>
<path d="M10.665 16H9.14502V17.53H10.665V16Z" fill="currentColor"/>
<path d="M9.14502 14.48H12.195V12.95H13.715V9.91H12.195V8.38H9.14502V9.91H7.61502V12.95H9.14502V14.48Z" fill="currentColor"/>
</svg>
