<svg width="32" height="32" viewBox="0 0 32 32" fill="none" xmlns="http://www.w3.org/2000/svg">
<g clip-path="url(#clip0_1128_9781)">
<path d="M30.475 1.53003H28.955V6.10003H30.475V1.53003Z" fill="currentColor"/>
<path d="M25.905 1.53H28.955V0H3.04498V1.53H6.09998V6.1H3.04498V30.48H4.57498V7.62H27.425V30.48H28.955V6.1H25.905V1.53ZM10.665 6.1H7.61498V1.53H10.665V6.1ZM15.235 6.1H12.2V1.53H15.24L15.235 6.1ZM19.805 6.1H16.765V1.53H19.805V6.1ZM24.385 6.1H21.335V1.53H24.385V6.1Z" fill="currentColor"/>
<path d="M27.425 30.48H4.57498V32H27.425V30.48Z" fill="currentColor"/>
<path d="M25.905 15.24H24.385V16.77H25.905V15.24Z" fill="currentColor"/>
<path d="M24.385 22.86H22.855V19.81H21.335V18.29H18.285V16.77H16.765V15.24H15.235V13.72H13.715V15.24H12.2V18.29H13.72V19.81H16.77V21.34H13.72V19.81H12.2V18.29H10.67V19.81H9.14501V22.86H7.61501V24.38H6.10001V27.43H7.62001V28.96H24.39V27.43H25.91V24.38H24.39L24.385 22.86ZM22.855 25.91H9.14501V24.38H22.855V25.91Z" fill="currentColor"/>
<path d="M24.385 16.77H22.855V18.29H24.385V16.77Z" fill="currentColor"/>
<path d="M22.855 15.24H21.335V16.77H22.855V15.24Z" fill="currentColor"/>
<path d="M22.855 9.15002H21.335V10.67H22.855V9.15002Z" fill="currentColor"/>
<path d="M13.715 10.67H12.195V12.19H13.715V10.67Z" fill="currentColor"/>
<path d="M12.195 12.1899H10.665V13.7199H12.195V12.1899Z" fill="currentColor"/>
<path d="M10.665 10.67H9.14499V12.19H10.665V10.67Z" fill="currentColor"/>
<path d="M7.615 15.24H6.095V16.77H7.615V15.24Z" fill="currentColor"/>
<path d="M3.04499 1.53003H1.52499V6.10003H3.04499V1.53003Z" fill="currentColor"/>
</g>
<defs>
<clipPath id="clip0_1128_9781">
<rect width="32" height="32" fill="white"/>
</clipPath>
</defs>
</svg>
