<svg width="32" height="32" viewBox="0 0 32 32" fill="none" xmlns="http://www.w3.org/2000/svg">
<g clip-path="url(#clip0_1128_12193)">
<path d="M31.235 8.38H29.715V11.43H31.235V8.38Z" fill="currentColor"/>
<path d="M29.7151 6.86H28.1951V8.38H29.7151V6.86Z" fill="currentColor"/>
<path d="M29.715 11.43H26.665V12.95H29.715V11.43Z" fill="currentColor"/>
<path d="M28.195 5.33H26.665V6.86H28.195V5.33Z" fill="currentColor"/>
<path d="M26.665 9.9H25.145V11.43H26.665V9.9Z" fill="currentColor"/>
<path d="M26.665 3.81H25.145V5.33H26.665V3.81Z" fill="currentColor"/>
<path d="M25.145 11.43H23.615V12.95H25.145V11.43Z" fill="currentColor"/>
<path d="M25.145 8.38H23.615V9.9H25.145V8.38Z" fill="currentColor"/>
<path d="M25.145 2.28H23.615V3.81H25.145V2.28Z" fill="currentColor"/>
<path d="M23.615 17.52H22.095V22.09H23.615V17.52Z" fill="currentColor"/>
<path d="M23.615 12.95H22.095V14.47H23.615V12.95Z" fill="currentColor"/>
<path d="M23.615 6.86H22.095V8.38H23.615V6.86Z" fill="currentColor"/>
<path d="M23.6151 0.76H20.5751V2.28H23.6151V0.76Z" fill="currentColor"/>
<path d="M22.0951 22.09H20.5751V25.14H22.0951V22.09Z" fill="currentColor"/>
<path d="M22.0951 14.47H20.5751V17.52H22.0951V14.47Z" fill="currentColor"/>
<path d="M22.0951 5.33H20.5751V6.86H22.0951V5.33Z" fill="currentColor"/>
<path d="M20.575 25.14H19.045V26.66H20.575V25.14Z" fill="currentColor"/>
<path d="M20.575 6.86H19.045V8.38H20.575V6.86Z" fill="currentColor"/>
<path d="M20.575 2.28H19.045V5.33H20.575V2.28Z" fill="currentColor"/>
<path d="M19.045 16H17.525V17.52H19.045V16Z" fill="currentColor"/>
<path d="M19.045 8.38H17.525V9.9H19.045V8.38Z" fill="currentColor"/>
<path d="M19.045 26.66H16.005V28.19H19.045V26.66Z" fill="currentColor"/>
<path d="M17.525 14.47H16.005V16H17.525V14.47Z" fill="currentColor"/>
<path d="M16.005 25.14H14.475V26.66H16.005V25.14Z" fill="currentColor"/>
<path d="M16.005 12.95H14.475V14.47H16.005V12.95Z" fill="currentColor"/>
<path d="M17.525 9.9H14.475V11.43H17.525V9.9Z" fill="currentColor"/>
<path d="M14.475 23.62H12.955V25.14H14.475V23.62Z" fill="currentColor"/>
<path d="M3.81501 29.71H5.33501V28.19H6.85501V26.66H8.38502V25.14H9.90501V23.62H12.955V22.09H11.425V20.57H9.90501V19.05H8.38502V22.09H6.85501V23.62H5.33501V25.14H3.81501V26.66H2.28501V28.19H0.765015V31.24H3.81501V29.71Z" fill="currentColor"/>
<path d="M14.475 8.38H9.90503V9.9H14.475V8.38Z" fill="currentColor"/>
<path d="M9.90498 9.9H6.85498V11.43H9.90498V9.9Z" fill="currentColor"/>
<path d="M8.38498 17.52H6.85498V19.05H8.38498V17.52Z" fill="currentColor"/>
<path d="M6.85496 16H5.33496V17.52H6.85496V16Z" fill="currentColor"/>
<path d="M6.85496 11.43H5.33496V12.95H6.85496V11.43Z" fill="currentColor"/>
<path d="M5.33506 12.95H3.81506V16H5.33506V12.95Z" fill="currentColor"/>
</g>
<defs>
<clipPath id="clip0_1128_12193">
<rect width="32" height="32" fill="white"/>
</clipPath>
</defs>
</svg>
