<svg width="32" height="32" viewBox="0 0 32 32" fill="none" xmlns="http://www.w3.org/2000/svg">
<g clip-path="url(#clip0_1128_13599)">
<path d="M27.4301 16.76H28.9501V30.47H30.4701V16.76H32.0001V15.24H27.4301V16.76Z" fill="currentColor"/>
<path d="M30.4699 1.51999H28.95V6.08999H30.4699V1.51999Z" fill="currentColor"/>
<path d="M30.4699 9.14001H28.95V13.71H30.4699V9.14001Z" fill="currentColor"/>
<path d="M28.9501 30.47H3.05005V32H28.9501V30.47Z" fill="currentColor"/>
<path d="M28.95 0H24.38V1.52H28.95V0Z" fill="currentColor"/>
<path d="M25.9 15.24H22.85V16.76H25.9V15.24Z" fill="currentColor"/>
<path d="M21.33 19.81V9.14001H10.66V10.66H12.19V12.19H13.71V13.71H12.19V15.24H10.66V19.81H12.19V22.85H13.71V24.38H19.81V22.85H16.76V21.33H15.24V18.28H16.76V16.76H18.28V18.28H19.81V19.81H21.33Z" fill="currentColor"/>
<path d="M21.33 0H16.76V1.52H21.33V0Z" fill="currentColor"/>
<path d="M15.24 0H10.66V1.52H15.24V0Z" fill="currentColor"/>
<path d="M9.13997 15.24H6.08997V16.76H9.13997V15.24Z" fill="currentColor"/>
<path d="M7.62005 0H3.05005V1.52H7.62005V0Z" fill="currentColor"/>
<path d="M3.05002 1.51999H1.52002V6.08999H3.05002V1.51999Z" fill="currentColor"/>
<path d="M3.05002 9.14001H1.52002V13.71H3.05002V9.14001Z" fill="currentColor"/>
<path d="M4.57 16.76V15.24H0V16.76H1.52V30.47H3.05V16.76H4.57Z" fill="currentColor"/>
</g>
<defs>
<clipPath id="clip0_1128_13599">
<rect width="32" height="32" fill="white"/>
</clipPath>
</defs>
</svg>
