<svg width="32" height="32" viewBox="0 0 32 32" fill="none" xmlns="http://www.w3.org/2000/svg">
<path d="M28.9501 4.57H27.4301V21.33H28.9501V4.57Z" fill="currentColor"/>
<path d="M27.43 21.33H25.9V24.38H27.43V21.33Z" fill="currentColor"/>
<path d="M25.9 24.38H24.38V25.9H25.9V24.38Z" fill="currentColor"/>
<path d="M10.6601 4.57H7.62009V6.1H6.09009V21.33H7.62009V15.24H15.2401V27.43H13.7101V28.95H18.2801V27.43H21.3301V25.9H22.8501V24.38H24.3801V21.33H25.9001V6.1H24.3801V15.24H16.7601V4.57H21.3301V3.05H10.6601V4.57Z" fill="currentColor"/>
<path d="M27.43 3.05H24.38V4.57H27.43V3.05Z" fill="currentColor"/>
<path d="M24.3801 25.9H22.8501V27.43H24.3801V25.9Z" fill="currentColor"/>
<path d="M22.8501 27.43H21.3301V28.95H22.8501V27.43Z" fill="currentColor"/>
<path d="M24.3801 4.57H21.3301V6.1H24.3801V4.57Z" fill="currentColor"/>
<path d="M24.3801 1.52H21.3301V3.05H24.3801V1.52Z" fill="currentColor"/>
<path d="M21.33 28.95H18.28V30.48H21.33V28.95Z" fill="currentColor"/>
<path d="M18.28 30.48H13.71V32H18.28V30.48Z" fill="currentColor"/>
<path d="M13.7102 28.95H10.6602V30.48H13.7102V28.95Z" fill="currentColor"/>
<path d="M13.7102 25.9H10.6602V27.43H13.7102V25.9Z" fill="currentColor"/>
<path d="M21.3302 0H10.6602V1.52H21.3302V0Z" fill="currentColor"/>
<path d="M10.6601 27.43H9.14014V28.95H10.6601V27.43Z" fill="currentColor"/>
<path d="M10.6601 24.38H9.14014V25.9H10.6601V24.38Z" fill="currentColor"/>
<path d="M10.6601 1.52H7.62012V3.05H10.6601V1.52Z" fill="currentColor"/>
<path d="M9.14012 25.9H7.62012V27.43H9.14012V25.9Z" fill="currentColor"/>
<path d="M9.14012 21.33H7.62012V24.38H9.14012V21.33Z" fill="currentColor"/>
<path d="M7.62009 24.38H6.09009V25.9H7.62009V24.38Z" fill="currentColor"/>
<path d="M7.62007 3.05H4.57007V4.57H7.62007V3.05Z" fill="currentColor"/>
<path d="M6.09007 21.33H4.57007V24.38H6.09007V21.33Z" fill="currentColor"/>
<path d="M4.57005 4.57H3.05005V21.33H4.57005V4.57Z" fill="currentColor"/>
</svg>
