<svg width="32" height="32" viewBox="0 0 32 32" fill="none" xmlns="http://www.w3.org/2000/svg">
<path d="M27.4249 7.60999H25.9049V15.23H27.4249V7.60999Z" fill="currentColor"/>
<path d="M25.905 15.23H24.385V19.8H25.905V15.23Z" fill="currentColor"/>
<path d="M25.905 4.57001H24.385V7.61001H25.905V4.57001Z" fill="currentColor"/>
<path d="M24.385 19.8H22.855V22.85H24.385V19.8Z" fill="currentColor"/>
<path d="M24.385 3.03998H22.855V4.56998H24.385V3.03998Z" fill="currentColor"/>
<path d="M22.855 22.85H21.335V25.9H22.855V22.85Z" fill="currentColor"/>
<path d="M21.3349 12.19H19.8149V9.14001H18.2849V7.61001H16.7649V6.09001H18.2849V4.57001H13.7149V6.09001H12.1949V7.61001H10.6649V9.14001H9.1449V13.71H10.6649V15.23H12.1949V16.76H13.7149V18.28H18.2849V16.76H19.8149V15.23H21.3349V13.71H22.8549V9.14001H21.3349V12.19Z" fill="currentColor"/>
<path d="M21.3349 25.9H19.8149V27.42H21.3349V25.9Z" fill="currentColor"/>
<path d="M21.3349 7.60999H19.8149V9.13999H21.3349V7.60999Z" fill="currentColor"/>
<path d="M22.8549 1.52002H19.8149V3.04002H22.8549V1.52002Z" fill="currentColor"/>
<path d="M19.8149 27.42H18.2849V28.95H19.8149V27.42Z" fill="currentColor"/>
<path d="M19.8149 6.09003H18.2849V7.61003H19.8149V6.09003Z" fill="currentColor"/>
<path d="M18.2849 28.95H16.7649V30.47H18.2849V28.95Z" fill="currentColor"/>
<path d="M16.765 30.47H15.235V32H16.765V30.47Z" fill="currentColor"/>
<path d="M15.235 28.95H13.715V30.47H15.235V28.95Z" fill="currentColor"/>
<path d="M19.8149 0H12.1949V1.52H19.8149V0Z" fill="currentColor"/>
<path d="M13.7149 27.42H12.1949V28.95H13.7149V27.42Z" fill="currentColor"/>
<path d="M12.1949 25.9H10.6649V27.42H12.1949V25.9Z" fill="currentColor"/>
<path d="M12.1949 1.52002H9.1449V3.04002H12.1949V1.52002Z" fill="currentColor"/>
<path d="M10.6649 22.85H9.1449V25.9H10.6649V22.85Z" fill="currentColor"/>
<path d="M9.14499 19.8H7.61499V22.85H9.14499V19.8Z" fill="currentColor"/>
<path d="M9.14499 3.03998H7.61499V4.56998H9.14499V3.03998Z" fill="currentColor"/>
<path d="M7.61497 15.23H6.09497V19.8H7.61497V15.23Z" fill="currentColor"/>
<path d="M7.61497 4.57001H6.09497V7.61001H7.61497V4.57001Z" fill="currentColor"/>
<path d="M6.09495 7.60999H4.57495V15.23H6.09495V7.60999Z" fill="currentColor"/>
</svg>
