<svg width="32" height="32" viewBox="0 0 32 32" fill="none" xmlns="http://www.w3.org/2000/svg">
<g clip-path="url(#clip0_1128_13631)">
<path d="M31.24 8.38H29.71V9.9H31.24V8.38Z" fill="currentColor"/>
<path d="M29.7101 9.90002H28.1901V11.43H29.7101V9.90002Z" fill="currentColor"/>
<path d="M29.7101 6.86002H28.1901V8.38002H29.7101V6.86002Z" fill="currentColor"/>
<path d="M28.19 8.38H26.67V9.9H28.19V8.38Z" fill="currentColor"/>
<path d="M26.67 28.19V26.66H28.19V25.14H26.67V23.62H25.14V25.14H23.62V26.66H25.14V28.19H26.67Z" fill="currentColor"/>
<path d="M26.67 12.95H25.14V16H26.67V12.95Z" fill="currentColor"/>
<path d="M25.14 16H23.62V17.52H25.14V16Z" fill="currentColor"/>
<path d="M25.14 3.81H23.62V5.33H25.14V3.81Z" fill="currentColor"/>
<path d="M23.62 17.52H22.09V19.05H23.62V17.52Z" fill="currentColor"/>
<path d="M23.62 5.33002H22.09V6.86002H23.62V5.33002Z" fill="currentColor"/>
<path d="M22.0901 19.05H20.5701V20.57H22.0901V19.05Z" fill="currentColor"/>
<path d="M22.0901 6.86002H20.5701V8.38002H22.0901V6.86002Z" fill="currentColor"/>
<path d="M20.57 20.57H19.05V22.09H20.57V20.57Z" fill="currentColor"/>
<path d="M20.57 8.38H19.05V9.9H20.57V8.38Z" fill="currentColor"/>
<path d="M19.05 29.71H17.52V31.24H19.05V29.71Z" fill="currentColor"/>
<path d="M19.05 22.09H17.52V23.62H19.05V22.09Z" fill="currentColor"/>
<path d="M17.52 9.90002V11.43H16V12.95H25.14V11.43H19.05V9.90002H17.52Z" fill="currentColor"/>
<path d="M17.52 23.62H16V25.14H17.52V23.62Z" fill="currentColor"/>
<path d="M25.14 2.28001V3.81001H26.67V0.76001H14.48V2.28001H25.14Z" fill="currentColor"/>
<path d="M16 25.14H14.48V26.66H16V25.14Z" fill="currentColor"/>
<path d="M14.48 26.66H12.95V28.19H14.48V26.66Z" fill="currentColor"/>
<path d="M14.48 2.28H12.95V3.81H14.48V2.28Z" fill="currentColor"/>
<path d="M12.9501 28.19H11.4301V29.71H12.9501V28.19Z" fill="currentColor"/>
<path d="M12.9501 16H3.81006V17.52H11.4301V20.57H12.9501V16Z" fill="currentColor"/>
<path d="M12.9501 3.81H11.4301V5.33H12.9501V3.81Z" fill="currentColor"/>
<path d="M11.43 29.71H9.90002V31.24H11.43V29.71Z" fill="currentColor"/>
<path d="M11.43 20.57H9.90002V25.14H11.43V20.57Z" fill="currentColor"/>
<path d="M11.43 5.33002H9.90002V6.86002H11.43V5.33002Z" fill="currentColor"/>
<path d="M9.9 25.14H8.38V29.71H9.9V25.14Z" fill="currentColor"/>
<path d="M9.9 6.86002H8.38V8.38002H9.9V6.86002Z" fill="currentColor"/>
<path d="M8.37999 8.38H6.85999V9.9H8.37999V8.38Z" fill="currentColor"/>
<path d="M6.85996 9.90002H5.32996V11.43H6.85996V9.90002Z" fill="currentColor"/>
<path d="M5.33006 22.09H3.81006V23.62H5.33006V22.09Z" fill="currentColor"/>
<path d="M5.33006 11.43H3.81006V12.95H5.33006V11.43Z" fill="currentColor"/>
<path d="M3.81004 0.76001V2.28001H2.29004V3.81001H3.81004V5.33001H5.33004V3.81001H6.86004V2.28001H5.33004V0.76001H3.81004Z" fill="currentColor"/>
<path d="M3.81004 23.62H2.29004V25.14H3.81004V23.62Z" fill="currentColor"/>
<path d="M3.81004 20.57H2.29004V22.09H3.81004V20.57Z" fill="currentColor"/>
<path d="M3.81004 12.95H2.29004V16H3.81004V12.95Z" fill="currentColor"/>
<path d="M2.29001 22.09H0.76001V23.62H2.29001V22.09Z" fill="currentColor"/>
</g>
<defs>
<clipPath id="clip0_1128_13631">
<rect width="32" height="32" fill="white"/>
</clipPath>
</defs>
</svg>
