<svg width="32" height="32" viewBox="0 0 32 32" fill="none" xmlns="http://www.w3.org/2000/svg">
<path d="M28.955 3.81H25.905V5.33H27.425V26.66H25.905V28.19H28.955V26.66H30.475V5.33H28.955V3.81Z" fill="currentColor"/>
<path d="M25.905 5.33002H24.385V26.66H25.905V5.33002Z" fill="currentColor"/>
<path d="M21.335 8.38H18.285V9.9H19.805V26.66H18.285V28.19H21.335V26.66H22.855V9.9H21.335V8.38Z" fill="currentColor"/>
<path d="M18.285 9.90002H16.765V26.66H18.285V9.90002Z" fill="currentColor"/>
<path d="M13.715 12.95H10.665V14.47H12.195V26.66H10.665V28.19H13.715V26.66H15.235V14.47H13.715V12.95Z" fill="currentColor"/>
<path d="M10.665 14.47H9.14502V26.66H10.665V14.47Z" fill="currentColor"/>
<path d="M6.09504 17.52H3.04504V19.04H4.57504V26.66H3.04504V28.19H6.09504V26.66H7.61504V19.04H6.09504V17.52Z" fill="currentColor"/>
<path d="M3.04502 19.04H1.52502V26.66H3.04502V19.04Z" fill="currentColor"/>
</svg>
