<svg width="32" height="32" viewBox="0 0 32 32" fill="none" xmlns="http://www.w3.org/2000/svg">
<path d="M25.9049 9.14V6.1H30.4749V4.57H25.9049V1.52H24.3849V9.14H25.9049Z" fill="currentColor"/>
<path d="M25.9049 30.48V27.43H30.4749V25.9H25.9049V22.86H24.3849V30.48H25.9049Z" fill="currentColor"/>
<path d="M30.4749 15.24H9.1449V12.19H7.6249V10.67H6.0949V12.19H4.5749V15.24H1.5249V16.76H4.5749V19.81H6.0949V21.33H7.6249V19.81H9.1449V16.76H30.4749V15.24Z" fill="currentColor"/>
<path d="M24.385 30.48H22.855V32H24.385V30.48Z" fill="currentColor"/>
<path d="M24.385 21.33H22.855V22.86H24.385V21.33Z" fill="currentColor"/>
<path d="M24.385 9.14H22.855V10.67H24.385V9.14Z" fill="currentColor"/>
<path d="M24.385 0H22.855V1.52H24.385V0Z" fill="currentColor"/>
<path d="M22.8549 22.86H21.3349V25.9H1.5249V27.43H21.3349V30.48H22.8549V22.86Z" fill="currentColor"/>
<path d="M21.3349 4.57H1.5249V6.1H21.3349V9.14H22.8549V1.52H21.3349V4.57Z" fill="currentColor"/>
</svg>
