<svg width="32" height="32" viewBox="0 0 32 32" fill="none" xmlns="http://www.w3.org/2000/svg">
<g clip-path="url(#clip0_1128_14267)">
<path d="M29.72 23.62H28.19V22.09H26.67V20.57H25.14V17.52H23.62V20.57H22.1V22.09H20.57V23.62H17.53V25.14H20.57V26.66H22.1V28.19H23.62V29.71H25.14V31.24H29.72V29.71H31.24V25.14H29.72V23.62ZM29.72 28.19H28.19V26.66H26.67V25.14H25.14V23.62H26.67V25.14H28.19V26.66H29.72V28.19Z" fill="currentColor"/>
<path d="M26.67 9.90002H25.14V17.52H26.67V9.90002Z" fill="currentColor"/>
<path d="M25.14 6.85004H23.62V9.90004H25.14V6.85004Z" fill="currentColor"/>
<path d="M23.62 5.33002H22.1V6.85002H23.62V5.33002Z" fill="currentColor"/>
<path d="M22.1001 17.52H20.5701V19.04H22.1001V17.52Z" fill="currentColor"/>
<path d="M22.1001 12.95V14.47H20.5701V16H23.6201V11.43H20.5701V12.95H22.1001Z" fill="currentColor"/>
<path d="M22.1001 8.38H20.5701V9.9H22.1001V8.38Z" fill="currentColor"/>
<path d="M22.1001 3.81H20.5701V5.33H22.1001V3.81Z" fill="currentColor"/>
<path d="M20.57 19.04H19.05V20.57H20.57V19.04Z" fill="currentColor"/>
<path d="M20.57 16H19.05V17.52H20.57V16Z" fill="currentColor"/>
<path d="M20.57 9.90002H19.05V11.43H20.57V9.90002Z" fill="currentColor"/>
<path d="M20.57 6.85004H19.05V8.38004H20.57V6.85004Z" fill="currentColor"/>
<path d="M19.05 20.57H17.53V22.09H19.05V20.57Z" fill="currentColor"/>
<path d="M19.05 5.33002H17.53V6.85002H19.05V5.33002Z" fill="currentColor"/>
<path d="M20.57 2.28003H17.53V3.81003H20.57V2.28003Z" fill="currentColor"/>
<path d="M17.53 19.04H16V20.57H17.53V19.04Z" fill="currentColor"/>
<path d="M17.53 11.43H16V16H17.53V11.43Z" fill="currentColor"/>
<path d="M17.53 6.85004H16V8.38004H17.53V6.85004Z" fill="currentColor"/>
<path d="M17.53 25.14H9.91003V26.66H17.53V25.14Z" fill="currentColor"/>
<path d="M14.4801 22.09H12.9501V20.57H11.4301V23.62H16.0001V20.57H14.4801V22.09Z" fill="currentColor"/>
<path d="M16.0001 16H11.4301V17.52H16.0001V16Z" fill="currentColor"/>
<path d="M16.0001 9.90002H11.4301V11.43H16.0001V9.90002Z" fill="currentColor"/>
<path d="M12.9501 5.33H14.4801V6.85H16.0001V3.81H11.4301V6.85H12.9501V5.33Z" fill="currentColor"/>
<path d="M17.53 0.76001H9.91003V2.28001H17.53V0.76001Z" fill="currentColor"/>
<path d="M11.43 19.04H9.91003V20.57H11.43V19.04Z" fill="currentColor"/>
<path d="M11.43 11.43H9.91003V16H11.43V11.43Z" fill="currentColor"/>
<path d="M11.43 6.85004H9.91003V8.38004H11.43V6.85004Z" fill="currentColor"/>
<path d="M9.90999 23.62H6.85999V25.14H9.90999V23.62Z" fill="currentColor"/>
<path d="M9.91 20.57H8.38V22.09H9.91V20.57Z" fill="currentColor"/>
<path d="M9.91 5.33002H8.38V6.85002H9.91V5.33002Z" fill="currentColor"/>
<path d="M9.90999 2.28003H6.85999V3.81003H9.90999V2.28003Z" fill="currentColor"/>
<path d="M8.37999 19.04H6.85999V20.57H8.37999V19.04Z" fill="currentColor"/>
<path d="M8.37999 16H6.85999V17.52H8.37999V16Z" fill="currentColor"/>
<path d="M8.37999 9.90002H6.85999V11.43H8.37999V9.90002Z" fill="currentColor"/>
<path d="M8.37999 6.85004H6.85999V8.38004H8.37999V6.85004Z" fill="currentColor"/>
<path d="M6.85997 22.09H5.33997V23.62H6.85997V22.09Z" fill="currentColor"/>
<path d="M6.85997 17.52H5.33997V19.04H6.85997V17.52Z" fill="currentColor"/>
<path d="M5.34006 14.47V12.95H6.86006V11.43H3.81006V16H6.86006V14.47H5.34006Z" fill="currentColor"/>
<path d="M6.85997 8.38H5.33997V9.9H6.85997V8.38Z" fill="currentColor"/>
<path d="M6.85997 3.81H5.33997V5.33H6.85997V3.81Z" fill="currentColor"/>
<path d="M5.34006 20.57H3.81006V22.09H5.34006V20.57Z" fill="currentColor"/>
<path d="M5.34006 5.33002H3.81006V6.85002H5.34006V5.33002Z" fill="currentColor"/>
<path d="M3.81004 17.52H2.29004V20.57H3.81004V17.52Z" fill="currentColor"/>
<path d="M3.81004 6.85004H2.29004V9.90004H3.81004V6.85004Z" fill="currentColor"/>
<path d="M2.29001 9.90002H0.76001V17.52H2.29001V9.90002Z" fill="currentColor"/>
</g>
<defs>
<clipPath id="clip0_1128_14267">
<rect width="32" height="32" fill="white"/>
</clipPath>
</defs>
</svg>
