<svg width="32" height="32" viewBox="0 0 32 32" fill="none" xmlns="http://www.w3.org/2000/svg">
<g clip-path="url(#clip0_1128_6475)">
<path d="M32.0019 9.14499H30.4719V28.955H32.0019V9.14499Z" fill="currentColor"/>
<path d="M30.4719 28.955H28.9519V30.475H30.4719V28.955Z" fill="currentColor"/>
<path d="M28.952 12.195H27.432V27.425H28.952V12.195Z" fill="currentColor"/>
<path d="M27.432 28.955H25.902V30.475H3.052V31.995H28.952V30.475H27.432V28.955Z" fill="currentColor"/>
<path d="M24.382 28.955H25.902V9.14498H30.472V7.61498H25.902V3.04498H24.382V28.955Z" fill="currentColor"/>
<path d="M22.8619 27.425H6.09192V28.955H22.8619V27.425Z" fill="currentColor"/>
<path d="M22.862 15.235H18.282V19.805H22.862V15.235Z" fill="currentColor"/>
<path d="M16.7619 15.235H12.1919V16.765H16.7619V15.235Z" fill="currentColor"/>
<path d="M16.7619 18.285H12.1919V19.805H16.7619V18.285Z" fill="currentColor"/>
<path d="M22.862 24.385H3.052V25.905H22.862V24.385Z" fill="currentColor"/>
<path d="M22.862 21.335H3.052V22.855H22.862V21.335Z" fill="currentColor"/>
<path d="M10.672 18.285H3.052V19.805H10.672V18.285Z" fill="currentColor"/>
<path d="M10.672 15.235H3.052V16.765H10.672V15.235Z" fill="currentColor"/>
<path d="M22.862 13.715V6.10001H3.052V13.72L22.862 13.715ZM4.572 7.61501H10.672V9.14501H9.142V10.665H7.622V12.2H4.572V7.61501Z" fill="currentColor"/>
<path d="M24.382 1.52499H1.52197V3.04499H24.382V1.52499Z" fill="currentColor"/>
<path d="M3.05197 28.955H1.52197V30.475H3.05197V28.955Z" fill="currentColor"/>
<path d="M1.52195 3.04498H0.00195312V28.955H1.52195V3.04498Z" fill="currentColor"/>
</g>
<defs>
<clipPath id="clip0_1128_6475">
<rect width="32" height="32" fill="white"/>
</clipPath>
</defs>
</svg>
