<svg width="32" height="32" viewBox="0 0 32 32" fill="none" xmlns="http://www.w3.org/2000/svg">
<g clip-path="url(#clip0_1128_14407)">
<path d="M30.47 6.10003H1.52V1.53003H0V30.48H1.52V7.62003H30.47V30.48H32V1.53003H30.47V6.10003Z" fill="currentColor"/>
<path d="M30.47 30.48H1.52002V32H30.47V30.48Z" fill="currentColor"/>
<path d="M24.3801 22.86H22.8601V24.38H24.3801V22.86Z" fill="currentColor"/>
<path d="M22.8601 18.29H24.3801V19.81H22.8601V21.34H25.9001V16.76H22.8601V18.29Z" fill="currentColor"/>
<path d="M24.3801 13.72H22.8601V15.24H24.3801V13.72Z" fill="currentColor"/>
<path d="M22.8601 24.38H21.3301V25.91H22.8601V24.38Z" fill="currentColor"/>
<path d="M22.8601 21.34H21.3301V22.86H22.8601V21.34Z" fill="currentColor"/>
<path d="M22.8601 15.2401H21.3301V16.7601H22.8601V15.2401Z" fill="currentColor"/>
<path d="M22.8601 12.19H21.3301V13.72H22.8601V12.19Z" fill="currentColor"/>
<path d="M21.3301 25.91H19.8101V27.43H21.3301V25.91Z" fill="currentColor"/>
<path d="M21.3301 10.67H19.8101V12.19H21.3301V10.67Z" fill="currentColor"/>
<path d="M19.81 24.38H18.28V25.91H19.81V24.38Z" fill="currentColor"/>
<path d="M19.81 16.76H18.28V21.34H19.81V16.76Z" fill="currentColor"/>
<path d="M19.81 12.19H18.28V13.72H19.81V12.19Z" fill="currentColor"/>
<path d="M16.76 27.43H15.24V25.91H13.71V28.95H18.28V25.91H16.76V27.43Z" fill="currentColor"/>
<path d="M18.28 21.34H13.71V22.86H18.28V21.34Z" fill="currentColor"/>
<path d="M18.28 15.2401H13.71V16.7601H18.28V15.2401Z" fill="currentColor"/>
<path d="M15.24 10.67H16.76V12.19H18.28V9.15002H13.71V12.19H15.24V10.67Z" fill="currentColor"/>
<path d="M13.7099 24.38H12.1899V25.91H13.7099V24.38Z" fill="currentColor"/>
<path d="M13.7099 16.76H12.1899V21.34H13.7099V16.76Z" fill="currentColor"/>
<path d="M13.7099 12.19H12.1899V13.72H13.7099V12.19Z" fill="currentColor"/>
<path d="M12.1899 25.91H10.6699V27.43H12.1899V25.91Z" fill="currentColor"/>
<path d="M12.1899 10.67H10.6699V12.19H12.1899V10.67Z" fill="currentColor"/>
<path d="M10.6699 24.38H9.13989V25.91H10.6699V24.38Z" fill="currentColor"/>
<path d="M10.6699 21.34H9.13989V22.86H10.6699V21.34Z" fill="currentColor"/>
<path d="M10.6699 15.2401H9.13989V16.7601H10.6699V15.2401Z" fill="currentColor"/>
<path d="M10.6699 12.19H9.13989V13.72H10.6699V12.19Z" fill="currentColor"/>
<path d="M10.6699 3.05005H9.13989V4.57005H10.6699V3.05005Z" fill="currentColor"/>
<path d="M9.14012 22.86H7.62012V24.38H9.14012V22.86Z" fill="currentColor"/>
<path d="M7.62009 19.81V18.29H9.14009V16.76H6.09009V21.34H9.14009V19.81H7.62009Z" fill="currentColor"/>
<path d="M9.14012 13.72H7.62012V15.24H9.14012V13.72Z" fill="currentColor"/>
<path d="M7.62009 3.05005H6.09009V4.57005H7.62009V3.05005Z" fill="currentColor"/>
<path d="M4.57005 3.05005H3.05005V4.57005H4.57005V3.05005Z" fill="currentColor"/>
<path d="M30.47 0H1.52002V1.53H30.47V0Z" fill="currentColor"/>
</g>
<defs>
<clipPath id="clip0_1128_14407">
<rect width="32" height="32" fill="white"/>
</clipPath>
</defs>
</svg>
