<svg width="32" height="32" viewBox="0 0 32 32" fill="none" xmlns="http://www.w3.org/2000/svg">
<path d="M11.43 16.76V18.29H17.52V16.76H19.05V18.29H25.14V16.76H26.67V27.43H28.19V10.67H26.67V9.15H25.14V7.62H23.62V6.1H19.05V3.05H17.52V6.1H12.95V7.62H11.43V9.15H9.9V10.67H8.38V27.43H9.9V16.76H11.43ZM16 9.15H17.52V7.62H19.05V9.15H20.57V12.19H19.05V13.72H17.52V12.19H16V9.15Z" fill="currentColor"/>
<path d="M26.67 27.43H25.14V28.96H26.67V27.43Z" fill="currentColor"/>
<path d="M25.14 22.86H23.62V25.91H25.14V22.86Z" fill="currentColor"/>
<path d="M25.14 28.96H22.09V30.48H25.14V28.96Z" fill="currentColor"/>
<path d="M23.62 25.91H22.09V27.43H23.62V25.91Z" fill="currentColor"/>
<path d="M22.09 27.43H19.05V28.96H22.09V27.43Z" fill="currentColor"/>
<path d="M22.09 30.48H14.47V32H22.09V30.48Z" fill="currentColor"/>
<path d="M17.52 1.53H14.47V3.05H17.52V1.53Z" fill="currentColor"/>
<path d="M14.47 28.96H11.43V30.48H14.47V28.96Z" fill="currentColor"/>
<path d="M14.47 3.05H11.43V4.57H14.47V3.05Z" fill="currentColor"/>
<path d="M11.43 27.43H9.89999V28.96H11.43V27.43Z" fill="currentColor"/>
<path d="M11.43 4.57H9.89999V6.1H11.43V4.57Z" fill="currentColor"/>
<path d="M9.89999 6.1H5.32999V7.62H9.89999V6.1Z" fill="currentColor"/>
<path d="M8.37999 0H6.85999V1.53H8.37999V0Z" fill="currentColor"/>
<path d="M6.85999 1.53H5.32999V3.05H6.85999V1.53Z" fill="currentColor"/>
<path d="M5.33 3.05H3.81V6.1H5.33V3.05Z" fill="currentColor"/>
</svg>
