<svg width="32" height="32" viewBox="0 0 32 32" fill="none" xmlns="http://www.w3.org/2000/svg">
<g clip-path="url(#clip0_1128_6242)">
<path d="M3.81006 1.52H28.1901V3.05H5.34006V4.57H28.1901V6.1H3.81006V7.62H5.34006V30.48H3.81006V32H29.7201V30.48H6.86006V7.62H29.7201V30.48H31.2401V6.1H29.7201V1.52H31.2401V0H3.81006V1.52Z" fill="currentColor"/>
<path d="M25.15 12.19H9.91V13.72H8.38V16.76H12.96V15.24H22.1V16.76H26.67V13.72H25.15V12.19Z" fill="currentColor"/>
<path d="M23.62 19.81H22.1V18.29H20.57V16.76H19.05V18.29H16V16.76H14.48V18.29H12.96V19.81H11.43V21.33H9.91003V25.91H11.43V27.43H23.62V25.91H25.15V21.33H23.62V19.81ZM20.57 24.38H19.05V25.91H16V24.38H14.48V21.33H16V19.81H19.05V21.33H20.57V24.38Z" fill="currentColor"/>
<path d="M19.05 21.33H16V24.38H19.05V21.33Z" fill="currentColor"/>
<path d="M3.81004 28.95H2.29004V30.48H3.81004V28.95Z" fill="currentColor"/>
<path d="M3.81004 1.51999H2.29004V3.04999H3.81004V1.51999Z" fill="currentColor"/>
<path d="M2.29001 6.09999H3.81001V4.56999H2.29001V3.04999H0.76001V28.95H2.29001V6.09999Z" fill="currentColor"/>
</g>
<defs>
<clipPath id="clip0_1128_6242">
<rect width="32" height="32" fill="white"/>
</clipPath>
</defs>
</svg>
