<svg width="32" height="32" viewBox="0 0 32 32" fill="none" xmlns="http://www.w3.org/2000/svg">
<g clip-path="url(#clip0_1128_4022)">
<path d="M30.48 21.3299H16.77V19.8099H15.24V16.7599H13.72V13.7099H12.19V10.6699H10.67V9.13995H24.38V7.61995H7.62V9.13995H6.1V6.08995H7.62V4.56995H0V6.08995H1.53V19.8099H0V22.8599H1.53V31.9999H30.48V22.8599H32V19.8099H30.48V21.3299ZM3.05 6.08995H4.57V13.7099H3.05V6.08995ZM13.72 30.4799H12.19V22.8599H10.67V30.4799H6.1V27.4299H7.62V25.8999H6.1V22.8599H4.57V30.4799H3.05V19.8099H4.57V16.7599H6.1V13.7099H7.62V12.1899H9.15V13.7099H10.67V16.7599H12.19V19.8099H13.72V30.4799ZM28.96 30.4799H15.24V22.8599H28.96V30.4799Z" fill="currentColor"/>
<path d="M30.48 16.76H28.96V19.81H30.48V16.76Z" fill="currentColor"/>
<path d="M30.48 3.05005H28.96V4.57005H30.48V3.05005Z" fill="currentColor"/>
<path d="M28.96 13.71H27.43V16.76H28.96V13.71Z" fill="currentColor"/>
<path d="M28.96 1.52002H27.43V3.05002H28.96V1.52002Z" fill="currentColor"/>
<path d="M27.43 10.67H25.91V13.71H27.43V10.67Z" fill="currentColor"/>
<path d="M28.96 4.56995H25.91V6.08995H28.96V4.56995Z" fill="currentColor"/>
<path d="M27.43 0H24.38V1.52H27.43V0Z" fill="currentColor"/>
<path d="M27.43 24.38H22.86V28.95H27.43V24.38ZM25.91 27.43H24.38V25.9H25.91V27.43Z" fill="currentColor"/>
<path d="M25.91 9.14001H24.38V10.67H25.91V9.14001Z" fill="currentColor"/>
<path d="M25.91 3.05005H24.38V4.57005H25.91V3.05005Z" fill="currentColor"/>
<path d="M19.81 18.28V19.81H25.91V16.76H24.38V18.28H19.81Z" fill="currentColor"/>
<path d="M24.38 15.24H22.86V16.76H24.38V15.24Z" fill="currentColor"/>
<path d="M24.38 1.52002H22.86V3.05002H24.38V1.52002Z" fill="currentColor"/>
<path d="M21.34 24.38H16.77V28.95H21.34V24.38ZM19.81 27.43H18.29V25.9H19.81V27.43Z" fill="currentColor"/>
<path d="M19.81 16.76H18.29V18.28H19.81V16.76Z" fill="currentColor"/>
<path d="M18.29 15.24H22.86V13.71H16.77V16.76H18.29V15.24Z" fill="currentColor"/>
<path d="M19.81 1.52002H18.29V4.57002H19.81V1.52002Z" fill="currentColor"/>
<path d="M18.29 0H15.24V1.52H18.29V0Z" fill="currentColor"/>
<path d="M18.29 4.56995H10.67V6.08995H18.29V4.56995Z" fill="currentColor"/>
<path d="M15.24 1.52002H13.72V3.05002H15.24V1.52002Z" fill="currentColor"/>
<path d="M13.72 0H10.67V1.52H13.72V0Z" fill="currentColor"/>
<path d="M10.67 21.33H6.10001V22.86H10.67V21.33Z" fill="currentColor"/>
<path d="M10.67 1.52002H9.14999V4.57002H10.67V1.52002Z" fill="currentColor"/>
<path d="M7.62001 0H6.10001V1.52H7.62001V0Z" fill="currentColor"/>
<path d="M4.56999 1.52002H3.04999V3.05002H4.56999V1.52002Z" fill="currentColor"/>
</g>
<defs>
<clipPath id="clip0_1128_4022">
<rect width="32" height="32" fill="white"/>
</clipPath>
</defs>
</svg>
