<svg width="32" height="32" viewBox="0 0 32 32" fill="none" xmlns="http://www.w3.org/2000/svg">
<g clip-path="url(#clip0_1135_3508)">
<path d="M1.52 28.19H3.05V26.67H7.62V29.72H4.57V31.24H27.43V29.72H24.38V26.67H28.95V28.19H30.48V16H32V14.48H27.43V11.43H25.91V14.48H6.1V11.43H4.57V14.48H0V16H1.52V28.19ZM24.38 16H28.95V19.05H24.38V16ZM24.38 20.57H28.95V25.15H24.38V20.57ZM16.76 16H22.86V19.05H16.76V16ZM16.76 20.57H22.86V25.15H16.76V20.57ZM16.76 26.67H22.86V29.72H16.76V26.67ZM9.14 16H15.24V19.05H9.14V16ZM9.14 20.57H15.24V25.15H9.14V20.57ZM9.14 26.67H15.24V29.72H9.14V26.67ZM3.05 16H7.62V19.05H3.05V16ZM3.05 20.57H7.62V25.15H3.05V20.57Z" fill="currentColor"/>
<path d="M28.95 28.19H27.43V29.72H28.95V28.19Z" fill="currentColor"/>
<path d="M25.91 8.38H24.38V11.43H25.91V8.38Z" fill="currentColor"/>
<path d="M24.38 5.34H22.86V8.38H24.38V5.34Z" fill="currentColor"/>
<path d="M13.72 5.34001V6.86001H15.24V8.38001H16.76V6.86001H18.29V5.34001H22.86V3.81001H18.29V2.29001H16.76V0.76001H15.24V2.29001H13.72V3.81001H9.14001V5.34001H13.72Z" fill="currentColor"/>
<path d="M9.14 5.34H7.62V8.38H9.14V5.34Z" fill="currentColor"/>
<path d="M7.62001 8.38H6.10001V11.43H7.62001V8.38Z" fill="currentColor"/>
<path d="M4.56999 28.19H3.04999V29.72H4.56999V28.19Z" fill="currentColor"/>
</g>
<defs>
<clipPath id="clip0_1135_3508">
<rect width="32" height="32" fill="white"/>
</clipPath>
</defs>
</svg>
