<svg width="32" height="32" viewBox="0 0 32 32" fill="none" xmlns="http://www.w3.org/2000/svg">
<g clip-path="url(#clip0_1135_2938)">
<path d="M32 12.19H30.48V19.81H32V12.19Z" fill="currentColor"/>
<path d="M30.48 19.81H28.96V22.86H30.48V19.81Z" fill="currentColor"/>
<path d="M30.48 9.15002H28.96V12.19H30.48V9.15002Z" fill="currentColor"/>
<path d="M28.96 22.86H27.43V25.91H28.96V22.86Z" fill="currentColor"/>
<path d="M28.96 6.09998H27.43V9.14998H28.96V6.09998Z" fill="currentColor"/>
<path d="M27.43 25.91H25.91V27.43H27.43V25.91Z" fill="currentColor"/>
<path d="M27.43 4.58002H25.91V6.10002H27.43V4.58002Z" fill="currentColor"/>
<path d="M25.91 27.43H22.86V28.96H25.91V27.43Z" fill="currentColor"/>
<path d="M25.91 3.04999H22.86V4.57999H25.91V3.04999Z" fill="currentColor"/>
<path d="M22.86 28.96H19.81V30.48H22.86V28.96Z" fill="currentColor"/>
<path d="M22.86 1.53003H19.81V3.05003H22.86V1.53003Z" fill="currentColor"/>
<path d="M15.24 6.09998V7.61998H13.72V9.14998H12.2V10.67H10.67V12.19H9.14999V13.72H7.62V16.77H9.14999V18.29H13.72V19.81H12.2V22.86H10.67V25.91H13.72V24.38H15.24V22.86H16.77V21.34H18.29V19.81H19.81V18.29H21.34V15.24H19.81V13.72H16.77V12.19H18.29V10.67H19.81V9.14998H21.34V6.09998H15.24Z" fill="currentColor"/>
<path d="M19.81 30.48H12.2V32H19.81V30.48Z" fill="currentColor"/>
<path d="M19.81 0H12.2V1.53H19.81V0Z" fill="currentColor"/>
<path d="M12.2 28.96H9.15002V30.48H12.2V28.96Z" fill="currentColor"/>
<path d="M12.2 1.53003H9.15002V3.05003H12.2V1.53003Z" fill="currentColor"/>
<path d="M9.14998 27.43H6.09998V28.96H9.14998V27.43Z" fill="currentColor"/>
<path d="M9.14998 3.04999H6.09998V4.57999H9.14998V3.04999Z" fill="currentColor"/>
<path d="M6.10002 25.91H4.58002V27.43H6.10002V25.91Z" fill="currentColor"/>
<path d="M6.10002 4.58002H4.58002V6.10002H6.10002V4.58002Z" fill="currentColor"/>
<path d="M4.57999 22.86H3.04999V25.91H4.57999V22.86Z" fill="currentColor"/>
<path d="M4.57999 6.09998H3.04999V9.14998H4.57999V6.09998Z" fill="currentColor"/>
<path d="M3.05003 19.81H1.53003V22.86H3.05003V19.81Z" fill="currentColor"/>
<path d="M3.05003 9.15002H1.53003V12.19H3.05003V9.15002Z" fill="currentColor"/>
<path d="M1.53 12.19H0V19.81H1.53V12.19Z" fill="currentColor"/>
</g>
<defs>
<clipPath id="clip0_1135_2938">
<rect width="32" height="32" fill="white"/>
</clipPath>
</defs>
</svg>
