<svg width="32" height="32" viewBox="0 0 32 32" fill="none" xmlns="http://www.w3.org/2000/svg">
<g clip-path="url(#clip0_1128_12660)">
<path d="M30.4701 13.71H28.9501V12.19H27.4301V10.67H25.9001V15.24H19.8101V16.76H25.9001V21.33H27.4301V19.81H28.9501V18.29H30.4701V16.76H32.0001V15.24H30.4701V13.71Z" fill="currentColor"/>
<path d="M16.7599 25.9V19.81H15.2399V25.9H10.6599V27.43H12.1899V28.95H13.7099V30.48H15.2399V32H16.7599V30.48H18.2799V28.95H19.8099V27.43H21.3299V25.9H16.7599Z" fill="currentColor"/>
<path d="M15.2399 0V1.52H13.7099V3.05H12.1899V4.57H10.6599V6.1H15.2399V12.19H16.7599V6.1H21.3299V4.57H19.8099V3.05H18.2799V1.52H16.7599V0H15.2399Z" fill="currentColor"/>
<path d="M4.57 10.67V12.19H3.05V13.71H1.52V15.24H0V16.76H1.52V18.29H3.05V19.81H4.57V21.33H6.09V16.76H12.19V15.24H6.09V10.67H4.57Z" fill="currentColor"/>
</g>
<defs>
<clipPath id="clip0_1128_12660">
<rect width="32" height="32" fill="white"/>
</clipPath>
</defs>
</svg>
