<svg width="32" height="32" viewBox="0 0 32 32" fill="none" xmlns="http://www.w3.org/2000/svg">
<g clip-path="url(#clip0_1128_13786)">
<path d="M32 9.14001H28.95V10.67H32V9.14001Z" fill="currentColor"/>
<path d="M32 21.33H28.95V22.86H32V21.33Z" fill="currentColor"/>
<path d="M32 15.24H28.95V16.76H32V15.24Z" fill="currentColor"/>
<path d="M28.9501 27.43H27.4301V28.95H28.9501V27.43Z" fill="currentColor"/>
<path d="M28.9501 3.04999H27.4301V4.56999H28.9501V3.04999Z" fill="currentColor"/>
<path d="M27.43 25.9H25.91V27.43H27.43V25.9Z" fill="currentColor"/>
<path d="M27.43 12.19H25.91V19.81H27.43V12.19Z" fill="currentColor"/>
<path d="M27.43 4.57001H25.91V6.09001H27.43V4.57001Z" fill="currentColor"/>
<path d="M25.91 19.81H24.38V22.86H25.91V19.81Z" fill="currentColor"/>
<path d="M25.91 9.14001H24.38V12.19H25.91V9.14001Z" fill="currentColor"/>
<path d="M24.38 7.62H22.86V9.14H24.38V7.62Z" fill="currentColor"/>
<path d="M22.86 28.95H21.34V32H22.86V28.95Z" fill="currentColor"/>
<path d="M21.3401 24.38H19.8101V25.9H22.8601V24.38H24.3801V22.86H21.3401V24.38Z" fill="currentColor"/>
<path d="M22.86 0H21.34V3.05H22.86V0Z" fill="currentColor"/>
<path d="M21.3401 21.33H19.8101V22.86H21.3401V21.33Z" fill="currentColor"/>
<path d="M22.8601 6.09H19.8101V7.62H22.8601V6.09Z" fill="currentColor"/>
<path d="M19.8099 25.9H12.1899V27.43H19.8099V25.9Z" fill="currentColor"/>
<path d="M16.76 28.95H15.24V32H16.76V28.95Z" fill="currentColor"/>
<path d="M16.76 0H15.24V3.05H16.76V0Z" fill="currentColor"/>
<path d="M19.8099 19.81H12.1899V21.33H19.8099V19.81Z" fill="currentColor"/>
<path d="M19.8099 4.57001H12.1899V6.09001H19.8099V4.57001Z" fill="currentColor"/>
<path d="M10.67 24.38V22.86H7.62V24.38H9.14999V25.9H12.19V24.38H10.67Z" fill="currentColor"/>
<path d="M12.19 21.33H10.67V22.86H12.19V21.33Z" fill="currentColor"/>
<path d="M12.19 13.71H13.72V12.19H18.29V13.71H19.81V19.81H21.34V10.67H19.81V9.14001H12.19V10.67H10.67V19.81H12.19V13.71Z" fill="currentColor"/>
<path d="M12.19 6.09H9.15002V7.62H12.19V6.09Z" fill="currentColor"/>
<path d="M10.67 28.95H9.15002V32H10.67V28.95Z" fill="currentColor"/>
<path d="M10.67 0H9.15002V3.05H10.67V0Z" fill="currentColor"/>
<path d="M9.14999 7.62H7.62V9.14H9.14999V7.62Z" fill="currentColor"/>
<path d="M7.61998 19.81H6.09998V22.86H7.61998V19.81Z" fill="currentColor"/>
<path d="M7.61998 9.14001H6.09998V12.19H7.61998V9.14001Z" fill="currentColor"/>
<path d="M6.09995 25.9H4.56995V27.43H6.09995V25.9Z" fill="currentColor"/>
<path d="M6.09995 12.19H4.56995V19.81H6.09995V12.19Z" fill="currentColor"/>
<path d="M6.09995 4.57001H4.56995V6.09001H6.09995V4.57001Z" fill="currentColor"/>
<path d="M4.57005 27.43H3.05005V28.95H4.57005V27.43Z" fill="currentColor"/>
<path d="M4.57005 3.04999H3.05005V4.56999H4.57005V3.04999Z" fill="currentColor"/>
<path d="M3.05 21.33H0V22.86H3.05V21.33Z" fill="currentColor"/>
<path d="M3.05 15.24H0V16.76H3.05V15.24Z" fill="currentColor"/>
<path d="M3.05 9.14001H0V10.67H3.05V9.14001Z" fill="currentColor"/>
</g>
<defs>
<clipPath id="clip0_1128_13786">
<rect width="32" height="32" fill="white"/>
</clipPath>
</defs>
</svg>
