<svg width="32" height="32" viewBox="0 0 32 32" fill="none" xmlns="http://www.w3.org/2000/svg">
<g clip-path="url(#clip0_1128_11658)">
<path d="M23.62 20.57H22.1V22.09H20.57V23.62H17.53V25.14H20.57V26.66H22.1V28.19H23.62V29.71H25.14V31.24H29.72V29.71H31.24V25.14H29.72V23.62H28.19V22.09H26.67V20.57H25.14V17.52H23.62V20.57ZM25.14 23.62H26.67V25.14H28.19V26.66H29.72V28.19H28.19V26.66H26.67V25.14H25.14V23.62Z" fill="currentColor"/>
<path d="M26.67 9.89999H25.14V17.52H26.67V9.89999Z" fill="currentColor"/>
<path d="M25.14 6.84999H23.62V9.89999H25.14V6.84999Z" fill="currentColor"/>
<path d="M23.62 5.32999H22.1V6.84999H23.62V5.32999Z" fill="currentColor"/>
<path d="M22.1001 3.81H20.5701V5.33H22.1001V3.81Z" fill="currentColor"/>
<path d="M20.57 2.28H17.53V3.81H20.57V2.28Z" fill="currentColor"/>
<path d="M5.33997 16H6.85997V17.52H8.37997V19.04H9.90997V20.57H12.95V19.04H14.48V17.52H16V16H17.53V14.47H19.05V12.95H20.57V11.43H22.1V9.89999H20.57V8.37999H19.05V9.89999H17.53V11.43H16V12.95H14.48V14.47H12.95V16H9.90997V14.47H8.37997V12.95H6.85997V14.47H5.33997V16Z" fill="currentColor"/>
<path d="M17.53 25.14H9.91003V26.66H17.53V25.14Z" fill="currentColor"/>
<path d="M17.53 0.759995H9.91003V2.27999H17.53V0.759995Z" fill="currentColor"/>
<path d="M9.90999 23.62H6.85999V25.14H9.90999V23.62Z" fill="currentColor"/>
<path d="M9.90999 2.28H6.85999V3.81H9.90999V2.28Z" fill="currentColor"/>
<path d="M6.85997 22.09H5.33997V23.62H6.85997V22.09Z" fill="currentColor"/>
<path d="M6.85997 3.81H5.33997V5.33H6.85997V3.81Z" fill="currentColor"/>
<path d="M5.34006 20.57H3.81006V22.09H5.34006V20.57Z" fill="currentColor"/>
<path d="M5.34006 5.32999H3.81006V6.84999H5.34006V5.32999Z" fill="currentColor"/>
<path d="M3.81004 17.52H2.29004V20.57H3.81004V17.52Z" fill="currentColor"/>
<path d="M3.81004 6.84999H2.29004V9.89999H3.81004V6.84999Z" fill="currentColor"/>
<path d="M2.29001 9.89999H0.76001V17.52H2.29001V9.89999Z" fill="currentColor"/>
</g>
<defs>
<clipPath id="clip0_1128_11658">
<rect width="32" height="32" fill="white"/>
</clipPath>
</defs>
</svg>
