<svg width="32" height="32" viewBox="0 0 32 32" fill="none" xmlns="http://www.w3.org/2000/svg">
<g clip-path="url(#clip0_1135_1642)">
<path d="M19.81 29.715H7.62V31.235H19.81V29.715Z" fill="currentColor"/>
<path d="M24.38 28.195H19.81V29.715H24.38V28.195Z" fill="currentColor"/>
<path d="M15.24 26.665V25.145H4.57001V26.665H6.10001V29.715H7.62001V26.665H15.24Z" fill="currentColor"/>
<path d="M12.19 22.095V20.575H1.53V22.095H3.05V25.145H4.57V22.095H12.19Z" fill="currentColor"/>
<path d="M1.53 17.525H0V20.575H1.53V17.525Z" fill="currentColor"/>
<path d="M18.29 16.005H16.76V17.525H18.29V16.005Z" fill="currentColor"/>
<path d="M10.67 16.005H4.57001V17.525H10.67V16.005Z" fill="currentColor"/>
<path d="M16.76 12.955H15.24V16.005H16.76V12.955Z" fill="currentColor"/>
<path d="M12.19 14.475H10.67V16.005H12.19V14.475Z" fill="currentColor"/>
<path d="M4.56999 14.475H3.04999V16.005H4.56999V14.475Z" fill="currentColor"/>
<path d="M7.62001 14.475V12.955H9.14001V11.425H4.57001V12.955H6.10001V14.475H7.62001Z" fill="currentColor"/>
<path d="M3.05 12.955H1.53V14.475H3.05V12.955Z" fill="currentColor"/>
<path d="M15.24 9.905H13.72V12.955H15.24V9.905Z" fill="currentColor"/>
<path d="M1.53 5.33501H0V12.955H1.53V5.33501Z" fill="currentColor"/>
<path d="M27.43 9.89999V11.42H25.91V12.95H27.43V26.66H24.38V28.2H27.43V29.72H32V9.89999H27.43ZM30.48 26.66H28.95V23.61H30.48V26.66Z" fill="currentColor"/>
<path d="M25.91 9.905H24.38V11.425H25.91V9.905Z" fill="currentColor"/>
<path d="M10.67 9.905H9.14001V11.425H10.67V9.905Z" fill="currentColor"/>
<path d="M24.38 8.38499H21.34V9.90499H24.38V8.38499Z" fill="currentColor"/>
<path d="M13.72 8.38499H12.19V9.90499H13.72V8.38499Z" fill="currentColor"/>
<path d="M9.14001 8.38499H4.57001V9.90499H9.14001V8.38499Z" fill="currentColor"/>
<path d="M21.34 6.855H19.81V8.385H21.34V6.855Z" fill="currentColor"/>
<path d="M4.56999 6.855H3.04999V8.385H4.56999V6.855Z" fill="currentColor"/>
<path d="M19.81 5.33501H18.29V6.85501H19.81V5.33501Z" fill="currentColor"/>
<path d="M9.14001 6.855V5.335H7.62001V3.815H6.10001V5.335H4.57001V6.855H9.14001Z" fill="currentColor"/>
<path d="M18.29 3.815H16.76V5.335H18.29V3.815Z" fill="currentColor"/>
<path d="M12.19 3.815H10.67V8.385H12.19V3.815Z" fill="currentColor"/>
<path d="M3.05 3.815H1.53V5.335H3.05V3.815Z" fill="currentColor"/>
<path d="M16.76 2.285H12.19V3.815H16.76V2.285Z" fill="currentColor"/>
<path d="M4.56999 2.285H3.04999V3.815H4.56999V2.285Z" fill="currentColor"/>
<path d="M10.67 0.764999H4.57001V2.285H10.67V0.764999Z" fill="currentColor"/>
</g>
<defs>
<clipPath id="clip0_1135_1642">
<rect width="32" height="32" fill="white"/>
</clipPath>
</defs>
</svg>
