<svg width="32" height="32" viewBox="0 0 32 32" fill="none" xmlns="http://www.w3.org/2000/svg">
<g clip-path="url(#clip0_1135_3784)">
<path d="M27.4299 1.52002H25.9099V30.47H27.4299V1.52002Z" fill="currentColor"/>
<path d="M25.91 30.47H22.86V32H25.91V30.47Z" fill="currentColor"/>
<path d="M22.86 28.95H21.34V30.4699H22.86V28.95Z" fill="currentColor"/>
<path d="M22.8599 7.62H21.3399V9.14H19.8099V10.66H18.2899V12.19H16.7599V13.71H15.2399V15.23H13.7199V13.71H12.1899V12.19H10.6699V13.71H9.1499V15.23H10.6699V16.76H12.1899V18.28H13.7199V19.81H15.2399V18.28H16.7599V16.76H18.2899V15.23H19.8099V13.71H21.3399V12.19H22.8599V10.66H24.3799V9.14H22.8599V7.62Z" fill="currentColor"/>
<path d="M21.3399 27.4301H19.8099V28.9501H21.3399V27.4301Z" fill="currentColor"/>
<path d="M19.8099 25.9H18.2899V27.43H19.8099V25.9Z" fill="currentColor"/>
<path d="M18.2899 24.38H16.7599V25.9H18.2899V24.38Z" fill="currentColor"/>
<path d="M16.76 22.85H15.24V24.38H16.76V22.85Z" fill="currentColor"/>
<path d="M15.24 24.38H13.72V25.9H15.24V24.38Z" fill="currentColor"/>
<path d="M13.7199 25.9H12.1899V27.43H13.7199V25.9Z" fill="currentColor"/>
<path d="M12.1899 27.4301H10.6699V28.9501H12.1899V27.4301Z" fill="currentColor"/>
<path d="M10.6699 28.95H9.1499V30.4699H10.6699V28.95Z" fill="currentColor"/>
<path d="M25.91 0H6.09998V1.52H25.91V0Z" fill="currentColor"/>
<path d="M9.14998 30.47H6.09998V32H9.14998V30.47Z" fill="currentColor"/>
<path d="M6.09995 1.52002H4.56995V30.47H6.09995V1.52002Z" fill="currentColor"/>
</g>
<defs>
<clipPath id="clip0_1135_3784">
<rect width="32" height="32" fill="white"/>
</clipPath>
</defs>
</svg>
