<svg width="32" height="32" viewBox="0 0 32 32" fill="none" xmlns="http://www.w3.org/2000/svg">
<g clip-path="url(#clip0_1128_8497)">
<path d="M0 3.81006V28.1901H32V3.81006H0ZM7.61 26.6601H1.52V5.33006H7.61V26.6601ZM22.85 26.6601H9.14V5.33006H22.85V26.6601ZM30.47 26.6601H24.38V5.33006H30.47V26.6601Z" fill="currentColor"/>
<path d="M28.95 20.5701H25.9V23.6201H28.95V20.5701Z" fill="currentColor"/>
<path d="M28.95 14.4701H25.9V17.5201H28.95V14.4701Z" fill="currentColor"/>
<path d="M28.95 8.38H25.9V11.43H28.95V8.38Z" fill="currentColor"/>
<path d="M15.2299 19.05H16.7599V17.52H18.2799V16H19.7999V14.47H18.2799V12.95H16.7599V11.43H15.2299V9.90002H12.1899V20.57H15.2299V19.05Z" fill="currentColor"/>
<path d="M6.09004 20.5701H3.04004V23.6201H6.09004V20.5701Z" fill="currentColor"/>
<path d="M6.09004 14.4701H3.04004V17.5201H6.09004V14.4701Z" fill="currentColor"/>
<path d="M6.09004 8.38H3.04004V11.43H6.09004V8.38Z" fill="currentColor"/>
</g>
<defs>
<clipPath id="clip0_1128_8497">
<rect width="32" height="32" fill="white"/>
</clipPath>
</defs>
</svg>
