<svg width="32" height="32" viewBox="0 0 32 32" fill="none" xmlns="http://www.w3.org/2000/svg">
<g clip-path="url(#clip0_1128_3767)">
<path d="M32 10.66H30.48V28.95H32V10.66Z" fill="currentColor"/>
<path d="M30.48 28.95H28.96V30.4699H30.48V28.95Z" fill="currentColor"/>
<path d="M30.48 9.14001H28.96V10.66H30.48V9.14001Z" fill="currentColor"/>
<path d="M28.96 30.47H9.15V32H28.96V30.47Z" fill="currentColor"/>
<path d="M27.43 16.76H25.91V27.43H19.81V25.9H24.39V24.38H19.81V22.85H24.39V19.81H19.81V18.28H22.86V16.76H19.81V12.19H21.34V10.66H18.29V15.24H12.19V16.76H18.29V27.43H12.19V16.76H10.67V28.95H27.43V16.76Z" fill="currentColor"/>
<path d="M27.43 1.52002H25.91V3.04002H13.72V1.52002H12.19V3.04002H4.58V1.52002H3.05V32H4.58V4.57002H12.19V7.62002H9.15V9.14002H28.96V7.62002H27.43V4.57002H32V3.04002H27.43V1.52002ZM25.91 7.62002H13.72V4.57002H25.91V7.62002Z" fill="currentColor"/>
<path d="M25.91 15.24H24.39V16.76H25.91V15.24Z" fill="currentColor"/>
<path d="M24.39 13.71H22.86V15.24H24.39V13.71Z" fill="currentColor"/>
<path d="M22.86 12.1899H21.34V13.7099H22.86V12.1899Z" fill="currentColor"/>
<path d="M16.77 22.85H13.72V25.9H16.77V22.85Z" fill="currentColor"/>
<path d="M16.77 18.28H13.72V21.33H16.77V18.28Z" fill="currentColor"/>
<path d="M9.15 28.95H7.62V30.4699H9.15V28.95Z" fill="currentColor"/>
<path d="M9.15 9.14001H7.62V10.66H9.15V9.14001Z" fill="currentColor"/>
<path d="M7.62 10.66H6.1V28.95H7.62V10.66Z" fill="currentColor"/>
<path d="M3.05 0H1.53V1.52H3.05V0Z" fill="currentColor"/>
<path d="M1.53 1.52002H0V32H1.53V1.52002Z" fill="currentColor"/>
</g>
<defs>
<clipPath id="clip0_1128_3767">
<rect width="32" height="32" fill="white"/>
</clipPath>
</defs>
</svg>
