<svg width="32" height="32" viewBox="0 0 32 32" fill="none" xmlns="http://www.w3.org/2000/svg">
<path d="M30.4801 15.24H28.9501V22.86H30.4801V15.24Z" fill="currentColor"/>
<path d="M27.43 24.39H28.9501V22.86H27.43V15.24H28.9501V13.72H27.43V10.67H25.9V13.72H6.10005V10.67H4.57005V13.72H3.05005V15.24H4.57005V22.86H3.05005V24.39H4.57005V25.91H6.10005V15.24H25.9V25.91H27.43V24.39Z" fill="currentColor"/>
<path d="M27.43 0H25.9V1.53H27.43V0Z" fill="currentColor"/>
<path d="M25.9 25.91H24.38V27.43H25.9V25.91Z" fill="currentColor"/>
<path d="M25.9 7.62H24.38V10.67H25.9V7.62Z" fill="currentColor"/>
<path d="M25.9 1.53003H24.38V3.05003H25.9V1.53003Z" fill="currentColor"/>
<path d="M24.38 6.09998H22.86V7.61998H24.38V6.09998Z" fill="currentColor"/>
<path d="M24.38 3.04999H22.86V4.57999H24.38V3.04999Z" fill="currentColor"/>
<path d="M21.3301 30.48H22.8601V28.96H24.3801V27.43H21.3301V30.48Z" fill="currentColor"/>
<path d="M22.8601 4.58002H19.8101V6.10002H22.8601V4.58002Z" fill="currentColor"/>
<path d="M21.33 30.48H18.29V32H21.33V30.48Z" fill="currentColor"/>
<path d="M13.71 27.43V30.48H15.24V28.96H16.76V30.48H18.29V27.43H13.71Z" fill="currentColor"/>
<path d="M19.8101 3.04999H12.1901V4.57999H19.8101V3.04999Z" fill="currentColor"/>
<path d="M13.71 30.48H10.67V32H13.71V30.48Z" fill="currentColor"/>
<path d="M22.86 12.19V9.14999H21.33V7.62H10.67V9.14999H9.14001V12.19H22.86ZM18.29 9.14999H19.81V10.67H18.29V9.14999ZM12.19 9.14999H13.71V10.67H12.19V9.14999Z" fill="currentColor"/>
<path d="M12.19 4.58002H9.14001V6.10002H12.19V4.58002Z" fill="currentColor"/>
<path d="M7.62 27.43V28.96H9.14V30.48H10.67V27.43H7.62Z" fill="currentColor"/>
<path d="M9.14 6.09998H7.62V7.61998H9.14V6.09998Z" fill="currentColor"/>
<path d="M9.14 3.04999H7.62V4.57999H9.14V3.04999Z" fill="currentColor"/>
<path d="M7.61998 25.91H6.09998V27.43H7.61998V25.91Z" fill="currentColor"/>
<path d="M7.61998 7.62H6.09998V10.67H7.61998V7.62Z" fill="currentColor"/>
<path d="M7.61998 1.53003H6.09998V3.05003H7.61998V1.53003Z" fill="currentColor"/>
<path d="M6.10007 0H4.57007V1.53H6.10007V0Z" fill="currentColor"/>
<path d="M3.05002 15.24H1.52002V22.86H3.05002V15.24Z" fill="currentColor"/>
</svg>
