<svg width="32" height="32" viewBox="0 0 32 32" fill="none" xmlns="http://www.w3.org/2000/svg">
<g clip-path="url(#clip0_1135_3919)">
<path d="M25.9 9.90498V8.37498H24.38V9.90498H21.33V8.37498H19.81V6.85498H12.19V8.37498H10.66V9.90498H7.62V8.37498H6.09V9.90498H1.52V8.37498H0V11.425H1.52V12.945H4.57V14.475H10.66V12.945H12.19V11.425H13.71V9.90498H18.28V11.425H19.81V12.945H21.33V14.475H27.43V12.945H30.47V11.425H32V8.37498H30.47V9.90498H25.9Z" fill="currentColor"/>
<path d="M28.95 2.28503H27.43V3.80503H24.38V5.32503H27.43V6.85503H25.9V8.37503H30.47V6.85503H28.95V5.32503H32V3.80503H28.95V2.28503Z" fill="currentColor"/>
<path d="M24.38 17.515H22.85V20.565H24.38V17.515Z" fill="currentColor"/>
<path d="M22.85 25.135H21.33V26.665H22.85V25.135Z" fill="currentColor"/>
<path d="M21.3301 26.665H19.8101V28.185H21.3301V26.665Z" fill="currentColor"/>
<path d="M19.8101 19.045H21.3301V17.515H22.8501V15.995H21.3301V14.475H19.8101V19.045Z" fill="currentColor"/>
<path d="M19.81 23.615H18.28V25.135H19.81V23.615Z" fill="currentColor"/>
<path d="M19.81 19.045H18.28V20.565H19.81V19.045Z" fill="currentColor"/>
<path d="M19.81 12.9451H18.28V14.4751H19.81V12.9451Z" fill="currentColor"/>
<path d="M19.8099 28.1851H12.1899V29.7151H19.8099V28.1851Z" fill="currentColor"/>
<path d="M18.28 20.5651H13.71V22.0951H18.28V20.5651Z" fill="currentColor"/>
<path d="M13.71 14.475V19.045H18.28V14.475H13.71ZM16.76 17.515H15.23V16H16.76V17.515Z" fill="currentColor"/>
<path d="M18.28 25.135H13.71V26.665H18.28V25.135Z" fill="currentColor"/>
<path d="M18.28 11.425H13.71V12.945H18.28V11.425Z" fill="currentColor"/>
<path d="M13.7099 23.615H12.1899V25.135H13.7099V23.615Z" fill="currentColor"/>
<path d="M13.7099 19.045H12.1899V20.565H13.7099V19.045Z" fill="currentColor"/>
<path d="M13.7099 12.9451H12.1899V14.4751H13.7099V12.9451Z" fill="currentColor"/>
<path d="M12.19 26.665H10.66V28.185H12.19V26.665Z" fill="currentColor"/>
<path d="M12.19 14.475H10.66V15.995H9.14001V17.515H10.66V19.045H12.19V14.475Z" fill="currentColor"/>
<path d="M10.66 25.135H9.14001V26.665H10.66V25.135Z" fill="currentColor"/>
<path d="M9.14 17.515H7.62V20.565H9.14V17.515Z" fill="currentColor"/>
<path d="M6.09 8.37503V6.85503H4.57V5.32503H7.62V3.80503H4.57V2.28503H3.04V3.80503H0V5.32503H3.04V6.85503H1.52V8.37503H6.09Z" fill="currentColor"/>
</g>
<defs>
<clipPath id="clip0_1135_3919">
<rect width="32" height="32" fill="white"/>
</clipPath>
</defs>
</svg>
