<svg width="32" height="32" viewBox="0 0 32 32" fill="none" xmlns="http://www.w3.org/2000/svg">
<g clip-path="url(#clip0_1128_5800)">
<path d="M32 19.81H30.48V30.48H32V19.81Z" fill="currentColor"/>
<path d="M30.48 30.48H1.53V32H30.48V30.48Z" fill="currentColor"/>
<path d="M25.91 24.38H24.38V25.91H27.43V22.86H25.91V24.38Z" fill="currentColor"/>
<path d="M27.43 27.43H24.38V28.96H27.43V27.43Z" fill="currentColor"/>
<path d="M24.38 21.34H22.86V22.86H24.38V21.34Z" fill="currentColor"/>
<path d="M24.38 10.67H22.86V12.19H24.38V10.67Z" fill="currentColor"/>
<path d="M22.86 24.38H21.33V25.91H22.86V24.38Z" fill="currentColor"/>
<path d="M22.86 12.19H21.33V13.72H22.86V12.19Z" fill="currentColor"/>
<path d="M22.86 9.15H21.33V10.67H22.86V9.15Z" fill="currentColor"/>
<path d="M22.86 27.43H9.14001V28.96H22.86V27.43Z" fill="currentColor"/>
<path d="M21.33 21.34H19.81V22.86H21.33V21.34Z" fill="currentColor"/>
<path d="M21.33 7.62H6.10001V9.15H21.33V7.62Z" fill="currentColor"/>
<path d="M19.81 24.38H18.29V25.91H19.81V24.38Z" fill="currentColor"/>
<path d="M19.81 0H18.29V3.05H19.81V0Z" fill="currentColor"/>
<path d="M18.29 21.34H16.76V22.86H18.29V21.34Z" fill="currentColor"/>
<path d="M16.76 24.38H15.24V25.91H16.76V24.38Z" fill="currentColor"/>
<path d="M15.24 21.34H13.72V22.86H15.24V21.34Z" fill="currentColor"/>
<path d="M21.33 13.72H12.19V15.24H21.33V13.72Z" fill="currentColor"/>
<path d="M13.72 24.38H12.19V25.91H13.72V24.38Z" fill="currentColor"/>
<path d="M12.19 21.34H10.67V22.86H12.19V21.34Z" fill="currentColor"/>
<path d="M10.67 24.38H9.14001V25.91H10.67V24.38Z" fill="currentColor"/>
<path d="M9.14 21.34H7.62V22.86H9.14V21.34Z" fill="currentColor"/>
<path d="M18.29 3.05H6.10001V4.58H18.29V3.05Z" fill="currentColor"/>
<path d="M7.62001 24.38H6.10001V25.91H7.62001V24.38Z" fill="currentColor"/>
<path d="M7.62001 27.43H4.57001V28.96H7.62001V27.43Z" fill="currentColor"/>
<path d="M6.10001 21.34H4.57001V22.86H6.10001V21.34Z" fill="currentColor"/>
<path d="M6.10001 4.58H4.57001V7.62H6.10001V4.58Z" fill="currentColor"/>
<path d="M4.56999 24.38H3.04999V25.91H4.56999V24.38Z" fill="currentColor"/>
<path d="M30.48 19.81V18.29H12.19V15.24H10.67V18.29H1.53V19.81H30.48Z" fill="currentColor"/>
<path d="M1.53 19.81H0V30.48H1.53V19.81Z" fill="currentColor"/>
</g>
<defs>
<clipPath id="clip0_1128_5800">
<rect width="32" height="32" fill="white"/>
</clipPath>
</defs>
</svg>
