<svg width="32" height="32" viewBox="0 0 32 32" fill="none" xmlns="http://www.w3.org/2000/svg">
<g clip-path="url(#clip0_1128_19798)">
<path d="M30.47 9.14H28.95V6.09H27.42V4.57H25.9V3.05H22.85V1.52H19.81V0H12.19V1.52H9.14V3.05H6.09V4.57H4.57V6.09H3.04V9.14H1.52V12.19H0V19.81H1.52V22.86H3.04V25.9H4.57V27.43H6.09V28.95H9.14V30.48H12.19V32H19.81V30.48H22.85V28.95H25.9V27.43H27.42V25.9H28.95V22.86H30.47V19.81H32V12.19H30.47V9.14ZM24.38 27.43H21.33V25.9H18.28V24.38H10.66V25.9H7.61V24.38H9.14V22.86H12.19V21.33H15.23V22.86H21.33V24.38H22.85V25.9H24.38V27.43ZM27.42 19.81H25.9V21.33H22.85V19.81H19.81V18.29H16.76V16.76H10.66V18.29H7.61V19.81H4.57V18.29H3.04V16.76H6.09V15.24H9.14V13.71H18.28V15.24H22.85V16.76H24.38V18.29H27.42V19.81ZM28.95 13.71H25.9V12.19H22.85V10.67H18.28V9.14H10.66V10.67H6.09V9.14H4.57V7.62H7.61V6.09H10.66V4.57H19.81V6.09H21.33V7.62H24.38V9.14H25.9V10.67H28.95V13.71Z" fill="currentColor"/>
</g>
<defs>
<clipPath id="clip0_1128_19798">
<rect width="32" height="32" fill="white"/>
</clipPath>
</defs>
</svg>
