<svg width="32" height="32" viewBox="0 0 32 32" fill="none" xmlns="http://www.w3.org/2000/svg">
<g clip-path="url(#clip0_1135_4594)">
<path d="M32 3.38306H30.48V29.2831H32V3.38306Z" fill="currentColor"/>
<path d="M30.4799 29.2831H28.95V30.8031H30.4799V29.2831Z" fill="currentColor"/>
<path d="M28.9501 30.802H3.05005V32.332H28.9501V30.802Z" fill="currentColor"/>
<path d="M25.9 12.523H27.43V20.143H25.9V21.663H28.95V10.993H25.9V12.523Z" fill="currentColor"/>
<path d="M25.9 18.613H24.38V20.143H25.9V18.613Z" fill="currentColor"/>
<path d="M25.9 12.5231H24.38V14.0431H25.9V12.5231Z" fill="currentColor"/>
<path d="M22.86 17.0921V15.5721H24.38V14.0431H21.33V23.1831H22.86V18.6131H24.38V17.0921H22.86Z" fill="currentColor"/>
<path d="M21.3299 23.183H12.1899V24.713H21.3299V23.183Z" fill="currentColor"/>
<path d="M19.8099 7.953H4.56995V9.473H19.8099V7.953Z" fill="currentColor"/>
<path d="M18.29 18.613H16.76V20.143H15.24V21.663H18.29V18.613Z" fill="currentColor"/>
<path d="M10.67 10.993H9.14001V12.523H10.67V10.993Z" fill="currentColor"/>
<path d="M7.61997 18.6131H9.13997V17.0921H10.67V15.5721H12.19V14.0431H6.08997V20.1431H7.61997V18.6131Z" fill="currentColor"/>
<path d="M7.61997 10.993H6.08997V12.523H7.61997V10.993Z" fill="currentColor"/>
<path d="M4.57 29.283V27.763H6.09V26.233H7.62V24.713H9.14V23.183H10.67V21.663H12.19V20.143H13.71V18.613H15.24V17.092H16.76V15.572H18.29V14.043H19.81V12.523H21.33V10.993H22.86V9.47303H24.38V7.95303H25.9V6.42303H27.43V4.90303H28.95V3.38303H30.48V1.85303H28.95V0.332031H3.05V1.85303H27.43V3.38303H25.9V4.90303H24.38V6.42303H22.86V7.95303H21.33V9.47303H19.81V10.993H18.29V12.523H16.76V14.043H15.24V15.572H13.71V17.092H12.19V18.613H10.67V20.143H9.14V21.663H7.62V23.183H6.09V24.713H4.57V26.233H3.05V27.763H1.52V3.38303H0V29.283H1.52V30.802H3.05V29.283H4.57Z" fill="currentColor"/>
<path d="M4.57005 9.47302H3.05005V23.183H4.57005V9.47302Z" fill="currentColor"/>
<path d="M3.05002 1.85303H1.52002V3.38303H3.05002V1.85303Z" fill="currentColor"/>
</g>
<defs>
<clipPath id="clip0_1135_4594">
<rect width="32" height="32" fill="white"/>
</clipPath>
</defs>
</svg>
