<svg width="32" height="32" viewBox="0 0 32 32" fill="none" xmlns="http://www.w3.org/2000/svg">
<g clip-path="url(#clip0_1128_19677)">
<path d="M32 12.19H30.47V19.81H32V12.19Z" fill="currentColor"/>
<path d="M30.4699 19.81H28.95V22.86H30.4699V19.81Z" fill="currentColor"/>
<path d="M30.4699 9.14H28.95V12.19H30.4699V9.14Z" fill="currentColor"/>
<path d="M28.9501 22.86H27.4301V25.9H28.9501V22.86Z" fill="currentColor"/>
<path d="M28.9501 6.09H27.4301V9.14H28.9501V6.09Z" fill="currentColor"/>
<path d="M30.47 4.57V3.05H24.38V9.14H25.9V6.09H27.43V4.57H30.47Z" fill="currentColor"/>
<path d="M27.43 25.9H25.9V27.43H27.43V25.9Z" fill="currentColor"/>
<path d="M25.9 27.43H22.85V28.95H25.9V27.43Z" fill="currentColor"/>
<path d="M22.85 19.81H21.33V21.33H22.85V19.81Z" fill="currentColor"/>
<path d="M22.8501 28.95H19.8101V30.48H22.8501V28.95Z" fill="currentColor"/>
<path d="M19.8099 19.81H15.2399V21.33H13.7099V22.86H12.1899V24.38H19.8099V22.86H21.3299V21.33H19.8099V19.81Z" fill="currentColor"/>
<path d="M19.8099 30.48H12.1899V32H19.8099V30.48Z" fill="currentColor"/>
<path d="M19.8099 9.14V7.62H12.1899V9.14H16.7599V10.67H15.2399V12.19H16.7599V13.71H19.8099V16.76H21.3299V15.24H22.8499V19.81H24.3799V12.19H22.8499V10.67H21.3299V9.14H19.8099Z" fill="currentColor"/>
<path d="M19.8099 0H12.1899V1.52H19.8099V0Z" fill="currentColor"/>
<path d="M13.71 18.28V16.76H15.24V13.71H13.71V10.67H12.19V9.14H10.66V10.67H9.14V12.19H7.62V19.81H9.14V21.33H10.66V22.86H12.19V18.28H13.71Z" fill="currentColor"/>
<path d="M12.19 1.52H9.14001V3.05H12.19V1.52Z" fill="currentColor"/>
<path d="M9.13997 3.05H6.08997V4.57H9.13997V3.05Z" fill="currentColor"/>
<path d="M1.52002 27.43V28.95H7.62002V22.86H6.09002V25.9H4.57002V27.43H1.52002Z" fill="currentColor"/>
<path d="M6.08995 4.57H4.56995V6.09H6.08995V4.57Z" fill="currentColor"/>
<path d="M4.57005 22.86H3.05005V25.9H4.57005V22.86Z" fill="currentColor"/>
<path d="M4.57005 6.09H3.05005V9.14H4.57005V6.09Z" fill="currentColor"/>
<path d="M3.05002 19.81H1.52002V22.86H3.05002V19.81Z" fill="currentColor"/>
<path d="M3.05002 9.14H1.52002V12.19H3.05002V9.14Z" fill="currentColor"/>
<path d="M1.52 12.19H0V19.81H1.52V12.19Z" fill="currentColor"/>
</g>
<defs>
<clipPath id="clip0_1128_19677">
<rect width="32" height="32" fill="white"/>
</clipPath>
</defs>
</svg>
