<svg width="32" height="32" viewBox="0 0 32 32" fill="none" xmlns="http://www.w3.org/2000/svg">
<g clip-path="url(#clip0_1135_4158)">
<path d="M32 22.86H25.91V24.38H32V22.86Z" fill="currentColor"/>
<path d="M28.95 13.71H27.43V16.76H28.95V13.71Z" fill="currentColor"/>
<path d="M27.43 7.61997V9.13997H30.48V6.08997H28.95V7.61997H27.43Z" fill="currentColor"/>
<path d="M28.95 4.57007H27.43V6.09007H28.95V4.57007Z" fill="currentColor"/>
<path d="M27.43 16.76H25.91V18.28H27.43V16.76Z" fill="currentColor"/>
<path d="M27.43 12.1901H25.91V13.7101H27.43V12.1901Z" fill="currentColor"/>
<path d="M27.43 6.08997H18.29V7.61997H27.43V6.08997Z" fill="currentColor"/>
<path d="M27.43 3.05005H25.91V4.57005H27.43V3.05005Z" fill="currentColor"/>
<path d="M25.91 24.38H24.38V25.9H25.91V24.38Z" fill="currentColor"/>
<path d="M25.91 15.24H24.38V16.76H25.91V15.24Z" fill="currentColor"/>
<path d="M25.91 10.67H24.38V12.19H25.91V10.67Z" fill="currentColor"/>
<path d="M24.38 13.71H21.34V15.24H24.38V13.71Z" fill="currentColor"/>
<path d="M22.86 19.8101H21.34V16.7601H19.81V15.2401H18.29V13.7101H16.76V12.1901H12.19V15.2401H13.72V18.2801H15.24V21.3301H16.76V28.9501H15.24V30.4801H25.91V28.9501H24.38V25.9001H22.86V19.8101ZM19.81 28.9501H18.29V25.9001H19.81V28.9501ZM19.81 22.8601H18.29V19.8101H16.76V16.7601H15.24V15.2401H16.76V16.7601H18.29V19.8101H19.81V22.8601Z" fill="currentColor"/>
<path d="M21.34 12.1901H18.29V13.7101H21.34V12.1901Z" fill="currentColor"/>
<path d="M25.91 1.52002H16.76V3.05002H25.91V1.52002Z" fill="currentColor"/>
<path d="M16.76 10.67H24.38V9.14H18.29V7.62H16.76V10.67Z" fill="currentColor"/>
<path d="M16.76 3.05005H15.24V4.57005H16.76V3.05005Z" fill="currentColor"/>
<path d="M15.24 24.38H9.14001V25.9H15.24V24.38Z" fill="currentColor"/>
<path d="M15.24 4.57007H13.72V6.09007H15.24V4.57007Z" fill="currentColor"/>
<path d="M13.72 6.08997H12.19V7.61997H13.72V6.08997Z" fill="currentColor"/>
<path d="M12.19 15.24H10.67V19.81H12.19V15.24Z" fill="currentColor"/>
<path d="M12.19 4.57007H10.67V6.09007H12.19V4.57007Z" fill="currentColor"/>
<path d="M10.67 19.8101H9.14001V21.3301H10.67V19.8101Z" fill="currentColor"/>
<path d="M9.14 15.2401H10.67V12.1901H7.62V13.7101H9.14V15.2401Z" fill="currentColor"/>
<path d="M9.14 25.9H7.62V27.43H9.14V25.9Z" fill="currentColor"/>
<path d="M9.14 21.3301H7.62V22.8601H9.14V21.3301Z" fill="currentColor"/>
<path d="M9.14 15.24H7.62V16.76H9.14V15.24Z" fill="currentColor"/>
<path d="M4.57001 9.14V10.67H10.67V7.62H9.14001V9.14H4.57001Z" fill="currentColor"/>
<path d="M7.61998 16.76H6.09998V21.33H7.61998V16.76Z" fill="currentColor"/>
<path d="M7.61998 13.71H6.09998V15.24H7.61998V13.71Z" fill="currentColor"/>
<path d="M9.14001 6.08997H4.57001V7.61997H9.14001V6.08997Z" fill="currentColor"/>
<path d="M7.62003 27.4301H1.53003V28.9501H7.62003V27.4301Z" fill="currentColor"/>
<path d="M6.10001 15.24H4.57001V16.76H6.10001V15.24Z" fill="currentColor"/>
<path d="M10.67 3.05005H3.04999V4.57005H10.67V3.05005Z" fill="currentColor"/>
<path d="M4.56999 16.76H3.04999V19.81H4.56999V16.76Z" fill="currentColor"/>
<path d="M4.56999 10.67H3.04999V12.19H4.56999V10.67Z" fill="currentColor"/>
<path d="M4.56999 7.62H3.04999V9.14H4.56999V7.62Z" fill="currentColor"/>
<path d="M3.05003 19.8101H1.53003V21.3301H3.05003V19.8101Z" fill="currentColor"/>
<path d="M3.05003 12.1901H1.53003V13.7101H3.05003V12.1901Z" fill="currentColor"/>
<path d="M3.05003 9.14001H1.53003V10.67H3.05003V9.14001Z" fill="currentColor"/>
<path d="M3.05003 4.57007H1.53003V6.09007H3.05003V4.57007Z" fill="currentColor"/>
<path d="M1.53 28.9501H0V30.4801H1.53V28.9501Z" fill="currentColor"/>
<path d="M1.53 13.71H0V19.81H1.53V13.71Z" fill="currentColor"/>
<path d="M1.53 6.08997H0V9.13997H1.53V6.08997Z" fill="currentColor"/>
</g>
<defs>
<clipPath id="clip0_1135_4158">
<rect width="32" height="32" fill="white"/>
</clipPath>
</defs>
</svg>
