<svg width="32" height="32" viewBox="0 0 32 32" fill="none" xmlns="http://www.w3.org/2000/svg">
<g clip-path="url(#clip0_1135_1882)">
<path d="M32 19.8101H30.48V22.8601H32V19.8101Z" fill="currentColor"/>
<path d="M32 13.72H30.48V15.24H32V13.72Z" fill="currentColor"/>
<path d="M32 10.67H30.48V12.19H32V10.67Z" fill="currentColor"/>
<path d="M32 7.62H30.48V9.14999H32V7.62Z" fill="currentColor"/>
<path d="M30.48 18.29H28.96V19.81H30.48V18.29Z" fill="currentColor"/>
<path d="M30.48 12.1899H28.96V13.7199H30.48V12.1899Z" fill="currentColor"/>
<path d="M30.48 9.15002H28.96V10.67H30.48V9.15002Z" fill="currentColor"/>
<path d="M30.48 1.53003H28.96V4.57003H30.48V1.53003Z" fill="currentColor"/>
<path d="M27.43 16.76V15.24H25.91V25.91H22.86V27.43H21.34V30.48H22.86V32H25.91V30.48H27.43V18.29H28.96V16.76H27.43Z" fill="currentColor"/>
<path d="M28.96 4.56995H27.43V6.09995H28.96V4.56995Z" fill="currentColor"/>
<path d="M28.96 0H25.91V1.53H28.96V0Z" fill="currentColor"/>
<path d="M27.43 6.09998H25.91V7.61998H27.43V6.09998Z" fill="currentColor"/>
<path d="M25.91 7.62H24.38V9.14999H25.91V7.62Z" fill="currentColor"/>
<path d="M25.91 1.53003H24.38V3.05003H25.91V1.53003Z" fill="currentColor"/>
<path d="M24.38 12.1899H22.86V13.7199H24.38V12.1899Z" fill="currentColor"/>
<path d="M24.38 6.09998H22.86V7.61998H24.38V6.09998Z" fill="currentColor"/>
<path d="M24.38 0H21.34V1.53H24.38V0Z" fill="currentColor"/>
<path d="M22.86 19.8101H21.34V22.8601H22.86V19.8101Z" fill="currentColor"/>
<path d="M22.86 13.72H21.34V15.24H22.86V13.72Z" fill="currentColor"/>
<path d="M22.86 10.67H21.34V12.19H22.86V10.67Z" fill="currentColor"/>
<path d="M22.86 4.56995H21.34V6.09995H22.86V4.56995Z" fill="currentColor"/>
<path d="M21.34 22.86H18.29V24.38H21.34V22.86Z" fill="currentColor"/>
<path d="M21.34 18.29H18.29V19.81H21.34V18.29Z" fill="currentColor"/>
<path d="M21.34 12.1899H19.81V13.7199H21.34V12.1899Z" fill="currentColor"/>
<path d="M21.34 1.53003H19.81V4.57003H21.34V1.53003Z" fill="currentColor"/>
<path d="M18.29 19.8101H16.77V22.8601H18.29V19.8101Z" fill="currentColor"/>
<path d="M16.77 30.48V28.96H18.29V27.43H16.77V25.91H15.24V27.43H13.72V28.96H15.24V30.48H16.77Z" fill="currentColor"/>
<path d="M15.24 0H12.19V1.53H15.24V0Z" fill="currentColor"/>
<path d="M12.19 9.15003V10.67H10.67V13.72H12.19V15.24H15.24V13.72H16.77V1.53003H15.24V9.15003H12.19Z" fill="currentColor"/>
<path d="M12.19 21.34H10.67V22.86H12.19V21.34Z" fill="currentColor"/>
<path d="M10.67 22.86H9.15002V24.38H10.67V22.86Z" fill="currentColor"/>
<path d="M10.67 19.8101H9.15002V21.3401H10.67V19.8101Z" fill="currentColor"/>
<path d="M12.19 1.53003H9.15002V3.05003H12.19V1.53003Z" fill="currentColor"/>
<path d="M9.14999 27.4301H7.62V28.9601H9.14999V27.4301Z" fill="currentColor"/>
<path d="M9.14999 21.34H7.62V22.86H9.14999V21.34Z" fill="currentColor"/>
<path d="M7.61998 25.91H6.09998V27.43H7.61998V25.91Z" fill="currentColor"/>
<path d="M9.14998 3.05005H6.09998V4.57005H9.14998V3.05005Z" fill="currentColor"/>
<path d="M6.10002 27.4301H4.58002V28.9601H6.10002V27.4301Z" fill="currentColor"/>
<path d="M1.53 19.8099H4.58V18.2899H6.1V4.56995H4.58V13.7199H1.53V15.2399H0V18.2899H1.53V19.8099Z" fill="currentColor"/>
<path d="M4.57999 25.91H3.04999V27.43H4.57999V25.91Z" fill="currentColor"/>
<path d="M3.05003 27.4301H1.53003V28.9601H3.05003V27.4301Z" fill="currentColor"/>
</g>
<defs>
<clipPath id="clip0_1135_1882">
<rect width="32" height="32" fill="white"/>
</clipPath>
</defs>
</svg>
