<svg width="32" height="32" viewBox="0 0 32 32" fill="none" xmlns="http://www.w3.org/2000/svg">
<path d="M24.385 22.86H22.855V24.38H24.385V22.86Z" fill="currentColor"/>
<path d="M24.385 7.62H22.855V9.14H24.385V7.62Z" fill="currentColor"/>
<path d="M22.855 24.38H21.335V25.9H22.855V24.38Z" fill="currentColor"/>
<path d="M22.855 6.09H21.335V7.62H22.855V6.09Z" fill="currentColor"/>
<path d="M21.3349 25.9H19.8049V27.43H21.3349V25.9Z" fill="currentColor"/>
<path d="M22.855 9.14H9.14502V10.67H22.855V9.14Z" fill="currentColor"/>
<path d="M21.3349 4.57001H19.8049V6.09001H21.3349V4.57001Z" fill="currentColor"/>
<path d="M19.805 27.43H18.285V28.95H19.805V27.43Z" fill="currentColor"/>
<path d="M19.805 3.05H18.285V4.57H19.805V3.05Z" fill="currentColor"/>
<path d="M18.285 28.95H16.765V30.48H18.285V28.95Z" fill="currentColor"/>
<path d="M18.2849 19.81V18.29H19.8049V13.71H18.2849V12.19H13.7149V13.71H12.1949V18.29H13.7149V19.81H18.2849Z" fill="currentColor"/>
<path d="M18.285 1.52H16.765V3.05H18.285V1.52Z" fill="currentColor"/>
<path d="M16.765 30.48H15.235V32H16.765V30.48Z" fill="currentColor"/>
<path d="M16.765 0H15.235V1.52H16.765V0Z" fill="currentColor"/>
<path d="M15.235 28.95H13.715V30.48H15.235V28.95Z" fill="currentColor"/>
<path d="M15.235 1.52H13.715V3.05H15.235V1.52Z" fill="currentColor"/>
<path d="M13.7149 27.43H12.1949V28.95H13.7149V27.43Z" fill="currentColor"/>
<path d="M13.7149 3.05H12.1949V4.57H13.7149V3.05Z" fill="currentColor"/>
<path d="M12.195 25.9H10.665V27.43H12.195V25.9Z" fill="currentColor"/>
<path d="M22.855 21.33H9.14502V22.86H22.855V21.33Z" fill="currentColor"/>
<path d="M12.195 4.57001H10.665V6.09001H12.195V4.57001Z" fill="currentColor"/>
<path d="M10.665 24.38H9.14502V25.9H10.665V24.38Z" fill="currentColor"/>
<path d="M10.665 6.09H9.14502V7.62H10.665V6.09Z" fill="currentColor"/>
<path d="M9.14499 22.86H7.61499V24.38H9.14499V22.86Z" fill="currentColor"/>
<path d="M9.14499 7.62H7.61499V9.14H9.14499V7.62Z" fill="currentColor"/>
</svg>
