<svg width="32" height="32" viewBox="0 0 32 32" fill="none" xmlns="http://www.w3.org/2000/svg">
<g clip-path="url(#clip0_1128_7812)">
<path d="M32 16.77H30.48V21.34H32V16.77Z" fill="currentColor"/>
<path d="M32.0001 0H22.8601V3.05H24.3801V1.53H30.4801V3.05H32.0001V0Z" fill="currentColor"/>
<path d="M30.4799 21.34H28.95V24.38H30.4799V21.34Z" fill="currentColor"/>
<path d="M30.4799 3.04999H28.95V4.56999H30.4799V3.04999Z" fill="currentColor"/>
<path d="M28.9501 10.67H27.4301V12.19H28.9501V10.67Z" fill="currentColor"/>
<path d="M28.9501 4.57001H27.4301V6.10001H28.9501V4.57001Z" fill="currentColor"/>
<path d="M28.95 24.38H25.91V25.91H28.95V24.38Z" fill="currentColor"/>
<path d="M27.43 12.19H25.91V13.72H27.43V12.19Z" fill="currentColor"/>
<path d="M25.91 7.61998H24.38V9.14998H28.95V10.67H30.48V7.61998H27.43V6.09998H25.91V7.61998Z" fill="currentColor"/>
<path d="M25.91 13.72H24.38V15.24H25.91V13.72Z" fill="currentColor"/>
<path d="M21.33 32V27.43H25.91V25.91H21.33V21.34H19.81V22.86H18.29V24.38H16.76V25.91H15.24V27.43H16.76V28.96H18.29V30.48H19.81V32H21.33Z" fill="currentColor"/>
<path d="M24.3801 15.24H22.8601V16.77H24.3801V15.24Z" fill="currentColor"/>
<path d="M22.8601 16.77H21.3301V18.29H22.8601V16.77Z" fill="currentColor"/>
<path d="M22.86 10.67H19.81V9.15002H18.29V12.19H21.33V13.72H22.86V10.67Z" fill="currentColor"/>
<path d="M22.8601 3.04999H21.3301V6.09999H22.8601V3.04999Z" fill="currentColor"/>
<path d="M21.3301 13.72H19.8101V16.77H21.3301V13.72Z" fill="currentColor"/>
<path d="M21.3301 6.09998H19.8101V9.14998H21.3301V6.09998Z" fill="currentColor"/>
<path d="M19.81 16.77H18.29V19.81H21.33V18.29H19.81V16.77Z" fill="currentColor"/>
<path d="M12.1899 24.38H13.7199V18.29H15.2399V16.77H10.6699V18.29H12.1899V24.38Z" fill="currentColor"/>
<path d="M12.1899 24.38H10.6699V25.91H12.1899V24.38Z" fill="currentColor"/>
<path d="M10.6699 25.91H9.13989V27.43H10.6699V25.91Z" fill="currentColor"/>
<path d="M10.6701 18.29H7.62012V19.81H10.6701V18.29Z" fill="currentColor"/>
<path d="M9.1401 22.86H6.1001V24.38H9.1401V22.86Z" fill="currentColor"/>
<path d="M10.6701 7.62003V12.19H12.1901V10.67H13.7201V9.15003H15.2401V7.62003H16.7601V6.10003H15.2401V4.57003H13.7201V3.05003H12.1901V1.53003H10.6701V6.10003H6.1001V7.62003H10.6701Z" fill="currentColor"/>
<path d="M9.14007 27.43H4.57007V28.96H9.14007V27.43Z" fill="currentColor"/>
<path d="M7.62007 19.81H4.57007V21.34H7.62007V19.81Z" fill="currentColor"/>
<path d="M6.10007 24.38H4.57007V25.91H6.10007V24.38Z" fill="currentColor"/>
<path d="M6.10005 7.62H3.05005V9.14999H6.10005V7.62Z" fill="currentColor"/>
<path d="M4.57005 25.91H3.05005V27.43H4.57005V25.91Z" fill="currentColor"/>
<path d="M4.57005 21.34H3.05005V22.86H4.57005V21.34Z" fill="currentColor"/>
<path d="M3.05002 22.86H1.52002V25.91H3.05002V22.86Z" fill="currentColor"/>
<path d="M3.05002 9.15002H1.52002V12.19H3.05002V9.15002Z" fill="currentColor"/>
<path d="M3.05 27.43H0V28.96H3.05V27.43Z" fill="currentColor"/>
<path d="M1.52 12.19H0V16.77H1.52V12.19Z" fill="currentColor"/>
</g>
<defs>
<clipPath id="clip0_1128_7812">
<rect width="32" height="32" fill="white"/>
</clipPath>
</defs>
</svg>
