<svg width="32" height="32" viewBox="0 0 32 32" fill="none" xmlns="http://www.w3.org/2000/svg">
<g clip-path="url(#clip0_1128_5454)">
<path d="M1.52 22.85H30.47V25.9H32V1.52002H30.47V21.33H1.52V1.52002H0V25.9H1.52V22.85Z" fill="currentColor"/>
<path d="M1.52002 25.9V27.42H10.67V28.95H12.19V27.42H19.81V28.95H21.33V27.42H30.47V25.9H1.52002Z" fill="currentColor"/>
<path d="M22.86 6.09003H21.33V9.14003H22.86V6.09003Z" fill="currentColor"/>
<path d="M10.67 30.47V28.95H9.14001V32H22.86V28.95H21.33V30.47H10.67Z" fill="currentColor"/>
<path d="M18.2799 7.60998V4.56998H19.8099V3.03998H16.7599V6.08998H15.2399V3.03998H12.1899V4.56998H13.7099V7.60998H18.2799Z" fill="currentColor"/>
<path d="M10.67 16.76H9.14V19.81H10.67V18.28H13.71V19.81H18.28V18.28H21.33V19.81H22.86V16.76H21.33V13.71H24.38V12.19H21.33V9.13999H19.81V7.60999H18.28V9.13999H13.71V7.60999H12.19V9.13999H10.67V12.19H7.62V13.71H10.67V16.76ZM12.19 12.19H19.81V13.71H16.76V18.28H15.24V13.71H12.19V12.19Z" fill="currentColor"/>
<path d="M10.67 6.09003H9.14001V9.14003H10.67V6.09003Z" fill="currentColor"/>
<path d="M30.47 0H1.52002V1.52H30.47V0Z" fill="currentColor"/>
</g>
<defs>
<clipPath id="clip0_1128_5454">
<rect width="32" height="32" fill="white"/>
</clipPath>
</defs>
</svg>
