<svg width="32" height="32" viewBox="0 0 32 32" fill="none" xmlns="http://www.w3.org/2000/svg">
<g clip-path="url(#clip0_1128_13167)">
<path d="M32 7.62H30.48V18.28H32V7.62Z" fill="currentColor"/>
<path d="M30.4799 18.28H28.95V19.81H30.4799V18.28Z" fill="currentColor"/>
<path d="M30.4799 6.09H28.95V7.62H30.4799V6.09Z" fill="currentColor"/>
<path d="M28.9501 19.81H19.8101V21.33H28.9501V19.81Z" fill="currentColor"/>
<path d="M27.43 10.67H25.91V15.24H27.43V10.67Z" fill="currentColor"/>
<path d="M25.9101 9.13998H19.8101V10.67H25.9101V9.13998Z" fill="currentColor"/>
<path d="M25.9101 15.24H19.8101V16.76H25.9101V15.24Z" fill="currentColor"/>
<path d="M28.9501 4.56998H19.8101V6.08998H28.9501V4.56998Z" fill="currentColor"/>
<path d="M19.81 16.76H18.29V19.81H19.81V16.76Z" fill="currentColor"/>
<path d="M19.81 6.09H18.29V9.14H19.81V6.09Z" fill="currentColor"/>
<path d="M16.76 21.33H15.24V24.38H16.76V21.33Z" fill="currentColor"/>
<path d="M15.24 24.38H13.72V25.9H15.24V24.38Z" fill="currentColor"/>
<path d="M15.2399 19.81H12.1899V21.33H15.2399V19.81Z" fill="currentColor"/>
<path d="M15.24 1.51999H13.72V6.08999H15.24V1.51999Z" fill="currentColor"/>
<path d="M13.7199 25.9H12.1899V27.43H13.7199V25.9Z" fill="currentColor"/>
<path d="M12.19 27.43H10.67V28.95H12.19V27.43Z" fill="currentColor"/>
<path d="M12.19 21.33H10.67V22.86H12.19V21.33Z" fill="currentColor"/>
<path d="M10.67 22.86H9.15002V24.38H10.67V22.86Z" fill="currentColor"/>
<path d="M10.67 15.24H9.15002V18.28H10.67V15.24Z" fill="currentColor"/>
<path d="M10.6699 28.95H4.56995V30.48H10.6699V28.95Z" fill="currentColor"/>
<path d="M9.14999 18.28H7.62V19.81H9.14999V18.28Z" fill="currentColor"/>
<path d="M9.14998 13.71H6.09998V15.24H9.14998V13.71Z" fill="currentColor"/>
<path d="M9.14998 24.38H6.09998V25.9H9.14998V24.38Z" fill="currentColor"/>
<path d="M7.61998 19.81H6.09998V21.33H7.61998V19.81Z" fill="currentColor"/>
<path d="M9.14995 9.13998H4.56995V10.67H9.14995V9.13998Z" fill="currentColor"/>
<path d="M4.56995 3.04999H7.61995V6.08999H10.6699V9.13999H12.1899V4.56999H9.14995V1.51999H4.56995V3.04999Z" fill="currentColor"/>
<path d="M6.09995 21.33H4.56995V24.38H6.09995V21.33Z" fill="currentColor"/>
<path d="M6.09995 15.24H4.56995V16.76H6.09995V15.24Z" fill="currentColor"/>
<path d="M4.57005 27.43H3.05005V28.95H4.57005V27.43Z" fill="currentColor"/>
<path d="M4.57005 16.76H3.05005V18.28H4.57005V16.76Z" fill="currentColor"/>
<path d="M3.05003 25.9H1.53003V27.43H3.05003V25.9Z" fill="currentColor"/>
<path d="M3.05003 18.28H1.53003V19.81H3.05003V18.28Z" fill="currentColor"/>
<path d="M1.53 19.81H0V25.9H1.53V19.81Z" fill="currentColor"/>
</g>
<defs>
<clipPath id="clip0_1128_13167">
<rect width="32" height="32" fill="white"/>
</clipPath>
</defs>
</svg>
