<svg width="32" height="32" viewBox="0 0 32 32" fill="none" xmlns="http://www.w3.org/2000/svg">
<g clip-path="url(#clip0_1128_10234)">
<path d="M32 22.86H30.48V27.43H32V22.86Z" fill="currentColor"/>
<path d="M32 4.57001H30.48V9.15001H32V4.57001Z" fill="currentColor"/>
<path d="M30.48 27.43H28.96V28.96H30.48V27.43Z" fill="currentColor"/>
<path d="M30.48 21.34H28.96V22.86H30.48V21.34Z" fill="currentColor"/>
<path d="M30.48 9.15002H28.96V10.67H30.48V9.15002Z" fill="currentColor"/>
<path d="M30.48 3.04999H28.96V4.56999H30.48V3.04999Z" fill="currentColor"/>
<path d="M28.96 28.96H27.43V30.48H28.96V28.96Z" fill="currentColor"/>
<path d="M28.96 24.38H27.43V25.91H28.96V24.38Z" fill="currentColor"/>
<path d="M28.96 19.81H27.43V21.34H28.96V19.81Z" fill="currentColor"/>
<path d="M28.96 10.67H27.43V12.19H28.96V10.67Z" fill="currentColor"/>
<path d="M28.96 1.53003H27.43V3.05003H28.96V1.53003Z" fill="currentColor"/>
<path d="M27.43 18.29H25.91V19.81H27.43V18.29Z" fill="currentColor"/>
<path d="M27.43 12.19H25.91V13.72H27.43V12.19Z" fill="currentColor"/>
<path d="M27.43 7.62H25.91V9.14999H27.43V7.62Z" fill="currentColor"/>
<path d="M27.43 30.48H22.86V32H27.43V30.48Z" fill="currentColor"/>
<path d="M25.91 27.43H24.39V28.96H25.91V27.43Z" fill="currentColor"/>
<path d="M25.91 24.38H24.39V25.91H25.91V24.38Z" fill="currentColor"/>
<path d="M25.91 21.34H24.39V22.86H25.91V21.34Z" fill="currentColor"/>
<path d="M25.91 13.72H24.39V15.24H25.91V13.72Z" fill="currentColor"/>
<path d="M27.43 0H22.86V1.53H27.43V0Z" fill="currentColor"/>
<path d="M24.39 10.67H22.86V12.19H24.39V10.67Z" fill="currentColor"/>
<path d="M24.39 7.62H22.86V9.14999H24.39V7.62Z" fill="currentColor"/>
<path d="M24.39 4.57001H22.86V6.10001H24.39V4.57001Z" fill="currentColor"/>
<path d="M22.86 28.96H21.34V30.48H22.86V28.96Z" fill="currentColor"/>
<path d="M22.86 24.38H21.34V25.91H22.86V24.38Z" fill="currentColor"/>
<path d="M22.86 13.72H21.34V12.19H19.81V10.67H18.29V9.14998H16.77V7.61998H15.24V6.09998H13.72V9.14998H12.2V10.67H10.67V12.19H9.15001V13.72H6.10001V15.24H7.62001V16.77H9.15001V18.29H10.67V19.81H12.2V21.34H13.72V22.86H15.24V24.38H16.77V25.91H18.29V22.86H19.81V21.34H21.34V19.81H22.86V18.29H25.91V16.77H24.39V15.24H22.86V13.72ZM19.81 16.77H18.29V18.29H16.77V19.81H15.24V18.29H13.72V16.77H12.2V13.72H13.72V12.19H15.24V13.72H16.77V12.19H18.29V13.72H19.81V16.77Z" fill="currentColor"/>
<path d="M22.86 1.53003H21.34V3.05003H22.86V1.53003Z" fill="currentColor"/>
<path d="M21.34 27.43H19.81V28.96H21.34V27.43Z" fill="currentColor"/>
<path d="M21.34 7.62H19.81V9.14999H21.34V7.62Z" fill="currentColor"/>
<path d="M21.34 3.04999H19.81V4.56999H21.34V3.04999Z" fill="currentColor"/>
<path d="M19.81 25.91H18.29V27.43H19.81V25.91Z" fill="currentColor"/>
<path d="M19.81 4.57001H18.29V6.10001H19.81V4.57001Z" fill="currentColor"/>
<path d="M18.29 6.09998H16.77V7.61998H18.29V6.09998Z" fill="currentColor"/>
<path d="M15.24 24.38H13.72V25.91H15.24V24.38Z" fill="currentColor"/>
<path d="M13.72 25.91H12.2V27.43H13.72V25.91Z" fill="currentColor"/>
<path d="M13.72 4.57001H12.2V6.10001H13.72V4.57001Z" fill="currentColor"/>
<path d="M12.2 27.43H10.67V28.96H12.2V27.43Z" fill="currentColor"/>
<path d="M12.2 22.86H10.67V24.38H12.2V22.86Z" fill="currentColor"/>
<path d="M12.2 3.04999H10.67V4.56999H12.2V3.04999Z" fill="currentColor"/>
<path d="M10.67 28.96H9.14999V30.48H10.67V28.96Z" fill="currentColor"/>
<path d="M10.67 6.09998H9.14999V7.61998H10.67V6.09998Z" fill="currentColor"/>
<path d="M10.67 1.53003H9.14999V3.05003H10.67V1.53003Z" fill="currentColor"/>
<path d="M9.14999 25.91H7.62V27.43H9.14999V25.91Z" fill="currentColor"/>
<path d="M9.14999 22.86H7.62V24.38H9.14999V22.86Z" fill="currentColor"/>
<path d="M9.14999 19.81H7.62V21.34H9.14999V19.81Z" fill="currentColor"/>
<path d="M9.14999 30.48H4.57999V32H9.14999V30.48Z" fill="currentColor"/>
<path d="M7.62001 16.77H6.10001V18.29H7.62001V16.77Z" fill="currentColor"/>
<path d="M7.62001 9.15002H6.10001V10.67H7.62001V9.15002Z" fill="currentColor"/>
<path d="M7.62001 6.09998H6.10001V7.61998H7.62001V6.09998Z" fill="currentColor"/>
<path d="M7.62001 3.04999H6.10001V4.56999H7.62001V3.04999Z" fill="currentColor"/>
<path d="M9.14999 0H4.57999V1.53H9.14999V0Z" fill="currentColor"/>
<path d="M6.09999 22.86H4.57999V24.38H6.09999V22.86Z" fill="currentColor"/>
<path d="M6.09999 18.29H4.57999V19.81H6.09999V18.29Z" fill="currentColor"/>
<path d="M6.09999 12.19H4.57999V13.72H6.09999V12.19Z" fill="currentColor"/>
<path d="M4.57999 28.96H3.04999V30.48H4.57999V28.96Z" fill="currentColor"/>
<path d="M4.57999 19.81H3.04999V21.34H4.57999V19.81Z" fill="currentColor"/>
<path d="M4.57999 10.67H3.04999V12.19H4.57999V10.67Z" fill="currentColor"/>
<path d="M4.57999 6.09998H3.04999V7.61998H4.57999V6.09998Z" fill="currentColor"/>
<path d="M4.57999 1.53003H3.04999V3.05003H4.57999V1.53003Z" fill="currentColor"/>
<path d="M3.05 27.43H1.53V28.96H3.05V27.43Z" fill="currentColor"/>
<path d="M3.05 21.34H1.53V22.86H3.05V21.34Z" fill="currentColor"/>
<path d="M3.05 9.15002H1.53V10.67H3.05V9.15002Z" fill="currentColor"/>
<path d="M3.05 3.04999H1.53V4.56999H3.05V3.04999Z" fill="currentColor"/>
<path d="M1.53 22.86H0V27.43H1.53V22.86Z" fill="currentColor"/>
<path d="M1.53 4.57001H0V9.15001H1.53V4.57001Z" fill="currentColor"/>
</g>
<defs>
<clipPath id="clip0_1128_10234">
<rect width="32" height="32" fill="white"/>
</clipPath>
</defs>
</svg>
