<svg width="32" height="32" viewBox="0 0 32 32" fill="none" xmlns="http://www.w3.org/2000/svg">
<g clip-path="url(#clip0_1128_10997)">
<path d="M32 9.905H30.47V22.095H32V9.905Z" fill="currentColor"/>
<path d="M30.4699 22.095H28.95V23.615H30.4699V22.095Z" fill="currentColor"/>
<path d="M30.4699 8.375H28.95V9.905H30.4699V8.375Z" fill="currentColor"/>
<path d="M28.9501 23.615H27.4301V25.135H28.9501V23.615Z" fill="currentColor"/>
<path d="M28.9501 12.945H27.4301V19.045H28.9501V12.945Z" fill="currentColor"/>
<path d="M28.9501 6.85501H27.4301V8.37501H28.9501V6.85501Z" fill="currentColor"/>
<path d="M27.43 19.045H25.9V20.565H27.43V19.045Z" fill="currentColor"/>
<path d="M27.43 11.425H25.9V12.945H27.43V11.425Z" fill="currentColor"/>
<path d="M25.9 14.475H24.38V17.525H25.9V14.475Z" fill="currentColor"/>
<path d="M22.85 5.33499H21.33V26.665H22.85V5.33499Z" fill="currentColor"/>
<path d="M21.3301 26.665H19.8101V28.185H21.3301V26.665Z" fill="currentColor"/>
<path d="M21.3301 3.80499H19.8101V5.33499H21.3301V3.80499Z" fill="currentColor"/>
<path d="M19.81 28.185H15.24V29.715H19.81V28.185Z" fill="currentColor"/>
<path d="M18.28 22.095H16.76V23.615H18.28V22.095Z" fill="currentColor"/>
<path d="M18.28 8.375H16.76V9.905H18.28V8.375Z" fill="currentColor"/>
<path d="M19.81 2.285H15.24V3.805H19.81V2.285Z" fill="currentColor"/>
<path d="M16.76 9.905H15.24V22.095H16.76V9.905Z" fill="currentColor"/>
<path d="M15.24 26.665H13.71V28.185H15.24V26.665Z" fill="currentColor"/>
<path d="M15.24 3.80499H13.71V5.33499H15.24V3.80499Z" fill="currentColor"/>
<path d="M13.7099 25.135H12.1899V26.665H13.7099V25.135Z" fill="currentColor"/>
<path d="M13.7099 5.33499H12.1899V6.85499H13.7099V5.33499Z" fill="currentColor"/>
<path d="M12.19 23.615H10.66V25.135H12.19V23.615Z" fill="currentColor"/>
<path d="M12.19 6.85501H10.66V8.37501H12.19V6.85501Z" fill="currentColor"/>
<path d="M10.66 22.095H9.14001V23.615H10.66V22.095Z" fill="currentColor"/>
<path d="M10.66 8.375H9.14001V9.905H10.66V8.375Z" fill="currentColor"/>
<path d="M9.14 20.565H7.62V22.095H9.14V20.565Z" fill="currentColor"/>
<path d="M9.14 9.905H7.62V11.425H9.14V9.905Z" fill="currentColor"/>
<path d="M7.62 11.425H1.52V12.945H0V19.045H1.52V20.565H7.62V11.425ZM4.57 14.475H3.05V17.525H1.52V14.475H3.05V12.945H4.57V14.475Z" fill="currentColor"/>
</g>
<defs>
<clipPath id="clip0_1128_10997">
<rect width="32" height="32" fill="white"/>
</clipPath>
</defs>
</svg>
