<svg width="32" height="32" viewBox="0 0 32 32" fill="none" xmlns="http://www.w3.org/2000/svg">
<g clip-path="url(#clip0_1128_10301)">
<path d="M30.48 9.15H28.96V6.1H27.43V4.57H25.91V3.05H22.86V1.53H19.81V0H12.2V1.53H9.15V3.05H6.1V4.57H4.58V6.1H3.05V9.15H1.53V12.19H0V19.81H1.53V22.86H3.05V25.91H4.58V27.43H6.1V28.96H9.15V30.48H12.2V32H19.81V30.48H22.86V28.96H25.91V27.43H27.43V25.91H28.96V22.86H30.48V19.81H32V12.19H30.48V9.15ZM22.86 27.43H19.81V28.96H12.2V27.43H9.15V25.91H7.62V24.38H6.1V22.86H4.58V19.81H3.05V12.19H4.58V9.15H7.62V10.67H9.15V12.19H10.67V13.72H12.2V15.24H13.72V16.77H15.24V18.29H16.77V19.81H18.29V21.34H19.81V22.86H21.34V24.38H22.86V27.43ZM28.96 19.81H27.43V22.86H24.39V21.34H22.86V19.81H21.34V18.29H19.81V16.77H18.29V15.24H16.77V13.72H15.24V12.19H13.72V10.67H12.2V9.15H10.67V7.62H9.15V4.57H12.2V3.05H19.81V4.57H22.86V6.1H24.39V7.62H25.91V9.15H27.43V12.19H28.96V19.81Z" fill="currentColor"/>
<path d="M24.39 9.14999H22.86V7.62H21.34V10.67H24.39V9.14999Z" fill="currentColor"/>
<path d="M22.86 16.77H24.39V18.29H25.91V13.72H24.39V15.24H22.86V13.72H21.34V18.29H22.86V16.77Z" fill="currentColor"/>
<path d="M19.81 12.19V13.72H21.34V10.67H18.29V12.19H19.81Z" fill="currentColor"/>
<path d="M13.72 21.34V22.86H15.24V24.38H13.72V25.91H18.29V24.38H16.77V22.86H18.29V21.34H13.72Z" fill="currentColor"/>
<path d="M18.29 10.67V9.14998H16.77V7.61998H18.29V6.09998H13.72V7.61998H15.24V9.14998H13.72V10.67H18.29Z" fill="currentColor"/>
<path d="M12.2 19.81V18.29H10.67V21.34H13.72V19.81H12.2Z" fill="currentColor"/>
<path d="M9.15001 15.24H7.62001V13.72H6.10001V18.29H7.62001V16.77H9.15001V18.29H10.67V13.72H9.15001V15.24Z" fill="currentColor"/>
<path d="M7.62 22.86H9.14999V24.38H10.67V21.34H7.62V22.86Z" fill="currentColor"/>
</g>
<defs>
<clipPath id="clip0_1128_10301">
<rect width="32" height="32" fill="white"/>
</clipPath>
</defs>
</svg>
