<svg width="32" height="32" viewBox="0 0 32 32" fill="none" xmlns="http://www.w3.org/2000/svg">
<g clip-path="url(#clip0_1128_11943)">
<path d="M31.24 28.96H29.71V30.48H31.24V28.96Z" fill="currentColor"/>
<path d="M31.24 1.53H29.71V3.05H31.24V1.53Z" fill="currentColor"/>
<path d="M29.7101 27.43H28.1901V28.96H29.7101V27.43Z" fill="currentColor"/>
<path d="M31.2401 15.24H11.4301V16.76H31.2401V15.24Z" fill="currentColor"/>
<path d="M29.7101 3.05H28.1901V4.57H29.7101V3.05Z" fill="currentColor"/>
<path d="M29.7099 30.48H12.95V32H29.7099V30.48Z" fill="currentColor"/>
<path d="M28.19 25.91H26.67V27.43H28.19V25.91Z" fill="currentColor"/>
<path d="M28.19 4.57H26.67V6.1H28.19V4.57Z" fill="currentColor"/>
<path d="M26.67 24.38H25.14V25.91H26.67V24.38Z" fill="currentColor"/>
<path d="M26.67 6.1H25.14V7.62H26.67V6.1Z" fill="currentColor"/>
<path d="M25.14 22.86H23.62V24.38H25.14V22.86Z" fill="currentColor"/>
<path d="M25.14 7.62H23.62V9.15H25.14V7.62Z" fill="currentColor"/>
<path d="M23.62 21.34H22.09V22.86H23.62V21.34Z" fill="currentColor"/>
<path d="M23.62 9.15H22.09V10.67H23.62V9.15Z" fill="currentColor"/>
<path d="M22.0901 19.81H20.5701V21.34H22.0901V19.81Z" fill="currentColor"/>
<path d="M22.0901 10.67H20.5701V12.19H22.0901V10.67Z" fill="currentColor"/>
<path d="M20.57 21.34H19.05V22.86H20.57V21.34Z" fill="currentColor"/>
<path d="M20.57 9.15H19.05V10.67H20.57V9.15Z" fill="currentColor"/>
<path d="M19.05 22.86H17.52V24.38H19.05V22.86Z" fill="currentColor"/>
<path d="M19.05 7.62H17.52V9.15H19.05V7.62Z" fill="currentColor"/>
<path d="M17.52 24.38H16V25.91H17.52V24.38Z" fill="currentColor"/>
<path d="M17.52 6.1H16V7.62H17.52V6.1Z" fill="currentColor"/>
<path d="M16 25.91H14.48V27.43H16V25.91Z" fill="currentColor"/>
<path d="M16 4.57H14.48V6.1H16V4.57Z" fill="currentColor"/>
<path d="M29.7099 0H12.95V1.53H29.7099V0Z" fill="currentColor"/>
<path d="M14.48 27.43H12.95V28.96H14.48V27.43Z" fill="currentColor"/>
<path d="M14.48 3.05H12.95V4.57H14.48V3.05Z" fill="currentColor"/>
<path d="M12.9501 28.96H11.4301V30.48H12.9501V28.96Z" fill="currentColor"/>
<path d="M12.9501 1.53H11.4301V3.05H12.9501V1.53Z" fill="currentColor"/>
<path d="M6.86006 27.43V25.91H8.38006V24.38H9.90006V22.86H11.4301V21.34H9.90006V19.81H8.38006V18.29H6.86006V16.76H5.33006V21.34H3.81006V22.86H5.33006V27.43H6.86006Z" fill="currentColor"/>
<path d="M6.86006 7.62H3.81006V9.15H6.86006V7.62Z" fill="currentColor"/>
<path d="M3.81004 19.81H2.29004V21.34H3.81004V19.81Z" fill="currentColor"/>
<path d="M3.81004 9.15H2.29004V10.67H3.81004V9.15Z" fill="currentColor"/>
<path d="M2.29001 10.67H0.76001V19.81H2.29001V10.67Z" fill="currentColor"/>
</g>
<defs>
<clipPath id="clip0_1128_11943">
<rect width="32" height="32" fill="white"/>
</clipPath>
</defs>
</svg>
