<svg width="32" height="32" viewBox="0 0 32 32" fill="none" xmlns="http://www.w3.org/2000/svg">
<path d="M6.86002 32H25.14V30.48H26.67V1.52H25.14V0H6.86002V1.52H5.33002V30.48H6.86002V32ZM16 1.52H19.05V3.05H16V1.52ZM12.95 1.52H14.48V3.05H12.95V1.52ZM6.86002 3.05H11.43V4.57H20.57V3.05H25.14V28.95H6.86002V3.05Z" fill="currentColor"/>
<path d="M22.09 15.24H20.57V16.76H22.09V15.24Z" fill="currentColor"/>
<path d="M19.05 19.81V21.33H22.09V18.29H20.57V19.81H19.05Z" fill="currentColor"/>
<path d="M20.57 16.76H19.05V18.29H20.57V16.76Z" fill="currentColor"/>
<path d="M19.05 10.67H20.57V13.71H22.09V9.14H19.05V10.67Z" fill="currentColor"/>
<path d="M16 12.19V15.24H19.05V13.71H17.52V12.19H16Z" fill="currentColor"/>
<path d="M17.52 16.76H16V18.29H17.52V16.76Z" fill="currentColor"/>
<path d="M17.52 9.14H14.48V10.67H17.52V9.14Z" fill="currentColor"/>
<path d="M17.52 19.81H14.48V21.33H17.52V19.81Z" fill="currentColor"/>
<path d="M14.48 15.24H12.95V18.29H14.48V15.24Z" fill="currentColor"/>
<path d="M14.48 12.19H12.95V13.71H14.48V12.19Z" fill="currentColor"/>
<path d="M11.43 18.29H9.90002V21.33H12.95V19.81H11.43V18.29Z" fill="currentColor"/>
<path d="M11.43 15.24H9.90002V16.76H11.43V15.24Z" fill="currentColor"/>
<path d="M11.43 10.67H12.95V9.14H9.90002V13.71H11.43V10.67Z" fill="currentColor"/>
</svg>
