<svg width="32" height="32" viewBox="0 0 32 32" fill="none" xmlns="http://www.w3.org/2000/svg">
<g clip-path="url(#clip0_1135_3426)">
<path d="M32 20.575H30.48V25.145H32V20.575Z" fill="currentColor"/>
<path d="M16.76 0.765015V12.955H15.24V14.475H13.72V17.525H15.24V20.575H16.76V17.525H27.43V19.045H28.95V17.525H30.48V14.475H32V0.765015H16.76ZM30.48 12.955H18.29V2.28501H22.86V5.33501H25.91V2.28501H30.48V12.955Z" fill="currentColor"/>
<path d="M30.48 19.045H28.95V20.575H30.48V19.045Z" fill="currentColor"/>
<path d="M28.95 22.095H27.43V25.145H18.29V22.095H16.76V23.615H15.24V20.575H13.72V23.615H10.67V25.145H6.10001V26.665H10.67V28.195H12.19V26.665H18.29V28.195H19.81V26.665H27.43V28.195H28.95V26.665H30.48V25.145H28.95V22.095Z" fill="currentColor"/>
<path d="M28.95 6.85501H27.43V8.38501H28.95V6.85501Z" fill="currentColor"/>
<path d="M27.43 28.195H25.91V29.715H27.43V28.195Z" fill="currentColor"/>
<path d="M27.43 20.575H25.91V22.095H27.43V20.575Z" fill="currentColor"/>
<path d="M28.95 9.90503H24.38V11.425H28.95V9.90503Z" fill="currentColor"/>
<path d="M25.91 6.85501H24.38V8.38501H25.91V6.85501Z" fill="currentColor"/>
<path d="M25.91 29.715H21.34V31.235H25.91V29.715Z" fill="currentColor"/>
<path d="M24.38 22.095H21.34V23.615H24.38V22.095Z" fill="currentColor"/>
<path d="M25.91 19.045H19.81V20.575H25.91V19.045Z" fill="currentColor"/>
<path d="M21.34 28.195H19.81V29.715H21.34V28.195Z" fill="currentColor"/>
<path d="M19.81 20.575H18.29V22.095H19.81V20.575Z" fill="currentColor"/>
<path d="M10.67 28.195H9.14999V29.715H10.67V28.195Z" fill="currentColor"/>
<path d="M9.14999 20.575H7.62V22.095H9.14999V23.615H10.67V11.425H9.14999V20.575Z" fill="currentColor"/>
<path d="M9.15001 9.90502H10.67V11.425H12.19V9.90502H15.24V8.38502H12.19V6.85502H10.67V5.33502H6.10001V6.85502H9.15001V9.90502Z" fill="currentColor"/>
<path d="M9.15001 29.715H4.57001V31.235H9.15001V29.715Z" fill="currentColor"/>
<path d="M7.62 8.38501H6.1V11.425H3.05V12.955H6.1V14.475H7.62V8.38501Z" fill="currentColor"/>
<path d="M6.10001 14.475H4.57001V17.525H6.10001V14.475Z" fill="currentColor"/>
<path d="M6.1 6.85501H3.05V8.38501H6.1V6.85501Z" fill="currentColor"/>
<path d="M4.57 28.195H3.05V29.715H4.57V28.195Z" fill="currentColor"/>
<path d="M7.62 20.575V19.045H4.57V17.525H3.05V19.045H1.53V20.575H7.62Z" fill="currentColor"/>
<path d="M6.1 25.145V23.615H1.53V20.575H0V25.145H1.53V28.195H3.05V25.145H6.1Z" fill="currentColor"/>
<path d="M3.05 8.38501H1.53V11.425H3.05V8.38501Z" fill="currentColor"/>
</g>
<defs>
<clipPath id="clip0_1135_3426">
<rect width="32" height="32" fill="white"/>
</clipPath>
</defs>
</svg>
