<svg width="32" height="32" viewBox="0 0 32 32" fill="none" xmlns="http://www.w3.org/2000/svg">
<g clip-path="url(#clip0_1128_12049)">
<path d="M30.47 9.14H28.95V10.67H25.9V12.19H22.85V19.81H25.9V21.33H28.95V22.86H30.47V19.81H28.95V15.24H30.47V19.81H32V12.19H30.47V9.14Z" fill="currentColor"/>
<path d="M28.9501 22.86H27.4301V25.9H28.9501V22.86Z" fill="currentColor"/>
<path d="M28.9501 6.1H27.4301V9.14H28.9501V6.1Z" fill="currentColor"/>
<path d="M27.43 25.9H25.9V27.43H27.43V25.9Z" fill="currentColor"/>
<path d="M27.43 4.57H25.9V6.1H27.43V4.57Z" fill="currentColor"/>
<path d="M25.9 27.43H22.85V28.95H25.9V27.43Z" fill="currentColor"/>
<path d="M25.9 3.05H22.85V4.57H25.9V3.05Z" fill="currentColor"/>
<path d="M22.85 19.81H21.33V21.33H22.85V19.81Z" fill="currentColor"/>
<path d="M22.85 10.67H21.33V12.19H22.85V10.67Z" fill="currentColor"/>
<path d="M21.33 25.9H19.81V22.86H12.19V25.9H10.66V28.95H9.14001V30.48H12.19V32H19.81V30.48H22.85V28.95H21.33V25.9Z" fill="currentColor"/>
<path d="M21.3301 21.33H19.8101V22.86H21.3301V21.33Z" fill="currentColor"/>
<path d="M21.3301 9.14H19.8101V10.67H21.3301V9.14Z" fill="currentColor"/>
<path d="M12.19 21.33H10.66V22.86H12.19V21.33Z" fill="currentColor"/>
<path d="M12.19 9.14H10.66V10.67H12.19V9.14Z" fill="currentColor"/>
<path d="M10.66 6.1H12.19V9.14H19.81V6.1H21.33V3.05H22.85V1.52H19.81V0H12.19V1.52H9.14001V3.05H10.66V6.1Z" fill="currentColor"/>
<path d="M10.66 19.81H9.14001V21.33H10.66V19.81Z" fill="currentColor"/>
<path d="M10.66 10.67H9.14001V12.19H10.66V10.67Z" fill="currentColor"/>
<path d="M9.13997 27.43H6.08997V28.95H9.13997V27.43Z" fill="currentColor"/>
<path d="M9.13997 3.05H6.08997V4.57H9.13997V3.05Z" fill="currentColor"/>
<path d="M6.08995 25.9H4.56995V27.43H6.08995V25.9Z" fill="currentColor"/>
<path d="M6.08995 4.57H4.56995V6.1H6.08995V4.57Z" fill="currentColor"/>
<path d="M4.57005 22.86H3.05005V25.9H4.57005V22.86Z" fill="currentColor"/>
<path d="M6.09 21.33V19.81H9.14V12.19H6.09V10.67H3.05V9.14H1.52V12.19H0V19.81H1.52V22.86H3.05V21.33H6.09Z" fill="currentColor"/>
<path d="M4.57005 6.1H3.05005V9.14H4.57005V6.1Z" fill="currentColor"/>
</g>
<defs>
<clipPath id="clip0_1128_12049">
<rect width="32" height="32" fill="white"/>
</clipPath>
</defs>
</svg>
