<svg width="32" height="32" viewBox="0 0 32 32" fill="none" xmlns="http://www.w3.org/2000/svg">
<path d="M17.5249 31.24V29.72H20.5649V28.19H23.6149V26.67H26.6649V25.14H28.1849V23.62H29.7149V8.37999H28.1849V6.85999H26.6649V8.37999H23.6149V9.90999H20.5649V11.43H17.5249V12.95H14.4749V14.48H15.9999V29.72H14.4799V31.24H17.5249ZM23.6149 12.95H26.6649V14.48H23.6149V12.95ZM19.0449 22.1H22.0999V25.14H19.0499L19.0449 22.1Z" fill="currentColor"/>
<path d="M26.6649 5.33997H23.6149V6.85997H26.6649V5.33997Z" fill="currentColor"/>
<path d="M23.6149 3.81006H20.5649V5.34006H23.6149V3.81006Z" fill="currentColor"/>
<path d="M20.5649 2.29004H17.5249V3.81004H20.5649V2.29004Z" fill="currentColor"/>
<path d="M17.5249 6.85999H14.4749V9.90999H17.5249V6.85999Z" fill="currentColor"/>
<path d="M17.5249 0.76001H14.4749V2.29001H17.5249V0.76001Z" fill="currentColor"/>
<path d="M14.4748 28.1901H11.4248V29.7201H14.4748V28.1901Z" fill="currentColor"/>
<path d="M14.4748 11.4301H11.4248V12.9501H14.4748V11.4301Z" fill="currentColor"/>
<path d="M14.4748 2.29004H11.4248V3.81004H14.4748V2.29004Z" fill="currentColor"/>
<path d="M14.4748 22.1H11.4248V25.14H14.4748V22.1Z" fill="currentColor"/>
<path d="M14.4748 16H11.4248V19.05H14.4748V16Z" fill="currentColor"/>
<path d="M11.425 26.67H8.375V28.19H11.425V26.67Z" fill="currentColor"/>
<path d="M11.425 9.91003H8.375V11.43H11.425V9.91003Z" fill="currentColor"/>
<path d="M11.425 3.81006H8.375V5.34006H11.425V3.81006Z" fill="currentColor"/>
<path d="M8.37496 25.14H5.33496V26.67H8.37496V25.14Z" fill="currentColor"/>
<path d="M8.37496 8.38H5.33496V9.91H8.37496V8.38Z" fill="currentColor"/>
<path d="M8.37496 5.33997H5.33496V6.85997H8.37496V5.33997Z" fill="currentColor"/>
<path d="M8.37496 19.05H5.33496V22.1H8.37496V19.05Z" fill="currentColor"/>
<path d="M8.37496 12.95H5.33496V16H8.37496V12.95Z" fill="currentColor"/>
<path d="M5.33493 23.62H3.80493V25.14H5.33493V23.62Z" fill="currentColor"/>
<path d="M5.33493 6.85999H3.80493V8.37999H5.33493V6.85999Z" fill="currentColor"/>
<path d="M3.80491 8.38H2.28491V23.62H3.80491V8.38Z" fill="currentColor"/>
</svg>
