<svg width="32" height="32" viewBox="0 0 32 32" fill="none" xmlns="http://www.w3.org/2000/svg">
<g clip-path="url(#clip0_1128_14973)">
<path d="M32 25.91H30.48V30.48H32V25.91Z" fill="currentColor"/>
<path d="M32 13.72H30.48V18.29H32V13.72Z" fill="currentColor"/>
<path d="M32 1.53003H30.48V6.10003H32V1.53003Z" fill="currentColor"/>
<path d="M30.4799 18.29H28.95V19.81H30.4799V18.29Z" fill="currentColor"/>
<path d="M30.4799 12.19H28.95V13.72H30.4799V12.19Z" fill="currentColor"/>
<path d="M30.48 0H25.91V1.53H30.48V0Z" fill="currentColor"/>
<path d="M30.48 30.48H25.91V32H30.48V30.48Z" fill="currentColor"/>
<path d="M28.9501 19.81H27.4301V21.34H28.9501V19.81Z" fill="currentColor"/>
<path d="M28.9501 10.67H27.4301V12.19H28.9501V10.67Z" fill="currentColor"/>
<path d="M27.43 21.34H24.38V22.86H27.43V21.34Z" fill="currentColor"/>
<path d="M27.43 9.15002H24.38V10.67H27.43V9.15002Z" fill="currentColor"/>
<path d="M24.38 22.86H21.34V24.38H24.38V22.86Z" fill="currentColor"/>
<path d="M24.38 7.62H21.34V9.14999H24.38V7.62Z" fill="currentColor"/>
<path d="M21.34 12.19H19.81V10.67H18.29V9.15002H13.72V10.67H12.19V12.19H10.67V13.72H9.15002V18.29H10.67V19.81H12.19V21.34H13.72V22.86H18.29V21.34H19.81V19.81H21.34V18.29H22.86V13.72H21.34V12.19ZM18.29 16.77H16.76V18.29H15.24V16.77H13.72V15.24H15.24V13.72H16.76V15.24H18.29V16.77Z" fill="currentColor"/>
<path d="M21.34 24.38H10.67V25.91H21.34V24.38Z" fill="currentColor"/>
<path d="M21.34 6.09998H10.67V7.61998H21.34V6.09998Z" fill="currentColor"/>
<path d="M10.67 22.86H7.62V24.38H10.67V22.86Z" fill="currentColor"/>
<path d="M10.67 7.62H7.62V9.14999H10.67V7.62Z" fill="currentColor"/>
<path d="M7.61995 21.34H4.56995V22.86H7.61995V21.34Z" fill="currentColor"/>
<path d="M7.61995 9.15002H4.56995V10.67H7.61995V9.15002Z" fill="currentColor"/>
<path d="M6.10003 30.48H1.53003V32H6.10003V30.48Z" fill="currentColor"/>
<path d="M4.57005 19.81H3.05005V21.34H4.57005V19.81Z" fill="currentColor"/>
<path d="M4.57005 10.67H3.05005V12.19H4.57005V10.67Z" fill="currentColor"/>
<path d="M6.10003 0H1.53003V1.53H6.10003V0Z" fill="currentColor"/>
<path d="M3.05003 18.29H1.53003V19.81H3.05003V18.29Z" fill="currentColor"/>
<path d="M3.05003 12.19H1.53003V13.72H3.05003V12.19Z" fill="currentColor"/>
<path d="M1.53 25.91H0V30.48H1.53V25.91Z" fill="currentColor"/>
<path d="M1.53 13.72H0V18.29H1.53V13.72Z" fill="currentColor"/>
<path d="M1.53 1.53003H0V6.10003H1.53V1.53003Z" fill="currentColor"/>
</g>
<defs>
<clipPath id="clip0_1128_14973">
<rect width="32" height="32" fill="white"/>
</clipPath>
</defs>
</svg>
