<svg width="32" height="32" viewBox="0 0 32 32" fill="none" xmlns="http://www.w3.org/2000/svg">
<g clip-path="url(#clip0_1128_8188)">
<path d="M28.95 13.71V15.24H30.4699V28.95H28.95V30.48H32V13.71H28.95Z" fill="currentColor"/>
<path d="M28.95 27.4301H27.42V28.9501H28.95V27.4301Z" fill="currentColor"/>
<path d="M28.95 15.24H27.42V16.76H28.95V15.24Z" fill="currentColor"/>
<path d="M28.95 4.56995H27.42V10.6699H28.95V4.56995Z" fill="currentColor"/>
<path d="M25.9 25.9V18.29H27.42V16.76H25.9V15.24H24.38V28.95H25.9V27.43H27.42V25.9H25.9Z" fill="currentColor"/>
<path d="M27.42 10.67H25.9V12.19H27.42V10.67Z" fill="currentColor"/>
<path d="M27.42 3.05005H25.9V4.57005H27.42V3.05005Z" fill="currentColor"/>
<path d="M25.9 12.1899H24.38V13.7099H25.9V12.1899Z" fill="currentColor"/>
<path d="M25.9 1.52002H24.38V3.05002H25.9V1.52002Z" fill="currentColor"/>
<path d="M24.38 28.95H22.85V30.4799H24.38V28.95Z" fill="currentColor"/>
<path d="M24.38 13.71H18.28V15.24H24.38V13.71Z" fill="currentColor"/>
<path d="M22.85 30.48H3.04004V32H22.85V30.48Z" fill="currentColor"/>
<path d="M24.38 0H18.28V1.52H24.38V0Z" fill="currentColor"/>
<path d="M21.33 24.38H18.28V27.43H21.33V24.38Z" fill="currentColor"/>
<path d="M18.28 10.67H19.8V12.19H22.85V10.67H24.38V9.14005H25.9V6.10005H24.38V4.57005H22.85V3.05005H19.8V4.57005H18.28V6.10005H16.76V9.14005H18.28V10.67ZM19.8 6.10005H22.85V9.14005H19.8V6.10005Z" fill="currentColor"/>
<path d="M16.76 12.19V10.67H15.23V12.19H13.71V10.67H12.19V12.19H10.66V13.71H18.28V12.19H16.76Z" fill="currentColor"/>
<path d="M18.28 1.52002H16.76V3.05002H18.28V1.52002Z" fill="currentColor"/>
<path d="M16.76 3.05005H15.23V4.57005H16.76V3.05005Z" fill="currentColor"/>
<path d="M15.23 4.56995H13.71V10.6699H15.23V4.56995Z" fill="currentColor"/>
<path d="M13.7099 19.8101H12.1899V24.3801H13.7099V19.8101Z" fill="currentColor"/>
<path d="M13.7099 3.05005H12.1899V4.57005H13.7099V3.05005Z" fill="currentColor"/>
<path d="M12.19 1.52002H10.66V3.05002H12.19V1.52002Z" fill="currentColor"/>
<path d="M10.6599 13.71H4.56995V15.24H10.6599V13.71Z" fill="currentColor"/>
<path d="M10.6599 0H4.56995V1.52H10.6599V0Z" fill="currentColor"/>
<path d="M4.57004 10.67H6.09004V12.19H9.14004V10.67H10.66V9.14005H12.19V6.10005H10.66V4.57005H9.14004V3.05005H6.09004V4.57005H4.57004V6.10005H3.04004V9.14005H4.57004V10.67ZM6.09004 6.10005H9.14004V9.14005H6.09004V6.10005Z" fill="currentColor"/>
<path d="M4.57004 12.1899H3.04004V13.7099H4.57004V12.1899Z" fill="currentColor"/>
<path d="M4.57004 1.52002H3.04004V3.05002H4.57004V1.52002Z" fill="currentColor"/>
<path d="M3.04002 28.95H1.52002V30.4799H3.04002V28.95Z" fill="currentColor"/>
<path d="M3.04002 13.71H1.52002V15.24H3.04002V13.71Z" fill="currentColor"/>
<path d="M3.04002 10.67H1.52002V12.19H3.04002V10.67Z" fill="currentColor"/>
<path d="M3.04002 3.05005H1.52002V4.57005H3.04002V3.05005Z" fill="currentColor"/>
<path d="M12.19 25.9V24.38H1.52V19.81H12.19V18.29H1.52V15.24H0V28.95H1.52V25.9H12.19Z" fill="currentColor"/>
<path d="M1.52 4.56995H0V10.6699H1.52V4.56995Z" fill="currentColor"/>
</g>
<defs>
<clipPath id="clip0_1128_8188">
<rect width="32" height="32" fill="white"/>
</clipPath>
</defs>
</svg>
