<svg width="32" height="32" viewBox="0 0 32 32" fill="none" xmlns="http://www.w3.org/2000/svg">
<g clip-path="url(#clip0_1128_10757)">
<path d="M32 16.005H30.48V23.625H32V16.005Z" fill="currentColor"/>
<path d="M32 6.85498H30.48V11.435H32V6.85498Z" fill="currentColor"/>
<path d="M30.4799 23.625H28.95V25.145H30.4799V23.625Z" fill="currentColor"/>
<path d="M28.95 9.905H27.43V11.435H25.91V12.955H24.38V14.475H22.86V16.005H21.34V17.525H22.86V19.045H24.38V17.525H25.91V16.005H27.43V14.475H28.95V12.955H30.48V11.435H28.95V9.905Z" fill="currentColor"/>
<path d="M30.48 5.33499H25.91V6.85499H30.48V5.33499Z" fill="currentColor"/>
<path d="M28.9501 25.145H3.05005V26.665H28.9501V25.145Z" fill="currentColor"/>
<path d="M24.38 5.33499H21.34V6.85499H24.38V5.33499Z" fill="currentColor"/>
<path d="M18.29 19.045V14.475H16.76V20.575H22.86V19.045H18.29Z" fill="currentColor"/>
<path d="M19.81 16.005H21.34V14.475H22.86V12.955H24.38V11.435H25.91V9.90498H27.43V8.38498H25.91V6.85498H24.38V8.38498H22.86V9.90498H21.34V11.435H19.81V12.955H18.29V14.475H19.81V16.005Z" fill="currentColor"/>
<path d="M21.3401 6.85498H19.8101V8.38498H21.3401V6.85498Z" fill="currentColor"/>
<path d="M19.81 8.38498H18.29V9.90498H19.81V8.38498Z" fill="currentColor"/>
<path d="M16.76 20.575H15.24V22.095H16.76V20.575Z" fill="currentColor"/>
<path d="M12.19 20.575H10.67V22.095H12.19V20.575Z" fill="currentColor"/>
<path d="M7.61998 20.575H6.09998V22.095H7.61998V20.575Z" fill="currentColor"/>
<path d="M16.76 11.435H3.05005V12.955H16.76V11.435Z" fill="currentColor"/>
<path d="M3.05003 23.625H1.53003V25.145H3.05003V23.625Z" fill="currentColor"/>
<path d="M3.05003 12.955H1.53003V14.475H3.05003V12.955Z" fill="currentColor"/>
<path d="M1.53 14.475H0V23.625H1.53V14.475Z" fill="currentColor"/>
</g>
<defs>
<clipPath id="clip0_1128_10757">
<rect width="32" height="32" fill="white"/>
</clipPath>
</defs>
</svg>
