<svg width="32" height="32" viewBox="0 0 32 32" fill="none" xmlns="http://www.w3.org/2000/svg">
<g clip-path="url(#clip0_1128_10438)">
<path d="M25.905 15.24V12.19H27.425V16.77H28.955V10.67H27.425V7.62001H25.905V4.57001H24.385V15.24H25.905Z" fill="currentColor"/>
<path d="M27.425 16.77H25.905V18.29H27.425V16.77Z" fill="currentColor"/>
<path d="M25.905 18.29H24.385V19.81H25.905V18.29Z" fill="currentColor"/>
<path d="M24.385 19.81H22.855V21.34H24.385V19.81Z" fill="currentColor"/>
<path d="M24.385 15.24H22.855V16.77H24.385V15.24Z" fill="currentColor"/>
<path d="M24.385 3.04999H22.855V4.56999H24.385V3.04999Z" fill="currentColor"/>
<path d="M22.855 16.77H21.335V18.29H22.855V16.77Z" fill="currentColor"/>
<path d="M22.855 6.09998H21.335V13.72H22.855V6.09998Z" fill="currentColor"/>
<path d="M22.855 1.53003H21.335V3.05003H22.855V1.53003Z" fill="currentColor"/>
<path d="M22.855 22.86V21.34H9.14499V22.86H13.715V25.91H9.14499V27.43H7.61499V30.48H9.14499V32H22.855V30.48H24.385V27.43H22.855V25.91H18.285V22.86H22.855ZM15.235 22.86H16.765V27.43H15.235V22.86ZM21.335 28.96V30.48H10.665V28.96H21.335Z" fill="currentColor"/>
<path d="M21.335 13.72H19.805V15.24H21.335V13.72Z" fill="currentColor"/>
<path d="M21.335 4.57001H19.805V6.10001H21.335V4.57001Z" fill="currentColor"/>
<path d="M21.335 18.29H10.665V19.81H21.335V18.29Z" fill="currentColor"/>
<path d="M19.805 15.24H12.195V16.77H19.805V15.24Z" fill="currentColor"/>
<path d="M18.285 7.62H16.765V9.14999H18.285V7.62Z" fill="currentColor"/>
<path d="M16.765 9.15002H15.235V10.67H16.765V9.15002Z" fill="currentColor"/>
<path d="M15.235 10.67H13.715V12.19H15.235V10.67Z" fill="currentColor"/>
<path d="M15.235 6.09998H13.715V7.61998H15.235V6.09998Z" fill="currentColor"/>
<path d="M19.805 3.04999H12.195V4.56999H19.805V3.04999Z" fill="currentColor"/>
<path d="M13.715 7.62H12.195V9.14999H13.715V7.62Z" fill="currentColor"/>
<path d="M21.335 0H10.665V1.53H21.335V0Z" fill="currentColor"/>
<path d="M12.195 13.72H10.665V15.24H12.195V13.72Z" fill="currentColor"/>
<path d="M12.195 4.57001H10.665V6.10001H12.195V4.57001Z" fill="currentColor"/>
<path d="M10.665 16.77H9.145V18.29H10.665V16.77Z" fill="currentColor"/>
<path d="M10.665 6.09998H9.145V13.72H10.665V6.09998Z" fill="currentColor"/>
<path d="M10.665 1.53003H9.145V3.05003H10.665V1.53003Z" fill="currentColor"/>
<path d="M9.14499 19.81H7.61499V21.34H9.14499V19.81Z" fill="currentColor"/>
<path d="M9.14499 15.24H7.61499V16.77H9.14499V15.24Z" fill="currentColor"/>
<path d="M9.14499 3.04999H7.61499V4.56999H9.14499V3.04999Z" fill="currentColor"/>
<path d="M7.615 18.29H6.095V19.81H7.615V18.29Z" fill="currentColor"/>
<path d="M6.095 16.77H4.575V18.29H6.095V16.77Z" fill="currentColor"/>
<path d="M4.575 12.19H6.095V15.24H7.615V4.57001H6.095V7.62001H4.575V10.67H3.045V16.77H4.575V12.19Z" fill="currentColor"/>
</g>
<defs>
<clipPath id="clip0_1128_10438">
<rect width="32" height="32" fill="white"/>
</clipPath>
</defs>
</svg>
