<svg width="32" height="32" viewBox="0 0 32 32" fill="none" xmlns="http://www.w3.org/2000/svg">
<g clip-path="url(#clip0_1128_11159)">
<path d="M18.2101 18.219H16.6801V30.409H18.2101V18.219Z" fill="currentColor"/>
<path d="M21.2601 30.409H18.2101V31.939H21.2601V30.409Z" fill="currentColor"/>
<path d="M30.4001 16.699H18.2101V18.219H30.4001V16.699Z" fill="currentColor"/>
<path d="M22.78 25.839V24.319H21.26V30.409H22.78V27.369H24.3V25.839H22.78Z" fill="currentColor"/>
<path d="M25.83 27.369H24.3V28.889H25.83V27.369Z" fill="currentColor"/>
<path d="M27.3501 28.889H25.8301V30.409H27.3501V28.889Z" fill="currentColor"/>
<path d="M24.3 21.269V22.799H25.83V24.319H27.35V22.799H30.4V21.269H24.3Z" fill="currentColor"/>
<path d="M28.8801 24.319H27.3501V25.839H28.8801V24.319Z" fill="currentColor"/>
<path d="M30.4001 30.409H27.3501V31.939H30.4001V30.409Z" fill="currentColor"/>
<path d="M30.4 27.369V30.409H31.92V25.839H28.88V27.369H30.4Z" fill="currentColor"/>
<path d="M31.92 18.219H30.4V21.269H31.92V18.219Z" fill="currentColor"/>
<path d="M18.2101 1.46899H16.6801V13.659H18.2101V1.46899Z" fill="currentColor"/>
<path d="M21.2601 -0.0610046H18.2101V1.469H21.2601V-0.0610046Z" fill="currentColor"/>
<path d="M21.26 7.55899H22.78V6.03899H24.3V4.50899H22.78V1.46899H21.26V7.55899Z" fill="currentColor"/>
<path d="M25.83 2.98898H24.3V4.50898H25.83V2.98898Z" fill="currentColor"/>
<path d="M27.3501 1.46899H25.8301V2.98899H27.3501V1.46899Z" fill="currentColor"/>
<path d="M25.83 9.08899H24.3V10.609H30.4V9.08899H27.35V7.55899H25.83V9.08899Z" fill="currentColor"/>
<path d="M28.8801 6.039H27.3501V7.559H28.8801V6.039Z" fill="currentColor"/>
<path d="M30.4001 13.659H18.2101V15.179H30.4001V13.659Z" fill="currentColor"/>
<path d="M30.4001 -0.0610046H27.3501V1.469H30.4001V-0.0610046Z" fill="currentColor"/>
<path d="M30.4 4.509H28.88V6.039H30.4V4.509Z" fill="currentColor"/>
<path d="M31.92 1.46899H30.4V4.50899H31.92V1.46899Z" fill="currentColor"/>
<path d="M31.92 10.609H30.4V13.659H31.92V10.609Z" fill="currentColor"/>
<path d="M1.44004 10.609H-0.0799561V13.659H1.44004V10.609Z" fill="currentColor"/>
<path d="M1.44004 1.46899H-0.0799561V4.50899H1.44004V1.46899Z" fill="currentColor"/>
<path d="M2.96006 4.509H1.44006V6.039H2.96006V4.509Z" fill="currentColor"/>
<path d="M4.49006 -0.0610046H1.44006V1.469H4.49006V-0.0610046Z" fill="currentColor"/>
<path d="M13.6301 13.659H1.44006V15.179H13.6301V13.659Z" fill="currentColor"/>
<path d="M4.49008 6.039H2.96008V7.559H4.49008V6.039Z" fill="currentColor"/>
<path d="M7.54006 9.07899H6.01006V7.55899H4.49006V9.07899H1.44006V10.609H7.54006V9.07899Z" fill="currentColor"/>
<path d="M6.00999 1.46899H4.48999V2.98899H6.00999V1.46899Z" fill="currentColor"/>
<path d="M7.54001 2.98898H6.01001V4.50898H7.54001V2.98898Z" fill="currentColor"/>
<path d="M9.06004 6.03899V7.55899H10.58V1.46899H9.06004V4.50899H7.54004V6.03899H9.06004Z" fill="currentColor"/>
<path d="M13.6301 -0.0610046H10.5801V1.469H13.6301V-0.0610046Z" fill="currentColor"/>
<path d="M15.15 1.46899H13.63V13.659H15.15V1.46899Z" fill="currentColor"/>
<path d="M1.44004 27.369H-0.0799561V30.409H1.44004V27.369Z" fill="currentColor"/>
<path d="M1.44004 18.219H-0.0799561V21.269H1.44004V18.219Z" fill="currentColor"/>
<path d="M2.96006 25.839H1.44006V27.369H2.96006V25.839Z" fill="currentColor"/>
<path d="M4.49006 30.409H1.44006V31.939H4.49006V30.409Z" fill="currentColor"/>
<path d="M4.49008 24.319H2.96008V25.839H4.49008V24.319Z" fill="currentColor"/>
<path d="M6.01006 22.789H7.54006V21.269H1.44006V22.789H4.49006V24.319H6.01006V22.789Z" fill="currentColor"/>
<path d="M6.00999 28.889H4.48999V30.409H6.00999V28.889Z" fill="currentColor"/>
<path d="M7.54001 27.369H6.01001V28.889H7.54001V27.369Z" fill="currentColor"/>
<path d="M9.06004 24.319V25.839H7.54004V27.369H9.06004V30.409H10.58V24.319H9.06004Z" fill="currentColor"/>
<path d="M13.6301 16.699H1.44006V18.219H13.6301V16.699Z" fill="currentColor"/>
<path d="M13.6301 30.409H10.5801V31.939H13.6301V30.409Z" fill="currentColor"/>
<path d="M15.15 18.219H13.63V30.409H15.15V18.219Z" fill="currentColor"/>
</g>
<defs>
<clipPath id="clip0_1128_11159">
<rect width="32" height="32" fill="white"/>
</clipPath>
</defs>
</svg>
