<svg width="32" height="32" viewBox="0 0 32 32" fill="none" xmlns="http://www.w3.org/2000/svg">
<g clip-path="url(#clip0_1128_4684)">
<path d="M18.28 3.04999V1.51999H16.76V3.04999H15.24V1.51999H13.71V3.04999H0V4.56999H1.52V6.09999H3.05V21.33H4.57V6.09999H27.43V21.33H28.95V6.09999H30.47V4.56999H32V3.04999H18.28Z" fill="currentColor"/>
<path d="M27.43 21.33H25.9V22.86H27.43V21.33Z" fill="currentColor"/>
<path d="M6.09 22.86V24.38H15.24V28.95H16.76V24.38H25.9V22.86H6.09Z" fill="currentColor"/>
<path d="M9.14 18.29V16.76H10.66V15.24H9.14V7.62H7.62V19.81H24.38V18.29H9.14Z" fill="currentColor"/>
<path d="M22.86 9.14001H21.33V10.67H22.86V9.14001Z" fill="currentColor"/>
<path d="M21.33 10.67H19.81V12.19H21.33V10.67Z" fill="currentColor"/>
<path d="M19.81 12.19H18.28V13.72H19.81V12.19Z" fill="currentColor"/>
<path d="M18.28 28.95H16.76V30.48H18.28V28.95Z" fill="currentColor"/>
<path d="M18.28 13.72H16.76V15.24H18.28V13.72Z" fill="currentColor"/>
<path d="M16.76 30.48H15.24V32H16.76V30.48Z" fill="currentColor"/>
<path d="M16.76 15.24H15.24V16.76H16.76V15.24Z" fill="currentColor"/>
<path d="M16.76 0H15.24V1.52H16.76V0Z" fill="currentColor"/>
<path d="M15.24 28.95H13.71V30.48H15.24V28.95Z" fill="currentColor"/>
<path d="M15.24 13.72H13.71V15.24H15.24V13.72Z" fill="currentColor"/>
<path d="M13.71 12.19H12.19V13.72H13.71V12.19Z" fill="currentColor"/>
<path d="M12.19 13.72H10.66V15.24H12.19V13.72Z" fill="currentColor"/>
<path d="M6.09001 21.33H4.57001V22.86H6.09001V21.33Z" fill="currentColor"/>
</g>
<defs>
<clipPath id="clip0_1128_4684">
<rect width="32" height="32" fill="white"/>
</clipPath>
</defs>
</svg>
