<svg width="32" height="32" viewBox="0 0 32 32" fill="none" xmlns="http://www.w3.org/2000/svg">
<g clip-path="url(#clip0_1128_6204)">
<path d="M27.4301 25.905V27.435H32.0001V19.815H30.4801V25.905H27.4301Z" fill="currentColor"/>
<path d="M30.48 10.665H28.96V19.815H30.48V10.665Z" fill="currentColor"/>
<path d="M27.43 27.435H16.77V28.955H27.43V27.435Z" fill="currentColor"/>
<path d="M25.91 12.195H24.39V22.855H15.24V24.385H25.91V12.195Z" fill="currentColor"/>
<path d="M6.1 30.475H16.77V28.955H7.62V25.905H15.24V24.385H1.53V16.765H0V25.905H6.1V30.475Z" fill="currentColor"/>
<path d="M16.77 19.815H10.67V21.335H16.77V19.815Z" fill="currentColor"/>
<path d="M19.81 16.765H10.67V18.285H19.81V16.765Z" fill="currentColor"/>
<path d="M16.77 13.715H10.67V15.245H16.77V13.715Z" fill="currentColor"/>
<path d="M19.81 10.665H10.67V12.195H19.81V10.665Z" fill="currentColor"/>
<path d="M7.61996 16.765H4.57996V19.815H7.61996V16.765Z" fill="currentColor"/>
<path d="M7.61996 10.665H4.57996V13.715H7.61996V10.665Z" fill="currentColor"/>
<path d="M3.05003 4.57499H7.62003V7.62499H18.29V4.57499H25.91V12.195H27.43V10.665H28.96V4.57499H27.43V3.04499H18.29V1.52499H7.62003V3.04499H1.53003V16.765H3.05003V4.57499Z" fill="currentColor"/>
</g>
<defs>
<clipPath id="clip0_1128_6204">
<rect width="32" height="32" fill="white"/>
</clipPath>
</defs>
</svg>
