<svg width="32" height="32" viewBox="0 0 32 32" fill="none" xmlns="http://www.w3.org/2000/svg">
<g clip-path="url(#clip0_1135_2916)">
<path d="M30.48 16.76H28.95V18.28H30.48V25.9H32V6.08997H30.48V16.76Z" fill="currentColor"/>
<path d="M30.48 25.9H28.95V27.43H30.48V25.9Z" fill="currentColor"/>
<path d="M30.48 4.57001H28.95V6.09001H30.48V4.57001Z" fill="currentColor"/>
<path d="M28.95 12.19H27.43V13.71H28.95V12.19Z" fill="currentColor"/>
<path d="M13.72 27.43V25.9H10.67V27.43H3.04999V28.95H28.95V27.43H13.72Z" fill="currentColor"/>
<path d="M25.91 16.76H24.38V15.24H19.81V16.76H18.29V18.28H15.24V19.81H18.29V21.33H19.81V22.85H22.86V21.33H25.91V19.81H28.95V18.28H25.91V16.76Z" fill="currentColor"/>
<path d="M27.43 13.71H25.91V15.24H27.43V13.71Z" fill="currentColor"/>
<path d="M22.86 10.66H21.34V13.71H22.86V10.66Z" fill="currentColor"/>
<path d="M19.81 22.85H16.76V24.38H19.81V22.85Z" fill="currentColor"/>
<path d="M18.29 13.71H16.76V15.24H18.29V13.71Z" fill="currentColor"/>
<path d="M16.76 12.19H15.24V13.71H16.76V12.19Z" fill="currentColor"/>
<path d="M16.76 24.38H13.72V25.9H16.76V24.38Z" fill="currentColor"/>
<path d="M15.24 16.76H12.19V18.28H15.24V16.76Z" fill="currentColor"/>
<path d="M12.19 15.24H7.62V16.76H12.19V15.24Z" fill="currentColor"/>
<path d="M7.62001 16.76H4.57001V18.28H7.62001V16.76Z" fill="currentColor"/>
<path d="M28.95 3.04999H3.04999V4.56999H28.95V3.04999Z" fill="currentColor"/>
<path d="M4.56999 18.28H3.04999V19.81H4.56999V18.28Z" fill="currentColor"/>
<path d="M3.05003 25.9H1.53003V27.43H3.05003V25.9Z" fill="currentColor"/>
<path d="M3.05003 4.57001H1.53003V6.09001H3.05003V4.57001Z" fill="currentColor"/>
<path d="M1.53 21.33H3.05V19.81H1.53V6.08997H0V25.9H1.53V21.33Z" fill="currentColor"/>
</g>
<defs>
<clipPath id="clip0_1135_2916">
<rect width="32" height="32" fill="white"/>
</clipPath>
</defs>
</svg>
