<svg width="32" height="32" viewBox="0 0 32 32" fill="none" xmlns="http://www.w3.org/2000/svg">
<g clip-path="url(#clip0_1128_19710)">
<path d="M32 11.43H30.47V20.57H32V11.43Z" fill="currentColor"/>
<path d="M30.47 20.57H28.95V23.62H30.47V20.57Z" fill="currentColor"/>
<path d="M30.47 8.38H28.95V11.43H30.47V8.38Z" fill="currentColor"/>
<path d="M28.95 23.62H27.42V26.66H28.95V23.62Z" fill="currentColor"/>
<path d="M28.95 5.33002H27.42V8.38002H28.95V5.33002Z" fill="currentColor"/>
<path d="M27.42 26.66H24.38V28.19H27.42V26.66Z" fill="currentColor"/>
<path d="M27.42 3.81H24.38V5.33H27.42V3.81Z" fill="currentColor"/>
<path d="M24.38 17.52H19.81V19.05H18.28V17.52H16.76V16H15.23V14.47H13.71V12.95H15.23V8.38001H13.71V6.85001H9.13999V8.38001H7.60999V12.95H9.13999V16H10.66V17.52H12.19V19.05H13.71V20.57H15.23V22.09H16.76V23.62H19.81V25.14H24.38V23.62H25.9V19.05H24.38V17.52Z" fill="currentColor"/>
<path d="M24.38 28.19H21.33V29.71H24.38V28.19Z" fill="currentColor"/>
<path d="M24.38 2.28H21.33V3.81H24.38V2.28Z" fill="currentColor"/>
<path d="M21.33 29.71H12.19V31.24H21.33V29.71Z" fill="currentColor"/>
<path d="M21.33 0.76001H12.19V2.28001H21.33V0.76001Z" fill="currentColor"/>
<path d="M12.19 28.19H7.60999V29.71H12.19V28.19Z" fill="currentColor"/>
<path d="M12.19 2.28H9.14001V3.81H12.19V2.28Z" fill="currentColor"/>
<path d="M9.14003 3.81H6.09003V5.33H9.14003V3.81Z" fill="currentColor"/>
<path d="M3.04 29.71V28.19H1.52V29.71H0V31.24H7.61V29.71H3.04Z" fill="currentColor"/>
<path d="M6.09001 23.62H4.57001V26.66H6.09001V23.62Z" fill="currentColor"/>
<path d="M6.09001 5.33002H4.57001V8.38002H6.09001V5.33002Z" fill="currentColor"/>
<path d="M4.56998 26.66H3.03998V28.19H4.56998V26.66Z" fill="currentColor"/>
<path d="M4.56998 20.57H3.03998V23.62H4.56998V20.57Z" fill="currentColor"/>
<path d="M4.56998 8.38H3.03998V11.43H4.56998V8.38Z" fill="currentColor"/>
<path d="M3.04002 11.43H1.52002V20.57H3.04002V11.43Z" fill="currentColor"/>
</g>
<defs>
<clipPath id="clip0_1128_19710">
<rect width="32" height="32" fill="white"/>
</clipPath>
</defs>
</svg>
