<svg width="32" height="32" viewBox="0 0 32 32" fill="none" xmlns="http://www.w3.org/2000/svg">
<g clip-path="url(#clip0_1128_9634)">
<path d="M30.48 1.53H28.96V0H27.43V1.53H25.91V3.05H24.39V4.57H25.91V6.1H27.43V7.62H28.96V6.1H30.48V4.57H32V3.05H30.48V1.53ZM28.96 4.57H27.43V3.05H28.96V4.57Z" fill="currentColor"/>
<path d="M30.48 24.38H28.96V22.86H27.43V24.38H25.91V25.91H24.39V27.43H25.91V28.96H27.43V30.48H28.96V28.96H30.48V27.43H32V25.91H30.48V24.38ZM28.96 27.43H27.43V25.91H28.96V27.43Z" fill="currentColor"/>
<path d="M30.48 18.29H28.96V19.81H30.48V18.29Z" fill="currentColor"/>
<path d="M30.48 12.1899H28.96V13.7199H30.48V12.1899Z" fill="currentColor"/>
<path d="M24.39 19.8101H22.86V21.3401H24.39V19.8101Z" fill="currentColor"/>
<path d="M24.39 10.67H22.86V12.19H24.39V10.67Z" fill="currentColor"/>
<path d="M22.86 21.34H21.34V22.86H22.86V21.34Z" fill="currentColor"/>
<path d="M22.86 9.15002H21.34V10.67H22.86V9.15002Z" fill="currentColor"/>
<path d="M21.34 28.96H19.81V30.48H21.34V28.96Z" fill="currentColor"/>
<path d="M21.34 22.86H19.81V24.38H21.34V22.86Z" fill="currentColor"/>
<path d="M9.15001 13.72V15.24H7.62001V13.72H6.10001V18.29H7.62001V16.77H9.15001V18.29H10.67V21.34H13.72V22.86H15.24V24.38H13.72V25.91H18.29V24.38H16.77V22.86H18.29V21.34H21.34V18.29H22.86V16.77H24.39V18.29H25.91V13.72H24.39V15.24H22.86V13.72H21.34V10.67H18.29V9.14998H16.77V7.61998H18.29V6.09998H13.72V7.61998H15.24V9.14998H13.72V10.67H10.67V13.72H9.15001ZM19.81 15.24V16.77H18.29V15.24H19.81ZM16.77 12.19H18.29V13.72H16.77V12.19ZM15.24 18.29V19.81H13.72V18.29H15.24ZM12.2 13.72H13.72V15.24H12.2V13.72Z" fill="currentColor"/>
<path d="M21.34 7.62H19.81V9.14999H21.34V7.62Z" fill="currentColor"/>
<path d="M21.34 1.53003H19.81V3.05003H21.34V1.53003Z" fill="currentColor"/>
<path d="M13.72 28.96H12.2V30.48H13.72V28.96Z" fill="currentColor"/>
<path d="M13.72 1.53003H12.2V3.05003H13.72V1.53003Z" fill="currentColor"/>
<path d="M12.2 22.86H10.67V24.38H12.2V22.86Z" fill="currentColor"/>
<path d="M12.2 7.62H10.67V9.14999H12.2V7.62Z" fill="currentColor"/>
<path d="M10.67 21.34H9.14999V22.86H10.67V21.34Z" fill="currentColor"/>
<path d="M10.67 9.15002H9.14999V10.67H10.67V9.15002Z" fill="currentColor"/>
<path d="M9.14999 19.8101H7.62V21.3401H9.14999V19.8101Z" fill="currentColor"/>
<path d="M9.14999 10.67H7.62V12.19H9.14999V10.67Z" fill="currentColor"/>
<path d="M6.1 32V30.48H7.62V28.96H9.15V27.43H7.62V25.91H6.1V24.38H4.58V25.91H3.05V27.43H1.53V28.96H3.05V30.48H4.58V32H6.1ZM4.58 27.43H6.1V28.96H4.58V27.43Z" fill="currentColor"/>
<path d="M3.05 19.8101H1.53V21.3401H3.05V19.8101Z" fill="currentColor"/>
<path d="M3.05 13.72H1.53V15.24H3.05V13.72Z" fill="currentColor"/>
<path d="M1.53 9.15005H3.05V10.67H4.58V9.15005H6.1V7.62005H7.62V6.10005H6.1V4.57005H4.58V3.05005H3.05V4.57005H1.53V6.10005H0V7.62005H1.53V9.15005ZM3.05 6.10005H4.58V7.62005H3.05V6.10005Z" fill="currentColor"/>
</g>
<defs>
<clipPath id="clip0_1128_9634">
<rect width="32" height="32" fill="white"/>
</clipPath>
</defs>
</svg>
