<svg width="32" height="32" viewBox="0 0 32 32" fill="none" xmlns="http://www.w3.org/2000/svg">
<g clip-path="url(#clip0_1128_8719)">
<path d="M31.235 22.095H29.715V26.665H31.235V22.095Z" fill="currentColor"/>
<path d="M29.715 26.665H28.185V28.195H29.715V26.665Z" fill="currentColor"/>
<path d="M29.715 17.525H28.185V22.095H29.715V17.525Z" fill="currentColor"/>
<path d="M28.185 23.625H26.665V25.145H28.185V23.625Z" fill="currentColor"/>
<path d="M28.185 14.475H26.665V17.525H28.185V14.475Z" fill="currentColor"/>
<path d="M25.145 20.575H23.615V19.045H8.37499V20.575H6.85499V28.195H3.80499V29.715H28.185V28.195H25.145V20.575Z" fill="currentColor"/>
<path d="M26.665 11.425H25.145V14.475H26.665V11.425Z" fill="currentColor"/>
<path d="M25.145 16.0049H23.615V17.5249H25.145V16.0049Z" fill="currentColor"/>
<path d="M25.145 8.38495H23.615V11.4249H25.145V8.38495Z" fill="currentColor"/>
<path d="M23.615 6.85498H22.095V8.38498H23.615V6.85498Z" fill="currentColor"/>
<path d="M22.095 5.33496H20.575V6.85496H22.095V5.33496Z" fill="currentColor"/>
<path d="M20.575 14.475H19.045V16.005H20.575V14.475Z" fill="currentColor"/>
<path d="M20.575 3.815H19.045V5.335H20.575V3.815Z" fill="currentColor"/>
<path d="M19.045 16.0049H17.525V17.5249H19.045V16.0049Z" fill="currentColor"/>
<path d="M19.045 6.85498H17.525V8.38498H19.045V6.85498Z" fill="currentColor"/>
<path d="M17.525 8.38495H15.995V9.90495H17.525V8.38495Z" fill="currentColor"/>
<path d="M19.045 2.28497H12.955V3.81497H19.045V2.28497Z" fill="currentColor"/>
<path d="M12.955 16.0049H11.425V17.5249H12.955V16.0049Z" fill="currentColor"/>
<path d="M12.955 9.90497H11.425V11.425H12.955V9.90497Z" fill="currentColor"/>
<path d="M12.955 3.815H11.425V5.335H12.955V3.815Z" fill="currentColor"/>
<path d="M11.425 14.475H9.905V16.005H11.425V14.475Z" fill="currentColor"/>
<path d="M11.425 5.33496H9.905V6.85496H11.425V5.33496Z" fill="currentColor"/>
<path d="M9.905 6.85498H8.375V8.38498H9.905V6.85498Z" fill="currentColor"/>
<path d="M8.375 8.38495H6.855V11.4249H8.375V8.38495Z" fill="currentColor"/>
<path d="M6.85501 11.425H5.33501V14.475H6.85501V11.425Z" fill="currentColor"/>
<path d="M5.33499 23.625H3.80499V25.145H5.33499V23.625Z" fill="currentColor"/>
<path d="M5.33499 14.475H3.80499V17.525H5.33499V14.475Z" fill="currentColor"/>
<path d="M3.805 26.665H2.285V28.195H3.805V26.665Z" fill="currentColor"/>
<path d="M3.805 17.525H2.285V22.095H3.805V17.525Z" fill="currentColor"/>
<path d="M2.285 22.095H0.764999V26.665H2.285V22.095Z" fill="currentColor"/>
</g>
<defs>
<clipPath id="clip0_1128_8719">
<rect width="32" height="32" fill="white"/>
</clipPath>
</defs>
</svg>
