<svg width="32" height="32" viewBox="0 0 32 32" fill="none" xmlns="http://www.w3.org/2000/svg">
<path d="M24.3751 9.15002V10.67H22.8551V12.19H24.3751V27.43H21.3251V28.95H24.3751V30.48H30.4751V9.15002H24.3751ZM27.4251 15.24H25.9051V12.19H27.4251V15.24Z" fill="currentColor"/>
<path d="M22.8551 9.15002H21.3251V10.67H22.8551V9.15002Z" fill="currentColor"/>
<path d="M21.3251 7.62H19.8051V9.14999H21.3251V7.62Z" fill="currentColor"/>
<path d="M21.3251 28.95H19.8051V30.4799H21.3251V28.95Z" fill="currentColor"/>
<path d="M19.805 1.53003H18.285V7.62003H19.805V1.53003Z" fill="currentColor"/>
<path d="M18.285 0H15.235V1.53H18.285V0Z" fill="currentColor"/>
<path d="M19.805 30.48H6.09497V32H19.805V30.48Z" fill="currentColor"/>
<path d="M16.755 10.67H15.235V12.19H16.755V10.67Z" fill="currentColor"/>
<path d="M15.235 1.53003H13.715V3.05003H15.235V1.53003Z" fill="currentColor"/>
<path d="M15.235 9.15002H13.715V10.67H15.235V9.15002Z" fill="currentColor"/>
<path d="M13.7151 3.05005H12.1851V9.15005H13.7151V3.05005Z" fill="currentColor"/>
<path d="M15.2351 12.1899H4.56506V13.7199H15.2351V12.1899Z" fill="currentColor"/>
<path d="M10.665 27.43V25.91H3.04504V28.95H4.56504V27.43H10.665Z" fill="currentColor"/>
<path d="M6.09506 28.95H4.56506V30.4799H6.09506V28.95Z" fill="currentColor"/>
<path d="M4.56504 13.72H3.04504V15.24H4.56504V13.72Z" fill="currentColor"/>
<path d="M9.13502 22.86V21.34H3.04502V18.29H9.13502V16.76H3.04502V15.24H1.52502V25.91H3.04502V22.86H9.13502Z" fill="currentColor"/>
</svg>
