<svg width="32" height="32" viewBox="0 0 32 32" fill="none" xmlns="http://www.w3.org/2000/svg">
<g clip-path="url(#clip0_1128_13381)">
<path d="M24.38 19.81V18.29H22.85V19.81H19.8V25.9H12.19V22.86H10.66V28.95H12.19V27.43H19.8V32H32V19.81H24.38ZM30.47 30.48H21.33V21.33H30.47V30.48Z" fill="currentColor"/>
<path d="M28.95 22.86H22.85V28.95H28.95V22.86Z" fill="currentColor"/>
<path d="M22.85 15.24H21.33V18.29H22.85V15.24Z" fill="currentColor"/>
<path d="M21.33 7.62H19.8V10.67H21.33V7.62Z" fill="currentColor"/>
<path d="M19.8 4.57001H18.28V7.62001H19.8V4.57001Z" fill="currentColor"/>
<path d="M18.28 1.51999H16.76V4.56999H18.28V1.51999Z" fill="currentColor"/>
<path d="M16.76 0H13.71V1.52H16.76V0Z" fill="currentColor"/>
<path d="M18.2799 10.67V9.14H16.7599V6.09H13.7099V9.14H12.1899V10.67H18.2799Z" fill="currentColor"/>
<path d="M13.7099 1.51999H12.1899V4.56999H13.7099V1.51999Z" fill="currentColor"/>
<path d="M12.19 4.57001H10.66V7.62001H12.19V4.57001Z" fill="currentColor"/>
<path d="M10.66 28.95H9.14001V30.48H10.66V28.95Z" fill="currentColor"/>
<path d="M10.66 21.33H9.14001V22.86H10.66V21.33Z" fill="currentColor"/>
<path d="M10.66 13.71H19.8V15.24H21.33V13.71H22.85V10.67H21.33V12.19H9.13999V10.67H7.60999V13.71H9.13999V15.24H10.66V13.71Z" fill="currentColor"/>
<path d="M10.66 7.62H9.14001V10.67H10.66V7.62Z" fill="currentColor"/>
<path d="M9.13999 15.24H7.60999V18.29H9.13999V15.24Z" fill="currentColor"/>
<path d="M9.14004 30.48H3.04004V32H9.14004V30.48Z" fill="currentColor"/>
<path d="M7.61004 22.86H4.57004V24.38H3.04004V27.43H4.57004V28.95H7.61004V27.43H9.14004V24.38H7.61004V22.86Z" fill="currentColor"/>
<path d="M9.14004 21.33V19.81H7.61004V18.29H6.09004V19.81H3.04004V21.33H9.14004Z" fill="currentColor"/>
<path d="M3.04002 28.95H1.52002V30.48H3.04002V28.95Z" fill="currentColor"/>
<path d="M3.04002 21.33H1.52002V22.86H3.04002V21.33Z" fill="currentColor"/>
<path d="M1.52 22.86H0V28.95H1.52V22.86Z" fill="currentColor"/>
</g>
<defs>
<clipPath id="clip0_1128_13381">
<rect width="32" height="32" fill="white"/>
</clipPath>
</defs>
</svg>
