<svg width="32" height="32" viewBox="0 0 32 32" fill="none" xmlns="http://www.w3.org/2000/svg">
<path d="M30.475 32V0H27.425V1.53H28.945V30.48H27.425V32H30.475Z" fill="currentColor"/>
<path d="M27.425 28.96H25.905V30.48H27.425V28.96Z" fill="currentColor"/>
<path d="M27.425 1.53H25.905V3.05H27.425V1.53Z" fill="currentColor"/>
<path d="M25.905 27.43H24.375V28.96H25.905V27.43Z" fill="currentColor"/>
<path d="M25.905 18.29H24.375V21.34H25.905V18.29Z" fill="currentColor"/>
<path d="M25.905 13.72H24.375V15.24H25.905V13.72Z" fill="currentColor"/>
<path d="M25.905 3.04999H24.375V4.56999H25.905V3.04999Z" fill="currentColor"/>
<path d="M24.375 28.96H22.855V30.48H24.375V28.96Z" fill="currentColor"/>
<path d="M22.855 12.19V10.67H21.335V12.19H19.805V13.72H21.335V16.76H19.805V18.29H21.335V21.34H19.805V22.86H21.335V24.38H22.855V22.86H24.375V21.34H22.855V18.29H24.375V16.76H22.855V13.72H24.375V12.19H22.855Z" fill="currentColor"/>
<path d="M24.375 1.53H22.855V3.05H24.375V1.53Z" fill="currentColor"/>
<path d="M22.855 30.48H21.335V32H22.855V30.48Z" fill="currentColor"/>
<path d="M22.855 0H21.335V1.53H22.855V0Z" fill="currentColor"/>
<path d="M21.335 28.96H19.805V30.48H21.335V28.96Z" fill="currentColor"/>
<path d="M21.335 1.53H19.805V3.05H21.335V1.53Z" fill="currentColor"/>
<path d="M19.805 27.43H18.285V28.96H19.805V27.43Z" fill="currentColor"/>
<path d="M19.805 19.81H18.285V21.34H19.805V19.81Z" fill="currentColor"/>
<path d="M19.805 13.72H18.285V16.76H19.805V13.72Z" fill="currentColor"/>
<path d="M19.805 3.04999H18.285V4.56999H19.805V3.04999Z" fill="currentColor"/>
<path d="M18.285 28.96H16.755V30.48H18.285V28.96Z" fill="currentColor"/>
<path d="M18.285 1.53H16.755V3.05H18.285V1.53Z" fill="currentColor"/>
<path d="M16.755 30.48H15.235V32H16.755V30.48Z" fill="currentColor"/>
<path d="M16.755 0H15.235V1.53H16.755V0Z" fill="currentColor"/>
<path d="M15.235 28.96H13.715V30.48H15.235V28.96Z" fill="currentColor"/>
<path d="M15.235 1.53H13.715V3.05H15.235V1.53Z" fill="currentColor"/>
<path d="M13.715 27.43H12.185V28.96H13.715V27.43Z" fill="currentColor"/>
<path d="M15.235 22.86H10.665V24.38H15.235V22.86Z" fill="currentColor"/>
<path d="M15.235 18.29H10.665V19.81H15.235V18.29Z" fill="currentColor"/>
<path d="M15.235 13.72H10.665V15.24H15.235V13.72Z" fill="currentColor"/>
<path d="M15.235 9.14999H10.665V10.67H15.235V9.14999Z" fill="currentColor"/>
<path d="M13.715 3.04999H12.185V4.56999H13.715V3.04999Z" fill="currentColor"/>
<path d="M12.185 28.96H10.665V30.48H12.185V28.96Z" fill="currentColor"/>
<path d="M12.185 1.53H10.665V3.05H12.185V1.53Z" fill="currentColor"/>
<path d="M10.665 30.48H9.14499V32H10.665V30.48Z" fill="currentColor"/>
<path d="M10.665 0H9.14499V1.53H10.665V0Z" fill="currentColor"/>
<path d="M9.14499 28.96H7.61499V30.48H9.14499V28.96Z" fill="currentColor"/>
<path d="M9.14499 1.53H7.61499V3.05H9.14499V1.53Z" fill="currentColor"/>
<path d="M7.615 27.43H6.095V28.96H7.615V27.43Z" fill="currentColor"/>
<path d="M9.145 21.34H6.095V24.38H9.145V21.34Z" fill="currentColor"/>
<path d="M9.145 16.76H6.095V19.81H9.145V16.76Z" fill="currentColor"/>
<path d="M9.145 12.19H6.095V15.24H9.145V12.19Z" fill="currentColor"/>
<path d="M9.145 7.62H6.095V10.67H9.145V7.62Z" fill="currentColor"/>
<path d="M7.615 3.04999H6.095V4.56999H7.615V3.04999Z" fill="currentColor"/>
<path d="M6.095 28.96H4.565V30.48H6.095V28.96Z" fill="currentColor"/>
<path d="M6.095 1.53H4.565V3.05H6.095V1.53Z" fill="currentColor"/>
<path d="M3.04499 1.53H4.56499V0H1.52499V32H4.56499V30.48H3.04499V1.53Z" fill="currentColor"/>
</svg>
