<svg width="32" height="32" viewBox="0 0 32 32" fill="none" xmlns="http://www.w3.org/2000/svg">
<g clip-path="url(#clip0_1135_1821)">
<path d="M30.47 12.19V9.14H28.95V6.1H27.43V4.57H25.9V3.05H22.86V1.53H19.81V0H12.19V1.53H9.14V3.05H6.09V4.57H4.57V6.1H3.05V9.14H1.52V12.19H0V19.81H1.52V22.86H3.05V25.91H4.57V27.43H6.09V28.95H9.14V30.48H12.19V32H19.81V30.48H22.86V28.95H25.9V27.43H27.43V25.91H28.95V22.86H30.47V19.81H32V12.19H30.47ZM18.28 6.1H21.33V7.62H22.86V9.14H24.38V10.67H25.9V13.72H24.38V10.67H22.86V9.14H21.33V7.62H18.28V6.1ZM25.9 16.76V19.81H24.38V21.33H22.86V22.86H21.33V24.38H19.81V25.91H16.76V24.38H19.81V22.86H21.33V21.33H22.86V19.81H24.38V16.76H25.9ZM4.57 10.67V15.24H3.05V10.67H4.57V9.14H6.09V7.62H7.62V6.1H9.14V4.57H10.67V3.05H15.24V4.57H10.67V6.1H9.14V7.62H7.62V9.14H6.09V10.67H4.57ZM15.24 6.1V7.62H12.19V9.14H10.67V10.67H9.14V12.19H7.62V15.24H6.09V12.19H7.62V10.67H9.14V9.14H10.67V7.62H12.19V6.1H15.24ZM13.71 25.91H10.67V24.38H9.14V22.86H7.62V21.33H6.09V18.29H7.62V21.33H9.14V22.86H10.67V24.38H13.71V25.91ZM12.19 18.29V13.72H13.71V12.19H18.28V13.72H19.81V18.29H18.28V19.81H13.71V18.29H12.19ZM28.95 21.33H27.43V22.86H25.9V24.38H24.38V25.91H22.86V27.43H21.33V28.95H16.76V27.43H21.33V25.91H22.86V24.38H24.38V22.86H25.9V21.33H27.43V16.76H28.95V21.33Z" fill="currentColor"/>
<path d="M16.76 15.24H15.24V16.76H16.76V15.24Z" fill="currentColor"/>
</g>
<defs>
<clipPath id="clip0_1135_1821">
<rect width="32" height="32" fill="white"/>
</clipPath>
</defs>
</svg>
