<svg width="32" height="32" viewBox="0 0 32 32" fill="none" xmlns="http://www.w3.org/2000/svg">
<path d="M10.665 7.62V1.53H9.14499V7.62H7.61499V28.96H9.14499V9.15H22.855V28.96H24.385V7.62H22.855V1.53H21.335V7.62H10.665Z" fill="currentColor"/>
<path d="M22.855 28.96H21.335V30.48H22.855V28.96Z" fill="currentColor"/>
<path d="M21.335 15.24H19.805V18.29H21.335V15.24Z" fill="currentColor"/>
<path d="M21.335 30.48H10.665V32H21.335V30.48Z" fill="currentColor"/>
<path d="M19.805 18.29H18.285V19.81H19.805V18.29Z" fill="currentColor"/>
<path d="M16.765 10.67H15.235V19.81H13.715V24.38H18.285V19.81H16.765V10.67Z" fill="currentColor"/>
<path d="M19.805 3.05H12.195V4.57H19.805V3.05Z" fill="currentColor"/>
<path d="M13.715 18.29H12.195V19.81H13.715V18.29Z" fill="currentColor"/>
<path d="M21.335 0H10.665V1.53H21.335V0Z" fill="currentColor"/>
<path d="M12.195 13.72H10.665V18.29H12.195V13.72Z" fill="currentColor"/>
<path d="M10.665 28.96H9.14502V30.48H10.665V28.96Z" fill="currentColor"/>
</svg>
