<svg width="32" height="32" viewBox="0 0 32 32" fill="none" xmlns="http://www.w3.org/2000/svg">
<g clip-path="url(#clip0_1135_2063)">
<path d="M32 12.1899H30.47V19.8099H32V12.1899Z" fill="currentColor"/>
<path d="M28.9501 21.3301H27.4301V25.9101H28.9501V22.8601H30.4701V19.8101H28.9501V21.3301Z" fill="currentColor"/>
<path d="M30.4699 9.14001H28.95V12.19H30.4699V9.14001Z" fill="currentColor"/>
<path d="M28.9501 6.09998H27.4301V9.13998H28.9501V6.09998Z" fill="currentColor"/>
<path d="M27.43 25.91H25.9V27.43H27.43V25.91Z" fill="currentColor"/>
<path d="M27.43 4.56995H25.9V6.09995H27.43V4.56995Z" fill="currentColor"/>
<path d="M27.43 19.8101H24.38V21.3301H27.43V19.8101Z" fill="currentColor"/>
<path d="M25.9 10.67H24.38V13.72H25.9V10.67Z" fill="currentColor"/>
<path d="M21.3301 27.4301V28.9501H19.8101V30.4801H22.8601V28.9501H25.9001V27.4301H21.3301Z" fill="currentColor"/>
<path d="M24.38 9.14001H22.86V10.67H24.38V9.14001Z" fill="currentColor"/>
<path d="M25.9 3.05005H22.86V4.57005H25.9V3.05005Z" fill="currentColor"/>
<path d="M22.86 7.62H21.33V9.14H22.86V7.62Z" fill="currentColor"/>
<path d="M21.3301 24.38H19.8101V27.43H21.3301V24.38Z" fill="currentColor"/>
<path d="M19.8101 19.8099H24.3801V18.2899H21.3301V12.1899H19.8101V19.8099Z" fill="currentColor"/>
<path d="M21.33 6.09998H18.28V7.61998H21.33V6.09998Z" fill="currentColor"/>
<path d="M22.8601 1.53003H19.8101V3.05003H22.8601V1.53003Z" fill="currentColor"/>
<path d="M19.8099 30.48H12.1899V32H19.8099V30.48Z" fill="currentColor"/>
<path d="M12.1899 19.8101V21.3301H18.2799V24.3801H19.8099V19.8101H12.1899Z" fill="currentColor"/>
<path d="M18.28 13.72H13.71V18.29H18.28V13.72ZM16.76 16.76H15.24V15.24H16.76V16.76Z" fill="currentColor"/>
<path d="M19.8099 0H12.1899V1.53H19.8099V0Z" fill="currentColor"/>
<path d="M19.8099 12.19V10.67H13.7099V9.14001H12.1899V12.19H19.8099Z" fill="currentColor"/>
<path d="M12.19 28.95H9.14001V30.4799H12.19V28.95Z" fill="currentColor"/>
<path d="M12.19 12.1899H9.14001V13.7199H10.67V19.8099H12.19V12.1899Z" fill="currentColor"/>
<path d="M12.19 6.09998H10.67V9.13998H12.19V6.09998Z" fill="currentColor"/>
<path d="M9.13997 27.4301H6.08997V28.9501H9.13997V27.4301Z" fill="currentColor"/>
<path d="M9.13997 10.67H6.08997V12.19H9.13997V10.67Z" fill="currentColor"/>
<path d="M9.13997 6.10003H10.67V3.05003H12.19V1.53003H9.13997V3.05003H6.08997V4.57003H9.13997V6.10003Z" fill="currentColor"/>
<path d="M6.08995 25.91H4.56995V27.43H6.08995V25.91Z" fill="currentColor"/>
<path d="M6.08995 4.56995H4.56995V6.09995H6.08995V4.56995Z" fill="currentColor"/>
<path d="M4.57005 22.86H3.05005V25.91H4.57005V22.86Z" fill="currentColor"/>
<path d="M3.05002 19.8101H1.52002V22.8601H3.05002V19.8101Z" fill="currentColor"/>
<path d="M3.05002 10.67H6.09002V9.13998H4.57002V6.09998H3.05002V9.13998H1.52002V12.19H3.05002V10.67Z" fill="currentColor"/>
<path d="M1.52 12.1899H0V19.8099H1.52V12.1899Z" fill="currentColor"/>
</g>
<defs>
<clipPath id="clip0_1135_2063">
<rect width="32" height="32" fill="white"/>
</clipPath>
</defs>
</svg>
