<svg width="32" height="32" viewBox="0 0 32 32" fill="none" xmlns="http://www.w3.org/2000/svg">
<path d="M24.38 18.29V19.81H27.43V24.38H28.95V13.71H27.43V18.29H24.38Z" fill="currentColor"/>
<path d="M25.91 27.43H10.67V25.91H9.14V27.43H7.62V32H28.95V27.43H27.43V24.38H25.91V27.43ZM25.91 30.48H22.86V28.95H25.91V30.48Z" fill="currentColor"/>
<path d="M22.86 18.2899H24.38V13.7099H27.43V12.1899H22.86V18.2899Z" fill="currentColor"/>
<path d="M24.38 1.52002H22.86V6.10002H24.38V1.52002Z" fill="currentColor"/>
<path d="M22.86 6.09998H21.33V9.13998H22.86V6.09998Z" fill="currentColor"/>
<path d="M22.86 18.29H19.81V19.81H22.86V18.29Z" fill="currentColor"/>
<path d="M19.81 12.19H22.86V10.67H21.33V9.14001H19.81V12.19Z" fill="currentColor"/>
<path d="M22.86 0H18.29V1.52H22.86V0Z" fill="currentColor"/>
<path d="M18.29 19.8099V18.2899H19.81V12.1899H18.29V16.7599H16.76V19.8099H18.29Z" fill="currentColor"/>
<path d="M18.29 1.52002H16.76V6.10002H18.29V1.52002Z" fill="currentColor"/>
<path d="M16.76 15.24H15.24V16.76H16.76V15.24Z" fill="currentColor"/>
<path d="M16.76 6.09998H15.24V9.13998H16.76V6.09998Z" fill="currentColor"/>
<path d="M16.76 19.8101H12.19V21.3301H16.76V19.8101Z" fill="currentColor"/>
<path d="M15.24 13.71H12.19V15.24H15.24V13.71Z" fill="currentColor"/>
<path d="M13.72 10.67V12.19H15.24V9.14001H12.19V10.67H13.72Z" fill="currentColor"/>
<path d="M12.19 18.29H10.67V19.81H12.19V18.29Z" fill="currentColor"/>
<path d="M12.19 6.09998H10.67V9.13998H12.19V6.09998Z" fill="currentColor"/>
<path d="M12.19 12.1899H7.62V13.7099H12.19V12.1899Z" fill="currentColor"/>
<path d="M10.67 1.52002H9.14001V6.10002H10.67V1.52002Z" fill="currentColor"/>
<path d="M9.14 24.38H7.62V25.91H9.14V24.38Z" fill="currentColor"/>
<path d="M7.61998 21.33H6.09998V24.38H7.61998V21.33Z" fill="currentColor"/>
<path d="M7.61998 13.71H6.09998V15.24H7.61998V13.71Z" fill="currentColor"/>
<path d="M7.61998 9.14001H6.09998V12.19H7.61998V9.14001Z" fill="currentColor"/>
<path d="M9.14001 0H4.57001V1.52H9.14001V0Z" fill="currentColor"/>
<path d="M6.10001 15.24H4.57001V21.33H6.10001V15.24Z" fill="currentColor"/>
<path d="M6.10001 6.09998H4.57001V9.13998H6.10001V6.09998Z" fill="currentColor"/>
<path d="M4.56999 1.52002H3.04999V6.10002H4.56999V1.52002Z" fill="currentColor"/>
</svg>
