<svg width="32" height="32" viewBox="0 0 32 32" fill="none" xmlns="http://www.w3.org/2000/svg">
<g clip-path="url(#clip0_1128_12865)">
<path d="M1.52 22.86H3.04V25.9H4.57V27.43H6.09V28.95H9.14V30.48H12.19V32H19.8V30.48H22.85V28.95H25.9V27.43H27.42V25.9H28.95V22.86H30.47V19.81H32V12.19H30.47V9.14H28.95V6.09H27.42V4.57H25.9V3.05H22.85V1.52H19.8V0H12.19V1.52H9.14V3.05H6.09V4.57H4.57V6.09H3.04V9.14H1.52V12.19H0V19.81H1.52V22.86ZM4.57 13.71H6.09V10.67H7.61V7.62H10.66V6.09H13.71V4.57H18.28V6.09H21.33V7.62H24.38V10.67H25.9V13.71H27.42V18.29H25.9V21.33H24.38V24.38H21.33V25.9H18.28V27.43H13.71V25.9H10.66V24.38H7.61V21.33H6.09V18.29H4.57V13.71Z" fill="currentColor"/>
<path d="M22.85 9.14H18.28V16.76H22.85V9.14ZM21.33 15.24H19.8V10.67H21.33V15.24Z" fill="currentColor"/>
<path d="M18.28 22.86H16.76V24.38H18.28V22.86Z" fill="currentColor"/>
<path d="M18.28 18.29H16.76V19.81H18.28V18.29Z" fill="currentColor"/>
<path d="M16.76 19.81H15.23V21.33H16.76V19.81Z" fill="currentColor"/>
<path d="M15.23 21.33H13.71V22.86H15.23V21.33Z" fill="currentColor"/>
<path d="M16.7599 16.76V9.14H12.1899V16.76H16.7599ZM13.7099 10.67H15.2299V15.24H13.7099V10.67Z" fill="currentColor"/>
<path d="M13.7099 22.86H12.1899V24.38H13.7099V22.86Z" fill="currentColor"/>
<path d="M13.7099 18.29H12.1899V19.81H13.7099V18.29Z" fill="currentColor"/>
<path d="M10.66 9.14H9.14001V16.76H10.66V9.14Z" fill="currentColor"/>
</g>
<defs>
<clipPath id="clip0_1128_12865">
<rect width="32" height="32" fill="white"/>
</clipPath>
</defs>
</svg>
