<svg width="32" height="32" viewBox="0 0 32 32" fill="none" xmlns="http://www.w3.org/2000/svg">
<g clip-path="url(#clip0_1128_9661)">
<path d="M28.955 12.1899H27.435V28.9599H28.955V12.1899Z" fill="currentColor"/>
<path d="M27.435 28.96H25.905V30.48H27.435V28.96Z" fill="currentColor"/>
<path d="M27.435 10.67H25.905V12.19H27.435V10.67Z" fill="currentColor"/>
<path d="M25.905 9.15002H24.385V10.67H25.905V9.15002Z" fill="currentColor"/>
<path d="M25.905 30.48H6.095V32H25.905V30.48Z" fill="currentColor"/>
<path d="M7.62499 27.43H9.14499V28.96H22.855V27.43H24.385V25.91H25.905V15.24H6.09999V25.91H7.62999L7.62499 27.43ZM9.14499 18.29H22.855V25.91H9.14499V18.29Z" fill="currentColor"/>
<path d="M24.385 9.15005V7.62005H22.855V4.57005H24.385V3.05005H19.815V4.57005H21.335V7.62005H19.815V9.15005H24.385Z" fill="currentColor"/>
<path d="M21.335 22.86H10.665V24.38H21.335V22.86Z" fill="currentColor"/>
<path d="M21.335 19.8101H10.665V21.3401H21.335V19.8101Z" fill="currentColor"/>
<path d="M19.815 6.09998H18.285V7.61998H19.815V6.09998Z" fill="currentColor"/>
<path d="M18.285 6.1V4.57H16.765V0H15.245V4.57H13.715V6.1H18.285Z" fill="currentColor"/>
<path d="M13.715 6.09998H12.195V7.61998H13.715V6.09998Z" fill="currentColor"/>
<path d="M12.195 9.15005V7.62005H10.665V4.57005H12.195V3.05005H7.625V4.57005H9.145V7.62005H7.625V9.15005H12.195Z" fill="currentColor"/>
<path d="M7.625 9.15002H6.095V10.67H7.625V9.15002Z" fill="currentColor"/>
<path d="M6.095 28.96H4.575V30.48H6.095V28.96Z" fill="currentColor"/>
<path d="M6.095 10.67H4.575V12.19H6.095V10.67Z" fill="currentColor"/>
<path d="M4.575 12.1899H3.045V28.9599H4.575V12.1899Z" fill="currentColor"/>
</g>
<defs>
<clipPath id="clip0_1128_9661">
<rect width="32" height="32" fill="white"/>
</clipPath>
</defs>
</svg>
