<svg width="32" height="32" viewBox="0 0 32 32" fill="none" xmlns="http://www.w3.org/2000/svg">
<path d="M26.6649 4.56995H20.5649V6.09995H26.6649V4.56995Z" fill="currentColor"/>
<path d="M26.6649 16.77H20.5649V18.29H26.6649V16.77Z" fill="currentColor"/>
<path d="M26.6649 10.67H20.5649V12.19H26.6649V10.67Z" fill="currentColor"/>
<path d="M6.85496 30.48H8.37496V32H14.475V30.48H16V28.96H17.53V22.86H16V21.34H14.48V1.53003H12.95V15.24H9.89996V1.53003H8.37496V21.34H6.85496V22.86H5.33496V28.96H6.85496V30.48ZM12.945 22.86H14.475V24.38H16V27.43H14.48V24.38H12.95L12.945 22.86Z" fill="currentColor"/>
<path d="M12.9449 0H9.90491V1.53H12.9449V0Z" fill="currentColor"/>
</svg>
