<svg width="32" height="32" viewBox="0 0 32 32" fill="none" xmlns="http://www.w3.org/2000/svg">
<g clip-path="url(#clip0_1128_11514)">
<path d="M32 25.9H30.48V30.48H32V25.9Z" fill="currentColor"/>
<path d="M32 1.52H30.48V6.09H32V1.52Z" fill="currentColor"/>
<path d="M30.48 13.71H28.95V12.19H27.43V15.24H25.91V10.67H24.38V9.14H22.86V13.71H21.34V15.24H19.81V12.19H18.29V10.67H16.76V7.62H15.24V9.14H13.72V12.19H12.19V15.24H10.67V9.14H9.15V10.67H7.62V12.19H6.1V15.24H4.57V13.71H3.05V12.19H1.53V15.24H0V16.76H1.53V19.81H3.05V18.28H4.57V16.76H6.1V18.28H7.62V21.33H9.15V22.86H10.67V16.76H12.19V19.81H13.72V22.86H15.24V24.38H16.76V21.33H18.29V18.28H19.81V16.76H21.34V18.28H22.86V22.86H24.38V21.33H25.91V16.76H27.43V19.81H28.95V18.28H30.48V16.76H32V15.24H30.48V13.71Z" fill="currentColor"/>
<path d="M30.48 0H25.91V1.52H30.48V0Z" fill="currentColor"/>
<path d="M30.48 30.48H25.91V32H30.48V30.48Z" fill="currentColor"/>
<path d="M6.10003 30.48H1.53003V32H6.10003V30.48Z" fill="currentColor"/>
<path d="M6.10003 0H1.53003V1.52H6.10003V0Z" fill="currentColor"/>
<path d="M1.53 25.9H0V30.48H1.53V25.9Z" fill="currentColor"/>
<path d="M1.53 1.52H0V6.09H1.53V1.52Z" fill="currentColor"/>
</g>
<defs>
<clipPath id="clip0_1128_11514">
<rect width="32" height="32" fill="white"/>
</clipPath>
</defs>
</svg>
