<svg width="32" height="32" viewBox="0 0 32 32" fill="none" xmlns="http://www.w3.org/2000/svg">
<g clip-path="url(#clip0_1128_10533)">
<path d="M6.10001 0V7.62H7.63001V15.24H9.15001V13.72H10.67V15.24H9.14501V24.38H10.665V22.86H21.335V24.38H22.855V15.24H21.335V13.72H22.855V15.24H24.385V7.62H25.905V0H6.10001ZM16.77 1.53H19.82V3.05H16.77V1.53ZM12.2 1.53H15.25V3.05H12.2V1.53ZM7.63001 1.53H10.67V3.05H7.62501L7.63001 1.53ZM12.2 19.81H10.67V18.29H12.2V19.81ZM10.67 10.67V9.15H12.2V10.67H10.67ZM16.77 21.34H15.25V19.81H16.77V21.34ZM18.29 18.29H13.72V16.77H12.2V12.19H13.72V10.67H18.29V12.19H19.82V16.77H18.29V18.29ZM15.25 9.15V7.62H16.77V9.15H15.25ZM21.34 19.81H19.82V18.29H21.34V19.81ZM21.34 10.67H19.82V9.15H21.34V10.67ZM24.39 6.1H7.62501V4.57H24.385L24.39 6.1ZM24.39 3.05H21.34V1.53H24.39V3.05Z" fill="currentColor"/>
<path d="M10.665 24.38V32H21.335V24.38H10.665ZM19.815 28.96H18.285V30.48H13.715V28.96H12.2V25.91H19.82L19.815 28.96Z" fill="currentColor"/>
<path d="M18.285 27.43H13.715V28.96H18.285V27.43Z" fill="currentColor"/>
</g>
<defs>
<clipPath id="clip0_1128_10533">
<rect width="32" height="32" fill="white"/>
</clipPath>
</defs>
</svg>
