<svg width="32" height="32" viewBox="0 0 32 32" fill="none" xmlns="http://www.w3.org/2000/svg">
<g clip-path="url(#clip0_1128_11136)">
<path d="M32 30.47H30.48V32H32V30.47Z" fill="currentColor"/>
<path d="M32 0H30.48V1.52H32V0Z" fill="currentColor"/>
<path d="M30.4799 28.95H28.95V30.47H30.4799V28.95Z" fill="currentColor"/>
<path d="M30.4799 1.51999H28.95V3.04999H30.4799V1.51999Z" fill="currentColor"/>
<path d="M28.9501 27.43H27.4301V28.95H28.9501V27.43Z" fill="currentColor"/>
<path d="M28.9501 3.04999H27.4301V4.56999H28.9501V3.04999Z" fill="currentColor"/>
<path d="M27.43 25.9H25.9V27.43H27.43V25.9Z" fill="currentColor"/>
<path d="M28.95 24.38V22.85H22.86V28.95H24.38V25.9H25.9V24.38H28.95Z" fill="currentColor"/>
<path d="M27.43 4.57001H25.9V6.09001H27.43V4.57001Z" fill="currentColor"/>
<path d="M24.38 3.04999H22.86V9.13999H28.95V7.61999H25.9V6.08999H24.38V3.04999Z" fill="currentColor"/>
<path d="M9.14001 19.81H10.67V21.33H12.19V22.85H19.81V21.33H21.33V19.81H22.86V12.19H21.33V10.66H19.81V9.14001H12.19V10.66H10.67V12.19H9.14001V19.81ZM18.29 13.71H19.81V15.24H18.29V13.71ZM12.19 13.71H13.71V15.24H12.19V13.71ZM12.19 16.76H13.71V18.28H18.29V16.76H19.81V18.28H18.29V19.81H13.71V18.28H12.19V16.76Z" fill="currentColor"/>
<path d="M7.62005 28.95H9.14005V22.85H3.05005V24.38H6.10005V25.9H7.62005V28.95Z" fill="currentColor"/>
<path d="M6.09995 25.9H4.56995V27.43H6.09995V25.9Z" fill="currentColor"/>
<path d="M3.05005 7.61999V9.13999H9.14005V3.04999H7.62005V6.08999H6.10005V7.61999H3.05005Z" fill="currentColor"/>
<path d="M6.09995 4.57001H4.56995V6.09001H6.09995V4.57001Z" fill="currentColor"/>
<path d="M4.57005 27.43H3.05005V28.95H4.57005V27.43Z" fill="currentColor"/>
<path d="M4.57005 3.04999H3.05005V4.56999H4.57005V3.04999Z" fill="currentColor"/>
<path d="M3.05002 28.95H1.52002V30.47H3.05002V28.95Z" fill="currentColor"/>
<path d="M3.05002 1.51999H1.52002V3.04999H3.05002V1.51999Z" fill="currentColor"/>
<path d="M1.52 30.47H0V32H1.52V30.47Z" fill="currentColor"/>
<path d="M1.52 0H0V1.52H1.52V0Z" fill="currentColor"/>
</g>
<defs>
<clipPath id="clip0_1128_11136">
<rect width="32" height="32" fill="white"/>
</clipPath>
</defs>
</svg>
