<svg width="32" height="32" viewBox="0 0 32 32" fill="none" xmlns="http://www.w3.org/2000/svg">
<g clip-path="url(#clip0_1128_3809)">
<path d="M30.48 19.81H18.29V16.76H28.96V15.24H27.43V13.71H28.96V12.19H18.29V10.66H15.24V7.62H18.29V0H1.53V7.62H4.58V10.66H1.53V28.95H0V32H1.53V30.47H3.05V32H6.1V30.47H7.62V32H10.67V30.47H12.19V32H15.24V30.47H16.77V32H18.29V30.47H19.81V32H22.86V30.47H24.39V32H27.43V30.47H28.96V32H32V28.95H30.48V21.33H32V18.28H30.48V19.81ZM24.39 13.71H25.91V15.24H24.39V13.71ZM21.34 13.71H22.86V15.24H21.34V13.71ZM18.29 13.71H19.81V15.24H18.29V13.71ZM3.05 6.09V1.52H16.77V6.09H3.05ZM13.72 7.62V10.66H6.1V7.62H13.72ZM9.15 28.95H6.1V22.85H9.15V28.95ZM16.77 21.33H12.19V25.9H16.77V28.95H10.67V21.33H4.58V28.95H3.05V12.19H16.77V21.33ZM15.24 22.85V24.38H13.72V22.85H15.24ZM28.96 28.95H18.29V21.33H28.96V28.95Z" fill="currentColor"/>
<path d="M30.48 16.76H28.96V18.28H30.48V16.76Z" fill="currentColor"/>
<path d="M27.43 22.85H24.39V25.9H27.43V22.85Z" fill="currentColor"/>
<path d="M22.86 22.85H19.81V25.9H22.86V22.85Z" fill="currentColor"/>
<path d="M15.24 16.76H12.19V18.28H15.24V16.76Z" fill="currentColor"/>
<path d="M15.24 13.71H12.19V15.24H15.24V13.71Z" fill="currentColor"/>
<path d="M15.24 3.04004H13.72V4.57004H15.24V3.04004Z" fill="currentColor"/>
<path d="M10.67 3.04004H9.14999V4.57004H10.67V3.04004Z" fill="currentColor"/>
<path d="M9.15 16.76H4.58V18.28H9.15V16.76Z" fill="currentColor"/>
<path d="M9.15 13.71H4.58V15.24H9.15V13.71Z" fill="currentColor"/>
<path d="M6.1 3.04004H4.58V4.57004H6.1V3.04004Z" fill="currentColor"/>
</g>
<defs>
<clipPath id="clip0_1128_3809">
<rect width="32" height="32" fill="white"/>
</clipPath>
</defs>
</svg>
