<svg width="32" height="32" viewBox="0 0 32 32" fill="none" xmlns="http://www.w3.org/2000/svg">
<path d="M28.19 4.56995H26.67V24.3799H28.19V4.56995Z" fill="currentColor"/>
<path d="M25.1401 27.43H9.91011V25.91H8.38011V27.43H6.86011V32H28.1901V27.43H26.6701V24.38H25.1401V27.43ZM25.1401 30.48H22.1001V28.95H25.1401V30.48Z" fill="currentColor"/>
<path d="M26.6701 3.05005H23.6201V4.57005H26.6701V3.05005Z" fill="currentColor"/>
<path d="M22.1 18.29H19.05V19.81H22.1V18.29Z" fill="currentColor"/>
<path d="M16.0001 19.8101H11.4301V21.3301H16.0001V19.8101Z" fill="currentColor"/>
<path d="M12.9501 13.71H11.4301V15.24H14.4801V10.67H17.5301V15.24H14.4801V16.76H16.0001V19.81H17.5301V18.29H19.0501V10.67H22.1001V18.29H23.6201V4.57002H22.1001V9.14002H14.4801V1.52002H12.9501V13.71Z" fill="currentColor"/>
<path d="M12.95 0H9.91003V1.52H12.95V0Z" fill="currentColor"/>
<path d="M11.43 18.29H9.91003V19.81H11.43V18.29Z" fill="currentColor"/>
<path d="M11.4301 13.71V12.19H9.91011V1.52002H8.38011V12.19H6.86011V13.71H11.4301Z" fill="currentColor"/>
<path d="M8.38011 24.38H6.86011V25.91H8.38011V24.38Z" fill="currentColor"/>
<path d="M6.86009 21.33H5.34009V24.38H6.86009V21.33Z" fill="currentColor"/>
<path d="M6.86009 13.71H5.34009V15.24H6.86009V13.71Z" fill="currentColor"/>
<path d="M5.34006 15.24H3.81006V21.33H5.34006V15.24Z" fill="currentColor"/>
</svg>
