<svg width="32" height="32" viewBox="0 0 32 32" fill="none" xmlns="http://www.w3.org/2000/svg">
<path d="M30.4751 25.9H28.9551V28.95H30.4751V25.9Z" fill="currentColor"/>
<path d="M28.955 24.38H25.905V25.9H28.955V24.38Z" fill="currentColor"/>
<path d="M28.955 28.95H25.905V30.47H28.955V28.95Z" fill="currentColor"/>
<path d="M25.905 22.85H22.855V24.38H25.905V22.85Z" fill="currentColor"/>
<path d="M25.905 6.09003H24.385V13.71H25.905V6.09003Z" fill="currentColor"/>
<path d="M25.905 30.47H6.09497V32H25.905V30.47Z" fill="currentColor"/>
<path d="M24.385 13.71H22.855V18.28H24.385V13.71Z" fill="currentColor"/>
<path d="M24.385 3.03998H22.855V6.08998H24.385V3.03998Z" fill="currentColor"/>
<path d="M22.8551 18.28H21.3351V21.33H22.8551V18.28Z" fill="currentColor"/>
<path d="M21.3351 21.33H19.8151V24.38H21.3351V21.33Z" fill="currentColor"/>
<path d="M22.8551 1.52002H19.8151V3.04002H22.8551V1.52002Z" fill="currentColor"/>
<path d="M19.815 24.38H18.285V25.9H19.815V24.38Z" fill="currentColor"/>
<path d="M19.815 6.09003H18.285V7.61003H19.815V6.09003Z" fill="currentColor"/>
<path d="M18.285 25.9H16.765V27.42H18.285V25.9Z" fill="currentColor"/>
<path d="M16.765 27.42H15.235V28.95H16.765V27.42Z" fill="currentColor"/>
<path d="M15.235 25.9H13.715V27.42H15.235V25.9Z" fill="currentColor"/>
<path d="M19.8151 0H12.1951V1.52H19.8151V0Z" fill="currentColor"/>
<path d="M13.7151 24.38H12.1951V25.9H13.7151V24.38Z" fill="currentColor"/>
<path d="M12.195 13.71H13.715V15.23H18.285V13.71H19.815V12.19H21.335V7.61001H19.815V10.66H18.285V7.61001H16.765V6.09001H18.285V4.57001H13.715V6.09001H12.195V7.61001H10.665V12.19H12.195V13.71Z" fill="currentColor"/>
<path d="M12.195 21.33H10.665V24.38H12.195V21.33Z" fill="currentColor"/>
<path d="M12.195 1.52002H9.14502V3.04002H12.195V1.52002Z" fill="currentColor"/>
<path d="M10.665 18.28H9.14502V21.33H10.665V18.28Z" fill="currentColor"/>
<path d="M9.14497 22.85H6.09497V24.38H9.14497V22.85Z" fill="currentColor"/>
<path d="M9.14499 13.71H7.61499V18.28H9.14499V13.71Z" fill="currentColor"/>
<path d="M9.14499 3.03998H7.61499V6.08998H9.14499V3.03998Z" fill="currentColor"/>
<path d="M7.61497 6.09003H6.09497V13.71H7.61497V6.09003Z" fill="currentColor"/>
<path d="M6.09504 28.95H3.04504V30.47H6.09504V28.95Z" fill="currentColor"/>
<path d="M6.09504 24.38H3.04504V25.9H6.09504V24.38Z" fill="currentColor"/>
<path d="M3.04502 25.9H1.52502V28.95H3.04502V25.9Z" fill="currentColor"/>
</svg>
