<svg width="32" height="32" viewBox="0 0 32 32" fill="none" xmlns="http://www.w3.org/2000/svg">
<g clip-path="url(#clip0_1135_4024)">
<path d="M3.04499 16.76H28.955V24.38H30.475V3.04004H28.955V6.09004H3.04499V3.04004H1.52499V24.38H3.04499V16.76ZM16.765 7.61004H28.955V15.23H16.765V7.61004ZM3.04499 7.61004H15.235V15.23H3.04499V7.61004Z" fill="currentColor"/>
<path d="M28.955 24.38H27.425V25.9H28.955V24.38Z" fill="currentColor"/>
<path d="M28.955 1.52002H27.425V3.04002H28.955V1.52002Z" fill="currentColor"/>
<path d="M27.425 19.8101H25.905V22.8501H27.425V19.8101Z" fill="currentColor"/>
<path d="M4.57498 25.9V27.42H7.61498V28.95H6.09498V30.47H4.57498V32H7.61498V30.47H9.14498V28.95H10.665V27.42H21.335V28.95H22.855V30.47H24.385V32H27.425V30.47H25.905V28.95H24.385V27.42H27.425V25.9H4.57498Z" fill="currentColor"/>
<path d="M25.905 18.28H22.855V19.81H25.905V18.28Z" fill="currentColor"/>
<path d="M25.905 22.85H22.855V24.38H25.905V22.85Z" fill="currentColor"/>
<path d="M22.855 19.8101H21.335V22.8501H22.855V19.8101Z" fill="currentColor"/>
<path d="M18.285 19.8101H13.715V22.8501H18.285V19.8101Z" fill="currentColor"/>
<path d="M18.285 3.04004H13.715V4.57004H18.285V3.04004Z" fill="currentColor"/>
<path d="M10.665 19.8101H9.14499V22.8501H10.665V19.8101Z" fill="currentColor"/>
<path d="M9.145 18.28H6.095V19.81H9.145V18.28Z" fill="currentColor"/>
<path d="M9.145 22.85H6.095V24.38H9.145V22.85Z" fill="currentColor"/>
<path d="M27.425 0H4.57498V1.52H27.425V0Z" fill="currentColor"/>
<path d="M6.09498 19.8101H4.57498V22.8501H6.09498V19.8101Z" fill="currentColor"/>
<path d="M4.57498 24.38H3.04498V25.9H4.57498V24.38Z" fill="currentColor"/>
<path d="M4.57498 1.52002H3.04498V3.04002H4.57498V1.52002Z" fill="currentColor"/>
</g>
<defs>
<clipPath id="clip0_1135_4024">
<rect width="32" height="32" fill="white"/>
</clipPath>
</defs>
</svg>
