<svg width="32" height="32" viewBox="0 0 32 32" fill="none" xmlns="http://www.w3.org/2000/svg">
<g clip-path="url(#clip0_1128_4069)">
<path d="M31.235 18.28H29.715V21.33H31.235V18.28Z" fill="currentColor"/>
<path d="M3.80499 13.71V32H29.715V25.9H28.185V30.47H5.33499V13.71H3.80499Z" fill="currentColor"/>
<path d="M29.715 21.33H28.185V22.86H29.715V21.33Z" fill="currentColor"/>
<path d="M29.715 16.76H26.665V18.28H29.715V16.76Z" fill="currentColor"/>
<path d="M28.185 22.86H26.665V24.38H28.185V22.86Z" fill="currentColor"/>
<path d="M28.185 19.8101H26.665V21.3301H28.185V19.8101Z" fill="currentColor"/>
<path d="M26.665 24.38H25.145V25.9H26.665V24.38Z" fill="currentColor"/>
<path d="M26.665 18.28H25.145V19.81H26.665V18.28Z" fill="currentColor"/>
<path d="M25.145 25.9H23.615V27.43H25.145V25.9Z" fill="currentColor"/>
<path d="M25.145 19.8101H23.615V21.3301H25.145V19.8101Z" fill="currentColor"/>
<path d="M23.615 24.38H22.095V25.9H23.615V24.38Z" fill="currentColor"/>
<path d="M23.615 21.33H22.095V22.86H23.615V21.33Z" fill="currentColor"/>
<path d="M20.565 24.38H19.045V28.95H23.615V27.43H20.565V24.38Z" fill="currentColor"/>
<path d="M22.095 22.86H20.565V24.38H22.095V22.86Z" fill="currentColor"/>
<path d="M23.615 12.1899H12.955V13.7099H23.615V12.1899Z" fill="currentColor"/>
<path d="M20.565 18.28H8.375V19.81H20.565V18.28Z" fill="currentColor"/>
<path d="M15.995 24.38H8.375V25.9H15.995V24.38Z" fill="currentColor"/>
<path d="M3.80499 0V1.52H20.565V9.14H28.185V15.24H29.715V7.62H28.185V6.09H26.665V4.57H25.145V3.05H23.615V1.52H22.095V0H3.80499Z" fill="currentColor"/>
<path d="M3.80501 6.09005H2.28501V7.62005H0.765015V9.14005H2.28501V12.19H5.33501V9.14005H6.85501V12.19H9.90501V9.14005H11.425V7.62005H9.90501V6.09005H8.37501V4.57005H6.85501V3.05005H5.33501V4.57005H3.80501V6.09005Z" fill="currentColor"/>
</g>
<defs>
<clipPath id="clip0_1128_4069">
<rect width="32" height="32" fill="white"/>
</clipPath>
</defs>
</svg>
