<svg width="32" height="32" viewBox="0 0 32 32" fill="none" xmlns="http://www.w3.org/2000/svg">
<path d="M27.4249 26.66H25.9049V29.71H27.4249V26.66Z" fill="currentColor"/>
<path d="M25.905 29.71H6.09497V31.24H25.905V29.71Z" fill="currentColor"/>
<path d="M22.855 20.5701H21.335V22.0901H22.855V20.5701Z" fill="currentColor"/>
<path d="M22.855 11.4301H21.335V12.9501H22.855V11.4301Z" fill="currentColor"/>
<path d="M21.3349 19.05H19.8049V20.57H21.3349V19.05Z" fill="currentColor"/>
<path d="M13.7149 19.05V14.47H18.2849V19.05H19.8049V14.47H21.3349V12.95H10.6649V14.47H12.1949V19.05H13.7149Z" fill="currentColor"/>
<path d="M21.3349 11.43V9.90001H19.8049V8.38001H21.3349V3.81001H19.8049V2.28001H18.2849V0.76001H13.7149V2.28001H12.1999V3.81001H10.6699V8.38001H12.1999V9.90001H10.6699V11.43H21.3349ZM15.2349 3.81001H16.7649V5.33001H18.2849V6.86001H16.7649V5.33001H15.2349V3.81001Z" fill="currentColor"/>
<path d="M12.1949 19.05H10.6649V20.57H12.1949V19.05Z" fill="currentColor"/>
<path d="M10.6649 20.5701H9.1449V22.0901H10.6649V20.5701Z" fill="currentColor"/>
<path d="M10.6649 11.4301H9.1449V12.9501H10.6649V11.4301Z" fill="currentColor"/>
<path d="M9.14497 25.14V22.09H7.61497V25.14H6.09497V26.66H25.905V25.14H24.385V22.09H22.855V25.14H9.14497Z" fill="currentColor"/>
<path d="M6.09495 26.66H4.57495V29.71H6.09495V26.66Z" fill="currentColor"/>
</svg>
