<svg width="32" height="32" viewBox="0 0 32 32" fill="none" xmlns="http://www.w3.org/2000/svg">
<g clip-path="url(#clip0_1128_8808)">
<path d="M30.47 19.05H28.95V17.52H27.42V19.05H25.9V20.57H22.85V19.05H21.33V17.52H16.76V19.05H13.71V20.57H9.13999V19.05H7.60999V17.52H3.03999V19.05H1.51999V20.57H3.03999V25.14H4.56999V22.09H27.42V25.14H28.95V22.09H30.47V20.57H32V16H30.47V19.05Z" fill="currentColor"/>
<path d="M27.42 25.14H25.9V26.67H27.42V25.14Z" fill="currentColor"/>
<path d="M27.42 8.38H25.9V9.9H27.42V8.38Z" fill="currentColor"/>
<path d="M25.9 6.85999H24.38V8.37999H25.9V6.85999Z" fill="currentColor"/>
<path d="M25.9 26.67H6.09V28.19H25.9V26.67Z" fill="currentColor"/>
<path d="M22.85 8.38H21.33V9.9H22.85V8.38Z" fill="currentColor"/>
<path d="M24.38 5.33002H21.33V6.86002H24.38V5.33002Z" fill="currentColor"/>
<path d="M19.81 9.90002H18.28V11.43H19.81V9.90002Z" fill="currentColor"/>
<path d="M19.81 6.85999H18.28V8.37999H19.81V6.85999Z" fill="currentColor"/>
<path d="M16.76 8.38H15.23V9.9H16.76V8.38Z" fill="currentColor"/>
<path d="M13.71 9.90002H12.19V11.43H13.71V9.90002Z" fill="currentColor"/>
<path d="M13.71 6.85999H12.19V8.37999H13.71V6.85999Z" fill="currentColor"/>
<path d="M21.33 3.81H10.66V5.33H21.33V3.81Z" fill="currentColor"/>
<path d="M10.66 8.38H9.14001V9.9H10.66V8.38Z" fill="currentColor"/>
<path d="M10.66 5.33002H7.60999V6.86002H10.66V5.33002Z" fill="currentColor"/>
<path d="M7.61 6.85999H6.09V8.37999H7.61V6.85999Z" fill="currentColor"/>
<path d="M6.09001 25.14H4.57001V26.67H6.09001V25.14Z" fill="currentColor"/>
<path d="M6.09001 8.38H4.57001V9.9H6.09001V8.38Z" fill="currentColor"/>
<path d="M30.47 16V14.47H28.95V9.90002H27.42V14.47H4.56999V9.90002H3.03999V14.47H1.51999V16H30.47Z" fill="currentColor"/>
<path d="M1.52 16H0V19.05H1.52V16Z" fill="currentColor"/>
</g>
<defs>
<clipPath id="clip0_1128_8808">
<rect width="32" height="32" fill="white"/>
</clipPath>
</defs>
</svg>
