<svg width="32" height="32" viewBox="0 0 32 32" fill="none" xmlns="http://www.w3.org/2000/svg">
<g clip-path="url(#clip0_1128_5295)">
<path d="M32 19.81H28.95V22.86H32V19.81Z" fill="currentColor"/>
<path d="M32 28.96H28.95V32H32V28.96Z" fill="currentColor"/>
<path d="M32 24.39H24.38V27.43H32V24.39Z" fill="currentColor"/>
<path d="M30.48 9.15002H28.95V10.67H30.48V9.15002Z" fill="currentColor"/>
<path d="M27.43 15.24H28.95V10.67H25.9V12.19H27.43V15.24Z" fill="currentColor"/>
<path d="M27.43 15.24H25.9V16.77H27.43V15.24Z" fill="currentColor"/>
<path d="M27.43 28.96H19.81V32H27.43V28.96Z" fill="currentColor"/>
<path d="M25.9 12.19H24.38V13.72H25.9V12.19Z" fill="currentColor"/>
<path d="M25.9 4.57999H27.43V3.04999H22.86V4.57999H24.38V9.14999H25.9V4.57999Z" fill="currentColor"/>
<path d="M25.9 16.77H22.86V18.29H25.9V16.77Z" fill="currentColor"/>
<path d="M24.38 9.15002H22.86V12.19H24.38V9.15002Z" fill="currentColor"/>
<path d="M22.86 4.58002H21.33V6.10002H22.86V4.58002Z" fill="currentColor"/>
<path d="M22.86 24.39H13.71V27.43H22.86V24.39Z" fill="currentColor"/>
<path d="M27.43 19.81H18.29V22.86H27.43V19.81Z" fill="currentColor"/>
<path d="M21.33 9.15002H19.81V10.67H21.33V9.15002Z" fill="currentColor"/>
<path d="M21.33 6.09998H19.81V7.61998H21.33V6.09998Z" fill="currentColor"/>
<path d="M19.81 4.58002H18.29V6.10002H19.81V4.58002Z" fill="currentColor"/>
<path d="M16.76 7.62V9.14999H15.24V10.67H13.71V12.19H15.24V13.72H13.71V12.19H10.67V13.72H12.19V16.77H13.71V18.29H19.81V16.77H21.33V12.19H19.81V10.67H18.29V12.19H16.76V10.67H18.29V7.62H16.76ZM18.29 13.72H19.81V15.24H18.29V13.72ZM16.76 16.77H15.24V15.24H16.76V16.77Z" fill="currentColor"/>
<path d="M19.81 1.53V0H15.24V1.53H16.76V4.58H18.29V1.53H19.81Z" fill="currentColor"/>
<path d="M18.29 28.96H9.14001V32H18.29V28.96Z" fill="currentColor"/>
<path d="M16.76 19.81H7.62V22.86H16.76V19.81Z" fill="currentColor"/>
<path d="M15.24 1.53003H13.71V6.10003H15.24V1.53003Z" fill="currentColor"/>
<path d="M13.71 6.09998H12.19V7.61998H13.71V6.09998Z" fill="currentColor"/>
<path d="M12.19 4.58002H10.67V6.10002H12.19V4.58002Z" fill="currentColor"/>
<path d="M12.19 24.39H4.57001V27.43H12.19V24.39Z" fill="currentColor"/>
<path d="M10.67 6.09998H9.14001V10.67H10.67V6.09998Z" fill="currentColor"/>
<path d="M10.67 3.04999H9.14001V4.57999H10.67V3.04999Z" fill="currentColor"/>
<path d="M10.67 16.77H7.62V18.29H10.67V16.77Z" fill="currentColor"/>
<path d="M9.14 10.67H7.62V12.19H9.14V10.67Z" fill="currentColor"/>
<path d="M9.14 4.58002H7.62V6.10002H9.14V4.58002Z" fill="currentColor"/>
<path d="M7.61998 15.24H6.09998V16.77H7.61998V15.24Z" fill="currentColor"/>
<path d="M7.62 28.96H0V32H7.62V28.96Z" fill="currentColor"/>
<path d="M3.04999 9.15002V10.67H4.56999V15.24H6.09999V10.67H7.61999V9.15002H3.04999Z" fill="currentColor"/>
<path d="M3.05 24.39H0V27.43H3.05V24.39Z" fill="currentColor"/>
<path d="M6.1 19.81H0V22.86H6.1V19.81Z" fill="currentColor"/>
<path d="M3.05002 7.62H1.52002V9.14999H3.05002V7.62Z" fill="currentColor"/>
</g>
<defs>
<clipPath id="clip0_1128_5295">
<rect width="32" height="32" fill="white"/>
</clipPath>
</defs>
</svg>
