<svg width="32" height="32" viewBox="0 0 32 32" fill="none" xmlns="http://www.w3.org/2000/svg">
<path d="M28.955 16.755V18.285H30.475V13.715H28.955V15.235H24.375V13.715H22.855V18.285H24.375V16.755H28.955Z" fill="currentColor"/>
<path d="M30.475 3.04502H28.955V1.52502H24.375V3.04502H25.905V4.56502H27.425V6.09502H28.955V7.61502H30.475V3.04502Z" fill="currentColor"/>
<path d="M28.955 18.285H24.375V19.805H28.955V18.285Z" fill="currentColor"/>
<path d="M28.955 12.185H24.375V13.715H28.955V12.185Z" fill="currentColor"/>
<path d="M27.425 6.09504H25.905V4.56504H24.375V3.04504H22.855V7.61504H24.375V9.13504H28.955V7.61504H27.425V6.09504Z" fill="currentColor"/>
<path d="M16.765 25.905V27.425H18.285V28.945H19.805V24.375H18.285V25.905H16.765Z" fill="currentColor"/>
<path d="M19.805 13.715H18.285V15.235H16.765V16.755H18.285V18.285H19.805V13.715Z" fill="currentColor"/>
<path d="M19.8051 3.04502H18.2851V1.52502H13.7151V3.04502H12.1851V7.61502H13.7151V9.13502H18.2851V7.61502H19.8051V3.04502ZM15.2351 6.10002H13.7151V4.56502H15.2351V6.10002ZM18.2851 6.10002H16.7651V4.56502H18.2851V6.10002Z" fill="currentColor"/>
<path d="M18.285 28.945H13.715V30.475H18.285V28.945Z" fill="currentColor"/>
<path d="M18.285 22.855H13.715V24.375H18.285V22.855Z" fill="currentColor"/>
<path d="M16.765 16.755H15.235V18.285H13.715V19.805H18.285V18.285H16.765V16.755Z" fill="currentColor"/>
<path d="M15.235 15.235H16.765V13.715H18.285V12.185H13.715V13.715H15.235V15.235Z" fill="currentColor"/>
<path d="M15.2351 27.425V25.905H13.7151V24.375H12.1851V28.945H13.7151V27.425H15.2351Z" fill="currentColor"/>
<path d="M15.2351 16.755V15.235H13.7151V13.715H12.1851V18.285H13.7151V16.755H15.2351Z" fill="currentColor"/>
<path d="M7.61502 19.805V18.285H6.09502V16.755H7.61502V18.285H9.14502V13.715H7.61502V15.235H6.09502V13.715H7.61502V12.185H3.04502V13.715H4.56502V15.235H3.04502V13.715H1.52502V18.285H3.04502V16.755H4.56502V18.285H3.04502V19.805H7.61502Z" fill="currentColor"/>
<path d="M9.14502 3.04502H7.61502V1.52502H3.04502V3.04502H1.52502V7.61502H3.04502V9.13502H7.61502V7.61502H9.14502V3.04502ZM6.10002 6.10002H4.56502V4.56502H6.10002V6.10002Z" fill="currentColor"/>
</svg>
