<svg width="32" height="32" viewBox="0 0 32 32" fill="none" xmlns="http://www.w3.org/2000/svg">
<path d="M3.04499 16H13.715V26.67H4.56499V25.15H3.04499V28.2H4.56499V29.72H27.425V28.2H28.955V26.67H30.475V5.335H28.955V3.805H27.425V2.285H4.56499V3.805H13.715V14.475H3.04499V5.335H1.52499V25.145H3.04499V16ZM15.235 3.81H24.375V5.34H25.905V14.48H15.235V3.81ZM15.235 16H25.905V25.15H24.375V26.67H15.235V16Z" fill="currentColor"/>
<path d="M22.855 22.095H18.285V23.615H22.855V22.095Z" fill="currentColor"/>
<path d="M22.855 19.045H18.285V20.575H22.855V19.045Z" fill="currentColor"/>
<path d="M22.855 8.38501H18.285V9.90501H22.855V8.38501Z" fill="currentColor"/>
<path d="M10.665 22.095H9.14499V23.615H10.665V22.095Z" fill="currentColor"/>
<path d="M10.665 19.045H9.14499V20.575H10.665V19.045Z" fill="currentColor"/>
<path d="M9.14499 20.575H7.61499V22.095H9.14499V20.575Z" fill="currentColor"/>
<path d="M7.615 11.425H9.145V9.90501H10.665V8.38501H9.145V6.85501H7.615V8.38501H6.095V9.90501H7.615V11.425Z" fill="currentColor"/>
<path d="M7.615 22.095H6.095V23.615H7.615V22.095Z" fill="currentColor"/>
<path d="M7.615 19.045H6.095V20.575H7.615V19.045Z" fill="currentColor"/>
<path d="M4.56498 3.80501H3.04498V5.33501H4.56498V3.80501Z" fill="currentColor"/>
</svg>
