<svg width="32" height="32" viewBox="0 0 32 32" fill="none" xmlns="http://www.w3.org/2000/svg">
<g clip-path="url(#clip0_1128_12778)">
<path d="M5.32996 28.95V32H31.24V28.95H28.19V4.57001H26.67V28.95H5.32996Z" fill="currentColor"/>
<path d="M26.67 3.05H25.14V4.57H26.67V3.05Z" fill="currentColor"/>
<path d="M25.14 1.52H23.62V3.05H25.14V1.52Z" fill="currentColor"/>
<path d="M23.62 4.57001H22.1V6.09001H23.62V4.57001Z" fill="currentColor"/>
<path d="M23.62 0H12.95V1.52H23.62V0Z" fill="currentColor"/>
<path d="M16 25.9V27.43H25.14V6.09H23.62V10.67H19.05V4.57H22.1V3.05H14.48V4.57H17.52V10.67H12.95V12.19H17.52V18.28H16V19.81H17.52V25.9H16ZM19.05 12.19H23.62V18.28H19.05V12.19ZM19.05 19.81H23.62V25.9H19.05V19.81Z" fill="currentColor"/>
<path d="M14.48 16.76H12.95V25.9H14.48V16.76Z" fill="currentColor"/>
<path d="M14.48 4.57001H12.95V6.09001H14.48V4.57001Z" fill="currentColor"/>
<path d="M12.9501 6.09H11.4301V9.14H12.9501V6.09Z" fill="currentColor"/>
<path d="M12.9501 1.52H11.4301V3.05H12.9501V1.52Z" fill="currentColor"/>
<path d="M11.43 3.05H9.91003V4.57H11.43V3.05Z" fill="currentColor"/>
<path d="M9.91 4.57001H8.38V7.62001H9.91V4.57001Z" fill="currentColor"/>
<path d="M5.32996 21.33H6.85996V24.38H8.37996V21.33H9.90996V18.28H5.32996V21.33Z" fill="currentColor"/>
<path d="M9.90996 9.14H5.32996V10.67H9.90996V9.14Z" fill="currentColor"/>
<path d="M12.95 25.9H2.29004V27.43H12.95V25.9Z" fill="currentColor"/>
<path d="M5.33004 15.24V10.67H3.81004V15.24H2.29004V16.76H12.95V15.24H11.43V10.67H9.91004V15.24H5.33004Z" fill="currentColor"/>
<path d="M2.29001 16.76H0.76001V25.9H2.29001V16.76Z" fill="currentColor"/>
</g>
<defs>
<clipPath id="clip0_1128_12778">
<rect width="32" height="32" fill="white"/>
</clipPath>
</defs>
</svg>
