<svg width="32" height="32" viewBox="0 0 32 32" fill="none" xmlns="http://www.w3.org/2000/svg">
<path d="M29.72 23.62H28.19V22.09H26.67V20.57H25.15V17.52H23.62V20.57H22.1V22.09H20.57V23.62H17.53V25.14H20.57V26.67H22.1V28.19H23.62V29.71H25.15V31.24H29.72V29.71H31.24V25.14H29.72V23.62ZM29.72 28.19H28.19V26.67H26.67V25.14H25.15V23.62H26.67V25.14H28.19V26.67H29.72V28.19Z" fill="currentColor"/>
<path d="M26.67 9.90002H25.15V17.52H26.67V9.90002Z" fill="currentColor"/>
<path d="M25.15 6.86002H23.62V9.90002H25.15V6.86002Z" fill="currentColor"/>
<path d="M23.62 5.33002H22.1V6.86002H23.62V5.33002Z" fill="currentColor"/>
<path d="M22.1 9.90002H20.57V17.52H22.1V9.90002Z" fill="currentColor"/>
<path d="M22.1 3.81H20.57V5.33H22.1V3.81Z" fill="currentColor"/>
<path d="M20.57 17.52H19.05V19.05H20.57V17.52Z" fill="currentColor"/>
<path d="M20.57 8.38H19.05V9.9H20.57V8.38Z" fill="currentColor"/>
<path d="M19.05 19.05H17.53V20.57H19.05V19.05Z" fill="currentColor"/>
<path d="M19.05 6.86002H17.53V8.38002H19.05V6.86002Z" fill="currentColor"/>
<path d="M20.57 2.28H17.53V3.81H20.57V2.28Z" fill="currentColor"/>
<path d="M17.53 20.57H9.91003V22.09H17.53V20.57Z" fill="currentColor"/>
<path d="M17.53 14.47H16V16H17.53V14.47Z" fill="currentColor"/>
<path d="M17.53 25.14H9.91003V26.67H17.53V25.14Z" fill="currentColor"/>
<path d="M11.43 16V17.52H12.96V19.05H14.48V17.52H16V16H11.43Z" fill="currentColor"/>
<path d="M16 11.43V9.9H14.48V8.38H12.96V9.9H11.43V11.43H16Z" fill="currentColor"/>
<path d="M16 12.95H11.43V14.47H16V12.95Z" fill="currentColor"/>
<path d="M17.53 5.33002H9.91003V6.86002H17.53V5.33002Z" fill="currentColor"/>
<path d="M17.53 0.76001H9.91003V2.28001H17.53V0.76001Z" fill="currentColor"/>
<path d="M11.43 11.43H9.91003V12.95H11.43V11.43Z" fill="currentColor"/>
<path d="M9.90999 23.62H6.85999V25.14H9.90999V23.62Z" fill="currentColor"/>
<path d="M9.91 19.05H8.38V20.57H9.91V19.05Z" fill="currentColor"/>
<path d="M9.91 6.86002H8.38V8.38002H9.91V6.86002Z" fill="currentColor"/>
<path d="M9.90999 2.28H6.85999V3.81H9.90999V2.28Z" fill="currentColor"/>
<path d="M8.37999 17.52H6.85999V19.05H8.37999V17.52Z" fill="currentColor"/>
<path d="M8.37999 8.38H6.85999V9.9H8.37999V8.38Z" fill="currentColor"/>
<path d="M6.86003 22.09H5.34003V23.62H6.86003V22.09Z" fill="currentColor"/>
<path d="M6.86003 9.90002H5.34003V17.52H6.86003V9.90002Z" fill="currentColor"/>
<path d="M6.86003 3.81H5.34003V5.33H6.86003V3.81Z" fill="currentColor"/>
<path d="M5.34 20.57H3.81V22.09H5.34V20.57Z" fill="currentColor"/>
<path d="M5.34 5.33002H3.81V6.86002H5.34V5.33002Z" fill="currentColor"/>
<path d="M3.81004 17.52H2.29004V20.57H3.81004V17.52Z" fill="currentColor"/>
<path d="M3.81004 6.86002H2.29004V9.90002H3.81004V6.86002Z" fill="currentColor"/>
<path d="M2.29001 9.90002H0.76001V17.52H2.29001V9.90002Z" fill="currentColor"/>
</svg>
