<svg width="32" height="32" viewBox="0 0 32 32" fill="none" xmlns="http://www.w3.org/2000/svg">
<path d="M25.145 12.1899V15.2299H6.85496V12.1899H5.33496V19.8099H6.85496V16.7599H25.145V19.8099H26.665V12.1899H25.145Z" fill="currentColor"/>
<path d="M6.85498 19.8101V21.3301H8.37498V22.8501H11.425V21.3301H20.565V22.8501H23.615V21.3301H25.145V19.8101H6.85498Z" fill="currentColor"/>
<path d="M9.90498 28.95V27.42H8.37498V28.95H6.85498V32H8.37498V30.47H23.615V32H25.145V28.95H23.615V27.42H22.095V28.95H9.90498Z" fill="currentColor"/>
<path d="M22.0949 25.9H19.0449V27.42H22.0949V25.9Z" fill="currentColor"/>
<path d="M20.5649 22.85H19.0449V24.38H20.5649V22.85Z" fill="currentColor"/>
<path d="M20.5649 7.60999H19.0449V9.13999H20.5649V7.60999Z" fill="currentColor"/>
<path d="M22.0949 4.56995H19.0449V6.08995H22.0949V4.56995Z" fill="currentColor"/>
<path d="M19.045 24.38H12.955V25.9H19.045V24.38Z" fill="currentColor"/>
<path d="M19.045 6.08997H12.955V7.60997H19.045V6.08997Z" fill="currentColor"/>
<path d="M12.9549 25.9H9.90491V27.42H12.9549V25.9Z" fill="currentColor"/>
<path d="M12.9549 22.85H11.4249V24.38H12.9549V22.85Z" fill="currentColor"/>
<path d="M12.9549 7.60999H11.4249V9.13999H12.9549V7.60999Z" fill="currentColor"/>
<path d="M12.9549 4.56995H9.90491V6.08995H12.9549V4.56995Z" fill="currentColor"/>
<path d="M22.095 3.04V4.57H23.615V3.04H25.145V0H23.615V1.52H8.37498V0H6.85498V3.04H8.37498V4.57H9.90498V3.04H22.095Z" fill="currentColor"/>
<path d="M25.145 12.19V10.66H23.615V9.14001H20.565V10.66H11.425V9.14001H8.37498V10.66H6.85498V12.19H25.145Z" fill="currentColor"/>
</svg>
