<svg width="32" height="32" viewBox="0 0 32 32" fill="none" xmlns="http://www.w3.org/2000/svg">
<g clip-path="url(#clip0_1135_4630)">
<path d="M31.24 3.05005H29.71V28.9501H31.24V3.05005Z" fill="currentColor"/>
<path d="M29.7101 28.95H28.1901V30.4699H29.7101V28.95Z" fill="currentColor"/>
<path d="M29.7101 1.52002H28.1901V3.05002H29.7101V1.52002Z" fill="currentColor"/>
<path d="M28.1901 30.47H3.81006V32H28.1901V30.47Z" fill="currentColor"/>
<path d="M26.66 24.38H25.14V25.9H26.66V24.38Z" fill="currentColor"/>
<path d="M25.14 25.9H23.62V27.43H25.14V25.9Z" fill="currentColor"/>
<path d="M25.14 22.85H23.62V24.38H25.14V22.85Z" fill="currentColor"/>
<path d="M9.89996 19.81H11.43V18.28H26.66V16.76H11.43V15.24H9.89996V16.76H5.32996V18.28H9.89996V19.81Z" fill="currentColor"/>
<path d="M26.66 12.1899H23.62V13.7099H26.66V12.1899Z" fill="currentColor"/>
<path d="M26.66 9.14001H23.62V10.66H26.66V9.14001Z" fill="currentColor"/>
<path d="M23.62 27.4301H22.09V28.9501H23.62V27.4301Z" fill="currentColor"/>
<path d="M23.62 21.33H22.09V22.85H23.62V21.33Z" fill="currentColor"/>
<path d="M20.57 12.1899H17.52V13.7099H20.57V12.1899Z" fill="currentColor"/>
<path d="M20.57 9.14001H17.52V10.66H20.57V9.14001Z" fill="currentColor"/>
<path d="M20.57 6.08997H17.52V7.61997H20.57V6.08997Z" fill="currentColor"/>
<path d="M17.52 22.85H16V21.33H14.47V28.95H16V27.43H17.52V25.9H19.05V24.38H17.52V22.85Z" fill="currentColor"/>
<path d="M14.4701 12.1899H11.4301V13.7099H14.4701V12.1899Z" fill="currentColor"/>
<path d="M14.4701 9.14001H11.4301V10.66H14.4701V9.14001Z" fill="currentColor"/>
<path d="M14.4701 6.08997H11.4301V7.61997H14.4701V6.08997Z" fill="currentColor"/>
<path d="M14.4701 3.05005H11.4301V4.57005H14.4701V3.05005Z" fill="currentColor"/>
<path d="M9.9 27.4301H8.38V28.9501H9.9V27.4301Z" fill="currentColor"/>
<path d="M9.9 21.33H8.38V22.85H9.9V21.33Z" fill="currentColor"/>
<path d="M8.37998 25.9H6.84998V27.43H8.37998V25.9Z" fill="currentColor"/>
<path d="M8.37998 22.85H6.84998V24.38H8.37998V22.85Z" fill="currentColor"/>
<path d="M8.37996 12.1899H5.32996V13.7099H8.37996V12.1899Z" fill="currentColor"/>
<path d="M8.37996 9.14001H5.32996V10.66H8.37996V9.14001Z" fill="currentColor"/>
<path d="M6.84996 24.38H5.32996V25.9H6.84996V24.38Z" fill="currentColor"/>
<path d="M28.1901 0H3.81006V1.52H28.1901V0Z" fill="currentColor"/>
<path d="M3.81003 28.95H2.28003V30.4699H3.81003V28.95Z" fill="currentColor"/>
<path d="M3.81003 1.52002H2.28003V3.05002H3.81003V1.52002Z" fill="currentColor"/>
<path d="M2.28001 3.05005H0.76001V28.9501H2.28001V3.05005Z" fill="currentColor"/>
</g>
<defs>
<clipPath id="clip0_1135_4630">
<rect width="32" height="32" fill="white"/>
</clipPath>
</defs>
</svg>
